<svg width="525" height="172" viewBox="0 0 525 172" fill="none" xmlns="http://www.w3.org/2000/svg">
<path d="M240.32 118.404C237.89 118.404 235.2 117.524 233.06 115.844L234.81 113.184C236.66 114.584 238.67 115.294 240.42 115.294C242.17 115.294 243.08 114.584 243.08 113.444V113.374C243.08 112.044 241.26 111.594 239.25 110.974C236.72 110.264 233.9 109.224 233.9 105.954V105.894C233.9 102.654 236.59 100.674 240 100.674C242.14 100.674 244.47 101.424 246.29 102.614L244.73 105.404C243.08 104.394 241.33 103.784 239.9 103.784C238.38 103.784 237.5 104.494 237.5 105.504V105.564C237.5 106.794 239.35 107.314 241.36 107.964C243.86 108.744 246.68 109.874 246.68 112.954V113.014C246.68 116.614 243.89 118.394 240.33 118.394" fill="#ED1C24"/>
<path d="M254.65 118.074H250.73V94.4043H254.65V103.614C255.75 101.994 257.34 100.594 260 100.594C263.86 100.594 266.1 103.184 266.1 107.174V118.064H262.18V108.334C262.18 105.674 260.85 104.154 258.52 104.154C256.19 104.154 254.66 105.744 254.66 108.404V118.064L254.65 118.074Z" fill="#ED1C24"/>
<path d="M281.41 118.074V115.964C280.24 117.354 278.46 118.424 275.87 118.424C272.63 118.424 269.77 116.574 269.77 113.134V113.074C269.77 109.374 272.72 107.564 276.71 107.564C278.79 107.564 280.11 107.854 281.44 108.274V107.854C281.44 105.484 279.95 104.194 277.23 104.194C275.32 104.194 273.89 104.614 272.33 105.264L271.26 102.124C273.14 101.284 274.99 100.694 277.78 100.694C282.84 100.694 285.3 103.354 285.3 107.924V118.074H281.41ZM281.51 110.814C280.5 110.424 279.11 110.134 277.59 110.134C275.13 110.134 273.67 111.134 273.67 112.894V112.954C273.67 114.574 275.13 115.484 276.98 115.484C279.57 115.484 281.52 114.024 281.52 111.884V110.814H281.51Z" fill="#ED1C24"/>
<path d="M294.06 118.074H290.14V100.954H294.06V104.814C295.13 102.254 297.11 100.504 300.12 100.634V104.784H299.89C296.45 104.784 294.06 107.024 294.06 111.564V118.084V118.074Z" fill="#ED1C24"/>
<path d="M303.27 94.6045H307.48V98.3345H303.27V94.6045ZM303.43 100.954H307.35V118.074H303.43V100.954Z" fill="#ED1C24"/>
<path d="M316.35 118.074H312.43V100.954H316.35V103.614C317.45 101.994 319.04 100.594 321.7 100.594C325.56 100.594 327.8 103.184 327.8 107.174V118.064H323.88V108.334C323.88 105.674 322.55 104.154 320.22 104.154C317.89 104.154 316.36 105.744 316.36 108.404V118.064L316.35 118.074Z" fill="#ED1C24"/>
<path d="M340.17 123.334C337.35 123.334 334.72 122.624 332.52 121.294L333.98 118.344C335.8 119.474 337.74 120.154 340.08 120.154C343.58 120.154 345.49 118.344 345.49 114.904V113.574C344.06 115.424 342.28 116.724 339.46 116.724C335.44 116.724 331.68 113.774 331.68 108.684C331.68 103.594 335.47 100.614 339.46 100.614C342.35 100.614 344.13 101.944 345.46 103.534V100.974H349.38V114.594C349.38 120.654 346.07 123.344 340.17 123.344M340.49 103.924C337.77 103.924 335.63 105.804 335.63 108.654C335.63 111.504 337.8 113.424 340.49 113.424C343.18 113.424 345.51 111.514 345.51 108.694C345.51 105.874 343.21 103.924 340.49 103.924Z" fill="#ED1C24"/>
<path d="M368.57 118.074H364.65V94.4043H368.57V103.614C369.67 101.994 371.26 100.594 373.92 100.594C377.78 100.594 380.02 103.184 380.02 107.174V118.064H376.1V108.334C376.1 105.674 374.77 104.154 372.44 104.154C370.11 104.154 368.58 105.744 368.58 108.404V118.064L368.57 118.074Z" fill="#ED1C24"/>
<path d="M395.33 118.074V115.964C394.16 117.354 392.38 118.424 389.78 118.424C386.54 118.424 383.68 116.574 383.68 113.134V113.074C383.68 109.374 386.63 107.564 390.62 107.564C392.7 107.564 394.02 107.854 395.35 108.274V107.854C395.35 105.484 393.86 104.194 391.14 104.194C389.23 104.194 387.8 104.614 386.24 105.264L385.17 102.124C387.05 101.284 388.9 100.694 391.69 100.694C396.75 100.694 399.21 103.354 399.21 107.924V118.074H395.32H395.33ZM395.43 110.814C394.42 110.424 393.03 110.134 391.51 110.134C389.05 110.134 387.59 111.134 387.59 112.894V112.954C387.59 114.574 389.05 115.484 390.9 115.484C393.49 115.484 395.44 114.024 395.44 111.884V110.814H395.43Z" fill="#ED1C24"/>
<path d="M413.78 118.434C410.96 118.434 409.18 117.004 407.98 115.414V123.264H404.06V100.965H407.98V103.814C409.24 102.034 411.03 100.604 413.78 100.604C417.83 100.604 421.75 103.815 421.75 109.525C421.75 115.235 417.86 118.444 413.78 118.444M412.87 104.014C410.21 104.014 407.88 106.185 407.88 109.525C407.88 112.865 410.22 115.034 412.87 115.034C415.52 115.034 417.76 112.925 417.76 109.525C417.76 106.125 415.52 104.014 412.87 104.014Z" fill="#ED1C24"/>
<path d="M435.63 118.434C432.81 118.434 431.03 117.004 429.83 115.414V123.264H425.91V100.965H429.83V103.814C431.09 102.034 432.88 100.604 435.63 100.604C439.68 100.604 443.6 103.815 443.6 109.525C443.6 115.235 439.71 118.444 435.63 118.444M434.72 104.014C432.06 104.014 429.73 106.185 429.73 109.525C429.73 112.865 432.07 115.034 434.72 115.034C437.37 115.034 439.61 112.925 439.61 109.525C439.61 106.125 437.37 104.014 434.72 104.014Z" fill="#ED1C24"/>
<path d="M447.61 94.6045H451.82V98.3345H447.61V94.6045ZM447.77 100.954H451.69V118.074H447.77V100.954Z" fill="#ED1C24"/>
<path d="M460.69 118.074H456.77V100.954H460.69V103.614C461.79 101.994 463.38 100.594 466.04 100.594C469.9 100.594 472.14 103.184 472.14 107.174V118.064H468.22V108.334C468.22 105.674 466.89 104.154 464.56 104.154C462.23 104.154 460.7 105.744 460.7 108.404V118.064L460.69 118.074Z" fill="#ED1C24"/>
<path d="M484.26 115.254C486.17 115.254 487.53 114.544 488.9 113.214L491.2 115.254C489.58 117.194 487.34 118.464 484.2 118.464C479.24 118.464 475.41 114.864 475.41 109.544C475.41 104.614 478.88 100.594 483.77 100.594C489.22 100.594 491.97 104.874 491.97 109.834C491.97 110.194 491.94 110.514 491.9 110.904H479.32C479.77 113.694 481.72 115.244 484.25 115.244M488.08 108.304C487.82 105.774 486.33 103.794 483.74 103.794C481.34 103.794 479.66 105.644 479.3 108.304H488.09H488.08Z" fill="#ED1C24"/>
<path d="M501.69 118.404C499.26 118.404 496.57 117.524 494.43 115.844L496.18 113.184C498.03 114.584 500.04 115.294 501.79 115.294C503.54 115.294 504.45 114.584 504.45 113.444V113.374C504.45 112.044 502.63 111.594 500.62 110.974C498.09 110.264 495.27 109.224 495.27 105.954V105.894C495.27 102.654 497.96 100.674 501.37 100.674C503.51 100.674 505.84 101.424 507.66 102.614L506.1 105.404C504.45 104.394 502.7 103.784 501.27 103.784C499.75 103.784 498.87 104.494 498.87 105.504V105.564C498.87 106.794 500.72 107.314 502.73 107.964C505.23 108.744 508.05 109.874 508.05 112.954V113.014C508.05 116.614 505.26 118.394 501.7 118.394" fill="#ED1C24"/>
<path d="M517.91 118.404C515.48 118.404 512.79 117.524 510.65 115.844L512.4 113.184C514.25 114.584 516.26 115.294 518.01 115.294C519.76 115.294 520.67 114.584 520.67 113.444V113.374C520.67 112.044 518.85 111.594 516.84 110.974C514.31 110.264 511.49 109.224 511.49 105.954V105.894C511.49 102.654 514.18 100.674 517.59 100.674C519.73 100.674 522.06 101.424 523.88 102.614L522.32 105.404C520.67 104.394 518.92 103.784 517.49 103.784C515.97 103.784 515.09 104.494 515.09 105.504V105.564C515.09 106.794 516.94 107.314 518.95 107.964C521.45 108.744 524.27 109.874 524.27 112.954V113.014C524.27 116.614 521.48 118.394 517.92 118.394" fill="#ED1C24"/>
<path d="M66.3098 118.564C64.9498 122.064 63.4198 123.364 60.6698 123.364C59.0198 123.364 57.8198 122.974 56.6198 122.324L57.9498 119.404C58.6598 119.794 59.4398 120.054 60.2498 120.054C61.3498 120.054 62.0298 119.564 62.6798 118.074L55.5498 100.954H59.7298L64.5898 113.664L69.0298 100.954H73.1098L66.2998 118.554L66.3098 118.564Z" fill="#ED1C24"/>
<path d="M82.85 115.254C84.76 115.254 86.12 114.544 87.49 113.214L89.79 115.254C88.17 117.194 85.93 118.464 82.79 118.464C77.83 118.464 74 114.864 74 109.544C74 104.614 77.47 100.594 82.36 100.594C87.81 100.594 90.56 104.874 90.56 109.834C90.56 110.194 90.53 110.514 90.49 110.904H77.91C78.36 113.694 80.31 115.244 82.84 115.244M86.67 108.304C86.41 105.774 84.92 103.794 82.33 103.794C79.93 103.794 78.25 105.644 77.89 108.304H86.68H86.67Z" fill="#ED1C24"/>
<path d="M104.97 118.074V115.964C103.8 117.354 102.02 118.424 99.4301 118.424C96.1901 118.424 93.3301 116.574 93.3301 113.134V113.074C93.3301 109.374 96.2801 107.564 100.27 107.564C102.34 107.564 103.67 107.854 105 108.274V107.854C105 105.484 103.51 104.194 100.79 104.194C98.8801 104.194 97.4501 104.614 95.8901 105.264L94.8201 102.124C96.7001 101.284 98.5501 100.694 101.34 100.694C106.4 100.694 108.86 103.354 108.86 107.924V118.074H104.97ZM105.07 110.814C104.06 110.424 102.67 110.134 101.15 110.134C98.6901 110.134 97.2301 111.134 97.2301 112.894V112.954C97.2301 114.574 98.6901 115.484 100.54 115.484C103.13 115.484 105.08 114.024 105.08 111.884V110.814H105.07Z" fill="#ED1C24"/>
<path d="M117.62 118.074H113.7V100.954H117.62V104.814C118.69 102.254 120.67 100.504 123.68 100.634V104.784H123.45C120.01 104.784 117.61 107.024 117.61 111.564V118.084L117.62 118.074Z" fill="#ED1C24"/>
<path d="M133.02 118.404C130.59 118.404 127.9 117.524 125.76 115.844L127.51 113.184C129.36 114.584 131.37 115.294 133.12 115.294C134.87 115.294 135.78 114.584 135.78 113.444V113.374C135.78 112.044 133.96 111.594 131.95 110.974C129.42 110.264 126.6 109.224 126.6 105.954V105.894C126.6 102.654 129.29 100.674 132.7 100.674C134.84 100.674 137.17 101.424 138.99 102.614L137.43 105.404C135.78 104.394 134.03 103.784 132.6 103.784C131.08 103.784 130.2 104.494 130.2 105.504V105.564C130.2 106.794 132.05 107.314 134.06 107.964C136.56 108.744 139.38 109.874 139.38 112.954V113.014C139.38 116.614 136.59 118.394 133.03 118.394" fill="#ED1C24"/>
<path d="M159.28 118.465C154.06 118.465 150.2 114.475 150.2 109.585C150.2 104.695 154.09 100.604 159.34 100.604C164.59 100.604 168.45 104.595 168.45 109.525C168.45 114.455 164.56 118.474 159.27 118.474M159.27 104.044C156.12 104.044 154.12 106.505 154.12 109.525C154.12 112.545 156.29 115.064 159.34 115.064C162.39 115.064 164.53 112.605 164.53 109.585C164.53 106.565 162.36 104.044 159.28 104.044" fill="#ED1C24"/>
<path d="M181.35 101.094V104.334H176.88V118.074H172.96V104.334H170.79V101.054H172.96V99.8243C172.96 96.0643 174.84 94.2144 178.21 94.2144C179.57 94.2144 180.51 94.4043 181.39 94.6643V97.9743C180.61 97.7143 179.93 97.5544 179.09 97.5544C177.6 97.5544 176.82 98.3643 176.82 100.154V101.094H181.36H181.35Z" fill="#ED1C24"/>
<path d="M204.76 42.5143C203.11 41.1843 202.78 39.7344 202.54 39.2144L203.44 44.2744C203.44 44.2744 203.99 45.5643 205.02 46.7543C205.75 46.7143 206.53 46.6843 207.3 46.6843L206.96 44.7543C206.66 43.8943 205.62 43.1943 204.76 42.5043M201.38 24.2943C202.43 25.2943 203.3 25.6543 203.71 26.4543L202.76 21.0743C202.31 20.1443 201.28 19.2644 200.08 18.4644C198.96 17.7144 198.47 16.2843 198.47 16.2843C198.47 16.2843 199.47 21.9344 199.48 21.9644C199.63 22.2544 199.92 22.9044 201.38 24.3044M202.44 15.6243C202.44 15.6243 202.36 10.3643 199.55 9.37433C199.51 9.36433 197.52 10.9344 194.21 10.7144C195.84 11.4444 198.04 12.5043 198.07 12.5643C199.6 14.9943 202.43 15.6343 202.43 15.6343M212.49 20.6843C209.76 21.8843 210.07 27.1343 210.07 27.1343C210.07 27.1343 212.85 26.2844 214.19 23.7444C214.22 23.6944 216.33 22.4744 217.91 21.6144C214.63 22.0844 212.53 20.6643 212.49 20.6843ZM212.36 31.1943C211.2 32.0543 210.21 32.9843 209.81 33.9343L209.12 39.3543C209.49 38.5343 210.34 38.1444 211.35 37.0844C212.74 35.6244 213 34.9543 213.14 34.6643C213.15 34.6343 213.87 28.9443 213.87 28.9443C213.87 28.9443 213.45 30.3943 212.37 31.1943M210.25 43.9043C208.74 45.0143 208.28 45.9344 208.27 46.0544C208.27 46.0844 208.23 46.3343 208.19 46.7043C209.38 46.7243 210.54 46.7943 211.47 46.8843C211.56 46.5943 211.63 46.3243 211.68 46.1143L212.35 40.8443C212.35 40.8443 211.79 42.7743 210.25 43.9043ZM203.67 36.3044C205.08 37.1344 205.79 38.1843 205.79 38.1843C205.79 38.1843 204.91 33.2243 204.89 33.1043C204.87 32.9843 204.37 32.0944 202.81 31.0544C201.22 30.0044 200.56 28.0943 200.56 28.0943L201.49 33.3243C201.7 34.0343 201.98 35.3043 203.67 36.2943M228.12 10.3243L224.19 12.6643C224.19 12.6643 227.59 12.0043 229.27 12.7343C228.48 11.8543 228.02 10.3943 228.12 10.3243ZM224.66 15.1643C223.26 14.8243 221.91 14.6543 220.92 14.9443L216.3 17.8743C217.17 17.6343 218.02 18.0443 219.47 18.1444C221.49 18.2843 222.16 18.0543 222.48 17.9743C222.5 17.9743 227.35 14.8943 227.35 14.8943C227.35 14.8943 225.97 15.4943 224.66 15.1743M182.74 0.0443435C182.33 -0.165657 181.57 0.394357 181.12 1.21436C180.65 2.07436 180.63 2.82435 180.95 2.95435C181.27 3.09435 181.83 2.69433 182.34 1.90433C182.84 1.12433 183.02 0.174334 182.75 0.0343337M229.9 11.3344C229.4 10.5444 228.75 10.0043 228.61 10.0943C228.47 10.1843 228.72 10.9443 229.22 11.7343C229.72 12.5243 230.39 13.1943 230.53 13.1043C230.67 13.0243 230.4 12.1244 229.9 11.3344ZM195.56 6.86435L190.73 4.29434C189.72 4.07434 188.39 4.34434 187.02 4.79434C185.74 5.21434 184.32 4.71436 184.32 4.71436C184.32 4.71436 189.39 7.42435 189.41 7.42435C189.73 7.48435 190.42 7.65435 192.42 7.36435C193.86 7.15435 194.68 6.69435 195.56 6.86435ZM186.6 1.98435L183.27 0.324342C183.37 0.384342 183.14 1.57433 182.59 2.28433C184.08 1.57433 186.6 1.98435 186.6 1.98435Z" fill="#ED1C24"/>
<path fill-rule="evenodd" clip-rule="evenodd" d="M207.4 171.434C213.23 171.434 219.57 170.494 221.49 169.364C224.69 167.504 223.75 160.224 222.87 157.374C222.25 155.354 220.87 151.934 220.88 144.814C220.89 137.174 223.32 122.374 223.42 121.464C223.61 119.934 223.98 118.414 223.17 118.054C224.16 117.284 223.37 98.4344 221.63 97.7044C222.51 97.7044 222.19 95.5944 222.01 94.1444C221.67 91.4744 219.38 85.1844 217.41 78.3644C216.53 75.3144 215.16 70.7244 214.71 67.3144C214.3 64.1544 214.38 60.1144 214.38 58.3744C214.97 57.7744 215.19 57.5044 215.17 56.5544C215.14 55.5744 213.92 53.1744 213.92 52.8244C213.92 52.4744 213.92 52.0644 214.36 51.6644C214.83 51.2144 214.81 50.4344 214.6 49.7944C214.36 49.0144 213.43 48.7944 212.89 48.6544C212.4 48.5344 209.94 48.2744 207.41 48.2744C204.88 48.2744 202.42 48.5344 201.93 48.6544C201.39 48.7944 200.46 49.0144 200.22 49.7944C200.01 50.4344 199.98 51.2144 200.45 51.6644C200.89 52.0744 200.9 52.4844 200.9 52.8244C200.9 53.1644 199.68 55.5644 199.65 56.5544C199.63 57.5144 199.85 57.7844 200.44 58.3744C200.44 60.1244 200.53 64.1544 200.11 67.3144C199.67 70.7244 198.29 75.3144 197.41 78.3644C195.44 85.1944 193.15 91.4844 192.81 94.1444C192.63 95.6044 192.31 97.7044 193.2 97.7044C191.46 98.4344 190.67 117.284 191.66 118.054C190.85 118.404 191.21 119.934 191.4 121.464C191.5 122.384 193.93 137.174 193.94 144.814C193.94 151.934 192.58 155.364 191.95 157.374C191.07 160.224 190.13 167.504 193.32 169.364C195.23 170.484 201.58 171.434 207.41 171.434" fill="#ED1C24"/>
<path d="M8.5999 97.9744H8.3199H5.9399H5.8899L5.8499 97.9944L0.649902 99.6544L0.399902 99.7344L0.459902 99.9944L1.1799 102.754L1.2499 103.034L1.5299 102.964L4.6599 102.094V117.774V118.054H4.9399H8.3199H8.5999V117.774V98.2644V97.9744Z" fill="#ED1C24"/>
<path d="M20.4698 97.8442C16.8198 97.8442 14.9398 99.4442 13.0998 102.034L12.9398 102.254L13.1498 102.424L15.5598 104.304L15.7798 104.474L15.9498 104.254C17.5198 102.214 18.6798 101.454 20.2098 101.454C21.9398 101.454 23.0598 102.524 23.0598 104.194C23.0598 105.764 22.2398 106.934 19.5298 109.214L12.8598 114.884L12.7598 114.964V118.064H27.3298V114.514H18.6098L21.9998 111.694C25.1998 109.094 27.1398 107.274 27.1398 103.974V103.914C27.1398 100.284 24.4598 97.8542 20.4698 97.8542" fill="#ED1C24"/>
<path d="M44.6501 98.1145H32.5401L32.5201 98.3745L31.9701 107.865V108.025L32.0901 108.115L34.1401 109.474L34.2701 109.564L34.4101 109.495C35.5901 108.935 36.7201 108.664 37.8601 108.664C40.0901 108.664 41.5901 109.844 41.5901 111.594V111.654C41.5901 113.514 40.1901 114.724 38.0201 114.724C36.4301 114.724 34.8601 113.984 33.2301 112.474L33.0201 112.275L32.8301 112.495L30.7301 114.954L30.5601 115.154L30.7501 115.335C32.8301 117.355 35.2901 118.374 38.0601 118.374C42.5201 118.374 45.5101 115.624 45.5101 111.534V111.474C45.5101 107.544 42.8301 105.104 38.5001 105.104C37.3701 105.104 36.5401 105.274 35.7401 105.534L36.0001 101.684H44.6501V98.1045V98.1145Z" fill="#ED1C24"/>
<path d="M208.15 104.414H206.67L207.43 102.854H208.91L208.16 104.414H208.15ZM203.24 109.434C203.12 109.744 203.21 109.914 203.29 109.944C203.53 110.044 204.44 109.354 205.61 107.214H206.17C205.25 108.894 204.02 110.634 203.13 111.344C202.84 111.574 202.28 111.884 201.87 111.684C201.52 111.514 201.41 110.894 201.44 110.374C200.99 111.024 200.28 111.924 199.47 111.674C198.96 111.514 198.76 110.844 198.98 109.494C198.3 110.414 197.48 111.864 196.35 111.584C196.07 111.514 195.62 110.864 195.62 109.934C195.62 109.444 195.64 108.544 196.11 107.084C195.97 107.204 195.78 107.294 195.64 107.334C195.23 108.834 194.28 111.514 193.7 111.394C193.22 111.294 192.91 109.434 193.63 106.854C193.91 105.884 194.69 103.594 195.59 103.884C196.32 104.124 196.02 105.674 195.76 106.764C196.38 106.584 196.87 105.534 197.09 105.124C197.31 104.714 198.51 102.624 199.68 103.194C200.08 103.394 200.2 103.974 200.06 104.614C199.86 105.594 199.39 106.534 198.95 106.184C198.55 105.854 198.88 104.574 199.67 104.494C199.74 104.314 199.77 103.994 199.56 103.864C199.02 103.544 197.88 105.434 197.46 106.404C197 107.534 196.3 109.834 197.03 110.374C197.82 110.954 199.24 108.144 199.95 106.824C200.66 105.504 202.88 101.134 204.5 103.194C204.57 103.114 204.6 102.954 204.65 102.834H206.26C206.26 102.834 203.29 109.214 203.23 109.424M195.29 107.314C194.93 107.204 194.69 106.954 194.54 106.554C193.75 109.124 194 110.074 194.12 110.074C194.41 110.074 194.97 108.694 195.3 107.324M195.52 104.624C195.32 104.574 194.71 105.334 194.82 106.274C194.84 106.484 195.1 106.774 195.44 106.814C195.63 106.024 195.89 104.724 195.52 104.624ZM204.23 103.794C204.13 103.294 203.49 103.494 202.78 104.584C202 105.754 201.24 107.134 200.92 107.964C200.53 109.014 200.38 109.954 200.74 110.034C201.12 110.124 201.69 109.244 202.03 108.614C202.4 107.894 204.24 103.794 204.24 103.794M200.1 113.144C196.72 112.524 194.76 114.294 193.58 113.804C192.59 113.414 192.36 111.374 192.72 107.894C192.92 106.054 193.53 103.644 194.12 102.524C194.58 101.634 195.02 101.014 195.33 101.124C195.58 101.204 195.55 101.464 195.47 101.684C194.92 101.854 194.67 103.254 195.01 103.364C195.29 103.444 195.63 102.684 195.8 101.774C195.88 101.324 195.8 100.634 195.48 100.454C195.09 100.244 194.26 100.954 193.64 102.184C192.87 103.754 192.29 106.004 192.06 107.744C191.68 110.814 192.05 113.834 193.31 114.444C193.98 114.764 197.64 112.594 199.68 116.184C200.58 114.044 204.19 115.714 205.3 116.644C205.23 116.434 202.79 113.634 200.1 113.144ZM222.85 110.684C222.54 111.964 221.56 114.624 220.94 114.354C220.72 114.264 220.65 113.644 220.68 113.224C220.51 113.734 219.92 114.774 219.55 114.594C219.32 114.474 219.09 114.164 219.13 113.104C218.87 113.844 218.33 115.184 217.8 114.984C217.1 114.724 217.24 113.084 217.63 110.934C217.47 111.014 217.31 111.074 217.14 111.094C216.74 112.594 215.49 115.964 213.88 115.614C213.03 115.434 212.85 113.654 214.26 110.274C214.7 109.214 215.95 106.954 217.03 107.444C217.74 107.754 217.5 109.554 217.25 110.654C217.41 110.614 217.56 110.544 217.72 110.454C217.87 109.664 218.04 108.844 218.22 107.994C219.03 104.094 220.33 100.134 221.06 100.204C221.43 100.244 221.49 100.934 221.47 102.004C221.38 102.094 221.27 102.174 221.19 102.234C221.25 101.484 221.24 100.914 221.12 100.854C220.66 100.634 219.48 105.544 218.81 109.314C219.69 108.034 220.42 106.204 220.69 105.234C220.76 104.964 220.84 104.644 220.9 104.324C221.01 104.294 221.13 104.224 221.22 104.184C221.15 104.544 221.07 104.934 220.97 105.304C220.63 106.574 219.78 108.744 218.69 110.054C218.36 111.994 218.2 113.454 218.39 113.514C218.8 113.654 219.36 111.474 219.68 110.454C220.07 109.284 221.32 105.884 222 107.734C222.03 107.664 222.08 107.454 222.09 107.364L222.65 107.314C222.5 108.304 221.89 111.064 221.57 112.484C221.51 112.724 221.57 112.894 221.62 112.884C221.72 112.884 222.19 112.204 222.6 110.674H222.84L222.85 110.684ZM216.83 111.064C216.32 111.004 215.9 110.304 215.75 109.824C214.52 112.144 214.56 113.784 215.05 113.894C215.57 114.004 216.5 112.374 216.83 111.064ZM217.07 108.144C216.72 107.884 215.96 108.634 216.1 109.494C216.15 109.794 216.39 110.614 216.95 110.644C217.15 109.864 217.45 108.434 217.07 108.144ZM221.87 108.164C221.81 107.784 221.6 107.784 221.19 108.714C220.79 109.614 220.4 110.774 220.3 111.434C220.17 112.264 220.08 112.974 220.25 113.014C220.48 113.094 220.71 112.394 220.88 111.914C221.15 111.144 221.87 108.154 221.87 108.154M213.71 109.614C213.56 110.614 213.19 111.654 212.93 112.164C212.68 112.674 212.37 113.324 211.95 113.894C210.97 115.234 209.39 116.674 207.88 115.874C206.46 115.124 205.99 112.864 206.51 110.684C207.12 108.174 208.36 105.004 211.23 101.854C212.44 100.534 213.98 99.8643 214.69 99.9043C215.38 99.9343 215.82 100.264 216.08 100.744C216.2 100.704 216.3 100.664 216.42 100.644C217.44 100.454 218.53 101.404 219.36 102.064C219.21 102.464 219.06 102.914 218.92 103.404C218.11 102.544 217.36 101.194 216.51 101.234C216.43 101.234 216.36 101.264 216.28 101.274C216.47 102.084 216.36 103.104 216.08 103.934C215.64 105.254 214.86 106.264 214.13 106.004C212.9 105.584 213.83 101.904 215.78 100.874C215.64 100.684 215.44 100.604 215.17 100.654C214.36 100.804 213.12 101.884 212.24 103.164C211.36 104.444 208.63 108.564 208.52 112.584C208.5 113.454 208.9 114.484 209.67 114.654C210.8 114.914 211.98 113.064 212.55 111.944C213.2 110.684 213.78 108.274 213.08 108.044C212.32 107.794 211.47 109.824 211.47 110.844C210.73 111.274 210.24 111.924 209.72 112.654C209.95 109.274 211.27 107.364 212.58 107.164C213.6 107.004 213.91 108.234 213.72 109.614M214.35 105.564C214.94 105.644 215.44 104.694 215.79 103.744C216.01 103.144 216.16 102.094 216.01 101.384C214.44 102.094 213.36 105.424 214.35 105.564ZM220.26 104.134C222.05 104.244 222.33 101.514 222.47 100.424C222.09 101.824 221.5 102.664 220.65 102.674C220.52 103.114 220.39 103.594 220.26 104.134ZM223.31 112.954C223.31 112.464 223.13 112.264 222.9 112.334C222.67 112.404 222.46 112.724 222.47 113.214C222.47 113.704 222.68 113.904 222.91 113.834C223.14 113.764 223.31 113.444 223.31 112.954ZM223.22 112.984C223.23 113.344 223.08 113.634 222.92 113.684C222.74 113.734 222.6 113.544 222.6 113.184C222.6 112.824 222.74 112.544 222.92 112.494C223.08 112.444 223.23 112.644 223.23 112.994M222.84 113.184L222.89 113.164L223 113.474L223.12 113.444L223 113.124C223.06 113.094 223.12 113.024 223.11 112.864C223.11 112.674 223.04 112.634 222.92 112.674L222.74 112.734V113.564L222.84 113.534V113.184ZM222.84 113.034V112.834L222.92 112.814C222.92 112.814 223 112.784 223 112.874C223 112.974 222.98 112.984 222.93 113.004L222.84 113.024V113.034Z" fill="white"/>
</svg>
