<svg width="524" height="172" viewBox="0 0 524 172" fill="none" xmlns="http://www.w3.org/2000/svg">
<path d="M239.92 118.384C237.49 118.384 234.8 117.504 232.66 115.824L234.41 113.164C236.26 114.554 238.27 115.274 240.02 115.274C241.77 115.274 242.68 114.564 242.68 113.424V113.354C242.68 112.024 240.86 111.574 238.85 110.954C236.32 110.244 233.5 109.204 233.5 105.934V105.864C233.5 102.624 236.19 100.644 239.6 100.644C241.74 100.644 244.07 101.394 245.89 102.594L244.33 105.384C242.68 104.374 240.93 103.764 239.5 103.764C237.98 103.764 237.1 104.474 237.1 105.484V105.554C237.1 106.784 238.95 107.304 240.96 107.954C243.46 108.734 246.28 109.864 246.28 112.944V113.014C246.28 116.614 243.49 118.394 239.93 118.394" fill="white"/>
<path d="M254.25 118.064H250.33V94.3943H254.25V103.604C255.35 101.984 256.94 100.584 259.6 100.584C263.46 100.584 265.7 103.184 265.7 107.164V118.054H261.78V108.324C261.78 105.664 260.45 104.144 258.12 104.144C255.79 104.144 254.26 105.734 254.26 108.394V118.054L254.25 118.064Z" fill="white"/>
<path d="M281.01 118.064V115.954C279.84 117.344 278.06 118.414 275.47 118.414C272.23 118.414 269.37 116.564 269.37 113.124V113.064C269.37 109.364 272.32 107.554 276.31 107.554C278.39 107.554 279.71 107.844 281.04 108.264V107.844C281.04 105.474 279.55 104.184 276.83 104.184C274.92 104.184 273.49 104.604 271.93 105.254L270.86 102.114C272.74 101.274 274.59 100.684 277.38 100.684C282.44 100.684 284.9 103.344 284.9 107.914V118.064H281.01ZM281.11 110.804C280.1 110.414 278.71 110.124 277.19 110.124C274.73 110.124 273.27 111.124 273.27 112.884V112.954C273.27 114.574 274.73 115.484 276.58 115.484C279.17 115.484 281.12 114.024 281.12 111.884V110.814L281.11 110.804Z" fill="white"/>
<path d="M293.66 118.064H289.74V100.944H293.66V104.804C294.73 102.244 296.71 100.494 299.72 100.624V104.774H299.49C296.05 104.774 293.66 107.014 293.66 111.554V118.074V118.064Z" fill="white"/>
<path d="M302.87 94.5845H307.08V98.3145H302.87V94.5845ZM303.03 100.934H306.95V118.054H303.03V100.934Z" fill="white"/>
<path d="M315.95 118.064H312.03V100.944H315.95V103.604C317.05 101.984 318.64 100.584 321.3 100.584C325.16 100.584 327.4 103.184 327.4 107.164V118.054H323.48V108.324C323.48 105.664 322.15 104.144 319.82 104.144C317.49 104.144 315.96 105.734 315.96 108.394V118.054L315.95 118.064Z" fill="white"/>
<path d="M339.77 123.314C336.95 123.314 334.32 122.604 332.12 121.274L333.58 118.324C335.4 119.454 337.34 120.144 339.68 120.144C343.18 120.144 345.09 118.324 345.09 114.894V113.564C343.66 115.414 341.88 116.704 339.06 116.704C335.04 116.704 331.28 113.754 331.28 108.664C331.28 103.574 335.07 100.594 339.06 100.594C341.95 100.594 343.73 101.924 345.06 103.514V100.954H348.98V114.574C348.98 120.634 345.67 123.324 339.77 123.324M340.09 103.904C337.37 103.904 335.23 105.784 335.23 108.634C335.23 111.484 337.4 113.404 340.09 113.404C342.78 113.404 345.11 111.494 345.11 108.674C345.11 105.854 342.81 103.904 340.09 103.904Z" fill="white"/>
<path d="M368.17 118.064H364.25V94.3943H368.17V103.604C369.27 101.984 370.86 100.584 373.52 100.584C377.38 100.584 379.62 103.184 379.62 107.164V118.054H375.7V108.324C375.7 105.664 374.37 104.144 372.04 104.144C369.71 104.144 368.18 105.734 368.18 108.394V118.054L368.17 118.064Z" fill="white"/>
<path d="M394.93 118.064V115.954C393.76 117.344 391.98 118.414 389.38 118.414C386.14 118.414 383.28 116.564 383.28 113.124V113.064C383.28 109.364 386.23 107.554 390.22 107.554C392.3 107.554 393.62 107.844 394.95 108.264V107.844C394.95 105.474 393.46 104.184 390.74 104.184C388.83 104.184 387.4 104.604 385.84 105.254L384.77 102.114C386.65 101.274 388.5 100.684 391.29 100.684C396.35 100.684 398.81 103.344 398.81 107.914V118.064H394.92H394.93ZM395.03 110.804C394.02 110.414 392.63 110.124 391.11 110.124C388.65 110.124 387.19 111.124 387.19 112.884V112.954C387.19 114.574 388.65 115.484 390.5 115.484C393.09 115.484 395.04 114.024 395.04 111.884V110.814L395.03 110.804Z" fill="white"/>
<path d="M413.38 118.414C410.56 118.414 408.78 116.984 407.58 115.394V123.244H403.66V100.944H407.58V103.794C408.84 102.014 410.63 100.584 413.38 100.584C417.43 100.584 421.35 103.794 421.35 109.504C421.35 115.214 417.46 118.424 413.38 118.424M412.47 103.994C409.81 103.994 407.48 106.164 407.48 109.504C407.48 112.844 409.82 115.014 412.47 115.014C415.12 115.014 417.36 112.904 417.36 109.504C417.36 106.104 415.12 103.994 412.47 103.994Z" fill="white"/>
<path d="M435.23 118.414C432.41 118.414 430.63 116.984 429.43 115.394V123.244H425.51V100.944H429.43V103.794C430.69 102.014 432.48 100.584 435.23 100.584C439.28 100.584 443.2 103.794 443.2 109.504C443.2 115.214 439.31 118.424 435.23 118.424M434.32 103.994C431.66 103.994 429.33 106.164 429.33 109.504C429.33 112.844 431.67 115.014 434.32 115.014C436.97 115.014 439.21 112.904 439.21 109.504C439.21 106.104 436.97 103.994 434.32 103.994Z" fill="white"/>
<path d="M447.21 94.5845H451.42V98.3145H447.21V94.5845ZM447.37 100.934H451.29V118.054H447.37V100.934Z" fill="white"/>
<path d="M460.29 118.064H456.37V100.944H460.29V103.604C461.39 101.984 462.98 100.584 465.64 100.584C469.5 100.584 471.74 103.184 471.74 107.164V118.054H467.82V108.324C467.82 105.664 466.49 104.144 464.16 104.144C461.83 104.144 460.3 105.734 460.3 108.394V118.054L460.29 118.064Z" fill="white"/>
<path d="M483.86 115.234C485.77 115.234 487.13 114.524 488.5 113.194L490.8 115.234C489.18 117.174 486.94 118.444 483.8 118.444C478.84 118.444 475.01 114.844 475.01 109.524C475.01 104.594 478.48 100.574 483.37 100.574C488.82 100.574 491.57 104.854 491.57 109.814C491.57 110.174 491.54 110.494 491.5 110.884H478.92C479.37 113.674 481.32 115.224 483.85 115.224M487.68 108.284C487.42 105.754 485.93 103.774 483.34 103.774C480.94 103.774 479.26 105.624 478.9 108.284H487.69H487.68Z" fill="white"/>
<path d="M501.29 118.384C498.86 118.384 496.17 117.504 494.03 115.824L495.78 113.164C497.63 114.554 499.64 115.274 501.39 115.274C503.14 115.274 504.05 114.564 504.05 113.424V113.354C504.05 112.024 502.23 111.574 500.22 110.954C497.69 110.244 494.87 109.204 494.87 105.934V105.864C494.87 102.624 497.56 100.644 500.97 100.644C503.11 100.644 505.44 101.394 507.26 102.594L505.7 105.384C504.05 104.374 502.3 103.764 500.87 103.764C499.35 103.764 498.47 104.474 498.47 105.484V105.554C498.47 106.784 500.32 107.304 502.33 107.954C504.83 108.734 507.65 109.864 507.65 112.944V113.014C507.65 116.614 504.86 118.394 501.3 118.394" fill="white"/>
<path d="M517.51 118.384C515.08 118.384 512.39 117.504 510.25 115.824L512 113.164C513.85 114.554 515.86 115.274 517.61 115.274C519.36 115.274 520.27 114.564 520.27 113.424V113.354C520.27 112.024 518.45 111.574 516.44 110.954C513.91 110.244 511.09 109.204 511.09 105.934V105.864C511.09 102.624 513.78 100.644 517.19 100.644C519.33 100.644 521.66 101.394 523.48 102.594L521.92 105.384C520.27 104.374 518.52 103.764 517.09 103.764C515.57 103.764 514.69 104.474 514.69 105.484V105.554C514.69 106.784 516.54 107.304 518.55 107.954C521.05 108.734 523.87 109.864 523.87 112.944V113.014C523.87 116.614 521.08 118.394 517.52 118.394" fill="white"/>
<path d="M65.9099 118.544C64.5499 122.044 63.0199 123.344 60.2699 123.344C58.6199 123.344 57.4199 122.954 56.2199 122.304L57.5499 119.384C58.2599 119.774 59.0399 120.034 59.8499 120.034C60.9499 120.034 61.6299 119.544 62.2799 118.054L55.1499 100.934H59.3299L64.1899 113.644L68.6299 100.934H72.7099L65.8999 118.534L65.9099 118.544Z" fill="white"/>
<path d="M82.4501 115.234C84.3601 115.234 85.7201 114.524 87.0901 113.194L89.3901 115.234C87.7701 117.174 85.5301 118.444 82.3901 118.444C77.4301 118.444 73.6001 114.844 73.6001 109.524C73.6001 104.594 77.0701 100.574 81.9601 100.574C87.4101 100.574 90.1601 104.854 90.1601 109.814C90.1601 110.174 90.1301 110.494 90.0901 110.884H77.5101C77.9601 113.674 79.9101 115.224 82.4401 115.224M86.2701 108.284C86.0101 105.754 84.5201 103.774 81.9301 103.774C79.5301 103.774 77.8501 105.624 77.4901 108.284H86.2801H86.2701Z" fill="white"/>
<path d="M104.57 118.064V115.954C103.4 117.344 101.62 118.414 99.0302 118.414C95.7902 118.414 92.9302 116.564 92.9302 113.124V113.064C92.9302 109.364 95.8802 107.554 99.8702 107.554C101.94 107.554 103.27 107.844 104.6 108.264V107.844C104.6 105.474 103.11 104.184 100.39 104.184C98.4802 104.184 97.0502 104.604 95.4902 105.254L94.4202 102.114C96.3002 101.274 98.1502 100.684 100.94 100.684C106 100.684 108.46 103.344 108.46 107.914V118.064H104.57ZM104.67 110.804C103.66 110.414 102.27 110.124 100.75 110.124C98.2902 110.124 96.8302 111.124 96.8302 112.884V112.954C96.8302 114.574 98.2902 115.484 100.14 115.484C102.73 115.484 104.68 114.024 104.68 111.884V110.814L104.67 110.804Z" fill="white"/>
<path d="M117.22 118.064H113.3V100.944H117.22V104.804C118.29 102.244 120.27 100.494 123.28 100.624V104.774H123.05C119.61 104.774 117.21 107.014 117.21 111.554V118.074L117.22 118.064Z" fill="white"/>
<path d="M132.62 118.384C130.19 118.384 127.5 117.504 125.36 115.824L127.11 113.164C128.96 114.554 130.97 115.274 132.72 115.274C134.47 115.274 135.38 114.564 135.38 113.424V113.354C135.38 112.024 133.56 111.574 131.55 110.954C129.02 110.244 126.2 109.204 126.2 105.934V105.864C126.2 102.624 128.89 100.644 132.3 100.644C134.44 100.644 136.77 101.394 138.59 102.594L137.03 105.384C135.38 104.374 133.63 103.764 132.2 103.764C130.68 103.764 129.8 104.474 129.8 105.484V105.554C129.8 106.784 131.65 107.304 133.66 107.954C136.16 108.734 138.98 109.864 138.98 112.944V113.014C138.98 116.614 136.19 118.394 132.63 118.394" fill="white"/>
<path d="M158.88 118.444C153.66 118.444 149.8 114.454 149.8 109.564C149.8 104.674 153.69 100.584 158.94 100.584C164.19 100.584 168.05 104.574 168.05 109.504C168.05 114.434 164.16 118.454 158.87 118.454M158.87 104.024C155.72 104.024 153.72 106.484 153.72 109.504C153.72 112.524 155.89 115.044 158.94 115.044C161.99 115.044 164.13 112.584 164.13 109.564C164.13 106.544 161.96 104.024 158.88 104.024" fill="white"/>
<path d="M180.95 101.074V104.314H176.48V118.054H172.56V104.314H170.39V101.034H172.56V99.8043C172.56 96.0443 174.44 94.1943 177.81 94.1943C179.17 94.1943 180.11 94.3843 180.99 94.6443V97.9543C180.21 97.6943 179.53 97.5343 178.69 97.5343C177.2 97.5343 176.42 98.3443 176.42 100.134V101.074H180.96H180.95Z" fill="white"/>
<path d="M204.36 42.5043C202.71 41.1743 202.38 39.7243 202.14 39.2043L203.04 44.2643C203.04 44.2643 203.59 45.5543 204.62 46.7443C205.35 46.7043 206.13 46.6843 206.9 46.6743L206.56 44.7443C206.26 43.8843 205.22 43.1843 204.36 42.4943M200.98 24.2843C202.03 25.2843 202.9 25.6443 203.31 26.4443C203.31 26.4443 202.36 21.0643 202.36 21.0543C201.91 20.1243 200.88 19.2443 199.68 18.4443C198.56 17.6943 198.07 16.2643 198.07 16.2643C198.07 16.2643 199.07 21.9243 199.08 21.9443C199.23 22.2343 199.52 22.8843 200.98 24.2843ZM202.04 15.6043C202.04 15.6043 201.96 10.3443 199.15 9.35434C199.11 9.34434 197.12 10.9143 193.81 10.6943C195.44 11.4343 197.64 12.4843 197.67 12.5443C199.2 14.9743 202.03 15.6143 202.03 15.6143M212.09 20.6743C209.36 21.8743 209.67 27.1243 209.67 27.1243C209.67 27.1243 212.45 26.2743 213.79 23.7343C213.82 23.6843 215.93 22.4643 217.51 21.6043C214.23 22.0743 212.13 20.6543 212.09 20.6743ZM211.96 31.1843C210.8 32.0443 209.81 32.9743 209.41 33.9243L208.72 39.3443C209.09 38.5243 209.94 38.1343 210.95 37.0743C212.34 35.6143 212.6 34.9443 212.74 34.6543C212.75 34.6243 213.47 28.9343 213.47 28.9343C213.47 28.9343 213.05 30.3843 211.97 31.1843M209.85 43.8943C208.34 45.0043 207.88 45.9243 207.87 46.0443C207.87 46.0643 207.83 46.3243 207.79 46.6943C208.98 46.7143 210.14 46.7843 211.07 46.8743C211.16 46.5843 211.23 46.3143 211.28 46.1043L211.95 40.8443C211.95 40.8443 211.39 42.7743 209.85 43.9043M203.27 36.3043C204.68 37.1343 205.39 38.1843 205.39 38.1843C205.39 38.1843 204.51 33.2343 204.49 33.1043C204.47 32.9843 203.97 32.0943 202.41 31.0543C200.82 30.0043 200.16 28.0943 200.16 28.0943L201.09 33.3243C201.3 34.0343 201.58 35.3043 203.27 36.2943M227.72 10.3243L223.79 12.6643C223.79 12.6643 227.19 12.0043 228.87 12.7343C228.08 11.8443 227.62 10.3943 227.72 10.3243ZM224.26 15.1643C222.86 14.8243 221.51 14.6543 220.52 14.9443L215.9 17.8743C216.77 17.6443 217.62 18.0443 219.07 18.1443C221.09 18.2843 221.76 18.0543 222.08 17.9743C222.1 17.9743 226.95 14.8943 226.95 14.8943C226.95 14.8943 225.57 15.4943 224.26 15.1743M182.34 0.0443442C181.93 -0.165656 181.17 0.394344 180.72 1.21434C180.25 2.07434 180.23 2.82434 180.55 2.95434C180.87 3.09434 181.43 2.69434 181.94 1.90434C182.44 1.12434 182.62 0.174344 182.35 0.034344M229.5 11.3343C229 10.5443 228.35 10.0043 228.21 10.0843C228.07 10.1743 228.32 10.9343 228.82 11.7243C229.32 12.5143 229.99 13.1843 230.13 13.0943C230.27 13.0143 230 12.1143 229.5 11.3243M195.16 6.85434L190.33 4.28434C189.32 4.06434 187.99 4.33434 186.62 4.78434C185.34 5.20434 183.92 4.70434 183.92 4.70434C183.92 4.70434 188.99 7.41435 189.01 7.41435C189.33 7.47435 190.02 7.64434 192.02 7.35434C193.46 7.14434 194.28 6.68434 195.16 6.85434ZM186.2 1.97434L182.87 0.314343C182.97 0.374343 182.74 1.56434 182.19 2.27434C183.68 1.56434 186.2 1.97434 186.2 1.97434Z" fill="white"/>
<path fill-rule="evenodd" clip-rule="evenodd" d="M207 171.414C212.83 171.414 219.17 170.474 221.09 169.344C224.29 167.484 223.35 160.204 222.47 157.354C221.85 155.344 220.47 151.914 220.48 144.794C220.49 137.154 222.92 122.354 223.02 121.444C223.21 119.914 223.58 118.394 222.77 118.034C223.76 117.264 222.97 98.4144 221.23 97.6844C222.11 97.6844 221.79 95.5744 221.61 94.1244C221.27 91.4544 218.98 85.1644 217.01 78.3444C216.13 75.2944 214.76 70.7044 214.31 67.2944C213.9 64.1344 213.98 60.0944 213.98 58.3544C214.57 57.7544 214.79 57.4844 214.77 56.5344C214.74 55.5544 213.52 53.1444 213.52 52.8044C213.52 52.4644 213.52 52.0444 213.96 51.6444C214.43 51.1944 214.41 50.4144 214.2 49.7744C213.96 48.9944 213.03 48.7644 212.49 48.6344C212 48.5144 209.54 48.2544 207.01 48.2544C204.48 48.2544 202.02 48.5144 201.53 48.6344C200.99 48.7744 200.06 48.9944 199.82 49.7744C199.61 50.4144 199.58 51.1944 200.05 51.6444C200.49 52.0544 200.5 52.4644 200.5 52.8044C200.5 53.1444 199.28 55.5444 199.25 56.5344C199.23 57.4944 199.45 57.7644 200.04 58.3544C200.04 60.1044 200.13 64.1344 199.71 67.2944C199.27 70.7044 197.89 75.2944 197.01 78.3444C195.04 85.1644 192.75 91.4644 192.41 94.1244C192.23 95.5744 191.91 97.6844 192.8 97.6844C191.06 98.4144 190.27 117.264 191.26 118.034C190.45 118.384 190.81 119.914 191 121.444C191.1 122.354 193.53 137.154 193.54 144.794C193.54 151.914 192.18 155.344 191.55 157.354C190.67 160.204 189.73 167.484 192.92 169.344C194.83 170.464 201.18 171.414 207.01 171.414" fill="white"/>
<path d="M8.2 97.9644H7.92H5.54H5.49L5.45 97.9744L0.25 99.6344L0 99.7144L0.0599999 99.9744L0.78 102.744L0.85 103.014L1.13 102.944L4.26 102.074V117.754V118.034H4.54H7.92H8.2V117.754V98.2444V97.9644Z" fill="white"/>
<path d="M20.0699 97.8242C16.4199 97.8242 14.5399 99.4242 12.6999 102.014L12.5399 102.234L12.7499 102.404L15.1599 104.284L15.3799 104.464L15.5499 104.244C17.1199 102.204 18.2799 101.444 19.8099 101.444C21.5399 101.444 22.6599 102.514 22.6599 104.184C22.6599 105.754 21.8399 106.924 19.1299 109.204L12.4599 114.874L12.3599 114.954V118.054H26.9299V114.504H18.2099L21.5999 111.684C24.7999 109.084 26.7399 107.264 26.7399 103.964V103.914C26.7399 100.284 24.0599 97.8442 20.0699 97.8442" fill="white"/>
<path d="M44.2502 98.0945H32.1402L32.1202 98.3544L31.5702 107.844V108.004L31.6902 108.094L33.7402 109.454L33.8702 109.544L34.0102 109.474C35.1902 108.914 36.3202 108.644 37.4602 108.644C39.6902 108.644 41.1902 109.824 41.1902 111.574V111.624C41.1902 113.484 39.7902 114.694 37.6202 114.694C36.0302 114.694 34.4602 113.954 32.8302 112.444L32.6202 112.244L32.4302 112.464L30.3302 114.924L30.1602 115.124L30.3502 115.304C32.4302 117.324 34.8902 118.344 37.6602 118.344C42.1202 118.344 45.1102 115.594 45.1102 111.504V111.444C45.1102 107.514 42.4302 105.074 38.1002 105.074C36.9702 105.074 36.1402 105.244 35.3402 105.504L35.6002 101.644H44.2502V98.0645V98.0945Z" fill="white"/>
<path d="M207.75 104.394H206.27L207.03 102.824H208.51L207.76 104.394H207.75ZM202.84 109.414C202.72 109.724 202.81 109.894 202.89 109.924C203.13 110.024 204.04 109.334 205.21 107.194H205.77C204.85 108.874 203.62 110.614 202.73 111.324C202.44 111.554 201.88 111.864 201.47 111.664C201.12 111.494 201.01 110.874 201.04 110.354C200.59 111.004 199.88 111.904 199.07 111.654C198.56 111.494 198.36 110.824 198.58 109.474C197.9 110.394 197.08 111.844 195.95 111.564C195.67 111.494 195.22 110.844 195.22 109.914C195.22 109.424 195.24 108.524 195.71 107.064C195.57 107.184 195.38 107.274 195.24 107.314C194.83 108.814 193.88 111.494 193.3 111.374C192.82 111.274 192.51 109.414 193.23 106.834C193.51 105.864 194.29 103.584 195.19 103.864C195.92 104.104 195.62 105.654 195.36 106.744C195.98 106.564 196.47 105.514 196.69 105.094C196.91 104.684 198.11 102.594 199.28 103.164C199.68 103.364 199.8 103.954 199.66 104.584C199.46 105.564 198.99 106.514 198.55 106.154C198.15 105.824 198.48 104.544 199.27 104.464C199.34 104.284 199.37 103.964 199.16 103.834C198.62 103.514 197.48 105.404 197.06 106.374C196.6 107.504 195.9 109.804 196.63 110.344C197.42 110.924 198.84 108.114 199.55 106.794C200.26 105.484 202.48 101.104 204.1 103.164C204.17 103.084 204.2 102.924 204.25 102.804H205.86C205.86 102.804 202.89 109.184 202.83 109.394M194.89 107.284C194.53 107.174 194.29 106.924 194.14 106.524C193.35 109.094 193.6 110.044 193.72 110.044C194.01 110.044 194.57 108.664 194.9 107.294M195.12 104.594C194.92 104.544 194.31 105.304 194.42 106.244C194.44 106.454 194.7 106.754 195.04 106.784C195.23 105.994 195.49 104.694 195.12 104.594ZM203.83 103.764C203.73 103.264 203.09 103.464 202.38 104.554C201.6 105.724 200.84 107.104 200.52 107.934C200.13 108.984 199.98 109.924 200.34 110.004C200.72 110.094 201.29 109.214 201.63 108.584C202 107.864 203.84 103.764 203.84 103.764M199.7 113.114C196.32 112.494 194.36 114.264 193.18 113.774C192.19 113.384 191.96 111.344 192.32 107.864C192.52 106.024 193.13 103.614 193.72 102.494C194.18 101.604 194.62 100.974 194.93 101.094C195.18 101.174 195.15 101.434 195.07 101.654C194.52 101.834 194.27 103.224 194.61 103.334C194.89 103.414 195.23 102.654 195.4 101.744C195.48 101.294 195.4 100.604 195.08 100.424C194.69 100.214 193.86 100.924 193.24 102.154C192.47 103.724 191.89 105.974 191.66 107.714C191.28 110.784 191.65 113.804 192.91 114.414C193.58 114.734 197.24 112.564 199.28 116.154C200.18 114.014 203.79 115.684 204.9 116.614C204.83 116.404 202.39 113.604 199.7 113.114ZM222.45 110.654C222.14 111.944 221.16 114.594 220.54 114.324C220.32 114.234 220.25 113.614 220.28 113.194C220.11 113.704 219.52 114.744 219.15 114.564C218.92 114.444 218.69 114.134 218.73 113.074C218.47 113.814 217.93 115.154 217.4 114.954C216.7 114.694 216.84 113.054 217.23 110.904C217.07 110.984 216.91 111.034 216.74 111.064C216.34 112.564 215.09 115.934 213.48 115.584C212.63 115.404 212.45 113.624 213.86 110.244C214.3 109.184 215.55 106.924 216.63 107.414C217.34 107.724 217.1 109.524 216.85 110.624C217.01 110.584 217.16 110.514 217.32 110.424C217.47 109.634 217.64 108.814 217.82 107.964C218.63 104.074 219.93 100.104 220.66 100.174C221.03 100.214 221.09 100.904 221.07 101.974C220.98 102.064 220.87 102.144 220.79 102.204C220.85 101.454 220.84 100.884 220.72 100.824C220.26 100.604 219.08 105.514 218.41 109.284C219.29 108.004 220.02 106.174 220.29 105.204C220.36 104.934 220.44 104.614 220.5 104.294C220.61 104.264 220.73 104.194 220.82 104.154C220.75 104.514 220.67 104.904 220.57 105.274C220.23 106.544 219.38 108.724 218.29 110.024C217.96 111.964 217.8 113.424 217.99 113.484C218.4 113.624 218.96 111.444 219.28 110.424C219.67 109.244 220.92 105.854 221.6 107.704C221.63 107.634 221.68 107.424 221.69 107.334L222.25 107.284C222.1 108.274 221.49 111.034 221.17 112.464C221.11 112.704 221.17 112.874 221.22 112.864C221.32 112.864 221.79 112.184 222.2 110.654H222.44H222.45ZM216.43 111.034C215.92 110.974 215.5 110.274 215.35 109.794C214.12 112.114 214.16 113.754 214.65 113.864C215.17 113.974 216.1 112.344 216.43 111.034ZM216.67 108.114C216.32 107.854 215.56 108.604 215.7 109.464C215.75 109.764 215.99 110.584 216.55 110.614C216.75 109.834 217.05 108.404 216.67 108.114ZM221.47 108.134C221.41 107.754 221.2 107.754 220.79 108.684C220.39 109.584 220 110.744 219.9 111.404C219.77 112.234 219.68 112.944 219.85 112.984C220.08 113.064 220.31 112.364 220.48 111.884C220.75 111.114 221.47 108.124 221.47 108.124M213.31 109.584C213.16 110.584 212.79 111.624 212.53 112.134C212.28 112.644 211.97 113.294 211.55 113.864C210.57 115.204 208.99 116.644 207.48 115.844C206.06 115.094 205.59 112.834 206.11 110.654C206.72 108.134 207.96 104.974 210.83 101.824C212.04 100.504 213.58 99.8343 214.29 99.8743C214.98 99.9043 215.42 100.234 215.68 100.714C215.8 100.674 215.9 100.644 216.02 100.614C217.04 100.424 218.13 101.374 218.96 102.034C218.81 102.434 218.66 102.884 218.52 103.374C217.71 102.514 216.96 101.164 216.11 101.204C216.03 101.204 215.96 101.234 215.88 101.244C216.07 102.054 215.96 103.074 215.68 103.904C215.24 105.224 214.46 106.234 213.73 105.974C212.5 105.554 213.43 101.874 215.38 100.844C215.24 100.654 215.04 100.574 214.77 100.624C213.96 100.774 212.72 101.854 211.84 103.144C210.96 104.424 208.23 108.544 208.12 112.564C208.1 113.434 208.5 114.464 209.27 114.634C210.4 114.894 211.58 113.044 212.15 111.924C212.8 110.664 213.38 108.254 212.68 108.024C211.92 107.774 211.07 109.804 211.07 110.824C210.33 111.254 209.84 111.904 209.32 112.634C209.55 109.254 210.87 107.344 212.18 107.144C213.2 106.984 213.51 108.214 213.32 109.594M213.95 105.544C214.54 105.624 215.04 104.674 215.39 103.724C215.61 103.124 215.76 102.074 215.61 101.364C214.04 102.074 212.96 105.404 213.95 105.544ZM219.86 104.114C221.65 104.224 221.93 101.494 222.07 100.404C221.69 101.804 221.1 102.644 220.25 102.654C220.12 103.094 219.99 103.584 219.86 104.114ZM222.91 112.934C222.91 112.444 222.73 112.244 222.5 112.314C222.27 112.384 222.06 112.704 222.07 113.194C222.07 113.684 222.28 113.884 222.51 113.814C222.74 113.744 222.91 113.424 222.91 112.934ZM222.82 112.964C222.83 113.324 222.68 113.614 222.52 113.664C222.34 113.714 222.2 113.524 222.2 113.164C222.2 112.804 222.34 112.524 222.52 112.464C222.68 112.414 222.83 112.614 222.83 112.964M222.44 113.154L222.49 113.134L222.6 113.444L222.72 113.414L222.6 113.094C222.66 113.064 222.72 112.994 222.71 112.834C222.71 112.644 222.64 112.604 222.52 112.634L222.34 112.684V113.514L222.44 113.484V113.134V113.154ZM222.44 113.004V112.804L222.52 112.784C222.52 112.784 222.6 112.764 222.6 112.844C222.6 112.944 222.58 112.954 222.53 112.974L222.44 112.994V113.004Z" fill="#ED1C24"/>
</svg>
