<svg width="525" height="172" viewBox="0 0 525 172" fill="none" xmlns="http://www.w3.org/2000/svg">
<path d="M240.72 118.404C238.29 118.404 235.6 117.524 233.46 115.844L235.21 113.184C237.06 114.584 239.07 115.294 240.82 115.294C242.57 115.294 243.48 114.584 243.48 113.444V113.374C243.48 112.044 241.66 111.594 239.65 110.974C237.12 110.264 234.3 109.224 234.3 105.954V105.894C234.3 102.654 236.99 100.674 240.4 100.674C242.54 100.674 244.87 101.424 246.69 102.614L245.13 105.404C243.48 104.394 241.73 103.784 240.3 103.784C238.78 103.784 237.9 104.494 237.9 105.504V105.564C237.9 106.794 239.75 107.314 241.76 107.964C244.26 108.744 247.08 109.874 247.08 112.954V113.014C247.08 116.614 244.29 118.394 240.73 118.394" fill="#ED1C24"/>
<path d="M255.05 118.074H251.13V94.4043H255.05V103.614C256.15 101.994 257.74 100.594 260.4 100.594C264.26 100.594 266.5 103.184 266.5 107.174V118.064H262.58V108.334C262.58 105.674 261.25 104.154 258.92 104.154C256.59 104.154 255.06 105.744 255.06 108.404V118.064L255.05 118.074Z" fill="#ED1C24"/>
<path d="M281.81 118.074V115.964C280.64 117.354 278.86 118.424 276.27 118.424C273.03 118.424 270.17 116.574 270.17 113.134V113.074C270.17 109.374 273.12 107.564 277.11 107.564C279.19 107.564 280.51 107.854 281.84 108.274V107.854C281.84 105.484 280.35 104.194 277.63 104.194C275.72 104.194 274.29 104.614 272.73 105.264L271.66 102.124C273.54 101.284 275.39 100.694 278.18 100.694C283.24 100.694 285.7 103.354 285.7 107.924V118.074H281.81ZM281.91 110.814C280.9 110.424 279.51 110.134 277.99 110.134C275.53 110.134 274.07 111.134 274.07 112.894V112.954C274.07 114.574 275.53 115.484 277.38 115.484C279.97 115.484 281.92 114.024 281.92 111.884V110.814H281.91Z" fill="#ED1C24"/>
<path d="M294.46 118.074H290.54V100.954H294.46V104.814C295.53 102.254 297.51 100.504 300.52 100.634V104.784H300.29C296.85 104.784 294.46 107.024 294.46 111.564V118.084V118.074Z" fill="#ED1C24"/>
<path d="M303.67 94.6045H307.88V98.3345H303.67V94.6045ZM303.83 100.954H307.75V118.074H303.83V100.954Z" fill="#ED1C24"/>
<path d="M316.75 118.074H312.83V100.954H316.75V103.614C317.85 101.994 319.44 100.594 322.1 100.594C325.96 100.594 328.2 103.184 328.2 107.174V118.064H324.28V108.334C324.28 105.674 322.95 104.154 320.62 104.154C318.29 104.154 316.76 105.744 316.76 108.404V118.064L316.75 118.074Z" fill="#ED1C24"/>
<path d="M340.57 123.334C337.75 123.334 335.12 122.624 332.92 121.294L334.38 118.344C336.2 119.474 338.14 120.154 340.48 120.154C343.98 120.154 345.89 118.344 345.89 114.904V113.574C344.46 115.424 342.68 116.724 339.86 116.724C335.84 116.724 332.08 113.774 332.08 108.684C332.08 103.594 335.87 100.614 339.86 100.614C342.75 100.614 344.53 101.944 345.86 103.534V100.974H349.78V114.594C349.78 120.654 346.47 123.344 340.57 123.344M340.89 103.924C338.17 103.924 336.03 105.804 336.03 108.654C336.03 111.504 338.2 113.424 340.89 113.424C343.58 113.424 345.91 111.514 345.91 108.694C345.91 105.874 343.61 103.924 340.89 103.924Z" fill="#ED1C24"/>
<path d="M368.97 118.074H365.05V94.4043H368.97V103.614C370.07 101.994 371.66 100.594 374.32 100.594C378.18 100.594 380.42 103.184 380.42 107.174V118.064H376.5V108.334C376.5 105.674 375.17 104.154 372.84 104.154C370.51 104.154 368.98 105.744 368.98 108.404V118.064L368.97 118.074Z" fill="#ED1C24"/>
<path d="M395.73 118.074V115.964C394.56 117.354 392.78 118.424 390.18 118.424C386.94 118.424 384.08 116.574 384.08 113.134V113.074C384.08 109.374 387.03 107.564 391.02 107.564C393.1 107.564 394.42 107.854 395.75 108.274V107.854C395.75 105.484 394.26 104.194 391.54 104.194C389.63 104.194 388.2 104.614 386.64 105.264L385.57 102.124C387.45 101.284 389.3 100.694 392.09 100.694C397.15 100.694 399.61 103.354 399.61 107.924V118.074H395.72H395.73ZM395.83 110.814C394.82 110.424 393.43 110.134 391.91 110.134C389.45 110.134 387.99 111.134 387.99 112.894V112.954C387.99 114.574 389.45 115.484 391.3 115.484C393.89 115.484 395.84 114.024 395.84 111.884V110.814H395.83Z" fill="#ED1C24"/>
<path d="M414.18 118.434C411.36 118.434 409.58 117.004 408.38 115.414V123.264H404.46V100.965H408.38V103.814C409.64 102.034 411.43 100.604 414.18 100.604C418.23 100.604 422.15 103.815 422.15 109.525C422.15 115.235 418.26 118.444 414.18 118.444M413.27 104.014C410.61 104.014 408.28 106.185 408.28 109.525C408.28 112.865 410.62 115.034 413.27 115.034C415.92 115.034 418.16 112.925 418.16 109.525C418.16 106.125 415.92 104.014 413.27 104.014Z" fill="#ED1C24"/>
<path d="M436.03 118.434C433.21 118.434 431.43 117.004 430.23 115.414V123.264H426.31V100.965H430.23V103.814C431.49 102.034 433.28 100.604 436.03 100.604C440.08 100.604 444 103.815 444 109.525C444 115.235 440.11 118.444 436.03 118.444M435.12 104.014C432.46 104.014 430.13 106.185 430.13 109.525C430.13 112.865 432.47 115.034 435.12 115.034C437.77 115.034 440.01 112.925 440.01 109.525C440.01 106.125 437.77 104.014 435.12 104.014Z" fill="#ED1C24"/>
<path d="M448.01 94.6045H452.22V98.3345H448.01V94.6045ZM448.17 100.954H452.09V118.074H448.17V100.954Z" fill="#ED1C24"/>
<path d="M461.09 118.074H457.17V100.954H461.09V103.614C462.19 101.994 463.78 100.594 466.44 100.594C470.3 100.594 472.54 103.184 472.54 107.174V118.064H468.62V108.334C468.62 105.674 467.29 104.154 464.96 104.154C462.63 104.154 461.1 105.744 461.1 108.404V118.064L461.09 118.074Z" fill="#ED1C24"/>
<path d="M484.66 115.254C486.57 115.254 487.93 114.544 489.3 113.214L491.6 115.254C489.98 117.194 487.74 118.464 484.6 118.464C479.64 118.464 475.81 114.864 475.81 109.544C475.81 104.614 479.28 100.594 484.17 100.594C489.62 100.594 492.37 104.874 492.37 109.834C492.37 110.194 492.34 110.514 492.3 110.904H479.72C480.17 113.694 482.12 115.244 484.65 115.244M488.48 108.304C488.22 105.774 486.73 103.794 484.14 103.794C481.74 103.794 480.06 105.644 479.7 108.304H488.49H488.48Z" fill="#ED1C24"/>
<path d="M502.09 118.404C499.66 118.404 496.97 117.524 494.83 115.844L496.58 113.184C498.43 114.584 500.44 115.294 502.19 115.294C503.94 115.294 504.85 114.584 504.85 113.444V113.374C504.85 112.044 503.03 111.594 501.02 110.974C498.49 110.264 495.67 109.224 495.67 105.954V105.894C495.67 102.654 498.36 100.674 501.77 100.674C503.91 100.674 506.24 101.424 508.06 102.614L506.5 105.404C504.85 104.394 503.1 103.784 501.67 103.784C500.15 103.784 499.27 104.494 499.27 105.504V105.564C499.27 106.794 501.12 107.314 503.13 107.964C505.63 108.744 508.45 109.874 508.45 112.954V113.014C508.45 116.614 505.66 118.394 502.1 118.394" fill="#ED1C24"/>
<path d="M518.31 118.404C515.88 118.404 513.19 117.524 511.05 115.844L512.8 113.184C514.65 114.584 516.66 115.294 518.41 115.294C520.16 115.294 521.07 114.584 521.07 113.444V113.374C521.07 112.044 519.25 111.594 517.24 110.974C514.71 110.264 511.89 109.224 511.89 105.954V105.894C511.89 102.654 514.58 100.674 517.99 100.674C520.13 100.674 522.46 101.424 524.28 102.614L522.72 105.404C521.07 104.394 519.32 103.784 517.89 103.784C516.37 103.784 515.49 104.494 515.49 105.504V105.564C515.49 106.794 517.34 107.314 519.35 107.964C521.85 108.744 524.67 109.874 524.67 112.954V113.014C524.67 116.614 521.88 118.394 518.32 118.394" fill="#ED1C24"/>
<path d="M66.7097 118.564C65.3497 122.064 63.8197 123.364 61.0697 123.364C59.4197 123.364 58.2197 122.974 57.0197 122.324L58.3497 119.404C59.0597 119.794 59.8397 120.054 60.6497 120.054C61.7497 120.054 62.4297 119.564 63.0797 118.074L55.9497 100.954H60.1297L64.9897 113.664L69.4297 100.954H73.5097L66.6997 118.554L66.7097 118.564Z" fill="#ED1C24"/>
<path d="M83.2499 115.254C85.1599 115.254 86.5199 114.544 87.8899 113.214L90.1899 115.254C88.5699 117.194 86.3299 118.464 83.1899 118.464C78.2299 118.464 74.3999 114.864 74.3999 109.544C74.3999 104.614 77.8699 100.594 82.7599 100.594C88.2099 100.594 90.9599 104.874 90.9599 109.834C90.9599 110.194 90.9299 110.514 90.8899 110.904H78.3099C78.7599 113.694 80.7099 115.244 83.2399 115.244M87.0699 108.304C86.8099 105.774 85.3199 103.794 82.7299 103.794C80.3299 103.794 78.6499 105.644 78.2899 108.304H87.0799H87.0699Z" fill="#ED1C24"/>
<path d="M105.37 118.074V115.964C104.2 117.354 102.42 118.424 99.83 118.424C96.59 118.424 93.73 116.574 93.73 113.134V113.074C93.73 109.374 96.68 107.564 100.67 107.564C102.74 107.564 104.07 107.854 105.4 108.274V107.854C105.4 105.484 103.91 104.194 101.19 104.194C99.28 104.194 97.85 104.614 96.29 105.264L95.22 102.124C97.1 101.284 98.95 100.694 101.74 100.694C106.8 100.694 109.26 103.354 109.26 107.924V118.074H105.37ZM105.47 110.814C104.46 110.424 103.07 110.134 101.55 110.134C99.09 110.134 97.63 111.134 97.63 112.894V112.954C97.63 114.574 99.09 115.484 100.94 115.484C103.53 115.484 105.48 114.024 105.48 111.884V110.814H105.47Z" fill="#ED1C24"/>
<path d="M118.02 118.074H114.1V100.954H118.02V104.814C119.09 102.254 121.07 100.504 124.08 100.634V104.784H123.85C120.41 104.784 118.01 107.024 118.01 111.564V118.084L118.02 118.074Z" fill="#ED1C24"/>
<path d="M133.42 118.404C130.99 118.404 128.3 117.524 126.16 115.844L127.91 113.184C129.76 114.584 131.77 115.294 133.52 115.294C135.27 115.294 136.18 114.584 136.18 113.444V113.374C136.18 112.044 134.36 111.594 132.35 110.974C129.82 110.264 127 109.224 127 105.954V105.894C127 102.654 129.69 100.674 133.1 100.674C135.24 100.674 137.57 101.424 139.39 102.614L137.83 105.404C136.18 104.394 134.43 103.784 133 103.784C131.48 103.784 130.6 104.494 130.6 105.504V105.564C130.6 106.794 132.45 107.314 134.46 107.964C136.96 108.744 139.78 109.874 139.78 112.954V113.014C139.78 116.614 136.99 118.394 133.43 118.394" fill="#ED1C24"/>
<path d="M159.68 118.465C154.46 118.465 150.6 114.475 150.6 109.585C150.6 104.695 154.49 100.604 159.74 100.604C164.99 100.604 168.85 104.595 168.85 109.525C168.85 114.455 164.96 118.474 159.67 118.474M159.67 104.044C156.52 104.044 154.52 106.505 154.52 109.525C154.52 112.545 156.69 115.064 159.74 115.064C162.79 115.064 164.93 112.605 164.93 109.585C164.93 106.565 162.76 104.044 159.68 104.044" fill="#ED1C24"/>
<path d="M181.75 101.094V104.334H177.28V118.074H173.36V104.334H171.19V101.054H173.36V99.8243C173.36 96.0643 175.24 94.2144 178.61 94.2144C179.97 94.2144 180.91 94.4043 181.79 94.6643V97.9743C181.01 97.7143 180.33 97.5544 179.49 97.5544C178 97.5544 177.22 98.3643 177.22 100.154V101.094H181.76H181.75Z" fill="#ED1C24"/>
<path d="M205.16 42.5143C203.51 41.1843 203.18 39.7344 202.94 39.2144L203.84 44.2744C203.84 44.2744 204.39 45.5643 205.42 46.7543C206.15 46.7143 206.93 46.6843 207.7 46.6843L207.36 44.7543C207.06 43.8943 206.02 43.1943 205.16 42.5043M201.78 24.2943C202.83 25.2943 203.7 25.6543 204.11 26.4543L203.16 21.0743C202.71 20.1443 201.68 19.2644 200.48 18.4644C199.36 17.7144 198.87 16.2843 198.87 16.2843C198.87 16.2843 199.87 21.9344 199.88 21.9644C200.03 22.2544 200.32 22.9044 201.78 24.3044M202.84 15.6243C202.84 15.6243 202.76 10.3643 199.95 9.37433C199.91 9.36433 197.92 10.9344 194.61 10.7144C196.24 11.4444 198.44 12.5043 198.47 12.5643C200 14.9943 202.83 15.6343 202.83 15.6343M212.89 20.6843C210.16 21.8843 210.47 27.1343 210.47 27.1343C210.47 27.1343 213.25 26.2844 214.59 23.7444C214.62 23.6944 216.73 22.4744 218.31 21.6144C215.03 22.0844 212.93 20.6643 212.89 20.6843ZM212.76 31.1943C211.6 32.0543 210.61 32.9843 210.21 33.9343L209.52 39.3543C209.89 38.5343 210.74 38.1444 211.75 37.0844C213.14 35.6244 213.4 34.9543 213.54 34.6643C213.55 34.6343 214.27 28.9443 214.27 28.9443C214.27 28.9443 213.85 30.3943 212.77 31.1943M210.65 43.9043C209.14 45.0143 208.68 45.9344 208.67 46.0544C208.67 46.0844 208.63 46.3343 208.59 46.7043C209.78 46.7243 210.94 46.7943 211.87 46.8843C211.96 46.5943 212.03 46.3243 212.08 46.1143L212.75 40.8443C212.75 40.8443 212.19 42.7743 210.65 43.9043ZM204.07 36.3044C205.48 37.1344 206.19 38.1843 206.19 38.1843C206.19 38.1843 205.31 33.2243 205.29 33.1043C205.27 32.9843 204.77 32.0944 203.21 31.0544C201.62 30.0044 200.96 28.0943 200.96 28.0943L201.89 33.3243C202.1 34.0343 202.38 35.3043 204.07 36.2943M228.52 10.3243L224.59 12.6643C224.59 12.6643 227.99 12.0043 229.67 12.7343C228.88 11.8543 228.42 10.3943 228.52 10.3243ZM225.06 15.1643C223.66 14.8243 222.31 14.6543 221.32 14.9443L216.7 17.8743C217.57 17.6343 218.42 18.0443 219.87 18.1444C221.89 18.2843 222.56 18.0543 222.88 17.9743C222.9 17.9743 227.75 14.8943 227.75 14.8943C227.75 14.8943 226.37 15.4943 225.06 15.1743M183.14 0.0443435C182.73 -0.165657 181.97 0.394357 181.52 1.21436C181.05 2.07436 181.03 2.82435 181.35 2.95435C181.67 3.09435 182.23 2.69433 182.74 1.90433C183.24 1.12433 183.42 0.174334 183.15 0.0343337M230.3 11.3344C229.8 10.5444 229.15 10.0043 229.01 10.0943C228.87 10.1843 229.12 10.9443 229.62 11.7343C230.12 12.5243 230.79 13.1943 230.93 13.1043C231.07 13.0243 230.8 12.1244 230.3 11.3344ZM195.96 6.86435L191.13 4.29434C190.12 4.07434 188.79 4.34434 187.42 4.79434C186.14 5.21434 184.72 4.71436 184.72 4.71436C184.72 4.71436 189.79 7.42435 189.81 7.42435C190.13 7.48435 190.82 7.65435 192.82 7.36435C194.26 7.15435 195.08 6.69435 195.96 6.86435ZM187 1.98435L183.67 0.324342C183.77 0.384342 183.54 1.57433 182.99 2.28433C184.48 1.57433 187 1.98435 187 1.98435Z" fill="#ED1C24"/>
<path fill-rule="evenodd" clip-rule="evenodd" d="M207.8 171.434C213.63 171.434 219.97 170.494 221.89 169.364C225.09 167.504 224.15 160.224 223.27 157.374C222.65 155.354 221.27 151.934 221.28 144.814C221.29 137.174 223.72 122.374 223.82 121.464C224.01 119.934 224.38 118.414 223.57 118.054C224.56 117.284 223.77 98.4344 222.03 97.7044C222.91 97.7044 222.59 95.5944 222.41 94.1444C222.07 91.4744 219.78 85.1844 217.81 78.3644C216.93 75.3144 215.56 70.7244 215.11 67.3144C214.7 64.1544 214.78 60.1144 214.78 58.3744C215.37 57.7744 215.59 57.5044 215.57 56.5544C215.54 55.5744 214.32 53.1744 214.32 52.8244C214.32 52.4744 214.32 52.0644 214.76 51.6644C215.23 51.2144 215.21 50.4344 215 49.7944C214.76 49.0144 213.83 48.7944 213.29 48.6544C212.8 48.5344 210.34 48.2744 207.81 48.2744C205.28 48.2744 202.82 48.5344 202.33 48.6544C201.79 48.7944 200.86 49.0144 200.62 49.7944C200.41 50.4344 200.38 51.2144 200.85 51.6644C201.29 52.0744 201.3 52.4844 201.3 52.8244C201.3 53.1644 200.08 55.5644 200.05 56.5544C200.03 57.5144 200.25 57.7844 200.84 58.3744C200.84 60.1244 200.93 64.1544 200.51 67.3144C200.07 70.7244 198.69 75.3144 197.81 78.3644C195.84 85.1944 193.55 91.4844 193.21 94.1444C193.03 95.6044 192.71 97.7044 193.6 97.7044C191.86 98.4344 191.07 117.284 192.06 118.054C191.25 118.404 191.61 119.934 191.8 121.464C191.9 122.384 194.33 137.174 194.34 144.814C194.34 151.934 192.98 155.364 192.35 157.374C191.47 160.224 190.53 167.504 193.72 169.364C195.63 170.484 201.98 171.434 207.81 171.434" fill="#ED1C24"/>
<path d="M8.9998 97.9744H8.7198H6.3398H6.2898L6.2498 97.9944L1.0498 99.6544L0.799805 99.7344L0.859805 99.9944L1.5798 102.754L1.6498 103.034L1.9298 102.964L5.0598 102.094V117.774V118.054H5.3398H8.7198H8.9998V117.774V98.2644V97.9744Z" fill="#ED1C24"/>
<path d="M20.8697 97.8442C17.2197 97.8442 15.3397 99.4442 13.4997 102.034L13.3397 102.254L13.5497 102.424L15.9597 104.304L16.1797 104.474L16.3497 104.254C17.9197 102.214 19.0797 101.454 20.6097 101.454C22.3397 101.454 23.4597 102.524 23.4597 104.194C23.4597 105.764 22.6397 106.934 19.9297 109.214L13.2597 114.884L13.1597 114.964V118.064H27.7297V114.514H19.0097L22.3997 111.694C25.5997 109.094 27.5397 107.274 27.5397 103.974V103.914C27.5397 100.284 24.8597 97.8542 20.8697 97.8542" fill="#ED1C24"/>
<path d="M45.05 98.1145H32.94L32.92 98.3745L32.37 107.865V108.025L32.49 108.115L34.54 109.474L34.67 109.564L34.81 109.495C35.99 108.935 37.12 108.664 38.26 108.664C40.49 108.664 41.99 109.844 41.99 111.594V111.654C41.99 113.514 40.59 114.724 38.42 114.724C36.83 114.724 35.26 113.984 33.63 112.474L33.42 112.275L33.23 112.495L31.13 114.954L30.96 115.154L31.15 115.335C33.23 117.355 35.69 118.374 38.46 118.374C42.92 118.374 45.91 115.624 45.91 111.534V111.474C45.91 107.544 43.23 105.104 38.9 105.104C37.77 105.104 36.94 105.274 36.14 105.534L36.4 101.684H45.05V98.1045V98.1145Z" fill="#ED1C24"/>
<path d="M208.55 104.414H207.07L207.83 102.854H209.31L208.56 104.414H208.55ZM203.64 109.434C203.52 109.744 203.61 109.914 203.69 109.944C203.93 110.044 204.84 109.354 206.01 107.214H206.57C205.65 108.894 204.42 110.634 203.53 111.344C203.24 111.574 202.68 111.884 202.27 111.684C201.92 111.514 201.81 110.894 201.84 110.374C201.39 111.024 200.68 111.924 199.87 111.674C199.36 111.514 199.16 110.844 199.38 109.494C198.7 110.414 197.88 111.864 196.75 111.584C196.47 111.514 196.02 110.864 196.02 109.934C196.02 109.444 196.04 108.544 196.51 107.084C196.37 107.204 196.18 107.294 196.04 107.334C195.63 108.834 194.68 111.514 194.1 111.394C193.62 111.294 193.31 109.434 194.03 106.854C194.31 105.884 195.09 103.594 195.99 103.884C196.72 104.124 196.42 105.674 196.16 106.764C196.78 106.584 197.27 105.534 197.49 105.124C197.71 104.714 198.91 102.624 200.08 103.194C200.48 103.394 200.6 103.974 200.46 104.614C200.26 105.594 199.79 106.534 199.35 106.184C198.95 105.854 199.28 104.574 200.07 104.494C200.14 104.314 200.17 103.994 199.96 103.864C199.42 103.544 198.28 105.434 197.86 106.404C197.4 107.534 196.7 109.834 197.43 110.374C198.22 110.954 199.64 108.144 200.35 106.824C201.06 105.504 203.28 101.134 204.9 103.194C204.97 103.114 205 102.954 205.05 102.834H206.66C206.66 102.834 203.69 109.214 203.63 109.424M195.69 107.314C195.33 107.204 195.09 106.954 194.94 106.554C194.15 109.124 194.4 110.074 194.52 110.074C194.81 110.074 195.37 108.694 195.7 107.324M195.92 104.624C195.72 104.574 195.11 105.334 195.22 106.274C195.24 106.484 195.5 106.774 195.84 106.814C196.03 106.024 196.29 104.724 195.92 104.624ZM204.63 103.794C204.53 103.294 203.89 103.494 203.18 104.584C202.4 105.754 201.64 107.134 201.32 107.964C200.93 109.014 200.78 109.954 201.14 110.034C201.52 110.124 202.09 109.244 202.43 108.614C202.8 107.894 204.64 103.794 204.64 103.794M200.5 113.144C197.12 112.524 195.16 114.294 193.98 113.804C192.99 113.414 192.76 111.374 193.12 107.894C193.32 106.054 193.93 103.644 194.52 102.524C194.98 101.634 195.42 101.014 195.73 101.124C195.98 101.204 195.95 101.464 195.87 101.684C195.32 101.854 195.07 103.254 195.41 103.364C195.69 103.444 196.03 102.684 196.2 101.774C196.28 101.324 196.2 100.634 195.88 100.454C195.49 100.244 194.66 100.954 194.04 102.184C193.27 103.754 192.69 106.004 192.46 107.744C192.08 110.814 192.45 113.834 193.71 114.444C194.38 114.764 198.04 112.594 200.08 116.184C200.98 114.044 204.59 115.714 205.7 116.644C205.63 116.434 203.19 113.634 200.5 113.144ZM223.25 110.684C222.94 111.964 221.96 114.624 221.34 114.354C221.12 114.264 221.05 113.644 221.08 113.224C220.91 113.734 220.32 114.774 219.95 114.594C219.72 114.474 219.49 114.164 219.53 113.104C219.27 113.844 218.73 115.184 218.2 114.984C217.5 114.724 217.64 113.084 218.03 110.934C217.87 111.014 217.71 111.074 217.54 111.094C217.14 112.594 215.89 115.964 214.28 115.614C213.43 115.434 213.25 113.654 214.66 110.274C215.1 109.214 216.35 106.954 217.43 107.444C218.14 107.754 217.9 109.554 217.65 110.654C217.81 110.614 217.96 110.544 218.12 110.454C218.27 109.664 218.44 108.844 218.62 107.994C219.43 104.094 220.73 100.134 221.46 100.204C221.83 100.244 221.89 100.934 221.87 102.004C221.78 102.094 221.67 102.174 221.59 102.234C221.65 101.484 221.64 100.914 221.52 100.854C221.06 100.634 219.88 105.544 219.21 109.314C220.09 108.034 220.82 106.204 221.09 105.234C221.16 104.964 221.24 104.644 221.3 104.324C221.41 104.294 221.53 104.224 221.62 104.184C221.55 104.544 221.47 104.934 221.37 105.304C221.03 106.574 220.18 108.744 219.09 110.054C218.76 111.994 218.6 113.454 218.79 113.514C219.2 113.654 219.76 111.474 220.08 110.454C220.47 109.284 221.72 105.884 222.4 107.734C222.43 107.664 222.48 107.454 222.49 107.364L223.05 107.314C222.9 108.304 222.29 111.064 221.97 112.484C221.91 112.724 221.97 112.894 222.02 112.884C222.12 112.884 222.59 112.204 223 110.674H223.24L223.25 110.684ZM217.23 111.064C216.72 111.004 216.3 110.304 216.15 109.824C214.92 112.144 214.96 113.784 215.45 113.894C215.97 114.004 216.9 112.374 217.23 111.064ZM217.47 108.144C217.12 107.884 216.36 108.634 216.5 109.494C216.55 109.794 216.79 110.614 217.35 110.644C217.55 109.864 217.85 108.434 217.47 108.144ZM222.27 108.164C222.21 107.784 222 107.784 221.59 108.714C221.19 109.614 220.8 110.774 220.7 111.434C220.57 112.264 220.48 112.974 220.65 113.014C220.88 113.094 221.11 112.394 221.28 111.914C221.55 111.144 222.27 108.154 222.27 108.154M214.11 109.614C213.96 110.614 213.59 111.654 213.33 112.164C213.08 112.674 212.77 113.324 212.35 113.894C211.37 115.234 209.79 116.674 208.28 115.874C206.86 115.124 206.39 112.864 206.91 110.684C207.52 108.174 208.76 105.004 211.63 101.854C212.84 100.534 214.38 99.8643 215.09 99.9043C215.78 99.9343 216.22 100.264 216.48 100.744C216.6 100.704 216.7 100.664 216.82 100.644C217.84 100.454 218.93 101.404 219.76 102.064C219.61 102.464 219.46 102.914 219.32 103.404C218.51 102.544 217.76 101.194 216.91 101.234C216.83 101.234 216.76 101.264 216.68 101.274C216.87 102.084 216.76 103.104 216.48 103.934C216.04 105.254 215.26 106.264 214.53 106.004C213.3 105.584 214.23 101.904 216.18 100.874C216.04 100.684 215.84 100.604 215.57 100.654C214.76 100.804 213.52 101.884 212.64 103.164C211.76 104.444 209.03 108.564 208.92 112.584C208.9 113.454 209.3 114.484 210.07 114.654C211.2 114.914 212.38 113.064 212.95 111.944C213.6 110.684 214.18 108.274 213.48 108.044C212.72 107.794 211.87 109.824 211.87 110.844C211.13 111.274 210.64 111.924 210.12 112.654C210.35 109.274 211.67 107.364 212.98 107.164C214 107.004 214.31 108.234 214.12 109.614M214.75 105.564C215.34 105.644 215.84 104.694 216.19 103.744C216.41 103.144 216.56 102.094 216.41 101.384C214.84 102.094 213.76 105.424 214.75 105.564ZM220.66 104.134C222.45 104.244 222.73 101.514 222.87 100.424C222.49 101.824 221.9 102.664 221.05 102.674C220.92 103.114 220.79 103.594 220.66 104.134ZM223.71 112.954C223.71 112.464 223.53 112.264 223.3 112.334C223.07 112.404 222.86 112.724 222.87 113.214C222.87 113.704 223.08 113.904 223.31 113.834C223.54 113.764 223.71 113.444 223.71 112.954ZM223.62 112.984C223.63 113.344 223.48 113.634 223.32 113.684C223.14 113.734 223 113.544 223 113.184C223 112.824 223.14 112.544 223.32 112.494C223.48 112.444 223.63 112.644 223.63 112.994M223.24 113.184L223.29 113.164L223.4 113.474L223.52 113.444L223.4 113.124C223.46 113.094 223.52 113.024 223.51 112.864C223.51 112.674 223.44 112.634 223.32 112.674L223.14 112.734V113.564L223.24 113.534V113.184ZM223.24 113.034V112.834L223.32 112.814C223.32 112.814 223.4 112.784 223.4 112.874C223.4 112.974 223.38 112.984 223.33 113.004L223.24 113.024V113.034Z" fill="black"/>
</svg>
