<svg width="25" height="40" viewBox="0 0 25 40" fill="none" xmlns="http://www.w3.org/2000/svg">
<g clip-path="url(#clip0_101_19477)">
<path d="M14.9577 2.93325C14.9577 2.93325 14.7577 3.0102 14.5377 3.25064C14.3077 3.49108 14.1777 3.76999 14.2777 3.83732C14.3177 3.86617 14.3977 3.86617 14.5577 3.73152C14.6777 3.62573 14.8077 3.48146 14.8877 3.27949C14.9877 3.03905 14.9577 2.93325 14.9577 2.92364M16.2077 3.34682C15.9577 3.22179 15.7677 3.07752 15.5777 2.98134C15.3977 2.89478 15.2777 2.85631 15.1277 2.87555C15.1077 2.87555 15.0677 2.89478 15.0677 2.89478C15.0677 2.89478 15.1477 3.14484 14.8477 3.56802C14.5477 4.00082 14.2677 4.00082 14.1777 3.88541C14.0977 3.76038 14.1977 3.51032 14.3777 3.27949C14.5677 3.03905 14.8977 2.8467 14.8977 2.8467C14.8977 2.8467 14.7877 2.78899 14.5377 2.92364C14.2877 3.0679 13.8577 3.3949 13.4577 3.95273C13.0577 4.51056 12.9777 4.80871 12.9277 5.04915C12.8777 5.28959 12.9277 5.53965 13.1977 5.53965C13.4777 5.53965 13.7877 5.12609 13.8777 4.99144C14.0477 4.73176 14.1477 4.32782 13.9177 4.38553C13.8077 4.41438 13.7177 4.52979 13.6577 4.6452C13.5977 4.76062 13.5777 4.87603 13.5777 4.87603C13.5777 4.87603 13.4777 4.9145 13.3577 5.00106C13.2277 5.09724 13.1477 5.1838 13.1477 5.1838C13.1477 5.1838 13.1477 4.99144 13.2977 4.68368C13.4577 4.37591 13.7477 4.23164 13.9077 4.21241C14.0577 4.20279 14.2477 4.3182 14.0877 4.77023C13.9277 5.22227 13.4477 5.76086 12.9477 5.78009C12.4777 5.78971 12.1677 5.22227 12.8077 4.21241C13.5177 3.09676 14.3577 2.75052 14.6377 2.71205C14.9077 2.67358 15.0077 2.78899 15.0077 2.78899C15.0077 2.78899 15.2377 2.68319 15.5277 2.70243C15.8577 2.72167 16.1277 2.95249 16.4677 3.10637C16.3777 3.19293 16.2977 3.27949 16.2177 3.35643M17.7177 2.97173C17.4877 3.11599 17.1677 3.25064 16.8577 3.22179C16.7777 3.29873 16.6977 3.3949 16.6177 3.49108C17.1577 3.58726 17.6177 3.26026 17.8677 2.99096C18.0177 2.81784 18.0977 2.66396 18.0977 2.66396C18.0977 2.66396 17.9477 2.81784 17.7177 2.96211M17.0177 4.424L17.0277 4.40476C17.0277 4.40476 17.0277 4.36629 16.9777 4.35667C16.9277 4.35667 16.8577 4.35667 16.6777 4.55865C16.4977 4.751 16.3877 4.92412 16.2977 5.08762C16.1977 5.27035 16.1577 5.41462 16.2177 5.44347C16.2377 5.45309 16.2577 5.45309 16.2777 5.44347C16.3177 5.43386 16.3677 5.39539 16.4277 5.31844C16.4577 5.27997 16.4977 5.23188 16.5377 5.17418C16.6577 5.01068 16.9577 4.51056 17.0177 4.41438M15.1277 4.6452C15.1577 4.56826 15.1977 4.41438 15.1177 4.35667C15.0277 4.29897 14.8077 4.44323 14.8077 4.59712C14.8077 4.751 14.9677 4.81832 15.0077 4.82794C15.0277 4.82794 15.0377 4.82794 15.0477 4.81832C15.0477 4.80871 15.1077 4.72215 15.1377 4.6452M14.9777 4.92412C14.9777 4.92412 14.8977 4.89526 14.8277 4.82794C14.7577 4.77023 14.7177 4.70291 14.7077 4.69329C14.7077 4.69329 14.6877 4.71253 14.5777 4.87603C14.4577 5.03953 14.2877 5.38577 14.4477 5.44347C14.5477 5.48194 14.7277 5.29921 14.8177 5.1838C14.9077 5.078 14.9877 4.93374 14.9877 4.92412C14.9877 4.9145 14.9877 4.9145 14.9877 4.9145M16.8477 5.28959C16.8077 5.35691 16.7577 5.49156 16.8977 5.405C17.0777 5.29921 17.3277 4.93374 17.3277 4.93374H17.4377C17.4377 4.93374 17.2877 5.16456 17.0877 5.37615C16.9077 5.5685 16.6877 5.75124 16.5377 5.732C16.3577 5.71277 16.4077 5.48194 16.4077 5.48194C16.4077 5.48194 16.1477 5.75124 15.9677 5.732C15.7277 5.71277 15.7977 5.41462 15.7977 5.41462C15.7977 5.41462 15.5277 5.74162 15.3377 5.732C15.0477 5.72239 15.1177 5.37615 15.1977 5.13571C15.2377 5.01068 15.2777 4.90488 15.2777 4.90488C15.2777 4.90488 15.2477 4.90488 15.1877 4.92412C15.1577 4.92412 15.0977 4.92412 15.0977 4.92412C15.0977 4.92412 14.9777 5.13571 14.8777 5.26074C14.7777 5.38577 14.3677 5.81856 14.1277 5.732C13.8977 5.65506 13.9677 5.31844 14.0977 5.05877C14.2877 4.67406 14.8177 4.11623 15.1377 4.18356C15.4577 4.2605 15.1477 4.82794 15.1477 4.82794C15.1477 4.82794 15.1677 4.82794 15.2077 4.82794C15.2677 4.81832 15.3277 4.78947 15.3277 4.78947C15.3277 4.78947 15.6477 4.13547 15.9977 3.70267C16.3477 3.26987 17.0577 2.52931 17.3477 2.70243C17.4177 2.7409 17.3877 2.89478 17.2977 3.07752C17.2577 3.08714 17.2177 3.09676 17.1677 3.10637C17.2277 3.00058 17.2677 2.9044 17.2777 2.8467C17.3177 2.62549 16.7877 3.09676 16.4077 3.59688C16.0277 4.097 15.8077 4.55865 15.8077 4.55865C15.8077 4.55865 15.8877 4.51056 16.0077 4.424C16.1277 4.32782 16.3077 4.17394 16.4877 3.98158C16.6177 3.85655 16.7577 3.69305 16.8977 3.51993C16.9377 3.51993 16.9777 3.51993 17.0177 3.51032C16.8677 3.71229 16.6977 3.89502 16.5677 4.02967C16.4177 4.17394 16.2477 4.33744 16.1077 4.46247C15.8777 4.65482 15.7077 4.751 15.7077 4.751C15.7077 4.751 15.3777 5.405 15.5577 5.44347C15.6677 5.46271 15.8777 5.15494 15.8777 5.15494C15.8777 5.15494 16.1477 4.751 16.3177 4.55865C16.5477 4.30859 16.7377 4.16432 16.9277 4.1547C17.0377 4.1547 17.1077 4.27011 17.1077 4.27011L17.1577 4.19317H17.4877C17.4877 4.19317 16.8777 5.20303 16.8377 5.27997M17.7377 2.93325C17.5077 3.07752 17.1877 3.21217 16.8777 3.18331C16.7977 3.26026 16.7177 3.35643 16.6377 3.45261C17.1777 3.54879 17.6377 3.22179 17.8877 2.95249C18.0377 2.77937 18.1177 2.62549 18.1177 2.62549C18.1177 2.62549 17.9677 2.77937 17.7377 2.92364M13.1077 3.46223H12.7977L12.6277 3.74114H12.9377L13.1077 3.46223ZM11.6277 4.43362C11.7577 4.2605 12.1177 3.63535 12.1177 3.63535C12.1177 3.63535 12.1177 3.58726 12.0677 3.58726C12.0177 3.58726 11.9277 3.60649 11.7677 3.80847C11.5977 4.01044 11.4677 4.17394 11.3777 4.34706C11.2777 4.52979 11.2277 4.66444 11.2877 4.69329C11.3077 4.69329 11.3277 4.70291 11.3477 4.69329C11.3877 4.68368 11.4377 4.6452 11.5077 4.56826C11.5377 4.52979 11.5777 4.4817 11.6177 4.424M9.92771 3.60649C9.83771 3.54879 9.61771 3.69305 9.61771 3.84694C9.61771 4.00082 9.81771 4.03929 9.84771 4.04891C9.84771 4.04891 9.86771 4.04891 9.87771 4.03929C9.87771 4.02967 9.90771 3.98158 9.93771 3.90464C9.96771 3.8277 10.0077 3.67382 9.92771 3.61611M9.80771 4.14508C9.80771 4.14508 9.71771 4.12585 9.63771 4.06814C9.55771 4.02005 9.51771 3.94311 9.51771 3.94311C9.51771 3.94311 9.49771 3.97197 9.37771 4.13547C9.25771 4.29897 9.08771 4.6452 9.25771 4.70291C9.36771 4.74138 9.53771 4.55865 9.62771 4.44323C9.71771 4.33744 9.81771 4.16432 9.82771 4.1547C9.82771 4.14508 9.82771 4.14508 9.82771 4.13547M12.3877 4.21241H12.4977C12.4977 4.21241 11.9277 5.02029 11.6077 4.98182C11.4277 4.96259 11.4777 4.751 11.4777 4.751C11.4777 4.751 11.2277 5.03953 10.9877 4.98182C10.7777 4.93374 10.9077 4.5875 10.9077 4.5875C10.8877 4.5875 10.4277 5.09724 10.1077 4.98182C9.76771 4.85679 9.93771 4.44323 10.0077 4.30859C10.0577 4.20279 10.1177 4.097 10.1177 4.097C10.1177 4.097 10.0677 4.11623 10.0377 4.11623C10.0077 4.11623 9.95771 4.13547 9.95771 4.13547C9.95771 4.13547 9.79771 4.38553 9.70771 4.51056C9.60771 4.63559 9.19771 5.06838 8.95771 4.98182C8.71771 4.89526 8.76771 4.56826 8.90771 4.30859C9.12771 3.88541 9.64771 3.35643 9.96771 3.43337C10.2877 3.51032 10.0277 4.01044 10.0277 4.01044C10.0277 4.01044 10.0877 4.01044 10.2477 3.91426C10.4677 3.76999 10.7577 3.37567 11.0677 3.41414C11.2177 3.43337 11.3577 3.57764 11.1677 3.85655C11.1077 3.94311 11.0077 4.02967 10.9277 3.95273C10.8777 3.90464 10.9277 3.81808 10.9677 3.75076C11.0377 3.6642 11.1377 3.67382 11.1377 3.67382C11.1377 3.67382 11.1877 3.5584 11.0577 3.5584C10.9477 3.5584 10.6777 3.80847 10.5277 4.04891C10.3877 4.27011 10.1777 4.65482 10.3977 4.73176C10.5977 4.80871 10.9677 4.37591 11.1377 4.1547C11.3077 3.9335 11.6977 3.41414 12.0277 3.3949C12.1377 3.3949 12.2077 3.49108 12.2077 3.49108L12.2477 3.43337H12.5777C12.5777 3.43337 11.9677 4.43362 11.9177 4.51056C11.8777 4.56826 11.8277 4.70291 11.9677 4.62597C12.1077 4.54903 12.3977 4.18356 12.3977 4.18356M12.2277 5.78971C11.9777 5.62621 11.6677 5.54927 11.3977 5.5685C11.1177 5.57812 10.9977 5.78009 10.9977 5.78009C10.8677 5.5685 10.6177 5.44347 10.2277 5.44347C9.60771 5.45309 8.98771 5.74162 8.49771 5.74162C8.02771 5.74162 7.67771 5.46271 7.68771 4.96259C7.69771 4.07776 8.46771 3.26987 9.04771 2.91402C9.37771 2.70243 9.65771 2.64472 9.83771 2.66396C9.96771 2.67358 10.1277 2.82746 10.0377 3.03905C9.89771 3.35643 9.68771 3.3372 9.68771 3.18331C9.68771 3.08714 9.75771 3.01981 9.80771 2.99096C9.83771 2.97173 9.89771 2.96211 9.92771 2.96211C9.95771 2.94287 9.97771 2.76014 9.73771 2.82746C9.49771 2.88517 9.21771 3.11599 8.93771 3.40452C8.66771 3.70267 8.24771 4.25088 8.14771 4.83756C8.09771 5.10685 8.14771 5.59736 8.79771 5.58774C9.35771 5.58774 10.1877 5.21265 10.9477 5.21265C11.2377 5.21265 11.4977 5.28959 11.6977 5.405C11.8977 5.52041 12.1377 5.69353 12.2177 5.80895" fill="#F40009"/>
<path d="M0.60791 39.4902V0.519287H24.4079V39.4902" stroke="white" stroke-linecap="round" stroke-linejoin="round"/>
<path d="M21.5481 38.2784H19.5981V36.4029H21.5481V38.2784ZM18.3181 38.2784H16.3681V36.4029H18.3181V38.2784ZM15.0881 38.2784H13.1381V36.4029H15.0881V38.2784ZM11.8581 38.2784H9.90807V36.4029H11.8581V38.2784ZM8.62807 38.2784H6.67807V36.4029H8.62807V38.2784ZM5.39807 38.2784H3.44807V36.4029H5.39807V38.2784ZM21.5281 35.1046H19.5781V33.2291H21.5281V35.1046ZM18.2981 35.1046H16.3481V33.2291H18.2981V35.1046ZM15.0681 35.1046H13.1181V33.2291H15.0681V35.1046ZM11.8381 35.1046H9.88807V33.2291H11.8381V35.1046ZM8.60807 35.1046H6.65807V33.2291H8.60807V35.1046ZM5.37807 35.1046H3.42807V33.2291H5.37807V35.1046ZM21.5081 31.9307H19.5581V30.0553H21.5081V31.9307ZM18.2781 31.9307H16.3281V30.0553H18.2781V31.9307ZM15.0481 31.9307H13.0981V30.0553H15.0481V31.9307ZM11.8181 31.9307H9.86807V30.0553H11.8181V31.9307ZM8.58807 31.9307H6.63807V30.0553H8.58807V31.9307ZM5.35807 31.9307H3.40807V30.0553H5.35807V31.9307ZM21.4881 28.7569H19.5381V26.8814H21.4881V28.7569ZM18.2581 28.7569H16.3081V26.8814H18.2581V28.7569ZM15.0281 28.7569H13.0781V26.8814H15.0281V28.7569ZM11.7981 28.7569H9.84807V26.8814H11.7981V28.7569ZM8.56807 28.7569H6.61807V26.8814H8.56807V28.7569ZM5.33807 28.7569H3.38807V26.8814H5.33807V28.7569ZM21.4681 25.583H19.5181V23.7076H21.4681V25.583ZM18.2381 25.583H16.2881V23.7076H18.2381V25.583ZM15.0081 25.583H13.0581V23.7076H15.0081V25.583ZM11.7781 25.583H9.82807V23.7076H11.7781V25.583ZM8.54807 25.583H6.59807V23.7076H8.54807V25.583ZM5.31807 25.583H3.36807V23.7076H5.31807V25.583ZM21.4481 22.4092H19.4981V20.5337H21.4481V22.4092ZM18.2181 22.4092H16.2681V20.5337H18.2181V22.4092ZM14.9881 22.4092H13.0381V20.5337H14.9881V22.4092ZM11.7581 22.4092H9.80807V20.5337H11.7581V22.4092ZM8.52807 22.4092H6.57807V20.5337H8.52807V22.4092ZM5.29807 22.4092H3.34807V20.5337H5.29807V22.4092ZM21.4281 19.2354H19.4781V17.3599H21.4281V19.2354ZM18.1981 19.2354H16.2481V17.3599H18.1981V19.2354ZM14.9681 19.2354H13.0181V17.3599H14.9681V19.2354ZM11.7381 19.2354H9.78807V17.3599H11.7381V19.2354ZM8.50807 19.2354H6.55807V17.3599H8.50807V19.2354ZM5.27807 19.2354H3.32807V17.3599H5.27807V19.2354ZM21.4081 16.0615H19.4581V14.1861H21.4081V16.0615ZM18.1781 16.0615H16.2281V14.1861H18.1781V16.0615ZM14.9481 16.0615H12.9981V14.1861H14.9481V16.0615ZM11.7181 16.0615H9.76807V14.1861H11.7181V16.0615ZM8.48807 16.0615H6.53807V14.1861H8.48807V16.0615ZM5.25807 16.0615H3.30807V14.1861H5.25807V16.0615ZM21.3881 12.8877H19.4381V11.0122H21.3881V12.8877ZM18.1581 12.8877H16.2081V11.0122H18.1581V12.8877ZM14.9281 12.8877H12.9781V11.0122H14.9281V12.8877ZM11.6981 12.8877H9.74807V11.0122H11.6981V12.8877ZM8.46807 12.8877H6.51807V11.0122H8.46807V12.8877ZM5.23807 12.8877H3.28807V11.0122H5.23807V12.8877ZM21.3681 9.71383H19.4181V7.83838H21.3681V9.71383ZM18.1381 9.71383H16.1881V7.83838H18.1381V9.71383ZM14.9081 9.71383H12.9581V7.83838H14.9081V9.71383ZM11.6781 9.71383H9.72807V7.83838H11.6781V9.71383ZM8.44807 9.71383H6.49807V7.83838H8.44807V9.71383ZM5.21807 9.71383H3.26807V7.83838H5.21807V9.71383Z" stroke="white" stroke-width="0.5" stroke-linecap="round" stroke-linejoin="round"/>
</g>
<defs>
<clipPath id="clip0_101_19477">
<rect width="24.88" height="40" fill="white" transform="translate(0.0678711)"/>
</clipPath>
</defs>
</svg>
