<svg width="9" height="40" viewBox="0 0 9 40" fill="none" xmlns="http://www.w3.org/2000/svg">
<path d="M4.64895 40C6.12895 40 7.73896 39.6876 8.22896 39.3326C9.03896 38.7221 8.80895 36.3651 8.57895 35.4421C8.41895 34.789 8.06895 33.6815 8.06895 31.367C8.06895 28.8822 8.68895 24.083 8.71895 23.7848C8.76895 23.2878 8.85895 22.7909 8.64895 22.6773C8.89895 22.4359 8.69895 16.302 8.25896 16.0748C8.47895 16.0748 8.39895 15.3932 8.35895 14.9105C8.26895 14.0443 7.68895 11.9997 7.18895 9.78465C6.96895 8.79072 6.61896 7.29983 6.50896 6.19232C6.39895 5.16999 6.42895 3.84949 6.42895 3.28153C6.57895 3.08275 6.63895 2.99755 6.62895 2.68518C6.62895 2.3586 6.30896 1.57766 6.30896 1.47827C6.30896 1.37888 6.30896 1.23689 6.41896 1.0949C6.53896 0.952907 6.52896 0.697326 6.47896 0.484342C6.41896 0.228761 6.17895 0.157766 6.03895 0.115169C5.91895 0.0725722 5.28895 -0.0126215 4.64895 0.00157748C4.00895 0.00157748 3.37895 0.0867711 3.25895 0.115169C3.11895 0.157766 2.88895 0.228761 2.81895 0.484342C2.76895 0.697326 2.75895 0.952907 2.87895 1.0949C2.98895 1.22269 2.98895 1.36468 2.98895 1.47827C2.98895 1.59186 2.67896 2.3728 2.66896 2.68518C2.66896 2.99755 2.71896 3.08275 2.86896 3.28153C2.86896 3.84949 2.88895 5.15579 2.78895 6.19232C2.67895 7.29983 2.32895 8.79072 2.09895 9.78465C1.59895 11.9997 1.01895 14.0443 0.928953 14.9105C0.878953 15.379 0.798959 16.0748 1.02896 16.0748C0.588959 16.3162 0.388945 22.4359 0.638945 22.6773C0.428945 22.7909 0.528952 23.2878 0.568952 23.7848C0.598952 24.083 1.21895 28.8822 1.21895 31.367C1.21895 33.6815 0.868952 34.789 0.708952 35.4421C0.488952 36.3651 0.248958 38.7363 1.05896 39.3326C1.54896 39.7018 3.15894 40 4.63894 40" fill="#8FDA9F"/>
</svg>
