<svg width="40" height="22" viewBox="0 0 40 22" fill="none" xmlns="http://www.w3.org/2000/svg">
<g clip-path="url(#clip0_101_19519)">
<path fill-rule="evenodd" clip-rule="evenodd" d="M28.6871 2.25638C28.6263 2.24877 28.5649 2.2432 28.5027 2.23983C27.5386 2.17983 26.7796 2.52983 26.7796 2.52983C26.7796 2.52983 26.4822 2.13983 25.5694 2.27983C24.6668 2.41983 21.8668 3.58983 19.5181 7.32983C17.395 10.7098 18.4309 12.6298 19.9796 12.5998C21.6617 12.5598 23.2514 10.7298 23.7745 9.21983C24.3078 7.70983 23.6617 7.30983 23.1694 7.34983C22.6258 7.39983 21.6617 7.88983 21.1489 8.92983C20.6361 9.96983 20.6361 10.6098 20.6361 10.6098C20.6361 10.6098 20.913 10.3098 21.3335 9.99983C21.754 9.67983 22.0719 9.56983 22.0719 9.56983C22.0719 9.56983 22.1437 9.18983 22.3386 8.78983C22.5335 8.39983 22.8309 7.98983 23.2002 7.89983C23.9591 7.69983 23.6104 9.05983 23.0566 9.93983C22.7694 10.4098 21.713 11.7898 20.8002 11.7898C19.8873 11.7898 19.6925 10.9298 19.8873 10.1298C20.0822 9.32983 20.3386 8.29983 21.6514 6.43983C22.9643 4.56983 24.4002 3.45983 25.2309 2.98983C26.0822 2.49983 26.4309 2.70983 26.4309 2.70983C26.4309 2.70983 25.3437 3.36983 24.7284 4.16983C24.1437 4.92983 23.795 5.77983 24.0719 6.19983C24.3386 6.59983 25.2719 6.59983 26.2771 5.14983C27.2822 3.71983 27.0155 2.87983 27.0155 2.87983C27.0155 2.87983 27.1386 2.83983 27.2207 2.82983C27.7047 2.77084 28.0895 2.88582 28.6871 3.17477V2.25638ZM25.2514 4.08983C26.0002 3.26983 26.6463 3.00983 26.6463 3.00983V3.01983C26.6463 3.01983 26.6467 3.02241 26.6475 3.02573C26.6586 3.07611 26.7388 3.43995 26.4309 4.19983C26.154 4.87983 25.7437 5.34983 25.3335 5.70983C24.8104 6.16983 24.5232 6.15983 24.4002 6.06983C24.0719 5.82983 24.5027 4.90983 25.2514 4.08983Z" fill="#F40009"/>
<path fill-rule="evenodd" clip-rule="evenodd" d="M28.6871 7.7635C28.1824 8.63674 27.8463 9.33983 27.8463 9.33983C27.8463 9.33983 27.6617 9.41983 27.4566 9.45983C27.3554 9.47626 27.2959 9.47244 27.2664 9.47056C27.2601 9.47015 27.2551 9.46983 27.2514 9.46983L27.2412 9.45983C27.2412 9.45983 28.2771 7.53983 27.2002 7.29983C26.1643 7.06983 24.3899 8.94983 23.7643 10.2498C23.3335 11.1398 23.0976 12.2598 23.8463 12.5198C24.6668 12.7998 26.0309 11.3398 26.3489 10.9198C26.6668 10.4998 27.0668 9.79983 27.0668 9.79983C27.0668 9.79983 27.2719 9.78983 27.3745 9.76983C27.5899 9.73983 27.6822 9.70983 27.6822 9.70983C27.6822 9.70983 27.5489 10.0498 27.4053 10.4898C27.1489 11.2998 26.913 12.4598 27.8873 12.5098C28.1334 12.5218 28.4253 12.3532 28.6871 12.1465V11.5582C28.6546 11.5653 28.6238 11.5662 28.595 11.5598C28.2568 11.4816 28.4505 10.7629 28.6871 10.1442V7.7635ZM26.1643 9.39983C26.4104 9.59983 26.6668 9.70983 26.6668 9.70983C26.6873 9.71983 26.6976 9.72983 26.6873 9.75983C26.6771 9.79983 26.4002 10.2598 26.113 10.6298C25.8053 11.0198 25.2309 11.6198 24.8822 11.4998C24.3386 11.3098 24.9232 10.1498 25.313 9.58983C25.5946 9.17789 25.6995 9.04277 25.736 8.99573C25.7501 8.97768 25.754 8.9726 25.754 8.96983C25.7561 8.96783 25.7581 8.96543 25.7602 8.96303C25.7684 8.95343 25.7766 8.94383 25.7848 8.95983C25.7863 8.96136 25.7906 8.96809 25.7975 8.9791C25.8357 9.03977 25.9559 9.23055 26.1643 9.39983ZM27.1591 7.79983C27.4361 7.99983 27.313 8.49983 27.2104 8.75983C27.1251 8.97607 26.9972 9.20614 26.9448 9.30047C26.9342 9.31956 26.9267 9.3331 26.9232 9.33983C26.8822 9.39983 26.8617 9.39983 26.7899 9.37983C26.6668 9.34983 26.1437 9.11983 26.1437 8.59983C26.1437 8.08983 26.8719 7.58983 27.1591 7.79983Z" fill="#F40009"/>
<path d="M14.7694 12.1698C15.6822 12.1298 16.6976 12.3698 17.5284 12.9298V12.9098C17.2514 12.5198 16.4617 11.9598 15.8053 11.5698C15.1386 11.1798 14.2771 10.9298 13.3027 10.9298C11.9308 10.9298 10.4916 11.2935 9.16539 11.6286C8.06256 11.9073 7.03788 12.1662 6.19503 12.1798C4.00015 12.2198 3.87708 10.5698 4.03092 9.66983C4.36939 7.71983 5.76426 5.85983 6.66682 4.86983C7.55913 3.88983 8.51298 3.11983 9.30272 2.91983C10.0925 2.71983 10.0207 3.30983 9.92836 3.38983C9.8258 3.38983 9.64118 3.40983 9.52836 3.48983C9.354 3.59983 9.12836 3.81983 9.1181 4.14983C9.10785 4.65983 9.78477 4.74983 10.2668 3.66983C10.595 2.93983 10.0617 2.43983 9.62067 2.39983C9.00528 2.32983 8.08221 2.54983 6.98477 3.24983C5.07708 4.46983 2.52323 7.16983 2.48221 10.1398C2.46169 11.8398 3.60015 12.7798 5.15913 12.7698C5.93191 12.7651 6.80265 12.5465 7.72575 12.3149C8.73838 12.0607 9.81402 11.7908 10.8925 11.7698C12.1643 11.7498 13.0053 12.1798 13.4258 12.8898C13.4258 12.8898 13.8463 12.2098 14.7694 12.1698Z" fill="#F40009"/>
<path d="M18.0743 7.51983H18.0719L18.0822 7.50983C18.0822 7.50983 18.0795 7.51327 18.0743 7.51983Z" fill="#F40009"/>
<path fill-rule="evenodd" clip-rule="evenodd" d="M18.4514 7.51983H18.0743C17.9812 7.63673 17.0936 8.74364 16.6566 8.98983C16.195 9.24983 16.3591 8.79983 16.4822 8.59983C16.6463 8.33983 18.6771 4.96983 18.6771 4.96983H17.5796L17.4566 5.16983C17.4566 5.16983 17.2309 4.82983 16.8514 4.85983C15.754 4.93983 14.4617 6.64983 13.8976 7.40983C13.3232 8.16983 12.1027 9.60983 11.4463 9.35983C10.7284 9.08983 11.4258 7.80983 11.8873 7.04983C12.3899 6.22983 13.2822 5.40983 13.6412 5.39983C14.0719 5.38983 13.9078 5.77983 13.9078 5.77983C13.9078 5.77983 13.5796 5.74983 13.3437 6.03983C13.1796 6.24983 13.0361 6.54983 13.2002 6.70983C13.4566 6.96983 13.795 6.69983 13.9899 6.39983C14.6053 5.45983 14.1437 4.97983 13.6514 4.90983C12.9058 4.81005 12.2071 5.45186 11.6036 6.00627C11.3603 6.22976 11.1324 6.43905 10.9232 6.57983C10.4207 6.91983 10.2053 6.89983 10.2053 6.89983C10.2053 6.89983 11.0668 5.20983 10.0002 4.94983C8.93349 4.69983 7.20016 6.46983 6.47195 7.89983C6.02067 8.77983 5.83605 9.88983 6.64631 10.1698C7.46682 10.4498 8.83092 8.98983 9.14887 8.56983C9.46682 8.14983 9.9899 7.29983 9.9899 7.29983C9.9899 7.29983 10.154 7.25983 10.2566 7.23983C10.3591 7.21983 10.5335 7.16983 10.5335 7.16983C10.5335 7.16983 10.3386 7.51983 10.1643 7.87983C9.95913 8.29983 9.38477 9.70983 10.513 10.1198C11.4225 10.4492 12.6392 9.29503 13.045 8.91013C13.1197 8.83928 13.1669 8.79449 13.1796 8.78983C13.1796 8.78983 12.7386 9.93983 13.4463 10.1098C14.2155 10.2898 15.0566 9.31983 15.0566 9.31983C15.0566 9.31983 14.8822 10.0498 15.4873 10.1098C16.5643 10.2298 18.4514 7.51983 18.4514 7.51983ZM9.01554 6.98983C9.28221 7.15983 9.57964 7.23983 9.57964 7.23983V7.21983C9.60015 7.22983 9.61041 7.23983 9.60015 7.26983C9.5899 7.30983 9.24118 7.86983 8.954 8.23983C8.63605 8.63983 8.06169 9.23983 7.71298 9.11983C7.16939 8.92983 7.73349 7.77983 8.12323 7.21983C8.50272 6.65983 8.56426 6.57983 8.57451 6.56983C8.58477 6.55983 8.60528 6.53983 8.60528 6.55983C8.61554 6.57983 8.74887 6.81983 9.01554 6.98983ZM8.98477 6.22983C8.98477 5.71983 9.71298 5.21983 10.0002 5.42983H9.9899C10.2668 5.62983 10.1437 6.12983 10.0412 6.38983C9.93862 6.64983 9.85656 6.80983 9.83605 6.84983C9.80528 6.90983 9.73349 6.88983 9.73349 6.88983C9.65144 6.88983 8.98477 6.74983 8.98477 6.22983ZM17.2412 5.49983C17.2412 5.49983 16.0412 7.57983 15.6002 8.17983V8.16983C15.556 8.22821 15.5148 8.28469 15.4756 8.33842C15.3872 8.45957 15.3091 8.5667 15.2309 8.64983C14.995 8.91983 14.8309 9.04983 14.6976 9.07983C14.6361 9.09983 14.5437 9.08983 14.4925 9.05983C14.2873 8.94983 14.4412 8.50983 14.7796 7.88983C15.0873 7.32983 15.5181 6.77983 16.0719 6.08983C16.6258 5.39983 16.913 5.34983 17.0771 5.34983C17.2207 5.34983 17.2412 5.49983 17.2412 5.49983Z" fill="#F40009"/>
<path d="M19.4566 4.91983H20.4925L19.9181 5.85983H18.8719L19.4566 4.91983Z" fill="#F40009"/>
<path fill-rule="evenodd" clip-rule="evenodd" d="M3.9284 17.1399C3.9284 16.1835 4.73205 15.3999 5.71301 15.3999C6.69397 15.3999 7.49763 16.1835 7.49763 17.1399C7.49763 18.0964 6.69397 18.8799 5.71301 18.8799C4.73205 18.8799 3.9284 18.0964 3.9284 17.1399ZM5.71301 16.2199C5.19654 16.2199 4.76942 16.6364 4.76942 17.1399C4.76942 17.6435 5.19654 18.0599 5.71301 18.0599C6.22949 18.0599 6.6566 17.6435 6.6566 17.1399C6.6566 16.6364 6.22949 16.2199 5.71301 16.2199Z" fill="white"/>
<path fill-rule="evenodd" clip-rule="evenodd" d="M29.8976 17.1399C29.8976 16.1835 30.7012 15.3999 31.6822 15.3999C32.6631 15.3999 33.4668 16.1835 33.4668 17.1399C33.4668 18.0964 32.6631 18.8799 31.6822 18.8799C30.7012 18.8799 29.8976 18.0964 29.8976 17.1399ZM31.6822 16.2199C31.1657 16.2199 30.7386 16.6364 30.7386 17.1399C30.7386 17.6435 31.1657 18.0599 31.6822 18.0599C32.1987 18.0599 32.6258 17.6435 32.6258 17.1399C32.6258 16.6364 32.1987 16.2199 31.6822 16.2199Z" fill="white"/>
<path fill-rule="evenodd" clip-rule="evenodd" d="M29.5284 2.00993V4.17994H32.8924C33.4886 4.17994 34.0048 4.5344 34.2322 5.0472L34.235 5.0536L36.0749 9.4033C37.6506 9.75392 38.853 11.054 39.0169 12.6549H39.1898C39.5779 12.6549 39.8924 12.9616 39.8924 13.3399V15.5099C39.8924 15.8882 39.5779 16.1949 39.1898 16.1949H38.844C38.6172 16.5511 38.2123 16.7899 37.7539 16.7899H37.3334V16.7799H35.6963C35.7074 16.8985 35.713 17.0186 35.713 17.1399C35.713 19.3104 33.9084 21.0699 31.6822 21.0699C29.4561 21.0699 27.6515 19.3104 27.6515 17.1399C27.6515 17.0186 27.6571 16.8985 27.6682 16.7799H9.72703C9.73808 16.8985 9.74372 17.0186 9.74372 17.1399C9.74372 19.3104 7.93908 21.0699 5.71295 21.0699C3.48682 21.0699 1.68218 19.3104 1.68218 17.1399C1.68218 16.9554 1.69522 16.7739 1.72045 16.5962C1.56631 16.4949 1.43972 16.3569 1.35391 16.1949H1.11809C0.730078 16.1949 0.415527 15.8882 0.415527 15.5099V13.3399C0.415527 12.9616 0.730078 12.6549 1.11809 12.6549H1.23096V2.00993C1.23096 1.41349 1.72692 0.929932 2.33865 0.929932H28.4207C29.0324 0.929932 29.5284 1.41349 29.5284 2.00993ZM2.07198 2.00993C2.07198 1.86637 2.19141 1.74993 2.33865 1.74993H28.4207C28.5679 1.74993 28.6874 1.86637 28.6874 2.00993V10.5436L28.6873 10.5599V14.5097C28.3051 14.9231 28.0117 15.416 27.8363 15.9599H9.55886C9.04492 14.366 7.5174 13.2099 5.71295 13.2099C4.406 13.2099 3.24433 13.8164 2.50784 14.7565V13.3399C2.50784 13.0537 2.32773 12.8084 2.07198 12.706V2.00993ZM38.1795 12.7316C37.9541 12.8456 37.8001 13.0752 37.8001 13.3399V15.5099C37.8001 15.6665 37.854 15.8109 37.9447 15.9262C37.9138 15.9411 37.881 15.9525 37.8469 15.9599H35.5282C35.0142 14.366 33.4867 13.2099 31.6822 13.2099C30.8902 13.2099 30.1514 13.4327 29.5284 13.8175V10.5503C29.5336 10.3155 29.7281 10.1315 29.9663 10.1299H35.2283C36.7662 10.1337 38.0269 11.271 38.1795 12.7316ZM29.5284 4.99994V9.30994H29.9643L29.9693 9.30993L35.1256 9.30994L33.459 5.36987C33.3577 5.14429 33.1362 4.99994 32.8924 4.99994H29.5284ZM2.5232 17.1399C2.5232 15.4223 3.9513 14.0299 5.71295 14.0299C7.4746 14.0299 8.90269 15.4223 8.90269 17.1399C8.90269 18.8575 7.47459 20.2499 5.71295 20.2499C3.9513 20.2499 2.5232 18.8575 2.5232 17.1399ZM28.4925 17.1399C28.4925 15.4223 29.9206 14.0299 31.6822 14.0299C33.4439 14.0299 34.872 15.4223 34.872 17.1399C34.872 18.8575 33.4439 20.2499 31.6822 20.2499C29.9206 20.2499 28.4925 18.8575 28.4925 17.1399ZM1.20527 15.4249V13.4249H1.71809V15.4249H1.20527ZM39.1027 15.4249H38.5898V13.4249H39.1027V15.4249Z" fill="white"/>
</g>
<defs>
<clipPath id="clip0_101_19519">
<rect width="40" height="22" fill="white"/>
</clipPath>
</defs>
</svg>
