<svg width="9" height="40" viewBox="0 0 9 40" fill="none" xmlns="http://www.w3.org/2000/svg">
<path d="M4.17464 40C2.69464 40 1.08464 39.6876 0.594644 39.3326C-0.215356 38.7221 0.0146445 36.3651 0.244645 35.4421C0.404644 34.789 0.754645 33.6815 0.754645 31.367C0.754645 28.8822 0.134645 24.083 0.104645 23.7848C0.0546445 23.2878 -0.0353555 22.7909 0.174645 22.6773C-0.0753555 22.4359 0.124644 16.302 0.564644 16.0748C0.344644 16.0748 0.424645 15.3932 0.464645 14.9105C0.554645 14.0443 1.13464 11.9997 1.63464 9.78465C1.85464 8.79072 2.20464 7.29984 2.31464 6.19232C2.42464 5.16999 2.39464 3.84949 2.39464 3.28153C2.24464 3.08274 2.18464 2.99755 2.19464 2.68518C2.19464 2.3586 2.51464 1.57765 2.51464 1.47826C2.51464 1.37887 2.51464 1.23688 2.40464 1.09489C2.28464 0.952902 2.29464 0.697321 2.34464 0.484336C2.40464 0.228756 2.64464 0.157758 2.78464 0.115161C2.90464 0.0725641 3.53464 -0.0126213 4.17464 0.00157761C4.81464 0.00157761 5.44464 0.086763 5.56464 0.115161C5.70464 0.157758 5.93464 0.228756 6.00464 0.484336C6.05464 0.697321 6.06464 0.952902 5.94464 1.09489C5.83464 1.22268 5.83464 1.36467 5.83464 1.47826C5.83464 1.59185 6.14464 2.3728 6.15464 2.68518C6.15464 2.99755 6.10464 3.08274 5.95464 3.28153C5.95464 3.84949 5.93464 5.15579 6.03464 6.19232C6.14464 7.29984 6.49464 8.79072 6.72464 9.78465C7.22464 11.9997 7.80464 14.0443 7.89464 14.9105C7.94464 15.379 8.02464 16.0748 7.79464 16.0748C8.23464 16.3162 8.43464 22.4359 8.18464 22.6773C8.39464 22.7909 8.29464 23.2878 8.25464 23.7848C8.22464 24.083 7.60464 28.8822 7.60464 31.367C7.60464 33.6815 7.95464 34.789 8.11464 35.4421C8.33464 36.3651 8.57465 38.7363 7.76464 39.3326C7.27464 39.7018 5.66464 40 4.18464 40" fill="#F40009"/>
</svg>
