<svg width="39" height="40" viewBox="0 0 39 40" fill="none" xmlns="http://www.w3.org/2000/svg">
<g clip-path="url(#clip0_101_19458)">
<mask id="path-1-outside-1_101_19458" maskUnits="userSpaceOnUse" x="13.8091" y="10.843" width="8" height="22" fill="black">
<rect fill="white" x="13.8091" y="10.843" width="8" height="22"/>
<path d="M17.4236 31.7294C18.3636 31.7294 19.3836 31.5746 19.6936 31.399C20.2036 31.0996 20.0536 29.9225 19.9136 29.4579C19.8136 29.1275 19.5936 28.5802 19.5936 27.4238C19.5936 26.1848 19.9836 23.7997 20.0036 23.6551C20.0336 23.4073 20.0936 23.1595 19.9636 23.1079C20.1236 22.984 19.9936 19.938 19.7136 19.8244C19.8536 19.8244 19.8036 19.4837 19.7736 19.2462C19.7236 18.8126 19.3536 17.8007 19.0336 16.6959C18.8936 16.2003 18.6736 15.4672 18.6036 14.9096C18.5336 14.4037 18.5436 13.7429 18.5436 13.4641C18.6436 13.3712 18.6736 13.3195 18.6736 13.175C18.6736 13.0098 18.4736 12.6277 18.4736 12.5761C18.4736 12.5245 18.4736 12.4522 18.5436 12.3903C18.6236 12.318 18.6136 12.1941 18.5836 12.0908C18.5436 11.9669 18.3936 11.9256 18.3036 11.905C18.2236 11.8843 17.8336 11.843 17.4236 11.843C17.0136 11.843 16.6236 11.8843 16.5436 11.905C16.4536 11.9256 16.3036 11.9669 16.2636 12.0908C16.2336 12.1941 16.2236 12.318 16.3036 12.3903C16.3736 12.4522 16.3736 12.5245 16.3736 12.5761C16.3736 12.6277 16.1736 13.0201 16.1736 13.175C16.1736 13.3299 16.2036 13.3712 16.3036 13.4744C16.3036 13.7532 16.3236 14.4037 16.2536 14.9199C16.1836 15.4775 15.9636 16.2106 15.8136 16.7062C15.5036 17.811 15.1336 18.8229 15.0736 19.2565C15.0436 19.494 14.9936 19.8348 15.1336 19.8348C14.8536 19.9483 14.7236 23.0046 14.8936 23.1182C14.7636 23.1698 14.8236 23.4176 14.8536 23.6654C14.8736 23.81 15.2636 26.2054 15.2636 27.4445C15.2636 28.5906 15.0436 29.1481 14.9436 29.4785C14.8036 29.9432 14.6536 31.1099 15.1636 31.4197C15.4736 31.5952 16.4936 31.7501 17.4336 31.7501"/>
</mask>
<path d="M19.6936 31.399L20.1863 32.2692L20.1931 32.2654L20.1999 32.2614L19.6936 31.399ZM19.9136 29.4579L20.871 29.1694L20.8707 29.1682L19.9136 29.4579ZM20.0036 23.6551L20.9941 23.7921L20.9953 23.7837L20.9963 23.7753L20.0036 23.6551ZM19.9636 23.1079L19.3513 22.3172L17.9655 23.3904L19.5945 24.0373L19.9636 23.1079ZM19.7136 19.8244V18.8244H14.5879L19.3377 20.7511L19.7136 19.8244ZM19.7736 19.2462L18.7801 19.3608L18.7814 19.3715L19.7736 19.2462ZM19.0336 16.6959L18.0712 16.9677L18.073 16.9741L19.0336 16.6959ZM18.6036 14.9096L19.5958 14.785L19.5941 14.7726L18.6036 14.9096ZM18.5436 13.4641L17.8628 12.7315L17.5436 13.0282V13.4641H18.5436ZM18.5436 12.3903L19.2063 13.1391L19.2139 13.1323L18.5436 12.3903ZM18.5836 12.0908L19.5438 11.8118L19.5397 11.7976L19.5352 11.7836L18.5836 12.0908ZM18.3036 11.905L18.0536 12.8732L18.0667 12.8766L18.0799 12.8796L18.3036 11.905ZM16.5436 11.905L16.7672 12.8796L16.7804 12.8766L16.7935 12.8732L16.5436 11.905ZM16.2636 12.0908L15.3119 11.7836L15.3074 11.7976L15.3033 11.8118L16.2636 12.0908ZM16.3036 12.3903L15.6331 13.1323L15.6408 13.1391L16.3036 12.3903ZM16.3036 13.4744H17.3036V13.0695L17.0219 12.7787L16.3036 13.4744ZM16.2536 14.9199L15.2626 14.7856L15.2613 14.7954L16.2536 14.9199ZM15.8136 16.7062L14.8564 16.4165L14.8535 16.4263L14.8507 16.436L15.8136 16.7062ZM15.0736 19.2565L14.0829 19.1195L14.0814 19.1312L15.0736 19.2565ZM15.1336 19.8348L15.5094 20.7614L20.2592 18.8348H15.1336V19.8348ZM14.8936 23.1182L15.2626 24.0476L17.0326 23.3447L15.4491 22.2867L14.8936 23.1182ZM14.8536 23.6654L13.8608 23.7856L13.8618 23.7941L13.863 23.8025L14.8536 23.6654ZM14.9436 29.4785L13.9864 29.1889L13.9861 29.19L14.9436 29.4785ZM15.1636 31.4197L14.6444 32.2744L14.6575 32.2823L14.6708 32.2899L15.1636 31.4197ZM17.4236 32.7294C17.9435 32.7294 18.4823 32.687 18.9407 32.6194C19.17 32.5855 19.3912 32.5437 19.5871 32.4938C19.7637 32.4488 19.9902 32.3803 20.1863 32.2692L19.2008 30.5288C19.2419 30.5056 19.2246 30.5222 19.0934 30.5557C18.9815 30.5842 18.8308 30.6139 18.6489 30.6408C18.2848 30.6945 17.8436 30.7294 17.4236 30.7294V32.7294ZM20.1999 32.2614C20.6032 32.0246 20.806 31.6548 20.9074 31.3628C21.0093 31.0694 21.0414 30.7665 21.0471 30.5129C21.0584 30.0088 20.9687 29.4934 20.871 29.1694L18.9561 29.7464C18.9984 29.887 19.0537 30.1925 19.0476 30.468C19.0445 30.6041 19.0272 30.6806 19.0181 30.7067C19.0086 30.7341 19.0389 30.6238 19.1872 30.5367L20.1999 32.2614ZM20.8707 29.1682C20.7713 28.84 20.5936 28.4182 20.5936 27.4238H18.5936C18.5936 28.7422 18.8558 29.415 18.9564 29.7476L20.8707 29.1682ZM20.5936 27.4238C20.5936 26.2759 20.9644 24.0066 20.9941 23.7921L19.013 23.518C19.013 23.5179 19.0116 23.5272 19.0073 23.5556C19.0034 23.5811 18.9983 23.6134 18.9919 23.6551C18.9792 23.7374 18.9621 23.849 18.9421 23.9828C18.9021 24.2502 18.8505 24.6073 18.7994 25.0001C18.6995 25.7684 18.5936 26.7324 18.5936 27.4238H20.5936ZM20.9963 23.7753C20.9998 23.7466 21.0392 23.4942 21.0432 23.3331C21.0456 23.2389 21.0442 23.0514 20.9713 22.846C20.8858 22.6049 20.6912 22.3208 20.3326 22.1785L19.5945 24.0373C19.4644 23.9856 19.3469 23.9032 19.2533 23.7969C19.1633 23.6947 19.1137 23.5915 19.0864 23.5146C19.0597 23.4394 19.0506 23.3787 19.047 23.3455C19.0433 23.3112 19.0437 23.2884 19.0439 23.2828C19.044 23.276 19.044 23.2874 19.0369 23.3408C19.033 23.3705 19.0186 23.4701 19.0108 23.5349L20.9963 23.7753ZM20.5758 23.8985C20.7636 23.7531 20.8509 23.5806 20.882 23.5148C20.9214 23.4314 20.9438 23.3567 20.9564 23.3094C20.982 23.2135 20.9954 23.1206 21.0034 23.0526C21.0201 22.9101 21.028 22.7434 21.0312 22.578C21.0378 22.2404 21.0267 21.8171 21.0018 21.4023C20.977 20.99 20.9369 20.558 20.8804 20.2084C20.8529 20.0384 20.8162 19.8535 20.7642 19.6898C20.7389 19.6106 20.6983 19.498 20.633 19.3834C20.5882 19.3048 20.4296 19.0357 20.0894 18.8978L19.3377 20.7511C19.0325 20.6273 18.9077 20.3954 18.8955 20.374C18.8628 20.3165 18.8535 20.2811 18.8583 20.2963C18.8663 20.3214 18.8845 20.394 18.9061 20.5276C18.9477 20.7849 18.9826 21.1434 19.0053 21.5222C19.0279 21.8986 19.0369 22.2671 19.0316 22.539C19.0288 22.6784 19.0227 22.7709 19.0171 22.8191C19.0139 22.8465 19.0139 22.8318 19.0239 22.7942C19.0288 22.776 19.0429 22.7255 19.0734 22.6609C19.0956 22.6139 19.1735 22.4549 19.3513 22.3172L20.5758 23.8985ZM19.7136 20.8244C19.9521 20.8244 20.1924 20.7454 20.3902 20.5838C20.571 20.4361 20.6644 20.2624 20.7123 20.1449C20.8001 19.9294 20.8063 19.7244 20.8072 19.6353C20.8094 19.4345 20.7763 19.2054 20.7657 19.1209L18.7814 19.3715C18.7901 19.4399 18.7966 19.4887 18.8018 19.539C18.8042 19.5623 18.8057 19.5805 18.8065 19.5947C18.8074 19.6093 18.8073 19.6149 18.8074 19.6135C18.8074 19.6133 18.8074 19.5955 18.8116 19.5655C18.8153 19.5389 18.8262 19.4734 18.8602 19.3901C18.8935 19.3082 18.9681 19.163 19.1249 19.0349C19.2988 18.8928 19.51 18.8244 19.7136 18.8244V20.8244ZM20.767 19.1317C20.7288 18.801 20.5884 18.3389 20.4595 17.9252C20.3157 17.4635 20.1504 16.9573 19.9941 16.4177L18.073 16.9741C18.2367 17.5393 18.4164 18.0914 18.5501 18.5202C18.6987 18.9971 18.7683 19.2578 18.7801 19.3608L20.767 19.1317ZM19.9959 16.424C19.8439 15.8859 19.6538 15.2475 19.5958 14.785L17.6113 15.0342C17.6933 15.6868 17.9432 16.5147 18.0712 16.9677L19.9959 16.424ZM19.5941 14.7726C19.5359 14.3521 19.5436 13.7768 19.5436 13.4641H17.5436C17.5436 13.7089 17.5312 14.4552 17.613 15.0467L19.5941 14.7726ZM19.2243 14.1966C19.291 14.1346 19.4451 13.9899 19.5512 13.7639C19.6624 13.5273 19.6736 13.3071 19.6736 13.175H17.6736C17.6736 13.1874 17.6697 13.0653 17.7409 12.9138C17.807 12.773 17.8961 12.7006 17.8628 12.7315L19.2243 14.1966ZM19.6736 13.175C19.6736 13.0615 19.6574 12.9646 19.6441 12.9008C19.63 12.8326 19.6124 12.7706 19.5966 12.72C19.5653 12.6203 19.528 12.5251 19.4995 12.4553C19.4847 12.4189 19.4702 12.3846 19.4584 12.3564C19.4455 12.326 19.437 12.3058 19.4298 12.2883C19.4218 12.2687 19.4226 12.2698 19.4266 12.2811C19.4285 12.2866 19.436 12.3083 19.4441 12.3396C19.4482 12.3557 19.4545 12.3821 19.4602 12.4155C19.4653 12.4457 19.4736 12.503 19.4736 12.5761H17.4736C17.4736 12.6524 17.4822 12.7136 17.4881 12.7483C17.4945 12.7862 17.5019 12.8177 17.5075 12.8395C17.5185 12.8821 17.5304 12.9175 17.5377 12.9387C17.5526 12.9814 17.5691 13.0221 17.5798 13.0481C17.5914 13.0763 17.6047 13.1078 17.6153 13.133C17.6269 13.1605 17.6374 13.1857 17.6476 13.2106C17.6691 13.2634 17.6818 13.298 17.688 13.3179C17.6909 13.3272 17.689 13.3225 17.6858 13.3071C17.6835 13.2959 17.6736 13.2471 17.6736 13.175H19.6736ZM19.4736 12.5761C19.4736 12.5406 19.4781 12.6357 19.4474 12.7488C19.4096 12.8883 19.3299 13.0297 19.2063 13.1391L17.8808 11.6414C17.4541 12.0191 17.4736 12.5093 17.4736 12.5761H19.4736ZM19.2139 13.1323C19.5003 12.8736 19.5863 12.549 19.6023 12.3228C19.6175 12.108 19.5767 11.9249 19.5438 11.8118L17.6233 12.3698C17.6204 12.36 17.5996 12.2904 17.6073 12.1815C17.6158 12.0611 17.6668 11.8347 17.8732 11.6482L19.2139 13.1323ZM19.5352 11.7836C19.4052 11.3808 19.1102 11.1705 18.9294 11.075C18.7527 10.9816 18.5837 10.9433 18.5272 10.9303L18.0799 12.8796C18.1134 12.8873 18.0644 12.8799 17.9952 12.8434C17.9219 12.8047 17.722 12.6769 17.6319 12.398L19.5352 11.7836ZM18.5535 10.9367C18.4166 10.9014 18.2133 10.8813 18.0683 10.8695C17.8873 10.8548 17.6599 10.843 17.4236 10.843V12.843C17.5972 12.843 17.7698 12.8519 17.9063 12.863C17.9743 12.8685 18.0287 12.8742 18.066 12.8789C18.0847 12.8812 18.0955 12.8828 18.0993 12.8834C18.1091 12.885 18.0883 12.8822 18.0536 12.8732L18.5535 10.9367ZM17.4236 10.843C17.1872 10.843 16.9598 10.8548 16.7788 10.8695C16.6338 10.8813 16.4305 10.9014 16.2936 10.9367L16.7935 12.8732C16.7588 12.8822 16.738 12.885 16.7478 12.8834C16.7516 12.8828 16.7624 12.8812 16.7812 12.8789C16.8184 12.8742 16.8728 12.8685 16.9408 12.863C17.0773 12.8519 17.2499 12.843 17.4236 12.843V10.843ZM16.3199 10.9303C16.2634 10.9433 16.0944 10.9816 15.9177 11.075C15.7369 11.1705 15.442 11.3808 15.3119 11.7836L17.2152 12.398C17.1252 12.6769 16.9252 12.8047 16.8519 12.8434C16.7827 12.8799 16.7337 12.8873 16.7672 12.8796L16.3199 10.9303ZM15.3033 11.8118C15.2704 11.9249 15.2296 12.108 15.2448 12.3228C15.2608 12.549 15.3468 12.8736 15.6332 13.1323L16.9739 11.6482C17.1803 11.8347 17.2313 12.0611 17.2398 12.1815C17.2475 12.2904 17.2267 12.36 17.2238 12.3698L15.3033 11.8118ZM15.6408 13.1391C15.5172 13.0297 15.4375 12.8883 15.3997 12.7488C15.369 12.6357 15.3736 12.5406 15.3736 12.5761H17.3736C17.3736 12.5093 17.393 12.0191 16.9663 11.6414L15.6408 13.1391ZM15.3736 12.5761C15.3736 12.5033 15.3818 12.4463 15.3867 12.4169C15.3922 12.3841 15.3983 12.3583 15.4023 12.3427C15.41 12.3123 15.4172 12.2914 15.4189 12.2864C15.4225 12.2759 15.423 12.2756 15.415 12.2955C15.4079 12.313 15.3992 12.3339 15.3867 12.3641C15.375 12.3923 15.3608 12.4266 15.3462 12.4626C15.3183 12.5317 15.2818 12.6253 15.2512 12.7222C15.2358 12.7712 15.2183 12.8318 15.2041 12.8984C15.1911 12.9594 15.1736 13.0582 15.1736 13.175H17.1736C17.1736 13.253 17.1622 13.3057 17.1602 13.3154C17.1569 13.3307 17.1551 13.3348 17.1584 13.3245C17.1653 13.3026 17.1788 13.2659 17.2009 13.211C17.2113 13.1851 17.2221 13.1591 17.2339 13.1308C17.2448 13.1046 17.258 13.0728 17.2696 13.0439C17.2804 13.0173 17.2965 12.9767 17.311 12.9342C17.3182 12.9133 17.3297 12.8785 17.3403 12.8366C17.3458 12.8152 17.353 12.7843 17.3593 12.747C17.365 12.713 17.3736 12.6521 17.3736 12.5761H15.3736ZM15.1736 13.175C15.1736 13.3057 15.1831 13.529 15.2959 13.7691C15.3968 13.984 15.5476 14.1313 15.5852 14.1701L17.0219 12.7787C16.9978 12.7538 17.0044 12.7595 17.0178 12.776C17.0358 12.7983 17.0725 12.8472 17.1062 12.919C17.179 13.0739 17.1736 13.1991 17.1736 13.175H15.1736ZM15.3036 13.4744C15.3036 13.807 15.3208 14.3565 15.2626 14.7856L17.2445 15.0543C17.3263 14.4509 17.3036 13.6994 17.3036 13.4744H15.3036ZM15.2613 14.7954C15.204 15.252 15.0133 15.8984 14.8564 16.4165L16.7707 16.9959C16.9138 16.5228 17.1631 15.703 17.2458 15.0445L15.2613 14.7954ZM14.8507 16.436C14.7008 16.9706 14.5372 17.4795 14.3951 17.9356C14.2663 18.3489 14.1269 18.8019 14.083 19.1195L16.0641 19.3936C16.0802 19.2776 16.1558 19.0077 16.3045 18.5305C16.4399 18.096 16.6164 17.5466 16.7764 16.9764L14.8507 16.436ZM14.0814 19.1312C14.0708 19.2157 14.0377 19.4448 14.0399 19.6456C14.0408 19.7348 14.047 19.9398 14.1349 20.1552C14.1827 20.2727 14.2761 20.4464 14.4569 20.5941C14.6547 20.7557 14.8951 20.8348 15.1336 20.8348V18.8348C15.3371 18.8348 15.5483 18.9032 15.7222 19.0452C15.879 19.1733 15.9536 19.3185 15.9869 19.4004C16.0209 19.4838 16.0318 19.5493 16.0355 19.5758C16.0397 19.6058 16.0397 19.6237 16.0397 19.6238C16.0398 19.6252 16.0397 19.6196 16.0406 19.605C16.0414 19.5909 16.0429 19.5726 16.0453 19.5494C16.0505 19.499 16.057 19.4502 16.0657 19.3819L14.0814 19.1312ZM14.7577 18.9081C14.4166 19.0464 14.258 19.3166 14.2135 19.3948C14.1484 19.5095 14.1078 19.6222 14.0827 19.7015C14.0307 19.8654 13.9941 20.0506 13.9667 20.221C13.9103 20.5716 13.8706 21.0047 13.8465 21.4182C13.8222 21.8339 13.8121 22.2586 13.8202 22.5973C13.8242 22.763 13.8331 22.9317 13.8517 23.0766C13.8606 23.1455 13.8757 23.2422 13.9048 23.3426C13.9192 23.3922 13.9452 23.4716 13.9909 23.5597C14.0282 23.6315 14.129 23.81 14.338 23.9497L15.4491 22.2867C15.6475 22.4193 15.7383 22.5849 15.7661 22.6385C15.8023 22.7083 15.8194 22.7641 15.8255 22.785C15.838 22.8281 15.8387 22.8475 15.8354 22.8217C15.8297 22.7773 15.823 22.6877 15.8197 22.5491C15.8132 22.2793 15.8211 21.9115 15.8431 21.5347C15.8652 21.1558 15.8999 20.7964 15.9413 20.5384C15.9629 20.4046 15.981 20.3315 15.9891 20.3061C15.994 20.2907 15.9848 20.326 15.9521 20.3834C15.9402 20.4043 15.8155 20.6373 15.5094 20.7614L14.7577 18.9081ZM14.5245 22.1888C14.1659 22.3312 13.9713 22.6152 13.8858 22.8564C13.8129 23.0618 13.8115 23.2492 13.8139 23.3434C13.8179 23.5045 13.8573 23.7569 13.8608 23.7856L15.8463 23.5452C15.8385 23.4805 15.8241 23.3808 15.8202 23.3511C15.8131 23.2978 15.8131 23.2863 15.8132 23.2931C15.8134 23.2987 15.8138 23.3215 15.8101 23.3558C15.8065 23.389 15.7974 23.4497 15.7707 23.5249C15.7434 23.6018 15.6938 23.705 15.6038 23.8072C15.5102 23.9135 15.3927 23.9959 15.2626 24.0476L14.5245 22.1888ZM13.863 23.8025C13.8925 24.0159 14.2636 26.2965 14.2636 27.4445H16.2636C16.2636 26.7533 16.1576 25.7867 16.0578 25.016C16.0067 24.622 15.9551 24.2636 15.9151 23.9953C15.8951 23.861 15.878 23.749 15.8653 23.6664C15.8588 23.6244 15.8538 23.5921 15.8499 23.5665C15.848 23.5539 15.8465 23.5441 15.8454 23.5368C15.8441 23.5284 15.8439 23.5267 15.8441 23.5284L13.863 23.8025ZM14.2636 27.4445C14.2636 28.4292 14.0853 28.8621 13.9864 29.1889L15.9007 29.7682C16.0018 29.4342 16.2636 28.7519 16.2636 27.4445H14.2636ZM13.9861 29.19C13.8887 29.5132 13.7987 30.026 13.8101 30.5297C13.8158 30.7833 13.8479 31.0853 13.9494 31.3782C14.0505 31.6703 14.2505 32.0351 14.6444 32.2744L15.6827 30.565C15.8216 30.6494 15.8491 30.7522 15.8393 30.7239C15.8298 30.6964 15.8126 30.6196 15.8095 30.4847C15.8034 30.2114 15.8584 29.9085 15.901 29.767L13.9861 29.19ZM14.6708 32.2899C14.8669 32.4009 15.0934 32.4694 15.27 32.5144C15.4659 32.5643 15.6871 32.6062 15.9164 32.64C16.3748 32.7076 16.9136 32.7501 17.4336 32.7501V30.7501C17.0135 30.7501 16.5723 30.7151 16.2082 30.6614C16.0263 30.6346 15.8756 30.6048 15.7637 30.5763C15.6325 30.5429 15.6152 30.5262 15.6563 30.5495L14.6708 32.2899Z" fill="white" mask="url(#path-1-outside-1_101_19458)"/>
<path d="M3.90346 31.6469L3.04346 36.7682M3.90346 31.6469L8.82346 32.5348M33.2135 28.3634L38.0935 27.0624M33.2135 28.3634L31.9635 23.3763M18.6535 4.24366L15.0935 0.567871M18.6535 4.24366L15.1235 7.88847M4.52346 32.5968C14.1735 44.6773 26.6835 37.7388 29.7835 34.4347M33.8835 27.3206C34.3835 25.6479 34.6635 23.8616 34.6635 22.0134C34.6635 14.9096 30.6435 8.77644 24.8435 5.937M17.5535 4.25398C8.86346 4.50179 -0.506537 11.3061 1.12346 25.4517" stroke="#57BC72" stroke-width="1.11" stroke-miterlimit="10" stroke-linecap="round"/>
</g>
<defs>
<clipPath id="clip0_101_19458">
<rect width="38.25" height="40" fill="white" transform="translate(0.383545)"/>
</clipPath>
</defs>
</svg>
