<svg width="38" height="40" viewBox="0 0 38 40" fill="none" xmlns="http://www.w3.org/2000/svg">
<g clip-path="url(#clip0_101_19499)">
<path d="M18.8478 9.0479C20.5378 12.9352 22.3378 16.7775 23.8878 20.7437C25.0678 23.7521 24.2578 26.5465 21.9878 28.5183C19.9178 30.3211 17.0378 30.3211 14.9478 28.5183C12.6378 26.5127 11.8378 23.8085 13.0278 20.7775C14.5978 16.7775 16.4178 12.8902 18.1278 8.95776C18.3678 8.99157 18.6078 9.02537 18.8378 9.0479H18.8478Z" stroke="#69C9CE" stroke-linecap="round" stroke-linejoin="round"/>
<path d="M29.4377 34.8731C26.4277 37.5886 22.6077 39.2111 18.4577 39.2111C12.8577 39.2111 7.87771 36.259 4.65771 31.6731" stroke="#F40009" stroke-linecap="round" stroke-linejoin="round"/>
<path d="M7.36793 30.7042L2.62793 28.0225L2.93793 33.983L7.36793 30.7042Z" fill="#F40009"/>
<path d="M24.4277 0.788818C31.1877 3.53811 36.0277 10.8395 36.0277 19.4142C36.0277 21.8029 35.6577 24.0902 34.9677 26.1973C34.8977 26.4114 34.8277 26.6254 34.7477 26.8395" stroke="#F40009" stroke-linecap="round" stroke-linejoin="round"/>
<path d="M32.6875 24.6536L32.9375 30.6254L37.4075 27.4029L32.6875 24.6536Z" fill="#F40009"/>
<path d="M0.887695 19.4142C0.887695 12.4508 4.0777 6.32119 8.9077 2.79443" stroke="#F40009" stroke-linecap="round" stroke-linejoin="round"/>
<path d="M9.52758 5.938L12.3176 0.856307L7.01758 0.676025L9.52758 5.938Z" fill="#F40009"/>
</g>
<defs>
<clipPath id="clip0_101_19499">
<rect width="37.22" height="40" fill="white" transform="translate(0.1875)"/>
</clipPath>
</defs>
</svg>
