<svg width="9" height="40" viewBox="0 0 9 40" fill="none" xmlns="http://www.w3.org/2000/svg">
<path d="M4.45683 40C6.48683 40 7.58683 39.6737 8.09683 38.6946C8.24683 38.3967 8.43684 36.9352 8.36684 35.4738C8.34684 35.0055 8.29684 34.6366 8.22684 34.2251L8.19684 34.0974C8.10684 33.7427 8.03685 33.8279 7.98685 33.6718C7.94685 33.5157 8.01684 33.388 7.99684 33.2461C7.91684 32.7921 7.82684 32.3948 7.82684 31.8982C7.81684 31.7279 7.73685 31.7279 7.73685 31.5576C7.73685 31.3874 7.78683 31.3164 7.81683 31.1745C7.84683 30.7063 7.84685 30.0252 7.87685 29.5286C7.86685 29.3726 7.78683 29.3442 7.78683 29.1597C7.78683 28.9469 7.89683 28.8192 7.92683 28.6489C7.95683 28.2091 7.95685 27.6557 7.98685 27.2159C7.98685 27.0172 7.87685 26.9746 7.87685 26.7334C7.87685 26.4922 8.01685 26.3787 8.01685 26.1375C8.01685 26.0098 8.05684 25.6551 8.05684 25.6551C8.21684 22.2072 8.39684 18.4613 8.39684 17.9931C8.39684 17.156 8.16684 16.3614 7.91684 15.6519C7.78684 15.2688 7.68684 14.8716 7.64684 14.6445C7.23684 12.0764 6.93684 9.6075 6.74684 8.34469C6.56684 7.18121 6.06683 4.11642 6.09683 2.9955C6.09683 2.85361 6.09685 2.68334 6.12685 2.64078C6.19685 2.55565 6.29684 2.56983 6.30684 2.34281C6.31684 2.12998 6.13684 1.60499 6.11684 1.51986C6.10684 1.44892 6.04684 1.30703 6.02684 1.08001C6.01684 0.938117 6.17683 0.739473 6.17683 0.739473C6.19683 0.313808 6.03684 -0.026724 5.75684 0.00165369H3.14684C2.86684 -0.026724 2.69684 0.313808 2.72684 0.739473C2.72684 0.739473 2.88685 0.923928 2.87685 1.08001C2.85685 1.29284 2.79683 1.44892 2.78683 1.51986C2.76683 1.60499 2.58683 2.12998 2.59683 2.34281C2.60683 2.56983 2.71684 2.55565 2.77684 2.64078C2.80684 2.68334 2.80684 2.85361 2.80684 2.9955C2.83684 4.11642 2.32685 7.18121 2.15685 8.34469C1.96685 9.6075 1.66684 12.0764 1.25684 14.6445C1.21684 14.8716 1.11685 15.2688 0.986847 15.6519C0.736847 16.3614 0.506836 17.156 0.506836 17.9931C0.506836 18.4613 0.686832 22.2072 0.846832 25.6551C0.846832 25.6551 0.876841 26.0098 0.886841 26.1375C0.886841 26.3787 1.02684 26.4922 1.02684 26.7334C1.02684 26.9605 0.90684 27.0172 0.91684 27.2159C0.94684 27.6557 0.946837 28.2091 0.976837 28.6489C1.00684 28.8334 1.10684 28.9611 1.11684 29.1597C1.11684 29.33 1.04684 29.3726 1.02684 29.5286C1.05684 30.0252 1.05684 30.7205 1.08684 31.1745C1.11684 31.3164 1.17684 31.4016 1.16684 31.5576C1.16684 31.7421 1.08684 31.7279 1.07684 31.8982C1.07684 32.3806 0.986845 32.7921 0.906845 33.2461C0.886845 33.388 0.95684 33.5157 0.91684 33.6718C0.87684 33.8279 0.796833 33.7427 0.706833 34.0974L0.676834 34.2251C0.596834 34.6366 0.556835 35.0055 0.536835 35.4738C0.466835 36.9352 0.646839 38.4108 0.806839 38.6946C1.32684 39.6595 2.41684 40 4.44684 40" fill="#C7B697"/>
</svg>
