<svg width="191" height="190" viewBox="0 0 191 190" fill="none" xmlns="http://www.w3.org/2000/svg">
<path d="M190.72 0H0.799805V189.92H190.72V0Z" fill="white"/>
<path d="M102.76 64.9199H97.5797L94.6597 69.6599H99.8397L102.76 64.9199Z" fill="#EC627E"/>
<path d="M133.789 55.36C133.789 55.36 130.549 56.65 126.789 60.8C123.009 64.97 120.839 69.62 122.459 70.86C123.079 71.33 124.519 71.41 127.129 69.06C129.169 67.23 131.239 64.83 132.649 61.4C134.329 57.29 133.799 55.41 133.799 55.36M154.409 62.82C150.229 60.68 147.169 58.06 143.989 56.43C140.949 54.87 138.989 54.23 136.539 54.55C136.129 54.6 135.529 54.8 135.529 54.8C135.529 54.8 136.799 59.11 131.769 66.37C126.679 73.72 122.059 73.68 120.749 71.65C119.369 69.52 121.149 65.17 124.109 61.31C127.209 57.27 132.669 53.91 132.669 53.91C132.669 53.91 130.929 52.85 126.649 55.27C122.489 57.63 115.299 63.25 108.659 72.72C102.019 82.19 100.689 87.4 99.7294 91.51C98.7694 95.61 99.6494 100 104.199 100C108.749 100 114.039 93.06 115.529 90.64C118.299 86.15 120.109 79.25 116.339 80.2C114.479 80.67 112.969 82.73 112.019 84.71C111.039 86.75 110.649 88.7 110.649 88.7C110.649 88.7 109.079 89.26 106.969 90.84C104.859 92.42 103.479 93.93 103.479 93.93C103.479 93.93 103.489 90.65 106.099 85.35C108.709 80.04 113.509 77.61 116.229 77.39C118.679 77.19 121.869 79.27 119.169 86.94C116.479 94.62 108.509 103.93 100.139 104.05C92.4194 104.16 87.3594 94.3 98.0994 77.1C109.979 58.07 123.949 52.23 128.479 51.58C133.009 50.93 134.479 52.93 134.479 52.93C134.479 52.93 138.279 51.17 143.089 51.5C148.619 51.88 152.909 55.79 158.549 58.54C157.069 59.97 155.669 61.44 154.409 62.82ZM179.259 56.41C175.429 58.87 170.119 61.11 165.019 60.61C163.729 61.95 162.349 63.49 160.959 65.18C169.809 66.92 177.539 61.44 181.659 56.78C184.229 53.87 185.499 51.27 185.499 51.27C185.499 51.27 183.049 53.97 179.249 56.42M167.489 81.34C167.599 81.15 167.649 80.97 167.649 80.97C167.649 80.97 167.549 80.23 166.839 80.19C165.999 80.15 164.839 80.31 161.839 83.65C158.839 86.97 157.019 89.86 155.439 92.74C153.719 95.9 153.019 98.24 154.009 98.84C154.289 99.01 154.709 99.03 155.049 98.95C155.729 98.79 156.479 98.16 157.639 96.82C158.179 96.19 158.779 95.3 159.499 94.31C161.479 91.6 166.479 83.05 167.479 81.33M136.189 84.97C136.689 83.65 137.329 81.07 135.999 80.06C134.569 78.98 130.929 81.51 130.909 84.1C130.889 86.75 133.479 87.95 134.099 88.12C134.449 88.22 134.579 88.2 134.749 87.92C134.859 87.73 135.689 86.29 136.199 84.98M133.449 89.8C133.349 89.77 132.169 89.23 130.939 88.2C129.719 87.18 129.099 86.01 129.049 85.92C128.999 85.83 128.949 85.9 128.889 85.97C128.839 86.04 128.609 86.24 126.669 89.1C124.719 91.96 121.749 97.85 124.449 98.85C126.179 99.49 129.059 96.46 130.629 94.45C132.089 92.58 133.449 90.21 133.529 90.04C133.609 89.87 133.529 89.83 133.439 89.8M164.079 96.6C163.339 97.78 162.509 100.02 164.939 98.62C167.889 96.91 172.089 90.54 172.089 90.54H173.989C173.989 90.54 171.479 94.5 168.219 98.12C165.229 101.43 161.579 104.45 159.009 104.15C156.009 103.8 156.949 99.86 156.949 99.86C156.949 99.86 152.639 104.43 149.679 104.11C145.669 103.67 146.889 98.71 146.889 98.71C146.889 98.71 142.359 104.29 139.269 104.11C134.419 103.83 135.639 97.92 136.979 93.78C137.699 91.56 138.369 89.81 138.369 89.81C138.369 89.81 137.889 89.94 136.859 90.09C136.319 90.17 135.339 90.22 135.339 90.22C135.339 90.22 133.329 93.78 131.709 95.93C130.099 98.07 123.229 105.45 119.189 103.97C115.459 102.61 116.689 96.89 118.859 92.35C122.029 85.73 130.939 76.21 136.089 77.45C141.419 78.74 136.219 88.48 136.219 88.48C136.219 88.48 136.219 88.52 136.279 88.54C136.389 88.58 136.659 88.61 137.309 88.48C138.339 88.29 139.259 87.9 139.259 87.9C139.259 87.9 144.619 76.67 150.539 69.32C156.459 61.97 168.269 49.32 172.919 52.38C174.059 53.13 173.539 55.72 172.009 58.87C171.329 59.08 170.629 59.27 169.919 59.42C170.939 57.57 171.619 56 171.819 54.91C172.509 51.11 163.649 59.12 157.329 67.73C150.999 76.34 147.209 84.14 147.209 84.14C147.209 84.14 148.489 83.42 150.479 81.81C152.559 80.13 155.419 77.51 158.519 74.3C160.609 72.14 163.059 69.43 165.359 66.4C166.049 66.37 166.719 66.3 167.369 66.19C164.809 69.64 162.109 72.8 159.819 75.12C157.299 77.67 154.559 80.43 152.179 82.43C148.399 85.61 145.479 87.41 145.479 87.41C145.479 87.41 139.929 98.57 142.949 99.29C144.719 99.71 148.219 94.32 148.219 94.32C148.219 94.32 152.779 87.35 155.529 84.22C159.279 79.95 162.509 77.48 165.739 77.43C167.619 77.4 168.729 79.4 168.729 79.4L169.619 78.03H175.069C175.069 78.03 164.899 95.3 164.089 96.59M179.249 56.41C175.419 58.87 170.109 61.11 165.009 60.61C163.719 61.95 162.339 63.49 160.949 65.18C169.799 66.92 177.529 61.44 181.649 56.78C184.219 53.87 185.489 51.27 185.489 51.27C185.489 51.27 183.039 53.97 179.239 56.42M78.2294 81.33C80.4294 78.31 86.5094 67.72 86.5094 67.72C86.5094 67.72 86.4094 66.98 85.6994 66.95C84.8594 66.91 83.4694 67.19 80.6694 70.69C77.8694 74.18 75.7194 76.96 74.1494 79.85C72.4294 83 71.6694 85.23 72.6594 85.83C72.9394 86 73.3594 86.02 73.6994 85.94C74.3494 85.78 75.1894 85.13 76.3494 83.79C76.8894 83.16 77.5094 82.33 78.2294 81.34M50.4293 67.04C48.9993 65.96 45.3594 68.49 45.3394 71.08C45.3194 73.73 48.6294 74.49 49.0594 74.51C49.0594 74.51 49.4394 74.61 49.5794 74.3C49.6694 74.1 50.1194 73.27 50.6294 71.96C51.1294 70.64 51.7694 68.06 50.4394 67.05M48.2794 76.18C48.1894 76.15 46.8094 75.75 45.4694 74.89C44.1294 74.03 43.5094 72.76 43.4594 72.67C43.4094 72.58 43.3594 72.65 43.2994 72.72C43.2494 72.79 42.9594 73.16 41.0094 76.02C39.0594 78.88 36.1794 84.73 38.8794 85.73C40.6094 86.37 43.5094 83.33 45.0894 81.32C46.5494 79.45 48.2794 76.58 48.3594 76.41C48.4394 76.24 48.3594 76.2 48.2694 76.16M90.5994 77.9H92.4994C92.4994 77.9 82.9894 91.65 77.6194 91.03C74.6194 90.68 75.5094 86.98 75.5094 86.98C75.5094 86.98 71.2894 91.92 67.4394 90.93C63.9294 90.03 66.1894 84.19 66.1894 84.19C65.7894 84.35 58.1994 92.92 52.8594 90.87C47.2794 88.72 50.1694 81.55 51.2294 79.39C52.1294 77.57 53.1194 75.8 53.1194 75.8C53.1194 75.8 52.2594 76.04 51.7294 76.17C51.1994 76.29 50.3894 76.45 50.3894 76.45C50.3894 76.45 47.7494 80.74 46.1394 82.89C44.5294 85.03 37.6694 92.4 33.6294 90.93C29.5894 89.46 30.5794 83.81 32.8494 79.31C36.5294 72.02 45.2694 63.07 50.5294 64.41C55.8494 65.77 51.4494 74.39 51.4494 74.39C51.4494 74.39 52.5094 74.53 55.0394 72.8C58.6894 70.31 63.4994 63.61 68.7194 64.39C71.1694 64.76 73.4494 67.27 70.3294 72.05C69.3294 73.58 67.6594 74.95 66.3694 73.6C65.5694 72.76 66.2694 71.22 67.1094 70.17C68.2894 68.68 69.9293 68.88 69.9293 68.88C69.9293 68.88 70.7894 66.9 68.5994 66.94C66.8194 66.97 62.3294 71.11 59.7994 75.29C57.4694 79.13 53.9493 85.67 57.4893 87.09C60.7393 88.4 66.8994 81.07 69.7594 77.23C72.6194 73.39 79.1194 64.68 84.5794 64.33C86.4594 64.21 87.5794 65.92 87.5794 65.92L88.2094 64.92H93.6594C93.6594 64.92 83.3794 82.09 82.5694 83.39C81.9394 84.41 81.0993 86.7 83.4294 85.41C85.7594 84.12 90.5994 77.9 90.5994 77.9ZM87.6394 105.42C83.5094 102.52 78.4794 101.24 73.9094 101.42C69.2894 101.61 67.2094 105.06 67.2094 105.06C65.1194 101.42 60.9994 99.19 54.6294 99.25C44.3394 99.37 34.1294 104.12 26.0494 104.12C17.9694 104.12 12.6294 99.25 12.8194 90.59C13.1494 75.41 25.9694 61.74 35.5494 55.58C41.0594 52.04 45.6694 50.99 48.6894 51.33C50.8894 51.57 53.5393 54.12 51.8694 57.86C49.4193 63.35 46.0294 62.89 46.1494 60.27C46.2194 58.57 47.3594 57.49 48.2094 56.91C48.7494 56.53 49.7094 56.43 50.2094 56.42C50.6894 56.01 51.0593 53.01 47.1194 54C43.1693 54.99 38.4194 58.87 33.8894 63.87C29.3594 68.87 22.3094 78.34 20.5694 88.28C19.7594 92.89 20.3094 101.29 31.2194 101.19C40.4794 101.11 54.1394 95.01 66.6894 95.12C71.5594 95.16 75.7994 96.47 79.1094 98.52C82.3694 100.53 86.2594 103.45 87.6394 105.44" fill="#EC627E"/>
<path d="M174.71 97.91C173.99 97.91 173.35 98.07 172.76 98.4C172.17 98.74 171.71 99.19 171.37 99.76C171.03 100.33 170.87 100.96 170.87 101.62C170.87 102.28 171.03 102.93 171.37 103.48C171.71 104.05 172.17 104.5 172.76 104.83C173.35 105.17 173.98 105.33 174.71 105.33C175.44 105.33 176.08 105.17 176.67 104.83C177.26 104.5 177.7 104.05 178.04 103.48C178.38 102.92 178.54 102.3 178.54 101.62C178.54 100.94 178.38 100.33 178.04 99.76C177.7 99.19 177.25 98.74 176.67 98.4C176.08 98.07 175.43 97.91 174.71 97.91ZM174.71 104.62C174.12 104.62 173.59 104.48 173.14 104.23C172.68 103.97 172.32 103.62 172.06 103.17C171.8 102.72 171.68 102.2 171.68 101.63C171.68 101.06 171.8 100.55 172.06 100.11C172.32 99.67 172.67 99.29 173.14 99.03C173.61 98.77 174.12 98.65 174.71 98.65C175.3 98.65 175.81 98.77 176.28 99.03C176.75 99.29 177.1 99.66 177.36 100.11C177.62 100.56 177.74 101.08 177.74 101.63C177.74 102.18 177.62 102.72 177.36 103.17C177.1 103.62 176.75 103.97 176.3 104.23C175.84 104.49 175.31 104.62 174.72 104.62H174.71ZM176.32 100.97C176.32 100.67 176.22 100.41 176.03 100.21C175.83 100.01 175.57 99.91 175.24 99.91H173.29V103.27H174.15V102.05H174.8L175.59 103.27H176.57L175.69 101.96C175.89 101.86 176.04 101.73 176.15 101.55C176.26 101.37 176.31 101.18 176.31 100.96L176.32 100.97ZM174.16 100.64H175.09C175.2 100.64 175.28 100.67 175.35 100.72C175.42 100.79 175.45 100.87 175.45 100.96C175.45 101.05 175.42 101.14 175.35 101.19C175.28 101.26 175.2 101.29 175.09 101.29H174.16V100.64Z" fill="#EC627E"/>
<path d="M86.7494 161.1C86.7494 152.86 80.0694 146.18 71.8294 146.18C63.5894 146.18 56.9194 152.86 56.9194 161.1C56.9194 169.34 63.5994 176.01 71.8294 176.01C80.0594 176.01 86.7494 169.33 86.7494 161.1Z" fill="#F40009"/>
<path d="M77.3293 157.31C77.3293 157.31 76.8293 157.51 76.2393 158.16C75.6493 158.81 75.3093 159.53 75.5693 159.72C75.6693 159.79 75.8894 159.81 76.2994 159.44C76.6194 159.15 76.9394 158.79 77.1594 158.25C77.4194 157.61 77.3393 157.32 77.3393 157.31M80.5394 158.47C79.8894 158.14 79.4194 157.73 78.9194 157.48C78.4494 157.24 78.1393 157.14 77.7593 157.19C77.6993 157.19 77.5994 157.23 77.5994 157.23C77.5994 157.23 77.7993 157.9 77.0193 159.03C76.2293 160.17 75.5093 160.17 75.3093 159.85C75.0993 159.52 75.3693 158.84 75.8293 158.24C76.3093 157.61 77.1594 157.09 77.1594 157.09C77.1594 157.09 76.8894 156.93 76.2294 157.3C75.5794 157.67 74.4693 158.54 73.4293 160.01C72.3993 161.48 72.1894 162.29 72.0394 162.93C71.8894 163.57 72.0294 164.25 72.7294 164.25C73.4294 164.25 74.2593 163.17 74.4893 162.8C74.9193 162.1 75.1994 161.03 74.6094 161.18C74.3194 161.25 74.0893 161.57 73.9393 161.88C73.7893 162.2 73.7294 162.5 73.7294 162.5C73.7294 162.5 73.4894 162.59 73.1594 162.83C72.8294 163.08 72.6193 163.31 72.6193 163.31C72.6193 163.31 72.6193 162.8 73.0293 161.98C73.4393 161.16 74.1794 160.78 74.5994 160.74C74.9794 160.71 75.4793 161.03 75.0593 162.22C74.6393 163.41 73.3994 164.86 72.0994 164.88C70.8994 164.9 70.1193 163.37 71.7793 160.69C73.6193 157.74 75.7893 156.83 76.4993 156.73C77.1993 156.63 77.4293 156.94 77.4293 156.94C77.4293 156.94 78.0193 156.67 78.7693 156.72C79.6293 156.78 80.2994 157.39 81.1694 157.81C80.9394 158.03 80.7194 158.26 80.5294 158.48M84.3893 157.48C83.7993 157.86 82.9693 158.21 82.1793 158.13C81.9793 158.34 81.7594 158.58 81.5494 158.84C82.9194 159.11 84.1293 158.26 84.7693 157.54C85.1693 157.09 85.3594 156.68 85.3594 156.68C85.3594 156.68 84.9793 157.1 84.3893 157.48ZM82.5593 161.35L82.5893 161.29C82.5893 161.29 82.5693 161.17 82.4593 161.17C82.3293 161.17 82.1493 161.19 81.6793 161.71C81.2193 162.22 80.9293 162.67 80.6893 163.12C80.4193 163.61 80.3094 163.97 80.4694 164.07C80.5094 164.1 80.5793 164.1 80.6293 164.08C80.7293 164.06 80.8493 163.96 81.0294 163.75C81.1094 163.65 81.2093 163.52 81.3193 163.36C81.6293 162.94 82.4093 161.61 82.5593 161.34M77.6993 161.91C77.7793 161.71 77.8794 161.31 77.6694 161.15C77.4494 160.98 76.8793 161.37 76.8793 161.78C76.8793 162.19 77.2793 162.38 77.3793 162.4C77.4293 162.42 77.4494 162.42 77.4794 162.37C77.4994 162.34 77.6293 162.12 77.6993 161.91ZM77.2693 162.66C77.2693 162.66 77.0693 162.57 76.8793 162.41C76.6893 162.25 76.5893 162.07 76.5893 162.05C76.5893 162.04 76.5693 162.05 76.5593 162.05C76.5593 162.06 76.5193 162.09 76.2093 162.54C75.9093 162.98 75.4493 163.9 75.8693 164.05C76.1393 164.15 76.5893 163.68 76.8293 163.37C77.0593 163.08 77.2694 162.71 77.2794 162.68C77.2894 162.65 77.2793 162.65 77.2693 162.64M82.0294 163.7C81.9193 163.88 81.7894 164.23 82.1594 164.01C82.6194 163.74 83.2693 162.75 83.2693 162.75H83.5593C83.5593 162.75 83.1694 163.37 82.6694 163.93C82.2094 164.44 81.6393 164.91 81.2393 164.87C80.7693 164.82 80.9194 164.2 80.9194 164.2C80.9194 164.2 80.2494 164.91 79.7894 164.86C79.1694 164.79 79.3594 164.02 79.3594 164.02C79.3594 164.02 78.6593 164.89 78.1793 164.86C77.4293 164.82 77.6093 163.9 77.8193 163.26C77.9293 162.91 78.0294 162.64 78.0294 162.64C78.0294 162.64 77.9594 162.66 77.7994 162.68C77.7194 162.69 77.5593 162.7 77.5593 162.7C77.5593 162.7 77.2493 163.25 76.9993 163.58C76.7493 163.92 75.6793 165.06 75.0593 164.83C74.4793 164.62 74.6693 163.73 75.0093 163.03C75.4993 162 76.8893 160.52 77.6893 160.72C78.5193 160.92 77.7093 162.43 77.7093 162.43C77.7293 162.43 77.7693 162.44 77.8693 162.43C78.0293 162.4 78.1694 162.34 78.1694 162.34C78.1694 162.34 78.9994 160.6 79.9194 159.45C80.8394 158.31 82.6693 156.34 83.3893 156.82C83.5693 156.94 83.4893 157.34 83.2493 157.83C83.1493 157.86 83.0394 157.89 82.9194 157.92C83.0794 157.63 83.1793 157.39 83.2093 157.22C83.3193 156.63 81.9393 157.87 80.9593 159.21C79.9793 160.55 79.3893 161.76 79.3893 161.76C79.3893 161.76 79.5893 161.65 79.8993 161.4C80.2193 161.14 80.6593 160.73 81.1493 160.23C81.4793 159.9 81.8593 159.48 82.2093 159.01C82.3193 159.01 82.4193 158.99 82.5193 158.98C82.1193 159.52 81.6994 160.01 81.3494 160.37C80.9594 160.77 80.5294 161.19 80.1594 161.5C79.5694 161.99 79.1193 162.28 79.1193 162.28C79.1193 162.28 78.2594 164.01 78.7294 164.13C79.0094 164.19 79.5494 163.36 79.5494 163.36C79.5494 163.36 80.2593 162.28 80.6793 161.79C81.2593 161.13 81.7693 160.75 82.2693 160.74C82.5593 160.74 82.7294 161.04 82.7294 161.04L82.8693 160.83H83.7194C83.7194 160.83 82.1393 163.51 82.0093 163.71M84.3594 157.47C83.7694 157.85 82.9393 158.2 82.1493 158.12C81.9493 158.33 81.7293 158.57 81.5193 158.83C82.8893 159.1 84.0993 158.25 84.7393 157.53C85.1393 157.08 85.3293 156.67 85.3293 156.67C85.3293 156.67 84.9494 157.09 84.3594 157.47ZM72.4794 158.79H71.6694L71.2194 159.53H72.0193L72.4694 158.79H72.4794ZM68.6694 161.34C69.0094 160.87 69.9593 159.23 69.9593 159.23C69.9593 159.23 69.9393 159.11 69.8293 159.11C69.6993 159.11 69.4794 159.15 69.0494 159.69C68.6194 160.23 68.2794 160.66 68.0394 161.11C67.7694 161.6 67.6593 161.94 67.8093 162.04C67.8493 162.07 67.9194 162.07 67.9694 162.06C68.0694 162.03 68.1993 161.93 68.3793 161.73C68.4593 161.63 68.5594 161.5 68.6694 161.35M64.3494 159.13C64.1294 158.96 63.5593 159.35 63.5593 159.76C63.5593 160.17 64.0693 160.29 64.1393 160.29C64.1393 160.29 64.1994 160.3 64.2194 160.26C64.2294 160.23 64.2993 160.1 64.3793 159.9C64.4593 159.69 64.5594 159.29 64.3494 159.14M64.0093 160.56C64.0093 160.56 63.7793 160.49 63.5693 160.36C63.3593 160.23 63.2693 160.03 63.2593 160.02C63.2593 160.01 63.2394 160.02 63.2294 160.02C63.2294 160.03 63.1793 160.09 62.8693 160.53C62.5693 160.97 62.1194 161.88 62.5394 162.04C62.8094 162.14 63.2593 161.67 63.4993 161.36C63.7193 161.07 63.9893 160.63 64.0093 160.6C64.0193 160.57 64.0093 160.57 63.9993 160.56M70.5793 160.83H70.8693C70.8693 160.83 69.3893 162.96 68.5593 162.87C68.0893 162.82 68.2294 162.24 68.2294 162.24C68.2294 162.24 67.5694 163.01 66.9694 162.86C66.4294 162.72 66.7793 161.81 66.7793 161.81C66.7193 161.84 65.5393 163.17 64.7093 162.85C63.8393 162.52 64.2893 161.4 64.4593 161.07C64.5993 160.79 64.7493 160.51 64.7493 160.51C64.7493 160.51 64.6193 160.55 64.5293 160.57C64.4493 160.59 64.3193 160.61 64.3193 160.61C64.3193 160.61 63.9094 161.28 63.6594 161.61C63.4094 161.94 62.3394 163.09 61.7194 162.86C61.0894 162.63 61.2494 161.75 61.5994 161.06C62.1694 159.93 63.5293 158.54 64.3393 158.74C65.1693 158.95 64.4794 160.29 64.4794 160.29C64.4794 160.29 64.6394 160.31 65.0394 160.04C65.6094 159.65 66.3494 158.62 67.1694 158.74C67.5494 158.8 67.8994 159.19 67.4194 159.93C67.2694 160.17 66.9994 160.38 66.7994 160.17C66.6794 160.04 66.7794 159.8 66.9094 159.64C67.0894 159.41 67.3494 159.44 67.3494 159.44C67.3494 159.44 67.4793 159.13 67.1393 159.14C66.8693 159.14 66.1693 159.79 65.7693 160.44C65.4093 161.03 64.8594 162.05 65.4094 162.27C65.9094 162.47 66.8693 161.33 67.3193 160.74C67.7593 160.14 68.7693 158.79 69.6193 158.74C69.9093 158.72 70.0893 158.98 70.0893 158.98L70.1893 158.83H71.0394C71.0394 158.83 69.4393 161.5 69.3193 161.7C69.2193 161.86 69.0893 162.21 69.4493 162.01C69.8093 161.81 70.5593 160.84 70.5593 160.84M70.0994 165.11C69.4594 164.66 68.6794 164.46 67.9694 164.49C67.2494 164.52 66.9293 165.05 66.9293 165.05C66.6093 164.49 65.9694 164.14 64.9794 164.15C63.3794 164.17 61.7994 164.91 60.5394 164.91C59.2794 164.91 58.4594 164.15 58.4794 162.81C58.5294 160.45 60.5193 158.33 62.0093 157.37C62.8693 156.82 63.5794 156.66 64.0494 156.71C64.3894 156.75 64.7994 157.14 64.5394 157.72C64.1594 158.57 63.6293 158.5 63.6493 158.1C63.6593 157.83 63.8394 157.67 63.9694 157.58C64.0594 157.52 64.1993 157.51 64.2793 157.5C64.3593 157.44 64.4094 156.97 63.7994 157.12C63.1894 157.27 62.4493 157.87 61.7493 158.65C61.0493 159.43 59.9493 160.9 59.6793 162.44C59.5493 163.16 59.6393 164.46 61.3293 164.45C62.7693 164.44 64.8893 163.49 66.8393 163.51C67.5993 163.51 68.2593 163.72 68.7693 164.04C69.2793 164.35 69.8793 164.8 70.0893 165.12" fill="white"/>
<path d="M84.0493 163.39C83.8993 163.39 83.7693 163.42 83.6393 163.49C83.5193 163.56 83.4193 163.65 83.3493 163.77C83.2793 163.89 83.2393 164.02 83.2393 164.16C83.2393 164.3 83.2693 164.43 83.3493 164.55C83.4193 164.67 83.5193 164.76 83.6393 164.83C83.7593 164.9 83.8993 164.94 84.0493 164.94C84.1993 164.94 84.3393 164.91 84.4593 164.83C84.5793 164.76 84.6793 164.67 84.7493 164.55C84.8193 164.43 84.8593 164.3 84.8593 164.16C84.8593 164.02 84.8293 163.89 84.7493 163.77C84.6793 163.65 84.5893 163.56 84.4593 163.49C84.3393 163.42 84.1993 163.39 84.0493 163.39ZM84.0493 164.79C83.9293 164.79 83.8193 164.76 83.7193 164.71C83.6193 164.66 83.5493 164.58 83.4993 164.49C83.4493 164.4 83.4193 164.29 83.4193 164.17C83.4193 164.05 83.4493 163.95 83.4993 163.85C83.5493 163.75 83.6293 163.68 83.7193 163.63C83.8193 163.58 83.9193 163.55 84.0493 163.55C84.1793 163.55 84.2793 163.58 84.3793 163.63C84.4793 163.68 84.5493 163.76 84.5993 163.85C84.6493 163.94 84.6793 164.05 84.6793 164.17C84.6793 164.29 84.6493 164.4 84.5993 164.49C84.5493 164.58 84.4693 164.66 84.3793 164.71C84.2793 164.76 84.1693 164.79 84.0493 164.79ZM84.3793 164.03C84.3793 163.97 84.3593 163.91 84.3193 163.87C84.2793 163.83 84.2193 163.81 84.1593 163.81H83.7493V164.51H83.9293V164.25H84.0693L84.2293 164.51H84.4293L84.2493 164.24C84.2493 164.24 84.3193 164.19 84.3493 164.15C84.3793 164.11 84.3793 164.07 84.3793 164.03ZM83.9293 163.96H84.1193C84.1193 163.96 84.1593 163.96 84.1693 163.98C84.1793 163.99 84.1893 164.01 84.1893 164.03C84.1893 164.05 84.1893 164.07 84.1693 164.08C84.1593 164.09 84.1393 164.1 84.1193 164.1H83.9293V163.96Z" fill="white"/>
<path d="M91.7695 159.39V160.79H94.0695V161.72H91.7695V164.14H90.7295V158.46H95.1095V159.39H91.7695Z" fill="#F40009"/>
<path d="M101.14 163.2V164.14H96.8296V158.46H97.8696V163.2H101.14Z" fill="#F40009"/>
<path d="M106.2 161.87L105.24 159.37L104.28 161.87H106.21H106.2ZM106.54 162.78H103.92L103.4 164.14H102.31L104.6 158.47H105.88L108.17 164.14H107.07L106.55 162.78H106.54Z" fill="#F40009"/>
<path d="M114.36 158.46L112.17 164.14H110.89L108.7 158.46H109.83L111.54 163.1L113.26 158.46H114.36Z" fill="#F40009"/>
<path d="M119.429 163.03C119.719 162.86 119.949 162.63 120.109 162.32C120.269 162.02 120.349 161.67 120.349 161.29C120.349 160.91 120.269 160.56 120.109 160.26C119.949 159.96 119.719 159.72 119.429 159.56C119.139 159.39 118.809 159.31 118.439 159.31C118.069 159.31 117.749 159.39 117.459 159.56C117.169 159.73 116.949 159.96 116.779 160.26C116.619 160.56 116.529 160.9 116.529 161.29C116.529 161.68 116.609 162.02 116.779 162.32C116.949 162.62 117.169 162.86 117.459 163.03C117.749 163.2 118.079 163.28 118.439 163.28C118.799 163.28 119.139 163.2 119.429 163.03ZM116.899 163.86C116.449 163.61 116.089 163.26 115.839 162.82C115.579 162.37 115.459 161.87 115.459 161.3C115.459 160.73 115.589 160.22 115.839 159.78C116.099 159.33 116.449 158.99 116.899 158.74C117.349 158.49 117.869 158.37 118.439 158.37C119.009 158.37 119.529 158.49 119.979 158.74C120.429 158.99 120.789 159.34 121.039 159.78C121.299 160.23 121.419 160.73 121.419 161.3C121.419 161.87 121.289 162.37 121.039 162.82C120.779 163.27 120.429 163.61 119.979 163.86C119.529 164.11 119.009 164.23 118.439 164.23C117.869 164.23 117.349 164.11 116.899 163.86Z" fill="#F40009"/>
<path d="M124.299 160.94H126.159C126.439 160.94 126.649 160.87 126.809 160.73C126.969 160.59 127.039 160.4 127.039 160.16C127.039 159.92 126.959 159.74 126.809 159.6C126.649 159.46 126.439 159.39 126.159 159.39H124.299V160.94ZM125.769 161.86H124.299V164.13H123.279V158.46H126.339C126.699 158.46 127.009 158.53 127.279 158.69C127.539 158.84 127.749 159.04 127.889 159.3C128.029 159.56 128.099 159.85 128.099 160.16C128.099 160.55 127.989 160.89 127.779 161.19C127.569 161.49 127.269 161.69 126.889 161.79L128.479 164.13H127.269L125.779 161.86H125.769Z" fill="#F40009"/>
<path d="M130.81 163.98C130.35 163.83 129.97 163.62 129.68 163.35L130.32 162.55C130.6 162.79 130.9 162.97 131.23 163.09C131.56 163.21 131.9 163.27 132.26 163.27C132.64 163.27 132.94 163.2 133.18 163.05C133.42 162.9 133.53 162.71 133.53 162.48C133.53 162.31 133.46 162.17 133.31 162.05C133.17 161.93 132.93 161.84 132.6 161.78L131.41 161.55C130.9 161.45 130.51 161.27 130.26 161.01C130 160.75 129.87 160.43 129.87 160.05C129.87 159.7 129.97 159.4 130.17 159.14C130.37 158.88 130.65 158.68 131.01 158.54C131.37 158.4 131.77 158.33 132.23 158.33C132.65 158.33 133.05 158.39 133.45 158.52C133.84 158.64 134.19 158.84 134.48 159.11L133.88 159.88C133.63 159.68 133.36 159.52 133.08 159.42C132.79 159.32 132.5 159.27 132.2 159.27C131.84 159.27 131.54 159.34 131.3 159.47C131.06 159.6 130.94 159.77 130.94 159.98C130.94 160.12 131.01 160.24 131.14 160.34C131.27 160.44 131.5 160.52 131.83 160.58L132.96 160.79C133.5 160.89 133.91 161.09 134.19 161.38C134.47 161.67 134.61 162.01 134.61 162.41C134.61 162.76 134.52 163.07 134.33 163.34C134.14 163.61 133.87 163.82 133.52 163.97C133.17 164.12 132.76 164.19 132.3 164.19C131.78 164.19 131.29 164.11 130.82 163.96" fill="#F40009"/>
<path d="M70.5397 9.71997H59.9297V12.07H63.9297V21.72H66.5497V12.07H70.5497V9.71997H70.5397ZM83.3597 12.55L81.1397 19.22L78.9897 12.6H76.5597L74.3797 19.25L72.1797 12.55H69.5297L72.8597 21.71H75.7797L77.7497 15.78L79.6997 21.71H82.5797L85.9097 12.55H83.3597Z" fill="#EC627E"/>
<path d="M87.2296 21.7201H89.7296V12.5601H87.2296V21.7201ZM88.4796 11.64C88.8996 11.64 89.2596 11.5101 89.5496 11.2401C89.8396 10.9701 89.9695 10.6401 89.9695 10.2201C89.9695 9.80006 89.8396 9.47004 89.5496 9.20004C89.2596 8.93004 88.8996 8.80005 88.4796 8.80005C88.0596 8.80005 87.7095 8.93004 87.4295 9.20004C87.1495 9.47004 86.9995 9.80006 86.9995 10.2201C86.9995 10.6401 87.1495 10.9701 87.4295 11.2401C87.7095 11.5101 88.0596 11.64 88.4796 11.64ZM92.6096 18.7501L91.3895 20.5701C91.9095 20.9901 92.6095 21.3201 93.4695 21.5701C94.3195 21.8201 95.1695 21.9401 96.0195 21.9401C96.8695 21.9401 97.6195 21.8101 98.2695 21.5601C98.8995 21.3101 99.3895 20.9401 99.7395 20.4601C100.09 19.9901 100.26 19.4401 100.26 18.8101C100.26 17.3101 99.2895 16.41 97.3395 16.11L95.3395 15.7901C94.9695 15.7201 94.7095 15.6401 94.5195 15.5401C94.3395 15.4601 94.2495 15.32 94.2495 15.17C94.2495 14.95 94.3995 14.7501 94.7195 14.6001C95.0395 14.4501 95.4195 14.3801 95.8995 14.3801C96.4195 14.3801 96.9695 14.4601 97.5195 14.6501C98.0695 14.8401 98.5195 15.0501 98.8895 15.3201L100.11 13.55C99.4896 13.12 98.8295 12.8001 98.0795 12.6201C97.3295 12.4401 96.6095 12.3401 95.8995 12.3401C95.0495 12.3401 94.2995 12.4601 93.6795 12.7101C93.0595 12.9601 92.5795 13.3301 92.2495 13.7801C91.8995 14.2301 91.7296 14.76 91.7296 15.36C91.7296 16.06 91.9595 16.64 92.4495 17.11C92.9295 17.59 93.6795 17.91 94.6995 18.08L96.9495 18.45C97.4695 18.53 97.7296 18.7201 97.7296 19.0301C97.7296 19.2601 97.5995 19.4601 97.3095 19.6301C97.0195 19.8001 96.5895 19.8801 96.0295 19.8801C95.4095 19.8801 94.8095 19.78 94.1995 19.58C93.5895 19.38 93.0695 19.11 92.6195 18.76L92.6096 18.7501Z" fill="#EC627E"/>
<path d="M106.689 19.57C106.239 19.57 105.889 19.47 105.619 19.27C105.349 19.07 105.219 18.75 105.219 18.3V14.67H108.039V12.55H105.219V9.5L102.749 10.67V12.55H101.169V14.67H102.719V18.65C102.719 19.63 103.019 20.4 103.619 20.98C104.219 21.56 105.139 21.85 106.349 21.85C107.079 21.85 107.669 21.73 108.119 21.52V19.3C107.639 19.48 107.149 19.57 106.689 19.57ZM119.139 17.2C119.139 16.32 118.939 15.5 118.559 14.75C118.159 14.02 117.589 13.43 116.839 12.98C116.089 12.55 115.219 12.33 114.219 12.33C113.219 12.33 112.349 12.55 111.599 12.98C110.849 13.41 110.269 14 109.869 14.73C109.469 15.46 109.269 16.26 109.269 17.15C109.269 18.04 109.489 18.85 109.899 19.57C110.319 20.3 110.929 20.89 111.749 21.3C112.549 21.72 113.499 21.93 114.619 21.93C115.499 21.93 116.269 21.8 116.939 21.53C117.609 21.28 118.139 20.95 118.519 20.53L117.169 18.85C116.749 19.17 116.369 19.4 115.989 19.55C115.609 19.7 115.159 19.78 114.639 19.78C113.919 19.78 113.319 19.63 112.839 19.33C112.359 19.03 112.019 18.6 111.839 18.05H119.049C119.099 17.8 119.129 17.52 119.129 17.2H119.139ZM114.239 14.5C114.859 14.5 115.389 14.65 115.809 14.95C116.229 15.27 116.489 15.68 116.639 16.23H111.819C111.969 15.68 112.269 15.26 112.689 14.95C113.109 14.65 113.619 14.5 114.239 14.5Z" fill="#EC627E"/>
<path d="M127.93 9.18994V13.4699C127.2 12.7199 126.23 12.3399 125.05 12.3399C124.13 12.3399 123.32 12.5599 122.6 12.9699C121.88 13.3799 121.32 13.9699 120.93 14.6999C120.54 15.4299 120.35 16.2499 120.35 17.1299C120.35 18.0099 120.55 18.8299 120.93 19.5599C121.31 20.2899 121.88 20.8799 122.6 21.2899C123.32 21.6999 124.13 21.9199 125.05 21.9199C126.3 21.9199 127.3 21.4999 128.05 20.6699V21.6999H130.43V9.16992H127.93V9.18994ZM125.41 19.6699C124.66 19.6699 124.04 19.4399 123.58 18.9499C123.1 18.4699 122.86 17.8699 122.86 17.1299C122.86 16.3899 123.09 15.7999 123.58 15.3099C124.05 14.8299 124.66 14.5899 125.41 14.5899C126.16 14.5899 126.79 14.8199 127.28 15.3099C127.77 15.7999 128 16.3899 128 17.1299C128 17.8699 127.77 18.4599 127.28 18.9499C126.79 19.4399 126.18 19.6699 125.41 19.6699Z" fill="#EC627E"/>
<path d="M50.0295 34.88C51.0095 34.88 51.8995 34.71 52.6495 34.4C53.3995 34.09 53.9695 33.62 54.3795 33.03C54.7895 32.44 54.9995 31.76 54.9995 31C54.9995 30.15 54.6995 29.4 54.1195 28.78C53.5195 28.16 52.6395 27.75 51.4495 27.53L49.0795 27.1C48.4295 26.98 47.9995 26.83 47.7795 26.65C47.5495 26.47 47.4295 26.27 47.4295 26.03C47.4295 25.68 47.6596 25.38 48.1096 25.15C48.5596 24.92 49.1096 24.8 49.7896 24.8C51.0596 24.8 52.2195 25.23 53.2695 26.08L54.7695 24.16C54.1495 23.59 53.3996 23.18 52.5496 22.91C51.6996 22.64 50.7995 22.51 49.8695 22.51C48.8895 22.51 47.9995 22.66 47.2195 22.96C46.4395 23.26 45.8195 23.69 45.3895 24.24C44.9395 24.81 44.7195 25.47 44.7195 26.22C44.7195 27.05 44.9996 27.75 45.5496 28.3C46.0996 28.87 46.9195 29.25 48.0295 29.47L50.5795 29.95C51.1995 30.07 51.6295 30.23 51.8795 30.43C52.1295 30.63 52.2595 30.88 52.2595 31.16C52.2595 31.54 52.0396 31.88 51.6096 32.14C51.1796 32.4 50.6095 32.54 49.8895 32.54C48.3395 32.54 46.9895 32.04 45.8695 31.04L44.2495 33.01C44.8695 33.59 45.6795 34.04 46.6995 34.36C47.7195 34.69 48.8195 34.86 49.9995 34.86L50.0295 34.88ZM61.2296 32.56C60.7796 32.56 60.4295 32.46 60.1595 32.26C59.8895 32.06 59.7595 31.74 59.7595 31.29V27.66H62.5795V25.54H59.7595V22.49L57.2896 23.66V25.54H55.7095V27.66H57.2595V31.64C57.2595 32.62 57.5595 33.39 58.1595 33.97C58.7595 34.55 59.6795 34.84 60.8895 34.84C61.6195 34.84 62.2095 34.72 62.6595 34.51V32.29C62.1795 32.47 61.6896 32.56 61.2296 32.56Z" fill="#EC627E"/>
<path d="M69.7896 25.42C69.2396 25.42 68.6896 25.52 68.1696 25.74C67.6396 25.96 67.2196 26.27 66.9196 26.71V25.56H64.5396V34.72H67.0396V30.09C67.0396 29.26 67.2895 28.66 67.7695 28.29C68.2495 27.94 68.8995 27.7599 69.6995 27.7599C70.0195 27.7599 70.3295 27.79 70.6495 27.84V25.52C70.3695 25.45 70.0695 25.42 69.7795 25.42H69.7896ZM81.1595 32.7299C80.9595 32.7299 80.7895 32.68 80.6795 32.56C80.5495 32.46 80.4796 32.29 80.4796 32.08V29.08C80.4796 27.9 80.0995 26.98 79.3295 26.31C78.5595 25.66 77.4996 25.33 76.1096 25.33C75.3896 25.33 74.6595 25.43 73.9395 25.61C73.2195 25.81 72.5695 26.11 72.0195 26.53L73.2395 28.38C73.6895 28.06 74.1595 27.85 74.6395 27.7C75.1195 27.57 75.5695 27.5 75.9895 27.5C76.6095 27.5 77.0895 27.63 77.4595 27.9C77.8095 28.18 78.0095 28.55 78.0595 29.03H76.2296C74.6096 29.03 73.3995 29.3 72.5995 29.81C71.7795 30.34 71.3795 31.0799 71.3795 32.0099C71.3795 32.6399 71.5495 33.18 71.8995 33.61C72.2295 34.04 72.6795 34.36 73.2495 34.58C73.8195 34.8 74.4295 34.91 75.1195 34.91C75.8095 34.91 76.3995 34.79 76.9495 34.58C77.4995 34.37 77.9695 34.03 78.3295 33.55C78.5095 33.97 78.8096 34.27 79.2296 34.47C79.6496 34.69 80.1295 34.79 80.6595 34.79C81.0095 34.79 81.3096 34.74 81.5396 34.62V32.69C81.4096 32.72 81.2695 32.74 81.1595 32.74V32.7299ZM75.3795 32.95C74.8995 32.95 74.5095 32.85 74.2595 32.65C74.0095 32.47 73.8795 32.2 73.8795 31.88C73.8795 31.56 74.0495 31.31 74.3995 31.11C74.7295 30.91 75.3696 30.81 76.2996 30.81H78.0695C77.9895 31.53 77.6896 32.06 77.1696 32.41C76.6496 32.76 76.0495 32.94 75.3895 32.94L75.3795 32.95Z" fill="#EC627E"/>
<path d="M95.4393 25.5499L93.2194 32.2199L91.0693 25.5999H88.6393L86.4594 32.2499L84.2593 25.5499H81.6094L84.9393 34.7099H87.8594L89.8293 28.7799L91.7794 34.7099H94.6594L97.9893 25.5499H95.4393ZM104.709 25.3299C103.529 25.3299 102.559 25.7099 101.829 26.4599V22.1799H99.3293V34.7099H101.709V33.6799C102.459 34.5099 103.459 34.9299 104.709 34.9299C105.629 34.9299 106.459 34.7099 107.179 34.2999C107.899 33.8899 108.449 33.2999 108.829 32.5699C109.209 31.8399 109.409 31.0199 109.409 30.1399C109.409 29.2599 109.209 28.4399 108.829 27.7099C108.449 26.9799 107.899 26.3899 107.179 25.9799C106.459 25.5699 105.629 25.3499 104.709 25.3499V25.3299ZM104.339 32.6599C103.569 32.6599 102.959 32.4299 102.469 31.9399C101.979 31.4499 101.749 30.8599 101.749 30.1199C101.749 29.3799 101.979 28.7899 102.469 28.2999C102.959 27.8099 103.569 27.5799 104.339 27.5799C105.109 27.5799 105.709 27.8099 106.189 28.2999C106.659 28.7799 106.889 29.3799 106.889 30.1199C106.889 30.8599 106.659 31.4499 106.189 31.9399C105.709 32.4199 105.089 32.6599 104.339 32.6599ZM120.539 30.1899C120.539 29.3099 120.339 28.4899 119.959 27.7399C119.559 27.0099 118.989 26.4199 118.239 25.9699C117.489 25.5399 116.619 25.3199 115.619 25.3199C114.619 25.3199 113.749 25.5399 112.999 25.9699C112.249 26.3999 111.669 26.9899 111.269 27.7199C110.869 28.4499 110.669 29.2499 110.669 30.1399C110.669 31.0299 110.889 31.8399 111.299 32.5599C111.719 33.2899 112.329 33.8799 113.149 34.2899C113.949 34.7099 114.899 34.9199 116.019 34.9199C116.899 34.9199 117.669 34.7899 118.339 34.5199C119.009 34.2699 119.539 33.9399 119.919 33.5199L118.569 31.8399C118.149 32.1599 117.769 32.3899 117.389 32.5399C117.009 32.6899 116.559 32.7699 116.039 32.7699C115.319 32.7699 114.719 32.6199 114.239 32.3199C113.759 32.0199 113.419 31.5899 113.239 31.0399H120.449C120.499 30.7899 120.529 30.5099 120.529 30.1899H120.539ZM115.639 27.4899C116.259 27.4899 116.789 27.6399 117.209 27.9399C117.629 28.2599 117.889 28.6699 118.039 29.2199H113.219C113.369 28.6699 113.669 28.2499 114.089 27.9399C114.509 27.6399 115.019 27.4899 115.639 27.4899ZM127.559 25.4099C127.009 25.4099 126.459 25.5099 125.939 25.7299C125.409 25.9499 124.989 26.2599 124.689 26.6999V25.5499H122.309V34.7099H124.809V30.0799C124.809 29.2499 125.059 28.6499 125.539 28.2799C126.019 27.9299 126.669 27.7499 127.469 27.7499C127.789 27.7499 128.099 27.7799 128.419 27.8299V25.5099C128.139 25.4399 127.839 25.4099 127.549 25.4099H127.559Z" fill="#EC627E"/>
<path d="M135.069 25.4199C134.519 25.4199 133.969 25.5199 133.449 25.7399C132.919 25.9599 132.499 26.2699 132.199 26.7099V25.5599H129.819V34.7199H132.319V30.0899C132.319 29.2599 132.569 28.6599 133.049 28.2899C133.529 27.9399 134.179 27.7599 134.979 27.7599C135.299 27.7599 135.609 27.7899 135.929 27.8399V25.5199C135.649 25.4499 135.349 25.4199 135.059 25.4199H135.069ZM144.649 25.5499L142.119 31.9299L139.499 25.5499H136.749L140.849 34.6099L140.779 34.7799C140.659 35.0599 140.479 35.2999 140.229 35.4499C139.979 35.6199 139.729 35.6999 139.449 35.6999C138.979 35.6999 138.419 35.5699 137.769 35.2999L137.119 37.3199C137.469 37.4999 137.849 37.6499 138.299 37.7399C138.729 37.8399 139.149 37.8899 139.529 37.8899C140.299 37.8899 140.979 37.6899 141.559 37.2899C142.139 36.9099 142.589 36.3399 142.909 35.5899L147.279 25.5599H144.649V25.5499Z" fill="#EC627E"/>
<path d="M75.4593 113.61V127.23C75.4593 127.62 75.5693 127.92 75.7893 128.12C76.0093 128.32 76.3093 128.42 76.6893 128.42C77.0093 128.42 77.2993 128.37 77.5493 128.27V129.34C77.2593 129.45 76.9393 129.51 76.6093 129.51C75.8593 129.51 75.2693 129.32 74.8593 128.94C74.4493 128.56 74.2393 128.03 74.2393 127.33V113.61H75.4593Z" fill="#EC627E"/>
<path d="M80.3793 118.01H81.5994V129.36H80.3793V118.01ZM81.6393 114.37C81.8093 114.54 81.8893 114.75 81.8893 115.02C81.8893 115.29 81.8093 115.5 81.6393 115.67C81.4693 115.84 81.2593 115.92 80.9893 115.92C80.7193 115.92 80.5094 115.84 80.3394 115.67C80.1694 115.5 80.0894 115.29 80.0894 115.02C80.0894 114.75 80.1694 114.54 80.3394 114.37C80.5094 114.2 80.7293 114.12 80.9893 114.12C81.2493 114.12 81.4693 114.2 81.6393 114.37Z" fill="#EC627E"/>
<path d="M92.2593 127.3C92.9693 126.93 93.5293 126.41 93.9493 125.73C94.3693 125.05 94.5793 124.26 94.5793 123.35C94.5793 122.44 94.3693 121.67 93.9493 120.98C93.5293 120.29 92.9693 119.77 92.2593 119.4C91.5493 119.03 90.7793 118.84 89.9493 118.84C89.1193 118.84 88.3993 119.04 87.7193 119.44C87.0393 119.84 86.5093 120.38 86.1193 121.07C85.7293 121.76 85.5293 122.52 85.5293 123.34C85.5293 124.16 85.7293 124.94 86.1193 125.62C86.5093 126.31 87.0393 126.85 87.7193 127.24C88.3993 127.64 89.1393 127.84 89.9493 127.84C90.7593 127.84 91.5593 127.65 92.2593 127.28M95.6793 117.99V128.32C95.6793 129.33 95.4393 130.2 94.9693 130.95C94.4893 131.7 93.8193 132.27 92.9593 132.68C92.0893 133.09 91.0893 133.29 89.9393 133.29C88.1093 133.29 86.5693 132.92 85.3093 132.18L85.8493 131.13C87.0093 131.83 88.3693 132.18 89.9293 132.18C91.3093 132.18 92.4093 131.83 93.2293 131.14C94.0493 130.45 94.4593 129.49 94.4593 128.26V126.56C93.9793 127.31 93.3393 127.9 92.5293 128.32C91.7193 128.74 90.8293 128.95 89.8693 128.95C88.8393 128.95 87.8893 128.7 87.0293 128.21C86.1693 127.71 85.4993 127.04 85.0093 126.18C84.5193 125.32 84.2793 124.38 84.2793 123.34C84.2793 122.3 84.5193 121.36 85.0093 120.51C85.4993 119.66 86.1693 118.98 87.0293 118.48C87.8893 117.98 88.8393 117.73 89.8693 117.73C90.8493 117.73 91.7493 117.95 92.5593 118.38C93.3793 118.81 94.0193 119.42 94.4993 120.2V118H95.6693L95.6793 117.99Z" fill="#EC627E"/>
<path d="M107.3 118.89C108.12 119.66 108.53 120.7 108.53 122.01V129.36H107.31V122.2C107.31 121.17 107.01 120.35 106.4 119.76C105.79 119.17 104.92 118.87 103.79 118.87C102.96 118.87 102.24 119.03 101.61 119.35C100.98 119.67 100.49 120.1 100.14 120.64C99.7896 121.18 99.6196 121.77 99.6196 122.41V129.37H98.4097V113.62H99.6196V119.86C100.12 119.14 100.75 118.6 101.52 118.26C102.28 117.92 103.11 117.75 104 117.75C105.38 117.75 106.48 118.13 107.3 118.9" fill="#EC627E"/>
<path d="M117.27 128.04V129.17C117.05 129.3 116.76 129.39 116.42 129.46C116.08 129.53 115.72 129.57 115.36 129.57C114.21 129.57 113.32 129.25 112.67 128.61C112.02 127.97 111.7 127.09 111.7 125.97V119.06H109.77V118.01H111.7V115.08L112.91 114.51V118.01H117.18V119.06H112.91V125.85C112.91 126.68 113.14 127.31 113.59 127.77C114.04 128.22 114.66 128.45 115.44 128.45C116.08 128.45 116.69 128.32 117.26 128.05" fill="#EC627E"/>
<path d="M82.0795 112.36C81.1995 112.36 80.4795 113.08 80.4795 113.96C80.4795 114.84 81.1895 115.56 82.0795 115.56C82.9695 115.56 83.6794 114.84 83.6794 113.96C83.6794 113.08 82.9695 112.36 82.0795 112.36ZM82.0795 112.88C82.6695 112.88 83.1495 113.36 83.1495 113.95C83.1495 114.54 82.6695 115.02 82.0795 115.02C81.4895 115.02 81.0095 114.54 81.0095 113.95C81.0095 113.36 81.4895 112.88 82.0795 112.88Z" fill="#EC627E"/>
<path d="M80.9893 109.93C80.7793 109.93 80.6193 110.1 80.6193 110.3C80.6193 110.5 80.7893 110.67 80.9893 110.67C81.1893 110.67 81.3594 110.5 81.3594 110.3C81.3594 110.1 81.1893 109.93 80.9893 109.93ZM80.9893 111.2C80.4993 111.2 80.0894 110.8 80.0894 110.3C80.0894 109.8 80.4893 109.4 80.9893 109.4C81.4893 109.4 81.8893 109.8 81.8893 110.3C81.8893 110.8 81.4893 111.2 80.9893 111.2Z" fill="#EC627E"/>
</svg>
