<svg width="12" height="40" viewBox="0 0 12 40" fill="none" xmlns="http://www.w3.org/2000/svg">
<path d="M10.057 38.9827C9.95699 39.2514 9.82699 39.4626 9.65699 39.501C8.52699 39.8081 7.23699 40 5.86699 40C4.49699 40 3.19699 39.8273 2.07699 39.501C1.90699 39.4434 1.76699 39.2514 1.67699 38.9827C1.35699 38.0806 0.416992 37.8695 0.416992 36.6027V7.85029C0.416992 4.41459 1.17699 3.55087 1.56699 1.38196C1.54699 1.34357 1.56699 1.38196 1.53699 1.32438C1.40699 1.40116 1.27699 1.20922 1.27699 0.978891C1.27699 0.786952 1.34699 0.633397 1.44699 0.614203C2.78699 0.211132 4.31699 0 5.86699 0C7.41699 0 8.94699 0.211132 10.287 0.614203C10.377 0.633397 10.447 0.806146 10.447 0.978891C10.447 1.22841 10.327 1.42035 10.197 1.32438C10.177 1.36277 10.187 1.32438 10.167 1.38196C10.547 3.53167 11.317 4.3954 11.317 7.85029V36.6027C11.317 37.8503 10.377 38.0806 10.057 38.9827Z" fill="#C7B697"/>
</svg>
