<svg width="191" height="190" viewBox="0 0 191 190" fill="none" xmlns="http://www.w3.org/2000/svg">
<path d="M190.88 0H0.959961V189.92H190.88V0Z" fill="#CDA075"/>
<path d="M74.7294 16.21L71.3795 25.56L68.0095 16.21H65.1895L69.7194 28.21H72.9395L77.4694 16.21H74.7194H74.7294ZM87.2595 26.22C87.0595 26.22 86.8894 26.17 86.7794 26.05C86.6494 25.95 86.5795 25.78 86.5795 25.57V22.57C86.5795 21.39 86.1994 20.47 85.4294 19.8C84.6594 19.15 83.5995 18.82 82.2095 18.82C81.4895 18.82 80.7594 18.92 80.0394 19.1C79.3194 19.3 78.6694 19.6 78.1194 20.02L79.3394 21.87C79.7894 21.55 80.2594 21.34 80.7394 21.19C81.2194 21.06 81.6694 20.99 82.0894 20.99C82.7094 20.99 83.1894 21.12 83.5594 21.39C83.9094 21.67 84.1094 22.04 84.1594 22.52H82.3295C80.7095 22.52 79.4995 22.79 78.6995 23.3C77.8795 23.83 77.4794 24.57 77.4794 25.5C77.4794 26.13 77.6495 26.67 77.9995 27.1C78.3295 27.53 78.7794 27.85 79.3494 28.07C79.9194 28.29 80.5294 28.4 81.2194 28.4C81.9094 28.4 82.4994 28.28 83.0494 28.07C83.5994 27.86 84.0694 27.52 84.4294 27.04C84.6094 27.46 84.9095 27.76 85.3295 27.96C85.7495 28.18 86.2295 28.28 86.7595 28.28C87.1095 28.28 87.4095 28.23 87.6395 28.11V26.18C87.5095 26.21 87.3695 26.23 87.2595 26.23V26.22ZM81.4794 26.44C80.9994 26.44 80.6094 26.34 80.3594 26.14C80.1094 25.96 79.9794 25.69 79.9794 25.37C79.9794 25.05 80.1495 24.8 80.4995 24.6C80.8295 24.4 81.4694 24.3 82.3994 24.3H84.1694C84.0894 25.02 83.7895 25.55 83.2695 25.9C82.7495 26.25 82.1494 26.43 81.4894 26.43L81.4794 26.44Z" fill="white"/>
<path d="M94.4097 18.83C93.8597 18.83 93.3397 18.91 92.8597 19.08C92.3597 19.26 91.9297 19.53 91.5797 19.91V19.04H89.1997V28.2H91.6997V22.95C91.6997 22.4 91.8997 21.95 92.2997 21.63C92.6797 21.31 93.1997 21.15 93.8297 21.15C94.4297 21.15 94.8997 21.3 95.2097 21.6C95.5297 21.92 95.6897 22.35 95.6897 22.92V28.2H98.1897V22.38C98.1897 21.68 98.0197 21.06 97.7097 20.51C97.3997 19.96 96.9397 19.54 96.3797 19.24C95.7997 18.96 95.1497 18.81 94.4097 18.81V18.83ZM100.46 28.21H102.96V19.05H100.46V28.21ZM101.71 18.13C102.13 18.13 102.49 18 102.78 17.73C103.07 17.46 103.2 17.13 103.2 16.71C103.2 16.29 103.07 15.96 102.78 15.69C102.49 15.42 102.13 15.29 101.71 15.29C101.29 15.29 100.94 15.42 100.66 15.69C100.38 15.96 100.23 16.29 100.23 16.71C100.23 17.13 100.38 17.46 100.66 17.73C100.94 18 101.29 18.13 101.71 18.13ZM105.44 15.68V25.89C105.44 26.64 105.69 27.24 106.17 27.67C106.65 28.12 107.29 28.34 108.09 28.34C108.66 28.34 109.12 28.26 109.47 28.11V25.94C109.22 26.04 108.97 26.09 108.72 26.09C108.2 26.09 107.94 25.84 107.94 25.36V15.68H105.44ZM110.99 15.68V25.89C110.99 26.64 111.24 27.24 111.72 27.67C112.2 28.12 112.84 28.34 113.64 28.34C114.21 28.34 114.67 28.26 115.02 28.11V25.94C114.77 26.04 114.52 26.09 114.27 26.09C113.75 26.09 113.49 25.84 113.49 25.36V15.68H110.99Z" fill="white"/>
<path d="M125.74 26.2301C125.54 26.2301 125.37 26.1801 125.26 26.0601C125.13 25.9601 125.06 25.7901 125.06 25.5801V22.5801C125.06 21.4001 124.68 20.4801 123.91 19.8101C123.14 19.1601 122.08 18.8301 120.69 18.8301C119.97 18.8301 119.24 18.9301 118.52 19.1101C117.8 19.3101 117.15 19.6101 116.6 20.0301L117.82 21.8801C118.27 21.5601 118.74 21.3501 119.22 21.2001C119.7 21.0701 120.15 21.0001 120.57 21.0001C121.19 21.0001 121.67 21.1301 122.04 21.4001C122.39 21.6801 122.59 22.0501 122.64 22.5301H120.81C119.19 22.5301 117.98 22.8001 117.18 23.3101C116.36 23.8401 115.96 24.5801 115.96 25.5101C115.96 26.1401 116.13 26.6801 116.48 27.1101C116.81 27.5401 117.26 27.8601 117.83 28.0801C118.4 28.3001 119.01 28.4101 119.7 28.4101C120.39 28.4101 120.98 28.2901 121.53 28.0801C122.08 27.8701 122.55 27.5301 122.91 27.0501C123.09 27.4701 123.39 27.7701 123.81 27.9701C124.23 28.1901 124.71 28.2901 125.24 28.2901C125.59 28.2901 125.89 28.2401 126.12 28.1201V26.1901C125.99 26.2201 125.85 26.2401 125.74 26.2401V26.2301ZM119.96 26.4501C119.48 26.4501 119.09 26.3501 118.84 26.1501C118.59 25.9701 118.46 25.7001 118.46 25.3801C118.46 25.0601 118.63 24.8101 118.98 24.6101C119.31 24.4101 119.95 24.3101 120.88 24.3101H122.65C122.57 25.0301 122.27 25.5601 121.75 25.9101C121.23 26.2601 120.63 26.4401 119.97 26.4401L119.96 26.4501Z" fill="white"/>
<path d="M86.9095 161.1C86.9095 152.86 80.2296 146.18 71.9896 146.18C63.7496 146.18 57.0796 152.86 57.0796 161.1C57.0796 169.34 63.7596 176.01 71.9896 176.01C80.2196 176.01 86.9095 169.33 86.9095 161.1Z" fill="#F40009"/>
<path d="M77.4895 157.31C77.4895 157.31 76.9895 157.51 76.3995 158.15C75.8095 158.8 75.4695 159.52 75.7295 159.71C75.8295 159.78 76.0495 159.8 76.4595 159.43C76.7795 159.15 77.0995 158.78 77.3195 158.24C77.5795 157.6 77.4995 157.31 77.4995 157.3M80.6995 158.46C80.0495 158.13 79.5795 157.72 79.0795 157.47C78.6095 157.23 78.2995 157.13 77.9195 157.18C77.8595 157.18 77.7595 157.22 77.7595 157.22C77.7595 157.22 77.9595 157.89 77.1795 159.02C76.3895 160.16 75.6695 160.16 75.4695 159.84C75.2595 159.51 75.5295 158.83 75.9895 158.24C76.4695 157.61 77.3195 157.09 77.3195 157.09C77.3195 157.09 77.0495 156.93 76.3895 157.3C75.7395 157.67 74.6295 158.54 73.5895 160.01C72.5595 161.48 72.3495 162.29 72.1995 162.93C72.0495 163.57 72.1895 164.25 72.8895 164.25C73.5895 164.25 74.4195 163.17 74.6495 162.8C75.0795 162.1 75.3595 161.03 74.7695 161.18C74.4795 161.25 74.2495 161.57 74.0995 161.88C73.9495 162.2 73.8895 162.5 73.8895 162.5C73.8895 162.5 73.6495 162.59 73.3195 162.83C72.9895 163.07 72.7795 163.31 72.7795 163.31C72.7795 163.31 72.7795 162.8 73.1895 161.98C73.5995 161.16 74.3395 160.78 74.7595 160.74C75.1395 160.71 75.6395 161.03 75.2195 162.22C74.7995 163.41 73.5595 164.86 72.2595 164.88C71.0595 164.9 70.2795 163.37 71.9395 160.69C73.7795 157.74 75.9495 156.83 76.6595 156.73C77.3595 156.63 77.5895 156.94 77.5895 156.94C77.5895 156.94 78.1795 156.67 78.9295 156.72C79.7895 156.78 80.4595 157.39 81.3295 157.81C81.0995 158.03 80.8795 158.26 80.6895 158.48M84.5495 157.48C83.9595 157.86 83.1295 158.21 82.3395 158.13C82.1395 158.34 81.9195 158.58 81.7095 158.84C83.0795 159.11 84.2895 158.26 84.9295 157.54C85.3295 157.09 85.5195 156.68 85.5195 156.68C85.5195 156.68 85.1395 157.1 84.5495 157.48ZM82.7195 161.35L82.7495 161.29C82.7495 161.29 82.7295 161.18 82.6195 161.17C82.4895 161.17 82.3095 161.19 81.8395 161.71C81.3795 162.22 81.0895 162.67 80.8495 163.12C80.5795 163.61 80.4695 163.97 80.6295 164.07C80.6695 164.09 80.7395 164.1 80.7895 164.08C80.8895 164.06 81.0095 163.96 81.1895 163.75C81.2695 163.65 81.3695 163.52 81.4795 163.36C81.7895 162.94 82.5695 161.61 82.7195 161.34M77.8595 161.9C77.9395 161.7 78.0395 161.3 77.8295 161.14C77.6095 160.97 77.0395 161.36 77.0395 161.77C77.0395 162.18 77.4395 162.37 77.5395 162.39C77.5895 162.41 77.6095 162.41 77.6395 162.36C77.6595 162.33 77.7895 162.11 77.8595 161.9ZM77.4295 162.65C77.4295 162.65 77.2295 162.56 77.0395 162.4C76.8495 162.24 76.7495 162.06 76.7495 162.05C76.7495 162.04 76.7295 162.05 76.7195 162.05C76.7195 162.06 76.6795 162.09 76.3695 162.54C76.0695 162.98 75.6095 163.9 76.0295 164.05C76.2995 164.15 76.7495 163.68 76.9895 163.37C77.2195 163.08 77.4295 162.71 77.4395 162.68C77.4495 162.66 77.4395 162.65 77.4295 162.64M82.1895 163.7C82.0795 163.88 81.9495 164.23 82.3195 164.01C82.7795 163.74 83.4295 162.75 83.4295 162.75H83.7195C83.7195 162.75 83.3295 163.37 82.8295 163.93C82.3695 164.44 81.7995 164.91 81.3995 164.87C80.9295 164.81 81.0795 164.2 81.0795 164.2C81.0795 164.2 80.4095 164.91 79.9495 164.86C79.3295 164.79 79.5195 164.02 79.5195 164.02C79.5195 164.02 78.8195 164.89 78.3395 164.86C77.5895 164.82 77.7695 163.9 77.9795 163.26C78.0895 162.91 78.1895 162.64 78.1895 162.64C78.1895 162.64 78.1195 162.66 77.9595 162.68C77.8795 162.69 77.7195 162.7 77.7195 162.7C77.7195 162.7 77.4095 163.25 77.1595 163.58C76.9095 163.92 75.8395 165.06 75.2195 164.83C74.6395 164.62 74.8295 163.73 75.1695 163.03C75.6595 162 77.0495 160.52 77.8495 160.72C78.6795 160.92 77.8695 162.43 77.8695 162.43C77.8895 162.43 77.9295 162.44 78.0295 162.43C78.1895 162.4 78.3295 162.34 78.3295 162.34C78.3295 162.34 79.1595 160.6 80.0795 159.45C80.9995 158.31 82.8295 156.34 83.5495 156.82C83.7295 156.94 83.6495 157.34 83.4095 157.83C83.3095 157.86 83.1995 157.89 83.0795 157.92C83.2395 157.63 83.3395 157.39 83.3695 157.22C83.4795 156.63 82.0995 157.87 81.1195 159.21C80.1395 160.55 79.5495 161.76 79.5495 161.76C79.5495 161.76 79.7495 161.65 80.0595 161.4C80.3795 161.14 80.8195 160.73 81.3095 160.23C81.6395 159.9 82.0195 159.48 82.3695 159.01C82.4795 159.01 82.5795 158.99 82.6795 158.98C82.2795 159.52 81.8595 160.01 81.5095 160.37C81.1195 160.77 80.6895 161.19 80.3195 161.5C79.7295 161.99 79.2795 162.28 79.2795 162.28C79.2795 162.28 78.4195 164.01 78.8895 164.13C79.1695 164.19 79.7095 163.36 79.7095 163.36C79.7095 163.36 80.4195 162.28 80.8395 161.79C81.4195 161.13 81.9295 160.75 82.4295 160.74C82.7195 160.74 82.8895 161.04 82.8895 161.04L83.0295 160.83H83.8795C83.8795 160.83 82.2995 163.51 82.1695 163.71M84.5195 157.47C83.9295 157.85 83.0995 158.2 82.3095 158.12C82.1095 158.33 81.8895 158.57 81.6795 158.83C83.0495 159.1 84.2595 158.25 84.8995 157.53C85.2995 157.08 85.4895 156.67 85.4895 156.67C85.4895 156.67 85.1095 157.09 84.5195 157.47ZM72.6395 158.79H71.8295L71.3795 159.53H72.1795L72.6295 158.79H72.6395ZM68.8295 161.34C69.1695 160.87 70.1195 159.23 70.1195 159.23C70.1195 159.23 70.0995 159.12 69.9895 159.11C69.8595 159.11 69.6395 159.15 69.2095 159.69C68.7795 160.23 68.4395 160.67 68.1995 161.11C67.9295 161.6 67.8195 161.94 67.9695 162.04C68.0095 162.06 68.0795 162.07 68.1295 162.06C68.2295 162.03 68.3595 161.93 68.5395 161.73C68.6195 161.63 68.7195 161.5 68.8295 161.35M64.5095 159.13C64.2895 158.96 63.7195 159.35 63.7195 159.76C63.7195 160.17 64.2295 160.29 64.2995 160.29C64.2995 160.29 64.3595 160.3 64.3795 160.26C64.3895 160.23 64.4595 160.1 64.5395 159.9C64.6195 159.69 64.7195 159.29 64.5095 159.14M64.1695 160.56C64.1695 160.56 63.9395 160.49 63.7295 160.36C63.5195 160.23 63.4295 160.03 63.4195 160.02C63.4195 160 63.3995 160.02 63.3895 160.02C63.3895 160.03 63.3395 160.09 63.0295 160.53C62.7295 160.97 62.2795 161.88 62.6995 162.04C62.9695 162.14 63.4195 161.67 63.6595 161.36C63.8795 161.07 64.1495 160.62 64.1695 160.6C64.1795 160.57 64.1695 160.57 64.1595 160.56M70.7395 160.83H71.0295C71.0295 160.83 69.5495 162.96 68.7195 162.87C68.2495 162.82 68.3895 162.24 68.3895 162.24C68.3895 162.24 67.7295 163.01 67.1295 162.85C66.5895 162.71 66.9395 161.8 66.9395 161.8C66.8795 161.83 65.6995 163.16 64.8695 162.84C63.9995 162.51 64.4495 161.39 64.6195 161.06C64.7595 160.78 64.9095 160.51 64.9095 160.51C64.9095 160.51 64.7795 160.55 64.6895 160.57C64.6095 160.59 64.4795 160.61 64.4795 160.61C64.4795 160.61 64.0695 161.28 63.8195 161.61C63.5695 161.94 62.4995 163.09 61.8795 162.86C61.2495 162.63 61.4095 161.75 61.7595 161.06C62.3295 159.93 63.6895 158.54 64.4995 158.74C65.3295 158.95 64.6395 160.29 64.6395 160.29C64.6395 160.29 64.7995 160.31 65.1995 160.04C65.7695 159.65 66.5095 158.62 67.3295 158.74C67.7095 158.8 68.0595 159.19 67.5795 159.93C67.4295 160.17 67.1595 160.38 66.9595 160.17C66.8395 160.04 66.9395 159.8 67.0695 159.64C67.2495 159.41 67.5095 159.44 67.5095 159.44C67.5095 159.44 67.6395 159.13 67.2995 159.14C67.0295 159.14 66.3295 159.79 65.9295 160.44C65.5695 161.03 65.0195 162.05 65.5695 162.27C66.0695 162.47 67.0295 161.33 67.4795 160.74C67.9195 160.14 68.9295 158.79 69.7795 158.74C70.0695 158.72 70.2495 158.98 70.2495 158.98L70.3495 158.82H71.1995C71.1995 158.82 69.5995 161.49 69.4795 161.69C69.3795 161.85 69.2495 162.2 69.6095 162C69.9695 161.8 70.7195 160.83 70.7195 160.83M70.2595 165.1C69.6195 164.65 68.8395 164.45 68.1295 164.48C67.4095 164.51 67.0895 165.04 67.0895 165.04C66.7695 164.48 66.1295 164.13 65.1395 164.14C63.5395 164.16 61.9595 164.9 60.6995 164.9C59.4395 164.9 58.6195 164.14 58.6395 162.8C58.6895 160.44 60.6795 158.32 62.1695 157.36C63.0295 156.81 63.7395 156.65 64.2095 156.7C64.5495 156.74 64.9595 157.13 64.6995 157.71C64.3195 158.57 63.7895 158.49 63.8095 158.09C63.8195 157.82 63.9995 157.66 64.1295 157.57C64.2195 157.51 64.3595 157.5 64.4395 157.5C64.5195 157.44 64.5695 156.97 63.9595 157.12C63.3495 157.27 62.6095 157.88 61.9095 158.65C61.2095 159.43 60.1095 160.9 59.8395 162.44C59.7095 163.16 59.7995 164.46 61.4895 164.45C62.9295 164.44 65.0495 163.49 66.9995 163.51C67.7595 163.51 68.4195 163.72 68.9295 164.04C69.4395 164.35 70.0395 164.8 70.2495 165.11" fill="white"/>
<path d="M84.2095 163.39C84.0595 163.39 83.9294 163.42 83.7994 163.49C83.6794 163.56 83.5795 163.65 83.5095 163.77C83.4395 163.89 83.3994 164.02 83.3994 164.16C83.3994 164.3 83.4295 164.43 83.5095 164.55C83.5795 164.67 83.6794 164.76 83.7994 164.83C83.9194 164.9 84.0595 164.94 84.2095 164.94C84.3595 164.94 84.4994 164.91 84.6194 164.83C84.7394 164.76 84.8394 164.67 84.9094 164.55C84.9794 164.43 85.0195 164.3 85.0195 164.16C85.0195 164.02 84.9894 163.89 84.9094 163.77C84.8394 163.65 84.7494 163.56 84.6194 163.49C84.4994 163.42 84.3595 163.39 84.2095 163.39ZM84.2095 164.79C84.0895 164.79 83.9795 164.76 83.8795 164.71C83.7795 164.66 83.7094 164.58 83.6594 164.49C83.6094 164.4 83.5795 164.29 83.5795 164.17C83.5795 164.05 83.6094 163.95 83.6594 163.85C83.7094 163.75 83.7895 163.68 83.8795 163.63C83.9795 163.58 84.0795 163.55 84.2095 163.55C84.3395 163.55 84.4394 163.58 84.5394 163.63C84.6394 163.68 84.7095 163.76 84.7595 163.85C84.8095 163.94 84.8394 164.05 84.8394 164.17C84.8394 164.29 84.8095 164.4 84.7595 164.49C84.7095 164.58 84.6294 164.66 84.5394 164.71C84.4394 164.76 84.3295 164.79 84.2095 164.79ZM84.5394 164.03C84.5394 163.97 84.5194 163.91 84.4794 163.87C84.4394 163.83 84.3795 163.81 84.3195 163.81H83.9094V164.51H84.0894V164.25H84.2294L84.3895 164.51H84.5894L84.4094 164.24C84.4094 164.24 84.4795 164.19 84.5095 164.15C84.5295 164.11 84.5394 164.07 84.5394 164.03ZM84.0894 163.96H84.2794C84.2794 163.96 84.3195 163.96 84.3295 163.98C84.3395 163.99 84.3494 164.01 84.3494 164.03C84.3494 164.05 84.3495 164.07 84.3295 164.08C84.3195 164.09 84.2994 164.1 84.2794 164.1H84.0894V163.96Z" fill="white"/>
<path d="M91.9296 159.39V160.79H94.2296V161.72H91.9296V164.14H90.8896V158.46H95.2697V159.39H91.9296Z" fill="white"/>
<path d="M101.3 163.2V164.14H96.9897V158.46H98.0297V163.2H101.3Z" fill="white"/>
<path d="M106.36 161.86L105.4 159.36L104.44 161.86H106.37H106.36ZM106.7 162.77H104.08L103.56 164.13H102.47L104.76 158.45H106.04L108.33 164.13H107.23L106.71 162.77H106.7Z" fill="white"/>
<path d="M114.52 158.46L112.33 164.14H111.05L108.86 158.46H109.99L111.7 163.1L113.42 158.46H114.52Z" fill="white"/>
<path d="M119.59 163.03C119.88 162.86 120.11 162.63 120.27 162.32C120.43 162.02 120.51 161.68 120.51 161.29C120.51 160.9 120.43 160.56 120.27 160.26C120.11 159.96 119.88 159.72 119.59 159.55C119.3 159.38 118.97 159.3 118.6 159.3C118.23 159.3 117.91 159.38 117.62 159.55C117.33 159.72 117.11 159.95 116.94 160.26C116.78 160.56 116.69 160.9 116.69 161.29C116.69 161.68 116.77 162.02 116.94 162.32C117.11 162.62 117.33 162.86 117.62 163.03C117.91 163.2 118.24 163.28 118.6 163.28C118.96 163.28 119.3 163.2 119.59 163.03ZM117.06 163.86C116.61 163.61 116.25 163.26 116 162.82C115.74 162.37 115.62 161.87 115.62 161.3C115.62 160.73 115.75 160.22 116 159.78C116.26 159.33 116.61 158.99 117.06 158.73C117.51 158.48 118.03 158.36 118.6 158.36C119.17 158.36 119.69 158.48 120.14 158.73C120.59 158.98 120.95 159.33 121.2 159.78C121.46 160.23 121.58 160.73 121.58 161.3C121.58 161.87 121.45 162.38 121.2 162.82C120.94 163.27 120.59 163.61 120.14 163.86C119.69 164.11 119.17 164.24 118.6 164.24C118.03 164.24 117.51 164.12 117.06 163.86Z" fill="white"/>
<path d="M124.459 160.94H126.319C126.599 160.94 126.809 160.87 126.969 160.73C127.129 160.59 127.199 160.4 127.199 160.16C127.199 159.92 127.119 159.74 126.969 159.6C126.809 159.46 126.599 159.39 126.319 159.39H124.459V160.94ZM125.929 161.86H124.459V164.13H123.439V158.46H126.499C126.859 158.46 127.169 158.54 127.439 158.68C127.699 158.83 127.909 159.04 128.049 159.29C128.189 159.55 128.259 159.84 128.259 160.15C128.259 160.54 128.149 160.88 127.939 161.18C127.729 161.48 127.429 161.68 127.049 161.78L128.639 164.12H127.429L125.939 161.85L125.929 161.86Z" fill="white"/>
<path d="M130.97 163.98C130.51 163.83 130.13 163.62 129.84 163.35L130.48 162.55C130.76 162.79 131.06 162.97 131.39 163.09C131.72 163.21 132.06 163.27 132.42 163.27C132.8 163.27 133.1 163.2 133.34 163.05C133.58 162.9 133.69 162.71 133.69 162.48C133.69 162.31 133.62 162.17 133.47 162.05C133.33 161.94 133.09 161.84 132.76 161.78L131.57 161.55C131.06 161.45 130.67 161.27 130.42 161.01C130.16 160.75 130.03 160.43 130.03 160.05C130.03 159.7 130.13 159.4 130.33 159.14C130.53 158.88 130.81 158.68 131.17 158.54C131.53 158.4 131.93 158.33 132.39 158.33C132.81 158.33 133.21 158.39 133.61 158.52C134 158.64 134.35 158.84 134.64 159.11L134.04 159.87C133.79 159.67 133.52 159.51 133.24 159.41C132.95 159.31 132.66 159.26 132.36 159.26C132 159.26 131.7 159.33 131.46 159.46C131.22 159.59 131.1 159.76 131.1 159.97C131.1 160.11 131.17 160.23 131.3 160.33C131.43 160.43 131.66 160.51 131.99 160.57L133.12 160.78C133.66 160.88 134.07 161.08 134.35 161.37C134.63 161.66 134.77 162 134.77 162.4C134.77 162.75 134.68 163.06 134.49 163.33C134.3 163.6 134.03 163.81 133.68 163.96C133.33 164.11 132.92 164.18 132.46 164.18C131.94 164.18 131.45 164.1 130.98 163.95" fill="white"/>
<path d="M102.92 64.91H97.7398L94.8198 69.66H99.9998L102.92 64.91Z" fill="white"/>
<path d="M133.95 55.36C133.95 55.36 130.71 56.65 126.95 60.8C123.17 64.96 121 69.62 122.62 70.86C123.24 71.33 124.68 71.41 127.29 69.06C129.33 67.23 131.4 64.83 132.81 61.4C134.49 57.29 133.96 55.41 133.96 55.36M154.57 62.82C150.39 60.68 147.329 58.06 144.15 56.43C141.11 54.87 139.15 54.22 136.7 54.55C136.29 54.6 135.69 54.8 135.69 54.8C135.69 54.8 136.96 59.11 131.93 66.37C126.84 73.72 122.22 73.68 120.91 71.65C119.53 69.52 121.31 65.17 124.27 61.31C127.37 57.27 132.83 53.91 132.83 53.91C132.83 53.91 131.09 52.85 126.81 55.27C122.65 57.63 115.46 63.24 108.82 72.72C102.18 82.19 100.85 87.41 99.8896 91.51C98.9296 95.61 99.8095 100 104.36 100C108.91 100 114.2 93.06 115.69 90.64C118.46 86.15 120.27 79.25 116.5 80.2C114.64 80.67 113.13 82.73 112.18 84.72C111.2 86.76 110.81 88.71 110.81 88.71C110.81 88.71 109.24 89.27 107.13 90.85C105.02 92.43 103.64 93.94 103.64 93.94C103.64 93.94 103.65 90.66 106.26 85.35C108.87 80.04 113.67 77.61 116.39 77.39C118.84 77.19 122.03 79.27 119.33 86.95C116.64 94.63 108.67 103.94 100.3 104.06C92.5795 104.17 87.5196 94.32 98.2596 77.11C110.14 58.08 124.11 52.24 128.64 51.59C133.17 50.94 134.64 52.94 134.64 52.94C134.64 52.94 138.44 51.18 143.25 51.51C148.78 51.89 153.07 55.8 158.71 58.55C157.23 59.98 155.83 61.45 154.57 62.83M179.42 56.41C175.59 58.88 170.28 61.11 165.18 60.62C163.89 61.96 162.51 63.5 161.12 65.19C169.97 66.93 177.7 61.45 181.82 56.79C184.39 53.88 185.66 51.28 185.66 51.28C185.66 51.28 183.21 53.98 179.41 56.43M167.65 81.35C167.76 81.16 167.81 80.98 167.81 80.98C167.81 80.98 167.71 80.24 167 80.2C166.16 80.16 165 80.32 162 83.66C159 86.98 157.18 89.87 155.6 92.75C153.88 95.9 153.18 98.25 154.17 98.85C154.45 99.02 154.87 99.04 155.21 98.96C155.89 98.8 156.64 98.17 157.8 96.83C158.34 96.2 158.94 95.31 159.66 94.33C161.64 91.62 166.64 83.07 167.64 81.35M136.35 85C136.85 83.68 137.49 81.1 136.16 80.09C134.73 79.01 131.09 81.54 131.07 84.13C131.05 86.78 133.64 87.98 134.26 88.15C134.61 88.25 134.74 88.23 134.91 87.95C135.02 87.76 135.85 86.32 136.36 85.01M133.61 89.83C133.51 89.8 132.33 89.26 131.1 88.23C129.88 87.21 129.26 86.04 129.21 85.95C129.16 85.86 129.11 85.93 129.05 86C129 86.07 128.77 86.27 126.83 89.13C124.88 91.99 121.91 97.88 124.61 98.88C126.34 99.52 129.22 96.49 130.79 94.48C132.25 92.61 133.61 90.24 133.69 90.07C133.77 89.9 133.69 89.86 133.6 89.83M164.24 96.63C163.5 97.81 162.67 100.05 165.1 98.65C168.05 96.94 172.25 90.57 172.25 90.57H174.15C174.15 90.57 171.64 94.53 168.38 98.15C165.39 101.46 161.74 104.48 159.17 104.18C156.17 103.83 157.11 99.89 157.11 99.89C157.11 99.89 152.8 104.46 149.84 104.14C145.83 103.7 147.05 98.74 147.05 98.74C147.05 98.74 142.52 104.32 139.43 104.14C134.58 103.86 135.8 97.95 137.14 93.81C137.86 91.59 138.53 89.84 138.53 89.84C138.53 89.84 138.05 89.97 137.02 90.12C136.48 90.2 135.5 90.25 135.5 90.25C135.5 90.25 133.49 93.82 131.87 95.96C130.26 98.1 123.39 105.48 119.35 104C115.62 102.64 116.85 96.92 119.02 92.38C122.19 85.76 131.1 76.24 136.25 77.48C141.58 78.77 136.38 88.51 136.38 88.51C136.38 88.51 136.38 88.55 136.44 88.57C136.55 88.61 136.82 88.64 137.47 88.52C138.5 88.33 139.42 87.94 139.42 87.94C139.42 87.94 144.78 76.71 150.7 69.36C156.62 62.01 168.43 49.36 173.08 52.42C174.22 53.17 173.7 55.76 172.17 58.91C171.49 59.12 170.79 59.31 170.08 59.46C171.1 57.6 171.78 56.04 171.98 54.95C172.67 51.15 163.81 59.16 157.49 67.77C151.16 76.39 147.37 84.18 147.37 84.18C147.37 84.18 148.65 83.46 150.64 81.85C152.72 80.18 155.58 77.55 158.68 74.34C160.77 72.18 163.22 69.47 165.52 66.44C166.21 66.41 166.88 66.34 167.53 66.23C164.97 69.69 162.27 72.84 159.98 75.16C157.46 77.71 154.72 80.47 152.34 82.47C148.56 85.65 145.64 87.45 145.64 87.45C145.64 87.45 140.09 98.61 143.11 99.33C144.88 99.75 148.38 94.36 148.38 94.36C148.38 94.36 152.94 87.39 155.69 84.26C159.44 79.99 162.67 77.52 165.9 77.47C167.78 77.44 168.89 79.44 168.89 79.44L169.78 78.07H175.23C175.23 78.07 165.06 95.34 164.25 96.64M179.41 56.46C175.58 58.93 170.27 61.16 165.17 60.67C163.88 62.01 162.5 63.55 161.11 65.24C169.96 66.98 177.69 61.5 181.81 56.84C184.38 53.93 185.65 51.33 185.65 51.33C185.65 51.33 183.2 54.03 179.4 56.48M78.3896 81.39C80.5896 78.37 86.6695 67.78 86.6695 67.78C86.6695 67.78 86.5695 67.04 85.8595 67.01C85.0195 66.97 83.6296 67.25 80.8296 70.74C78.0296 74.23 75.8795 77.01 74.3095 79.9C72.5895 83.05 71.8295 85.28 72.8195 85.88C73.0995 86.05 73.5195 86.07 73.8595 85.99C74.5095 85.83 75.3495 85.18 76.5095 83.84C77.0495 83.21 77.6696 82.38 78.3896 81.39ZM50.5895 67.09C49.1595 66.01 45.5195 68.54 45.4995 71.13C45.4795 73.78 48.7895 74.54 49.2195 74.56C49.2195 74.56 49.5995 74.66 49.7395 74.35C49.8295 74.16 50.2795 73.33 50.7895 72.01C51.2895 70.69 51.9295 68.11 50.5995 67.1M48.4395 76.23C48.3495 76.2 46.9695 75.8 45.6295 74.94C44.2895 74.08 43.6695 72.81 43.6195 72.72C43.5695 72.63 43.5196 72.7 43.4596 72.77C43.4096 72.84 43.1195 73.21 41.1695 76.07C39.2195 78.93 36.3395 84.78 39.0395 85.78C40.7695 86.42 43.6695 83.38 45.2495 81.37C46.7095 79.5 48.4396 76.63 48.5196 76.46C48.5996 76.29 48.5195 76.25 48.4295 76.21M90.7596 77.95H92.6595C92.6595 77.95 83.1495 91.7 77.7795 91.08C74.7795 90.73 75.6695 87.03 75.6695 87.03C75.6695 87.03 71.4495 91.97 67.5995 90.98C64.0895 90.08 66.3495 84.24 66.3495 84.24C65.9495 84.4 58.3596 92.97 53.0196 90.92C47.4396 88.77 50.3296 81.6 51.3896 79.44C52.2896 77.62 53.2795 75.85 53.2795 75.85C53.2795 75.85 52.4196 76.09 51.8896 76.22C51.3596 76.34 50.5495 76.5 50.5495 76.5C50.5495 76.5 47.9095 80.79 46.2995 82.94C44.6895 85.08 37.8295 92.45 33.7895 90.98C29.7495 89.51 30.7395 83.86 33.0095 79.36C36.6895 72.07 45.4295 63.12 50.6895 64.46C56.0095 65.81 51.6095 74.44 51.6095 74.44C51.6095 74.44 52.6696 74.58 55.1996 72.85C58.8496 70.36 63.6595 63.66 68.8795 64.44C71.3295 64.81 73.6095 67.32 70.4895 72.1C69.4895 73.63 67.8195 75 66.5295 73.65C65.7295 72.81 66.4296 71.27 67.2696 70.22C68.4496 68.73 70.0895 68.93 70.0895 68.93C70.0895 68.93 70.9495 66.95 68.7595 66.99C66.9795 67.02 62.4896 71.16 59.9596 75.34C57.6296 79.18 54.1095 85.72 57.6495 87.14C60.8995 88.45 67.0595 81.12 69.9195 77.28C72.7795 73.44 79.2795 64.73 84.7395 64.38C86.6195 64.26 87.7395 65.97 87.7395 65.97L88.3695 64.97H93.8195C93.8195 64.97 83.5395 82.14 82.7295 83.44C82.0995 84.46 81.2595 86.75 83.5895 85.46C85.9195 84.17 90.7596 77.95 90.7596 77.95ZM87.7995 105.47C83.6695 102.57 78.6395 101.29 74.0695 101.47C69.4495 101.66 67.3695 105.11 67.3695 105.11C65.2795 101.47 61.1595 99.24 54.7895 99.3C44.4995 99.42 34.2896 104.17 26.2096 104.17C18.1296 104.17 12.7895 99.3 12.9795 90.64C13.3095 75.46 26.1296 61.79 35.7096 55.63C41.2196 52.09 45.8295 51.04 48.8495 51.38C51.0495 51.62 53.6995 54.17 52.0295 57.91C49.5795 63.4 46.1895 62.94 46.3095 60.32C46.3795 58.62 47.5195 57.54 48.3695 56.96C48.9095 56.58 49.8695 56.48 50.3695 56.47C50.8495 56.06 51.2195 53.06 47.2795 54.05C43.3295 55.04 38.5795 58.92 34.0495 63.92C29.5195 68.92 22.4695 78.39 20.7295 88.33C19.9195 92.94 20.4695 101.34 31.3795 101.24C40.6395 101.16 54.2995 95.06 66.8495 95.17C71.7195 95.21 75.9596 96.52 79.2696 98.57C82.5296 100.58 86.4195 103.5 87.7995 105.49" fill="white"/>
<path d="M174.87 97.91C174.15 97.91 173.51 98.07 172.92 98.4C172.33 98.74 171.87 99.19 171.53 99.76C171.19 100.33 171.03 100.96 171.03 101.62C171.03 102.28 171.19 102.93 171.53 103.48C171.87 104.05 172.33 104.5 172.92 104.83C173.51 105.17 174.14 105.33 174.87 105.33C175.6 105.33 176.24 105.17 176.83 104.83C177.42 104.5 177.86 104.05 178.2 103.48C178.54 102.92 178.7 102.3 178.7 101.62C178.7 100.94 178.54 100.33 178.2 99.76C177.86 99.19 177.41 98.74 176.83 98.4C176.24 98.07 175.59 97.91 174.87 97.91ZM174.87 104.62C174.28 104.62 173.75 104.48 173.3 104.23C172.84 103.97 172.48 103.62 172.22 103.17C171.96 102.72 171.84 102.2 171.84 101.63C171.84 101.06 171.96 100.55 172.22 100.11C172.48 99.67 172.83 99.29 173.3 99.03C173.77 98.77 174.28 98.65 174.87 98.65C175.46 98.65 175.97 98.77 176.44 99.03C176.91 99.29 177.26 99.66 177.52 100.11C177.78 100.56 177.9 101.08 177.9 101.63C177.9 102.18 177.78 102.72 177.52 103.17C177.26 103.62 176.91 103.97 176.46 104.23C176 104.49 175.47 104.62 174.88 104.62H174.87ZM176.48 100.97C176.48 100.67 176.38 100.41 176.19 100.21C175.99 100.01 175.73 99.91 175.4 99.91H173.45V103.27H174.31V102.05H174.96L175.75 103.27H176.73L175.85 101.96C176.05 101.86 176.2 101.73 176.31 101.55C176.42 101.37 176.47 101.18 176.47 100.96L176.48 100.97ZM174.32 100.64H175.25C175.36 100.64 175.44 100.67 175.51 100.72C175.58 100.79 175.61 100.87 175.61 100.96C175.61 101.05 175.58 101.14 175.51 101.19C175.44 101.26 175.36 101.29 175.25 101.29H174.32V100.64Z" fill="white"/>
</svg>
