<svg width="191" height="190" viewBox="0 0 191 190" fill="none" xmlns="http://www.w3.org/2000/svg">
<path d="M190.44 0H0.52002V189.92H190.44V0Z" fill="#CDA075"/>
<path d="M35.1199 127.37L41.0899 121.01V118.73H31.7299V121.18H37.4399L31.4399 127.57V129.82H41.3199V127.37H35.1199ZM54.14 127.37H47.6299V125.4H52.02V122.92H47.6299V121.18H53.9899L54.3099 118.73H44.7999V129.82H54.4699L54.1499 127.37H54.14ZM65.2899 129.82H68.5399L65.52 125.49C66.2 125.23 66.7199 124.81 67.1099 124.23C67.4799 123.66 67.6599 123 67.6599 122.26C67.6599 121.61 67.5199 121.03 67.2299 120.49C66.9399 119.95 66.5099 119.54 65.9399 119.21C65.3699 118.89 64.7099 118.73 63.9399 118.73H57.6299V129.82H60.4299V125.77H62.5999L65.2899 129.82ZM60.4199 121.2H63.5599C63.9299 121.2 64.22 121.29 64.45 121.49C64.67 121.69 64.77 121.94 64.77 122.26C64.77 122.58 64.66 122.85 64.45 123.05C64.22 123.25 63.9299 123.34 63.5599 123.34H60.4199V121.2Z" fill="black"/>
<path d="M76.6696 130.01C75.4996 130.01 74.4495 129.76 73.5295 129.27C72.6095 128.79 71.8796 128.12 71.3696 127.24C70.8496 126.36 70.5796 125.38 70.5796 124.27C70.5796 123.16 70.8396 122.18 71.3696 121.3C71.8796 120.42 72.5995 119.75 73.5295 119.25C74.4495 118.77 75.4996 118.53 76.6696 118.53C77.8396 118.53 78.8896 118.78 79.8096 119.25C80.7296 119.74 81.4596 120.42 81.9796 121.3C82.4896 122.18 82.7496 123.16 82.7496 124.27C82.7496 125.38 82.4896 126.36 81.9796 127.24C81.4596 128.12 80.7296 128.79 79.8096 129.27C78.8896 129.76 77.8396 130.01 76.6696 130.01ZM76.6696 121.11C76.0696 121.11 75.5296 121.25 75.0496 121.51C74.5696 121.77 74.1996 122.14 73.9396 122.62C73.6796 123.1 73.5396 123.65 73.5396 124.27C73.5396 124.89 73.6796 125.42 73.9396 125.9C74.1996 126.38 74.5696 126.76 75.0496 127.02C75.5296 127.28 76.0696 127.42 76.6696 127.42C77.2696 127.42 77.8096 127.28 78.2896 127.02C78.7696 126.76 79.1395 126.37 79.3995 125.9C79.6595 125.43 79.7996 124.88 79.7996 124.27C79.7996 123.66 79.6595 123.1 79.3995 122.62C79.1395 122.14 78.7696 121.77 78.2896 121.51C77.8096 121.25 77.2696 121.11 76.6696 121.11ZM96.6696 129.96C97.6996 129.96 98.5796 129.81 99.3296 129.5C100.07 129.19 100.64 128.76 101.04 128.19C101.42 127.64 101.63 126.99 101.63 126.23C101.63 125.38 101.37 124.69 100.83 124.12C100.29 123.55 99.4595 123.18 98.3395 123.01L95.6595 122.58C95.0295 122.47 94.7095 122.24 94.7095 121.86C94.7095 121.63 94.8896 121.41 95.2596 121.24C95.6096 121.07 96.1095 120.99 96.7095 120.99C97.3095 120.99 97.8496 121.08 98.3696 121.28C98.8796 121.48 99.3896 121.77 99.8896 122.16L101.49 120.11C100.89 119.57 100.17 119.17 99.2996 118.91C98.4396 118.65 97.5396 118.53 96.6396 118.53C95.6096 118.53 94.7196 118.67 93.9896 118.96C93.2496 119.25 92.6996 119.65 92.3096 120.18C91.9296 120.72 91.7396 121.33 91.7396 122.04C91.7396 123.81 92.8896 124.89 95.1896 125.26L97.5596 125.63C98.2796 125.74 98.6396 126.01 98.6396 126.46C98.6396 126.75 98.4696 126.98 98.1296 127.18C97.7796 127.38 97.2996 127.49 96.6796 127.49C95.2496 127.49 94.0296 127.03 92.9996 126.12L91.3096 128.2C91.8796 128.74 92.6496 129.17 93.6196 129.48C94.5696 129.8 95.5896 129.96 96.6696 129.96ZM109.91 130.01C110.97 130.01 111.9 129.83 112.68 129.46C113.46 129.09 114.07 128.57 114.48 127.87C114.9 127.18 115.1 126.36 115.1 125.42V118.72H112.25V125.12C112.25 125.87 112.05 126.44 111.66 126.83C111.28 127.21 110.69 127.42 109.9 127.42C109.11 127.42 108.55 127.22 108.16 126.83C107.76 126.45 107.56 125.88 107.56 125.12V118.72H104.71V125.42C104.71 126.36 104.93 127.18 105.34 127.87C105.76 128.56 106.36 129.09 107.14 129.46C107.93 129.83 108.83 130.01 109.9 130.01H109.91ZM129.68 123.14H124.03V125.6H126.89V127.16C126.3 127.38 125.67 127.48 124.98 127.48C124.29 127.48 123.59 127.34 123.02 127.06C122.45 126.8 122 126.41 121.68 125.92C121.36 125.43 121.2 124.87 121.2 124.26C121.2 123.65 121.35 123.09 121.66 122.6C121.97 122.12 122.38 121.74 122.92 121.46C123.44 121.18 124.01 121.04 124.64 121.04C125.84 121.04 126.92 121.42 127.87 122.18L129.46 120.15C128.89 119.63 128.2 119.23 127.38 118.93C126.55 118.65 125.62 118.51 124.62 118.51C123.4 118.51 122.33 118.76 121.36 119.25C120.39 119.74 119.62 120.42 119.07 121.3C118.52 122.18 118.24 123.18 118.24 124.3C118.24 125.42 118.52 126.38 119.09 127.24C119.66 128.1 120.44 128.78 121.46 129.26C122.46 129.75 123.62 130 124.91 130C125.93 130 126.85 129.88 127.68 129.63C128.5 129.4 129.16 129.09 129.67 128.71V123.14H129.68ZM141.48 129.81H144.44L140.08 118.72H136.57L132.23 129.81H135.16L135.99 127.56H140.66L141.49 129.81H141.48ZM136.86 125.18L138.31 121.24L139.77 125.18H136.86ZM154.91 129.81H158.16L155.14 125.48C155.82 125.22 156.34 124.8 156.73 124.22C157.1 123.65 157.28 122.99 157.28 122.25C157.28 121.6 157.14 121.02 156.85 120.48C156.56 119.94 156.13 119.53 155.56 119.2C154.99 118.88 154.33 118.72 153.56 118.72H147.25V129.81H150.05V125.76H152.22L154.91 129.81ZM150.04 121.19H153.18C153.55 121.19 153.84 121.28 154.07 121.48C154.29 121.68 154.39 121.93 154.39 122.25C154.39 122.57 154.28 122.84 154.07 123.04C153.84 123.24 153.55 123.33 153.18 123.33H150.04V121.19Z" fill="black"/>
<path d="M102.48 64.9199H97.2999L94.3799 69.6599H99.5599L102.48 64.9199Z" fill="black"/>
<path d="M133.51 55.37C133.51 55.37 130.27 56.66 126.51 60.81C122.73 64.98 120.56 69.63 122.18 70.87C122.8 71.34 124.24 71.42 126.85 69.07C128.89 67.24 130.96 64.84 132.37 61.41C134.05 57.3 133.52 55.42 133.52 55.37M154.13 62.83C149.95 60.69 146.89 58.07 143.71 56.43C140.67 54.87 138.71 54.22 136.26 54.55C135.85 54.6 135.25 54.8 135.25 54.8C135.25 54.8 136.52 59.11 131.49 66.37C126.4 73.72 121.78 73.68 120.47 71.65C119.09 69.52 120.87 65.17 123.83 61.31C126.93 57.27 132.39 53.91 132.39 53.91C132.39 53.91 130.65 52.85 126.37 55.27C122.21 57.63 115.02 63.25 108.38 72.72C101.74 82.19 100.41 87.4 99.4496 91.51C98.4896 95.61 99.3696 100 103.92 100C108.47 100 113.76 93.06 115.25 90.64C118.02 86.15 119.83 79.25 116.06 80.2C114.2 80.67 112.69 82.73 111.74 84.72C110.76 86.76 110.37 88.71 110.37 88.71C110.37 88.71 108.8 89.27 106.69 90.85C104.58 92.43 103.2 93.94 103.2 93.94C103.2 93.94 103.21 90.66 105.82 85.36C108.43 80.05 113.23 77.62 115.95 77.4C118.4 77.2 121.59 79.28 118.89 86.95C116.2 94.62 108.23 103.93 99.8596 104.06C92.1396 104.17 87.0796 94.31 97.8196 77.11C109.7 58.08 123.67 52.24 128.2 51.59C132.73 50.94 134.2 52.94 134.2 52.94C134.2 52.94 138 51.18 142.81 51.51C148.34 51.89 152.63 55.8 158.27 58.55C156.79 59.98 155.39 61.45 154.13 62.83ZM178.98 56.41C175.15 58.87 169.84 61.11 164.74 60.61C163.45 61.95 162.07 63.49 160.68 65.18C169.53 66.92 177.26 61.45 181.38 56.78C183.95 53.87 185.22 51.27 185.22 51.27C185.22 51.27 182.77 53.97 178.97 56.42M167.21 81.34C167.32 81.15 167.37 80.97 167.37 80.97C167.37 80.97 167.27 80.23 166.56 80.19C165.72 80.15 164.56 80.31 161.56 83.65C158.56 86.97 156.74 89.86 155.16 92.74C153.44 95.9 152.74 98.24 153.73 98.84C154.01 99.01 154.43 99.03 154.77 98.95C155.45 98.79 156.2 98.16 157.36 96.82C157.9 96.19 158.5 95.3 159.22 94.31C161.2 91.6 166.2 83.05 167.2 81.33M135.91 84.98C136.41 83.66 137.05 81.08 135.72 80.07C134.29 78.99 130.65 81.52 130.63 84.1C130.61 86.75 133.2 87.95 133.82 88.12C134.17 88.22 134.3 88.2 134.47 87.92C134.58 87.73 135.41 86.29 135.92 84.98M133.17 89.8C133.07 89.77 131.89 89.23 130.66 88.2C129.44 87.18 128.82 86.01 128.77 85.92C128.72 85.83 128.67 85.9 128.61 85.97C128.56 86.05 128.33 86.24 126.39 89.1C124.44 91.96 121.47 97.85 124.17 98.85C125.9 99.49 128.78 96.46 130.35 94.45C131.81 92.58 133.17 90.21 133.25 90.04C133.33 89.87 133.25 89.83 133.16 89.79M163.8 96.59C163.06 97.77 162.23 100.01 164.66 98.61C167.61 96.9 171.81 90.53 171.81 90.53H173.71C173.71 90.53 171.2 94.49 167.94 98.11C164.95 101.42 161.3 104.43 158.73 104.14C155.73 103.79 156.67 99.85 156.67 99.85C156.67 99.85 152.36 104.42 149.4 104.1C145.39 103.66 146.61 98.7 146.61 98.7C146.61 98.7 142.08 104.28 138.99 104.1C134.14 103.82 135.36 97.91 136.7 93.77C137.42 91.55 138.09 89.8 138.09 89.8C138.09 89.8 137.61 89.93 136.58 90.08C136.04 90.16 135.06 90.21 135.06 90.21C135.06 90.21 133.05 93.77 131.43 95.92C129.82 98.06 122.95 105.44 118.91 103.96C115.18 102.6 116.41 96.88 118.58 92.34C121.75 85.72 130.66 76.2 135.81 77.44C141.14 78.73 135.94 88.47 135.94 88.47C135.94 88.47 135.94 88.51 136 88.53C136.11 88.57 136.38 88.6 137.03 88.48C138.06 88.28 138.98 87.9 138.98 87.9C138.98 87.9 144.34 76.67 150.26 69.32C156.18 61.97 167.99 49.32 172.64 52.38C173.78 53.13 173.26 55.72 171.73 58.87C171.05 59.08 170.35 59.27 169.64 59.42C170.66 57.57 171.34 56 171.54 54.91C172.23 51.11 163.37 59.12 157.05 67.73C150.72 76.34 146.93 84.14 146.93 84.14C146.93 84.14 148.21 83.42 150.2 81.81C152.28 80.13 155.14 77.51 158.24 74.3C160.33 72.14 162.78 69.43 165.08 66.4C165.77 66.37 166.44 66.3 167.09 66.19C164.53 69.64 161.83 72.8 159.54 75.12C157.02 77.67 154.28 80.43 151.9 82.43C148.12 85.61 145.2 87.41 145.2 87.41C145.2 87.41 139.65 98.57 142.67 99.29C144.44 99.71 147.94 94.32 147.94 94.32C147.94 94.32 152.5 87.35 155.25 84.22C159 79.95 162.23 77.48 165.46 77.43C167.34 77.4 168.45 79.4 168.45 79.4L169.34 78.03H174.79C174.79 78.03 164.62 95.3 163.81 96.59M178.97 56.41C175.14 58.87 169.83 61.11 164.73 60.61C163.44 61.95 162.06 63.49 160.67 65.18C169.52 66.92 177.25 61.45 181.37 56.78C183.94 53.87 185.21 51.27 185.21 51.27C185.21 51.27 182.76 53.97 178.96 56.42M77.9496 81.33C80.1496 78.31 86.2296 67.72 86.2296 67.72C86.2296 67.72 86.1296 66.98 85.4196 66.94C84.5796 66.9 83.1896 67.18 80.3896 70.67C77.5896 74.16 75.4396 76.95 73.8696 79.83C72.1496 82.98 71.3896 85.21 72.3796 85.81C72.6596 85.98 73.0796 86 73.4196 85.92C74.0696 85.76 74.9096 85.11 76.0696 83.77C76.6096 83.14 77.2296 82.31 77.9496 81.32M50.1496 67.02C48.7196 65.94 45.0796 68.47 45.0596 71.06C45.0396 73.71 48.3496 74.47 48.7796 74.49C48.7796 74.49 49.1596 74.59 49.2996 74.28C49.3896 74.08 49.8396 73.25 50.3496 71.94C50.8496 70.62 51.4896 68.04 50.1596 67.03M47.9996 76.16C47.9096 76.13 46.5296 75.73 45.1896 74.87C43.8496 74.01 43.2296 72.74 43.1796 72.65C43.1296 72.56 43.0796 72.63 43.0196 72.7C42.9696 72.77 42.6796 73.14 40.7296 76C38.7796 78.86 35.8996 84.71 38.5996 85.71C40.3296 86.35 43.2296 83.31 44.8096 81.3C46.2696 79.43 47.9996 76.56 48.0796 76.39C48.1596 76.22 48.0796 76.18 47.9896 76.15M90.3196 77.89H92.2196C92.2196 77.89 82.7096 91.64 77.3396 91.02C74.3396 90.67 75.2296 86.97 75.2296 86.97C75.2296 86.97 71.0096 91.91 67.1596 90.92C63.6496 90.02 65.9096 84.18 65.9096 84.18C65.5096 84.34 57.9196 92.91 52.5796 90.86C46.9996 88.71 49.8896 81.54 50.9496 79.38C51.8496 77.56 52.8396 75.79 52.8396 75.79C52.8396 75.79 51.9796 76.03 51.4496 76.16C50.9196 76.28 50.1096 76.44 50.1096 76.44C50.1096 76.44 47.4696 80.73 45.8596 82.88C44.2496 85.02 37.3896 92.39 33.3496 90.92C29.3096 89.45 30.2996 83.8 32.5696 79.3C36.2496 72.01 44.9896 63.06 50.2496 64.4C55.5696 65.76 51.1696 74.38 51.1696 74.38C51.1696 74.38 52.2296 74.52 54.7596 72.79C58.4096 70.3 63.2196 63.6 68.4396 64.38C70.8896 64.75 73.1696 67.26 70.0496 72.04C69.0496 73.57 67.3796 74.94 66.0896 73.59C65.2896 72.75 65.9896 71.21 66.8296 70.16C68.0096 68.67 69.6496 68.87 69.6496 68.87C69.6496 68.87 70.5096 66.89 68.3196 66.93C66.5396 66.96 62.0496 71.1 59.5196 75.28C57.1896 79.12 53.6696 85.66 57.2096 87.08C60.4596 88.39 66.6196 81.06 69.4796 77.22C72.3396 73.38 78.8396 64.67 84.2996 64.32C86.1796 64.2 87.2996 65.91 87.2996 65.91L87.9296 64.91H93.3796C93.3796 64.91 83.0996 82.08 82.2896 83.39C81.6596 84.41 80.8196 86.7 83.1496 85.41C85.4796 84.12 90.3196 77.9 90.3196 77.9M87.3596 105.42C83.2296 102.52 78.1996 101.24 73.6296 101.42C69.0096 101.6 66.9296 105.06 66.9296 105.06C64.8396 101.42 60.7196 99.19 54.3496 99.25C44.0596 99.37 33.8496 104.12 25.7696 104.12C17.6896 104.12 12.3496 99.25 12.5396 90.59C12.8696 75.41 25.6896 61.74 35.2696 55.58C40.7796 52.04 45.3896 50.99 48.4096 51.33C50.6096 51.57 53.2596 54.12 51.5896 57.86C49.1396 63.35 45.7496 62.89 45.8696 60.27C45.9396 58.57 47.0796 57.49 47.9296 56.91C48.4696 56.53 49.4296 56.43 49.9296 56.42C50.4096 56.01 50.7796 53.01 46.8396 54C42.8896 54.99 38.1396 58.87 33.6096 63.86C29.0796 68.86 22.0296 78.33 20.2896 88.27C19.4796 92.88 20.0296 101.28 30.9396 101.18C40.1996 101.1 53.8596 95 66.4096 95.11C71.2796 95.15 75.5196 96.46 78.8296 98.5C82.0896 100.51 85.9796 103.43 87.3596 105.42Z" fill="black"/>
<path d="M174.43 97.9099C173.71 97.9099 173.07 98.0699 172.48 98.3999C171.89 98.7399 171.43 99.1899 171.09 99.7599C170.75 100.33 170.59 100.96 170.59 101.62C170.59 102.28 170.75 102.93 171.09 103.48C171.43 104.05 171.89 104.5 172.48 104.83C173.07 105.17 173.7 105.33 174.43 105.33C175.16 105.33 175.8 105.17 176.39 104.83C176.98 104.5 177.42 104.05 177.76 103.48C178.1 102.92 178.26 102.3 178.26 101.62C178.26 100.94 178.1 100.33 177.76 99.7599C177.42 99.1899 176.97 98.7399 176.39 98.3999C175.8 98.0699 175.15 97.9099 174.43 97.9099ZM174.43 104.62C173.84 104.62 173.31 104.48 172.86 104.23C172.4 103.97 172.04 103.62 171.78 103.17C171.52 102.72 171.4 102.2 171.4 101.63C171.4 101.06 171.52 100.55 171.78 100.11C172.04 99.6599 172.39 99.2899 172.86 99.0299C173.32 98.7699 173.84 98.6499 174.43 98.6499C175.02 98.6499 175.53 98.7699 176 99.0299C176.46 99.2899 176.82 99.6599 177.08 100.11C177.34 100.56 177.46 101.08 177.46 101.63C177.46 102.18 177.34 102.72 177.08 103.17C176.82 103.62 176.47 103.97 176.02 104.23C175.56 104.49 175.03 104.62 174.44 104.62H174.43ZM176.04 100.97C176.04 100.67 175.94 100.41 175.75 100.21C175.55 100.01 175.29 99.9099 174.96 99.9099H173.01V103.27H173.87V102.04H174.52L175.31 103.27H176.29L175.41 101.96C175.61 101.86 175.76 101.73 175.87 101.55C175.98 101.37 176.03 101.18 176.03 100.96L176.04 100.97ZM173.88 100.64H174.81C174.92 100.64 175 100.67 175.07 100.72C175.14 100.79 175.17 100.87 175.17 100.96C175.17 101.05 175.14 101.14 175.07 101.19C175 101.26 174.92 101.29 174.81 101.29H173.88V100.64Z" fill="black"/>
<path d="M74.2895 16.22L70.9395 25.57L67.5695 16.22H64.7495L69.2795 28.22H72.4995L77.0295 16.22H74.2795H74.2895ZM86.8195 26.23C86.6195 26.23 86.4495 26.18 86.3395 26.06C86.2095 25.96 86.1395 25.79 86.1395 25.58V22.58C86.1395 21.4 85.7595 20.48 84.9895 19.81C84.2195 19.16 83.1595 18.83 81.7695 18.83C81.0495 18.83 80.3195 18.93 79.5995 19.11C78.8795 19.31 78.2295 19.61 77.6795 20.03L78.8995 21.88C79.3495 21.56 79.8195 21.35 80.2995 21.2C80.7795 21.07 81.2295 21 81.6495 21C82.2695 21 82.7495 21.13 83.1195 21.4C83.4695 21.68 83.6695 22.05 83.7195 22.53H81.8895C80.2695 22.53 79.0595 22.8 78.2595 23.31C77.4395 23.84 77.0395 24.58 77.0395 25.51C77.0395 26.14 77.2095 26.68 77.5595 27.11C77.8895 27.54 78.3395 27.86 78.9095 28.08C79.4795 28.3 80.0895 28.41 80.7795 28.41C81.4695 28.41 82.0595 28.29 82.6095 28.08C83.1595 27.87 83.6295 27.53 83.9895 27.05C84.1695 27.47 84.4695 27.77 84.8895 27.97C85.3095 28.19 85.7895 28.29 86.3195 28.29C86.6695 28.29 86.9695 28.24 87.1995 28.12V26.19C87.0695 26.22 86.9295 26.24 86.8195 26.24V26.23ZM81.0395 26.45C80.5595 26.45 80.1695 26.35 79.9195 26.15C79.6695 25.97 79.5395 25.7 79.5395 25.38C79.5395 25.06 79.7095 24.81 80.0595 24.61C80.3895 24.41 81.0295 24.31 81.9595 24.31H83.7295C83.6495 25.03 83.3495 25.56 82.8295 25.91C82.3095 26.26 81.7095 26.44 81.0495 26.44L81.0395 26.45Z" fill="black"/>
<path d="M93.9697 18.83C93.4197 18.83 92.8997 18.91 92.4197 19.08C91.9197 19.26 91.4898 19.53 91.1398 19.91V19.04H88.7598V28.2H91.2598V22.95C91.2598 22.4 91.4597 21.95 91.8597 21.63C92.2397 21.31 92.7598 21.15 93.3898 21.15C93.9898 21.15 94.4598 21.3 94.7698 21.6C95.0898 21.92 95.2498 22.35 95.2498 22.92V28.2H97.7498V22.38C97.7498 21.68 97.5798 21.06 97.2698 20.51C96.9598 19.96 96.4998 19.54 95.9398 19.24C95.3598 18.96 94.7097 18.81 93.9697 18.81V18.83ZM100.02 28.21H102.52V19.05H100.02V28.21ZM101.27 18.13C101.69 18.13 102.05 18 102.34 17.73C102.63 17.46 102.76 17.13 102.76 16.71C102.76 16.29 102.63 15.96 102.34 15.69C102.05 15.42 101.69 15.29 101.27 15.29C100.85 15.29 100.5 15.42 100.22 15.69C99.9397 15.96 99.7897 16.29 99.7897 16.71C99.7897 17.13 99.9397 17.46 100.22 17.73C100.5 18 100.85 18.13 101.27 18.13ZM105 15.68V25.89C105 26.64 105.25 27.24 105.73 27.67C106.21 28.12 106.85 28.34 107.65 28.34C108.22 28.34 108.68 28.26 109.03 28.11V25.94C108.78 26.04 108.53 26.09 108.28 26.09C107.76 26.09 107.5 25.84 107.5 25.36V15.68H105ZM110.55 15.68V25.89C110.55 26.64 110.8 27.24 111.28 27.67C111.76 28.12 112.4 28.34 113.2 28.34C113.77 28.34 114.23 28.26 114.58 28.11V25.94C114.33 26.04 114.08 26.09 113.83 26.09C113.31 26.09 113.05 25.84 113.05 25.36V15.68H110.55Z" fill="black"/>
<path d="M125.3 26.2301C125.1 26.2301 124.93 26.1801 124.82 26.0601C124.69 25.9601 124.62 25.7901 124.62 25.5801V22.5801C124.62 21.4001 124.24 20.4801 123.47 19.8101C122.7 19.1601 121.64 18.8301 120.25 18.8301C119.53 18.8301 118.8 18.9301 118.08 19.1101C117.36 19.3101 116.71 19.6101 116.16 20.0301L117.38 21.8801C117.83 21.5601 118.3 21.3501 118.78 21.2001C119.26 21.0701 119.71 21.0001 120.13 21.0001C120.75 21.0001 121.23 21.1301 121.6 21.4001C121.95 21.6801 122.15 22.0501 122.2 22.5301H120.37C118.75 22.5301 117.54 22.8001 116.74 23.3101C115.92 23.8401 115.52 24.5801 115.52 25.5101C115.52 26.1401 115.69 26.6801 116.04 27.1101C116.37 27.5401 116.82 27.8601 117.39 28.0801C117.96 28.3001 118.57 28.4101 119.26 28.4101C119.95 28.4101 120.54 28.2901 121.09 28.0801C121.64 27.8701 122.11 27.5301 122.47 27.0501C122.65 27.4701 122.95 27.7701 123.37 27.9701C123.79 28.1901 124.27 28.2901 124.8 28.2901C125.15 28.2901 125.45 28.2401 125.68 28.1201V26.1901C125.55 26.2201 125.41 26.2401 125.3 26.2401V26.2301ZM119.52 26.4501C119.04 26.4501 118.65 26.3501 118.4 26.1501C118.15 25.9701 118.02 25.7001 118.02 25.3801C118.02 25.0601 118.19 24.8101 118.54 24.6101C118.87 24.4101 119.51 24.3101 120.44 24.3101H122.21C122.13 25.0301 121.83 25.5601 121.31 25.9101C120.79 26.2601 120.19 26.4401 119.53 26.4401L119.52 26.4501Z" fill="black"/>
<path d="M86.4696 161.1C86.4696 152.86 79.7896 146.18 71.5496 146.18C63.3096 146.18 56.6396 152.86 56.6396 161.1C56.6396 169.34 63.3196 176.02 71.5496 176.02C79.7796 176.02 86.4696 169.34 86.4696 161.1Z" fill="#F40009"/>
<path d="M77.0496 157.31C77.0496 157.31 76.5495 157.51 75.9595 158.16C75.3695 158.81 75.0295 159.53 75.2895 159.72C75.3895 159.79 75.6096 159.81 76.0196 159.44C76.3396 159.16 76.6596 158.79 76.8796 158.25C77.1396 157.61 77.0596 157.32 77.0596 157.31M80.2596 158.47C79.6096 158.14 79.1396 157.73 78.6396 157.48C78.1696 157.24 77.8595 157.14 77.4795 157.19C77.4195 157.19 77.3196 157.23 77.3196 157.23C77.3196 157.23 77.5196 157.9 76.7396 159.03C75.9496 160.17 75.2295 160.17 75.0295 159.85C74.8195 159.52 75.0896 158.84 75.5496 158.25C76.0296 157.62 76.8796 157.1 76.8796 157.1C76.8796 157.1 76.6096 156.94 75.9496 157.31C75.2996 157.68 74.1895 158.55 73.1495 160.02C72.1195 161.49 71.9096 162.3 71.7596 162.94C71.6096 163.57 71.7496 164.26 72.4496 164.26C73.1496 164.26 73.9795 163.18 74.2095 162.81C74.6395 162.11 74.9196 161.04 74.3296 161.19C74.0396 161.26 73.8095 161.58 73.6595 161.89C73.5095 162.21 73.4496 162.51 73.4496 162.51C73.4496 162.51 73.2096 162.6 72.8796 162.84C72.5496 163.08 72.3395 163.32 72.3395 163.32C72.3395 163.32 72.3396 162.81 72.7496 161.99C73.1596 161.17 73.8996 160.79 74.3196 160.75C74.6996 160.72 75.1995 161.04 74.7795 162.24C74.3595 163.43 73.1196 164.88 71.8196 164.9C70.6196 164.92 69.8396 163.39 71.4996 160.71C73.3396 157.76 75.5095 156.85 76.2195 156.75C76.9195 156.65 77.1495 156.96 77.1495 156.96C77.1495 156.96 77.7396 156.69 78.4896 156.74C79.3496 156.8 80.0196 157.41 80.8896 157.83C80.6596 158.05 80.4396 158.28 80.2496 158.5M84.1096 157.5C83.5196 157.88 82.6895 158.23 81.8995 158.15C81.6995 158.36 81.4796 158.6 81.2696 158.86C82.6396 159.13 83.8496 158.28 84.4896 157.56C84.8896 157.11 85.0796 156.7 85.0796 156.7C85.0796 156.7 84.6996 157.12 84.1096 157.5ZM82.2795 161.37L82.3096 161.31C82.3096 161.31 82.2896 161.19 82.1796 161.19C82.0496 161.19 81.8695 161.21 81.3995 161.73C80.9395 162.24 80.6495 162.69 80.4095 163.14C80.1395 163.63 80.0296 163.99 80.1896 164.09C80.2296 164.12 80.2995 164.12 80.3495 164.11C80.4495 164.09 80.5696 163.99 80.7496 163.78C80.8296 163.68 80.9295 163.55 81.0395 163.39C81.3495 162.97 82.1295 161.64 82.2795 161.37ZM77.4195 161.94C77.4995 161.74 77.5996 161.34 77.3896 161.18C77.1696 161.01 76.5995 161.4 76.5995 161.81C76.5995 162.22 76.9995 162.41 77.0995 162.43C77.1495 162.44 77.1696 162.44 77.1996 162.4C77.2196 162.37 77.3495 162.15 77.4195 161.94ZM76.9896 162.69C76.9896 162.69 76.7895 162.6 76.5995 162.44C76.4095 162.28 76.3096 162.1 76.3096 162.09C76.3096 162.08 76.2895 162.09 76.2795 162.09C76.2795 162.1 76.2396 162.13 75.9296 162.58C75.6296 163.02 75.1695 163.94 75.5895 164.09C75.8595 164.19 76.3096 163.72 76.5496 163.41C76.7796 163.12 76.9896 162.75 76.9996 162.72C77.0096 162.7 76.9996 162.69 76.9896 162.68M81.7496 163.74C81.6396 163.92 81.5096 164.27 81.8796 164.05C82.3396 163.78 82.9896 162.79 82.9896 162.79H83.2795C83.2795 162.79 82.8896 163.41 82.3896 163.97C81.9296 164.48 81.3595 164.95 80.9595 164.91C80.4895 164.86 80.6396 164.24 80.6396 164.24C80.6396 164.24 79.9696 164.95 79.5096 164.9C78.8896 164.83 79.0796 164.06 79.0796 164.06C79.0796 164.06 78.3795 164.93 77.8995 164.9C77.1495 164.86 77.3295 163.94 77.5395 163.29C77.6495 162.94 77.7496 162.67 77.7496 162.67C77.7496 162.67 77.6796 162.69 77.5196 162.71C77.4396 162.72 77.2795 162.73 77.2795 162.73C77.2795 162.73 76.9695 163.28 76.7195 163.61C76.4695 163.94 75.3995 165.09 74.7795 164.86C74.1995 164.65 74.3895 163.76 74.7295 163.06C75.2195 162.03 76.6095 160.55 77.4095 160.75C78.2395 160.95 77.4296 162.46 77.4296 162.46C77.4496 162.46 77.4895 162.47 77.5895 162.46C77.7495 162.43 77.8896 162.37 77.8896 162.37C77.8896 162.37 78.7196 160.63 79.6396 159.48C80.5596 158.34 82.3896 156.37 83.1096 156.85C83.2896 156.97 83.2095 157.37 82.9695 157.86C82.8695 157.89 82.7596 157.92 82.6396 157.95C82.7996 157.66 82.8996 157.42 82.9296 157.25C83.0396 156.66 81.6596 157.9 80.6796 159.24C79.6996 160.58 79.1096 161.79 79.1096 161.79C79.1096 161.79 79.3096 161.68 79.6196 161.43C79.9396 161.17 80.3796 160.76 80.8696 160.26C81.1996 159.93 81.5796 159.5 81.9296 159.03C82.0396 159.03 82.1396 159.01 82.2396 159C81.8396 159.54 81.4196 160.03 81.0696 160.39C80.6796 160.79 80.2496 161.21 79.8796 161.53C79.2896 162.02 78.8395 162.3 78.8395 162.3C78.8395 162.3 77.9796 164.03 78.4496 164.14C78.7296 164.21 79.2696 163.37 79.2696 163.37C79.2696 163.37 79.9795 162.29 80.3995 161.8C80.9795 161.14 81.4896 160.76 81.9896 160.75C82.2796 160.75 82.4496 161.05 82.4496 161.05L82.5895 160.84H83.4396C83.4396 160.84 81.8595 163.52 81.7295 163.72M84.0796 157.48C83.4896 157.86 82.6596 158.21 81.8696 158.13C81.6696 158.34 81.4496 158.58 81.2396 158.84C82.6096 159.11 83.8195 158.26 84.4595 157.54C84.8595 157.09 85.0496 156.68 85.0496 156.68C85.0496 156.68 84.6696 157.1 84.0796 157.48ZM72.1996 158.8H71.3896L70.9396 159.54H71.7396L72.1896 158.8H72.1996ZM68.3896 161.35C68.7296 160.88 69.6796 159.24 69.6796 159.24C69.6796 159.24 69.6596 159.12 69.5496 159.12C69.4196 159.12 69.1996 159.16 68.7696 159.7C68.3396 160.24 67.9996 160.67 67.7596 161.12C67.4896 161.61 67.3795 161.95 67.5295 162.05C67.5695 162.07 67.6396 162.08 67.6896 162.07C67.7896 162.04 67.9195 161.94 68.0995 161.74C68.1795 161.64 68.2796 161.52 68.3896 161.36M64.0696 159.14C63.8496 158.97 63.2795 159.36 63.2795 159.77C63.2795 160.18 63.7895 160.3 63.8595 160.3C63.8595 160.3 63.9196 160.31 63.9396 160.27C63.9496 160.24 64.0195 160.11 64.0995 159.91C64.1795 159.7 64.2796 159.3 64.0696 159.15M63.7295 160.57C63.7295 160.57 63.4995 160.5 63.2895 160.37C63.0795 160.24 62.9895 160.04 62.9795 160.03C62.9795 160.01 62.9596 160.03 62.9496 160.03C62.9496 160.04 62.8995 160.1 62.5895 160.54C62.2895 160.98 61.8396 161.89 62.2596 162.05C62.5296 162.15 62.9795 161.68 63.2195 161.37C63.4395 161.08 63.7095 160.63 63.7295 160.61C63.7395 160.58 63.7295 160.58 63.7195 160.57M70.2996 160.84H70.5895C70.5895 160.84 69.1095 162.97 68.2795 162.88C67.8095 162.83 67.9496 162.25 67.9496 162.25C67.9496 162.25 67.2896 163.02 66.6896 162.86C66.1496 162.72 66.4996 161.81 66.4996 161.81C66.4396 161.84 65.2596 163.17 64.4296 162.85C63.5596 162.52 64.0096 161.4 64.1796 161.07C64.3196 160.79 64.4695 160.51 64.4695 160.51C64.4695 160.51 64.3396 160.55 64.2496 160.57C64.1696 160.59 64.0395 160.61 64.0395 160.61C64.0395 160.61 63.6296 161.28 63.3796 161.61C63.1296 161.94 62.0596 163.09 61.4396 162.86C60.8096 162.63 60.9696 161.75 61.3196 161.06C61.8896 159.93 63.2496 158.54 64.0596 158.74C64.8896 158.95 64.1996 160.29 64.1996 160.29C64.1996 160.29 64.3596 160.31 64.7596 160.04C65.3296 159.65 66.0696 158.61 66.8896 158.74C67.2696 158.8 67.6196 159.19 67.1396 159.93C66.9896 160.17 66.7196 160.38 66.5196 160.17C66.3996 160.04 66.4996 159.8 66.6296 159.64C66.8096 159.41 67.0696 159.44 67.0696 159.44C67.0696 159.44 67.1995 159.13 66.8595 159.14C66.5895 159.14 65.8896 159.79 65.4896 160.44C65.1296 161.03 64.5796 162.05 65.1296 162.27C65.6296 162.47 66.5895 161.34 67.0395 160.74C67.4795 160.14 68.4895 158.79 69.3395 158.74C69.6295 158.72 69.8096 158.98 69.8096 158.98L69.9095 158.82H70.7596C70.7596 158.82 69.1595 161.49 69.0395 161.69C68.9395 161.85 68.8095 162.2 69.1695 162C69.5295 161.8 70.2795 160.83 70.2795 160.83M69.8196 165.1C69.1796 164.65 68.3996 164.45 67.6896 164.48C66.9696 164.51 66.6495 165.04 66.6495 165.04C66.3295 164.48 65.6896 164.13 64.6996 164.14C63.0996 164.16 61.5196 164.9 60.2596 164.9C58.9996 164.9 58.1796 164.14 58.1996 162.8C58.2496 160.44 60.2395 158.32 61.7295 157.36C62.5895 156.81 63.2996 156.65 63.7696 156.7C64.1096 156.74 64.5196 157.13 64.2596 157.71C63.8796 158.57 63.3496 158.49 63.3696 158.09C63.3796 157.82 63.5596 157.66 63.6896 157.57C63.7796 157.51 63.9196 157.5 63.9996 157.49C64.0796 157.43 64.1296 156.96 63.5196 157.11C62.9096 157.26 62.1695 157.86 61.4695 158.64C60.7695 159.42 59.6695 160.89 59.3995 162.43C59.2695 163.15 59.3596 164.45 61.0496 164.44C62.4896 164.43 64.6096 163.48 66.5596 163.5C67.3196 163.5 67.9796 163.71 68.4896 164.03C68.9996 164.34 69.5996 164.8 69.8096 165.11" fill="white"/>
<path d="M83.7695 163.39C83.6195 163.39 83.4895 163.42 83.3595 163.49C83.2395 163.56 83.1395 163.65 83.0695 163.77C82.9995 163.89 82.9595 164.02 82.9595 164.16C82.9595 164.3 82.9895 164.43 83.0695 164.55C83.1395 164.67 83.2395 164.76 83.3595 164.83C83.4795 164.9 83.6195 164.94 83.7695 164.94C83.9195 164.94 84.0595 164.91 84.1795 164.83C84.2995 164.76 84.3995 164.67 84.4695 164.55C84.5395 164.43 84.5795 164.3 84.5795 164.16C84.5795 164.02 84.5495 163.89 84.4695 163.77C84.3995 163.65 84.3095 163.56 84.1795 163.49C84.0595 163.42 83.9195 163.39 83.7695 163.39ZM83.7695 164.79C83.6495 164.79 83.5395 164.76 83.4395 164.71C83.3395 164.66 83.2695 164.58 83.2195 164.49C83.1695 164.4 83.1395 164.29 83.1395 164.17C83.1395 164.05 83.1695 163.95 83.2195 163.85C83.2695 163.75 83.3495 163.68 83.4395 163.63C83.5395 163.58 83.6395 163.55 83.7695 163.55C83.8995 163.55 83.9995 163.58 84.0995 163.63C84.1995 163.68 84.2695 163.76 84.3195 163.85C84.3695 163.94 84.3995 164.05 84.3995 164.17C84.3995 164.29 84.3695 164.4 84.3195 164.49C84.2695 164.58 84.1895 164.66 84.0995 164.71C83.9995 164.76 83.8895 164.79 83.7695 164.79ZM84.0995 164.03C84.0995 163.97 84.0795 163.91 84.0395 163.87C83.9995 163.83 83.9395 163.81 83.8795 163.81H83.4695V164.51H83.6495V164.25H83.7895L83.9495 164.51H84.1495L83.9695 164.24C83.9695 164.24 84.0395 164.19 84.0695 164.15C84.0995 164.11 84.0995 164.07 84.0995 164.03ZM83.6495 163.96H83.8395C83.8395 163.96 83.8795 163.96 83.8895 163.98C83.8995 163.99 83.9095 164.01 83.9095 164.03C83.9095 164.05 83.9095 164.07 83.8895 164.08C83.8795 164.09 83.8595 164.1 83.8395 164.1H83.6495V163.96Z" fill="white"/>
<path d="M91.4897 159.4V160.79H93.7897V161.72H91.4897V164.14H90.4497V158.47H94.8297V159.4H91.4897Z" fill="black"/>
<path d="M100.86 163.2V164.14H96.5498V158.47H97.5898V163.2H100.86Z" fill="black"/>
<path d="M105.92 161.87L104.96 159.37L104 161.87H105.93H105.92ZM106.26 162.78H103.64L103.12 164.14H102.03L104.32 158.46H105.6L107.89 164.14H106.79L106.27 162.78H106.26Z" fill="black"/>
<path d="M114.08 158.47L111.89 164.14H110.61L108.42 158.47H109.55L111.26 163.11L112.98 158.47H114.08Z" fill="black"/>
<path d="M119.15 163.04C119.44 162.87 119.67 162.64 119.83 162.33C119.99 162.03 120.07 161.69 120.07 161.3C120.07 160.91 119.99 160.57 119.83 160.27C119.67 159.97 119.44 159.73 119.15 159.56C118.86 159.39 118.53 159.31 118.16 159.31C117.79 159.31 117.47 159.39 117.18 159.56C116.89 159.73 116.67 159.96 116.5 160.27C116.34 160.57 116.25 160.91 116.25 161.3C116.25 161.69 116.33 162.03 116.5 162.33C116.67 162.63 116.89 162.87 117.18 163.04C117.47 163.21 117.8 163.29 118.16 163.29C118.52 163.29 118.86 163.21 119.15 163.04ZM116.62 163.87C116.17 163.62 115.81 163.27 115.56 162.83C115.3 162.38 115.18 161.88 115.18 161.31C115.18 160.74 115.31 160.23 115.56 159.79C115.82 159.34 116.17 158.99 116.62 158.74C117.07 158.49 117.59 158.37 118.16 158.37C118.73 158.37 119.25 158.5 119.7 158.74C120.15 158.99 120.51 159.34 120.76 159.79C121.02 160.24 121.14 160.74 121.14 161.31C121.14 161.88 121.01 162.38 120.76 162.83C120.5 163.28 120.15 163.63 119.7 163.87C119.25 164.12 118.73 164.25 118.16 164.25C117.59 164.25 117.07 164.13 116.62 163.87Z" fill="black"/>
<path d="M124.02 160.95H125.88C126.16 160.95 126.369 160.88 126.529 160.74C126.689 160.6 126.76 160.41 126.76 160.17C126.76 159.93 126.679 159.75 126.529 159.61C126.369 159.47 126.16 159.4 125.88 159.4H124.02V160.95ZM125.49 161.87H124.02V164.14H123V158.46H126.06C126.42 158.46 126.73 158.54 127 158.69C127.26 158.84 127.469 159.05 127.609 159.3C127.749 159.56 127.82 159.85 127.82 160.16C127.82 160.55 127.71 160.89 127.5 161.19C127.29 161.49 126.989 161.69 126.609 161.79L128.2 164.13H126.99L125.5 161.86L125.49 161.87Z" fill="black"/>
<path d="M130.53 163.99C130.07 163.84 129.69 163.63 129.4 163.36L130.04 162.56C130.32 162.8 130.62 162.98 130.95 163.1C131.28 163.22 131.62 163.28 131.98 163.28C132.36 163.28 132.66 163.21 132.9 163.06C133.14 162.91 133.25 162.72 133.25 162.49C133.25 162.32 133.18 162.18 133.03 162.07C132.89 161.95 132.65 161.86 132.32 161.8L131.13 161.57C130.62 161.47 130.23 161.29 129.98 161.03C129.72 160.77 129.59 160.45 129.59 160.07C129.59 159.72 129.69 159.42 129.89 159.17C130.09 158.91 130.37 158.71 130.73 158.57C131.09 158.43 131.49 158.36 131.95 158.36C132.37 158.36 132.77 158.42 133.17 158.55C133.56 158.67 133.91 158.87 134.2 159.14L133.6 159.9C133.35 159.69 133.08 159.54 132.8 159.44C132.51 159.34 132.22 159.29 131.92 159.29C131.56 159.29 131.26 159.36 131.02 159.49C130.78 159.62 130.66 159.79 130.66 160C130.66 160.14 130.73 160.26 130.86 160.36C130.99 160.46 131.22 160.54 131.55 160.6L132.68 160.81C133.22 160.92 133.63 161.11 133.91 161.4C134.19 161.69 134.33 162.03 134.33 162.43C134.33 162.78 134.24 163.09 134.05 163.36C133.86 163.63 133.59 163.84 133.24 163.99C132.89 164.14 132.48 164.21 132.02 164.21C131.5 164.21 131.01 164.13 130.54 163.98" fill="black"/>
</svg>
