<svg width="191" height="190" viewBox="0 0 191 190" fill="none" xmlns="http://www.w3.org/2000/svg">
<path d="M190.8 0H0.879883V189.92H190.8V0Z" fill="#EDEDED"/>
<path d="M156.49 69.36C160.7 69.36 162.54 74 162.54 78.09C162.54 85.42 152.08 85.37 149.83 85.37C149.83 72.32 153.49 69.35 156.49 69.35M159.72 99.7599C151.17 99.7599 150.52 91.06 150.08 88.96C155.24 88.96 172.65 88.96 172.66 78.04C172.66 70.22 164.11 66.37 157.49 66.37C145.04 66.37 137.06 73.86 137.06 86.59C137.06 94.96 140.69 98.6 141.83 99.84C142.97 101.01 144.53 102.28 146.59 103.33C148.45 104.21 151.74 105.33 156.34 105.34C169.51 105.34 172.97 95.2199 173.42 93.8799C173.42 93.8799 168.28 99.7699 159.73 99.7599" fill="#EC627E"/>
<path d="M81.6196 102.42C74.0596 102.42 73.8996 90.0499 73.9096 85.3199C73.9096 82.4099 73.8296 69.06 82.0496 69.06C89.2496 69.06 89.6496 80.52 89.6396 85.74C89.6396 90.96 88.9696 102.41 81.6196 102.41M82.5796 66.1899C71.9096 66.1799 61.2996 72.2799 61.2796 85.8199C61.2796 87.1299 61.4396 88.59 61.6496 89.71C61.7596 90.37 62.0896 91.57 62.4196 92.65C59.9896 95.85 55.3296 100.48 48.4796 100.48C39.0596 100.48 32.3196 93.73 32.3296 77.65C32.3396 61.57 38.6496 53.17 47.1196 53.17C57.9696 53.17 62.7996 65.69 63.5996 67.55V53.52L57.7096 51.5699C55.7296 50.9099 53.6996 50.4 51.6396 50.09C50.1296 49.86 48.4796 49.71 46.6496 49.71C30.1196 49.71 18.0496 62.29 18.0396 78.55C18.0196 94.72 28.9896 105.56 44.8096 105.56C55.7996 105.56 61.6596 99.96 64.2296 96.68C66.2696 99.85 71.2996 105.29 81.7196 105.3C96.1296 105.3 103.42 96.07 103.42 85.46C103.44 74.89 96.5596 66.19 82.5896 66.18" fill="#EC627E"/>
<path d="M140.11 65.92H133.11L128.37 71.45C128.26 71.6 128.14 71.75 127.99 71.92C127.6 72.37 122.36 78.4999 119.51 81.8199L117.74 83.89C117.74 83.89 117.72 83.91 117.72 83.92V83.9L117.7 83.92L117.72 52.35H105.8V58.27C105.8 59.73 105.77 104.17 105.77 104.17H117.69V92L120.47 88.78L129.24 104.18H141.24L127.28 80.78L140.1 65.9399L140.11 65.92Z" fill="#EC627E"/>
<path d="M136.97 48.83C136.79 49.1 136.62 49.42 136.29 50.07C135.96 50.71 135.3 52.58 134.76 53.87C133.83 56.12 132.43 58.13 130.72 59.55C129.3 60.75 128.57 61.25 127.42 61.65C127.42 61.65 127.85 61.81 128.84 61.86C132.64 62.02 135.85 60.33 137.66 57.79C139.33 55.43 140.54 52.25 138.61 49.37C136.81 46.67 128.86 45.58 124.55 49.28C122.18 51.32 123 54.41 126.36 53.11C126.95 52.85 127.49 52.4 127.7 51.99C129.63 52.7 131.94 51.2 131.94 51.2C131.94 51.2 130.3 54.88 126.31 55.41C122.24 55.95 121.09 53.81 121.14 52.32C121.54 47.32 131.37 44.4 137.24 46.95C142.05 49.04 143.07 52.72 142.09 55.65C140.64 59.97 136.95 61.82 133.44 62.57C129.66 63.39 126.58 62.65 125.56 62.39C125.12 62.27 124.92 62.14 124.92 62.14C124.92 62.14 126.26 61.22 127.55 59.66C128.64 58.34 129.77 56.74 130.57 55.37C132.41 52.21 134.86 49.69 136.96 48.83M149.28 49.44C149.64 50.07 149.23 50.92 148.51 51.34C147.78 51.77 146.82 51.67 146.46 51.04C146.1 50.41 146.46 49.58 147.24 49.13C148.02 48.69 148.92 48.82 149.27 49.45M146.54 60.11C145.69 60.98 144.81 61.77 143.79 62.31C142.95 62.67 141.9 63.04 141.09 62.38C140.7 62.02 140.67 61.42 140.8 60.92C140.95 60.39 141.23 59.9 141.49 59.42C141.49 59.42 144.96 53.06 144.99 53C145.03 52.93 145.1 52.93 145.1 52.93C145.72 52.93 147.58 52.93 147.65 52.93C147.71 52.93 147.67 53.05 147.67 53C147.7 52.96 146.47 55.26 146.47 55.26C146.47 55.26 143.86 60.08 143.75 60.28C143.49 60.78 143.73 61.16 144.47 60.69C145.39 60.11 145.88 59.51 146.43 58.79C147.17 57.83 147.58 56.54 148.85 55.19C150.09 53.87 151.08 53.26 152.13 52.9C153.34 52.48 154.68 52.77 155.01 53.67C155.29 54.43 154.87 55.49 154.33 56.12C153.05 57.59 151.3 58.39 149.49 58.8C149.18 59.24 148.68 61.04 150.3 61.01C151.21 60.98 151.96 60.48 152.78 59.95C154.2 58.95 155.5 57.69 156.42 56.26C156.86 55.48 157.34 54.68 157.73 53.89H156.14L156.7 52.92H158.27L160.02 49.85H162.6C162.6 49.85 161.12 52.65 160.98 52.92C161.36 52.92 162.96 52.92 162.96 52.92L162.48 53.89H160.46L160.19 54.31C160.19 54.31 158.04 58.29 157.29 59.65C156.66 60.77 157.13 60.95 157.6 60.75C158.22 60.49 159 59.65 159.27 59.38C159.74 58.83 160.21 58.29 160.6 57.72C160.96 57.72 161.46 57.72 161.61 57.72C160.39 59.73 158.51 62.04 156.14 62.67C155.5 62.77 154.72 62.79 154.27 62.3C153.83 61.84 153.86 61.08 154.08 60.53C154.15 60.35 154.24 60.15 154.29 60.08C154.32 60.01 154.28 59.97 154.2 60.05C152.74 61.41 150.95 62.73 148.97 62.75C148.17 62.75 147.25 62.4 146.85 61.61C146.45 60.83 146.54 60.3 146.54 60.1M151.36 55.71C150.93 56.19 150.46 56.84 150.1 57.6C150.1 57.6 152.26 57.05 153.44 55.55C153.69 55.21 154.15 54.6 153.85 54.23C153.76 54.11 153.14 53.73 151.37 55.71" fill="#EC627E"/>
<path d="M176.079 97.4399C175.309 97.4399 174.62 97.62 173.99 97.97C173.36 98.34 172.87 98.82 172.5 99.43C172.13 100.04 171.959 100.72 171.959 101.43C171.959 102.14 172.14 102.83 172.5 103.43C172.87 104.04 173.36 104.53 173.99 104.88C174.62 105.25 175.299 105.42 176.079 105.42C176.859 105.42 177.55 105.24 178.18 104.88C178.81 104.53 179.289 104.05 179.649 103.43C180.019 102.83 180.19 102.16 180.19 101.43C180.19 100.7 180.009 100.04 179.649 99.43C179.279 98.82 178.8 98.33 178.18 97.97C177.55 97.62 176.849 97.4399 176.079 97.4399ZM176.079 104.64C175.449 104.64 174.879 104.49 174.399 104.22C173.899 103.94 173.52 103.56 173.25 103.08C172.97 102.6 172.839 102.04 172.839 101.43C172.839 100.82 172.97 100.28 173.25 99.79C173.53 99.31 173.909 98.91 174.399 98.64C174.899 98.36 175.449 98.23 176.079 98.23C176.709 98.23 177.259 98.36 177.759 98.64C178.259 98.92 178.639 99.31 178.909 99.79C179.189 100.27 179.319 100.83 179.319 101.43C179.319 102.03 179.189 102.6 178.909 103.08C178.629 103.56 178.249 103.94 177.769 104.22C177.269 104.5 176.699 104.64 176.079 104.64ZM177.799 100.73C177.799 100.41 177.7 100.13 177.49 99.91C177.27 99.69 176.989 99.59 176.639 99.59H174.549V103.2H175.469V101.89H176.169L177.019 103.2H178.069L177.12 101.8C177.34 101.7 177.5 101.55 177.62 101.36C177.74 101.17 177.799 100.97 177.799 100.73ZM175.479 100.38H176.469C176.589 100.38 176.67 100.41 176.75 100.47C176.82 100.54 176.849 100.63 176.849 100.73C176.849 100.83 176.82 100.92 176.75 100.98C176.68 101.05 176.589 101.08 176.469 101.08H175.479V100.38Z" fill="#EC627E"/>
<path d="M70.6198 9.70996H60.0098V12.06H64.0098V21.71H66.6298V12.06H70.6298V9.70996H70.6198ZM83.4398 12.54L81.2198 19.21L79.0698 12.59H76.6398L74.4598 19.24L72.2598 12.54H69.6098L72.9398 21.7H75.8598L77.8298 15.77L79.7798 21.7H82.6598L85.9898 12.54H83.4398Z" fill="#EC627E"/>
<path d="M87.3096 21.71H89.8096V12.55H87.3096V21.71ZM88.5596 11.63C88.9796 11.63 89.3396 11.5 89.6296 11.23C89.9196 10.96 90.0496 10.63 90.0496 10.21C90.0496 9.79002 89.9196 9.46 89.6296 9.19C89.3396 8.92 88.9796 8.79004 88.5596 8.79004C88.1396 8.79004 87.7896 8.92 87.5096 9.19C87.2296 9.46 87.0796 9.79002 87.0796 10.21C87.0796 10.63 87.2296 10.96 87.5096 11.23C87.7896 11.5 88.1396 11.63 88.5596 11.63ZM92.6896 18.7401L91.4696 20.5601C91.9896 20.9801 92.6896 21.3101 93.5496 21.5601C94.3996 21.8101 95.2496 21.9301 96.0996 21.9301C96.9496 21.9301 97.6996 21.8 98.3496 21.55C98.9796 21.3 99.4696 20.93 99.8196 20.45C100.17 19.98 100.34 19.43 100.34 18.8C100.34 17.3 99.3696 16.4 97.4196 16.1L95.4196 15.78C95.0496 15.71 94.7896 15.63 94.5996 15.53C94.4196 15.45 94.3296 15.31 94.3296 15.16C94.3296 14.94 94.4796 14.74 94.7996 14.59C95.1196 14.44 95.4996 14.3701 95.9796 14.3701C96.4996 14.3701 97.0496 14.45 97.5996 14.64C98.1496 14.83 98.5996 15.0401 98.9696 15.3101L100.19 13.54C99.5696 13.11 98.9096 12.79 98.1596 12.61C97.4096 12.43 96.6896 12.33 95.9796 12.33C95.1296 12.33 94.3796 12.45 93.7596 12.7C93.1396 12.95 92.6596 13.32 92.3296 13.77C91.9796 14.22 91.8096 14.75 91.8096 15.35C91.8096 16.05 92.0396 16.63 92.5296 17.1C93.0096 17.58 93.7596 17.9 94.7796 18.07L97.0296 18.44C97.5496 18.52 97.8096 18.71 97.8096 19.02C97.8096 19.25 97.6796 19.4501 97.3896 19.6201C97.0996 19.7901 96.6696 19.8701 96.1096 19.8701C95.4896 19.8701 94.8896 19.77 94.2796 19.57C93.6696 19.37 93.1496 19.1001 92.6996 18.7501L92.6896 18.7401Z" fill="#EC627E"/>
<path d="M106.769 19.56C106.319 19.56 105.969 19.4599 105.699 19.2599C105.429 19.0599 105.299 18.74 105.299 18.29V14.66H108.12V12.54H105.299V9.48999L102.829 10.66V12.54H101.25V14.66H102.799V18.64C102.799 19.62 103.099 20.39 103.699 20.97C104.299 21.55 105.22 21.84 106.43 21.84C107.16 21.84 107.749 21.7199 108.199 21.5099V19.29C107.719 19.47 107.229 19.56 106.769 19.56ZM119.219 17.1899C119.219 16.3099 119.019 15.49 118.639 14.74C118.239 14.01 117.669 13.42 116.919 12.97C116.169 12.54 115.299 12.3199 114.299 12.3199C113.299 12.3199 112.43 12.54 111.68 12.97C110.93 13.4 110.349 13.99 109.949 14.72C109.549 15.45 109.349 16.25 109.349 17.14C109.349 18.03 109.569 18.84 109.979 19.56C110.399 20.29 111.009 20.88 111.829 21.29C112.629 21.71 113.579 21.92 114.699 21.92C115.579 21.92 116.349 21.79 117.019 21.52C117.689 21.27 118.219 20.94 118.599 20.52L117.25 18.84C116.83 19.16 116.449 19.39 116.069 19.54C115.689 19.69 115.239 19.77 114.719 19.77C113.999 19.77 113.399 19.6199 112.919 19.3199C112.439 19.0199 112.099 18.59 111.919 18.04H119.13C119.18 17.79 119.209 17.5099 119.209 17.1899H119.219ZM114.319 14.49C114.939 14.49 115.469 14.6399 115.889 14.9399C116.309 15.2599 116.569 15.67 116.719 16.22H111.899C112.049 15.67 112.349 15.2499 112.769 14.9399C113.189 14.6399 113.699 14.49 114.319 14.49Z" fill="#EC627E"/>
<path d="M128.01 9.17993V13.4599C127.28 12.7099 126.31 12.3299 125.13 12.3299C124.21 12.3299 123.4 12.5499 122.68 12.9599C121.96 13.3699 121.4 13.9599 121.01 14.6899C120.62 15.4199 120.43 16.2399 120.43 17.1199C120.43 17.9999 120.63 18.8199 121.01 19.5499C121.39 20.2799 121.96 20.8699 122.68 21.2799C123.4 21.6899 124.21 21.9099 125.13 21.9099C126.38 21.9099 127.38 21.4899 128.13 20.6599V21.6899H130.51V9.15991H128.01V9.17993ZM125.49 19.6599C124.74 19.6599 124.12 19.4299 123.66 18.9399C123.18 18.4599 122.94 17.8599 122.94 17.1199C122.94 16.3799 123.17 15.7899 123.66 15.2999C124.13 14.8199 124.74 14.5799 125.49 14.5799C126.24 14.5799 126.87 14.8099 127.36 15.2999C127.85 15.7899 128.08 16.3799 128.08 17.1199C128.08 17.8599 127.85 18.4499 127.36 18.9399C126.87 19.4299 126.26 19.6599 125.49 19.6599Z" fill="#EC627E"/>
<path d="M50.1096 34.87C51.0896 34.87 51.9796 34.7 52.7296 34.39C53.4796 34.08 54.0496 33.61 54.4596 33.02C54.8696 32.43 55.0796 31.75 55.0796 30.99C55.0796 30.14 54.7796 29.39 54.1996 28.77C53.5996 28.15 52.7196 27.74 51.5296 27.52L49.1596 27.09C48.5096 26.97 48.0796 26.82 47.8596 26.64C47.6296 26.46 47.5096 26.26 47.5096 26.02C47.5096 25.67 47.7396 25.37 48.1896 25.14C48.6396 24.91 49.1896 24.79 49.8696 24.79C51.1396 24.79 52.2996 25.2199 53.3496 26.0699L54.8496 24.15C54.2296 23.58 53.4796 23.17 52.6296 22.9C51.7796 22.63 50.8796 22.5 49.9496 22.5C48.9696 22.5 48.0796 22.65 47.2996 22.95C46.5196 23.25 45.8996 23.68 45.4696 24.23C45.0196 24.8 44.7996 25.46 44.7996 26.21C44.7996 27.04 45.0796 27.74 45.6296 28.29C46.1796 28.86 46.9996 29.24 48.1096 29.46L50.6596 29.9399C51.2796 30.0599 51.7096 30.22 51.9596 30.42C52.2096 30.62 52.3396 30.87 52.3396 31.15C52.3396 31.53 52.1196 31.8699 51.6896 32.1299C51.2596 32.3899 50.6896 32.53 49.9696 32.53C48.4196 32.53 47.0696 32.03 45.9496 31.03L44.3296 33C44.9496 33.58 45.7596 34.03 46.7796 34.35C47.7996 34.68 48.8996 34.85 50.0796 34.85L50.1096 34.87ZM61.3096 32.55C60.8596 32.55 60.5096 32.45 60.2396 32.25C59.9696 32.05 59.8396 31.73 59.8396 31.28V27.65H62.6596V25.53H59.8396V22.48L57.3696 23.65V25.53H55.7896V27.65H57.3396V31.6299C57.3396 32.6099 57.6396 33.38 58.2396 33.96C58.8396 34.54 59.7596 34.83 60.9696 34.83C61.6996 34.83 62.2896 34.71 62.7396 34.5V32.28C62.2596 32.46 61.7696 32.55 61.3096 32.55Z" fill="#EC627E"/>
<path d="M69.8696 25.41C69.3196 25.41 68.7696 25.51 68.2496 25.73C67.7196 25.95 67.2996 26.26 66.9996 26.7V25.55H64.6196V34.71H67.1196V30.08C67.1196 29.25 67.3696 28.65 67.8496 28.28C68.3296 27.93 68.9796 27.75 69.7796 27.75C70.0996 27.75 70.4096 27.78 70.7296 27.83V25.5099C70.4496 25.4399 70.1496 25.41 69.8596 25.41H69.8696ZM81.2396 32.72C81.0396 32.72 80.8696 32.67 80.7596 32.55C80.6296 32.45 80.5596 32.2799 80.5596 32.0699V29.0699C80.5596 27.8899 80.1796 26.97 79.4096 26.3C78.6396 25.65 77.5796 25.3199 76.1896 25.3199C75.4696 25.3199 74.7396 25.42 74.0196 25.6C73.2996 25.8 72.6496 26.1 72.0996 26.52L73.3196 28.37C73.7696 28.05 74.2396 27.8399 74.7196 27.6899C75.1996 27.5599 75.6496 27.49 76.0696 27.49C76.6896 27.49 77.1696 27.62 77.5396 27.89C77.8896 28.17 78.0896 28.54 78.1396 29.02H76.3096C74.6896 29.02 73.4796 29.29 72.6796 29.8C71.8596 30.33 71.4596 31.07 71.4596 32C71.4596 32.63 71.6296 33.17 71.9796 33.6C72.3096 34.03 72.7596 34.3499 73.3296 34.5699C73.8996 34.7899 74.5096 34.9 75.1996 34.9C75.8896 34.9 76.4796 34.7799 77.0296 34.5699C77.5796 34.3599 78.0496 34.02 78.4096 33.54C78.5896 33.96 78.8896 34.26 79.3096 34.46C79.7296 34.68 80.2096 34.78 80.7396 34.78C81.0896 34.78 81.3896 34.73 81.6196 34.61V32.68C81.4896 32.71 81.3496 32.73 81.2396 32.73V32.72ZM75.4596 32.9399C74.9796 32.9399 74.5896 32.84 74.3396 32.64C74.0896 32.46 73.9596 32.19 73.9596 31.87C73.9596 31.55 74.1296 31.3 74.4796 31.1C74.8096 30.9 75.4496 30.8 76.3796 30.8H78.1496C78.0696 31.52 77.7696 32.05 77.2496 32.4C76.7296 32.75 76.1296 32.93 75.4696 32.93L75.4596 32.9399Z" fill="#EC627E"/>
<path d="M95.5194 25.5399L93.2994 32.2099L91.1494 25.5899H88.7194L86.5394 32.2399L84.3394 25.5399H81.6895L85.0194 34.6999H87.9395L89.9094 28.7699L91.8594 34.6999H94.7394L98.0694 25.5399H95.5194ZM104.789 25.3199C103.609 25.3199 102.639 25.6999 101.909 26.4499V22.1699H99.4094V34.6999H101.789V33.6699C102.539 34.4999 103.539 34.9199 104.789 34.9199C105.709 34.9199 106.539 34.6999 107.259 34.2899C107.979 33.8799 108.529 33.2899 108.909 32.5599C109.289 31.8299 109.489 31.0099 109.489 30.1299C109.489 29.2499 109.289 28.4299 108.909 27.6999C108.529 26.9699 107.979 26.3799 107.259 25.9699C106.539 25.5599 105.709 25.3399 104.789 25.3399V25.3199ZM104.419 32.6499C103.649 32.6499 103.039 32.4199 102.549 31.9299C102.059 31.4399 101.829 30.8499 101.829 30.1099C101.829 29.3699 102.059 28.7799 102.549 28.2899C103.039 27.7999 103.649 27.5699 104.419 27.5699C105.189 27.5699 105.789 27.7999 106.269 28.2899C106.739 28.7699 106.969 29.3699 106.969 30.1099C106.969 30.8499 106.739 31.4399 106.269 31.9299C105.789 32.4099 105.169 32.6499 104.419 32.6499ZM120.619 30.1799C120.619 29.2999 120.419 28.4799 120.039 27.7299C119.639 26.9999 119.069 26.4099 118.319 25.9599C117.569 25.5299 116.699 25.3099 115.699 25.3099C114.699 25.3099 113.829 25.5299 113.079 25.9599C112.329 26.3899 111.749 26.9799 111.349 27.7099C110.949 28.4399 110.749 29.2399 110.749 30.1299C110.749 31.0199 110.969 31.8299 111.379 32.5499C111.799 33.2799 112.409 33.8699 113.229 34.2799C114.029 34.6999 114.979 34.9099 116.099 34.9099C116.979 34.9099 117.749 34.7799 118.419 34.5099C119.089 34.2599 119.619 33.9299 119.999 33.5099L118.649 31.8299C118.229 32.1499 117.849 32.3799 117.469 32.5299C117.089 32.6799 116.639 32.7599 116.119 32.7599C115.399 32.7599 114.799 32.6099 114.319 32.3099C113.839 32.0099 113.499 31.5799 113.319 31.0299H120.529C120.579 30.7799 120.609 30.4999 120.609 30.1799H120.619ZM115.719 27.4799C116.339 27.4799 116.869 27.6299 117.289 27.9299C117.709 28.2499 117.969 28.6599 118.119 29.2099H113.299C113.449 28.6599 113.749 28.2399 114.169 27.9299C114.589 27.6299 115.099 27.4799 115.719 27.4799ZM127.639 25.3999C127.089 25.3999 126.539 25.4999 126.019 25.7199C125.489 25.9399 125.069 26.2499 124.769 26.6899V25.5399H122.389V34.6999H124.889V30.0699C124.889 29.2399 125.139 28.6399 125.619 28.2699C126.099 27.9199 126.749 27.7399 127.549 27.7399C127.869 27.7399 128.179 27.7699 128.499 27.8199V25.4999C128.219 25.4299 127.919 25.3999 127.629 25.3999H127.639Z" fill="#EC627E"/>
<path d="M135.149 25.4099C134.599 25.4099 134.049 25.5099 133.529 25.7299C132.999 25.9499 132.579 26.2599 132.279 26.6999V25.5499H129.899V34.7099H132.399V30.0799C132.399 29.2499 132.649 28.6499 133.129 28.2799C133.609 27.9299 134.259 27.7499 135.059 27.7499C135.379 27.7499 135.689 27.7799 136.009 27.8299V25.5099C135.729 25.4399 135.429 25.4099 135.139 25.4099H135.149ZM144.729 25.5399L142.199 31.9199L139.579 25.5399H136.829L140.929 34.5999L140.859 34.7699C140.739 35.0499 140.559 35.2899 140.309 35.4399C140.059 35.6099 139.809 35.6899 139.529 35.6899C139.059 35.6899 138.499 35.5599 137.849 35.2899L137.199 37.3099C137.549 37.4899 137.929 37.6399 138.379 37.7299C138.809 37.8299 139.229 37.8799 139.609 37.8799C140.379 37.8799 141.059 37.6799 141.639 37.2799C142.219 36.8999 142.669 36.3299 142.989 35.5799L147.359 25.5499H144.729V25.5399Z" fill="#EC627E"/>
<path d="M92.8095 158.69C93.4695 158.69 93.7595 159.42 93.7595 160.07C93.7595 161.23 92.1095 161.22 91.7495 161.22C91.7495 159.16 92.3295 158.69 92.7995 158.69M93.3095 163.49C91.9595 163.49 91.8595 162.12 91.7895 161.78C92.6095 161.78 95.3495 161.78 95.3595 160.06C95.3595 158.83 94.0095 158.22 92.9695 158.22C91.0095 158.22 89.7495 159.4 89.7495 161.41C89.7495 162.73 90.3195 163.3 90.4995 163.5C90.6795 163.68 90.9195 163.88 91.2495 164.05C91.5395 164.19 92.0595 164.37 92.7895 164.37C94.8695 164.37 95.4095 162.77 95.4895 162.56C95.4895 162.56 94.6795 163.49 93.3295 163.49" fill="#F40009"/>
<path d="M80.9998 163.91C79.8098 163.91 79.7797 161.96 79.7797 161.21C79.7797 160.75 79.7698 158.64 81.0598 158.64C82.1998 158.64 82.2597 160.45 82.2597 161.27C82.2597 162.09 82.1497 163.9 80.9897 163.9M81.1397 158.18C79.4597 158.18 77.7797 159.14 77.7797 161.28C77.7797 161.49 77.7997 161.72 77.8397 161.89C77.8597 161.99 77.9097 162.18 77.9597 162.35C77.5797 162.86 76.8397 163.59 75.7597 163.59C74.2697 163.59 73.2097 162.53 73.2097 159.99C73.2097 157.45 74.2097 156.13 75.5397 156.13C77.2497 156.13 78.0097 158.11 78.1397 158.4V156.19L77.2097 155.88C76.8997 155.78 76.5798 155.7 76.2498 155.65C76.0098 155.61 75.7497 155.59 75.4597 155.59C72.8497 155.59 70.9497 157.57 70.9497 160.14C70.9497 162.69 72.6797 164.4 75.1697 164.4C76.8997 164.4 77.8297 163.52 78.2397 163C78.5597 163.5 79.3598 164.36 80.9998 164.36C83.2798 164.36 84.4197 162.9 84.4197 161.23C84.4197 159.56 83.3398 158.19 81.1298 158.19" fill="#F40009"/>
<path d="M90.2294 158.15H89.1294L88.3794 159.02C88.3794 159.02 88.3393 159.07 88.3193 159.1C88.2593 159.17 87.4294 160.14 86.9794 160.66L86.6993 160.99V156.01H84.8193V156.94C84.8193 157.17 84.8193 164.18 84.8193 164.18H86.6993V162.26L87.1393 161.75L88.5193 164.18H90.4194L88.2194 160.49L90.2394 158.15H90.2294Z" fill="#F40009"/>
<path d="M56.3596 157.05C56.2696 157.19 56.1796 157.35 56.0096 157.68C55.8396 158.01 55.4996 158.97 55.2296 159.63C54.7496 160.79 54.0296 161.82 53.1596 162.55C52.4296 163.17 52.0596 163.43 51.4596 163.63C51.4596 163.63 51.6796 163.71 52.1896 163.74C54.1396 163.83 55.7896 162.95 56.7196 161.65C57.5796 160.44 58.1996 158.8 57.2096 157.32C56.2796 155.93 52.1996 155.37 49.9896 157.28C48.7696 158.33 49.1996 159.91 50.9196 159.24C51.2196 159.11 51.4996 158.88 51.6096 158.67C52.5996 159.03 53.7896 158.26 53.7896 158.26C53.7896 158.26 52.9496 160.15 50.8996 160.42C48.8096 160.69 48.2196 159.6 48.2496 158.83C48.4496 156.26 53.5096 154.76 56.5196 156.07C58.9896 157.14 59.5096 159.03 59.0096 160.54C58.2596 162.76 56.3696 163.71 54.5696 164.1C52.6296 164.52 51.0496 164.14 50.5296 164.01C50.2996 163.95 50.1996 163.88 50.1996 163.88C50.1996 163.88 50.8896 163.41 51.5496 162.6C52.1096 161.93 52.6896 161.1 53.0996 160.4C54.0496 158.78 55.2996 157.49 56.3796 157.04M62.7096 157.36C62.8996 157.69 62.6796 158.12 62.3196 158.34C61.9396 158.56 61.4496 158.51 61.2696 158.18C61.0896 157.86 61.2696 157.43 61.6696 157.2C62.0696 156.97 62.5296 157.04 62.7096 157.36ZM61.3096 162.83C60.8696 163.28 60.4196 163.68 59.8996 163.96C59.4696 164.14 58.9296 164.33 58.5196 164C58.3196 163.82 58.2996 163.5 58.3696 163.25C58.4496 162.98 58.5896 162.73 58.7196 162.48C58.7196 162.48 60.4996 159.21 60.5196 159.18C60.5396 159.14 60.5696 159.15 60.5696 159.15C60.8896 159.15 61.8396 159.15 61.8796 159.15C61.9096 159.15 61.8796 159.21 61.8896 159.19C61.8996 159.17 61.2796 160.35 61.2796 160.35C61.2796 160.35 59.9396 162.83 59.8796 162.93C59.7496 163.19 59.8696 163.38 60.2496 163.14C60.7196 162.84 60.9696 162.54 61.2596 162.16C61.6396 161.67 61.8496 161 62.4996 160.31C63.1396 159.63 63.6396 159.32 64.1896 159.13C64.8096 158.91 65.4996 159.06 65.6696 159.52C65.8196 159.91 65.5996 160.46 65.3196 160.78C64.6596 161.53 63.7596 161.95 62.8296 162.16C62.6696 162.39 62.4096 163.31 63.2396 163.29C63.7096 163.27 64.0896 163.02 64.5096 162.75C65.2396 162.23 65.9096 161.59 66.3796 160.86C66.6096 160.46 66.8496 160.05 67.0496 159.64H66.2296L66.5196 159.14H67.3296L68.2296 157.56H69.5596C69.5596 157.56 68.7996 159 68.7196 159.14C68.9096 159.14 69.7396 159.14 69.7396 159.14L69.4896 159.64H68.4496L68.3096 159.86C68.3096 159.86 67.2096 161.91 66.8196 162.6C66.4996 163.17 66.7396 163.27 66.9796 163.17C67.2996 163.04 67.6996 162.61 67.8396 162.47C68.0796 162.19 68.3196 161.91 68.5196 161.61C68.7096 161.61 68.9596 161.61 69.0396 161.61C68.4096 162.64 67.4496 163.83 66.2296 164.15C65.8996 164.2 65.4996 164.21 65.2696 163.96C65.0396 163.73 65.0596 163.33 65.1696 163.05C65.2096 162.96 65.2496 162.85 65.2796 162.82C65.2996 162.79 65.2796 162.76 65.2296 162.8C64.4796 163.5 63.5596 164.18 62.5496 164.18C62.1396 164.18 61.6696 164 61.4596 163.59C61.2496 163.19 61.2996 162.92 61.2996 162.81M63.7696 160.56C63.5496 160.81 63.3096 161.14 63.1196 161.53C63.1196 161.53 64.2296 161.25 64.8396 160.48C64.9696 160.31 65.2096 159.99 65.0496 159.8C64.9996 159.74 64.6796 159.54 63.7796 160.56" fill="#F40009"/>
<path d="M104.08 159.48V158.34H99.3799V164.24H100.67V161.83H103V160.69H100.67V159.48H104.08ZM106.57 163.09V158.34H105.28V164.24H109.89V163.09H106.57Z" fill="#F40009"/>
<path d="M115.7 164.24H117.05L114.71 158.34H113.13L110.79 164.24H112.13L112.62 162.93H115.21L115.7 164.24ZM113.04 161.81L113.92 159.47L114.8 161.81H113.05H113.04ZM121.81 158.34L120.16 162.94L118.5 158.34H117.12L119.35 164.24H120.93L123.16 158.34H121.81Z" fill="#F40009"/>
<path d="M126.87 164.34C127.48 164.34 128.02 164.21 128.5 163.95C128.98 163.7 129.35 163.34 129.62 162.87C129.89 162.4 130.02 161.88 130.02 161.29C130.02 160.7 129.89 160.18 129.62 159.71C129.35 159.24 128.97 158.88 128.5 158.62C128.02 158.37 127.48 158.23 126.87 158.23C126.26 158.23 125.72 158.36 125.25 158.62C124.77 158.88 124.4 159.24 124.13 159.71C123.86 160.18 123.72 160.7 123.72 161.29C123.72 161.88 123.86 162.4 124.13 162.87C124.4 163.34 124.77 163.7 125.25 163.95C125.73 164.21 126.27 164.34 126.87 164.34ZM126.87 163.18C126.52 163.18 126.21 163.1 125.94 162.93C125.66 162.77 125.45 162.54 125.29 162.26C125.13 161.97 125.05 161.65 125.05 161.28C125.05 160.91 125.13 160.58 125.29 160.3C125.45 160.01 125.66 159.79 125.94 159.63C126.21 159.47 126.52 159.39 126.87 159.39C127.22 159.39 127.53 159.47 127.81 159.63C128.08 159.79 128.3 160.02 128.46 160.3C128.62 160.59 128.69 160.91 128.69 161.28C128.69 161.65 128.62 161.97 128.46 162.26C128.3 162.55 128.08 162.78 127.81 162.93C127.53 163.09 127.22 163.18 126.87 163.18ZM135.54 164.24H137.02L135.41 161.87C135.78 161.75 136.07 161.53 136.28 161.21C136.48 160.91 136.59 160.55 136.59 160.15C136.59 159.81 136.52 159.51 136.37 159.23C136.21 158.95 136 158.73 135.72 158.57C135.43 158.41 135.11 158.33 134.73 158.33H131.44V164.23H132.71V161.97H134.05L135.54 164.23V164.24ZM132.71 159.48H134.5C134.75 159.48 134.94 159.54 135.08 159.66C135.22 159.78 135.28 159.95 135.28 160.16C135.28 160.37 135.21 160.54 135.08 160.66C134.94 160.78 134.74 160.85 134.5 160.85H132.71V159.48Z" fill="#F40009"/>
<path d="M140.529 164.32C141.009 164.32 141.449 164.24 141.819 164.08C142.189 163.92 142.469 163.69 142.669 163.41C142.869 163.12 142.969 162.79 142.969 162.41C142.969 161.99 142.819 161.62 142.539 161.32C142.239 161.02 141.809 160.81 141.229 160.71L140.069 160.5C139.749 160.44 139.54 160.37 139.43 160.28C139.32 160.19 139.259 160.09 139.259 159.98C139.259 159.81 139.369 159.66 139.599 159.55C139.819 159.44 140.09 159.38 140.43 159.38C141.05 159.38 141.629 159.59 142.139 160.01L142.88 159.07C142.58 158.79 142.209 158.59 141.789 158.46C141.369 158.33 140.929 158.26 140.469 158.26C139.989 158.26 139.549 158.33 139.169 158.48C138.789 158.63 138.479 158.84 138.269 159.11C138.049 159.39 137.94 159.72 137.94 160.09C137.94 160.5 138.079 160.84 138.349 161.11C138.619 161.39 139.019 161.58 139.569 161.68L140.819 161.92C141.119 161.98 141.339 162.06 141.459 162.16C141.579 162.26 141.649 162.38 141.649 162.52C141.649 162.71 141.539 162.87 141.329 163C141.119 163.13 140.84 163.2 140.49 163.2C139.73 163.2 139.059 162.95 138.519 162.46L137.729 163.43C138.029 163.72 138.43 163.94 138.93 164.09C139.43 164.25 139.969 164.34 140.549 164.34L140.529 164.32Z" fill="#F40009"/>
</svg>
