<svg width="31" height="40" viewBox="0 0 31 40" fill="none" xmlns="http://www.w3.org/2000/svg">
<g clip-path="url(#clip0_101_19590)">
<path fill-rule="evenodd" clip-rule="evenodd" d="M11.3726 9.31744L11.3726 9.31747L11.3726 9.3175C11.1653 9.92421 10.9833 10.4568 10.876 10.8539C10.7043 10.3026 10.5053 9.64404 10.4033 9.07839L10.4246 9.01618C10.5895 8.53355 10.7661 8.01651 10.9358 7.4781L10.9378 7.47194C11.1652 6.76776 11.4661 5.82721 11.563 5.15296C11.6324 4.65991 11.6367 4.05392 11.6353 3.60977C11.6191 3.58358 11.6033 3.55616 11.5886 3.52761C11.4609 3.281 11.4441 3.04446 11.4441 2.87612C11.4441 2.75548 11.4636 2.65047 11.4798 2.5801C11.4971 2.50464 11.5189 2.43396 11.5394 2.37396C11.5743 2.27199 11.6158 2.17069 11.6524 2.08559C11.5837 1.93766 11.5535 1.79225 11.5435 1.67259C11.5238 1.43797 11.571 1.22721 11.6254 1.07269C11.7729 0.654117 12.108 0.442053 12.3052 0.347346C12.5013 0.253162 12.693 0.211213 12.7658 0.195332C12.922 0.160486 13.1747 0.1362 13.3937 0.120009C13.6552 0.100682 13.984 0.0852051 14.3241 0.0852051C14.6642 0.0852051 14.993 0.100682 15.2545 0.120009C15.4735 0.136199 15.7262 0.160485 15.8824 0.195329C15.9552 0.211208 16.147 0.253156 16.3431 0.347346C16.5402 0.442052 16.8753 0.654116 17.0228 1.07269C17.0805 1.2364 17.1944 1.6665 16.9975 2.08577C17.0339 2.17007 17.0748 2.26999 17.1093 2.37138C17.1412 2.46545 17.199 2.64732 17.2038 2.84946C17.2114 3.04223 17.191 3.28276 17.0598 3.53101C17.0449 3.55909 17.0292 3.58609 17.0129 3.61193C17.0115 4.05623 17.0159 4.66165 17.0853 5.15411L17.0866 5.16323C17.1627 5.74646 17.4044 6.52149 17.6142 7.19422L17.6153 7.19754L17.6155 7.19828C17.6456 7.29486 17.6751 7.38932 17.7033 7.48078C17.88 8.0413 18.0664 8.58105 18.2391 9.08082L18.2394 9.08183C18.2966 9.24741 18.3523 9.40866 18.4057 9.56493C18.6033 10.1437 18.7983 10.7329 18.8547 11.138L18.8558 11.1449C18.8786 11.2917 18.9203 11.5591 18.9165 11.7999C18.9155 11.8621 18.9118 11.9567 18.8918 12.0664C18.9496 12.2497 18.994 12.4578 19.0296 12.6622C19.1105 13.1268 19.1687 13.7091 19.2048 14.2724C19.241 14.838 19.2565 15.4118 19.2464 15.8648C19.2415 16.0835 19.2303 16.2944 19.2084 16.4698C19.2608 16.6486 19.2627 16.8105 19.26 16.9072C19.2574 17.0039 19.2428 17.1331 19.2283 17.2442C19.1015 16.8739 18.97 16.4828 18.8441 16.0833C18.8174 15.9969 18.7887 15.9051 18.7587 15.809L18.7585 15.8083L18.7581 15.8071L18.7578 15.8063L18.7578 15.8063L18.7578 15.8063C18.551 15.1448 18.2813 14.2823 18.1941 13.6141C18.1067 12.9939 18.1109 12.2293 18.1134 11.7874C18.1138 11.7237 18.1141 11.6667 18.1141 11.6178C18.2541 11.4854 18.3141 11.4192 18.3041 11.211C18.3041 11.0671 18.1835 10.8015 18.0952 10.607C18.0443 10.4947 18.0041 10.4062 18.0041 10.3785C18.0041 10.3028 18.0041 10.2082 18.1141 10.123C18.2341 10.019 18.2241 9.84868 18.1741 9.70677C18.1141 9.53648 17.8841 9.47971 17.7541 9.45133C17.6958 9.43755 17.5268 9.41707 17.2971 9.39965L17.2915 9.38323C17.1177 8.88018 16.9252 8.32304 16.7441 7.7484C16.7173 7.66133 16.6882 7.56836 16.6579 7.4714C16.451 6.8099 16.1813 5.9474 16.0941 5.27915C16.0067 4.65903 16.011 3.89438 16.0134 3.45254C16.0138 3.38883 16.0141 3.33182 16.0141 3.28293C16.1541 3.15048 16.2141 3.08426 16.2041 2.87612C16.2041 2.73218 16.0835 2.46654 15.9953 2.27209C15.9443 2.15982 15.9041 2.07128 15.9041 2.04358C15.9041 1.96789 15.9041 1.87328 16.0141 1.78814C16.1341 1.68407 16.1241 1.51378 16.0741 1.37187C16.0141 1.20157 15.7841 1.14481 15.6541 1.11643C15.6152 1.10722 15.5269 1.09503 15.4041 1.08276L15.3533 1.07786C15.0965 1.05399 14.7163 1.03128 14.3241 1.03128C13.9319 1.03128 13.5514 1.05402 13.2946 1.0779L13.2565 1.08154C13.1273 1.09422 13.0343 1.10691 12.9941 1.11643C12.8641 1.14481 12.6341 1.20157 12.5741 1.37187C12.5241 1.51378 12.5141 1.69353 12.6341 1.78814C12.7441 1.88275 12.7441 1.96789 12.7441 2.04358C12.7441 2.07166 12.7028 2.16354 12.6509 2.27912C12.5628 2.47511 12.4441 2.73925 12.4441 2.87612C12.4441 3.09372 12.4941 3.15048 12.6341 3.28293C12.6341 3.33116 12.6344 3.38729 12.6348 3.44997L12.6348 3.45174L12.6348 3.45254C12.6372 3.89437 12.6415 4.65902 12.5541 5.27915C12.4441 6.04547 12.1141 7.06723 11.8941 7.7484C11.7209 8.29793 11.5387 8.83145 11.3726 9.31741L11.3726 9.31744Z" fill="#F40009"/>
<path fill-rule="evenodd" clip-rule="evenodd" d="M4.06261 15.5386L0.372439 17.327C0.359405 17.3331 0.34657 17.3398 0.333973 17.347C0.323622 17.353 0.313538 17.3593 0.303729 17.366C0.252955 17.4002 0.210091 17.4428 0.176082 17.4909C0.11714 17.574 0.0839844 17.6751 0.0839844 17.7805V32.19C0.0839844 32.3666 0.177122 32.5301 0.329017 32.6201L16.439 42.1701C16.5913 42.2604 16.7799 42.2634 16.935 42.1781L30.385 34.7781C30.5447 34.6902 30.644 34.5224 30.644 34.34V19.8155C30.6498 19.6241 30.5447 19.438 30.3611 19.3496L26.7441 17.6073C26.7413 17.6653 26.7352 17.7361 26.7218 17.8141C26.7795 18.0079 26.8239 18.2279 26.8595 18.4439C26.8779 18.556 26.8952 18.6745 26.9113 18.7978L29.0549 19.8304L16.702 26.5073L1.65093 17.8186L3.97881 16.6904C3.99402 16.628 4.01032 16.5672 4.02785 16.5088C4.00846 16.3908 4.00574 16.2896 4.00526 16.225C4.00366 16.0115 4.03525 15.7588 4.05325 15.6148L4.06083 15.5532L4.06168 15.546C4.06198 15.5435 4.0623 15.5411 4.06261 15.5386ZM1.08398 18.646V31.9052L16.1941 40.8624V27.3688L1.08398 18.646ZM17.1941 27.3781V40.8942L29.644 34.0444V20.6487L17.1941 27.3781Z" fill="white"/>
</g>
<defs>
<clipPath id="clip0_101_19590">
<rect width="30.64" height="40" fill="white" transform="translate(0.0439453)"/>
</clipPath>
</defs>
</svg>
