<svg width="40" height="40" viewBox="0 0 40 40" fill="none" xmlns="http://www.w3.org/2000/svg">
<g clip-path="url(#clip0_101_19588)">
<path d="M28.3022 0.746582L33.3695 9.58751C35.8601 13.8463 39.3102 18.1805 39.3102 23.0861C39.3102 29.113 34.3291 34.0941 28.3022 34.0941C22.2752 34.0941 17.2941 29.113 17.2941 23.0861C17.2941 18.1912 20.7443 13.8463 23.1593 9.58751L28.3022 0.746582ZM13.1648 5.45815L18.2321 14.2991C20.7227 18.5578 24.1836 22.892 24.1836 27.7977C24.1836 33.8246 19.2025 38.8057 13.1756 38.8057C7.14863 38.8057 2.15674 33.8246 2.15674 27.7977C2.15674 22.892 5.60686 18.5578 8.02194 14.2991L13.1648 5.45815Z" stroke="#69C9CE" stroke-linecap="round" stroke-linejoin="round"/>
</g>
<defs>
<clipPath id="clip0_101_19588">
<rect width="39.0476" height="40" fill="white" transform="translate(0.79541)"/>
</clipPath>
</defs>
</svg>
