<svg width="48" height="40" viewBox="0 0 48 40" fill="none" xmlns="http://www.w3.org/2000/svg">
<path d="M41.65 3.6762C36.4653 -0.531172 28.7192 0.0943637 23.9408 4.73018C23.9232 4.74732 23.8879 4.74732 23.8702 4.73018C19.0918 0.0943637 11.3457 -0.531172 6.16107 3.6762C0.260981 8.47483 -0.0304913 17.0267 5.29549 22.1938L5.62229 22.5108L21.9712 38.372C23.0399 39.4088 24.7799 39.4088 25.8487 38.372L42.1976 22.5108L42.5244 22.1938C47.8504 17.0267 47.5589 8.47483 41.65 3.6762V3.6762Z" stroke="white" stroke-miterlimit="10" stroke-linecap="round"/>
<path d="M14.9756 17.4978C16.7597 20.4884 20.0896 22.5107 23.9052 22.5107C27.7208 22.5107 31.0507 20.4884 32.8349 17.4978" stroke="white" stroke-miterlimit="10" stroke-linecap="round"/>
</svg>
