<svg width="191" height="190" viewBox="0 0 191 190" fill="none" xmlns="http://www.w3.org/2000/svg">
<path d="M190.76 0H0.839844V189.92H190.76V0Z" fill="white"/>
<path d="M102.81 64.9199H97.6197L94.6997 69.6599H99.8797L102.81 64.9199Z" fill="#F40009"/>
<path d="M133.83 55.36C133.83 55.36 130.59 56.65 126.83 60.8C123.05 64.97 120.88 69.62 122.5 70.86C123.12 71.33 124.56 71.41 127.17 69.06C129.21 67.23 131.28 64.83 132.69 61.4C134.37 57.29 133.84 55.41 133.84 55.36M154.45 62.82C150.27 60.68 147.21 58.06 144.03 56.43C140.99 54.87 139.03 54.23 136.58 54.55C136.17 54.6 135.57 54.8 135.57 54.8C135.57 54.8 136.84 59.11 131.81 66.37C126.72 73.72 122.1 73.68 120.79 71.65C119.41 69.52 121.18 65.17 124.15 61.31C127.25 57.27 132.71 53.91 132.71 53.91C132.71 53.91 130.97 52.85 126.69 55.27C122.53 57.63 115.34 63.25 108.7 72.72C102.06 82.19 100.73 87.4 99.7696 91.51C98.8096 95.61 99.6896 100 104.24 100C108.79 100 114.08 93.06 115.57 90.64C118.34 86.15 120.15 79.25 116.37 80.2C114.51 80.67 113 82.73 112.05 84.71C111.07 86.75 110.68 88.7 110.68 88.7C110.68 88.7 109.11 89.26 107 90.84C104.89 92.42 103.51 93.93 103.51 93.93C103.51 93.93 103.52 90.65 106.13 85.35C108.74 80.04 113.54 77.61 116.25 77.39C118.7 77.19 121.89 79.27 119.19 86.94C116.49 94.62 108.53 103.93 100.16 104.05C92.4396 104.16 87.3796 94.3 98.1196 77.1C110 58.07 123.96 52.23 128.5 51.58C133.03 50.93 134.5 52.93 134.5 52.93C134.5 52.93 138.3 51.17 143.11 51.5C148.64 51.88 152.93 55.79 158.57 58.54C157.09 59.97 155.69 61.44 154.43 62.82M179.28 56.41C175.45 58.87 170.14 61.11 165.04 60.61C163.75 61.95 162.37 63.49 160.98 65.18C169.83 66.92 177.56 61.44 181.68 56.78C184.25 53.87 185.52 51.27 185.52 51.27C185.52 51.27 183.07 53.97 179.27 56.42M167.51 81.34C167.62 81.15 167.67 80.97 167.67 80.97C167.67 80.97 167.57 80.23 166.86 80.19C166.02 80.15 164.87 80.31 161.86 83.65C158.86 86.97 157.04 89.86 155.46 92.74C153.73 95.9 153.04 98.24 154.03 98.84C154.31 99.01 154.73 99.03 155.07 98.95C155.74 98.79 156.5 98.16 157.66 96.82C158.2 96.19 158.8 95.3 159.52 94.31C161.5 91.6 166.5 83.05 167.5 81.33M136.21 84.97C136.71 83.65 137.35 81.07 136.02 80.06C134.59 78.98 130.95 81.51 130.93 84.1C130.91 86.75 133.5 87.95 134.12 88.12C134.47 88.22 134.6 88.2 134.77 87.92C134.88 87.73 135.71 86.29 136.22 84.98M133.47 89.8C133.38 89.77 132.19 89.23 130.97 88.2C129.75 87.18 129.13 86.01 129.08 85.92C129.03 85.83 128.98 85.9 128.92 85.97C128.87 86.04 128.64 86.24 126.7 89.1C124.75 91.96 121.78 97.85 124.48 98.85C126.21 99.49 129.09 96.46 130.66 94.45C132.12 92.58 133.48 90.21 133.56 90.04C133.64 89.87 133.56 89.83 133.47 89.8ZM164.11 96.6C163.38 97.78 162.55 100.02 164.97 98.62C167.92 96.91 172.12 90.54 172.12 90.54H174.02C174.02 90.54 171.51 94.5 168.25 98.12C165.26 101.43 161.61 104.45 159.04 104.15C156.04 103.8 156.98 99.86 156.98 99.86C156.98 99.86 152.67 104.43 149.71 104.11C145.7 103.67 146.92 98.71 146.92 98.71C146.92 98.71 142.39 104.29 139.3 104.11C134.45 103.83 135.67 97.92 137.01 93.78C137.73 91.56 138.4 89.81 138.4 89.81C138.4 89.81 137.92 89.94 136.89 90.09C136.35 90.17 135.37 90.22 135.37 90.22C135.37 90.22 133.36 93.78 131.74 95.93C130.13 98.07 123.27 105.45 119.23 103.97C115.5 102.61 116.73 96.89 118.9 92.35C122.07 85.73 130.99 76.21 136.13 77.45C141.46 78.74 136.25 88.48 136.25 88.48C136.25 88.48 136.25 88.52 136.31 88.54C136.42 88.58 136.69 88.61 137.34 88.48C138.37 88.29 139.29 87.9 139.29 87.9C139.29 87.9 144.65 76.67 150.57 69.32C156.49 61.97 168.3 49.32 172.95 52.38C174.09 53.13 173.57 55.72 172.04 58.87C171.37 59.08 170.67 59.27 169.95 59.42C170.97 57.57 171.65 56 171.85 54.91C172.55 51.11 163.68 59.12 157.36 67.73C151.03 76.34 147.23 84.14 147.23 84.14C147.23 84.14 148.51 83.42 150.5 81.81C152.58 80.13 155.44 77.51 158.54 74.3C160.63 72.14 163.08 69.43 165.38 66.4C166.07 66.37 166.74 66.3 167.4 66.19C164.84 69.64 162.14 72.8 159.85 75.12C157.33 77.67 154.59 80.43 152.21 82.43C148.43 85.61 145.51 87.41 145.51 87.41C145.51 87.41 139.96 98.57 142.98 99.29C144.75 99.71 148.25 94.32 148.25 94.32C148.25 94.32 152.81 87.35 155.56 84.22C159.31 79.95 162.54 77.48 165.77 77.43C167.65 77.4 168.76 79.4 168.76 79.4L169.65 78.03H175.1C175.1 78.03 164.93 95.3 164.12 96.59M179.28 56.41C175.45 58.87 170.14 61.11 165.04 60.61C163.75 61.95 162.37 63.49 160.98 65.18C169.83 66.92 177.56 61.44 181.68 56.78C184.25 53.87 185.52 51.27 185.52 51.27C185.52 51.27 183.07 53.97 179.27 56.42M78.2596 81.33C80.4696 78.31 86.5396 67.72 86.5396 67.72C86.5396 67.72 86.4396 66.98 85.7296 66.95C84.8896 66.91 83.4996 67.19 80.6996 70.69C77.8996 74.18 75.7496 76.96 74.1696 79.85C72.4496 83 71.6896 85.23 72.6796 85.83C72.9596 86 73.3796 86.02 73.7196 85.94C74.3696 85.78 75.2096 85.13 76.3696 83.79C76.9096 83.16 77.5296 82.33 78.2496 81.34M50.4496 67.04C49.0196 65.96 45.3796 68.49 45.3596 71.08C45.3396 73.73 48.6496 74.49 49.0796 74.51C49.0796 74.51 49.4596 74.61 49.5996 74.3C49.6896 74.1 50.1396 73.27 50.6496 71.96C51.1496 70.64 51.7896 68.06 50.4596 67.05M48.2996 76.18C48.2096 76.15 46.8296 75.75 45.4896 74.89C44.1496 74.03 43.5296 72.76 43.4796 72.67C43.4296 72.58 43.3796 72.65 43.3196 72.72C43.2696 72.79 42.9796 73.16 41.0296 76.02C39.0796 78.88 36.1996 84.73 38.8996 85.73C40.6296 86.37 43.5296 83.33 45.1096 81.32C46.5696 79.45 48.3096 76.58 48.3796 76.41C48.4496 76.24 48.3796 76.2 48.2896 76.16M90.6196 77.9H92.5196C92.5196 77.9 83.0096 91.65 77.6396 91.03C74.6396 90.68 75.5296 86.98 75.5296 86.98C75.5296 86.98 71.3096 91.92 67.4496 90.93C63.9396 90.03 66.1996 84.19 66.1996 84.19C65.7996 84.35 58.2096 92.92 52.8696 90.87C47.2896 88.72 50.1796 81.55 51.2396 79.39C52.1396 77.57 53.1296 75.8 53.1296 75.8C53.1296 75.8 52.2696 76.04 51.7396 76.17C51.2096 76.29 50.3996 76.45 50.3996 76.45C50.3996 76.45 47.7596 80.74 46.1496 82.89C44.5396 85.03 37.6796 92.4 33.6396 90.93C29.5996 89.46 30.5896 83.81 32.8596 79.31C36.5396 72.02 45.2796 63.07 50.5396 64.41C55.8596 65.77 51.4596 74.39 51.4596 74.39C51.4596 74.39 52.5196 74.53 55.0496 72.8C58.6996 70.31 63.5096 63.61 68.7296 64.39C71.1796 64.76 73.4596 67.27 70.3396 72.05C69.3396 73.58 67.6696 74.95 66.3796 73.6C65.5796 72.76 66.2796 71.22 67.1096 70.17C68.2896 68.68 69.9296 68.88 69.9296 68.88C69.9296 68.88 70.7896 66.9 68.5996 66.94C66.8196 66.97 62.3396 71.11 59.7996 75.29C57.4696 79.13 53.9596 85.67 57.4896 87.09C60.7396 88.4 66.8996 81.07 69.7596 77.23C72.6196 73.39 79.1196 64.68 84.5796 64.33C86.4596 64.21 87.5796 65.92 87.5796 65.92L88.2096 64.92H93.6596C93.6596 64.92 83.3796 82.09 82.5696 83.39C81.9396 84.41 81.0996 86.7 83.4296 85.41C85.7596 84.12 90.5996 77.9 90.5996 77.9M87.6396 105.42C83.5096 102.52 78.4796 101.24 73.9096 101.42C69.2896 101.61 67.2196 105.06 67.2196 105.06C65.1296 101.42 61.0096 99.19 54.6396 99.25C44.3496 99.37 34.1396 104.12 26.0596 104.12C17.9796 104.12 12.6396 99.25 12.8296 90.59C13.1596 75.41 25.9796 61.74 35.5596 55.58C41.0696 52.04 45.6796 50.99 48.6996 51.33C50.8996 51.57 53.5496 54.12 51.8796 57.86C49.4296 63.35 46.0396 62.89 46.1596 60.27C46.2296 58.57 47.3696 57.49 48.2196 56.91C48.7596 56.53 49.7196 56.43 50.2196 56.42C50.6996 56.01 51.0696 53.01 47.1296 54C43.1796 54.99 38.4296 58.87 33.8996 63.87C29.3696 68.87 22.3196 78.34 20.5796 88.28C19.7696 92.89 20.3196 101.29 31.2296 101.19C40.4896 101.11 54.1496 95.01 66.6996 95.12C71.5696 95.16 75.8096 96.47 79.1196 98.52C82.3796 100.53 86.2696 103.45 87.6496 105.44" fill="#F40009"/>
<path d="M174.75 97.91C174.03 97.91 173.39 98.07 172.8 98.4C172.21 98.74 171.75 99.19 171.41 99.76C171.07 100.33 170.91 100.96 170.91 101.62C170.91 102.28 171.07 102.93 171.41 103.48C171.75 104.05 172.21 104.5 172.8 104.83C173.39 105.17 174.02 105.33 174.75 105.33C175.48 105.33 176.12 105.17 176.71 104.83C177.3 104.5 177.74 104.05 178.08 103.48C178.42 102.92 178.58 102.3 178.58 101.62C178.58 100.94 178.42 100.33 178.08 99.76C177.74 99.19 177.29 98.74 176.71 98.4C176.12 98.07 175.47 97.91 174.75 97.91ZM174.75 104.62C174.16 104.62 173.63 104.48 173.18 104.23C172.72 103.97 172.36 103.62 172.1 103.17C171.84 102.72 171.72 102.2 171.72 101.63C171.72 101.06 171.84 100.55 172.1 100.11C172.36 99.67 172.71 99.29 173.18 99.03C173.65 98.77 174.16 98.65 174.75 98.65C175.34 98.65 175.85 98.77 176.32 99.03C176.79 99.29 177.14 99.66 177.4 100.11C177.66 100.56 177.78 101.08 177.78 101.63C177.78 102.18 177.66 102.72 177.4 103.17C177.14 103.62 176.79 103.97 176.34 104.23C175.88 104.49 175.35 104.62 174.76 104.62H174.75ZM176.36 100.97C176.36 100.67 176.26 100.41 176.07 100.21C175.87 100.01 175.61 99.91 175.28 99.91H173.33V103.27H174.19V102.05H174.84L175.63 103.27H176.61L175.73 101.96C175.93 101.86 176.08 101.73 176.19 101.55C176.3 101.37 176.35 101.18 176.35 100.96L176.36 100.97ZM174.2 100.64H175.13C175.24 100.64 175.32 100.67 175.39 100.72C175.46 100.79 175.49 100.87 175.49 100.96C175.49 101.05 175.46 101.14 175.39 101.19C175.32 101.26 175.24 101.29 175.13 101.29H174.2V100.64Z" fill="#F40009"/>
<path d="M75.5 113.61V127.23C75.5 127.62 75.61 127.92 75.84 128.12C76.06 128.32 76.36 128.42 76.74 128.42C77.06 128.42 77.35 128.37 77.6 128.27V129.34C77.31 129.45 76.99 129.51 76.66 129.51C75.91 129.51 75.32 129.32 74.91 128.94C74.5 128.56 74.29 128.03 74.29 127.33V113.61H75.51H75.5Z" fill="#F40009"/>
<path d="M80.4296 118.01H81.6496V129.36H80.4296V118.01ZM81.6896 114.37C81.8596 114.54 81.9396 114.75 81.9396 115.02C81.9396 115.29 81.8596 115.5 81.6896 115.67C81.5196 115.84 81.3096 115.92 81.0396 115.92C80.7696 115.92 80.5596 115.84 80.3896 115.67C80.2196 115.5 80.1396 115.29 80.1396 115.02C80.1396 114.75 80.2196 114.54 80.3896 114.37C80.5596 114.2 80.7696 114.12 81.0396 114.12C81.3096 114.12 81.5196 114.2 81.6896 114.37Z" fill="#F40009"/>
<path d="M92.3001 127.3C93.0001 126.93 93.5701 126.41 93.9901 125.73C94.4101 125.05 94.6201 124.26 94.6201 123.35C94.6201 122.44 94.4101 121.67 93.9901 120.98C93.5701 120.29 93.0101 119.77 92.3001 119.4C91.5901 119.03 90.8201 118.84 89.9901 118.84C89.1601 118.84 88.4401 119.04 87.7601 119.44C87.0801 119.84 86.5501 120.38 86.1601 121.07C85.7701 121.76 85.5701 122.52 85.5701 123.34C85.5701 124.16 85.7701 124.94 86.1601 125.62C86.5501 126.31 87.0801 126.85 87.7601 127.24C88.4401 127.64 89.1801 127.84 89.9901 127.84C90.8001 127.84 91.6001 127.65 92.3001 127.28M95.7301 117.99V128.32C95.7301 129.33 95.4901 130.2 95.0201 130.95C94.5501 131.7 93.8701 132.27 93.0101 132.68C92.1401 133.09 91.1401 133.29 89.9901 133.29C88.1601 133.29 86.6201 132.92 85.3601 132.18L85.9001 131.13C87.0601 131.83 88.4201 132.18 89.9801 132.18C91.3601 132.18 92.4601 131.83 93.2801 131.14C94.1001 130.45 94.5101 129.49 94.5101 128.26V126.56C94.0301 127.31 93.3901 127.9 92.5801 128.32C91.7701 128.74 90.8801 128.95 89.9201 128.95C88.8901 128.95 87.9401 128.7 87.0801 128.21C86.2201 127.71 85.5501 127.04 85.0601 126.18C84.5701 125.32 84.3301 124.38 84.3301 123.34C84.3301 122.3 84.5701 121.36 85.0601 120.51C85.5501 119.66 86.2201 118.98 87.0801 118.48C87.9401 117.98 88.8801 117.73 89.9201 117.73C90.9001 117.73 91.7901 117.95 92.6101 118.38C93.4301 118.81 94.0701 119.42 94.5501 120.2V118H95.7201L95.7301 117.99Z" fill="#F40009"/>
<path d="M107.35 118.89C108.17 119.66 108.58 120.7 108.58 122.01V129.36H107.37V122.2C107.37 121.17 107.07 120.35 106.46 119.76C105.85 119.17 104.98 118.87 103.85 118.87C103.03 118.87 102.3 119.03 101.67 119.35C101.04 119.67 100.55 120.1 100.2 120.64C99.85 121.18 99.68 121.77 99.68 122.41V129.37H98.46V113.62H99.68V119.86C100.18 119.14 100.81 118.6 101.58 118.26C102.34 117.92 103.17 117.75 104.06 117.75C105.44 117.75 106.54 118.13 107.36 118.9" fill="#F40009"/>
<path d="M117.31 128.04V129.17C117.09 129.3 116.8 129.39 116.46 129.46C116.12 129.53 115.77 129.57 115.4 129.57C114.25 129.57 113.36 129.25 112.71 128.61C112.06 127.97 111.74 127.09 111.74 125.97V119.06H109.81V118.01H111.74V115.08L112.95 114.51V118.01H117.22V119.06H112.95V125.85C112.95 126.68 113.18 127.31 113.63 127.77C114.08 128.22 114.7 128.45 115.48 128.45C116.12 128.45 116.73 128.32 117.3 128.05" fill="#F40009"/>
<path d="M82.1298 112.36C81.2498 112.36 80.5298 113.08 80.5298 113.96C80.5298 114.84 81.2398 115.56 82.1298 115.56C83.0198 115.56 83.7298 114.84 83.7298 113.96C83.7298 113.08 83.0098 112.36 82.1298 112.36ZM82.1298 112.88C82.7198 112.88 83.1998 113.36 83.1998 113.95C83.1998 114.54 82.7198 115.02 82.1298 115.02C81.5398 115.02 81.0598 114.54 81.0598 113.95C81.0598 113.36 81.5398 112.88 82.1298 112.88Z" fill="#F40009"/>
<path d="M81.0299 109.93C80.8199 109.93 80.6599 110.1 80.6599 110.3C80.6599 110.5 80.8299 110.67 81.0299 110.67C81.2299 110.67 81.3999 110.5 81.3999 110.3C81.3999 110.1 81.2299 109.93 81.0299 109.93ZM81.0299 111.2C80.5399 111.2 80.1299 110.8 80.1299 110.3C80.1299 109.8 80.5299 109.4 81.0299 109.4C81.5299 109.4 81.9299 109.8 81.9299 110.3C81.9299 110.8 81.5299 111.2 81.0299 111.2Z" fill="#F40009"/>
</svg>
