<svg width="190" height="190" viewBox="0 0 190 190" fill="none" xmlns="http://www.w3.org/2000/svg">
<path d="M189.92 0H0V189.92H189.92V0Z" fill="#F40009"/>
<mask id="path-2-inside-1_101_19794" fill="white">
<path d="M29.6799 143.19C30.5599 143.19 31.3699 143.05 32.1299 142.77C32.8699 142.49 33.4899 142.07 33.9499 141.51L32.3299 139.76C31.9399 140.17 31.5299 140.45 31.1099 140.6C30.6799 140.77 30.2299 140.85 29.7499 140.85C29.1299 140.85 28.5899 140.72 28.1099 140.47C27.6199 140.22 27.2599 139.87 26.9899 139.43C26.7199 138.99 26.5799 138.51 26.5799 137.96C26.5799 137.41 26.7199 136.92 26.9899 136.49C27.2599 136.06 27.6299 135.71 28.1099 135.45C28.5899 135.19 29.1299 135.07 29.7299 135.07C30.2199 135.07 30.6499 135.15 31.0599 135.32C31.4499 135.49 31.8399 135.78 32.2499 136.19L33.8699 134.4C33.4099 133.85 32.8199 133.45 32.0799 133.15C31.3399 132.87 30.5299 132.73 29.6399 132.73C28.5299 132.73 27.5499 132.95 26.6799 133.42C25.7999 133.88 25.1099 134.5 24.6199 135.3C24.1299 136.1 23.8799 136.98 23.8799 137.96C23.8799 138.94 24.1299 139.82 24.6199 140.62C25.1099 141.42 25.7999 142.03 26.6799 142.5C27.5599 142.97 28.5599 143.19 29.6599 143.19H29.6799ZM44.1299 143.01H46.8199L42.8599 132.92H39.6699L35.7199 143.01H38.3799L39.1399 140.96H43.3799L44.1399 143.01H44.1299ZM39.9299 138.79L41.2499 135.2L42.5799 138.79H39.9299ZM57.7099 135.16V132.92H49.3599V143.01H51.9399V139.14H55.8499V136.88H51.9399V135.16H57.7099ZM68.9099 135.16V132.92H60.5599V143.01H63.1399V139.14H67.0499V136.88H63.1399V135.16H68.9099ZM80.2599 140.78H74.3299V138.99H78.3199V136.73H74.3299V135.15H80.1199L80.4099 132.92H71.7499V143.01H80.5499L80.2599 140.78ZM83.4799 132.92V143.01H86.0599V132.92H83.4799ZM96.7799 132.92V139.24L92.3999 132.92H89.7199V143.01H92.2599V136.58L96.7299 143.01H99.3199V132.92H96.7799ZM111.4 140.78H105.47V138.99H109.46V136.73H105.47V135.15H111.26L111.55 132.92H102.89V143.01H111.69L111.4 140.78ZM128.44 135.16V132.92H120.09V143.01H122.67V139.14H126.58V136.88H122.67V135.16H128.44ZM138.27 143H141.23L138.48 139.06C139.1 138.82 139.57 138.44 139.92 137.91C140.26 137.39 140.42 136.79 140.42 136.12C140.42 135.53 140.29 135 140.03 134.51C139.77 134.02 139.37 133.64 138.85 133.35C138.33 133.06 137.73 132.92 137.03 132.92H131.29V143.01H133.84V139.33H135.82L138.27 143.01V143ZM133.84 135.16H136.7C137.04 135.16 137.3 135.24 137.51 135.43C137.71 135.61 137.8 135.84 137.8 136.13C137.8 136.42 137.7 136.66 137.51 136.84C137.3 137.02 137.03 137.11 136.7 137.11H133.84V135.16ZM152.25 140.78H146.32V138.99H150.31V136.73H146.32V135.15H152.11L152.4 132.92H143.74V143.01H152.54L152.25 140.78ZM163.88 140.78H157.95V138.99H161.94V136.73H157.95V135.15H163.74L164.03 132.92H155.37V143.01H164.17L163.88 140.78Z"/>
</mask>
<path d="M29.6799 143.19C30.5599 143.19 31.3699 143.05 32.1299 142.77C32.8699 142.49 33.4899 142.07 33.9499 141.51L32.3299 139.76C31.9399 140.17 31.5299 140.45 31.1099 140.6C30.6799 140.77 30.2299 140.85 29.7499 140.85C29.1299 140.85 28.5899 140.72 28.1099 140.47C27.6199 140.22 27.2599 139.87 26.9899 139.43C26.7199 138.99 26.5799 138.51 26.5799 137.96C26.5799 137.41 26.7199 136.92 26.9899 136.49C27.2599 136.06 27.6299 135.71 28.1099 135.45C28.5899 135.19 29.1299 135.07 29.7299 135.07C30.2199 135.07 30.6499 135.15 31.0599 135.32C31.4499 135.49 31.8399 135.78 32.2499 136.19L33.8699 134.4C33.4099 133.85 32.8199 133.45 32.0799 133.15C31.3399 132.87 30.5299 132.73 29.6399 132.73C28.5299 132.73 27.5499 132.95 26.6799 133.42C25.7999 133.88 25.1099 134.5 24.6199 135.3C24.1299 136.1 23.8799 136.98 23.8799 137.96C23.8799 138.94 24.1299 139.82 24.6199 140.62C25.1099 141.42 25.7999 142.03 26.6799 142.5C27.5599 142.97 28.5599 143.19 29.6599 143.19H29.6799ZM44.1299 143.01H46.8199L42.8599 132.92H39.6699L35.7199 143.01H38.3799L39.1399 140.96H43.3799L44.1399 143.01H44.1299ZM39.9299 138.79L41.2499 135.2L42.5799 138.79H39.9299ZM57.7099 135.16V132.92H49.3599V143.01H51.9399V139.14H55.8499V136.88H51.9399V135.16H57.7099ZM68.9099 135.16V132.92H60.5599V143.01H63.1399V139.14H67.0499V136.88H63.1399V135.16H68.9099ZM80.2599 140.78H74.3299V138.99H78.3199V136.73H74.3299V135.15H80.1199L80.4099 132.92H71.7499V143.01H80.5499L80.2599 140.78ZM83.4799 132.92V143.01H86.0599V132.92H83.4799ZM96.7799 132.92V139.24L92.3999 132.92H89.7199V143.01H92.2599V136.58L96.7299 143.01H99.3199V132.92H96.7799ZM111.4 140.78H105.47V138.99H109.46V136.73H105.47V135.15H111.26L111.55 132.92H102.89V143.01H111.69L111.4 140.78ZM128.44 135.16V132.92H120.09V143.01H122.67V139.14H126.58V136.88H122.67V135.16H128.44ZM138.27 143H141.23L138.48 139.06C139.1 138.82 139.57 138.44 139.92 137.91C140.26 137.39 140.42 136.79 140.42 136.12C140.42 135.53 140.29 135 140.03 134.51C139.77 134.02 139.37 133.64 138.85 133.35C138.33 133.06 137.73 132.92 137.03 132.92H131.29V143.01H133.84V139.33H135.82L138.27 143.01V143ZM133.84 135.16H136.7C137.04 135.16 137.3 135.24 137.51 135.43C137.71 135.61 137.8 135.84 137.8 136.13C137.8 136.42 137.7 136.66 137.51 136.84C137.3 137.02 137.03 137.11 136.7 137.11H133.84V135.16ZM152.25 140.78H146.32V138.99H150.31V136.73H146.32V135.15H152.11L152.4 132.92H143.74V143.01H152.54L152.25 140.78ZM163.88 140.78H157.95V138.99H161.94V136.73H157.95V135.15H163.74L164.03 132.92H155.37V143.01H164.17L163.88 140.78Z" fill="#DBD3AA" stroke="#DBD3AA" stroke-width="2" mask="url(#path-2-inside-1_101_19794)"/>
<path d="M101.97 64.92H96.7903L93.8703 69.66H99.0503L101.98 64.92H101.97ZM132.99 55.37C132.99 55.37 129.75 56.66 125.99 60.81C122.21 64.98 120.04 69.63 121.66 70.87C122.28 71.34 123.72 71.42 126.33 69.07C128.37 67.24 130.44 64.84 131.84 61.41C133.52 57.3 132.99 55.42 132.99 55.37ZM153.6 62.83C149.42 60.69 146.36 58.07 143.18 56.43C140.14 54.87 138.18 54.22 135.73 54.55C135.32 54.6 134.72 54.8 134.72 54.8C134.72 54.8 135.99 59.11 130.96 66.37C125.87 73.72 121.25 73.68 119.94 71.65C118.56 69.52 120.33 65.17 123.3 61.31C126.4 57.27 131.86 53.91 131.86 53.91C131.86 53.91 130.12 52.85 125.84 55.27C121.68 57.63 114.49 63.25 107.85 72.72C101.21 82.19 99.8803 87.4 98.9203 91.51C97.9603 95.61 98.8403 100 103.39 100C107.94 100 113.23 93.06 114.72 90.64C117.49 86.15 119.3 79.25 115.53 80.2C113.67 80.67 112.16 82.73 111.21 84.72C110.23 86.76 109.84 88.71 109.84 88.71C109.84 88.71 108.27 89.27 106.15 90.85C104.04 92.43 102.66 93.94 102.66 93.94C102.66 93.94 102.66 90.66 105.28 85.36C107.89 80.05 112.69 77.62 115.41 77.4C117.86 77.2 121.05 79.28 118.35 86.95C115.66 94.62 107.69 103.93 99.3203 104.06C91.6003 104.17 86.5403 94.31 97.2803 77.11C109.16 58.08 123.12 52.24 127.66 51.59C132.19 50.94 133.66 52.94 133.66 52.94C133.66 52.94 137.46 51.18 142.28 51.51C147.81 51.89 152.1 55.8 157.74 58.55C156.26 59.98 154.86 61.45 153.6 62.83ZM178.45 56.41C174.62 58.87 169.31 61.11 164.21 60.61C162.92 61.95 161.54 63.49 160.15 65.18C169 66.92 176.73 61.45 180.85 56.78C183.42 53.87 184.69 51.27 184.69 51.27C184.69 51.27 182.24 53.97 178.44 56.42L178.45 56.41ZM166.69 81.33C166.8 81.14 166.85 80.96 166.85 80.96C166.85 80.96 166.75 80.22 166.04 80.18C165.2 80.14 164.05 80.3 161.04 83.64C158.04 86.96 156.22 89.85 154.64 92.73C152.92 95.89 152.22 98.23 153.21 98.83C153.49 99 153.91 99.02 154.25 98.94C154.92 98.78 155.68 98.15 156.84 96.81C157.38 96.18 157.98 95.29 158.7 94.3C160.68 91.59 165.68 83.04 166.68 81.32L166.69 81.33ZM135.4 84.98C135.9 83.66 136.54 81.08 135.21 80.07C133.78 78.99 130.14 81.52 130.12 84.1C130.1 86.75 132.69 87.95 133.31 88.12C133.66 88.22 133.79 88.2 133.96 87.92C134.07 87.73 134.9 86.29 135.41 84.98H135.4ZM132.65 89.8C132.55 89.77 131.37 89.23 130.14 88.2C128.92 87.18 128.3 86.01 128.25 85.92C128.2 85.83 128.15 85.9 128.09 85.97C128.04 86.05 127.81 86.24 125.87 89.1C123.92 91.96 120.95 97.85 123.65 98.85C125.38 99.49 128.26 96.46 129.83 94.45C131.29 92.58 132.65 90.21 132.73 90.04C132.81 89.87 132.73 89.83 132.64 89.79L132.65 89.8ZM163.29 96.6C162.55 97.78 161.72 100.02 164.15 98.62C167.1 96.91 171.3 90.54 171.3 90.54H173.2C173.2 90.54 170.7 94.5 167.43 98.12C164.44 101.43 160.79 104.44 158.22 104.15C155.22 103.8 156.16 99.86 156.16 99.86C156.16 99.86 151.85 104.43 148.89 104.11C144.88 103.67 146.1 98.71 146.1 98.71C146.1 98.71 141.57 104.29 138.48 104.11C133.63 103.83 134.85 97.92 136.19 93.78C136.91 91.56 137.58 89.81 137.58 89.81C137.58 89.81 137.1 89.94 136.07 90.09C135.53 90.17 134.55 90.22 134.55 90.22C134.55 90.22 132.54 93.78 130.92 95.93C129.31 98.07 122.44 105.45 118.4 103.97C114.67 102.61 115.9 96.89 118.07 92.35C121.24 85.73 130.15 76.21 135.3 77.45C140.63 78.74 135.43 88.48 135.43 88.48C135.43 88.48 135.43 88.52 135.49 88.54C135.6 88.58 135.87 88.61 136.52 88.49C137.54 88.29 138.47 87.91 138.47 87.91C138.47 87.91 143.83 76.68 149.75 69.33C155.67 61.98 167.48 49.33 172.13 52.39C173.27 53.14 172.75 55.73 171.22 58.88C170.55 59.09 169.84 59.28 169.13 59.43C170.15 57.58 170.83 56.01 171.03 54.92C171.73 51.12 162.86 59.13 156.53 67.74C150.2 76.35 146.41 84.15 146.41 84.15C146.41 84.15 147.69 83.43 149.68 81.82C151.76 80.14 154.62 77.52 157.72 74.31C159.81 72.15 162.26 69.44 164.56 66.41C165.25 66.38 165.92 66.31 166.57 66.2C164.01 69.65 161.31 72.81 159.02 75.13C156.5 77.68 153.77 80.44 151.39 82.44C147.61 85.62 144.69 87.42 144.69 87.42C144.69 87.42 139.14 98.58 142.16 99.3C143.93 99.72 147.43 94.33 147.43 94.33C147.43 94.33 151.99 87.36 154.74 84.23C158.49 79.96 161.72 77.49 164.95 77.44C166.83 77.41 167.94 79.41 167.94 79.41L168.83 78.04H174.28C174.28 78.04 164.11 95.31 163.3 96.6H163.29ZM178.45 56.42C174.62 58.88 169.31 61.12 164.21 60.62C162.92 61.96 161.54 63.5 160.15 65.19C169 66.93 176.73 61.46 180.85 56.79C183.42 53.88 184.69 51.28 184.69 51.28C184.69 51.28 182.24 53.98 178.44 56.43L178.45 56.42ZM77.4403 81.33C79.6503 78.31 85.7203 67.72 85.7203 67.72C85.7203 67.72 85.6203 66.98 84.9103 66.94C84.0703 66.9 82.6803 67.18 79.8803 70.67C77.0803 74.16 74.9303 76.95 73.3603 79.83C71.6303 82.98 70.8803 85.21 71.8703 85.81C72.1503 85.98 72.5703 86 72.9103 85.92C73.5603 85.76 74.4003 85.11 75.5603 83.77C76.1003 83.14 76.7203 82.31 77.4403 81.32V81.33ZM49.6403 67.03C48.2103 65.95 44.5703 68.48 44.5503 71.07C44.5303 73.72 47.8403 74.48 48.2703 74.5C48.2703 74.5 48.6503 74.6 48.7903 74.29C48.8803 74.09 49.3303 73.26 49.8403 71.95C50.3403 70.63 50.9803 68.05 49.6503 67.04L49.6403 67.03ZM47.4803 76.16C47.3903 76.13 46.0103 75.73 44.6703 74.87C43.3303 74.01 42.7103 72.74 42.6603 72.65C42.6103 72.56 42.5603 72.63 42.5003 72.7C42.4503 72.77 42.1603 73.14 40.2103 76C38.2603 78.86 35.3803 84.71 38.0803 85.71C39.8103 86.35 42.7103 83.31 44.2903 81.3C45.7503 79.43 47.4803 76.56 47.5603 76.39C47.6403 76.22 47.5603 76.18 47.4703 76.15L47.4803 76.16ZM89.8103 77.9H91.7103C91.7103 77.9 82.2003 91.65 76.8303 91.03C73.8303 90.68 74.7203 86.98 74.7203 86.98C74.7203 86.98 70.5003 91.92 66.6403 90.93C63.1303 90.03 65.3903 84.19 65.3903 84.19C64.9903 84.35 57.4003 92.92 52.0703 90.87C46.4903 88.72 49.3803 81.55 50.4403 79.39C51.3403 77.57 52.3303 75.8 52.3303 75.8C52.3303 75.8 51.4703 76.04 50.9403 76.17C50.4103 76.29 49.6003 76.45 49.6003 76.45C49.6003 76.45 46.9603 80.74 45.3503 82.89C43.7403 85.03 36.8803 92.4 32.8403 90.93C28.8003 89.46 29.7903 83.81 32.0603 79.31C35.7403 72.02 44.4803 63.07 49.7403 64.41C55.0603 65.77 50.6603 74.39 50.6603 74.39C50.6603 74.39 51.7203 74.53 54.2503 72.8C57.9003 70.31 62.7103 63.61 67.9303 64.39C70.3803 64.76 72.6603 67.27 69.5403 72.05C68.5403 73.58 66.8703 74.95 65.5803 73.6C64.7803 72.76 65.4803 71.22 66.3203 70.17C67.5003 68.68 69.1403 68.88 69.1403 68.88C69.1403 68.88 70.0003 66.9 67.8103 66.94C66.0303 66.97 61.5503 71.11 59.0103 75.29C56.6803 79.13 53.1603 85.67 56.7003 87.09C59.9503 88.4 66.1103 81.07 68.9703 77.23C71.8303 73.39 78.3303 64.68 83.7903 64.33C85.6703 64.21 86.7903 65.92 86.7903 65.92L87.4203 64.92H92.8703C92.8703 64.92 82.5903 82.09 81.7903 83.4C81.1603 84.42 80.3203 86.71 82.6503 85.42C84.9803 84.13 89.8103 77.91 89.8103 77.91V77.9ZM86.8503 105.42C82.7203 102.52 77.6903 101.24 73.1203 101.42C68.5003 101.6 66.4203 105.06 66.4203 105.06C64.3303 101.42 60.2103 99.19 53.8403 99.25C43.5503 99.37 33.3403 104.12 25.2603 104.12C17.1803 104.12 11.8403 99.25 12.0303 90.59C12.3603 75.41 25.1803 61.74 34.7603 55.58C40.2703 52.04 44.8803 50.99 47.9003 51.33C50.1003 51.57 52.7503 54.12 51.0803 57.86C48.6303 63.35 45.2403 62.89 45.3603 60.27C45.4303 58.57 46.5703 57.49 47.4203 56.91C47.9603 56.53 48.9203 56.43 49.4203 56.42C49.9003 56.01 50.2703 53.01 46.3303 54C42.3803 54.99 37.6303 58.87 33.1003 63.86C28.5703 68.86 21.5203 78.33 19.7803 88.27C18.9703 92.88 19.5103 101.28 30.4303 101.18C39.6903 101.1 53.3503 95 65.9003 95.11C70.7703 95.15 75.0103 96.46 78.3203 98.5C81.5803 100.51 85.4703 103.43 86.8503 105.42Z" fill="#DBD3AA" stroke="#DBD3AA" stroke-width="2" stroke-linejoin="round"/>
<path d="M101.97 64.9199H96.7899L93.8599 69.6599H99.0399L101.97 64.9199Z" fill="black"/>
<path d="M132.99 55.37C132.99 55.37 129.75 56.66 125.99 60.81C122.21 64.98 120.04 69.63 121.66 70.87C122.28 71.34 123.72 71.42 126.33 69.07C128.37 67.24 130.44 64.84 131.84 61.41C133.52 57.3 132.99 55.42 132.99 55.37ZM153.6 62.83C149.42 60.69 146.36 58.07 143.18 56.43C140.14 54.87 138.18 54.22 135.73 54.55C135.32 54.6 134.72 54.8 134.72 54.8C134.72 54.8 135.99 59.11 130.96 66.37C125.87 73.72 121.25 73.68 119.94 71.65C118.56 69.52 120.33 65.17 123.3 61.31C126.4 57.27 131.86 53.91 131.86 53.91C131.86 53.91 130.12 52.85 125.84 55.27C121.68 57.63 114.49 63.25 107.85 72.72C101.21 82.19 99.8803 87.4 98.9203 91.51C97.9603 95.61 98.8403 100 103.39 100C107.94 100 113.23 93.06 114.72 90.64C117.49 86.15 119.3 79.25 115.53 80.2C113.67 80.67 112.16 82.73 111.21 84.72C110.23 86.76 109.84 88.71 109.84 88.71C109.84 88.71 108.27 89.27 106.15 90.85C104.04 92.43 102.66 93.94 102.66 93.94C102.66 93.94 102.66 90.66 105.28 85.36C107.89 80.05 112.69 77.62 115.41 77.4C117.86 77.2 121.05 79.28 118.35 86.95C115.66 94.62 107.69 103.93 99.3203 104.06C91.6003 104.17 86.5403 94.31 97.2803 77.11C109.16 58.08 123.12 52.24 127.66 51.59C132.19 50.94 133.66 52.94 133.66 52.94C133.66 52.94 137.46 51.18 142.28 51.51C147.81 51.89 152.1 55.8 157.74 58.55C156.26 59.98 154.86 61.45 153.6 62.83ZM178.45 56.41C174.62 58.87 169.31 61.11 164.21 60.61C162.92 61.95 161.54 63.49 160.15 65.18C169 66.92 176.73 61.45 180.85 56.78C183.42 53.87 184.69 51.27 184.69 51.27C184.69 51.27 182.24 53.97 178.44 56.42M166.68 81.34C166.79 81.15 166.84 80.97 166.84 80.97C166.84 80.97 166.74 80.23 166.03 80.19C165.19 80.15 164.04 80.31 161.03 83.65C158.03 86.97 156.21 89.86 154.63 92.74C152.91 95.9 152.21 98.24 153.2 98.84C153.48 99.01 153.9 99.03 154.24 98.95C154.91 98.79 155.67 98.16 156.83 96.82C157.37 96.19 157.97 95.3 158.69 94.31C160.67 91.6 165.67 83.05 166.67 81.33M135.38 84.98C135.88 83.66 136.52 81.08 135.19 80.07C133.76 78.99 130.12 81.52 130.1 84.1C130.08 86.75 132.67 87.95 133.29 88.12C133.64 88.22 133.77 88.2 133.94 87.92C134.05 87.73 134.88 86.29 135.39 84.98M132.64 89.8C132.54 89.77 131.36 89.23 130.13 88.2C128.91 87.18 128.29 86.01 128.24 85.92C128.19 85.83 128.14 85.9 128.08 85.97C128.03 86.05 127.8 86.24 125.86 89.1C123.91 91.96 120.94 97.85 123.64 98.85C125.37 99.49 128.25 96.46 129.82 94.45C131.28 92.58 132.64 90.21 132.72 90.04C132.8 89.87 132.72 89.83 132.63 89.79M163.27 96.59C162.53 97.77 161.7 100.01 164.13 98.61C167.08 96.9 171.28 90.53 171.28 90.53H173.18C173.18 90.53 170.68 94.49 167.41 98.11C164.42 101.42 160.77 104.43 158.2 104.14C155.2 103.79 156.14 99.85 156.14 99.85C156.14 99.85 151.83 104.42 148.87 104.1C144.86 103.66 146.08 98.7 146.08 98.7C146.08 98.7 141.55 104.28 138.46 104.1C133.61 103.82 134.83 97.91 136.17 93.77C136.89 91.55 137.56 89.8 137.56 89.8C137.56 89.8 137.08 89.93 136.05 90.08C135.51 90.16 134.53 90.21 134.53 90.21C134.53 90.21 132.52 93.77 130.9 95.92C129.29 98.06 122.42 105.44 118.38 103.96C114.65 102.6 115.88 96.88 118.05 92.34C121.22 85.72 130.13 76.2 135.28 77.44C140.61 78.73 135.41 88.47 135.41 88.47C135.41 88.47 135.41 88.51 135.47 88.53C135.58 88.57 135.85 88.6 136.5 88.48C137.52 88.28 138.45 87.9 138.45 87.9C138.45 87.9 143.81 76.67 149.73 69.32C155.65 61.97 167.46 49.32 172.11 52.38C173.25 53.13 172.73 55.72 171.2 58.87C170.53 59.08 169.82 59.27 169.11 59.42C170.13 57.57 170.81 56 171.01 54.91C171.71 51.11 162.84 59.12 156.51 67.73C150.18 76.34 146.39 84.14 146.39 84.14C146.39 84.14 147.67 83.42 149.66 81.81C151.74 80.13 154.6 77.51 157.7 74.3C159.79 72.14 162.24 69.43 164.54 66.4C165.23 66.37 165.9 66.3 166.55 66.19C163.99 69.64 161.29 72.8 159 75.12C156.48 77.67 153.75 80.43 151.37 82.43C147.59 85.61 144.67 87.41 144.67 87.41C144.67 87.41 139.12 98.57 142.14 99.29C143.91 99.71 147.41 94.32 147.41 94.32C147.41 94.32 151.97 87.35 154.72 84.22C158.47 79.95 161.7 77.48 164.93 77.43C166.81 77.4 167.92 79.4 167.92 79.4L168.81 78.03H174.26C174.26 78.03 164.09 95.3 163.28 96.59M178.44 56.41C174.61 58.87 169.3 61.11 164.2 60.61C162.91 61.95 161.53 63.49 160.14 65.18C168.99 66.92 176.72 61.45 180.84 56.78C183.41 53.87 184.68 51.27 184.68 51.27C184.68 51.27 182.23 53.97 178.43 56.42M77.4203 81.33C79.6303 78.31 85.7003 67.72 85.7003 67.72C85.7003 67.72 85.6003 66.98 84.8903 66.94C84.0503 66.9 82.6603 67.18 79.8603 70.67C77.0603 74.16 74.9103 76.95 73.3403 79.83C71.6103 82.98 70.8603 85.21 71.8503 85.81C72.1303 85.98 72.5503 86 72.8903 85.92C73.5403 85.76 74.3803 85.11 75.5403 83.77C76.0803 83.14 76.7003 82.31 77.4203 81.32M49.6203 67.02C48.1903 65.94 44.5503 68.47 44.5303 71.06C44.5103 73.71 47.8203 74.47 48.2503 74.49C48.2503 74.49 48.6303 74.59 48.7703 74.28C48.8603 74.08 49.3103 73.25 49.8203 71.94C50.3203 70.62 50.9603 68.04 49.6303 67.03M47.4703 76.16C47.3803 76.13 46.0003 75.73 44.6603 74.87C43.3203 74.01 42.7003 72.74 42.6503 72.65C42.6003 72.56 42.5503 72.63 42.4903 72.7C42.4403 72.77 42.1503 73.14 40.2003 76C38.2503 78.86 35.3703 84.71 38.0703 85.71C39.8003 86.35 42.7003 83.31 44.2803 81.3C45.7403 79.43 47.4703 76.56 47.5503 76.39C47.6303 76.22 47.5503 76.18 47.4603 76.15M89.7903 77.89H91.6903C91.6903 77.89 82.1803 91.64 76.8103 91.02C73.8103 90.67 74.7003 86.97 74.7003 86.97C74.7003 86.97 70.4803 91.91 66.6203 90.92C63.1103 90.02 65.3703 84.18 65.3703 84.18C64.9703 84.34 57.3803 92.91 52.0503 90.86C46.4703 88.71 49.3603 81.54 50.4203 79.38C51.3203 77.56 52.3103 75.79 52.3103 75.79C52.3103 75.79 51.4503 76.03 50.9203 76.16C50.3903 76.28 49.5803 76.44 49.5803 76.44C49.5803 76.44 46.9403 80.73 45.3303 82.88C43.7203 85.02 36.8603 92.39 32.8203 90.92C28.7803 89.45 29.7703 83.8 32.0403 79.3C35.7203 72.01 44.4603 63.06 49.7203 64.4C55.0403 65.76 50.6403 74.38 50.6403 74.38C50.6403 74.38 51.7003 74.52 54.2303 72.79C57.8803 70.3 62.6903 63.6 67.9103 64.38C70.3603 64.75 72.6403 67.26 69.5203 72.04C68.5203 73.57 66.8503 74.94 65.5603 73.59C64.7603 72.75 65.4603 71.21 66.3003 70.16C67.4803 68.67 69.1203 68.87 69.1203 68.87C69.1203 68.87 69.9803 66.89 67.7903 66.93C66.0103 66.96 61.5303 71.1 58.9903 75.28C56.6603 79.12 53.1403 85.66 56.6803 87.08C59.9303 88.39 66.0903 81.06 68.9503 77.22C71.8103 73.38 78.3103 64.67 83.7703 64.32C85.6503 64.2 86.7703 65.91 86.7703 65.91L87.4003 64.91H92.8503C92.8503 64.91 82.5703 82.08 81.7703 83.39C81.1403 84.41 80.3003 86.7 82.6303 85.41C84.9603 84.12 89.7903 77.9 89.7903 77.9M86.8303 105.42C82.7003 102.52 77.6703 101.24 73.1003 101.42C68.4803 101.6 66.4003 105.06 66.4003 105.06C64.3103 101.42 60.1903 99.19 53.8203 99.25C43.5303 99.37 33.3203 104.12 25.2403 104.12C17.1603 104.12 11.8203 99.25 12.0103 90.59C12.3403 75.41 25.1603 61.74 34.7403 55.58C40.2503 52.04 44.8603 50.99 47.8803 51.33C50.0803 51.57 52.7303 54.12 51.0603 57.86C48.6103 63.35 45.2203 62.89 45.3403 60.27C45.4103 58.57 46.5503 57.49 47.4003 56.91C47.9403 56.53 48.9003 56.43 49.4003 56.42C49.8803 56.01 50.2503 53.01 46.3103 54C42.3603 54.99 37.6103 58.87 33.0803 63.86C28.5503 68.86 21.5003 78.33 19.7603 88.27C18.9503 92.88 19.4903 101.28 30.4103 101.18C39.6703 101.1 53.3303 95 65.8803 95.11C70.7503 95.15 74.9903 96.46 78.3003 98.5C81.5603 100.51 85.4503 103.43 86.8303 105.42Z" fill="black"/>
<path d="M173.91 97.9099C173.19 97.9099 172.55 98.0699 171.96 98.3999C171.37 98.7399 170.91 99.1899 170.57 99.7599C170.23 100.33 170.07 100.96 170.07 101.62C170.07 102.28 170.23 102.93 170.57 103.48C170.91 104.05 171.37 104.5 171.96 104.83C172.55 105.17 173.18 105.33 173.91 105.33C174.64 105.33 175.28 105.17 175.87 104.83C176.46 104.5 176.9 104.05 177.24 103.48C177.58 102.92 177.74 102.3 177.74 101.62C177.74 100.94 177.58 100.33 177.24 99.7599C176.9 99.1899 176.45 98.7399 175.87 98.3999C175.28 98.0699 174.63 97.9099 173.91 97.9099ZM173.91 104.62C173.32 104.62 172.79 104.48 172.34 104.23C171.88 103.97 171.52 103.62 171.26 103.17C171 102.72 170.88 102.2 170.88 101.63C170.88 101.06 171 100.55 171.26 100.11C171.52 99.6599 171.87 99.2899 172.34 99.0299C172.8 98.7699 173.32 98.6499 173.91 98.6499C174.5 98.6499 175.01 98.7699 175.48 99.0299C175.94 99.2899 176.3 99.6599 176.56 100.11C176.82 100.56 176.94 101.08 176.94 101.63C176.94 102.18 176.82 102.72 176.56 103.17C176.3 103.62 175.95 103.97 175.5 104.23C175.04 104.49 174.51 104.62 173.92 104.62H173.91ZM175.52 100.97C175.52 100.67 175.42 100.41 175.23 100.21C175.03 100.01 174.77 99.9099 174.44 99.9099H172.49V103.27H173.35V102.04H174L174.79 103.27H175.77L174.89 101.96C175.09 101.86 175.24 101.73 175.35 101.55C175.46 101.37 175.51 101.18 175.51 100.96L175.52 100.97ZM173.36 100.64H174.29C174.4 100.64 174.48 100.67 174.55 100.72C174.62 100.79 174.65 100.87 174.65 100.96C174.65 101.05 174.62 101.14 174.55 101.19C174.48 101.26 174.4 101.29 174.29 101.29H173.36V100.64Z" fill="black"/>
<path d="M34.5999 127.37L40.5699 121.01V118.73H31.2099V121.18H36.9199L30.9199 127.57V129.82H40.7999V127.37H34.5999ZM53.6199 127.37H47.1099V125.4H51.4999V122.92H47.1099V121.18H53.4699L53.7899 118.73H44.2799V129.82H53.9499L53.6299 127.37H53.6199ZM64.7699 129.82H68.0199L64.9999 125.49C65.6799 125.23 66.1999 124.81 66.5899 124.23C66.9599 123.66 67.1399 123 67.1399 122.26C67.1399 121.61 66.9999 121.03 66.7099 120.49C66.4199 119.95 65.9899 119.54 65.4199 119.21C64.8499 118.89 64.1899 118.73 63.4199 118.73H57.1099V129.82H59.9099V125.77H62.0799L64.7699 129.82ZM59.8999 121.2H63.0399C63.4099 121.2 63.6999 121.29 63.9299 121.49C64.1499 121.69 64.2499 121.94 64.2499 122.26C64.2499 122.58 64.1399 122.85 63.9299 123.05C63.6999 123.25 63.4099 123.34 63.0399 123.34H59.8999V121.2Z" fill="black"/>
<path d="M76.1501 130.01C74.9801 130.01 73.93 129.76 73.01 129.27C72.09 128.79 71.36 128.12 70.85 127.24C70.33 126.36 70.0601 125.38 70.0601 124.27C70.0601 123.16 70.32 122.18 70.85 121.3C71.36 120.42 72.08 119.75 73.01 119.25C73.93 118.77 74.9801 118.53 76.1501 118.53C77.3201 118.53 78.37 118.78 79.29 119.25C80.21 119.74 80.9401 120.42 81.4601 121.3C81.9701 122.18 82.23 123.16 82.23 124.27C82.23 125.38 81.9701 126.36 81.4601 127.24C80.9401 128.12 80.21 128.79 79.29 129.27C78.37 129.76 77.3201 130.01 76.1501 130.01ZM76.1501 121.11C75.5501 121.11 75.0101 121.25 74.5301 121.51C74.0501 121.77 73.68 122.14 73.42 122.62C73.16 123.1 73.0201 123.65 73.0201 124.27C73.0201 124.89 73.16 125.42 73.42 125.9C73.68 126.38 74.0501 126.76 74.5301 127.02C75.0101 127.28 75.5501 127.42 76.1501 127.42C76.7501 127.42 77.2901 127.28 77.7701 127.02C78.25 126.76 78.62 126.37 78.88 125.9C79.14 125.42 79.2801 124.88 79.2801 124.27C79.2801 123.66 79.14 123.1 78.88 122.62C78.62 122.14 78.25 121.77 77.7701 121.51C77.2901 121.25 76.7501 121.11 76.1501 121.11ZM96.1501 129.96C97.1801 129.96 98.0601 129.81 98.8101 129.5C99.5501 129.19 100.12 128.76 100.52 128.19C100.9 127.64 101.11 126.99 101.11 126.23C101.11 125.38 100.85 124.69 100.31 124.12C99.7701 123.55 98.94 123.18 97.82 123.01L95.14 122.58C94.51 122.47 94.19 122.24 94.19 121.86C94.19 121.63 94.3701 121.41 94.7401 121.24C95.0901 121.07 95.59 120.99 96.19 120.99C96.79 120.99 97.33 121.08 97.85 121.28C98.36 121.48 98.8701 121.77 99.3701 122.16L100.97 120.11C100.37 119.57 99.6501 119.17 98.7801 118.91C97.9201 118.65 97.0201 118.53 96.1201 118.53C95.0901 118.53 94.2001 118.67 93.4701 118.96C92.7301 119.25 92.18 119.65 91.79 120.18C91.41 120.72 91.2201 121.33 91.2201 122.04C91.2201 123.81 92.37 124.89 94.67 125.26L97.04 125.63C97.76 125.74 98.1201 126.01 98.1201 126.46C98.1201 126.75 97.95 126.98 97.61 127.18C97.26 127.38 96.78 127.49 96.16 127.49C94.73 127.49 93.51 127.03 92.48 126.12L90.79 128.2C91.36 128.74 92.13 129.17 93.1 129.48C94.05 129.8 95.0701 129.96 96.1501 129.96ZM109.39 130.01C110.45 130.01 111.38 129.83 112.16 129.46C112.95 129.09 113.55 128.57 113.96 127.87C114.37 127.17 114.58 126.36 114.58 125.42V118.72H111.73V125.12C111.73 125.87 111.53 126.44 111.14 126.83C110.75 127.22 110.17 127.42 109.38 127.42C108.59 127.42 108.03 127.22 107.64 126.83C107.24 126.45 107.04 125.88 107.04 125.12V118.72H104.19V125.42C104.19 126.36 104.41 127.18 104.82 127.87C105.24 128.56 105.84 129.09 106.62 129.46C107.4 129.83 108.31 130.01 109.38 130.01H109.39ZM129.16 123.14H123.51V125.6H126.37V127.16C125.78 127.38 125.15 127.48 124.46 127.48C123.77 127.48 123.07 127.34 122.5 127.06C121.93 126.8 121.48 126.41 121.16 125.92C120.84 125.43 120.68 124.87 120.68 124.26C120.68 123.65 120.83 123.09 121.14 122.6C121.45 122.12 121.86 121.74 122.4 121.46C122.92 121.18 123.49 121.04 124.12 121.04C125.32 121.04 126.4 121.42 127.35 122.18L128.94 120.15C128.37 119.63 127.68 119.23 126.86 118.93C126.03 118.65 125.1 118.51 124.1 118.51C122.88 118.51 121.81 118.76 120.84 119.25C119.87 119.74 119.1 120.42 118.55 121.3C118 122.18 117.72 123.18 117.72 124.3C117.72 125.42 118 126.38 118.57 127.24C119.14 128.1 119.92 128.78 120.94 129.26C121.94 129.75 123.1 130 124.39 130C125.41 130 126.33 129.88 127.16 129.63C127.98 129.4 128.64 129.09 129.15 128.71V123.14H129.16ZM140.96 129.81H143.92L139.56 118.72H136.05L131.71 129.81H134.64L135.47 127.56H140.14L140.97 129.81H140.96ZM136.34 125.18L137.79 121.24L139.25 125.18H136.34ZM154.39 129.81H157.64L154.62 125.48C155.3 125.22 155.82 124.8 156.21 124.22C156.58 123.65 156.76 122.99 156.76 122.25C156.76 121.6 156.62 121.02 156.33 120.48C156.04 119.94 155.61 119.53 155.04 119.2C154.47 118.88 153.81 118.72 153.04 118.72H146.73V129.81H149.53V125.76H151.7L154.39 129.81ZM149.52 121.19H152.66C153.03 121.19 153.32 121.28 153.55 121.48C153.77 121.68 153.87 121.93 153.87 122.25C153.87 122.57 153.76 122.84 153.55 123.04C153.32 123.24 153.03 123.33 152.66 123.33H149.52V121.19Z" fill="black"/>
</svg>
