<svg width="39" height="40" viewBox="0 0 39 40" fill="none" xmlns="http://www.w3.org/2000/svg">
<g clip-path="url(#clip0_101_19542)">
<path d="M26.9483 36.5556C20.4668 39.8148 12.1427 38.5556 6.49456 32.9074C-0.477659 25.9352 -0.755436 14.8982 5.87419 8.25928" stroke="#73C37E" stroke-linecap="round" stroke-linejoin="round"/>
<path d="M23.9761 34.0556L28.0224 40.0001L31.1427 33.5278L23.9761 34.0556Z" fill="#73C37E"/>
<path d="M11.8555 3.44452C18.337 0.185256 26.661 1.43526 32.3092 7.09266C39.2907 14.0741 39.5592 25.1019 32.9295 31.7408" stroke="#73C37E" stroke-linecap="round" stroke-linejoin="round"/>
<path d="M7.66113 6.47222L14.8278 5.94444L10.7815 0L7.66113 6.47222Z" fill="#73C37E"/>
<path d="M22.6425 23.611C22.6425 25.2777 21.2906 26.6296 19.6147 26.6296C17.9388 26.6296 16.5869 25.2777 16.5869 23.611C16.5869 21.9444 17.9388 20.5925 19.6147 20.5925C21.2906 20.5925 22.6425 21.9444 22.6425 23.611Z" stroke="#D7B75B" stroke-miterlimit="10"/>
<path d="M14.9946 32.2686C14.9946 29.713 17.0687 27.6482 19.6243 27.6482C22.1798 27.6482 24.2539 29.713 24.2539 32.2686" stroke="#D7B75B" stroke-linecap="round" stroke-linejoin="round"/>
<path d="M29.8559 13.2685C29.8559 14.9352 28.504 16.287 26.8281 16.287C25.1522 16.287 23.8096 14.9352 23.8096 13.2685C23.8096 11.6019 25.1614 10.25 26.8281 10.25C28.4948 10.25 29.8559 11.6019 29.8559 13.2685V13.2685Z" stroke="#D7B75B" stroke-miterlimit="10"/>
<path d="M22.1982 21.9168C22.1982 19.3612 24.2723 17.3057 26.8279 17.3057C29.3834 17.3057 31.4575 19.3705 31.4575 21.9168" stroke="#D7B75B" stroke-linecap="round" stroke-linejoin="round"/>
<path d="M15.4389 13.2685C15.4389 14.9352 14.087 16.287 12.4111 16.287C10.7352 16.287 9.3833 14.9352 9.3833 13.2685C9.3833 11.6019 10.7352 10.25 12.4111 10.25C14.087 10.25 15.4389 11.6019 15.4389 13.2685Z" stroke="#D7B75B" stroke-miterlimit="10"/>
<path d="M7.78174 21.9168C7.78174 19.3612 9.85581 17.3057 12.4114 17.3057C14.9669 17.3057 17.041 19.3705 17.041 21.9168" stroke="#D7B75B" stroke-linecap="round" stroke-linejoin="round"/>
</g>
<defs>
<clipPath id="clip0_101_19542">
<rect width="38.0926" height="40" fill="white" transform="translate(0.355469)"/>
</clipPath>
</defs>
</svg>
