<svg width="41" height="21" viewBox="0 0 41 21" fill="none" xmlns="http://www.w3.org/2000/svg">
<g clip-path="url(#clip0_101_19626)">
<path fill-rule="evenodd" clip-rule="evenodd" d="M4.36997 16.8638C4.36997 15.8688 5.18427 15.0537 6.17823 15.0537C7.17219 15.0537 7.9865 15.8688 7.9865 16.8638C7.9865 17.8589 7.17219 18.674 6.17823 18.674C5.18427 18.674 4.36997 17.8589 4.36997 16.8638ZM6.17823 15.9067C5.65491 15.9067 5.22214 16.34 5.22214 16.8638C5.22214 17.3877 5.65491 17.821 6.17823 17.821C6.70155 17.821 7.13433 17.3877 7.13433 16.8638C7.13433 16.34 6.70155 15.9067 6.17823 15.9067Z" fill="white"/>
<path fill-rule="evenodd" clip-rule="evenodd" d="M30.6833 16.8638C30.6833 15.8688 31.4976 15.0537 32.4915 15.0537C33.4855 15.0537 34.2998 15.8688 34.2998 16.8638C34.2998 17.8589 33.4855 18.674 32.4915 18.674C31.4976 18.674 30.6833 17.8589 30.6833 16.8638ZM32.4915 15.9067C31.9682 15.9067 31.5354 16.34 31.5354 16.8638C31.5354 17.3877 31.9682 17.821 32.4915 17.821C33.0149 17.821 33.4476 17.3877 33.4476 16.8638C33.4476 16.34 33.0149 15.9067 32.4915 15.9067Z" fill="white"/>
<path fill-rule="evenodd" clip-rule="evenodd" d="M30.3092 1.12356V3.3811H33.7178C34.3219 3.3811 34.8449 3.74986 35.0753 4.28335L35.0782 4.29L36.9424 8.81515C38.539 9.17991 39.7573 10.5324 39.9234 12.1979H40.0987C40.4918 12.1979 40.8105 12.517 40.8105 12.9106V15.1681C40.8105 15.5617 40.4918 15.8807 40.0987 15.8807H39.7483C39.5185 16.2512 39.1082 16.4997 38.6437 16.4997H38.2177V16.4893H36.5589C36.5701 16.6127 36.5758 16.7376 36.5758 16.8639C36.5758 19.1219 34.7472 20.9524 32.4916 20.9524C30.236 20.9524 28.4074 19.1219 28.4074 16.8639C28.4074 16.7376 28.4131 16.6127 28.4243 16.4893H10.2454C10.2566 16.6127 10.2624 16.7376 10.2624 16.8639C10.2624 19.1219 8.4338 20.9524 6.17817 20.9524C3.92253 20.9524 2.09398 19.1219 2.09398 16.8639C2.09398 16.6719 2.1072 16.4831 2.13276 16.2982C1.97658 16.1928 1.84831 16.0492 1.76136 15.8807H1.52242C1.12927 15.8807 0.810547 15.5617 0.810547 15.1681V12.9106C0.810547 12.517 1.12927 12.1979 1.52242 12.1979H1.63678V1.12356C1.63678 0.503069 2.13932 0 2.75915 0H29.1868C29.8067 0 30.3092 0.503067 30.3092 1.12356ZM2.48895 1.12356C2.48895 0.974209 2.60996 0.853076 2.75915 0.853076H29.1868C29.336 0.853076 29.457 0.974211 29.457 1.12356V10.0015L29.4569 10.0184V14.1275C29.0697 14.5576 28.7724 15.0704 28.5947 15.6363H10.075C9.55429 13.978 8.00653 12.7753 6.17817 12.7753C4.8539 12.7753 3.67684 13.4063 2.93058 14.3842V12.9106C2.93058 12.6128 2.74809 12.3576 2.48895 12.2511V1.12356ZM39.0749 12.2777C38.8465 12.3963 38.6905 12.6352 38.6905 12.9106V15.1681C38.6905 15.331 38.7451 15.4812 38.837 15.6012C38.8057 15.6167 38.7725 15.6285 38.7379 15.6363H36.3885C35.8677 13.978 34.32 12.7753 32.4916 12.7753C31.689 12.7753 30.9405 13.0071 30.3092 13.4074V10.0084C30.3144 9.76414 30.5116 9.57269 30.7529 9.5711H36.0847C37.6429 9.57505 38.9203 10.7582 39.0749 12.2777ZM30.3092 4.23418V8.71803H30.7508L30.756 8.71802L35.9806 8.71803L34.2919 4.61903C34.1892 4.38435 33.9648 4.23418 33.7178 4.23418H30.3092ZM2.94615 16.8639C2.94615 15.077 4.39317 13.6284 6.17817 13.6284C7.96316 13.6284 9.41018 15.077 9.41018 16.8639C9.41018 18.6507 7.96316 20.0993 6.17817 20.0993C4.39318 20.0993 2.94615 18.6507 2.94615 16.8639ZM29.2596 16.8639C29.2596 15.077 30.7066 13.6284 32.4916 13.6284C34.2766 13.6284 35.7236 15.077 35.7236 16.8639C35.7236 18.6507 34.2766 20.0993 32.4916 20.0993C30.7066 20.0993 29.2596 18.6507 29.2596 16.8639ZM1.61076 15.0797V12.999H2.13037V15.0797H1.61076ZM40.0103 15.0797H39.4907V12.999H40.0103V15.0797Z" fill="white"/>
<path fill-rule="evenodd" clip-rule="evenodd" d="M16.5853 3.79465C17.8955 2.78362 19.7874 2.71513 21.1037 3.81769L20.7795 4.20463L21.1044 3.81831C22.7274 5.18312 22.8121 7.60452 21.3426 9.07401L21.2633 9.15331L17.4012 13.0155C16.9503 13.4664 16.2183 13.4664 15.7674 13.0155L11.8259 9.07401C10.3573 7.60538 10.44 5.17527 12.0651 3.81755C13.3886 2.70783 15.2811 2.78242 16.5853 3.79465ZM20.455 4.59126C19.4508 3.7504 17.913 3.85826 16.9479 4.81658L16.8003 4.96317H16.3673L16.2194 4.81533C15.2622 3.85811 13.7251 3.74284 12.7134 4.59138L12.7126 4.59204C11.5466 5.56596 11.4866 7.30701 12.5398 8.36017L16.4812 12.3016C16.5379 12.3583 16.6307 12.3583 16.6873 12.3016L20.6288 8.36017C21.6811 7.30787 21.6232 5.57393 20.455 4.59126Z" fill="#F40009"/>
<path fill-rule="evenodd" clip-rule="evenodd" d="M14.2226 7.13778C14.4642 6.99863 14.7728 7.08164 14.9119 7.32319C15.2462 7.90338 15.8684 8.29169 16.5841 8.29169C17.2997 8.29169 17.922 7.90338 18.2562 7.32319C18.3954 7.08164 18.704 6.99863 18.9456 7.13778C19.1871 7.27694 19.2701 7.58557 19.131 7.82713C18.6246 8.70615 17.6766 9.30122 16.5841 9.30122C15.4916 9.30122 14.5436 8.70615 14.0372 7.82713C13.898 7.58557 13.9811 7.27694 14.2226 7.13778Z" fill="#B49C74"/>
</g>
<defs>
<clipPath id="clip0_101_19626">
<rect width="40" height="20.9524" fill="white" transform="translate(0.810547)"/>
</clipPath>
</defs>
</svg>
