<svg width="50" height="172" viewBox="0 0 50 172" fill="none" xmlns="http://www.w3.org/2000/svg">
<g clip-path="url(#clip0_101_19383)">
<path d="M24.03 42.52C22.38 41.19 22.05 39.74 21.81 39.22L22.71 44.28C22.71 44.28 23.26 45.57 24.29 46.76C25.02 46.72 25.8 46.7 26.57 46.69L26.23 44.76C25.93 43.9 24.89 43.2 24.03 42.51M20.65 24.3C21.7 25.3 22.57 25.66 22.98 26.46C22.98 26.46 22.03 21.08 22.03 21.07C21.58 20.14 20.55 19.26 19.35 18.46C18.23 17.71 17.74 16.28 17.74 16.28C17.74 16.28 18.74 21.94 18.75 21.96C18.9 22.25 19.19 22.9 20.65 24.3ZM21.71 15.62C21.71 15.62 21.63 10.36 18.82 9.37003C18.78 9.36003 16.79 10.93 13.48 10.71C15.11 11.45 17.31 12.5 17.34 12.56C18.87 14.99 21.7 15.63 21.7 15.63M31.76 20.69C29.03 21.89 29.34 27.14 29.34 27.14C29.34 27.14 32.12 26.29 33.46 23.75C33.49 23.7 35.6 22.48 37.18 21.62C33.9 22.09 31.8 20.67 31.76 20.69ZM31.63 31.2C30.47 32.06 29.48 32.99 29.08 33.94L28.39 39.36C28.76 38.54 29.61 38.15 30.62 37.09C32.01 35.63 32.27 34.96 32.41 34.67C32.42 34.64 33.14 28.95 33.14 28.95C33.14 28.95 32.72 30.4 31.64 31.2M29.52 43.91C28.01 45.02 27.55 45.94 27.54 46.06C27.54 46.08 27.5 46.34 27.46 46.71C28.65 46.73 29.81 46.8 30.74 46.89C30.83 46.6 30.9 46.33 30.95 46.12L31.62 40.86C31.62 40.86 31.06 42.79 29.52 43.92M22.94 36.32C24.35 37.15 25.06 38.2 25.06 38.2C25.06 38.2 24.18 33.25 24.16 33.12C24.14 33 23.64 32.11 22.08 31.07C20.49 30.02 19.83 28.11 19.83 28.11L20.76 33.34C20.97 34.05 21.25 35.32 22.94 36.31M47.39 10.34L43.46 12.68C43.46 12.68 46.86 12.02 48.54 12.75C47.75 11.86 47.29 10.41 47.39 10.34ZM43.93 15.18C42.53 14.84 41.18 14.67 40.19 14.96L35.57 17.89C36.44 17.66 37.29 18.06 38.74 18.16C40.76 18.3 41.43 18.07 41.75 17.99C41.77 17.99 46.62 14.91 46.62 14.91C46.62 14.91 45.24 15.51 43.93 15.19M2.01005 0.0500312C1.60005 -0.169969 0.840045 0.390031 0.390045 1.22003C-0.0799547 2.08003 -0.109955 2.83003 0.210045 2.96003C0.530045 3.10003 1.09005 2.70003 1.60005 1.91003C2.10005 1.14003 2.28005 0.180031 2.01005 0.0500312ZM49.16 11.34C48.66 10.55 48.01 10.01 47.87 10.09C47.73 10.18 47.98 10.94 48.48 11.73C48.98 12.52 49.65 13.19 49.79 13.1C49.93 13.02 49.66 12.12 49.16 11.33M14.82 6.87003L9.99004 4.30003C8.98004 4.08003 7.65005 4.35003 6.28005 4.80003C5.00005 5.22003 3.58005 4.72003 3.58005 4.72003C3.58005 4.72003 8.65004 7.43003 8.67004 7.43003C8.99004 7.49003 9.68005 7.66003 11.68 7.37003C13.12 7.16003 13.94 6.70003 14.82 6.87003ZM5.86005 1.99003L2.53005 0.330031C2.63005 0.390031 2.40005 1.58003 1.85005 2.29003C3.34005 1.58003 5.86005 1.99003 5.86005 1.99003Z" fill="black"/>
<path fill-rule="evenodd" clip-rule="evenodd" d="M26.6701 171.43C32.5001 171.43 38.8401 170.49 40.7601 169.36C43.9601 167.5 43.0201 160.22 42.1401 157.37C41.5201 155.36 40.1401 151.93 40.1501 144.81C40.1601 137.17 42.5901 122.37 42.6901 121.46C42.8801 119.93 43.2501 118.41 42.4401 118.05C43.4301 117.28 42.6401 98.43 40.9001 97.7C41.7801 97.7 41.4601 95.59 41.2801 94.14C40.9401 91.47 38.6501 85.18 36.6801 78.36C35.8001 75.31 34.4301 70.72 33.9801 67.31C33.5701 64.15 33.6501 60.11 33.6501 58.37C34.2401 57.77 34.4601 57.5 34.4401 56.55C34.4101 55.57 33.1901 53.16 33.1901 52.82C33.1901 52.48 33.1901 52.06 33.6301 51.66C34.1001 51.21 34.0801 50.43 33.8701 49.79C33.6301 49.01 32.7001 48.78 32.1601 48.65C31.6701 48.53 29.2101 48.27 26.6801 48.27C24.1501 48.27 21.6901 48.53 21.2001 48.65C20.6601 48.79 19.7301 49.01 19.4901 49.79C19.2801 50.43 19.2501 51.21 19.7201 51.66C20.1601 52.07 20.1701 52.48 20.1701 52.82C20.1701 53.16 18.9501 55.56 18.9201 56.55C18.9001 57.51 19.1201 57.78 19.7101 58.37C19.7101 60.12 19.8001 64.15 19.3801 67.31C18.9401 70.72 17.5601 75.31 16.6801 78.36C14.7101 85.18 12.4201 91.48 12.0801 94.14C11.9001 95.59 11.5801 97.7 12.4701 97.7C10.7301 98.43 9.9401 117.28 10.9301 118.05C10.1201 118.4 10.4801 119.93 10.6701 121.46C10.7701 122.37 13.2001 137.17 13.2101 144.81C13.2101 151.93 11.8501 155.36 11.2201 157.37C10.3401 160.22 9.4001 167.5 12.5901 169.36C14.5001 170.48 20.8501 171.43 26.6801 171.43" fill="black"/>
<path d="M27.4202 104.41H25.9402L26.7002 102.84H28.1802L27.4302 104.41H27.4202ZM22.5102 109.43C22.3902 109.74 22.4802 109.91 22.5602 109.94C22.8002 110.04 23.7102 109.35 24.8802 107.21H25.4402C24.5202 108.89 23.2902 110.63 22.4002 111.34C22.1102 111.57 21.5502 111.88 21.1402 111.68C20.7902 111.51 20.6802 110.89 20.7102 110.37C20.2602 111.02 19.5502 111.92 18.7402 111.67C18.2302 111.51 18.0302 110.84 18.2502 109.49C17.5702 110.41 16.7502 111.86 15.6202 111.58C15.3402 111.51 14.8902 110.86 14.8902 109.93C14.8902 109.44 14.9102 108.54 15.3802 107.08C15.2402 107.2 15.0502 107.29 14.9102 107.33C14.5002 108.83 13.5502 111.51 12.9702 111.39C12.4902 111.29 12.1802 109.43 12.9002 106.85C13.1802 105.88 13.9602 103.6 14.8602 103.88C15.5902 104.12 15.2902 105.67 15.0302 106.76C15.6502 106.58 16.1402 105.53 16.3602 105.11C16.5802 104.7 17.7802 102.61 18.9502 103.18C19.3502 103.38 19.4702 103.97 19.3302 104.6C19.1302 105.58 18.6602 106.53 18.2202 106.17C17.8202 105.84 18.1502 104.56 18.9402 104.48C19.0102 104.3 19.0402 103.98 18.8302 103.85C18.2902 103.53 17.1502 105.42 16.7302 106.39C16.2702 107.52 15.5702 109.82 16.3002 110.36C17.0902 110.94 18.5102 108.13 19.2202 106.81C19.9302 105.5 22.1502 101.12 23.7702 103.18C23.8402 103.1 23.8702 102.94 23.9202 102.82H25.5302C25.5302 102.82 22.5602 109.2 22.5002 109.41M14.5602 107.3C14.2002 107.19 13.9602 106.94 13.8102 106.54C13.0202 109.11 13.2702 110.06 13.3902 110.06C13.6802 110.06 14.2402 108.68 14.5702 107.31M14.7902 104.61C14.5902 104.56 13.9802 105.32 14.0902 106.26C14.1102 106.47 14.3702 106.77 14.7102 106.8C14.9002 106.01 15.1602 104.71 14.7902 104.61ZM23.5002 103.78C23.4002 103.28 22.7602 103.48 22.0502 104.57C21.2702 105.74 20.5102 107.12 20.1902 107.95C19.8002 109 19.6502 109.94 20.0102 110.02C20.3902 110.11 20.9602 109.23 21.3002 108.6C21.6702 107.88 23.5102 103.78 23.5102 103.78M19.3702 113.13C15.9902 112.51 14.0302 114.28 12.8502 113.79C11.8602 113.4 11.6302 111.36 11.9902 107.88C12.1902 106.04 12.8002 103.63 13.3902 102.51C13.8502 101.62 14.2902 100.99 14.6002 101.11C14.8502 101.19 14.8202 101.45 14.7402 101.67C14.1902 101.85 13.9402 103.24 14.2802 103.35C14.5602 103.43 14.9002 102.67 15.0702 101.76C15.1502 101.31 15.0702 100.62 14.7502 100.44C14.3602 100.23 13.5302 100.94 12.9102 102.17C12.1402 103.74 11.5602 105.99 11.3302 107.73C10.9502 110.8 11.3202 113.82 12.5802 114.43C13.2502 114.75 16.9102 112.58 18.9502 116.17C19.8502 114.03 23.4602 115.7 24.5702 116.63C24.5002 116.42 22.0602 113.62 19.3702 113.13ZM42.1202 110.67C41.8102 111.96 40.8302 114.61 40.2102 114.34C39.9902 114.25 39.9202 113.63 39.9502 113.21C39.7802 113.72 39.1902 114.76 38.8202 114.58C38.5902 114.46 38.3602 114.15 38.4002 113.09C38.1402 113.83 37.6002 115.17 37.0702 114.97C36.3702 114.71 36.5102 113.07 36.9002 110.92C36.7402 111 36.5802 111.05 36.4102 111.08C36.0102 112.58 34.7602 115.95 33.1502 115.6C32.3002 115.42 32.1202 113.64 33.5302 110.26C33.9702 109.2 35.2202 106.94 36.3002 107.43C37.0102 107.74 36.7702 109.54 36.5202 110.64C36.6802 110.6 36.8302 110.53 36.9902 110.44C37.1402 109.65 37.3102 108.83 37.4902 107.98C38.3002 104.09 39.6002 100.12 40.3302 100.19C40.7002 100.23 40.7602 100.92 40.7402 101.99C40.6502 102.08 40.5402 102.16 40.4602 102.22C40.5202 101.47 40.5102 100.9 40.3902 100.84C39.9302 100.62 38.7502 105.53 38.0802 109.3C38.9602 108.02 39.6902 106.19 39.9602 105.22C40.0302 104.95 40.1102 104.63 40.1702 104.31C40.2802 104.28 40.4002 104.21 40.4902 104.17C40.4202 104.53 40.3402 104.92 40.2402 105.29C39.9002 106.56 39.0502 108.74 37.9602 110.04C37.6302 111.98 37.4702 113.44 37.6602 113.5C38.0702 113.64 38.6302 111.46 38.9502 110.44C39.3402 109.26 40.5902 105.87 41.2702 107.72C41.3002 107.65 41.3502 107.44 41.3602 107.35L41.9202 107.3C41.7702 108.29 41.1602 111.05 40.8402 112.48C40.7802 112.72 40.8402 112.89 40.8902 112.88C40.9902 112.88 41.4602 112.2 41.8702 110.67H42.1102H42.1202ZM36.1002 111.05C35.5902 110.99 35.1702 110.29 35.0202 109.81C33.7902 112.13 33.8302 113.77 34.3202 113.88C34.8402 113.99 35.7702 112.36 36.1002 111.05ZM36.3402 108.13C35.9902 107.87 35.2302 108.62 35.3702 109.48C35.4202 109.78 35.6602 110.6 36.2202 110.63C36.4202 109.85 36.7202 108.42 36.3402 108.13ZM41.1402 108.15C41.0802 107.77 40.8702 107.77 40.4602 108.7C40.0602 109.6 39.6702 110.76 39.5702 111.42C39.4402 112.25 39.3502 112.96 39.5202 113C39.7502 113.08 39.9802 112.38 40.1502 111.9C40.4202 111.13 41.1402 108.14 41.1402 108.14M32.9802 109.6C32.8302 110.6 32.4602 111.64 32.2002 112.15C31.9502 112.66 31.6402 113.31 31.2202 113.88C30.2402 115.22 28.6602 116.66 27.1502 115.86C25.7302 115.11 25.2602 112.85 25.7802 110.67C26.3902 108.15 27.6302 104.99 30.5002 101.84C31.7102 100.52 33.2502 99.8499 33.9602 99.8899C34.6502 99.9199 35.0902 100.25 35.3502 100.73C35.4702 100.69 35.5702 100.66 35.6902 100.63C36.7102 100.44 37.8002 101.39 38.6302 102.05C38.4802 102.45 38.3302 102.9 38.1902 103.39C37.3802 102.53 36.6302 101.18 35.7802 101.22C35.7002 101.22 35.6302 101.25 35.5502 101.26C35.7402 102.07 35.6302 103.09 35.3502 103.92C34.9102 105.24 34.1302 106.25 33.4002 105.99C32.1702 105.57 33.1002 101.89 35.0502 100.86C34.9102 100.67 34.7102 100.59 34.4402 100.64C33.6302 100.79 32.3902 101.87 31.5102 103.16C30.6302 104.44 27.9002 108.56 27.7902 112.58C27.7702 113.45 28.1702 114.48 28.9402 114.65C30.0702 114.91 31.2502 113.06 31.8202 111.94C32.4702 110.68 33.0502 108.27 32.3502 108.04C31.5902 107.79 30.7402 109.82 30.7402 110.84C30.0002 111.27 29.5102 111.92 28.9902 112.65C29.2202 109.27 30.5402 107.36 31.8502 107.16C32.8702 107 33.1802 108.23 32.9902 109.61M33.6202 105.56C34.2102 105.64 34.7102 104.69 35.0602 103.74C35.2802 103.14 35.4302 102.09 35.2802 101.38C33.7102 102.09 32.6302 105.42 33.6202 105.56ZM39.5302 104.13C41.3202 104.24 41.6002 101.51 41.7402 100.42C41.3602 101.82 40.7702 102.66 39.9202 102.67C39.7902 103.11 39.6602 103.6 39.5302 104.13ZM42.5802 112.95C42.5802 112.46 42.4002 112.26 42.1702 112.33C41.9402 112.4 41.7302 112.72 41.7402 113.21C41.7402 113.7 41.9502 113.9 42.1802 113.83C42.4102 113.76 42.5802 113.44 42.5802 112.95ZM42.4902 112.98C42.5002 113.34 42.3502 113.63 42.1902 113.68C42.0102 113.73 41.8702 113.54 41.8702 113.18C41.8702 112.82 42.0102 112.54 42.1902 112.48C42.3502 112.43 42.5002 112.63 42.5002 112.98M42.1102 113.17L42.1602 113.15L42.2702 113.46L42.3902 113.43L42.2702 113.11C42.3302 113.08 42.3902 113.01 42.3802 112.85C42.3802 112.66 42.3102 112.62 42.1902 112.65L42.0102 112.7V113.53L42.1102 113.5V113.15V113.17ZM42.1102 113.02V112.82L42.1902 112.8C42.1902 112.8 42.2702 112.78 42.2702 112.86C42.2702 112.96 42.2502 112.97 42.2002 112.99L42.1102 113.01V113.02Z" fill="#ED1C24"/>
</g>
<defs>
<clipPath id="clip0_101_19383">
<rect width="49.82" height="171.43" fill="white"/>
</clipPath>
</defs>
</svg>
