<svg width="191" height="190" viewBox="0 0 191 190" fill="none" xmlns="http://www.w3.org/2000/svg">
<path d="M190.52 0H0.600098V189.92H190.52V0Z" fill="#F40009"/>
<path d="M26.01 128.79C24.95 128.79 23.99 128.57 23.15 128.12C22.31 127.69 21.65 127.07 21.19 126.27C20.71 125.47 20.48 124.58 20.48 123.57C20.48 122.56 20.72 121.66 21.19 120.87C21.65 120.07 22.31 119.46 23.15 119.01C23.99 118.58 24.94 118.35 26.01 118.35C27.08 118.35 28.03 118.57 28.87 119.01C29.71 119.46 30.37 120.07 30.85 120.87C31.31 121.67 31.55 122.56 31.55 123.57C31.55 124.58 31.31 125.48 30.85 126.27C30.37 127.07 29.72 127.68 28.87 128.12C28.03 128.57 27.08 128.79 26.01 128.79ZM26.01 120.69C25.46 120.69 24.97 120.82 24.54 121.05C24.11 121.29 23.77 121.62 23.53 122.06C23.29 122.49 23.17 123 23.17 123.56C23.17 124.12 23.3 124.61 23.53 125.04C23.76 125.47 24.1 125.82 24.54 126.06C24.97 126.3 25.46 126.42 26.01 126.42C26.56 126.42 27.05 126.29 27.48 126.06C27.91 125.82 28.25 125.47 28.49 125.04C28.73 124.61 28.85 124.12 28.85 123.56C28.85 123 28.72 122.5 28.49 122.06C28.25 121.63 27.92 121.29 27.48 121.05C27.05 120.81 26.56 120.69 26.01 120.69ZM41.58 128.6H44.54L41.79 124.66C42.41 124.42 42.88 124.04 43.23 123.51C43.57 122.99 43.73 122.39 43.73 121.72C43.73 121.13 43.6 120.6 43.34 120.11C43.08 119.62 42.68 119.24 42.16 118.95C41.64 118.66 41.04 118.52 40.34 118.52H34.6V128.61H37.15V124.93H39.13L41.58 128.61V128.6ZM37.15 120.76H40.01C40.35 120.76 40.61 120.84 40.82 121.03C41.02 121.21 41.11 121.44 41.11 121.73C41.11 122.02 41.01 122.26 40.82 122.44C40.61 122.62 40.34 122.71 40.01 122.71H37.15V120.76ZM47.14 118.52V128.61H49.72V118.52H47.14ZM63.26 122.54H58.12V124.78H60.73V126.19C60.2 126.39 59.62 126.48 58.99 126.48C58.36 126.48 57.73 126.35 57.21 126.1C56.69 125.86 56.29 125.51 55.99 125.06C55.69 124.61 55.56 124.11 55.56 123.55C55.56 122.99 55.7 122.49 55.98 122.04C56.26 121.61 56.64 121.26 57.13 121C57.61 120.75 58.12 120.62 58.7 120.62C59.79 120.62 60.77 120.97 61.64 121.66L63.08 119.81C62.56 119.33 61.93 118.97 61.19 118.7C60.43 118.45 59.59 118.32 58.68 118.32C57.57 118.32 56.59 118.54 55.71 118.99C54.83 119.44 54.13 120.05 53.62 120.85C53.11 121.65 52.86 122.56 52.86 123.58C52.86 124.6 53.11 125.47 53.63 126.26C54.15 127.05 54.86 127.66 55.79 128.1C56.7 128.55 57.75 128.77 58.93 128.77C59.85 128.77 60.69 128.66 61.45 128.43C62.19 128.22 62.79 127.94 63.26 127.59V122.52V122.54ZM66.68 118.52V128.61H69.26V118.52H66.68ZM79.98 118.52V124.84L75.6 118.52H72.92V128.61H75.46V122.18L79.93 128.61H82.52V118.52H79.98ZM93.48 128.61H96.17L92.21 118.52H89.02L85.07 128.61H87.73L88.49 126.56H92.73L93.49 128.61H93.48ZM89.28 124.39L90.6 120.8L91.93 124.39H89.28ZM101.29 126.31V118.52H98.71V128.61H106.88V126.31H101.29Z" fill="white"/>
<path d="M123.42 118.52H114.19V120.83H117.51V128.6H120.1V120.83H123.42V118.52ZM132.34 128.61H135.03L131.07 118.52H127.88L123.93 128.61H126.59L127.35 126.56H131.59L132.35 128.61H132.34ZM128.14 124.39L129.46 120.8L130.79 124.39H128.14Z" fill="white"/>
<path d="M141.48 128.74C142.42 128.74 143.22 128.6 143.9 128.32C144.57 128.04 145.09 127.65 145.45 127.13C145.8 126.63 145.98 126.04 145.98 125.35C145.98 124.58 145.74 123.95 145.25 123.43C144.76 122.91 144 122.58 142.98 122.42L140.54 122.03C139.97 121.93 139.67 121.72 139.67 121.37C139.67 121.16 139.84 120.96 140.17 120.81C140.49 120.66 140.94 120.59 141.49 120.59C142.04 120.59 142.53 120.67 143 120.86C143.46 121.04 143.92 121.31 144.39 121.66L145.85 119.8C145.3 119.31 144.65 118.95 143.86 118.71C143.08 118.47 142.26 118.36 141.44 118.36C140.5 118.36 139.69 118.49 139.03 118.75C138.36 119.02 137.85 119.38 137.5 119.86C137.15 120.35 136.98 120.91 136.98 121.55C136.98 123.16 138.03 124.14 140.12 124.48L142.28 124.82C142.94 124.92 143.26 125.17 143.26 125.58C143.26 125.85 143.11 126.06 142.8 126.24C142.48 126.42 142.04 126.52 141.48 126.52C140.18 126.52 139.07 126.1 138.13 125.27L136.59 127.16C137.11 127.65 137.81 128.04 138.69 128.32C139.56 128.61 140.48 128.75 141.46 128.75L141.48 128.74ZM157.26 118.51H148.03V120.82H151.35V128.59H153.94V120.82H157.26V118.51Z" fill="white"/>
<path d="M168.62 126.38H162.69V124.58H166.68V122.33H162.69V120.75H168.48L168.77 118.52H160.11V128.6H168.91L168.62 126.38Z" fill="white"/>
<path d="M102.57 64.91H97.38L94.46 69.66H99.64L102.57 64.91Z" fill="white"/>
<path d="M133.59 55.36C133.59 55.36 130.35 56.65 126.59 60.8C122.81 64.96 120.64 69.62 122.26 70.86C122.88 71.33 124.32 71.41 126.93 69.06C128.97 67.23 131.04 64.83 132.45 61.4C134.13 57.29 133.6 55.41 133.6 55.36M154.21 62.82C150.03 60.68 146.97 58.06 143.79 56.43C140.75 54.87 138.79 54.22 136.34 54.55C135.93 54.6 135.33 54.8 135.33 54.8C135.33 54.8 136.6 59.11 131.57 66.37C126.48 73.72 121.86 73.68 120.55 71.65C119.17 69.52 120.94 65.17 123.91 61.31C127.01 57.27 132.47 53.91 132.47 53.91C132.47 53.91 130.73 52.85 126.45 55.27C122.29 57.63 115.1 63.24 108.46 72.72C101.82 82.19 100.49 87.41 99.5299 91.51C98.5699 95.61 99.4499 100 104 100C108.55 100 113.84 93.06 115.33 90.64C118.1 86.15 119.91 79.25 116.13 80.2C114.27 80.67 112.76 82.73 111.81 84.72C110.83 86.76 110.44 88.71 110.44 88.71C110.44 88.71 108.87 89.27 106.76 90.85C104.65 92.43 103.27 93.94 103.27 93.94C103.27 93.94 103.28 90.66 105.89 85.35C108.5 80.04 113.3 77.61 116.01 77.39C118.46 77.19 121.65 79.27 118.95 86.95C116.25 94.63 108.29 103.94 99.9199 104.06C92.1999 104.17 87.1399 94.32 97.8799 77.11C109.76 58.08 123.72 52.24 128.26 51.59C132.79 50.94 134.26 52.94 134.26 52.94C134.26 52.94 138.06 51.18 142.87 51.51C148.4 51.89 152.69 55.8 158.33 58.55C156.85 59.98 155.45 61.45 154.19 62.83M179.04 56.41C175.21 58.88 169.9 61.11 164.8 60.62C163.51 61.96 162.13 63.5 160.74 65.19C169.59 66.93 177.32 61.45 181.44 56.79C184.01 53.88 185.28 51.28 185.28 51.28C185.28 51.28 182.83 53.98 179.03 56.43M167.27 81.35C167.38 81.16 167.43 80.98 167.43 80.98C167.43 80.98 167.33 80.24 166.62 80.2C165.78 80.16 164.63 80.32 161.62 83.66C158.62 86.98 156.8 89.87 155.22 92.75C153.49 95.9 152.8 98.25 153.79 98.85C154.07 99.02 154.49 99.04 154.83 98.96C155.5 98.8 156.26 98.17 157.42 96.83C157.96 96.2 158.56 95.31 159.28 94.33C161.26 91.62 166.26 83.07 167.26 81.35M135.97 85C136.47 83.68 137.11 81.1 135.78 80.09C134.35 79.01 130.71 81.54 130.69 84.13C130.67 86.78 133.26 87.98 133.88 88.15C134.23 88.25 134.36 88.23 134.53 87.95C134.64 87.76 135.47 86.32 135.98 85.01M133.23 89.83C133.14 89.8 131.95 89.26 130.73 88.23C129.51 87.21 128.89 86.04 128.84 85.95C128.79 85.86 128.74 85.93 128.68 86C128.63 86.07 128.4 86.27 126.46 89.13C124.51 91.99 121.54 97.88 124.24 98.88C125.97 99.52 128.85 96.49 130.42 94.48C131.88 92.61 133.24 90.24 133.32 90.07C133.4 89.9 133.32 89.86 133.23 89.83ZM163.87 96.63C163.14 97.81 162.31 100.05 164.73 98.65C167.68 96.94 171.88 90.57 171.88 90.57H173.78C173.78 90.57 171.27 94.53 168.01 98.15C165.02 101.46 161.37 104.48 158.8 104.18C155.8 103.83 156.74 99.89 156.74 99.89C156.74 99.89 152.43 104.46 149.47 104.14C145.46 103.7 146.68 98.74 146.68 98.74C146.68 98.74 142.15 104.32 139.06 104.14C134.21 103.86 135.43 97.95 136.77 93.81C137.49 91.59 138.16 89.84 138.16 89.84C138.16 89.84 137.68 89.97 136.65 90.12C136.11 90.2 135.13 90.25 135.13 90.25C135.13 90.25 133.12 93.82 131.5 95.96C129.89 98.1 123.03 105.48 118.99 104C115.26 102.64 116.49 96.92 118.66 92.38C121.83 85.76 130.75 76.24 135.89 77.48C141.22 78.77 136.01 88.51 136.01 88.51C136.01 88.51 136.01 88.55 136.07 88.57C136.18 88.61 136.45 88.64 137.1 88.52C138.13 88.33 139.05 87.94 139.05 87.94C139.05 87.94 144.41 76.71 150.33 69.36C156.25 62.01 168.06 49.36 172.71 52.42C173.85 53.17 173.33 55.76 171.8 58.91C171.13 59.12 170.43 59.31 169.71 59.46C170.73 57.6 171.41 56.04 171.61 54.95C172.31 51.15 163.44 59.16 157.12 67.77C150.79 76.39 146.99 84.18 146.99 84.18C146.99 84.18 148.27 83.46 150.26 81.85C152.34 80.18 155.2 77.55 158.3 74.34C160.39 72.18 162.84 69.47 165.14 66.44C165.83 66.41 166.5 66.34 167.16 66.23C164.6 69.69 161.9 72.84 159.61 75.16C157.09 77.71 154.35 80.47 151.97 82.47C148.19 85.65 145.27 87.45 145.27 87.45C145.27 87.45 139.72 98.61 142.74 99.33C144.51 99.75 148.01 94.36 148.01 94.36C148.01 94.36 152.57 87.39 155.32 84.26C159.07 79.99 162.3 77.52 165.53 77.47C167.41 77.44 168.52 79.44 168.52 79.44L169.41 78.07H174.86C174.86 78.07 164.69 95.34 163.88 96.64M179.04 56.46C175.21 58.93 169.9 61.16 164.8 60.67C163.51 62.01 162.13 63.55 160.74 65.24C169.59 66.98 177.32 61.5 181.44 56.84C184.01 53.93 185.28 51.33 185.28 51.33C185.28 51.33 182.83 54.03 179.03 56.48M78.0199 81.39C80.2299 78.37 86.2999 67.78 86.2999 67.78C86.2999 67.78 86.1999 67.04 85.4899 67.01C84.6499 66.97 83.2599 67.25 80.4599 70.74C77.6599 74.23 75.5099 77.01 73.9299 79.9C72.2099 83.05 71.4499 85.28 72.4399 85.88C72.7199 86.05 73.1399 86.07 73.4799 85.99C74.1299 85.83 74.9699 85.18 76.1299 83.84C76.6699 83.21 77.2899 82.38 78.0099 81.39M50.2099 67.09C48.7799 66.01 45.1399 68.54 45.1199 71.13C45.0999 73.78 48.4099 74.54 48.8399 74.56C48.8399 74.56 49.2199 74.66 49.3599 74.35C49.4499 74.16 49.8999 73.33 50.4099 72.01C50.9099 70.69 51.5499 68.11 50.2199 67.1M48.0599 76.23C47.9699 76.2 46.5899 75.8 45.2499 74.94C43.9099 74.08 43.2899 72.81 43.2399 72.72C43.1899 72.63 43.1399 72.7 43.0799 72.77C43.0299 72.84 42.7399 73.21 40.7899 76.07C38.8399 78.93 35.9599 84.78 38.6599 85.78C40.3899 86.42 43.2899 83.38 44.8699 81.37C46.3299 79.5 48.0699 76.63 48.1399 76.46C48.2099 76.29 48.1399 76.25 48.0499 76.21M90.3799 77.95H92.2799C92.2799 77.95 82.7699 91.7 77.3999 91.08C74.3999 90.73 75.2899 87.03 75.2899 87.03C75.2899 87.03 71.0699 91.97 67.2099 90.98C63.6999 90.08 65.9599 84.24 65.9599 84.24C65.5599 84.4 57.9699 92.97 52.6299 90.92C47.0499 88.77 49.9399 81.6 50.9999 79.44C51.8999 77.62 52.8899 75.85 52.8899 75.85C52.8899 75.85 52.0299 76.09 51.4999 76.22C50.9699 76.34 50.1599 76.5 50.1599 76.5C50.1599 76.5 47.5199 80.79 45.9099 82.94C44.2999 85.08 37.4399 92.45 33.3999 90.98C29.3599 89.51 30.3499 83.86 32.6199 79.36C36.2999 72.07 45.0399 63.12 50.2999 64.46C55.6199 65.81 51.2199 74.44 51.2199 74.44C51.2199 74.44 52.2799 74.58 54.8099 72.85C58.4599 70.36 63.2699 63.66 68.4899 64.44C70.9399 64.81 73.2199 67.32 70.0999 72.1C69.0999 73.63 67.4299 75 66.1399 73.65C65.3399 72.81 66.0399 71.27 66.8699 70.22C68.0499 68.73 69.6899 68.93 69.6899 68.93C69.6899 68.93 70.5499 66.95 68.3599 66.99C66.5799 67.02 62.0999 71.16 59.5599 75.34C57.2299 79.18 53.7199 85.72 57.2499 87.14C60.4999 88.45 66.6599 81.12 69.5199 77.28C72.3799 73.44 78.8799 64.73 84.3399 64.38C86.2199 64.26 87.3399 65.97 87.3399 65.97L87.9699 64.97H93.4199C93.4199 64.97 83.1399 82.14 82.3299 83.44C81.6999 84.46 80.8599 86.75 83.1899 85.46C85.5199 84.17 90.3599 77.95 90.3599 77.95M87.3999 105.47C83.2699 102.57 78.2399 101.29 73.6699 101.47C69.0499 101.66 66.9799 105.11 66.9799 105.11C64.8899 101.47 60.7699 99.24 54.3999 99.3C44.1099 99.42 33.8999 104.17 25.8199 104.17C17.7399 104.17 12.3999 99.3 12.5899 90.64C12.9199 75.46 25.7399 61.79 35.3199 55.63C40.8299 52.09 45.4399 51.04 48.4599 51.38C50.6599 51.62 53.3099 54.17 51.6399 57.91C49.1899 63.4 45.7999 62.94 45.9199 60.32C45.9899 58.62 47.1299 57.54 47.9799 56.96C48.5199 56.58 49.4799 56.48 49.9799 56.47C50.4599 56.06 50.8299 53.06 46.8899 54.05C42.9399 55.04 38.1899 58.92 33.6599 63.92C29.1299 68.92 22.0799 78.39 20.3399 88.33C19.5299 92.94 20.0799 101.34 30.9899 101.24C40.2499 101.16 53.9099 95.06 66.4599 95.17C71.3299 95.21 75.5699 96.52 78.8799 98.57C82.1399 100.58 86.0299 103.5 87.4099 105.49" fill="white"/>
<path d="M174.51 97.91C173.79 97.91 173.15 98.07 172.56 98.4C171.97 98.74 171.51 99.19 171.17 99.76C170.83 100.33 170.67 100.96 170.67 101.62C170.67 102.28 170.83 102.93 171.17 103.48C171.51 104.05 171.97 104.5 172.56 104.83C173.15 105.17 173.78 105.33 174.51 105.33C175.24 105.33 175.88 105.17 176.47 104.83C177.06 104.5 177.5 104.05 177.84 103.48C178.18 102.92 178.34 102.3 178.34 101.62C178.34 100.94 178.18 100.33 177.84 99.76C177.5 99.19 177.05 98.74 176.47 98.4C175.88 98.07 175.23 97.91 174.51 97.91ZM174.51 104.62C173.92 104.62 173.39 104.48 172.94 104.23C172.48 103.97 172.12 103.62 171.86 103.17C171.6 102.72 171.48 102.2 171.48 101.63C171.48 101.06 171.6 100.55 171.86 100.11C172.12 99.67 172.47 99.29 172.94 99.03C173.41 98.77 173.92 98.65 174.51 98.65C175.1 98.65 175.61 98.77 176.08 99.03C176.55 99.29 176.9 99.66 177.16 100.11C177.42 100.56 177.54 101.08 177.54 101.63C177.54 102.18 177.42 102.72 177.16 103.17C176.9 103.62 176.55 103.97 176.1 104.23C175.64 104.49 175.11 104.62 174.52 104.62H174.51ZM176.12 100.97C176.12 100.67 176.02 100.41 175.83 100.21C175.63 100.01 175.37 99.91 175.04 99.91H173.09V103.27H173.95V102.05H174.6L175.39 103.27H176.37L175.49 101.96C175.69 101.86 175.84 101.73 175.95 101.55C176.06 101.37 176.11 101.18 176.11 100.96L176.12 100.97ZM173.96 100.64H174.89C175 100.64 175.08 100.67 175.15 100.72C175.22 100.79 175.25 100.87 175.25 100.96C175.25 101.05 175.22 101.14 175.15 101.19C175.08 101.26 175 101.29 174.89 101.29H173.96V100.64Z" fill="white"/>
</svg>
