<svg width="191" height="190" viewBox="0 0 191 190" fill="none" xmlns="http://www.w3.org/2000/svg">
<path d="M190.12 0H0.200195V189.92H190.12V0Z" fill="#871555"/>
<path d="M71.8403 28.43C72.8203 28.43 73.7403 28.26 74.5903 27.95C75.4403 27.64 76.1203 27.17 76.6703 26.53L75.0403 24.75C74.1703 25.63 73.1203 26.07 71.8903 26.07C71.1103 26.07 70.4103 25.9 69.7903 25.55C69.1603 25.22 68.6703 24.75 68.3203 24.17C67.9703 23.59 67.7903 22.94 67.7903 22.22C67.7903 21.5 67.9703 20.84 68.3203 20.25C68.6703 19.66 69.1703 19.22 69.7903 18.87C70.4103 18.54 71.0903 18.37 71.8603 18.37C72.4403 18.37 72.9903 18.47 73.5103 18.69C74.0103 18.91 74.4903 19.26 74.9603 19.72L76.5903 17.9C76.0603 17.28 75.3703 16.8 74.5403 16.48C73.6903 16.16 72.7703 16 71.7903 16C70.5103 16 69.3603 16.27 68.3403 16.8C67.3203 17.35 66.5203 18.08 65.9403 19.03C65.3603 19.98 65.0703 21.05 65.0703 22.21C65.0703 23.37 65.3503 24.43 65.9403 25.38C66.5303 26.33 67.3203 27.08 68.3603 27.61C69.3803 28.16 70.5403 28.43 71.8403 28.43Z" fill="white"/>
<path d="M83.43 18.8299C82.28 18.8299 81.36 19.1799 80.71 19.8599V15.6799H78.21V28.2099H80.71V22.9899C80.71 22.4399 80.91 21.9899 81.31 21.6599C81.71 21.3299 82.23 21.1599 82.84 21.1599C83.45 21.1599 83.91 21.3099 84.22 21.6299C84.53 21.9499 84.7 22.3999 84.7 22.9599V28.2099H87.2V22.3899C87.2 21.6899 87.03 21.0699 86.72 20.5199C86.41 19.9699 85.95 19.5499 85.39 19.2499C84.81 18.9699 84.16 18.8199 83.42 18.8199L83.43 18.8299ZM98.78 23.6999C98.78 22.8199 98.58 21.9999 98.2 21.2499C97.8 20.5199 97.23 19.9299 96.48 19.4799C95.73 19.0499 94.86 18.8299 93.86 18.8299C92.86 18.8299 91.99 19.0499 91.24 19.4799C90.49 19.9099 89.91 20.4999 89.51 21.2299C89.11 21.9599 88.91 22.7599 88.91 23.6499C88.91 24.5399 89.13 25.3499 89.54 26.0699C89.96 26.7999 90.57 27.3899 91.39 27.7999C92.19 28.2199 93.14 28.4299 94.26 28.4299C95.14 28.4299 95.91 28.2999 96.58 28.0299C97.25 27.7799 97.78 27.4499 98.16 27.0299L96.81 25.3499C96.39 25.6699 96.01 25.8999 95.63 26.0499C95.25 26.1999 94.8 26.2799 94.28 26.2799C93.56 26.2799 92.96 26.1299 92.48 25.8299C92 25.5299 91.66 25.0999 91.48 24.5499H98.69C98.74 24.2999 98.77 24.0199 98.77 23.6999H98.78ZM93.88 20.9999C94.5 20.9999 95.03 21.1499 95.45 21.4499C95.87 21.7699 96.13 22.1799 96.28 22.7299H91.46C91.61 22.1799 91.91 21.7599 92.33 21.4499C92.75 21.1499 93.26 20.9999 93.88 20.9999ZM105.78 18.9199C105.23 18.9199 104.68 19.0199 104.16 19.2399C103.63 19.4599 103.21 19.7699 102.91 20.2099V19.0599H100.53V28.2199H103.03V23.5899C103.03 22.7599 103.28 22.1599 103.76 21.7899C104.24 21.4399 104.89 21.2599 105.69 21.2599C106.01 21.2599 106.32 21.2899 106.64 21.3399V19.0199C106.36 18.9499 106.06 18.9199 105.77 18.9199H105.78Z" fill="white"/>
<path d="M113.33 18.9099C112.78 18.9099 112.23 19.0099 111.71 19.2299C111.18 19.4499 110.76 19.7599 110.46 20.1999V19.0499H108.08V28.2099H110.58V23.5799C110.58 22.7499 110.83 22.1499 111.31 21.7799C111.79 21.4299 112.44 21.2499 113.24 21.2499C113.56 21.2499 113.87 21.2799 114.19 21.3299V19.0099C113.91 18.9399 113.61 18.9099 113.32 18.9099H113.33ZM122.91 19.0399L120.38 25.4199L117.76 19.0399H115.01L119.11 28.0999L119.04 28.2699C118.92 28.5499 118.74 28.7899 118.49 28.9399C118.24 29.1099 117.99 29.1899 117.71 29.1899C117.24 29.1899 116.68 29.0599 116.03 28.7899L115.38 30.8099C115.73 30.9899 116.11 31.1399 116.56 31.2299C116.99 31.3299 117.41 31.3799 117.79 31.3799C118.56 31.3799 119.24 31.1799 119.82 30.7799C120.4 30.3999 120.85 29.8299 121.17 29.0799L125.54 19.0499H122.91V19.0399Z" fill="white"/>
<path d="M86.1503 161.1C86.1503 152.86 79.4703 146.18 71.2303 146.18C62.9903 146.18 56.3203 152.86 56.3203 161.1C56.3203 169.34 63.0003 176.01 71.2303 176.01C79.4603 176.01 86.1503 169.33 86.1503 161.1Z" fill="#F40009"/>
<path d="M76.7299 157.31C76.7299 157.31 76.2299 157.51 75.6399 158.15C75.0499 158.8 74.7098 159.52 74.9698 159.71C75.0698 159.78 75.2899 159.8 75.6999 159.43C76.0199 159.15 76.3398 158.78 76.5598 158.24C76.8198 157.6 76.7399 157.31 76.7399 157.3M79.9398 158.46C79.2898 158.13 78.8198 157.72 78.3198 157.47C77.8498 157.23 77.5398 157.13 77.1598 157.18C77.0998 157.18 76.9998 157.22 76.9998 157.22C76.9998 157.22 77.1999 157.89 76.4199 159.02C75.6299 160.16 74.9098 160.16 74.7098 159.84C74.4998 159.51 74.7699 158.83 75.2299 158.24C75.7099 157.61 76.5598 157.09 76.5598 157.09C76.5598 157.09 76.2898 156.93 75.6298 157.3C74.9798 157.67 73.8698 158.54 72.8398 160.01C71.8098 161.48 71.5999 162.29 71.4499 162.93C71.2999 163.57 71.4399 164.25 72.1399 164.25C72.8399 164.25 73.6698 163.17 73.8998 162.8C74.3298 162.1 74.6099 161.03 74.0199 161.18C73.7299 161.25 73.4998 161.57 73.3498 161.88C73.1998 162.2 73.1399 162.5 73.1399 162.5C73.1399 162.5 72.8998 162.59 72.5698 162.83C72.2398 163.07 72.0298 163.31 72.0298 163.31C72.0298 163.31 72.0298 162.8 72.4398 161.98C72.8498 161.16 73.5898 160.78 74.0098 160.74C74.3898 160.71 74.8898 161.03 74.4698 162.22C74.0498 163.41 72.8098 164.86 71.5098 164.88C70.3098 164.9 69.5198 163.37 71.1898 160.69C73.0298 157.74 75.1998 156.83 75.9098 156.73C76.6098 156.63 76.8398 156.94 76.8398 156.94C76.8398 156.94 77.4298 156.67 78.1798 156.72C79.0398 156.78 79.7099 157.39 80.5799 157.81C80.3499 158.03 80.1298 158.26 79.9398 158.48M83.7999 157.48C83.2099 157.86 82.3798 158.21 81.5898 158.13C81.3898 158.34 81.1798 158.58 80.9598 158.84C82.3398 159.11 83.5398 158.26 84.1798 157.54C84.5798 157.09 84.7699 156.68 84.7699 156.68C84.7699 156.68 84.3899 157.1 83.7999 157.48ZM81.9698 161.35L81.9998 161.29C81.9998 161.29 81.9798 161.18 81.8698 161.17C81.7398 161.17 81.5598 161.19 81.0898 161.71C80.6198 162.22 80.3398 162.67 80.0998 163.12C79.8298 163.61 79.7198 163.97 79.8798 164.07C79.9198 164.09 79.9898 164.1 80.0398 164.08C80.1398 164.06 80.2598 163.96 80.4398 163.75C80.5198 163.65 80.6199 163.52 80.7299 163.36C81.0399 162.94 81.8098 161.61 81.9698 161.34M77.1099 161.9C77.1899 161.7 77.2899 161.3 77.0799 161.14C76.8599 160.97 76.2898 161.36 76.2898 161.77C76.2898 162.18 76.6898 162.37 76.7898 162.39C76.8398 162.41 76.8599 162.41 76.8899 162.36C76.9099 162.33 77.0299 162.11 77.1099 161.9ZM76.6798 162.65C76.6798 162.65 76.4798 162.56 76.2898 162.4C76.0998 162.24 75.9998 162.06 75.9998 162.05C75.9998 162.04 75.9799 162.05 75.9799 162.05C75.9799 162.06 75.9398 162.09 75.6298 162.54C75.3298 162.98 74.8698 163.9 75.2898 164.05C75.5598 164.15 76.0098 163.68 76.2498 163.37C76.4798 163.08 76.6899 162.71 76.6999 162.68C76.7099 162.66 76.6998 162.65 76.6898 162.64M81.4499 163.7C81.3299 163.88 81.2099 164.23 81.5799 164.01C82.0399 163.74 82.6898 162.75 82.6898 162.75H82.9799C82.9799 162.75 82.5898 163.37 82.0898 163.93C81.6198 164.44 81.0598 164.91 80.6598 164.87C80.1898 164.81 80.3398 164.2 80.3398 164.2C80.3398 164.2 79.6698 164.91 79.2098 164.86C78.5898 164.79 78.7798 164.02 78.7798 164.02C78.7798 164.02 78.0698 164.89 77.5998 164.86C76.8498 164.82 77.0299 163.9 77.2399 163.26C77.3499 162.91 77.4598 162.64 77.4598 162.64C77.4598 162.64 77.3899 162.66 77.2299 162.68C77.1499 162.69 76.9899 162.7 76.9899 162.7C76.9899 162.7 76.6798 163.25 76.4298 163.58C76.1798 163.92 75.1098 165.06 74.4799 164.83C73.8999 164.62 74.0898 163.73 74.4298 163.03C74.9198 162 76.3099 160.52 77.1099 160.72C77.9399 160.92 77.1298 162.43 77.1298 162.43C77.1498 162.43 77.1898 162.44 77.2898 162.43C77.4498 162.4 77.5898 162.34 77.5898 162.34C77.5898 162.34 78.4198 160.6 79.3398 159.45C80.2598 158.31 82.0898 156.34 82.8098 156.82C82.9898 156.94 82.9099 157.34 82.6699 157.83C82.5699 157.86 82.4598 157.89 82.3498 157.92C82.5098 157.63 82.6099 157.39 82.6399 157.22C82.7499 156.63 81.3699 157.87 80.3899 159.21C79.4099 160.55 78.8198 161.76 78.8198 161.76C78.8198 161.76 79.0199 161.65 79.3299 161.4C79.6499 161.14 80.0899 160.73 80.5799 160.23C80.8999 159.9 81.2799 159.48 81.6399 159.01C81.7499 159.01 81.8499 158.99 81.9499 158.98C81.5499 159.52 81.1298 160.01 80.7798 160.37C80.3898 160.77 79.9598 161.19 79.5998 161.5C79.0098 161.99 78.5598 162.28 78.5598 162.28C78.5598 162.28 77.6999 164.01 78.1699 164.13C78.4499 164.19 78.9899 163.36 78.9899 163.36C78.9899 163.36 79.6998 162.28 80.1198 161.79C80.6998 161.13 81.2098 160.75 81.7098 160.74C81.9998 160.74 82.1699 161.04 82.1699 161.04L82.3098 160.83H83.1598C83.1598 160.83 81.5798 163.51 81.4598 163.71M83.8098 157.47C83.2198 157.85 82.3898 158.2 81.5998 158.12C81.3998 158.33 81.1898 158.57 80.9698 158.83C82.3498 159.1 83.5498 158.25 84.1898 157.53C84.5898 157.08 84.7798 156.67 84.7798 156.67C84.7798 156.67 84.3998 157.09 83.8098 157.47ZM71.9298 158.79H71.1298L70.6798 159.53H71.4798L71.9298 158.79ZM68.1198 161.34C68.4598 160.87 69.4098 159.23 69.4098 159.23C69.4098 159.23 69.3998 159.12 69.2898 159.11C69.1598 159.11 68.9398 159.15 68.5098 159.69C68.0798 160.23 67.7398 160.67 67.4998 161.11C67.2298 161.6 67.1199 161.94 67.2699 162.04C67.3099 162.06 67.3798 162.07 67.4298 162.06C67.5298 162.03 67.6598 161.93 67.8398 161.73C67.9198 161.63 68.0198 161.5 68.1298 161.35M63.8098 159.13C63.5898 158.96 63.0199 159.35 63.0199 159.76C63.0199 160.17 63.5298 160.29 63.5998 160.29C63.5998 160.29 63.6598 160.3 63.6798 160.26C63.6898 160.23 63.7598 160.1 63.8398 159.9C63.9198 159.69 64.0198 159.29 63.8098 159.14M63.4698 160.56C63.4698 160.56 63.2398 160.49 63.0398 160.36C62.8298 160.23 62.7399 160.03 62.7298 160.02C62.7298 160 62.7098 160.02 62.7098 160.02C62.7098 160.03 62.6598 160.09 62.3498 160.53C62.0498 160.97 61.5999 161.88 62.0199 162.04C62.2899 162.14 62.7399 161.67 62.9798 161.36C63.2098 161.07 63.4799 160.62 63.4899 160.6C63.4999 160.57 63.4899 160.57 63.4798 160.56M70.0598 160.83H70.3498C70.3498 160.83 68.8798 162.96 68.0398 162.87C67.5798 162.82 67.7098 162.24 67.7098 162.24C67.7098 162.24 67.0499 163.01 66.4499 162.85C65.9099 162.71 66.2598 161.8 66.2598 161.8C66.1998 161.83 65.0198 163.16 64.1898 162.84C63.3198 162.51 63.7698 161.39 63.9398 161.06C64.0798 160.78 64.2298 160.51 64.2298 160.51C64.2298 160.51 64.0998 160.55 64.0098 160.57C63.9298 160.59 63.7999 160.61 63.7999 160.61C63.7999 160.61 63.3899 161.28 63.1399 161.61C62.8899 161.94 61.8199 163.09 61.1999 162.86C60.5699 162.63 60.7299 161.75 61.0799 161.06C61.6499 159.93 63.0098 158.54 63.8198 158.74C64.6498 158.95 63.9598 160.29 63.9598 160.29C63.9598 160.29 64.1199 160.31 64.5199 160.04C65.0899 159.65 65.8299 158.62 66.6399 158.74C67.0199 158.8 67.3799 159.19 66.8899 159.93C66.7299 160.17 66.4699 160.38 66.2699 160.17C66.1499 160.04 66.2499 159.8 66.3899 159.64C66.5699 159.41 66.8299 159.44 66.8299 159.44C66.8299 159.44 66.9698 159.13 66.6198 159.14C66.3398 159.14 65.6498 159.79 65.2498 160.44C64.8898 161.03 64.3399 162.05 64.8899 162.27C65.3899 162.47 66.3499 161.33 66.7999 160.74C67.2399 160.14 68.2498 158.79 69.0998 158.74C69.3898 158.72 69.5698 158.98 69.5698 158.98L69.6699 158.82H70.5199C70.5199 158.82 68.9199 161.49 68.7999 161.69C68.6999 161.85 68.5698 162.2 68.9298 162C69.2898 161.8 70.0398 160.83 70.0398 160.83M69.5799 165.1C68.9399 164.65 68.1599 164.45 67.4499 164.48C66.7299 164.51 66.4098 165.04 66.4098 165.04C66.0898 164.48 65.4498 164.13 64.4598 164.14C62.8598 164.16 61.2799 164.9 60.0199 164.9C58.7599 164.9 57.9398 164.14 57.9598 162.8C58.0098 160.44 59.9999 158.32 61.4899 157.36C62.3399 156.81 63.0598 156.65 63.5298 156.7C63.8698 156.74 64.2799 157.13 64.0199 157.71C63.6399 158.57 63.1098 158.49 63.1298 158.09C63.1398 157.82 63.3199 157.66 63.4499 157.57C63.5399 157.51 63.6798 157.5 63.7598 157.5C63.8398 157.44 63.8898 156.97 63.2798 157.12C62.6698 157.27 61.9299 157.88 61.2299 158.65C60.5299 159.43 59.4298 160.9 59.1598 162.44C59.0398 163.16 59.1198 164.46 60.8098 164.45C62.2498 164.44 64.3698 163.49 66.3198 163.51C67.0798 163.51 67.7398 163.72 68.2498 164.04C68.7598 164.35 69.3598 164.8 69.5698 165.11" fill="white"/>
<path d="M83.4501 163.39C83.3001 163.39 83.1701 163.42 83.0401 163.49C82.9201 163.56 82.8201 163.65 82.7501 163.77C82.6801 163.89 82.6401 164.02 82.6401 164.16C82.6401 164.3 82.6701 164.43 82.7501 164.55C82.8201 164.67 82.9201 164.76 83.0401 164.83C83.1601 164.9 83.3001 164.94 83.4501 164.94C83.6001 164.94 83.7401 164.91 83.8601 164.83C83.9801 164.76 84.0801 164.67 84.1501 164.55C84.2201 164.43 84.2601 164.3 84.2601 164.16C84.2601 164.02 84.2301 163.89 84.1501 163.77C84.0801 163.65 83.9901 163.56 83.8601 163.49C83.7401 163.42 83.6001 163.39 83.4501 163.39ZM83.4501 164.79C83.3301 164.79 83.2201 164.76 83.1201 164.71C83.0201 164.66 82.9501 164.58 82.9001 164.49C82.8501 164.4 82.8201 164.29 82.8201 164.17C82.8201 164.05 82.8501 163.95 82.9001 163.85C82.9501 163.75 83.0301 163.68 83.1201 163.63C83.2201 163.58 83.3201 163.55 83.4501 163.55C83.5801 163.55 83.6801 163.58 83.7801 163.63C83.8801 163.68 83.9501 163.76 84.0001 163.85C84.0501 163.94 84.0801 164.05 84.0801 164.17C84.0801 164.29 84.0501 164.4 84.0001 164.49C83.9501 164.58 83.8701 164.66 83.7801 164.71C83.6801 164.76 83.5701 164.79 83.4501 164.79ZM83.7801 164.03C83.7801 163.97 83.7601 163.91 83.7201 163.87C83.6801 163.83 83.6201 163.81 83.5601 163.81H83.1501V164.51H83.3301V164.25H83.4701L83.6301 164.51H83.8301L83.6501 164.24C83.6501 164.24 83.7201 164.19 83.7501 164.15C83.7701 164.11 83.7801 164.07 83.7801 164.03ZM83.3301 163.96H83.5201C83.5201 163.96 83.5601 163.96 83.5701 163.98C83.5801 163.99 83.5901 164.01 83.5901 164.03C83.5901 164.05 83.5901 164.07 83.5701 164.08C83.5601 164.09 83.5401 164.1 83.5201 164.1H83.3301V163.96Z" fill="white"/>
<path d="M91.1699 159.39V160.79H93.4699V161.72H91.1699V164.14H90.1299V158.46H94.5099V159.39H91.1699Z" fill="white"/>
<path d="M100.54 163.2V164.14H96.23V158.46H97.27V163.2H100.54Z" fill="white"/>
<path d="M105.61 161.86L104.65 159.36L103.69 161.86H105.62H105.61ZM105.95 162.77H103.33L102.8 164.13H101.71L104 158.45H105.28L107.57 164.13H106.47L105.95 162.77Z" fill="white"/>
<path d="M113.76 158.46L111.57 164.14H110.29L108.1 158.46H109.23L110.94 163.1L112.66 158.46H113.76Z" fill="white"/>
<path d="M118.83 163.03C119.12 162.86 119.35 162.63 119.51 162.32C119.67 162.02 119.75 161.68 119.75 161.29C119.75 160.9 119.67 160.56 119.51 160.26C119.35 159.96 119.12 159.72 118.83 159.55C118.54 159.38 118.21 159.3 117.84 159.3C117.47 159.3 117.15 159.38 116.86 159.55C116.57 159.72 116.34 159.95 116.18 160.26C116.02 160.56 115.93 160.9 115.93 161.29C115.93 161.68 116.01 162.02 116.18 162.32C116.34 162.62 116.57 162.86 116.86 163.03C117.15 163.2 117.48 163.28 117.84 163.28C118.2 163.28 118.54 163.2 118.83 163.03ZM116.3 163.86C115.85 163.61 115.49 163.26 115.23 162.82C114.97 162.37 114.85 161.87 114.85 161.3C114.85 160.73 114.98 160.22 115.23 159.78C115.49 159.33 115.84 158.99 116.3 158.73C116.75 158.48 117.27 158.36 117.84 158.36C118.41 158.36 118.93 158.48 119.38 158.73C119.83 158.98 120.19 159.33 120.44 159.78C120.7 160.23 120.82 160.73 120.82 161.3C120.82 161.87 120.69 162.38 120.44 162.82C120.18 163.27 119.83 163.61 119.38 163.86C118.93 164.11 118.41 164.24 117.84 164.24C117.27 164.24 116.75 164.12 116.3 163.86Z" fill="white"/>
<path d="M123.71 160.94H125.57C125.85 160.94 126.06 160.87 126.22 160.73C126.38 160.59 126.45 160.4 126.45 160.16C126.45 159.92 126.37 159.74 126.22 159.6C126.06 159.46 125.85 159.39 125.57 159.39H123.71V160.94ZM125.18 161.86H123.71V164.13H122.68V158.46H125.74C126.1 158.46 126.41 158.54 126.68 158.68C126.95 158.83 127.15 159.04 127.29 159.29C127.43 159.55 127.5 159.84 127.5 160.15C127.5 160.54 127.39 160.88 127.18 161.18C126.97 161.48 126.67 161.68 126.3 161.78L127.89 164.12H126.68L125.19 161.85L125.18 161.86Z" fill="white"/>
<path d="M130.21 163.98C129.75 163.83 129.37 163.62 129.08 163.35L129.72 162.55C130 162.79 130.3 162.97 130.63 163.09C130.96 163.21 131.3 163.27 131.66 163.27C132.04 163.27 132.34 163.2 132.58 163.05C132.82 162.9 132.93 162.71 132.93 162.48C132.93 162.31 132.86 162.17 132.71 162.05C132.57 161.94 132.33 161.84 132 161.78L130.81 161.55C130.3 161.45 129.91 161.27 129.66 161.01C129.4 160.75 129.27 160.43 129.27 160.05C129.27 159.7 129.37 159.4 129.58 159.14C129.78 158.88 130.06 158.68 130.42 158.54C130.78 158.4 131.18 158.33 131.64 158.33C132.06 158.33 132.46 158.39 132.86 158.52C133.25 158.64 133.6 158.84 133.89 159.11L133.29 159.87C133.04 159.67 132.77 159.51 132.48 159.41C132.19 159.31 131.9 159.26 131.6 159.26C131.24 159.26 130.94 159.33 130.7 159.46C130.46 159.59 130.34 159.76 130.34 159.97C130.34 160.11 130.41 160.23 130.54 160.33C130.67 160.43 130.9 160.51 131.23 160.57L132.36 160.78C132.9 160.88 133.31 161.08 133.59 161.37C133.87 161.66 134.01 162 134.01 162.4C134.01 162.75 133.91 163.06 133.72 163.33C133.53 163.6 133.26 163.81 132.91 163.96C132.56 164.11 132.15 164.18 131.69 164.18C131.17 164.18 130.68 164.1 130.22 163.95" fill="white"/>
<path d="M102.17 64.91H96.9801L94.0601 69.66H99.2401L102.17 64.91Z" fill="white"/>
<path d="M133.19 55.36C133.19 55.36 129.95 56.65 126.19 60.8C122.41 64.96 120.24 69.62 121.86 70.86C122.48 71.33 123.92 71.41 126.53 69.06C128.57 67.23 130.64 64.83 132.05 61.4C133.73 57.29 133.2 55.41 133.2 55.36M153.81 62.82C149.62 60.68 146.57 58.06 143.39 56.43C140.35 54.87 138.39 54.22 135.94 54.55C135.53 54.6 134.93 54.8 134.93 54.8C134.93 54.8 136.2 59.11 131.17 66.37C126.08 73.72 121.46 73.68 120.15 71.65C118.77 69.52 120.55 65.17 123.51 61.31C126.61 57.27 132.07 53.91 132.07 53.91C132.07 53.91 130.33 52.85 126.05 55.27C121.89 57.63 114.7 63.24 108.06 72.72C101.42 82.19 100.09 87.41 99.1302 91.51C98.1702 95.61 99.0502 100 103.6 100C108.15 100 113.44 93.06 114.93 90.64C117.7 86.15 119.51 79.25 115.73 80.2C113.87 80.67 112.36 82.73 111.41 84.72C110.43 86.76 110.04 88.71 110.04 88.71C110.04 88.71 108.47 89.27 106.35 90.85C104.24 92.43 102.86 93.94 102.86 93.94C102.86 93.94 102.87 90.66 105.48 85.35C108.09 80.04 112.89 77.61 115.61 77.39C118.06 77.19 121.24 79.27 118.55 86.95C115.86 94.63 107.89 103.94 99.5202 104.06C91.8002 104.17 86.7402 94.32 97.4802 77.11C109.36 58.08 123.33 52.24 127.86 51.59C132.39 50.94 133.86 52.94 133.86 52.94C133.86 52.94 137.66 51.18 142.47 51.51C148 51.89 152.29 55.8 157.93 58.55C156.45 59.98 155.05 61.45 153.79 62.83M178.64 56.41C174.81 58.88 169.5 61.11 164.4 60.62C163.11 61.96 161.73 63.5 160.34 65.19C169.19 66.93 176.93 61.45 181.04 56.79C183.61 53.88 184.88 51.28 184.88 51.28C184.88 51.28 182.43 53.98 178.63 56.43M166.87 81.35C166.98 81.16 167.03 80.98 167.03 80.98C167.03 80.98 166.93 80.24 166.22 80.2C165.38 80.16 164.23 80.32 161.22 83.66C158.22 86.98 156.4 89.87 154.82 92.75C153.09 95.9 152.4 98.25 153.39 98.85C153.67 99.02 154.09 99.04 154.43 98.96C155.11 98.8 155.86 98.17 157.02 96.83C157.56 96.2 158.17 95.31 158.88 94.33C160.86 91.62 165.86 83.07 166.86 81.35M135.57 85C136.07 83.68 136.71 81.1 135.38 80.09C133.95 79.01 130.31 81.54 130.29 84.13C130.27 86.78 132.86 87.98 133.48 88.15C133.83 88.25 133.96 88.23 134.13 87.95C134.24 87.76 135.07 86.32 135.58 85.01M132.83 89.83C132.73 89.8 131.55 89.26 130.33 88.23C129.11 87.21 128.49 86.04 128.44 85.95C128.39 85.86 128.34 85.93 128.28 86C128.23 86.07 128 86.27 126.06 89.13C124.11 91.99 121.14 97.88 123.84 98.88C125.57 99.52 128.45 96.49 130.02 94.48C131.48 92.61 132.84 90.24 132.92 90.07C133 89.9 132.92 89.86 132.83 89.83ZM163.47 96.63C162.74 97.81 161.91 100.05 164.33 98.65C167.28 96.94 171.48 90.57 171.48 90.57H173.38C173.38 90.57 170.87 94.53 167.61 98.15C164.62 101.46 160.97 104.48 158.4 104.18C155.4 103.83 156.34 99.89 156.34 99.89C156.34 99.89 152.03 104.46 149.07 104.14C145.06 103.7 146.28 98.74 146.28 98.74C146.28 98.74 141.75 104.32 138.66 104.14C133.81 103.86 135.03 97.95 136.37 93.81C137.09 91.59 137.76 89.84 137.76 89.84C137.76 89.84 137.28 89.97 136.25 90.12C135.71 90.2 134.73 90.25 134.73 90.25C134.73 90.25 132.72 93.82 131.1 95.96C129.49 98.1 122.63 105.48 118.59 104C114.86 102.64 116.09 96.92 118.26 92.38C121.43 85.76 130.35 76.24 135.49 77.48C140.82 78.77 135.61 88.51 135.61 88.51C135.61 88.51 135.61 88.55 135.67 88.57C135.78 88.61 136.05 88.64 136.7 88.52C137.73 88.33 138.65 87.94 138.65 87.94C138.65 87.94 144.01 76.71 149.93 69.36C155.85 62.01 167.66 49.36 172.3 52.42C173.44 53.17 172.92 55.76 171.39 58.91C170.71 59.12 170.01 59.31 169.3 59.46C170.32 57.6 171 56.04 171.2 54.95C171.9 51.15 163.04 59.16 156.71 67.77C150.38 76.39 146.58 84.18 146.58 84.18C146.58 84.18 147.86 83.46 149.85 81.85C151.93 80.18 154.79 77.55 157.89 74.34C159.98 72.18 162.43 69.47 164.73 66.44C165.42 66.41 166.09 66.34 166.75 66.23C164.19 69.69 161.49 72.84 159.2 75.16C156.68 77.71 153.94 80.47 151.56 82.47C147.78 85.65 144.86 87.45 144.86 87.45C144.86 87.45 139.31 98.61 142.33 99.33C144.1 99.75 147.6 94.36 147.6 94.36C147.6 94.36 152.16 87.39 154.91 84.26C158.66 79.99 161.89 77.52 165.12 77.47C167 77.44 168.11 79.44 168.11 79.44L169 78.07H174.45C174.45 78.07 164.28 95.34 163.47 96.64M178.63 56.46C174.8 58.93 169.49 61.16 164.39 60.67C163.1 62.01 161.72 63.55 160.33 65.24C169.18 66.98 176.92 61.5 181.03 56.84C183.6 53.93 184.87 51.33 184.87 51.33C184.87 51.33 182.42 54.03 178.62 56.48M77.6102 81.39C79.8102 78.37 85.8902 67.78 85.8902 67.78C85.8902 67.78 85.7902 67.04 85.0802 67.01C84.2402 66.97 82.8402 67.25 80.0502 70.74C77.2502 74.23 75.1002 77.01 73.5302 79.9C71.8102 83.05 71.0502 85.28 72.0402 85.88C72.3202 86.05 72.7402 86.07 73.0802 85.99C73.7302 85.83 74.5702 85.18 75.7302 83.84C76.2702 83.21 76.8902 82.38 77.6102 81.39ZM49.8102 67.09C48.3802 66.01 44.7402 68.54 44.7202 71.13C44.7002 73.78 48.0102 74.54 48.4402 74.56C48.4402 74.56 48.8202 74.66 48.9602 74.35C49.0502 74.16 49.5002 73.33 50.0102 72.01C50.5102 70.69 51.1502 68.11 49.8202 67.1M47.6602 76.23C47.5702 76.2 46.1902 75.8 44.8502 74.94C43.5102 74.08 42.8902 72.81 42.8402 72.72C42.7902 72.63 42.7402 72.7 42.6802 72.77C42.6302 72.84 42.3402 73.21 40.3902 76.07C38.4402 78.93 35.5602 84.78 38.2602 85.78C39.9902 86.42 42.8902 83.38 44.4702 81.37C45.9302 79.5 47.6702 76.63 47.7402 76.46C47.8102 76.29 47.7402 76.25 47.6502 76.21M89.9802 77.95H91.8802C91.8802 77.95 82.3702 91.7 77.0002 91.08C74.0002 90.73 74.8902 87.03 74.8902 87.03C74.8902 87.03 70.6702 91.97 66.8102 90.98C63.3002 90.08 65.5602 84.24 65.5602 84.24C65.1602 84.4 57.5702 92.97 52.2402 90.92C46.6602 88.77 49.5502 81.6 50.6102 79.44C51.5102 77.62 52.5002 75.85 52.5002 75.85C52.5002 75.85 51.6402 76.09 51.1102 76.22C50.5802 76.34 49.7702 76.5 49.7702 76.5C49.7702 76.5 47.1302 80.79 45.5202 82.94C43.9102 85.08 37.0502 92.45 33.0102 90.98C28.9702 89.51 29.9602 83.86 32.2302 79.36C35.9102 72.07 44.6502 63.12 49.9102 64.46C55.2302 65.81 50.8302 74.44 50.8302 74.44C50.8302 74.44 51.8902 74.58 54.4202 72.85C58.0702 70.36 62.8802 63.66 68.1002 64.44C70.5502 64.81 72.8302 67.32 69.7102 72.1C68.7102 73.63 67.0302 75 65.7502 73.65C64.9502 72.81 65.6502 71.27 66.4802 70.22C67.6602 68.73 69.3002 68.93 69.3002 68.93C69.3002 68.93 70.1602 66.95 67.9702 66.99C66.2002 67.02 61.7102 71.16 59.1702 75.34C56.8402 79.18 53.3202 85.72 56.8602 87.14C60.1102 88.45 66.2702 81.12 69.1302 77.28C71.9902 73.44 78.4902 64.73 83.9502 64.38C85.8302 64.26 86.9502 65.97 86.9502 65.97L87.5802 64.97H93.0302C93.0302 64.97 82.7502 82.14 81.9502 83.44C81.3202 84.46 80.4802 86.75 82.8102 85.46C85.1402 84.17 89.9802 77.95 89.9802 77.95ZM87.0202 105.47C82.8902 102.57 77.8602 101.29 73.2902 101.47C68.6702 101.66 66.5902 105.11 66.5902 105.11C64.5002 101.47 60.3802 99.24 54.0102 99.3C43.7202 99.42 33.5102 104.17 25.4302 104.17C17.3502 104.17 12.0102 99.3 12.2002 90.64C12.5302 75.46 25.3502 61.79 34.9302 55.63C40.4402 52.09 45.0502 51.04 48.0702 51.38C50.2702 51.62 52.9202 54.17 51.2502 57.91C48.8002 63.4 45.4102 62.94 45.5302 60.32C45.6002 58.62 46.7402 57.54 47.5902 56.96C48.1302 56.58 49.0902 56.48 49.5902 56.47C50.0702 56.06 50.4402 53.06 46.5002 54.05C42.5502 55.04 37.8002 58.92 33.2702 63.92C28.7402 68.92 21.6902 78.39 19.9502 88.33C19.1402 92.94 19.6802 101.34 30.6002 101.24C39.8602 101.16 53.5202 95.06 66.0702 95.17C70.9402 95.21 75.1802 96.52 78.4902 98.57C81.7502 100.58 85.6402 103.5 87.0202 105.49" fill="white"/>
<path d="M174.11 97.91C173.39 97.91 172.75 98.07 172.16 98.4C171.57 98.74 171.11 99.19 170.77 99.76C170.43 100.33 170.27 100.96 170.27 101.62C170.27 102.28 170.43 102.93 170.77 103.48C171.11 104.05 171.57 104.5 172.16 104.83C172.75 105.17 173.38 105.33 174.11 105.33C174.84 105.33 175.48 105.17 176.07 104.83C176.66 104.5 177.1 104.05 177.44 103.48C177.78 102.92 177.94 102.3 177.94 101.62C177.94 100.94 177.78 100.33 177.44 99.76C177.1 99.19 176.65 98.74 176.07 98.4C175.48 98.07 174.83 97.91 174.11 97.91ZM174.11 104.62C173.52 104.62 172.99 104.48 172.54 104.23C172.08 103.97 171.72 103.62 171.46 103.17C171.2 102.72 171.08 102.2 171.08 101.63C171.08 101.06 171.2 100.55 171.46 100.11C171.72 99.67 172.07 99.29 172.54 99.03C173.01 98.77 173.52 98.65 174.11 98.65C174.7 98.65 175.21 98.77 175.68 99.03C176.15 99.29 176.5 99.66 176.76 100.11C177.02 100.56 177.14 101.08 177.14 101.63C177.14 102.18 177.02 102.72 176.76 103.17C176.5 103.62 176.15 103.97 175.7 104.23C175.24 104.49 174.71 104.62 174.12 104.62H174.11ZM175.72 100.97C175.72 100.67 175.62 100.41 175.43 100.21C175.23 100.01 174.97 99.91 174.64 99.91H172.69V103.27H173.55V102.05H174.2L174.99 103.27H175.97L175.09 101.96C175.29 101.86 175.44 101.73 175.55 101.55C175.66 101.37 175.71 101.18 175.71 100.96L175.72 100.97ZM173.56 100.64H174.49C174.6 100.64 174.68 100.67 174.75 100.72C174.82 100.79 174.85 100.87 174.85 100.96C174.85 101.05 174.82 101.14 174.75 101.19C174.68 101.26 174.6 101.29 174.49 101.29H173.56V100.64Z" fill="white"/>
</svg>
