<svg width="191" height="190" viewBox="0 0 191 190" fill="none" xmlns="http://www.w3.org/2000/svg">
<path d="M190.84 0H0.919922V189.92H190.84V0Z" fill="#F40009"/>
<path d="M35.5301 127.37L41.5001 121.01V118.73H32.1401V121.18H37.8501L31.8501 127.57V129.82H41.7301V127.37H35.5301ZM54.5501 127.37H48.0401V125.4H52.4301V122.92H48.0401V121.18H54.4001L54.7201 118.73H45.2101V129.82H54.8801L54.5601 127.37H54.5501ZM65.7001 129.82H68.9501L65.9301 125.49C66.6101 125.23 67.1301 124.81 67.5201 124.23C67.8901 123.66 68.0701 123 68.0701 122.26C68.0701 121.61 67.9301 121.03 67.6401 120.49C67.3501 119.95 66.9201 119.54 66.3501 119.21C65.7801 118.89 65.1201 118.73 64.3501 118.73H58.0401V129.82H60.8401V125.77H63.0101L65.7001 129.82ZM60.8301 121.2H63.9701C64.3401 121.2 64.6301 121.29 64.8601 121.49C65.0801 121.69 65.1801 121.94 65.1801 122.26C65.1801 122.58 65.0701 122.85 64.8601 123.05C64.6301 123.25 64.3401 123.34 63.9701 123.34H60.8301V121.2Z" fill="black"/>
<path d="M77.0798 130.01C75.9097 130.01 74.8597 129.76 73.9397 129.27C73.0197 128.79 72.2897 128.12 71.7797 127.24C71.2597 126.36 70.9897 125.38 70.9897 124.27C70.9897 123.16 71.2497 122.18 71.7797 121.3C72.2897 120.42 73.0097 119.75 73.9397 119.25C74.8597 118.77 75.9097 118.53 77.0798 118.53C78.2498 118.53 79.2997 118.78 80.2197 119.25C81.1397 119.74 81.8697 120.42 82.3897 121.3C82.8997 122.18 83.1597 123.16 83.1597 124.27C83.1597 125.38 82.8997 126.36 82.3897 127.24C81.8697 128.12 81.1397 128.79 80.2197 129.27C79.2997 129.76 78.2498 130.01 77.0798 130.01ZM77.0798 121.11C76.4798 121.11 75.9397 121.25 75.4597 121.51C74.9797 121.77 74.6097 122.14 74.3497 122.62C74.0897 123.1 73.9497 123.65 73.9497 124.27C73.9497 124.89 74.0897 125.42 74.3497 125.9C74.6097 126.38 74.9797 126.76 75.4597 127.02C75.9397 127.28 76.4798 127.42 77.0798 127.42C77.6797 127.42 78.2197 127.28 78.6997 127.02C79.1797 126.76 79.5497 126.37 79.8097 125.9C80.0697 125.43 80.2097 124.88 80.2097 124.27C80.2097 123.66 80.0697 123.1 79.8097 122.62C79.5497 122.14 79.1797 121.77 78.6997 121.51C78.2197 121.25 77.6797 121.11 77.0798 121.11ZM97.0798 129.96C98.1098 129.96 98.9897 129.81 99.7397 129.5C100.48 129.19 101.05 128.76 101.45 128.19C101.83 127.64 102.04 126.99 102.04 126.23C102.04 125.38 101.78 124.69 101.24 124.12C100.7 123.55 99.8697 123.18 98.7497 123.01L96.0697 122.58C95.4397 122.47 95.1197 122.24 95.1197 121.86C95.1197 121.63 95.2997 121.41 95.6697 121.24C96.0197 121.07 96.5197 120.99 97.1197 120.99C97.7197 120.99 98.2597 121.08 98.7797 121.28C99.2897 121.48 99.7997 121.77 100.3 122.16L101.9 120.11C101.3 119.57 100.58 119.17 99.7097 118.91C98.8497 118.65 97.9497 118.53 97.0497 118.53C96.0197 118.53 95.1297 118.67 94.3997 118.96C93.6597 119.25 93.1097 119.65 92.7197 120.18C92.3398 120.72 92.1497 121.33 92.1497 122.04C92.1497 123.81 93.2997 124.89 95.5997 125.26L97.9697 125.63C98.6897 125.74 99.0497 126.01 99.0497 126.46C99.0497 126.75 98.8797 126.98 98.5397 127.18C98.1897 127.38 97.7097 127.49 97.0897 127.49C95.6597 127.49 94.4397 127.03 93.4097 126.12L91.7197 128.2C92.2897 128.74 93.0597 129.17 94.0297 129.48C94.9797 129.8 95.9998 129.96 97.0798 129.96ZM110.32 130.01C111.38 130.01 112.31 129.83 113.09 129.46C113.87 129.09 114.48 128.57 114.89 127.87C115.31 127.18 115.51 126.36 115.51 125.42V118.72H112.66V125.12C112.66 125.87 112.46 126.44 112.07 126.83C111.69 127.21 111.1 127.42 110.31 127.42C109.52 127.42 108.96 127.22 108.57 126.83C108.17 126.45 107.97 125.88 107.97 125.12V118.72H105.12V125.42C105.12 126.36 105.34 127.18 105.75 127.87C106.16 128.56 106.77 129.09 107.55 129.46C108.33 129.83 109.24 130.01 110.31 130.01H110.32ZM130.09 123.14H124.44V125.6H127.3V127.16C126.71 127.38 126.08 127.48 125.39 127.48C124.7 127.48 124 127.34 123.43 127.06C122.86 126.8 122.41 126.41 122.09 125.92C121.77 125.43 121.61 124.87 121.61 124.26C121.61 123.65 121.76 123.09 122.07 122.6C122.38 122.12 122.79 121.74 123.33 121.46C123.85 121.18 124.42 121.04 125.05 121.04C126.25 121.04 127.33 121.42 128.28 122.18L129.87 120.15C129.3 119.63 128.61 119.23 127.79 118.93C126.96 118.65 126.03 118.51 125.03 118.51C123.81 118.51 122.74 118.76 121.77 119.25C120.8 119.74 120.03 120.42 119.48 121.3C118.93 122.18 118.65 123.18 118.65 124.3C118.65 125.42 118.93 126.38 119.5 127.24C120.07 128.1 120.85 128.78 121.87 129.26C122.87 129.75 124.03 130 125.32 130C126.34 130 127.26 129.88 128.09 129.63C128.91 129.4 129.57 129.09 130.08 128.71V123.14H130.09ZM141.89 129.81H144.85L140.49 118.72H136.98L132.64 129.81H135.57L136.4 127.56H141.07L141.9 129.81H141.89ZM137.27 125.18L138.72 121.24L140.18 125.18H137.27ZM155.32 129.81H158.57L155.55 125.48C156.23 125.22 156.75 124.8 157.14 124.22C157.51 123.65 157.69 122.99 157.69 122.25C157.69 121.6 157.55 121.02 157.26 120.48C156.97 119.94 156.54 119.53 155.97 119.2C155.4 118.88 154.74 118.72 153.97 118.72H147.66V129.81H150.46V125.76H152.63L155.32 129.81ZM150.45 121.19H153.59C153.96 121.19 154.25 121.28 154.48 121.48C154.7 121.68 154.8 121.93 154.8 122.25C154.8 122.57 154.69 122.84 154.48 123.04C154.25 123.24 153.96 123.33 153.59 123.33H150.45V121.19Z" fill="black"/>
<path d="M102.89 64.9199H97.6998L94.7798 69.6599H99.9598L102.89 64.9199Z" fill="black"/>
<path d="M133.91 55.37C133.91 55.37 130.67 56.66 126.91 60.81C123.13 64.98 120.96 69.63 122.58 70.87C123.2 71.34 124.64 71.42 127.25 69.07C129.29 67.24 131.36 64.84 132.77 61.41C134.45 57.3 133.92 55.42 133.92 55.37M154.53 62.83C150.35 60.69 147.29 58.07 144.11 56.43C141.07 54.87 139.11 54.22 136.66 54.55C136.25 54.6 135.65 54.8 135.65 54.8C135.65 54.8 136.92 59.11 131.89 66.37C126.8 73.72 122.18 73.68 120.87 71.65C119.49 69.52 121.26 65.17 124.23 61.31C127.33 57.27 132.79 53.91 132.79 53.91C132.79 53.91 131.05 52.85 126.77 55.27C122.61 57.63 115.42 63.25 108.78 72.72C102.14 82.19 100.81 87.4 99.8497 91.51C98.8897 95.61 99.7697 100 104.32 100C108.87 100 114.16 93.06 115.65 90.64C118.42 86.15 120.23 79.25 116.45 80.2C114.59 80.67 113.08 82.73 112.13 84.72C111.15 86.76 110.76 88.71 110.76 88.71C110.76 88.71 109.19 89.27 107.08 90.85C104.97 92.43 103.59 93.94 103.59 93.94C103.59 93.94 103.6 90.66 106.21 85.36C108.82 80.05 113.62 77.62 116.33 77.4C118.78 77.2 121.97 79.28 119.27 86.95C116.57 94.62 108.61 103.93 100.24 104.06C92.5197 104.17 87.4597 94.31 98.1997 77.11C110.08 58.08 124.04 52.24 128.58 51.59C133.11 50.94 134.58 52.94 134.58 52.94C134.58 52.94 138.38 51.18 143.19 51.51C148.72 51.89 153.01 55.8 158.65 58.55C157.17 59.98 155.77 61.45 154.51 62.83M179.36 56.41C175.53 58.87 170.22 61.11 165.12 60.61C163.83 61.95 162.45 63.49 161.06 65.18C169.91 66.92 177.64 61.45 181.76 56.78C184.33 53.87 185.6 51.27 185.6 51.27C185.6 51.27 183.15 53.97 179.35 56.42M167.59 81.34C167.7 81.15 167.75 80.97 167.75 80.97C167.75 80.97 167.65 80.23 166.94 80.19C166.1 80.15 164.95 80.31 161.94 83.65C158.94 86.97 157.12 89.86 155.54 92.74C153.81 95.9 153.12 98.24 154.11 98.84C154.39 99.01 154.81 99.03 155.15 98.95C155.82 98.79 156.58 98.16 157.74 96.82C158.28 96.19 158.88 95.3 159.6 94.31C161.58 91.6 166.58 83.05 167.58 81.33M136.29 84.98C136.79 83.66 137.43 81.08 136.1 80.07C134.67 78.99 131.03 81.52 131.01 84.1C130.99 86.75 133.58 87.95 134.2 88.12C134.55 88.22 134.68 88.2 134.85 87.92C134.96 87.73 135.79 86.29 136.3 84.98M133.55 89.8C133.46 89.77 132.27 89.23 131.05 88.2C129.83 87.18 129.21 86.01 129.16 85.92C129.11 85.83 129.06 85.9 129 85.97C128.95 86.05 128.72 86.24 126.78 89.1C124.83 91.96 121.86 97.85 124.56 98.85C126.29 99.49 129.17 96.46 130.74 94.45C132.2 92.58 133.56 90.21 133.64 90.04C133.72 89.87 133.64 89.83 133.55 89.79M164.19 96.59C163.46 97.77 162.63 100.01 165.05 98.61C168 96.9 172.2 90.53 172.2 90.53H174.1C174.1 90.53 171.59 94.49 168.33 98.11C165.34 101.42 161.69 104.43 159.12 104.14C156.12 103.79 157.06 99.85 157.06 99.85C157.06 99.85 152.75 104.42 149.79 104.1C145.78 103.66 147 98.7 147 98.7C147 98.7 142.47 104.28 139.38 104.1C134.53 103.82 135.75 97.91 137.09 93.77C137.81 91.55 138.48 89.8 138.48 89.8C138.48 89.8 138 89.93 136.97 90.08C136.43 90.16 135.45 90.21 135.45 90.21C135.45 90.21 133.44 93.77 131.82 95.92C130.21 98.06 123.35 105.44 119.31 103.96C115.58 102.6 116.81 96.88 118.98 92.34C122.15 85.72 131.07 76.2 136.21 77.44C141.54 78.73 136.33 88.47 136.33 88.47C136.33 88.47 136.33 88.51 136.39 88.53C136.5 88.57 136.77 88.6 137.42 88.48C138.45 88.28 139.37 87.9 139.37 87.9C139.37 87.9 144.73 76.67 150.65 69.32C156.57 61.97 168.38 49.32 173.03 52.38C174.17 53.13 173.65 55.72 172.12 58.87C171.45 59.08 170.75 59.27 170.03 59.42C171.05 57.57 171.73 56 171.93 54.91C172.63 51.11 163.76 59.12 157.44 67.73C151.12 76.34 147.31 84.14 147.31 84.14C147.31 84.14 148.59 83.42 150.58 81.81C152.66 80.13 155.52 77.51 158.62 74.3C160.71 72.14 163.16 69.43 165.46 66.4C166.15 66.37 166.82 66.3 167.48 66.19C164.92 69.64 162.22 72.8 159.93 75.12C157.41 77.67 154.67 80.43 152.29 82.43C148.51 85.61 145.59 87.41 145.59 87.41C145.59 87.41 140.04 98.57 143.06 99.29C144.83 99.71 148.33 94.32 148.33 94.32C148.33 94.32 152.89 87.35 155.64 84.22C159.39 79.95 162.62 77.48 165.85 77.43C167.73 77.4 168.84 79.4 168.84 79.4L169.73 78.03H175.18C175.18 78.03 165.01 95.3 164.2 96.59M179.36 56.41C175.53 58.87 170.22 61.11 165.12 60.61C163.83 61.95 162.45 63.49 161.06 65.18C169.91 66.92 177.64 61.45 181.76 56.78C184.33 53.87 185.6 51.27 185.6 51.27C185.6 51.27 183.15 53.97 179.35 56.42M78.3397 81.33C80.5497 78.31 86.6197 67.72 86.6197 67.72C86.6197 67.72 86.5197 66.98 85.8097 66.94C84.9697 66.9 83.5797 67.18 80.7797 70.67C77.9797 74.16 75.8297 76.95 74.2497 79.83C72.5297 82.98 71.7697 85.21 72.7597 85.81C73.0397 85.98 73.4597 86 73.7997 85.92C74.4497 85.76 75.2897 85.11 76.4497 83.77C76.9897 83.14 77.6097 82.31 78.3297 81.32M50.5297 67.02C49.0997 65.94 45.4597 68.47 45.4397 71.06C45.4197 73.71 48.7297 74.47 49.1597 74.49C49.1597 74.49 49.5397 74.59 49.6797 74.28C49.7697 74.08 50.2197 73.25 50.7297 71.94C51.2297 70.62 51.8697 68.04 50.5397 67.03M48.3797 76.16C48.2897 76.13 46.9097 75.73 45.5697 74.87C44.2297 74.01 43.6097 72.74 43.5597 72.65C43.5097 72.56 43.4597 72.63 43.3997 72.7C43.3497 72.77 43.0597 73.14 41.1097 76C39.1597 78.86 36.2797 84.71 38.9797 85.71C40.7097 86.35 43.6097 83.31 45.1897 81.3C46.6497 79.43 48.3897 76.56 48.4597 76.39C48.5297 76.22 48.4597 76.18 48.3697 76.15M90.6997 77.89H92.5997C92.5997 77.89 83.0897 91.64 77.7197 91.02C74.7197 90.67 75.6097 86.97 75.6097 86.97C75.6097 86.97 71.3897 91.91 67.5297 90.92C64.0197 90.02 66.2797 84.18 66.2797 84.18C65.8797 84.34 58.2897 92.91 52.9497 90.86C47.3697 88.71 50.2597 81.54 51.3197 79.38C52.2197 77.56 53.2097 75.79 53.2097 75.79C53.2097 75.79 52.3497 76.03 51.8197 76.16C51.2897 76.28 50.4797 76.44 50.4797 76.44C50.4797 76.44 47.8397 80.73 46.2297 82.88C44.6197 85.02 37.7597 92.39 33.7197 90.92C29.6797 89.45 30.6697 83.8 32.9397 79.3C36.6197 72.01 45.3597 63.06 50.6197 64.4C55.9397 65.76 51.5397 74.38 51.5397 74.38C51.5397 74.38 52.5997 74.52 55.1297 72.79C58.7797 70.3 63.5897 63.6 68.8097 64.38C71.2597 64.75 73.5397 67.26 70.4197 72.04C69.4197 73.57 67.7497 74.94 66.4597 73.59C65.6597 72.75 66.3597 71.21 67.1897 70.16C68.3697 68.67 70.0097 68.87 70.0097 68.87C70.0097 68.87 70.8697 66.89 68.6797 66.93C66.8997 66.96 62.4197 71.1 59.8797 75.28C57.5497 79.12 54.0397 85.66 57.5697 87.08C60.8197 88.39 66.9797 81.06 69.8397 77.22C72.6997 73.38 79.1997 64.67 84.6597 64.32C86.5397 64.2 87.6597 65.91 87.6597 65.91L88.2897 64.91H93.7397C93.7397 64.91 83.4597 82.08 82.6497 83.39C82.0197 84.41 81.1797 86.7 83.5097 85.41C85.8397 84.12 90.6797 77.9 90.6797 77.9M87.7197 105.42C83.5897 102.52 78.5597 101.24 73.9897 101.42C69.3697 101.6 67.2997 105.06 67.2997 105.06C65.2097 101.42 61.0897 99.19 54.7197 99.25C44.4297 99.37 34.2197 104.12 26.1397 104.12C18.0597 104.12 12.7197 99.25 12.9097 90.59C13.2397 75.41 26.0597 61.74 35.6397 55.58C41.1497 52.04 45.7597 50.99 48.7797 51.33C50.9797 51.57 53.6297 54.12 51.9597 57.86C49.5097 63.35 46.1197 62.89 46.2397 60.27C46.3097 58.57 47.4497 57.49 48.2997 56.91C48.8397 56.53 49.7997 56.43 50.2997 56.42C50.7797 56.01 51.1497 53.01 47.2097 54C43.2597 54.99 38.5097 58.87 33.9797 63.86C29.4497 68.85 22.3997 78.33 20.6597 88.27C19.8497 92.88 20.3997 101.28 31.3097 101.18C40.5697 101.1 54.2297 95 66.7797 95.11C71.6497 95.15 75.8897 96.46 79.1997 98.5C82.4597 100.51 86.3497 103.43 87.7297 105.42" fill="black"/>
<path d="M174.83 97.9099C174.11 97.9099 173.47 98.0699 172.88 98.3999C172.29 98.7399 171.83 99.1899 171.49 99.7599C171.15 100.33 170.99 100.96 170.99 101.62C170.99 102.28 171.15 102.93 171.49 103.48C171.83 104.05 172.29 104.5 172.88 104.83C173.47 105.17 174.1 105.33 174.83 105.33C175.56 105.33 176.2 105.17 176.79 104.83C177.38 104.5 177.82 104.05 178.16 103.48C178.5 102.92 178.66 102.3 178.66 101.62C178.66 100.94 178.5 100.33 178.16 99.7599C177.82 99.1899 177.37 98.7399 176.79 98.3999C176.2 98.0699 175.55 97.9099 174.83 97.9099ZM174.83 104.62C174.24 104.62 173.71 104.48 173.26 104.23C172.8 103.97 172.44 103.62 172.18 103.17C171.92 102.72 171.8 102.2 171.8 101.63C171.8 101.06 171.92 100.55 172.18 100.11C172.44 99.6599 172.79 99.2899 173.26 99.0299C173.72 98.7699 174.24 98.6499 174.83 98.6499C175.42 98.6499 175.93 98.7699 176.4 99.0299C176.86 99.2899 177.22 99.6599 177.48 100.11C177.74 100.56 177.86 101.08 177.86 101.63C177.86 102.18 177.74 102.72 177.48 103.17C177.22 103.62 176.87 103.97 176.42 104.23C175.96 104.49 175.43 104.62 174.84 104.62H174.83ZM176.44 100.97C176.44 100.67 176.34 100.41 176.15 100.21C175.95 100.01 175.69 99.9099 175.36 99.9099H173.41V103.27H174.27V102.04H174.92L175.71 103.27H176.69L175.81 101.96C176.01 101.86 176.16 101.73 176.27 101.55C176.38 101.37 176.43 101.18 176.43 100.96L176.44 100.97ZM174.28 100.64H175.21C175.32 100.64 175.4 100.67 175.47 100.72C175.54 100.79 175.57 100.87 175.57 100.96C175.57 101.05 175.54 101.14 175.47 101.19C175.4 101.26 175.32 101.29 175.21 101.29H174.28V100.64Z" fill="black"/>
</svg>
