<svg width="33" height="40" viewBox="0 0 33 40" fill="none" xmlns="http://www.w3.org/2000/svg">
<g clip-path="url(#clip0_101_19528)">
<path d="M6.26229 9.28649C6.0745 9.28649 5.8961 9.28649 5.69891 9.28649C5.3515 9.28649 5.03225 9.4555 4.81628 9.71841C4.60032 9.99071 4.51582 10.3381 4.57215 10.6762C6.5252 20.9672 14.1214 22.0752 17.2952 22.0752C18.4125 22.0752 19.1449 21.9438 19.2294 21.9344C19.821 21.8217 20.2341 21.2771 20.1872 20.6762C19.8398 16.7325 16.4783 9.2771 6.2529 9.2771M6.2529 10.4508C18.1027 10.4508 19.0135 20.7794 19.0135 20.7794C19.0135 20.7794 18.3468 20.9015 17.2952 20.9015C14.1214 20.9015 7.48295 19.7466 5.71769 10.4602C5.8961 10.4602 6.0745 10.4602 6.24351 10.4602" fill="#57BC74"/>
<path d="M31.2666 0C31.1915 0 31.1257 0 31.0506 0.0187793C17.6985 2.52582 19.7455 14.5352 19.7642 14.6573C19.8675 15.2207 20.3558 15.615 20.9192 15.615C20.9567 15.615 20.9849 15.615 21.0225 15.615C25.0788 15.2676 32.6938 11.7934 32.4403 1.14554C32.4403 0.798122 32.2713 0.478873 32.0084 0.262911C31.8018 0.0938967 31.5389 0 31.2666 0M31.2666 1.17371C31.5577 13.5305 20.9192 14.4413 20.9192 14.4413C20.9192 14.4413 18.9098 3.49296 31.2666 1.17371Z" fill="#57BC74"/>
<path d="M25.9053 7.33325C25.9053 7.33325 17.1448 12.4976 20.741 27.1924" stroke="#57BC74" stroke-linecap="round" stroke-linejoin="round"/>
<path d="M29.9992 34.9578L22.3184 38.094C19.9616 39.0517 17.3043 39.2207 14.8442 38.5447L6.45927 36.263V28.8357C7.04143 28.3756 9.32312 26.8733 12.018 28.6761C14.6658 30.4414 15.3325 30.7231 16.7316 30.6667C17.4264 30.6386 19.0039 30.6386 20.2058 30.6479C21.0414 30.6479 21.7269 31.3428 21.7269 32.1785C21.7269 33.0141 21.0414 33.709 20.1964 33.709H14.8349C14.5813 33.709 14.3654 33.9155 14.3654 34.1691C14.3654 34.4226 14.5719 34.6292 14.8349 34.6292H20.1964C20.5156 34.6292 20.8255 34.5634 21.1072 34.4508L28.91 32.5353C28.91 32.5353 28.9569 32.5259 28.9757 32.5165C29.3888 32.3381 29.8396 32.385 30.2151 32.6385C30.5907 32.8827 30.8067 33.2864 30.8067 33.7371C30.8067 34.2817 30.4874 34.7606 29.9804 34.9578M5.51091 37.6808H2.00857V26.8545H5.5203V37.6808H5.51091ZM30.7316 31.8592C30.1119 31.4461 29.3419 31.3709 28.6471 31.6432L22.4405 33.1738C22.5813 32.8639 22.6565 32.5259 22.6565 32.1691C22.6565 30.817 21.5579 29.7184 20.2058 29.709C18.9945 29.709 17.3982 29.6996 16.6846 29.7278C15.5673 29.7653 15.1165 29.6245 12.5156 27.8968C9.89589 26.1503 7.59542 27.0235 6.44049 27.7184V26.3944C6.44049 26.1409 6.23392 25.9343 5.9804 25.9343H1.54847C1.29495 25.9343 1.08838 26.1409 1.08838 26.3944V38.1503C1.08838 38.4038 1.29495 38.6104 1.54847 38.6104H5.98979C6.24331 38.6104 6.44988 38.4038 6.44988 38.1503V37.2301L14.5907 39.4461C15.6705 39.7371 16.7785 39.8874 17.8959 39.8874C19.5203 39.8874 21.1447 39.5775 22.6565 38.9578L30.3372 35.8217C31.1917 35.4742 31.7363 34.6573 31.7363 33.7371C31.7363 32.986 31.3607 32.2817 30.7316 31.8686" fill="white"/>
</g>
<defs>
<clipPath id="clip0_101_19528">
<rect width="31.4836" height="40" fill="white" transform="translate(0.966309)"/>
</clipPath>
</defs>
</svg>
