<svg width="190" height="190" viewBox="0 0 190 190" fill="none" xmlns="http://www.w3.org/2000/svg">
<path d="M189.96 0H0.0400391V189.92H189.96V0Z" fill="#EDEDED"/>
<path d="M155.65 69.36C159.85 69.36 161.7 74 161.7 78.09C161.7 85.42 151.24 85.37 148.99 85.37C148.99 72.32 152.65 69.35 155.65 69.35M158.87 99.7599C150.32 99.7599 149.67 91.06 149.23 88.96C154.39 88.96 171.8 88.96 171.81 78.04C171.81 70.22 163.26 66.37 156.64 66.37C144.19 66.37 136.21 73.86 136.21 86.59C136.21 94.96 139.84 98.6 140.98 99.84C142.12 101.01 143.68 102.28 145.74 103.33C147.6 104.21 150.89 105.33 155.49 105.34C168.66 105.34 172.12 95.2199 172.57 93.8799C172.57 93.8799 167.43 99.7699 158.88 99.7599" fill="#75192B"/>
<path d="M80.79 102.42C73.23 102.42 73.07 90.0499 73.08 85.3199C73.08 82.4099 73 69.06 81.22 69.06C88.42 69.06 88.82 80.52 88.81 85.74C88.81 90.96 88.14 102.41 80.79 102.41M81.75 66.1899C71.08 66.1799 60.47 72.2799 60.45 85.8199C60.45 87.1299 60.61 88.59 60.82 89.71C60.94 90.37 61.26 91.57 61.59 92.65C59.16 95.85 54.5 100.48 47.65 100.48C38.23 100.48 31.49 93.73 31.5 77.65C31.51 61.57 37.82 53.17 46.29 53.17C57.14 53.17 61.97 65.69 62.77 67.55V53.52L56.88 51.5699C54.9 50.9099 52.87 50.4 50.81 50.09C49.3 49.86 47.65 49.71 45.82 49.71C29.29 49.71 17.22 62.29 17.21 78.55C17.19 94.72 28.16 105.56 43.98 105.56C54.97 105.56 60.84 99.96 63.4 96.68C65.44 99.85 70.47 105.29 80.89 105.3C95.31 105.3 102.59 96.07 102.59 85.46C102.6 74.89 95.73 66.19 81.76 66.18" fill="#75192B"/>
<path d="M139.28 65.92H132.28L127.54 71.45C127.43 71.6 127.31 71.75 127.16 71.92C126.77 72.37 121.53 78.4999 118.68 81.8199L116.91 83.89C116.91 83.89 116.89 83.91 116.89 83.92V83.9L116.87 83.92L116.89 52.35H104.97V58.27C104.97 59.73 104.95 104.17 104.95 104.17H116.87V92L119.65 88.78L128.42 104.18H140.42L126.46 80.78L139.28 65.9399V65.92Z" fill="#75192B"/>
<path d="M136.14 48.83C135.96 49.1 135.79 49.42 135.46 50.07C135.13 50.71 134.47 52.58 133.93 53.87C132.99 56.12 131.6 58.13 129.89 59.55C128.47 60.75 127.74 61.25 126.59 61.65C126.59 61.65 127.02 61.81 128.01 61.86C131.81 62.02 135.02 60.33 136.83 57.79C138.5 55.43 139.71 52.25 137.78 49.37C135.97 46.67 128.03 45.58 123.72 49.28C121.35 51.32 122.17 54.41 125.53 53.11C126.12 52.85 126.66 52.4 126.87 51.99C128.8 52.7 131.11 51.2 131.11 51.2C131.11 51.2 129.47 54.88 125.48 55.41C121.41 55.95 120.26 53.81 120.31 52.32C120.71 47.32 130.54 44.4 136.41 46.95C141.22 49.04 142.24 52.72 141.26 55.65C139.81 59.97 136.12 61.82 132.61 62.57C128.84 63.39 125.75 62.65 124.74 62.39C124.3 62.27 124.1 62.14 124.1 62.14C124.1 62.14 125.44 61.22 126.73 59.66C127.81 58.34 128.95 56.74 129.75 55.37C131.59 52.21 134.04 49.69 136.14 48.83ZM148.46 49.44C148.82 50.07 148.41 50.92 147.69 51.34C146.96 51.77 146 51.67 145.64 51.04C145.28 50.41 145.64 49.58 146.42 49.13C147.2 48.69 148.1 48.82 148.45 49.45M145.72 60.11C144.87 60.98 143.99 61.77 142.97 62.31C142.13 62.67 141.08 63.04 140.27 62.38C139.88 62.02 139.85 61.42 139.98 60.92C140.13 60.39 140.41 59.9 140.67 59.42C140.67 59.42 144.14 53.06 144.17 53C144.21 52.93 144.28 52.93 144.28 52.93C144.9 52.93 146.76 52.93 146.84 52.93C146.9 52.93 146.85 53.05 146.86 53C146.89 52.96 145.66 55.26 145.66 55.26C145.66 55.26 143.05 60.08 142.94 60.28C142.68 60.78 142.91 61.16 143.66 60.69C144.58 60.11 145.07 59.51 145.62 58.79C146.36 57.83 146.77 56.54 148.04 55.19C149.28 53.87 150.27 53.26 151.32 52.9C152.53 52.48 153.88 52.77 154.2 53.67C154.48 54.43 154.06 55.49 153.52 56.12C152.24 57.59 150.49 58.39 148.68 58.8C148.37 59.24 147.87 61.04 149.49 61.01C150.4 60.98 151.15 60.48 151.97 59.95C153.39 58.95 154.69 57.69 155.61 56.26C156.05 55.48 156.54 54.68 156.92 53.89H155.33L155.89 52.92H157.46L159.21 49.85H161.79C161.79 49.85 160.31 52.65 160.17 52.92C160.55 52.92 162.15 52.92 162.15 52.92L161.67 53.89H159.65L159.38 54.31C159.38 54.31 157.23 58.29 156.48 59.65C155.85 60.77 156.32 60.95 156.79 60.75C157.41 60.49 158.19 59.65 158.46 59.38C158.93 58.83 159.4 58.29 159.79 57.72C160.15 57.72 160.65 57.72 160.8 57.72C159.58 59.73 157.7 62.04 155.33 62.67C154.69 62.77 153.91 62.79 153.46 62.3C153.02 61.84 153.05 61.08 153.27 60.53C153.34 60.35 153.43 60.15 153.48 60.08C153.51 60.01 153.47 59.97 153.39 60.05C151.93 61.41 150.14 62.73 148.16 62.75C147.36 62.75 146.44 62.4 146.04 61.61C145.64 60.83 145.73 60.3 145.73 60.1M150.54 55.71C150.11 56.19 149.64 56.84 149.28 57.6C149.28 57.6 151.44 57.05 152.62 55.55C152.87 55.21 153.33 54.6 153.03 54.23C152.94 54.11 152.32 53.73 150.55 55.71" fill="#75192B"/>
<path d="M175.24 97.4399C174.47 97.4399 173.78 97.62 173.15 97.97C172.52 98.34 172.03 98.82 171.66 99.43C171.29 100.04 171.12 100.72 171.12 101.43C171.12 102.14 171.3 102.83 171.66 103.43C172.03 104.04 172.52 104.53 173.15 104.88C173.78 105.25 174.46 105.42 175.24 105.42C176.02 105.42 176.71 105.24 177.34 104.88C177.97 104.53 178.45 104.05 178.81 103.43C179.18 102.83 179.35 102.16 179.35 101.43C179.35 100.7 179.17 100.04 178.81 99.43C178.45 98.82 177.96 98.33 177.34 97.97C176.71 97.62 176.01 97.4399 175.24 97.4399ZM175.24 104.64C174.61 104.64 174.04 104.49 173.56 104.22C173.06 103.94 172.68 103.56 172.41 103.08C172.13 102.6 172 102.04 172 101.43C172 100.82 172.13 100.28 172.41 99.79C172.69 99.31 173.07 98.91 173.56 98.64C174.06 98.36 174.61 98.23 175.24 98.23C175.87 98.23 176.42 98.36 176.92 98.64C177.42 98.92 177.8 99.31 178.07 99.79C178.35 100.27 178.48 100.83 178.48 101.43C178.48 102.03 178.35 102.6 178.07 103.08C177.79 103.56 177.41 103.94 176.93 104.22C176.43 104.5 175.86 104.64 175.24 104.64ZM176.96 100.73C176.96 100.41 176.86 100.13 176.65 99.91C176.43 99.69 176.15 99.59 175.8 99.59H173.71V103.2H174.63V101.89H175.33L176.18 103.2H177.23L176.28 101.8C176.5 101.7 176.66 101.55 176.78 101.36C176.9 101.17 176.96 100.97 176.96 100.73ZM174.64 100.38H175.63C175.75 100.38 175.83 100.41 175.91 100.47C175.98 100.54 176.01 100.63 176.01 100.73C176.01 100.83 175.98 100.92 175.91 100.98C175.84 101.05 175.75 101.08 175.63 101.08H174.64V100.38Z" fill="#75192B"/>
<path d="M47.5798 18.53V16.21H38.0298V28.21H40.6498V23.31H45.3798V20.99H40.6498V18.53H47.5798Z" fill="#75192B"/>
<path d="M57.5897 23.69C57.5897 22.81 57.3897 21.9901 57.0097 21.2401C56.6097 20.5101 56.0397 19.92 55.2897 19.47C54.5397 19.04 53.6697 18.82 52.6697 18.82C51.6697 18.82 50.7997 19.04 50.0497 19.47C49.2997 19.9 48.7197 20.49 48.3197 21.22C47.9197 21.95 47.7197 22.75 47.7197 23.64C47.7197 24.53 47.9397 25.3401 48.3497 26.0601C48.7697 26.7901 49.3797 27.38 50.1997 27.79C50.9997 28.21 51.9497 28.42 53.0697 28.42C53.9497 28.42 54.7197 28.29 55.3897 28.02C56.0597 27.77 56.5897 27.44 56.9697 27.02L55.6197 25.34C55.1997 25.66 54.8197 25.89 54.4397 26.04C54.0597 26.19 53.6097 26.27 53.0897 26.27C52.3697 26.27 51.7697 26.12 51.2897 25.82C50.8097 25.52 50.4697 25.09 50.2897 24.54H57.4997C57.5497 24.29 57.5797 24.01 57.5797 23.69H57.5897ZM52.6897 20.9901C53.3097 20.9901 53.8397 21.14 54.2597 21.44C54.6797 21.76 54.9397 22.17 55.0897 22.72H50.2697C50.4197 22.17 50.7197 21.75 51.1397 21.44C51.5597 21.14 52.0697 20.9901 52.6897 20.9901ZM59.3597 28.2H61.8597V19.04H59.3597V28.2ZM60.6097 18.1201C61.0297 18.1201 61.3897 17.99 61.6797 17.72C61.9697 17.45 62.0997 17.12 62.0997 16.7C62.0997 16.28 61.9697 15.9501 61.6797 15.6801C61.3897 15.4101 61.0297 15.28 60.6097 15.28C60.1897 15.28 59.8397 15.4101 59.5597 15.6801C59.2797 15.9501 59.1297 16.28 59.1297 16.7C59.1297 17.12 59.2797 17.45 59.5597 17.72C59.8397 17.99 60.1897 18.1201 60.6097 18.1201Z" fill="#75192B"/>
<path d="M64.74 25.24L63.52 27.06C64.04 27.48 64.74 27.81 65.6 28.06C66.45 28.31 67.3 28.43 68.15 28.43C69 28.43 69.75 28.3 70.4 28.05C71.03 27.8 71.52 27.43 71.87 26.95C72.22 26.48 72.39 25.93 72.39 25.3C72.39 23.8 71.42 22.9 69.47 22.6L67.47 22.28C67.1 22.21 66.84 22.13 66.65 22.03C66.47 21.95 66.38 21.81 66.38 21.66C66.38 21.44 66.53 21.24 66.85 21.09C67.17 20.94 67.55 20.87 68.03 20.87C68.55 20.87 69.1 20.95 69.65 21.14C70.2 21.33 70.65 21.54 71.02 21.81L72.24 20.04C71.62 19.61 70.96 19.29 70.21 19.11C69.46 18.93 68.74 18.83 68.03 18.83C67.18 18.83 66.43 18.95 65.81 19.2C65.19 19.45 64.71 19.82 64.38 20.27C64.03 20.72 63.86 21.25 63.86 21.85C63.86 22.55 64.09 23.13 64.58 23.6C65.06 24.08 65.81 24.3999 66.83 24.5699L69.08 24.9399C69.6 25.0199 69.86 25.21 69.86 25.52C69.86 25.75 69.73 25.95 69.44 26.12C69.15 26.29 68.72 26.37 68.16 26.37C67.54 26.37 66.94 26.2699 66.33 26.0699C65.72 25.8699 65.2 25.6 64.75 25.25L64.74 25.24ZM78.71 26.06C78.26 26.06 77.91 25.9599 77.64 25.7599C77.37 25.5599 77.24 25.24 77.24 24.79V21.16H80.06V19.04H77.24V15.99L74.77 17.16V19.04H73.19V21.16H74.74V25.14C74.74 26.12 75.04 26.89 75.64 27.47C76.24 28.05 77.16 28.34 78.37 28.34C79.1 28.34 79.69 28.2199 80.14 28.0099V25.79C79.66 25.97 79.17 26.06 78.71 26.06ZM88.68 19.05L86.15 25.43L83.53 19.05H80.78L84.88 28.11L84.81 28.28C84.69 28.56 84.51 28.8 84.26 28.95C84.01 29.12 83.76 29.2 83.48 29.2C83.01 29.2 82.45 29.07 81.8 28.8L81.15 30.8199C81.5 30.9999 81.88 31.15 82.33 31.24C82.76 31.34 83.18 31.39 83.56 31.39C84.33 31.39 85.01 31.19 85.59 30.79C86.17 30.41 86.62 29.84 86.94 29.09L91.31 19.06H88.68V19.05ZM104 28.43C104.98 28.43 105.9 28.26 106.75 27.95C107.6 27.64 108.28 27.17 108.83 26.53L107.2 24.75C106.33 25.63 105.28 26.0699 104.05 26.0699C103.27 26.0699 102.57 25.9 101.95 25.55C101.32 25.22 100.83 24.75 100.48 24.17C100.13 23.59 99.95 22.94 99.95 22.22C99.95 21.5 100.13 20.84 100.48 20.25C100.83 19.66 101.33 19.22 101.95 18.87C102.57 18.54 103.25 18.37 104.02 18.37C104.6 18.37 105.15 18.4699 105.67 18.6899C106.17 18.9099 106.65 19.26 107.12 19.72L108.75 17.9C108.22 17.28 107.53 16.8 106.7 16.48C105.85 16.16 104.93 16 103.95 16C102.67 16 101.52 16.27 100.5 16.8C99.48 17.35 98.68 18.08 98.1 19.03C97.52 19.98 97.23 21.05 97.23 22.21C97.23 23.37 97.51 24.4299 98.1 25.3799C98.69 26.3299 99.48 27.08 100.52 27.61C101.54 28.16 102.7 28.43 104 28.43Z" fill="#75192B"/>
<path d="M115.83 18.8199C114.68 18.8199 113.76 19.1699 113.11 19.8499V15.6699H110.61V28.1999H113.11V22.9799C113.11 22.4299 113.31 21.9799 113.71 21.6499C114.11 21.3199 114.63 21.1499 115.24 21.1499C115.85 21.1499 116.31 21.2999 116.62 21.6199C116.93 21.9399 117.1 22.3899 117.1 22.9499V28.1999H119.6V22.3799C119.6 21.6799 119.43 21.0599 119.12 20.5099C118.81 19.9599 118.35 19.5399 117.79 19.2399C117.21 18.9599 116.56 18.8099 115.82 18.8099L115.83 18.8199ZM131.18 23.6899C131.18 22.8099 130.98 21.9899 130.6 21.2399C130.2 20.5099 129.63 19.9199 128.88 19.4699C128.13 19.0399 127.26 18.8199 126.26 18.8199C125.26 18.8199 124.39 19.0399 123.64 19.4699C122.89 19.8999 122.31 20.4899 121.91 21.2199C121.51 21.9499 121.31 22.7499 121.31 23.6399C121.31 24.5299 121.53 25.3399 121.94 26.0599C122.36 26.7899 122.97 27.3799 123.79 27.7899C124.59 28.2099 125.54 28.4199 126.66 28.4199C127.54 28.4199 128.31 28.2899 128.98 28.0199C129.65 27.7699 130.18 27.4399 130.56 27.0199L129.21 25.3399C128.79 25.6599 128.41 25.8899 128.03 26.0399C127.65 26.1899 127.2 26.2699 126.68 26.2699C125.96 26.2699 125.36 26.1199 124.88 25.8199C124.4 25.5199 124.06 25.0899 123.88 24.5399H131.09C131.14 24.2899 131.17 24.0099 131.17 23.6899H131.18ZM126.28 20.9899C126.9 20.9899 127.43 21.1399 127.85 21.4399C128.27 21.7599 128.53 22.1699 128.68 22.7199H123.86C124.01 22.1699 124.31 21.7499 124.73 21.4399C125.15 21.1399 125.66 20.9899 126.28 20.9899ZM138.18 18.9099C137.63 18.9099 137.08 19.0099 136.56 19.2299C136.03 19.4499 135.61 19.7599 135.31 20.1999V19.0499H132.93V28.2099H135.43V23.5799C135.43 22.7499 135.68 22.1499 136.16 21.7799C136.64 21.4299 137.29 21.2499 138.09 21.2499C138.41 21.2499 138.72 21.2799 139.04 21.3299V19.0099C138.76 18.9399 138.46 18.9099 138.17 18.9099H138.18Z" fill="#75192B"/>
<path d="M145.73 18.9099C145.18 18.9099 144.63 19.0099 144.11 19.2299C143.58 19.4499 143.16 19.7599 142.86 20.1999V19.0499H140.48V28.2099H142.98V23.5799C142.98 22.7499 143.23 22.1499 143.71 21.7799C144.19 21.4299 144.84 21.2499 145.64 21.2499C145.96 21.2499 146.27 21.2799 146.59 21.3299V19.0099C146.31 18.9399 146.01 18.9099 145.72 18.9099H145.73ZM155.31 19.0399L152.78 25.4199L150.16 19.0399H147.41L151.51 28.0999L151.44 28.2699C151.32 28.5499 151.14 28.7899 150.89 28.9399C150.64 29.1099 150.39 29.1899 150.11 29.1899C149.64 29.1899 149.08 29.0599 148.43 28.7899L147.78 30.8099C148.13 30.9899 148.51 31.1399 148.96 31.2299C149.39 31.3299 149.81 31.3799 150.19 31.3799C150.96 31.3799 151.64 31.1799 152.22 30.7799C152.8 30.3999 153.25 29.8299 153.57 29.0799L157.94 19.0499H155.31V19.0399Z" fill="#75192B"/>
<path d="M91.9702 158.69C92.6302 158.69 92.9301 159.42 92.9301 160.07C92.9301 161.23 91.2802 161.22 90.9202 161.22C90.9202 159.16 91.5002 158.69 91.9702 158.69ZM92.4802 163.49C91.1302 163.49 91.0301 162.12 90.9601 161.78C91.7701 161.78 94.5201 161.78 94.5201 160.06C94.5201 158.83 93.1702 158.22 92.1302 158.22C90.1702 158.22 88.9102 159.4 88.9102 161.41C88.9102 162.73 89.4802 163.3 89.6602 163.5C89.8402 163.68 90.0802 163.88 90.4102 164.05C90.7002 164.19 91.2202 164.37 91.9502 164.37C94.0302 164.37 94.5702 162.77 94.6402 162.56C94.6402 162.56 93.8302 163.49 92.4802 163.49Z" fill="#F40009"/>
<path d="M80.1601 163.91C78.9701 163.91 78.9401 161.96 78.9401 161.21C78.9401 160.75 78.9301 158.64 80.2301 158.64C81.3701 158.64 81.4301 160.45 81.4301 161.27C81.4301 162.09 81.3201 163.9 80.1601 163.9M80.3101 158.18C78.6301 158.18 76.9501 159.14 76.9501 161.28C76.9501 161.49 76.9801 161.72 77.0101 161.89C77.0301 161.99 77.0801 162.18 77.1301 162.35C76.7501 162.86 76.0101 163.59 74.9301 163.59C73.4401 163.59 72.3801 162.53 72.3801 159.99C72.3801 157.45 73.3801 156.13 74.7101 156.13C76.4201 156.13 77.1901 158.11 77.3101 158.4V156.19L76.3801 155.88C76.0701 155.78 75.7501 155.7 75.4201 155.65C75.1801 155.61 74.9201 155.59 74.6301 155.59C72.0201 155.59 70.1201 157.57 70.1201 160.14C70.1201 162.69 71.8501 164.4 74.3401 164.4C76.0701 164.4 77.0001 163.52 77.4101 163C77.7301 163.5 78.5301 164.36 80.1701 164.36C82.4401 164.36 83.5901 162.9 83.5901 161.23C83.5901 159.56 82.5101 158.19 80.3001 158.19" fill="#F40009"/>
<path d="M89.3897 158.15H88.2797L87.5297 159.02C87.5297 159.02 87.4897 159.07 87.4697 159.1C87.4097 159.17 86.5797 160.14 86.1297 160.66L85.8497 160.99V156.01H83.9697V156.94C83.9697 157.17 83.9697 164.18 83.9697 164.18H85.8497V162.26L86.2897 161.75L87.6697 164.18H89.5597L87.3597 160.49L89.3797 158.15H89.3897Z" fill="#F40009"/>
<path d="M55.5298 157.05C55.4398 157.19 55.3498 157.35 55.1798 157.68C55.0098 158.01 54.6698 158.97 54.3998 159.63C53.9198 160.79 53.1998 161.82 52.3198 162.55C51.5898 163.17 51.2198 163.43 50.6198 163.63C50.6198 163.63 50.8398 163.71 51.3498 163.74C53.2998 163.83 54.9498 162.95 55.8798 161.65C56.7398 160.44 57.3598 158.8 56.3698 157.32C55.4398 155.93 51.3598 155.37 49.1498 157.28C47.9298 158.33 48.3598 159.91 50.0798 159.24C50.3798 159.11 50.6598 158.88 50.7698 158.67C51.7598 159.03 52.9498 158.26 52.9498 158.26C52.9498 158.26 52.1098 160.15 50.0598 160.42C47.9698 160.69 47.3798 159.6 47.4098 158.83C47.6098 156.26 52.6698 154.76 55.6798 156.07C58.1498 157.14 58.6698 159.03 58.1698 160.54C57.4298 162.76 55.5298 163.71 53.7298 164.1C51.7898 164.52 50.2098 164.14 49.6898 164.01C49.4698 163.95 49.3598 163.88 49.3598 163.88C49.3598 163.88 50.0498 163.41 50.7098 162.6C51.2698 161.93 51.8498 161.1 52.2598 160.4C53.2098 158.78 54.4598 157.49 55.5398 157.04M61.8698 157.36C62.0598 157.69 61.8498 158.12 61.4798 158.34C61.0998 158.56 60.6098 158.51 60.4298 158.18C60.2498 157.86 60.4298 157.43 60.8298 157.2C61.2298 156.97 61.6898 157.04 61.8798 157.36M60.4798 162.83C60.0398 163.28 59.5898 163.68 59.0698 163.96C58.6398 164.14 58.0998 164.33 57.6798 164C57.4798 163.82 57.4598 163.5 57.5298 163.25C57.6098 162.98 57.7498 162.73 57.8798 162.48C57.8798 162.48 59.6598 159.21 59.6798 159.18C59.6998 159.14 59.7298 159.15 59.7298 159.15C60.0498 159.15 60.9998 159.15 61.0398 159.15C61.0698 159.15 61.0398 159.21 61.0498 159.19C61.0598 159.17 60.4398 160.35 60.4398 160.35C60.4398 160.35 59.0998 162.83 59.0398 162.93C58.9098 163.19 59.0298 163.38 59.4098 163.14C59.8798 162.84 60.1298 162.54 60.4198 162.16C60.7998 161.67 61.0098 161 61.6598 160.31C62.2998 159.63 62.8098 159.32 63.3498 159.13C63.9698 158.91 64.6598 159.06 64.8298 159.52C64.9798 159.91 64.7598 160.46 64.4798 160.78C63.8198 161.53 62.9298 161.95 61.9898 162.16C61.8298 162.39 61.5698 163.31 62.4098 163.29C62.8798 163.27 63.2598 163.02 63.6798 162.75C64.4098 162.23 65.0798 161.59 65.5498 160.86C65.7698 160.46 66.0198 160.05 66.2198 159.64H65.3998L65.6898 159.14H66.4998L67.3998 157.56H68.7298C68.7298 157.56 67.9698 159 67.8998 159.14C68.0898 159.14 68.9198 159.14 68.9198 159.14L68.6698 159.64H67.6298L67.4898 159.86C67.4898 159.86 66.3898 161.91 65.9998 162.6C65.6798 163.17 65.9198 163.27 66.1598 163.17C66.4798 163.04 66.8798 162.61 67.0198 162.47C67.2598 162.19 67.4998 161.91 67.6998 161.61C67.8898 161.61 68.1498 161.61 68.2198 161.61C67.5898 162.64 66.6298 163.83 65.4098 164.15C65.0798 164.2 64.6798 164.21 64.4498 163.96C64.2198 163.73 64.2398 163.33 64.3498 163.05C64.3898 162.96 64.4298 162.85 64.4598 162.82C64.4798 162.79 64.4598 162.76 64.4098 162.8C63.6598 163.5 62.7398 164.18 61.7298 164.18C61.3198 164.18 60.8398 164 60.6398 163.59C60.4298 163.19 60.4798 162.92 60.4798 162.81M62.9498 160.56C62.7298 160.81 62.4898 161.14 62.2998 161.53C62.2998 161.53 63.4098 161.25 64.0198 160.48C64.1498 160.31 64.3798 159.99 64.2298 159.8C64.1798 159.74 63.8598 159.54 62.9598 160.56" fill="#F40009"/>
<path d="M103.25 159.48V158.34H98.5498V164.24H99.8398V161.83H102.17V160.69H99.8398V159.48H103.25ZM105.74 163.09V158.34H104.45V164.24H109.06V163.09H105.74Z" fill="#F40009"/>
<path d="M114.86 164.24H116.21L113.87 158.34H112.29L109.95 164.24H111.29L111.78 162.93H114.37L114.86 164.24ZM112.2 161.81L113.08 159.47L113.96 161.81H112.21H112.2ZM120.97 158.34L119.32 162.94L117.66 158.34H116.28L118.51 164.24H120.09L122.32 158.34H120.97Z" fill="#F40009"/>
<path d="M126.04 164.34C126.65 164.34 127.19 164.21 127.67 163.95C128.15 163.7 128.52 163.34 128.79 162.87C129.06 162.4 129.19 161.88 129.19 161.29C129.19 160.7 129.06 160.18 128.79 159.71C128.52 159.24 128.14 158.88 127.67 158.62C127.19 158.37 126.65 158.23 126.04 158.23C125.43 158.23 124.89 158.36 124.42 158.62C123.94 158.88 123.57 159.24 123.3 159.71C123.03 160.18 122.89 160.7 122.89 161.29C122.89 161.88 123.03 162.4 123.3 162.87C123.57 163.34 123.94 163.7 124.42 163.95C124.9 164.21 125.44 164.34 126.04 164.34ZM126.04 163.18C125.69 163.18 125.38 163.1 125.11 162.93C124.83 162.77 124.62 162.54 124.46 162.26C124.3 161.97 124.22 161.65 124.22 161.28C124.22 160.91 124.3 160.58 124.46 160.3C124.62 160.01 124.83 159.79 125.11 159.63C125.38 159.47 125.69 159.39 126.04 159.39C126.39 159.39 126.7 159.47 126.98 159.63C127.25 159.79 127.47 160.02 127.63 160.3C127.79 160.58 127.86 160.91 127.86 161.28C127.86 161.65 127.79 161.97 127.63 162.26C127.47 162.55 127.25 162.78 126.98 162.93C126.7 163.09 126.39 163.18 126.04 163.18ZM134.71 164.24H136.19L134.58 161.87C134.95 161.75 135.24 161.53 135.45 161.21C135.65 160.91 135.76 160.55 135.76 160.15C135.76 159.81 135.69 159.51 135.54 159.23C135.38 158.95 135.17 158.73 134.89 158.57C134.6 158.41 134.28 158.33 133.9 158.33H130.61V164.23H131.88V161.97H133.22L134.71 164.23V164.24ZM131.88 159.48H133.67C133.92 159.48 134.11 159.54 134.25 159.66C134.39 159.78 134.45 159.95 134.45 160.16C134.45 160.37 134.38 160.54 134.25 160.66C134.11 160.78 133.91 160.85 133.67 160.85H131.88V159.48Z" fill="#F40009"/>
<path d="M139.69 164.32C140.17 164.32 140.61 164.24 140.98 164.08C141.35 163.92 141.63 163.69 141.83 163.41C142.03 163.12 142.13 162.79 142.13 162.41C142.13 161.99 141.98 161.62 141.7 161.32C141.41 161.02 140.97 160.81 140.39 160.71L139.23 160.5C138.91 160.44 138.7 160.37 138.59 160.28C138.48 160.19 138.42 160.09 138.42 159.98C138.42 159.81 138.53 159.66 138.76 159.55C138.98 159.44 139.25 159.38 139.59 159.38C140.21 159.38 140.79 159.59 141.3 160.01L142.04 159.07C141.74 158.79 141.37 158.59 140.95 158.46C140.53 158.33 140.09 158.26 139.63 158.26C139.15 158.26 138.71 158.33 138.33 158.48C137.94 158.63 137.64 158.84 137.43 159.11C137.21 159.39 137.1 159.72 137.1 160.09C137.1 160.5 137.24 160.84 137.51 161.11C137.78 161.39 138.18 161.58 138.73 161.68L139.98 161.92C140.28 161.98 140.5 162.06 140.62 162.16C140.74 162.26 140.81 162.38 140.81 162.52C140.81 162.71 140.7 162.87 140.49 163C140.28 163.13 140 163.2 139.65 163.2C138.89 163.2 138.22 162.95 137.68 162.46L136.89 163.43C137.19 163.72 137.59 163.94 138.09 164.09C138.59 164.25 139.13 164.34 139.71 164.34L139.69 164.32Z" fill="#F40009"/>
</svg>
