<svg width="41" height="40" viewBox="0 0 41 40" fill="none" xmlns="http://www.w3.org/2000/svg">
<g clip-path="url(#clip0_101_19536)">
<path d="M13.7557 18.712V39.4208M38.0762 39.4208H2.04541V18.712H38.0886V39.4208H38.0762ZM27.2658 3.30366C26.2919 1.72585 23.5308 0.591797 20.2765 0.591797C17.0223 0.591797 14.2611 1.73818 13.2873 3.30366H2.10704V9.78748H37.9037V3.31599H27.2658V3.30366Z" stroke="white" stroke-miterlimit="10" stroke-linecap="round"/>
<path d="M27.6724 24.8631H34.6986M31.1855 24.8631V29.7814M16.5908 24.8631H23.617M20.1039 24.8631V29.7814M39.543 15.1743H0.997559M39.543 15.1743V18.7121H0.997559V15.1743L1.99602 9.7876H38.0515L39.5553 15.1743H39.543Z" stroke="#F40009" stroke-miterlimit="10" stroke-linecap="round"/>
<path d="M13.7554 29.7812H38.0882M8.13448 21.1033C6.65528 21.1033 5.45959 22.299 5.45959 23.7782V26.7242C5.45959 26.8968 5.60751 27.0447 5.78009 27.0447H10.5012C10.6738 27.0447 10.8217 26.8968 10.8217 26.7242V23.7782C10.8217 22.299 9.626 21.1033 8.1468 21.1033H8.13448ZM10.4889 30.6194H5.76776C5.59519 30.6194 5.44727 30.7674 5.44727 30.9399V35.0694C5.44727 35.2419 5.59519 35.3899 5.76776 35.3899H10.4889C10.6614 35.3899 10.8094 35.2419 10.8094 35.0694V30.9399C10.8094 30.7674 10.6614 30.6194 10.4889 30.6194Z" stroke="white" stroke-miterlimit="10" stroke-linecap="round"/>
</g>
<defs>
<clipPath id="clip0_101_19536">
<rect width="39.7165" height="40" fill="white" transform="translate(0.417969)"/>
</clipPath>
</defs>
</svg>
