<svg width="52" height="40" viewBox="0 0 52 40" fill="none" xmlns="http://www.w3.org/2000/svg">
<g clip-path="url(#clip0_101_19440)">
<path fill-rule="evenodd" clip-rule="evenodd" d="M10.2085 17.9374C10.2085 13.7581 13.5951 10.3716 17.7743 10.3716C21.9536 10.3716 25.3402 13.7581 25.3402 17.9374C25.3402 18.0378 25.3382 18.1377 25.3344 18.2371C25.6715 18.1311 26.0071 18.0446 26.3401 17.9768C26.3402 17.9637 26.3402 17.9506 26.3402 17.9374C26.3402 13.2059 22.5059 9.37158 17.7743 9.37158C13.0428 9.37158 9.2085 13.2059 9.2085 17.9374C9.2085 22.669 13.0428 26.5033 17.7743 26.5033C18.3384 26.5033 18.8897 26.4488 19.4233 26.3448C19.4066 26.0006 19.4124 25.6582 19.4398 25.3195C18.9039 25.4398 18.3466 25.5033 17.7743 25.5033C13.5951 25.5033 10.2085 22.1167 10.2085 17.9374Z" fill="#F8991D"/>
<path d="M50.5124 29.4871C51.0501 32.5269 49.9967 35.3581 48.0543 37.2896C47.0337 38.2992 44.9816 39.0893 43.544 39.0893H14.9788C11.8732 39.0893 9.26139 36.4446 9.61256 33.3609C9.61256 33.328 9.61256 33.2841 9.62353 33.2511C10.0515 29.8602 12.8279 27.0728 16.2079 26.6119C17.3711 26.4583 18.4795 26.557 19.4672 26.8533C19.4672 26.8314 19.4672 26.7985 19.4562 26.7765C19.116 23.4843 20.8608 20.28 23.8458 18.8314C29.5632 16.055 35.1709 19.1606 36.6084 24.0769C38.3533 22.7491 40.592 22.0797 42.9953 22.376C46.7264 22.8369 49.854 25.7889 50.5124 29.4871V29.4871Z" stroke="#69C9CE" stroke-linecap="round" stroke-linejoin="round"/>
<path d="M1.12964 17.7888H6.00207M4.27916 29.7614L7.72497 26.3155M4.27916 5.8272L7.72497 9.27302M29.5851 5.8272L26.1392 9.27302M17.1845 0.899902V5.77233" stroke="#F8991D" stroke-linecap="round" stroke-linejoin="round"/>
</g>
<defs>
<clipPath id="clip0_101_19440">
<rect width="51.3251" height="40" fill="white" transform="translate(0.229736)"/>
</clipPath>
</defs>
</svg>
