<svg width="191" height="190" viewBox="0 0 191 190" fill="none" xmlns="http://www.w3.org/2000/svg">
<path d="M190.479 0H0.55957V189.92H190.479V0Z" fill="#F18A00"/>
<path d="M190.479 0H0.55957V75.97H190.479V0Z" fill="#CDA075"/>
<path d="M35.1796 127.37L41.1495 121.01V118.73H31.7896V121.18H37.4995L31.4995 127.57V129.82H41.3795V127.37H35.1796ZM54.1995 127.37H47.6895V125.4H52.0795V122.92H47.6895V121.18H54.0496L54.3695 118.73H44.8595V129.82H54.5295L54.2095 127.37H54.1995ZM65.3495 129.82H68.5995L65.5795 125.49C66.2595 125.23 66.7796 124.81 67.1696 124.23C67.5396 123.66 67.7195 123 67.7195 122.26C67.7195 121.61 67.5796 121.03 67.2896 120.49C66.9995 119.95 66.5695 119.54 65.9995 119.21C65.4295 118.89 64.7695 118.73 63.9995 118.73H57.6895V129.82H60.4895V125.77H62.6595L65.3495 129.82ZM60.4795 121.2H63.6195C63.9895 121.2 64.2795 121.29 64.5095 121.49C64.7295 121.69 64.8295 121.94 64.8295 122.26C64.8295 122.58 64.7195 122.85 64.5095 123.05C64.2795 123.25 63.9895 123.34 63.6195 123.34H60.4795V121.2Z" fill="black"/>
<path d="M76.7194 130.01C75.5494 130.01 74.4993 129.76 73.5793 129.27C72.6593 128.79 71.9294 128.12 71.4194 127.24C70.8994 126.36 70.6294 125.38 70.6294 124.27C70.6294 123.16 70.8894 122.18 71.4194 121.3C71.9294 120.42 72.6493 119.75 73.5793 119.25C74.4993 118.77 75.5494 118.53 76.7194 118.53C77.8894 118.53 78.9394 118.78 79.8594 119.25C80.7794 119.74 81.5094 120.42 82.0294 121.3C82.5394 122.18 82.7994 123.16 82.7994 124.27C82.7994 125.38 82.5394 126.36 82.0294 127.24C81.5094 128.12 80.7794 128.79 79.8594 129.27C78.9394 129.76 77.8894 130.01 76.7194 130.01ZM76.7194 121.11C76.1194 121.11 75.5794 121.25 75.0994 121.51C74.6194 121.77 74.2494 122.14 73.9894 122.62C73.7294 123.1 73.5894 123.65 73.5894 124.27C73.5894 124.89 73.7294 125.42 73.9894 125.9C74.2494 126.38 74.6194 126.76 75.0994 127.02C75.5794 127.28 76.1194 127.42 76.7194 127.42C77.3194 127.42 77.8594 127.28 78.3394 127.02C78.8194 126.76 79.1893 126.37 79.4493 125.9C79.7093 125.42 79.8494 124.88 79.8494 124.27C79.8494 123.66 79.7093 123.1 79.4493 122.62C79.1893 122.14 78.8194 121.77 78.3394 121.51C77.8594 121.25 77.3194 121.11 76.7194 121.11ZM96.7194 129.96C97.7494 129.96 98.6294 129.81 99.3794 129.5C100.119 129.19 100.689 128.76 101.089 128.19C101.469 127.64 101.679 126.99 101.679 126.23C101.679 125.38 101.419 124.69 100.879 124.12C100.339 123.55 99.5094 123.18 98.3894 123.01L95.7094 122.58C95.0794 122.47 94.7594 122.24 94.7594 121.86C94.7594 121.63 94.9394 121.41 95.3094 121.24C95.6594 121.07 96.1594 120.99 96.7594 120.99C97.3594 120.99 97.8994 121.08 98.4194 121.28C98.9294 121.48 99.4393 121.77 99.9393 122.16L101.539 120.11C100.939 119.57 100.219 119.17 99.3494 118.91C98.4894 118.65 97.5893 118.53 96.6893 118.53C95.6593 118.53 94.7694 118.67 94.0394 118.96C93.2994 119.25 92.7494 119.65 92.3594 120.18C91.9794 120.72 91.7894 121.33 91.7894 122.04C91.7894 123.81 92.9394 124.89 95.2394 125.26L97.6094 125.63C98.3294 125.74 98.6893 126.01 98.6893 126.46C98.6893 126.75 98.5194 126.98 98.1794 127.18C97.8294 127.38 97.3494 127.49 96.7294 127.49C95.2994 127.49 94.0794 127.03 93.0494 126.12L91.3594 128.2C91.9294 128.74 92.6994 129.17 93.6694 129.48C94.6194 129.8 95.6394 129.96 96.7194 129.96ZM109.959 130.01C111.019 130.01 111.949 129.83 112.729 129.46C113.519 129.09 114.119 128.57 114.529 127.87C114.949 127.18 115.149 126.36 115.149 125.42V118.72H112.299V125.12C112.299 125.87 112.099 126.44 111.709 126.83C111.329 127.21 110.739 127.42 109.949 127.42C109.159 127.42 108.599 127.22 108.209 126.83C107.809 126.45 107.609 125.88 107.609 125.12V118.72H104.759V125.42C104.759 126.36 104.979 127.18 105.389 127.87C105.799 128.56 106.409 129.09 107.189 129.46C107.979 129.83 108.879 130.01 109.949 130.01H109.959ZM129.729 123.14H124.079V125.6H126.939V127.16C126.349 127.38 125.719 127.48 125.029 127.48C124.339 127.48 123.639 127.34 123.069 127.06C122.499 126.8 122.049 126.41 121.729 125.92C121.409 125.43 121.249 124.87 121.249 124.26C121.249 123.65 121.399 123.09 121.709 122.6C122.019 122.12 122.429 121.74 122.969 121.46C123.489 121.18 124.059 121.04 124.689 121.04C125.889 121.04 126.969 121.42 127.919 122.18L129.509 120.15C128.939 119.63 128.249 119.23 127.429 118.93C126.599 118.65 125.669 118.51 124.669 118.51C123.449 118.51 122.379 118.76 121.409 119.25C120.439 119.74 119.669 120.42 119.119 121.3C118.569 122.18 118.289 123.18 118.289 124.3C118.289 125.42 118.569 126.38 119.139 127.24C119.709 128.1 120.489 128.78 121.509 129.26C122.509 129.75 123.669 130 124.959 130C125.979 130 126.899 129.88 127.729 129.63C128.549 129.4 129.209 129.09 129.719 128.71V123.14H129.729ZM141.529 129.81H144.489L140.129 118.72H136.619L132.279 129.81H135.209L136.039 127.56H140.709L141.539 129.81H141.529ZM136.909 125.18L138.359 121.24L139.819 125.18H136.909ZM154.959 129.81H158.209L155.189 125.48C155.869 125.22 156.389 124.8 156.779 124.22C157.149 123.65 157.329 122.99 157.329 122.25C157.329 121.6 157.189 121.02 156.899 120.48C156.609 119.94 156.179 119.53 155.609 119.2C155.039 118.88 154.379 118.72 153.609 118.72H147.299V129.81H150.099V125.76H152.269L154.959 129.81ZM150.089 121.19H153.229C153.599 121.19 153.889 121.28 154.119 121.48C154.339 121.68 154.439 121.93 154.439 122.25C154.439 122.57 154.329 122.84 154.119 123.04C153.889 123.24 153.599 123.33 153.229 123.33H150.089V121.19Z" fill="black"/>
<path d="M102.529 64.9199H97.3394L94.4194 69.6599H99.5994L102.529 64.9199Z" fill="black"/>
<path d="M133.549 55.37C133.549 55.37 130.309 56.66 126.549 60.81C122.769 64.98 120.599 69.63 122.219 70.87C122.839 71.34 124.279 71.42 126.889 69.07C128.929 67.24 130.999 64.84 132.399 61.41C134.089 57.3 133.549 55.42 133.549 55.37ZM154.159 62.83C149.979 60.69 146.919 58.07 143.739 56.43C140.699 54.87 138.739 54.22 136.289 54.55C135.879 54.6 135.269 54.8 135.269 54.8C135.269 54.8 136.539 59.11 131.519 66.37C126.429 73.72 121.799 73.68 120.489 71.65C119.109 69.52 120.889 65.17 123.849 61.31C126.959 57.27 132.409 53.91 132.409 53.91C132.409 53.91 130.669 52.85 126.399 55.27C122.239 57.63 115.049 63.25 108.409 72.72C101.759 82.19 100.439 87.4 99.4794 91.51C98.5194 95.61 99.3994 100 103.949 100C108.499 100 113.789 93.06 115.279 90.64C118.049 86.15 119.859 79.25 116.089 80.2C114.219 80.67 112.719 82.73 111.769 84.72C110.789 86.76 110.399 88.71 110.399 88.71C110.399 88.71 108.829 89.27 106.719 90.85C104.599 92.43 103.219 93.94 103.219 93.94C103.219 93.94 103.229 90.66 105.849 85.36C108.459 80.05 113.259 77.62 115.969 77.4C118.419 77.2 121.609 79.28 118.909 86.95C116.219 94.62 108.259 103.93 99.8894 104.06C92.1594 104.17 87.0994 94.31 97.8494 77.11C109.729 58.08 123.689 52.24 128.219 51.59C132.749 50.94 134.219 52.94 134.219 52.94C134.219 52.94 138.019 51.18 142.839 51.51C148.369 51.89 152.659 55.8 158.299 58.55C156.819 59.98 155.419 61.45 154.159 62.83ZM179.009 56.41C175.179 58.87 169.869 61.11 164.779 60.61C163.489 61.95 162.109 63.49 160.719 65.18C169.569 66.92 177.299 61.45 181.419 56.78C183.989 53.87 185.259 51.27 185.259 51.27C185.259 51.27 182.809 53.97 179.009 56.42M167.259 81.34C167.369 81.15 167.419 80.97 167.419 80.97C167.419 80.97 167.319 80.23 166.609 80.19C165.769 80.15 164.619 80.31 161.609 83.65C158.609 86.97 156.789 89.86 155.209 92.74C153.489 95.9 152.789 98.24 153.779 98.84C154.059 99.01 154.479 99.03 154.819 98.95C155.499 98.79 156.259 98.16 157.419 96.82C157.959 96.19 158.559 95.3 159.279 94.31C161.259 91.6 166.259 83.05 167.259 81.33M135.959 84.98C136.469 83.66 137.099 81.08 135.769 80.07C134.339 78.99 130.699 81.52 130.679 84.1C130.659 86.75 133.249 87.95 133.869 88.12C134.219 88.22 134.349 88.2 134.519 87.92C134.629 87.73 135.459 86.29 135.959 84.98ZM133.209 89.8C133.119 89.77 131.939 89.23 130.709 88.2C129.489 87.18 128.869 86.01 128.819 85.92C128.769 85.83 128.719 85.9 128.659 85.97C128.609 86.05 128.389 86.24 126.439 89.1C124.489 91.96 121.519 97.85 124.219 98.85C125.949 99.49 128.829 96.46 130.399 94.45C131.859 92.58 133.229 90.21 133.299 90.04C133.379 89.87 133.309 89.83 133.209 89.79M163.849 96.59C163.119 97.77 162.289 100.01 164.709 98.61C167.659 96.9 171.859 90.53 171.859 90.53H173.759C173.759 90.53 171.259 94.49 167.989 98.11C164.999 101.42 161.349 104.43 158.779 104.14C155.779 103.79 156.719 99.85 156.719 99.85C156.719 99.85 152.409 104.42 149.449 104.1C145.449 103.66 146.659 98.7 146.659 98.7C146.659 98.7 142.129 104.28 139.039 104.1C134.189 103.82 135.409 97.91 136.759 93.77C137.479 91.55 138.149 89.8 138.149 89.8C138.149 89.8 137.659 89.93 136.629 90.08C136.099 90.16 135.109 90.21 135.109 90.21C135.109 90.21 133.099 93.77 131.479 95.92C129.869 98.06 123.009 105.44 118.969 103.96C115.239 102.6 116.469 96.88 118.639 92.34C121.809 85.72 130.729 76.2 135.869 77.44C141.199 78.73 135.999 88.47 135.999 88.47C135.999 88.47 135.999 88.51 136.059 88.53C136.159 88.57 136.439 88.6 137.079 88.48C138.109 88.28 139.029 87.9 139.029 87.9C139.029 87.9 144.389 76.67 150.309 69.32C156.229 61.97 168.039 49.32 172.689 52.38C173.819 53.13 173.299 55.72 171.779 58.87C171.099 59.08 170.399 59.27 169.689 59.42C170.709 57.57 171.379 56 171.579 54.91C172.279 51.11 163.419 59.12 157.089 67.73C150.759 76.34 146.959 84.14 146.959 84.14C146.959 84.14 148.239 83.42 150.229 81.81C152.309 80.13 155.169 77.51 158.269 74.3C160.359 72.14 162.819 69.43 165.109 66.4C165.799 66.37 166.469 66.3 167.129 66.19C164.569 69.64 161.869 72.8 159.579 75.12C157.059 77.67 154.319 80.43 151.939 82.43C148.169 85.61 145.249 87.41 145.249 87.41C145.249 87.41 139.699 98.57 142.719 99.29C144.489 99.71 147.979 94.32 147.979 94.32C147.979 94.32 152.539 87.35 155.289 84.22C159.039 79.95 162.269 77.48 165.499 77.43C167.379 77.4 168.489 79.4 168.489 79.4L169.379 78.03H174.829C174.829 78.03 164.659 95.3 163.849 96.59ZM179.009 56.41C175.179 58.87 169.869 61.11 164.779 60.61C163.489 61.95 162.109 63.49 160.719 65.18C169.569 66.92 177.299 61.45 181.419 56.78C183.989 53.87 185.259 51.27 185.259 51.27C185.259 51.27 182.809 53.97 179.009 56.42M77.9994 81.33C80.2094 78.31 86.2794 67.72 86.2794 67.72C86.2794 67.72 86.1794 66.98 85.4694 66.94C84.6294 66.9 83.2394 67.18 80.4394 70.67C77.6494 74.16 75.4995 76.95 73.9195 79.83C72.1895 82.98 71.4395 85.21 72.4295 85.81C72.7095 85.98 73.1294 86 73.4694 85.92C74.1194 85.76 74.9594 85.11 76.1194 83.77C76.6694 83.14 77.2794 82.31 77.9994 81.32M50.1994 67.02C48.7694 65.94 45.1194 68.47 45.0994 71.06C45.0794 73.71 48.3994 74.47 48.8194 74.49C48.8194 74.49 49.1994 74.59 49.3394 74.28C49.4394 74.08 49.8894 73.25 50.3894 71.94C50.8894 70.62 51.5294 68.04 50.1994 67.03M48.0395 76.16C47.9395 76.13 46.5694 75.73 45.2294 74.87C43.8894 74.01 43.2694 72.74 43.2194 72.65C43.1694 72.56 43.1194 72.63 43.0694 72.7C43.0094 72.77 42.7194 73.14 40.7794 76C38.8294 78.86 35.9494 84.71 38.6494 85.71C40.3794 86.35 43.2894 83.31 44.8594 81.3C46.3194 79.43 48.0494 76.56 48.1294 76.39C48.1994 76.22 48.1295 76.18 48.0395 76.15M90.3694 77.89H92.2694C92.2694 77.89 82.7594 91.64 77.3894 91.02C74.3894 90.67 75.2794 86.97 75.2794 86.97C75.2794 86.97 71.0494 91.91 67.1994 90.92C63.6894 90.02 65.9494 84.18 65.9494 84.18C65.5494 84.34 57.9594 92.91 52.6294 90.86C47.0394 88.71 49.9394 81.54 50.9994 79.38C51.8994 77.56 52.8894 75.79 52.8894 75.79C52.8894 75.79 52.0294 76.03 51.4994 76.16C50.9694 76.28 50.1595 76.44 50.1595 76.44C50.1595 76.44 47.5195 80.73 45.9095 82.88C44.2994 85.02 37.4394 92.39 33.3894 90.92C29.3494 89.45 30.3494 83.8 32.6194 79.3C36.2994 72.01 45.0395 63.06 50.2995 64.4C55.6095 65.76 51.2194 74.38 51.2194 74.38C51.2194 74.38 52.2795 74.52 54.8095 72.79C58.4595 70.3 63.2694 63.6 68.4894 64.38C70.9394 64.75 73.2194 67.26 70.0994 72.04C69.0994 73.57 67.4294 74.94 66.1394 73.59C65.3394 72.75 66.0394 71.21 66.8794 70.16C68.0594 68.67 69.6894 68.87 69.6894 68.87C69.6894 68.87 70.5494 66.89 68.3694 66.93C66.5894 66.96 62.0994 71.1 59.5694 75.28C57.2394 79.12 53.7194 85.66 57.2594 87.08C60.5094 88.39 66.6694 81.06 69.5294 77.22C72.3894 73.38 78.8894 64.67 84.3494 64.32C86.2294 64.2 87.3494 65.91 87.3494 65.91L87.9794 64.91H93.4394C93.4394 64.91 83.1594 82.08 82.3494 83.39C81.7194 84.41 80.8794 86.7 83.2094 85.41C85.5294 84.12 90.3694 77.9 90.3694 77.9M87.4095 105.42C83.2795 102.52 78.2495 101.24 73.6795 101.42C69.0595 101.6 66.9794 105.06 66.9794 105.06C64.8894 101.42 60.7694 99.19 54.3994 99.25C44.1194 99.37 33.8994 104.12 25.8194 104.12C17.7394 104.12 12.4094 99.25 12.5894 90.59C12.9194 75.41 25.7394 61.74 35.3194 55.58C40.8294 52.04 45.4494 50.99 48.4694 51.33C50.6694 51.57 53.3194 54.12 51.6494 57.86C49.1994 63.35 45.8095 62.89 45.9295 60.27C45.9995 58.57 47.1294 57.49 47.9794 56.91C48.5294 56.53 49.4794 56.43 49.9794 56.42C50.4594 56.01 50.8394 53.01 46.8894 54C42.9394 54.99 38.1895 58.87 33.6595 63.86C29.1295 68.86 22.0794 78.33 20.3394 88.27C19.5294 92.88 20.0794 101.28 30.9894 101.18C40.2494 101.1 53.9094 95 66.4594 95.11C71.3294 95.15 75.5694 96.46 78.8794 98.5C82.1294 100.51 86.0295 103.43 87.4095 105.42Z" fill="black"/>
<path d="M174.469 97.9099C173.749 97.9099 173.109 98.0699 172.519 98.3999C171.929 98.7399 171.469 99.1899 171.129 99.7599C170.789 100.33 170.629 100.96 170.629 101.62C170.629 102.28 170.789 102.93 171.129 103.48C171.469 104.05 171.929 104.5 172.519 104.83C173.109 105.17 173.749 105.33 174.469 105.33C175.189 105.33 175.839 105.17 176.429 104.83C177.019 104.5 177.459 104.05 177.799 103.48C178.139 102.92 178.299 102.3 178.299 101.62C178.299 100.94 178.139 100.33 177.799 99.7599C177.459 99.1899 177.009 98.7399 176.429 98.3999C175.839 98.0699 175.189 97.9099 174.469 97.9099ZM174.469 104.62C173.879 104.62 173.349 104.48 172.899 104.23C172.439 103.97 172.079 103.62 171.819 103.17C171.559 102.72 171.439 102.2 171.439 101.63C171.439 101.06 171.559 100.55 171.819 100.11C172.079 99.6599 172.429 99.2899 172.899 99.0299C173.359 98.7699 173.879 98.6499 174.469 98.6499C175.059 98.6499 175.569 98.7699 176.039 99.0299C176.499 99.2899 176.859 99.6599 177.119 100.11C177.379 100.56 177.499 101.08 177.499 101.63C177.499 102.18 177.379 102.72 177.119 103.17C176.859 103.62 176.509 103.97 176.059 104.23C175.599 104.49 175.069 104.62 174.479 104.62H174.469ZM176.079 100.97C176.079 100.67 175.979 100.41 175.789 100.21C175.589 100.01 175.329 99.9099 174.999 99.9099H173.049V103.27H173.909V102.04H174.559L175.349 103.27H176.329L175.449 101.96C175.649 101.86 175.799 101.73 175.909 101.55C176.019 101.37 176.069 101.18 176.069 100.96L176.079 100.97ZM173.919 100.64H174.849C174.959 100.64 175.039 100.67 175.109 100.72C175.179 100.79 175.209 100.87 175.209 100.96C175.209 101.05 175.179 101.14 175.109 101.19C175.039 101.26 174.959 101.29 174.849 101.29H173.919V100.64Z" fill="black"/>
<path d="M35.8793 28.43C37.1093 28.43 38.2092 28.16 39.1992 27.63C40.1692 27.11 40.9292 26.38 41.4792 25.43C42.0292 24.48 42.2993 23.41 42.2993 22.21C42.2993 21.01 42.0292 19.94 41.4792 18.99C40.9292 18.04 40.1592 17.31 39.1992 16.77C38.2192 16.25 37.1193 15.99 35.8793 15.99C34.6393 15.99 33.5492 16.26 32.5792 16.77C31.5992 17.3 30.8493 18.04 30.2993 18.99C29.7493 19.94 29.4692 21.01 29.4692 22.21C29.4692 23.41 29.7493 24.48 30.2993 25.43C30.8493 26.38 31.5992 27.11 32.5792 27.63C33.5492 28.16 34.6493 28.43 35.8793 28.43ZM35.8793 26.06C35.1593 26.06 34.5292 25.89 33.9792 25.56C33.4092 25.24 32.9793 24.78 32.6593 24.19C32.3393 23.6 32.1793 22.96 32.1793 22.21C32.1793 21.46 32.3493 20.79 32.6593 20.21C32.9693 19.63 33.4092 19.18 33.9792 18.84C34.5292 18.52 35.1593 18.36 35.8793 18.36C36.5993 18.36 37.2293 18.53 37.7993 18.84C38.3493 19.17 38.7993 19.62 39.1193 20.21C39.4393 20.79 39.5892 21.46 39.5892 22.21C39.5892 22.96 39.4393 23.61 39.1193 24.19C38.7993 24.77 38.3493 25.24 37.7993 25.56C37.2293 25.89 36.5993 26.06 35.8793 26.06ZM49.5792 18.91C49.0292 18.91 48.4792 19.01 47.9592 19.23C47.4292 19.45 47.0092 19.76 46.7092 20.2V19.05H44.3292V28.21H46.8292V23.58C46.8292 22.75 47.0793 22.15 47.5593 21.78C48.0393 21.43 48.6893 21.25 49.4893 21.25C49.8093 21.25 50.1192 21.28 50.4392 21.33V19.01C50.1592 18.94 49.8592 18.91 49.5692 18.91H49.5792ZM61.0792 26.22C60.8792 26.22 60.7092 26.17 60.5992 26.05C60.4692 25.95 60.3993 25.78 60.3993 25.57V22.57C60.3993 21.39 60.0193 20.47 59.2493 19.8C58.4793 19.15 57.4193 18.82 56.0293 18.82C55.3093 18.82 54.5793 18.92 53.8593 19.1C53.1393 19.3 52.4892 19.6 51.9392 20.02L53.1593 21.87C53.6093 21.55 54.0793 21.34 54.5593 21.19C55.0393 21.06 55.4893 20.99 55.9093 20.99C56.5293 20.99 57.0093 21.12 57.3793 21.39C57.7293 21.67 57.9292 22.04 57.9792 22.52H56.1493C54.5293 22.52 53.3193 22.79 52.5193 23.3C51.6993 23.83 51.2993 24.57 51.2993 25.5C51.2993 26.13 51.4692 26.67 51.8192 27.1C52.1492 27.53 52.5993 27.85 53.1693 28.07C53.7393 28.29 54.3493 28.4 55.0393 28.4C55.7293 28.4 56.3193 28.28 56.8693 28.07C57.4193 27.85 57.8893 27.52 58.2493 27.04C58.4293 27.46 58.7293 27.76 59.1493 27.96C59.5693 28.18 60.0492 28.28 60.5792 28.28C60.9292 28.28 61.2292 28.23 61.4592 28.11V26.18C61.3292 26.21 61.1892 26.23 61.0792 26.23V26.22ZM55.2993 26.44C54.8193 26.44 54.4293 26.34 54.1793 26.14C53.9293 25.96 53.7993 25.69 53.7993 25.37C53.7993 25.05 53.9692 24.8 54.3192 24.6C54.6492 24.4 55.2892 24.3 56.2192 24.3H57.9893C57.9093 25.02 57.6092 25.55 57.0892 25.9C56.5692 26.25 55.9693 26.43 55.3093 26.43L55.2993 26.44ZM68.2192 18.83C67.6692 18.83 67.1493 18.91 66.6693 19.08C66.1693 19.26 65.7393 19.53 65.3893 19.91V19.04H63.0093V28.2H65.5093V22.95C65.5093 22.4 65.7093 21.95 66.1093 21.63C66.4893 21.31 67.0093 21.15 67.6393 21.15C68.2393 21.15 68.7093 21.3 69.0193 21.6C69.3393 21.92 69.4993 22.35 69.4993 22.92V28.2H71.9993V22.38C71.9993 21.68 71.8293 21.06 71.5193 20.51C71.2093 19.96 70.7492 19.54 70.1892 19.24C69.6092 18.96 68.9592 18.81 68.2192 18.81V18.83ZM81.1892 19.05V19.97C80.4892 19.22 79.5392 18.84 78.3392 18.84C77.4392 18.84 76.6392 19.04 75.9392 19.44C75.2192 19.84 74.6693 20.37 74.2893 21.06C73.8893 21.74 73.6892 22.51 73.6892 23.33C73.6892 24.15 73.8893 24.91 74.2893 25.58C74.6693 26.26 75.2192 26.78 75.9392 27.16C76.6392 27.54 77.4393 27.74 78.3593 27.74C79.4893 27.74 80.4093 27.41 81.1093 26.74V27.24C81.1093 27.86 80.8593 28.36 80.3793 28.71C79.8993 29.06 79.2093 29.24 78.3593 29.24C77.4093 29.24 76.3793 28.99 75.2793 28.51L74.4492 30.56C74.9992 30.81 75.6193 31.01 76.2993 31.16C76.9793 31.31 77.6793 31.39 78.3993 31.39C79.4293 31.39 80.3493 31.22 81.1293 30.89C81.9093 30.56 82.5092 30.07 82.9492 29.46C83.3692 28.84 83.5792 28.13 83.5792 27.29V19.06H81.1992L81.1892 19.05ZM78.6693 25.6C77.9493 25.6 77.3693 25.38 76.8993 24.97C76.4293 24.56 76.1992 24 76.1992 23.32C76.1992 22.64 76.4293 22.09 76.8993 21.67C77.3693 21.25 77.9493 21.04 78.6693 21.04C79.3893 21.04 79.9692 21.26 80.4392 21.67C80.9092 22.08 81.1393 22.64 81.1393 23.32C81.1393 24 80.9092 24.55 80.4592 24.97C79.9892 25.39 79.3893 25.6 78.6793 25.6H78.6693ZM95.1992 23.7C95.1992 22.82 94.9993 22 94.6193 21.25C94.2193 20.52 93.6493 19.93 92.8993 19.48C92.1493 19.05 91.2793 18.83 90.2793 18.83C89.2793 18.83 88.4093 19.05 87.6593 19.48C86.9093 19.91 86.3293 20.5 85.9293 21.23C85.5293 21.96 85.3292 22.76 85.3292 23.65C85.3292 24.54 85.5492 25.35 85.9592 26.07C86.3792 26.8 86.9893 27.39 87.8093 27.8C88.6093 28.22 89.5593 28.43 90.6793 28.43C91.5593 28.43 92.3293 28.3 92.9993 28.03C93.6693 27.78 94.1992 27.45 94.5792 27.03L93.2292 25.35C92.8092 25.67 92.4293 25.9 92.0493 26.05C91.6693 26.2 91.2192 26.28 90.6992 26.28C89.9792 26.28 89.3793 26.13 88.8993 25.83C88.4193 25.53 88.0793 25.1 87.8993 24.55H95.1093C95.1593 24.3 95.1892 24.02 95.1892 23.7H95.1992ZM90.2993 21C90.9193 21 91.4493 21.15 91.8693 21.45C92.2893 21.77 92.5492 22.18 92.6992 22.73H87.8793C88.0293 22.18 88.3293 21.76 88.7493 21.45C89.1693 21.15 89.6793 21 90.2993 21ZM110.519 16.22L107.169 25.57L103.799 16.22H100.979L105.509 28.22H108.729L113.259 16.22H110.509H110.519Z" fill="black"/>
<path d="M122.789 26.2301C122.589 26.2301 122.419 26.1801 122.309 26.0601C122.179 25.9601 122.109 25.7901 122.109 25.5801V22.5801C122.109 21.4001 121.729 20.4801 120.959 19.8101C120.189 19.1601 119.129 18.8301 117.739 18.8301C117.019 18.8301 116.289 18.9301 115.569 19.1101C114.849 19.3101 114.199 19.6101 113.649 20.0301L114.869 21.8801C115.319 21.5601 115.789 21.3501 116.269 21.2001C116.749 21.0701 117.199 21.0001 117.619 21.0001C118.239 21.0001 118.719 21.1301 119.089 21.4001C119.439 21.6801 119.639 22.0501 119.689 22.5301H117.859C116.239 22.5301 115.029 22.8001 114.229 23.3101C113.409 23.8401 113.009 24.5801 113.009 25.5101C113.009 26.1401 113.179 26.6801 113.529 27.1101C113.859 27.5401 114.309 27.8601 114.879 28.0801C115.449 28.3001 116.059 28.4101 116.749 28.4101C117.439 28.4101 118.029 28.2901 118.579 28.0801C119.129 27.8601 119.599 27.5301 119.959 27.0501C120.139 27.4701 120.439 27.7701 120.859 27.9701C121.279 28.1901 121.759 28.2901 122.289 28.2901C122.639 28.2901 122.939 28.2401 123.169 28.1201V26.1901C123.039 26.2201 122.899 26.2401 122.789 26.2401V26.2301ZM117.009 26.4501C116.529 26.4501 116.139 26.3501 115.889 26.1501C115.639 25.9701 115.509 25.7001 115.509 25.3801C115.509 25.0601 115.679 24.8101 116.029 24.6101C116.359 24.4101 116.999 24.3101 117.929 24.3101H119.699C119.619 25.0301 119.319 25.5601 118.799 25.9101C118.279 26.2601 117.679 26.4401 117.019 26.4401L117.009 26.4501ZM129.939 18.8401C129.389 18.8401 128.869 18.9201 128.389 19.0901C127.889 19.2701 127.459 19.5401 127.109 19.9201V19.0501H124.729V28.2101H127.229V22.9601C127.229 22.4101 127.429 21.9601 127.829 21.6401C128.209 21.3201 128.729 21.1601 129.359 21.1601C129.959 21.1601 130.429 21.3101 130.739 21.6101C131.059 21.9301 131.219 22.3601 131.219 22.9301V28.2101H133.719V22.3901C133.719 21.6901 133.549 21.0701 133.239 20.5201C132.929 19.9701 132.469 19.5501 131.909 19.2501C131.329 18.9701 130.679 18.8201 129.939 18.8201V18.8401Z" fill="black"/>
<path d="M136 28.21H138.5V19.05H136V28.21ZM137.25 18.13C137.67 18.13 138.029 18 138.319 17.73C138.599 17.46 138.74 17.13 138.74 16.71C138.74 16.29 138.609 15.96 138.319 15.69C138.039 15.42 137.67 15.29 137.25 15.29C136.83 15.29 136.479 15.42 136.199 15.69C135.919 15.96 135.77 16.29 135.77 16.71C135.77 17.13 135.919 17.46 136.199 17.73C136.479 18 136.83 18.13 137.25 18.13ZM140.92 15.68V25.89C140.92 26.64 141.17 27.24 141.65 27.67C142.13 28.12 142.769 28.34 143.569 28.34C144.139 28.34 144.599 28.26 144.949 28.11V25.94C144.699 26.04 144.449 26.09 144.199 26.09C143.679 26.09 143.42 25.84 143.42 25.36V15.68H140.92Z" fill="black"/>
<path d="M146.459 15.6799V25.8899C146.459 26.6399 146.709 27.2399 147.189 27.6699C147.669 28.1199 148.309 28.3399 149.109 28.3399C149.679 28.3399 150.14 28.2599 150.49 28.1099V25.9399C150.24 26.0399 149.99 26.0899 149.74 26.0899C149.22 26.0899 148.959 25.8399 148.959 25.3599V15.6799H146.459ZM161.29 26.2299C161.09 26.2299 160.92 26.1799 160.81 26.0599C160.68 25.9599 160.609 25.7899 160.609 25.5799V22.5799C160.609 21.3999 160.229 20.4799 159.459 19.8099C158.689 19.1599 157.63 18.8299 156.24 18.8299C155.52 18.8299 154.789 18.9299 154.069 19.1099C153.349 19.3099 152.7 19.6099 152.15 20.0299L153.37 21.8799C153.82 21.5599 154.29 21.3499 154.77 21.1999C155.25 21.0699 155.7 20.9999 156.12 20.9999C156.74 20.9999 157.219 21.1299 157.589 21.3999C157.939 21.6799 158.139 22.0499 158.189 22.5299H156.359C154.739 22.5299 153.529 22.7999 152.729 23.3099C151.909 23.8399 151.51 24.5799 151.51 25.5099C151.51 26.1399 151.68 26.6799 152.03 27.1099C152.36 27.5399 152.81 27.8599 153.38 28.0799C153.95 28.2999 154.56 28.4099 155.25 28.4099C155.94 28.4099 156.529 28.2899 157.079 28.0799C157.629 27.8599 158.099 27.5299 158.459 27.0499C158.639 27.4699 158.939 27.7699 159.359 27.9699C159.779 28.1899 160.26 28.2899 160.79 28.2899C161.14 28.2899 161.44 28.2399 161.67 28.1199V26.1899C161.54 26.2199 161.4 26.2399 161.29 26.2399V26.2299ZM155.51 26.4499C155.03 26.4499 154.64 26.3499 154.39 26.1499C154.14 25.9699 154.01 25.6999 154.01 25.3799C154.01 25.0599 154.18 24.8099 154.53 24.6099C154.86 24.4099 155.5 24.3099 156.43 24.3099H158.199C158.119 25.0299 157.82 25.5599 157.3 25.9099C156.78 26.2599 156.18 26.4399 155.52 26.4399L155.51 26.4499Z" fill="black"/>
<path d="M86.5096 161.1C86.5096 152.86 79.8296 146.18 71.5996 146.18C63.3696 146.18 56.6797 152.86 56.6797 161.1C56.6797 169.34 63.3596 176.02 71.5996 176.02C79.8396 176.02 86.5096 169.34 86.5096 161.1Z" fill="#F40009"/>
<path d="M77.0893 157.31C77.0893 157.31 76.5893 157.51 76.0093 158.16C75.4193 158.81 75.0793 159.53 75.3293 159.72C75.4293 159.79 75.6494 159.81 76.0594 159.44C76.3694 159.16 76.6994 158.79 76.9194 158.25C77.1794 157.61 77.0893 157.32 77.0893 157.31ZM80.2894 158.47C79.6394 158.14 79.1694 157.73 78.6794 157.48C78.1994 157.24 77.8994 157.14 77.5194 157.19C77.4494 157.19 77.3593 157.23 77.3593 157.23C77.3593 157.23 77.5594 157.9 76.7794 159.03C75.9894 160.17 75.2693 160.17 75.0693 159.85C74.8493 159.52 75.1293 158.84 75.5893 158.25C76.0693 157.62 76.9194 157.1 76.9194 157.1C76.9194 157.1 76.6493 156.94 75.9793 157.31C75.3393 157.68 74.2193 158.55 73.1893 160.02C72.1593 161.49 71.9494 162.3 71.7994 162.94C71.6494 163.57 71.7893 164.26 72.4893 164.26C73.1893 164.26 74.0193 163.18 74.2593 162.81C74.6893 162.11 74.9693 161.04 74.3793 161.19C74.0893 161.26 73.8593 161.58 73.7093 161.89C73.5593 162.21 73.4993 162.51 73.4993 162.51C73.4993 162.51 73.2494 162.6 72.9194 162.84C72.5994 163.08 72.3793 163.32 72.3793 163.32C72.3793 163.32 72.3794 162.81 72.7894 161.99C73.1994 161.17 73.9393 160.79 74.3593 160.75C74.7393 160.72 75.2393 161.04 74.8193 162.24C74.3993 163.43 73.1593 164.88 71.8593 164.9C70.6693 164.92 69.8794 163.39 71.5494 160.71C73.3894 157.76 75.5594 156.85 76.2694 156.75C76.9694 156.65 77.1993 156.96 77.1993 156.96C77.1993 156.96 77.7894 156.69 78.5294 156.74C79.3994 156.8 80.0593 157.41 80.9393 157.83C80.7093 158.05 80.4894 158.28 80.2894 158.5M84.1494 157.5C83.5594 157.88 82.7293 158.23 81.9393 158.15C81.7393 158.36 81.5294 158.6 81.3094 158.86C82.6894 159.13 83.8894 158.28 84.5294 157.56C84.9294 157.11 85.1193 156.7 85.1193 156.7C85.1193 156.7 84.7394 157.12 84.1494 157.5ZM82.3293 161.37L82.3493 161.31C82.3493 161.31 82.3393 161.19 82.2293 161.19C82.0993 161.19 81.9193 161.21 81.4493 161.73C80.9893 162.24 80.6993 162.69 80.4593 163.14C80.1893 163.63 80.0793 163.99 80.2393 164.09C80.2793 164.12 80.3494 164.12 80.3994 164.11C80.4994 164.09 80.6194 163.99 80.7994 163.78C80.8794 163.68 80.9793 163.55 81.0893 163.39C81.3993 162.97 82.1693 161.64 82.3293 161.37ZM77.4693 161.94C77.5493 161.74 77.6393 161.34 77.4393 161.18C77.2193 161.01 76.6494 161.4 76.6494 161.81C76.6494 162.22 77.0493 162.41 77.1393 162.43C77.1993 162.44 77.2193 162.44 77.2393 162.4C77.2593 162.37 77.3893 162.15 77.4693 161.94ZM77.0394 162.69C77.0394 162.69 76.8394 162.6 76.6494 162.44C76.4594 162.28 76.3593 162.1 76.3593 162.09C76.3493 162.08 76.3393 162.09 76.3293 162.09C76.3193 162.1 76.2893 162.13 75.9893 162.58C75.6893 163.02 75.2193 163.94 75.6393 164.09C75.9093 164.19 76.3593 163.72 76.5993 163.41C76.8293 163.12 77.0394 162.75 77.0494 162.72C77.0694 162.7 77.0594 162.69 77.0394 162.68M81.7994 163.74C81.6794 163.92 81.5594 164.27 81.9294 164.05C82.3894 163.78 83.0394 162.79 83.0394 162.79H83.3393C83.3393 162.79 82.9493 163.41 82.4393 163.97C81.9793 164.48 81.4093 164.95 81.0093 164.91C80.5493 164.86 80.6893 164.24 80.6893 164.24C80.6893 164.24 80.0194 164.95 79.5594 164.9C78.9394 164.83 79.1293 164.06 79.1293 164.06C79.1293 164.06 78.4293 164.93 77.9493 164.9C77.1893 164.86 77.3793 163.94 77.5893 163.29C77.6993 162.94 77.8094 162.67 77.8094 162.67C77.8094 162.67 77.7293 162.69 77.5693 162.71C77.4893 162.72 77.3293 162.73 77.3293 162.73C77.3293 162.73 77.0194 163.28 76.7694 163.61C76.5194 163.94 75.4593 165.09 74.8293 164.86C74.2493 164.65 74.4394 163.76 74.7794 163.06C75.2694 162.03 76.6493 160.55 77.4493 160.75C78.2793 160.95 77.4693 162.46 77.4693 162.46C77.4693 162.46 77.4693 162.46 77.4793 162.46C77.4993 162.46 77.5393 162.47 77.6393 162.46C77.7993 162.43 77.9393 162.37 77.9393 162.37C77.9393 162.37 78.7793 160.63 79.6993 159.48C80.6193 158.34 82.4494 156.37 83.1694 156.85C83.3494 156.97 83.2694 157.37 83.0294 157.86C82.9294 157.89 82.8193 157.92 82.6993 157.95C82.8593 157.66 82.9693 157.42 82.9993 157.25C83.1093 156.66 81.7293 157.9 80.7493 159.24C79.7693 160.58 79.1794 161.79 79.1794 161.79C79.1794 161.79 79.3694 161.68 79.6794 161.43C80.0094 161.17 80.4494 160.76 80.9294 160.26C81.2594 159.93 81.6393 159.5 81.9993 159.03C82.0993 159.03 82.2094 159.01 82.3094 159C81.9094 159.54 81.4893 160.03 81.1293 160.39C80.7493 160.79 80.3193 161.21 79.9493 161.53C79.3593 162.02 78.9094 162.3 78.9094 162.3C78.9094 162.3 78.0493 164.03 78.5093 164.14C78.7893 164.21 79.3293 163.37 79.3293 163.37C79.3293 163.37 80.0393 162.29 80.4693 161.8C81.0493 161.14 81.5494 160.76 82.0594 160.75C82.3494 160.75 82.5194 161.05 82.5194 161.05L82.6594 160.84H83.5093C83.5093 160.84 81.9294 163.52 81.7994 163.72M84.1494 157.48C83.5594 157.86 82.7293 158.21 81.9393 158.13C81.7393 158.34 81.5294 158.58 81.3094 158.84C82.6894 159.11 83.8894 158.26 84.5294 157.54C84.9294 157.09 85.1193 156.68 85.1193 156.68C85.1193 156.68 84.7394 157.1 84.1494 157.48ZM72.2694 158.8H71.4693L71.0194 159.54H71.8193L72.2694 158.8ZM68.4693 161.35C68.8093 160.88 69.7493 159.24 69.7493 159.24C69.7493 159.24 69.7393 159.12 69.6293 159.12C69.4893 159.12 69.2793 159.16 68.8493 159.7C68.4093 160.24 68.0793 160.67 67.8293 161.12C67.5593 161.61 67.4493 161.95 67.5993 162.05C67.6393 162.07 67.7093 162.08 67.7593 162.07C67.8593 162.04 67.9894 161.94 68.1694 161.74C68.2594 161.64 68.3493 161.52 68.4693 161.36M64.1494 159.14C63.9294 158.97 63.3593 159.36 63.3593 159.77C63.3493 160.18 63.8694 160.3 63.9294 160.3C63.9294 160.3 63.9893 160.31 64.0093 160.27C64.0293 160.24 64.0994 160.11 64.1794 159.91C64.2594 159.7 64.3594 159.3 64.1494 159.15M63.8094 160.57C63.8094 160.57 63.5793 160.5 63.3793 160.37C63.1693 160.24 63.0693 160.04 63.0693 160.03C63.0593 160.01 63.0494 160.03 63.0394 160.03C63.0294 160.04 62.9894 160.1 62.6794 160.54C62.3794 160.98 61.9393 161.89 62.3593 162.05C62.6193 162.15 63.0693 161.68 63.3193 161.37C63.5493 161.08 63.8193 160.63 63.8293 160.61C63.8393 160.59 63.8294 160.58 63.8094 160.57ZM70.3893 160.84H70.6794C70.6794 160.84 69.2093 162.97 68.3693 162.88C67.9093 162.83 68.0394 162.25 68.0394 162.25C68.0394 162.25 67.3894 163.02 66.7894 162.86C66.2394 162.72 66.5893 161.81 66.5893 161.81C66.5293 161.84 65.3494 163.17 64.5194 162.85C63.6594 162.52 64.1094 161.4 64.2694 161.07C64.4094 160.79 64.5693 160.51 64.5693 160.51C64.5693 160.51 64.4293 160.55 64.3493 160.57C64.2693 160.59 64.1393 160.61 64.1393 160.61C64.1393 160.61 63.7293 161.28 63.4793 161.61C63.2293 161.94 62.1694 163.09 61.5394 162.86C60.9094 162.63 61.0694 161.75 61.4194 161.06C61.9894 159.93 63.3494 158.54 64.1594 158.74C64.9894 158.95 64.3094 160.29 64.3094 160.29C64.3094 160.29 64.4693 160.31 64.8593 160.04C65.4293 159.65 66.1793 158.61 66.9893 158.74C67.3693 158.8 67.7193 159.19 67.2393 159.93C67.0793 160.17 66.8193 160.38 66.6193 160.17C66.4993 160.04 66.6093 159.8 66.7393 159.64C66.9193 159.41 67.1794 159.44 67.1794 159.44C67.1794 159.44 67.3093 159.13 66.9693 159.14C66.6893 159.14 65.9993 159.79 65.5993 160.44C65.2393 161.03 64.6993 162.05 65.2393 162.27C65.7493 162.47 66.7094 161.34 67.1494 160.74C67.5894 160.14 68.5993 158.79 69.4493 158.74C69.7393 158.72 69.9194 158.98 69.9194 158.98L70.0194 158.82H70.8593C70.8593 158.82 69.2693 161.49 69.1393 161.69C69.0393 161.85 68.9094 162.2 69.2694 162C69.6394 161.8 70.3893 160.83 70.3893 160.83M69.9294 165.1C69.2794 164.65 68.4994 164.45 67.7894 164.48C67.0794 164.51 66.7493 165.04 66.7493 165.04C66.4293 164.48 65.7894 164.13 64.7994 164.14C63.1994 164.16 61.6193 164.9 60.3593 164.9C59.0993 164.9 58.2794 164.14 58.3094 162.8C58.3594 160.44 60.3493 158.32 61.8393 157.36C62.6893 156.81 63.4093 156.65 63.8793 156.7C64.2193 156.74 64.6293 157.13 64.3693 157.71C63.9893 158.57 63.4693 158.49 63.4893 158.09C63.4993 157.82 63.6694 157.66 63.7994 157.57C63.8894 157.51 64.0393 157.5 64.1093 157.49C64.1893 157.43 64.2493 156.96 63.6293 157.11C63.0193 157.26 62.2793 157.86 61.5793 158.64C60.8793 159.42 59.7793 160.89 59.5093 162.43C59.3793 163.15 59.4694 164.45 61.1694 164.44C62.5994 164.43 64.7194 163.48 66.6694 163.5C67.4294 163.5 68.0893 163.71 68.5993 164.03C69.1093 164.34 69.7094 164.8 69.9294 165.11" fill="white"/>
<path d="M83.8192 163.39C83.6692 163.39 83.5393 163.42 83.4093 163.49C83.2893 163.56 83.1893 163.65 83.1193 163.77C83.0493 163.89 83.0093 164.02 83.0093 164.16C83.0093 164.3 83.0393 164.43 83.1193 164.55C83.1893 164.67 83.2893 164.76 83.4093 164.83C83.5293 164.9 83.6692 164.94 83.8192 164.94C83.9692 164.94 84.1092 164.91 84.2292 164.83C84.3492 164.76 84.4493 164.67 84.5193 164.55C84.5893 164.43 84.6293 164.3 84.6293 164.16C84.6293 164.02 84.5993 163.89 84.5193 163.77C84.4393 163.65 84.3592 163.56 84.2292 163.49C84.1092 163.42 83.9692 163.39 83.8192 163.39ZM83.8192 164.79C83.6992 164.79 83.5893 164.76 83.4893 164.71C83.3893 164.66 83.3193 164.58 83.2693 164.49C83.2193 164.4 83.1892 164.29 83.1892 164.17C83.1892 164.05 83.2193 163.95 83.2693 163.85C83.3193 163.76 83.3993 163.68 83.4893 163.63C83.5893 163.58 83.6892 163.55 83.8192 163.55C83.9492 163.55 84.0493 163.58 84.1493 163.63C84.2493 163.68 84.3193 163.76 84.3693 163.85C84.4193 163.94 84.4492 164.05 84.4492 164.17C84.4492 164.29 84.4193 164.4 84.3693 164.49C84.3193 164.58 84.2393 164.66 84.1493 164.71C84.0493 164.76 83.9392 164.79 83.8192 164.79ZM84.1493 164.03C84.1493 163.97 84.1292 163.91 84.0892 163.87C84.0492 163.83 83.9893 163.81 83.9293 163.81H83.5193V164.51H83.6992V164.25H83.8392L83.9993 164.51H84.1992L84.0193 164.24C84.0193 164.24 84.0893 164.19 84.1193 164.15C84.1493 164.11 84.1493 164.07 84.1493 164.03ZM83.6992 163.96H83.8893C83.8893 163.96 83.9292 163.96 83.9392 163.98C83.9492 163.99 83.9592 164.01 83.9592 164.03C83.9592 164.05 83.9592 164.07 83.9392 164.08C83.9292 164.09 83.9093 164.1 83.8893 164.1H83.6992V163.96Z" fill="white"/>
<path d="M91.5298 159.4V160.79H93.8297V161.72H91.5298V164.14H90.4897V158.47H94.8698V159.4H91.5298Z" fill="black"/>
<path d="M100.899 163.2V164.14H96.5894V158.47H97.6294V163.2H100.899Z" fill="black"/>
<path d="M105.97 161.87L105 159.37L104.04 161.87H105.97ZM106.31 162.78H103.69L103.17 164.14H102.08L104.37 158.46H105.65L107.94 164.14H106.84L106.31 162.78Z" fill="black"/>
<path d="M114.12 158.47L111.93 164.14H110.65L108.459 158.47H109.589L111.3 163.11L113.02 158.47H114.12Z" fill="black"/>
<path d="M119.189 163.04C119.479 162.87 119.71 162.64 119.87 162.33C120.03 162.03 120.109 161.69 120.109 161.3C120.109 160.91 120.03 160.57 119.87 160.27C119.71 159.97 119.479 159.73 119.189 159.56C118.899 159.39 118.569 159.31 118.199 159.31C117.829 159.31 117.509 159.39 117.219 159.56C116.929 159.73 116.71 159.96 116.54 160.27C116.38 160.57 116.3 160.91 116.3 161.3C116.3 161.69 116.38 162.03 116.54 162.33C116.71 162.63 116.929 162.87 117.219 163.04C117.509 163.21 117.839 163.29 118.199 163.29C118.559 163.29 118.899 163.21 119.189 163.04ZM116.66 163.87C116.21 163.62 115.849 163.27 115.599 162.83C115.339 162.38 115.209 161.88 115.209 161.31C115.209 160.74 115.339 160.23 115.599 159.79C115.849 159.34 116.21 158.99 116.66 158.74C117.12 158.49 117.629 158.37 118.199 158.37C118.769 158.37 119.29 158.5 119.75 158.74C120.2 158.99 120.55 159.34 120.81 159.79C121.07 160.24 121.189 160.74 121.189 161.31C121.189 161.88 121.07 162.38 120.81 162.83C120.55 163.28 120.2 163.63 119.75 163.87C119.29 164.12 118.779 164.25 118.199 164.25C117.619 164.25 117.12 164.13 116.66 163.87Z" fill="black"/>
<path d="M124.069 160.95H125.93C126.2 160.95 126.419 160.88 126.579 160.74C126.729 160.6 126.81 160.41 126.81 160.17C126.81 159.93 126.729 159.75 126.579 159.61C126.419 159.47 126.2 159.4 125.93 159.4H124.069V160.95ZM125.54 161.87H124.069V164.14H123.04V158.46H126.099C126.459 158.46 126.77 158.54 127.04 158.69C127.3 158.84 127.51 159.05 127.65 159.3C127.79 159.56 127.859 159.85 127.859 160.16C127.859 160.55 127.75 160.89 127.54 161.19C127.33 161.49 127.03 161.69 126.65 161.79L128.24 164.13H127.03L125.54 161.86V161.87Z" fill="black"/>
<path d="M130.569 163.99C130.109 163.84 129.729 163.63 129.439 163.36L130.079 162.56C130.359 162.8 130.66 162.98 130.99 163.1C131.32 163.22 131.67 163.28 132.02 163.28C132.4 163.28 132.699 163.21 132.939 163.06C133.169 162.91 133.29 162.72 133.29 162.49C133.29 162.32 133.219 162.18 133.069 162.07C132.929 161.95 132.7 161.86 132.37 161.8L131.18 161.57C130.67 161.47 130.28 161.29 130.02 161.03C129.76 160.77 129.63 160.45 129.63 160.07C129.63 159.72 129.739 159.42 129.939 159.17C130.139 158.91 130.42 158.71 130.78 158.57C131.14 158.43 131.55 158.36 132 158.36C132.42 158.36 132.819 158.42 133.219 158.55C133.609 158.67 133.95 158.87 134.24 159.14L133.64 159.9C133.39 159.69 133.119 159.54 132.839 159.44C132.549 159.34 132.259 159.29 131.959 159.29C131.599 159.29 131.3 159.36 131.06 159.49C130.82 159.62 130.699 159.79 130.699 160C130.699 160.14 130.77 160.26 130.9 160.36C131.03 160.46 131.259 160.54 131.589 160.6L132.719 160.81C133.259 160.92 133.669 161.11 133.949 161.4C134.219 161.69 134.359 162.03 134.359 162.43C134.359 162.78 134.269 163.09 134.079 163.36C133.879 163.63 133.62 163.84 133.27 163.99C132.92 164.14 132.51 164.21 132.05 164.21C131.52 164.21 131.029 164.13 130.569 163.98" fill="black"/>
</svg>
