<svg width="40" height="40" viewBox="0 0 40 40" fill="none" xmlns="http://www.w3.org/2000/svg">
<g clip-path="url(#clip0_101_19523)">
<path d="M19.5334 10.5539C19.8219 10.7711 20.0972 11.0119 20.3564 11.2759C20.3664 11.286 20.3864 11.286 20.3964 11.2759C20.6555 11.0109 20.9312 10.7693 21.2202 10.5515C20.9241 10.559 20.6261 10.5629 20.3264 10.5629C20.0607 10.5629 19.7963 10.5598 19.5334 10.5539Z" fill="#7ECFD4"/>
<path fill-rule="evenodd" clip-rule="evenodd" d="M20.3264 0.122314C9.54992 0.122314 0.816406 9.02906 0.816406 20.0052C0.816406 24.942 2.58315 29.458 5.50782 32.933C5.52066 32.9504 5.53442 32.9666 5.54899 32.9818C9.12653 37.205 14.4197 39.8778 20.3264 39.8778C26.1999 39.8778 31.4666 37.235 35.0432 33.053C35.097 33.0147 35.1442 32.965 35.181 32.9046C35.1895 32.8908 35.1972 32.8767 35.2042 32.8624C38.0935 29.3969 39.8364 24.9086 39.8364 20.0052V19.995C39.8364 9.02889 31.1027 0.122314 20.3264 0.122314ZM16.8023 38.5181C12.8308 37.7385 9.31157 35.6662 6.68314 32.748C8.23873 31.8454 10.1043 31.0939 12.1933 30.5457C12.5571 31.7646 12.9827 32.8948 13.4614 33.9169C14.3726 35.8621 15.5036 37.4659 16.8023 38.5181ZM6.01531 31.9645C7.68419 30.9708 9.68543 30.1541 11.9192 29.5658C11.2803 27.1237 10.8803 24.37 10.7808 21.4457L11.8329 22.5161C11.9835 24.969 12.3516 27.2697 12.8918 29.3275C14.4453 28.9747 16.0986 28.7297 17.8207 28.6082L18.7697 29.5737C16.7952 29.6619 14.9126 29.916 13.1678 30.3085C13.5137 31.4582 13.9154 32.5207 14.3639 33.4783C15.9842 36.9373 18.1252 38.8593 20.3264 38.8593C22.5277 38.8593 24.6686 36.9373 26.2889 33.4783C26.7374 32.5207 27.1391 31.4582 27.485 30.3084C25.7735 29.9234 23.9298 29.6717 21.9979 29.5791L22.9442 28.6163C24.6253 28.7403 26.2407 28.9822 27.761 29.3275C28.2916 27.3062 28.6562 25.0506 28.8117 22.6465L29.8675 21.5723C29.7609 24.4495 29.3632 27.159 28.7336 29.5658C30.9664 30.154 32.9675 30.971 34.6357 31.9667C37.1623 28.8344 38.7168 24.8576 38.8298 20.5145H30.8494C31.105 20.1911 31.3284 19.85 31.5196 19.4959H38.83C38.7198 15.1833 37.1858 11.2288 34.6887 8.10362C33.1849 9.00822 31.406 9.7669 29.4292 10.3425C28.7966 9.88801 28.1058 9.56105 27.3876 9.35695C27.0663 8.33676 26.7004 7.38862 26.2964 6.52566C24.6762 3.06554 22.5328 1.1409 20.3264 1.1409C18.1203 1.1409 15.9793 3.06522 14.3603 6.52674C13.9529 7.39785 13.5842 8.35577 13.261 9.38705C12.5701 9.59567 11.9061 9.91924 11.2965 10.362C9.29144 9.78333 7.48896 9.01694 5.96661 8.10241C3.46987 11.227 1.93531 15.1815 1.82303 19.4959H9.25247C9.44396 19.85 9.66759 20.1911 9.92333 20.5145H1.82303C1.93604 24.8566 3.48982 28.8325 6.01531 31.9645ZM27.1914 33.9169C27.6701 32.8948 28.0957 31.7646 28.4595 30.5457C30.5477 31.0939 32.4131 31.8457 33.9679 32.7499C31.3397 35.6672 27.8211 37.7387 23.8505 38.5181C25.1492 37.4659 26.2803 35.8621 27.1914 33.9169ZM12.1657 9.54672C10.0641 8.99183 8.18903 8.23089 6.62986 7.31716C9.26311 4.36646 12.8017 2.26956 16.7984 1.48326C15.4989 2.53643 14.3681 4.14176 13.4575 6.08866C12.9681 7.13507 12.5345 8.29476 12.1657 9.54672ZM34.0255 7.31845C32.4679 8.23242 30.5928 8.99252 28.4924 9.5467C28.1233 8.29424 27.6891 7.13404 27.199 6.08718C26.2878 4.14127 25.1561 2.53655 23.8561 1.48358C27.8534 2.27033 31.3924 4.36789 34.0255 7.31845Z" fill="#7ECFD4"/>
<path fill-rule="evenodd" clip-rule="evenodd" d="M20.3759 10.5948C23.0887 8.13227 27.2471 7.85512 30.1102 10.2295C30.1451 10.2473 30.178 10.2693 30.2083 10.2953C33.5837 13.1876 33.7562 18.3319 30.7 21.4449L21.7769 30.5237C21.0041 31.2972 19.76 31.3017 18.993 30.5207C18.993 30.5207 18.9931 30.5208 18.993 30.5207L10.073 21.4451C7.01762 18.3329 7.17811 13.1879 10.5651 10.2947C13.4308 7.84999 17.6309 8.11056 20.3759 10.5948ZM11.2076 11.0753C8.27469 13.5807 8.13541 18.0309 10.78 20.7246L19.6998 29.8001C20.0724 30.1796 20.6874 30.1847 21.0746 29.7985C21.0751 29.798 21.0755 29.7976 21.0759 29.7972L29.9928 20.7246C32.6148 18.054 32.4914 13.6542 29.6364 11.1372C29.6042 11.1202 29.5736 11.0995 29.5454 11.0754C26.9896 8.89506 23.132 9.20004 20.7506 11.6352C20.6307 11.7574 20.4831 11.7927 20.3764 11.7927C20.2697 11.7927 20.1228 11.7581 20.0028 11.6359C17.611 9.19954 13.763 8.8955 11.2076 11.0753Z" fill="#F40009"/>
</g>
<defs>
<clipPath id="clip0_101_19523">
<rect width="39.27" height="40" fill="white" transform="translate(0.696289)"/>
</clipPath>
</defs>
</svg>
