<svg width="191" height="190" viewBox="0 0 191 190" fill="none" xmlns="http://www.w3.org/2000/svg">
<path d="M0.780273 189.42V0.5H189.7V189.42H0.780273Z" fill="#DBD3AA" stroke="#DBD3AA"/>
<path d="M102.25 64.9199H97.0701L94.1401 69.6599H99.3201L102.25 64.9199Z" fill="#F40009"/>
<path d="M133.271 55.36C133.271 55.36 130.031 56.65 126.271 60.8C122.491 64.97 120.321 69.62 121.941 70.86C122.561 71.33 124.001 71.41 126.611 69.06C128.651 67.23 130.721 64.83 132.121 61.4C133.801 57.29 133.271 55.41 133.271 55.36ZM153.881 62.82C149.701 60.68 146.641 58.06 143.461 56.43C140.421 54.87 138.461 54.23 136.011 54.55C135.601 54.6 135.001 54.8 135.001 54.8C135.001 54.8 136.271 59.11 131.241 66.37C126.151 73.72 121.531 73.68 120.221 71.65C118.841 69.52 120.611 65.17 123.581 61.31C126.681 57.27 132.141 53.91 132.141 53.91C132.141 53.91 130.401 52.85 126.121 55.27C121.961 57.63 114.771 63.25 108.131 72.72C101.491 82.19 100.161 87.4 99.2006 91.51C98.2406 95.61 99.1206 100 103.671 100C108.221 100 113.511 93.06 115.001 90.64C117.771 86.15 119.581 79.25 115.811 80.2C113.951 80.67 112.441 82.73 111.491 84.71C110.511 86.75 110.121 88.7 110.121 88.7C110.121 88.7 108.551 89.26 106.431 90.84C104.321 92.42 102.941 93.93 102.941 93.93C102.941 93.93 102.941 90.65 105.561 85.35C108.171 80.04 112.971 77.61 115.691 77.39C118.141 77.19 121.331 79.27 118.631 86.94C115.941 94.62 107.971 103.93 99.6006 104.05C91.8806 104.16 86.8206 94.3 97.5606 77.1C109.441 58.07 123.401 52.23 127.941 51.58C132.471 50.93 133.941 52.93 133.941 52.93C133.941 52.93 137.741 51.17 142.561 51.5C148.091 51.88 152.381 55.79 158.021 58.54C156.541 59.97 155.141 61.44 153.881 62.82ZM178.731 56.41C174.901 58.87 169.591 61.11 164.491 60.61C163.201 61.95 161.821 63.49 160.431 65.18C169.281 66.92 177.011 61.44 181.131 56.78C183.701 53.87 184.971 51.27 184.971 51.27C184.971 51.27 182.521 53.97 178.721 56.42M166.961 81.34C167.071 81.15 167.121 80.97 167.121 80.97C167.121 80.97 167.021 80.23 166.311 80.19C165.471 80.15 164.321 80.31 161.311 83.65C158.311 86.97 156.491 89.86 154.911 92.74C153.191 95.9 152.491 98.24 153.481 98.84C153.761 99.01 154.181 99.03 154.521 98.95C155.191 98.79 155.951 98.16 157.111 96.82C157.651 96.19 158.251 95.3 158.971 94.31C160.951 91.6 165.951 83.05 166.951 81.33M135.661 84.97C136.161 83.65 136.801 81.07 135.471 80.06C134.041 78.98 130.401 81.51 130.381 84.1C130.361 86.75 132.951 87.95 133.571 88.12C133.921 88.22 134.051 88.2 134.221 87.92C134.331 87.73 135.161 86.29 135.671 84.98M132.921 89.8C132.821 89.77 131.641 89.23 130.411 88.2C129.191 87.18 128.571 86.01 128.521 85.92C128.471 85.83 128.421 85.9 128.361 85.97C128.311 86.04 128.081 86.24 126.141 89.1C124.191 91.96 121.221 97.85 123.921 98.85C125.651 99.49 128.531 96.46 130.101 94.45C131.561 92.58 132.921 90.21 133.001 90.04C133.081 89.87 133.001 89.83 132.911 89.8M163.551 96.6C162.811 97.78 161.981 100.02 164.411 98.62C167.361 96.91 171.561 90.54 171.561 90.54H173.461C173.461 90.54 170.961 94.5 167.691 98.12C164.701 101.43 161.051 104.45 158.481 104.15C155.481 103.8 156.421 99.86 156.421 99.86C156.421 99.86 152.111 104.43 149.151 104.11C145.141 103.67 146.361 98.71 146.361 98.71C146.361 98.71 141.831 104.29 138.741 104.11C133.891 103.83 135.111 97.92 136.451 93.78C137.171 91.56 137.841 89.81 137.841 89.81C137.841 89.81 137.361 89.94 136.331 90.09C135.791 90.17 134.811 90.22 134.811 90.22C134.811 90.22 132.801 93.78 131.181 95.93C129.571 98.07 122.701 105.45 118.661 103.97C114.931 102.61 116.161 96.89 118.331 92.35C121.501 85.73 130.411 76.21 135.561 77.45C140.891 78.74 135.691 88.48 135.691 88.48C135.691 88.48 135.691 88.52 135.751 88.54C135.861 88.58 136.131 88.61 136.781 88.48C137.801 88.29 138.731 87.9 138.731 87.9C138.731 87.9 144.091 76.67 150.011 69.32C155.931 61.97 167.741 49.32 172.391 52.38C173.531 53.13 173.011 55.72 171.481 58.87C170.811 59.08 170.101 59.27 169.391 59.42C170.411 57.57 171.091 56 171.291 54.91C171.991 51.11 163.121 59.12 156.791 67.73C150.461 76.34 146.671 84.14 146.671 84.14C146.671 84.14 147.951 83.42 149.941 81.81C152.021 80.13 154.881 77.51 157.981 74.3C160.071 72.14 162.521 69.43 164.821 66.4C165.511 66.37 166.181 66.3 166.831 66.19C164.271 69.64 161.571 72.8 159.281 75.12C156.761 77.67 154.031 80.43 151.651 82.43C147.871 85.61 144.951 87.41 144.951 87.41C144.951 87.41 139.401 98.57 142.421 99.29C144.191 99.71 147.691 94.32 147.691 94.32C147.691 94.32 152.251 87.35 155.001 84.22C158.751 79.95 161.981 77.48 165.211 77.43C167.091 77.4 168.201 79.4 168.201 79.4L169.091 78.03H174.541C174.541 78.03 164.371 95.3 163.561 96.59M178.721 56.41C174.891 58.87 169.581 61.11 164.481 60.61C163.191 61.95 161.811 63.49 160.421 65.18C169.271 66.92 177.001 61.44 181.121 56.78C183.691 53.87 184.961 51.27 184.961 51.27C184.961 51.27 182.511 53.97 178.711 56.42M77.7006 81.33C79.9106 78.31 85.9806 67.72 85.9806 67.72C85.9806 67.72 85.8806 66.98 85.1706 66.95C84.3306 66.91 82.9406 67.19 80.1406 70.69C77.3406 74.18 75.1906 76.96 73.6206 79.85C71.8906 83 71.1405 85.23 72.1306 85.83C72.4105 86 72.8306 86.02 73.1706 85.94C73.8206 85.78 74.6606 85.13 75.8206 83.79C76.3605 83.16 76.9806 82.33 77.7006 81.34M49.9006 67.04C48.4706 65.96 44.8306 68.49 44.8106 71.08C44.7906 73.73 48.1006 74.49 48.5306 74.51C48.5306 74.51 48.9106 74.61 49.0506 74.3C49.1406 74.1 49.5906 73.27 50.1006 71.96C50.6006 70.64 51.2406 68.06 49.9106 67.05M47.7506 76.18C47.6606 76.15 46.2806 75.75 44.9406 74.89C43.6006 74.03 42.9806 72.76 42.9306 72.67C42.8806 72.58 42.8306 72.65 42.7706 72.72C42.7206 72.79 42.4306 73.16 40.4806 76.02C38.5306 78.88 35.6506 84.73 38.3506 85.73C40.0806 86.37 42.9806 83.33 44.5606 81.32C46.0206 79.45 47.7506 76.58 47.8306 76.41C47.9106 76.24 47.8306 76.2 47.7406 76.16M90.0706 77.9H91.9706C91.9706 77.9 82.4606 91.65 77.0906 91.03C74.0906 90.68 74.9806 86.98 74.9806 86.98C74.9806 86.98 70.7606 91.92 66.9006 90.93C63.3906 90.03 65.6506 84.19 65.6506 84.19C65.2506 84.35 57.6606 92.92 52.3306 90.87C46.7506 88.72 49.6406 81.55 50.7006 79.39C51.6006 77.57 52.5906 75.8 52.5906 75.8C52.5906 75.8 51.7306 76.04 51.2006 76.17C50.6706 76.29 49.8606 76.45 49.8606 76.45C49.8606 76.45 47.2206 80.74 45.6106 82.89C44.0006 85.03 37.1406 92.4 33.1006 90.93C29.0606 89.46 30.0506 83.81 32.3206 79.31C36.0006 72.02 44.7406 63.07 50.0006 64.41C55.3206 65.77 50.9206 74.39 50.9206 74.39C50.9206 74.39 51.9806 74.53 54.5106 72.8C58.1606 70.31 62.9705 63.61 68.1905 64.39C70.6405 64.76 72.9206 67.27 69.8006 72.05C68.8006 73.58 67.1306 74.95 65.8406 73.6C65.0406 72.76 65.7406 71.22 66.5806 70.17C67.7606 68.68 69.4006 68.88 69.4006 68.88C69.4006 68.88 70.2606 66.9 68.0706 66.94C66.2906 66.97 61.8106 71.11 59.2706 75.29C56.9406 79.13 53.4206 85.67 56.9606 87.09C60.2106 88.4 66.3706 81.07 69.2306 77.23C72.0906 73.39 78.5906 64.68 84.0506 64.33C85.9306 64.21 87.0506 65.92 87.0506 65.92L87.6806 64.92H93.1306C93.1306 64.92 82.8506 82.09 82.0506 83.39C81.4206 84.41 80.5806 86.7 82.9106 85.41C85.2406 84.12 90.0706 77.9 90.0706 77.9ZM87.1106 105.42C82.9806 102.52 77.9506 101.24 73.3806 101.42C68.7606 101.61 66.6806 105.06 66.6806 105.06C64.5906 101.42 60.4706 99.19 54.1006 99.25C43.8106 99.37 33.6006 104.12 25.5206 104.12C17.4406 104.12 12.1006 99.25 12.2906 90.59C12.6206 75.41 25.4406 61.74 35.0206 55.58C40.5306 52.04 45.1406 50.99 48.1606 51.33C50.3606 51.57 53.0106 54.12 51.3406 57.86C48.8906 63.35 45.5006 62.89 45.6206 60.27C45.6906 58.57 46.8306 57.49 47.6806 56.91C48.2206 56.53 49.1806 56.43 49.6806 56.42C50.1606 56.01 50.5306 53.01 46.5906 54C42.6406 54.99 37.8906 58.87 33.3606 63.87C28.8306 68.87 21.7806 78.34 20.0406 88.28C19.2306 92.89 19.7706 101.29 30.6906 101.19C39.9506 101.11 53.6105 95.01 66.1605 95.12C71.0305 95.16 75.2706 96.47 78.5806 98.52C81.8406 100.53 85.7306 103.45 87.1106 105.44" fill="#F40009"/>
<path d="M174.191 97.91C173.471 97.91 172.831 98.07 172.241 98.4C171.651 98.74 171.191 99.19 170.851 99.76C170.511 100.33 170.351 100.96 170.351 101.62C170.351 102.28 170.511 102.93 170.851 103.48C171.191 104.05 171.651 104.5 172.241 104.83C172.831 105.17 173.461 105.33 174.191 105.33C174.921 105.33 175.561 105.17 176.151 104.83C176.741 104.5 177.181 104.05 177.521 103.48C177.861 102.92 178.021 102.3 178.021 101.62C178.021 100.94 177.861 100.33 177.521 99.76C177.181 99.19 176.731 98.74 176.151 98.4C175.561 98.07 174.911 97.91 174.191 97.91ZM174.191 104.62C173.601 104.62 173.071 104.48 172.621 104.23C172.161 103.97 171.801 103.62 171.541 103.17C171.281 102.72 171.161 102.2 171.161 101.63C171.161 101.06 171.281 100.55 171.541 100.11C171.801 99.67 172.151 99.29 172.621 99.03C173.091 98.77 173.601 98.65 174.191 98.65C174.781 98.65 175.291 98.77 175.761 99.03C176.231 99.29 176.581 99.66 176.841 100.11C177.101 100.56 177.221 101.08 177.221 101.63C177.221 102.18 177.101 102.72 176.841 103.17C176.581 103.62 176.231 103.97 175.781 104.23C175.321 104.49 174.791 104.62 174.201 104.62H174.191ZM175.801 100.97C175.801 100.67 175.701 100.41 175.511 100.21C175.311 100.01 175.051 99.91 174.721 99.91H172.771V103.27H173.631V102.05H174.281L175.071 103.27H176.051L175.171 101.96C175.371 101.86 175.521 101.73 175.631 101.55C175.741 101.37 175.791 101.18 175.791 100.96L175.801 100.97ZM173.641 100.64H174.571C174.681 100.64 174.761 100.67 174.831 100.72C174.901 100.79 174.931 100.87 174.931 100.96C174.931 101.05 174.901 101.14 174.831 101.19C174.761 101.26 174.681 101.29 174.571 101.29H173.641V100.64Z" fill="#F40009"/>
<path d="M29.9602 148.64C30.8402 148.64 31.6502 148.5 32.4102 148.22C33.1502 147.94 33.7701 147.52 34.2301 146.96L32.6102 145.21C32.2202 145.62 31.8102 145.9 31.3902 146.05C30.9602 146.22 30.5102 146.3 30.0302 146.3C29.4102 146.3 28.8702 146.17 28.3902 145.92C27.9002 145.67 27.5402 145.32 27.2702 144.88C27.0002 144.44 26.8602 143.96 26.8602 143.41C26.8602 142.86 27.0002 142.37 27.2702 141.94C27.5402 141.51 27.9102 141.16 28.3902 140.9C28.8702 140.64 29.4101 140.52 30.0101 140.52C30.5001 140.52 30.9301 140.6 31.3401 140.77C31.7301 140.94 32.1202 141.23 32.5302 141.64L34.1501 139.85C33.6901 139.3 33.1002 138.9 32.3602 138.6C31.6202 138.32 30.8102 138.18 29.9202 138.18C28.8102 138.18 27.8302 138.4 26.9602 138.87C26.0802 139.33 25.3901 139.95 24.9001 140.75C24.4101 141.55 24.1602 142.43 24.1602 143.41C24.1602 144.39 24.4101 145.27 24.9001 146.07C25.3901 146.87 26.0802 147.48 26.9602 147.95C27.8402 148.42 28.8402 148.64 29.9402 148.64H29.9602ZM44.4102 148.46H47.1002L43.1402 138.37H39.9501L36.0002 148.46H38.6602L39.4202 146.41H43.6602L44.4202 148.46H44.4102ZM40.2102 144.24L41.5302 140.65L42.8602 144.24H40.2102ZM57.9902 140.61V138.37H49.6402V148.46H52.2202V144.59H56.1302V142.33H52.2202V140.61H57.9902ZM69.1901 140.61V138.37H60.8402V148.46H63.4202V144.59H67.3302V142.33H63.4202V140.61H69.1901ZM80.5401 146.23H74.6102V144.44H78.6001V142.18H74.6102V140.6H80.4002L80.6901 138.37H72.0302V148.46H80.8302L80.5401 146.23ZM83.7601 138.37V148.46H86.3402V138.37H83.7601ZM97.0602 138.37V144.69L92.6802 138.37H90.0002V148.46H92.5401V142.03L97.0101 148.46H99.6001V138.37H97.0602ZM111.68 146.23H105.75V144.44H109.74V142.18H105.75V140.6H111.54L111.83 138.37H103.17V148.46H111.97L111.68 146.23ZM128.72 140.61V138.37H120.37V148.46H122.95V144.59H126.86V142.33H122.95V140.61H128.72ZM138.55 148.45H141.51L138.76 144.51C139.38 144.27 139.85 143.89 140.2 143.36C140.54 142.84 140.7 142.24 140.7 141.57C140.7 140.98 140.57 140.45 140.31 139.96C140.05 139.47 139.65 139.09 139.13 138.8C138.61 138.51 138.01 138.37 137.31 138.37H131.57V148.46H134.12V144.78H136.1L138.55 148.46V148.45ZM134.12 140.61H136.98C137.32 140.61 137.58 140.69 137.79 140.88C137.99 141.06 138.08 141.29 138.08 141.58C138.08 141.87 137.98 142.11 137.79 142.29C137.58 142.47 137.31 142.56 136.98 142.56H134.12V140.61ZM152.53 146.23H146.6V144.44H150.59V142.18H146.6V140.6H152.39L152.68 138.37H144.02V148.46H152.82L152.53 146.23ZM164.16 146.23H158.23V144.44H162.22V142.18H158.23V140.6H164.02L164.31 138.37H155.65V148.46H164.45L164.16 146.23Z" fill="#F40009"/>
<path d="M74.9502 113.61V127.23C74.9502 127.62 75.0602 127.92 75.2902 128.12C75.5102 128.32 75.8102 128.42 76.1902 128.42C76.5102 128.42 76.8002 128.37 77.0502 128.27V129.34C76.7602 129.45 76.4402 129.51 76.1102 129.51C75.3502 129.51 74.7702 129.32 74.3602 128.94C73.9502 128.56 73.7402 128.03 73.7402 127.33V113.61H74.9502Z" fill="#F40009"/>
<path d="M79.8706 118.01H81.0906V129.36H79.8706V118.01ZM81.1306 114.37C81.3006 114.54 81.3806 114.75 81.3806 115.02C81.3806 115.29 81.3006 115.5 81.1306 115.67C80.9606 115.84 80.7506 115.92 80.4806 115.92C80.2106 115.92 80.0006 115.84 79.8306 115.67C79.6606 115.5 79.5806 115.29 79.5806 115.02C79.5806 114.75 79.6606 114.54 79.8306 114.37C80.0006 114.2 80.2106 114.12 80.4806 114.12C80.7506 114.12 80.9606 114.2 81.1306 114.37Z" fill="#F40009"/>
<path d="M91.7505 127.3C92.4605 126.93 93.0205 126.41 93.4405 125.73C93.8605 125.05 94.0705 124.26 94.0705 123.35C94.0705 122.44 93.8605 121.67 93.4405 120.98C93.0205 120.29 92.4605 119.77 91.7505 119.4C91.0405 119.03 90.2705 118.84 89.4405 118.84C88.6105 118.84 87.8805 119.04 87.2105 119.44C86.5305 119.84 86.0005 120.38 85.6105 121.07C85.2205 121.76 85.0205 122.52 85.0205 123.34C85.0205 124.16 85.2205 124.94 85.6105 125.62C86.0005 126.31 86.5305 126.85 87.2105 127.24C87.8905 127.64 88.6305 127.84 89.4405 127.84C90.2505 127.84 91.0505 127.65 91.7505 127.28M95.1705 117.99V128.32C95.1705 129.33 94.9305 130.2 94.4605 130.95C93.9805 131.7 93.3105 132.27 92.4505 132.68C91.5905 133.09 90.5805 133.29 89.4405 133.29C87.6105 133.29 86.0705 132.92 84.8105 132.18L85.3505 131.13C86.5105 131.83 87.8705 132.18 89.4405 132.18C90.8205 132.18 91.9205 131.83 92.7405 131.14C93.5605 130.45 93.9705 129.49 93.9705 128.26V126.56C93.4905 127.31 92.8505 127.9 92.0405 128.32C91.2305 128.74 90.3405 128.95 89.3805 128.95C88.3505 128.95 87.4005 128.7 86.5405 128.21C85.6805 127.71 85.0105 127.04 84.5205 126.18C84.0305 125.32 83.7905 124.38 83.7905 123.34C83.7905 122.3 84.0305 121.36 84.5205 120.51C85.0105 119.66 85.6805 118.98 86.5405 118.48C87.4005 117.98 88.3405 117.73 89.3805 117.73C90.3605 117.73 91.2605 117.95 92.0705 118.38C92.8905 118.81 93.5305 119.42 94.0105 120.2V118H95.1805L95.1705 117.99Z" fill="#F40009"/>
<path d="M106.79 118.89C107.61 119.66 108.02 120.7 108.02 122.01V129.36H106.81V122.2C106.81 121.17 106.51 120.35 105.9 119.76C105.29 119.17 104.42 118.87 103.29 118.87C102.47 118.87 101.74 119.03 101.11 119.35C100.48 119.67 99.9904 120.1 99.6404 120.64C99.2904 121.18 99.1204 121.77 99.1204 122.41V129.37H97.9004V113.62H99.1204V119.86C99.6204 119.14 100.26 118.6 101.02 118.26C101.78 117.92 102.61 117.75 103.5 117.75C104.88 117.75 105.98 118.13 106.8 118.9" fill="#F40009"/>
<path d="M116.76 128.04V129.17C116.54 129.3 116.25 129.39 115.91 129.46C115.57 129.53 115.22 129.57 114.85 129.57C113.7 129.57 112.81 129.25 112.16 128.61C111.51 127.97 111.19 127.09 111.19 125.97V119.06H109.26V118.01H111.19V115.08L112.4 114.51V118.01H116.67V119.06H112.4V125.85C112.4 126.68 112.63 127.31 113.08 127.77C113.53 128.22 114.15 128.45 114.93 128.45C115.57 128.45 116.18 128.32 116.75 128.05" fill="#F40009"/>
<path d="M81.5702 112.36C80.6902 112.36 79.9702 113.08 79.9702 113.96C79.9702 114.84 80.6902 115.56 81.5702 115.56C82.4502 115.56 83.1702 114.84 83.1702 113.96C83.1702 113.08 82.4502 112.36 81.5702 112.36ZM81.5702 112.88C82.1602 112.88 82.6402 113.36 82.6402 113.95C82.6402 114.54 82.1602 115.02 81.5702 115.02C80.9802 115.02 80.5002 114.54 80.5002 113.95C80.5002 113.36 80.9802 112.88 81.5702 112.88Z" fill="#F40009"/>
<path d="M80.4806 109.93C80.2706 109.93 80.1106 110.1 80.1106 110.3C80.1106 110.5 80.2806 110.67 80.4806 110.67C80.6806 110.67 80.8506 110.5 80.8506 110.3C80.8506 110.1 80.6806 109.93 80.4806 109.93ZM80.4806 111.2C79.9906 111.2 79.5806 110.8 79.5806 110.3C79.5806 109.8 79.9806 109.4 80.4806 109.4C80.9806 109.4 81.3806 109.8 81.3806 110.3C81.3806 110.8 80.9806 111.2 80.4806 111.2Z" fill="#F40009"/>
</svg>
