<svg width="40" height="40" viewBox="0 0 40 40" fill="none" xmlns="http://www.w3.org/2000/svg">
<g clip-path="url(#clip0_101_19435)">
<path d="M30.4088 19.5133C30.3687 16.5236 29.9874 13.6443 29.2952 11.0458C31.382 10.4037 33.2681 9.55096 34.8532 8.49753C37.231 11.5575 38.6757 15.3699 38.786 19.5133H30.4088ZM20.4765 11.417V1.2239C22.7639 1.45465 24.921 3.34078 26.5864 6.59134C27.1783 7.74509 27.69 9.02926 28.1013 10.3937C25.7436 11.0258 23.1552 11.3869 20.4665 11.417M20.4665 19.5133V12.3802C23.2355 12.34 25.9142 11.9788 28.3621 11.3167C29.0243 13.8248 29.3955 16.6139 29.4356 19.5133H20.4665ZM20.4665 27.8304V20.4865H29.4356C29.3955 23.4662 29.0143 26.3255 28.312 28.8838C25.8841 28.2317 23.2154 27.8705 20.4665 27.8304ZM20.4665 28.7935C23.1251 28.8336 25.6935 29.1848 28.0411 29.8068C27.6398 31.101 27.1482 32.3149 26.5864 33.4185C24.9109 36.6691 22.7539 38.5452 20.4765 38.786V28.8035L20.4665 28.7935ZM19.5033 28.7935V38.7759C17.2159 38.5452 15.0589 36.6591 13.3935 33.4085C12.8216 32.3049 12.3401 31.101 11.9388 29.7968C14.2764 29.1747 16.8547 28.8236 19.5134 28.7835M19.5134 20.4765V27.8203C16.7644 27.8605 14.1058 28.2216 11.6679 28.8738C10.9656 26.3154 10.5844 23.4562 10.5442 20.4765H19.5134ZM19.5134 12.3802V19.5133H10.5442C10.5844 16.6139 10.9455 13.8248 11.6177 11.3167C14.0556 11.9788 16.7444 12.34 19.5134 12.3802ZM19.5134 11.417C16.8347 11.3769 14.2362 11.0258 11.8786 10.3937C12.2899 9.01923 12.8016 7.74509 13.3935 6.59134C15.0689 3.34078 17.2159 1.46468 19.5033 1.2239V11.417H19.5134ZM34.2513 7.75512C32.7564 8.72828 30.9907 9.53089 29.0444 10.1228C28.613 8.68815 28.0812 7.35382 27.4592 6.13987C26.4258 4.12332 25.1918 2.58833 23.8475 1.58507C27.9709 2.44787 31.6027 4.66508 34.2613 7.74509M15.7512 1.67536C15.7512 1.67536 15.7512 1.67536 15.7612 1.67536C15.8916 1.64526 16.022 1.61517 16.1525 1.58507C14.8081 2.58833 13.5741 4.12332 12.5407 6.13987C11.9187 7.34378 11.387 8.68815 10.9556 10.1228C9.00924 9.52086 7.2435 8.72828 5.74865 7.75512C8.31699 4.77544 11.7983 2.60839 15.7512 1.6854M5.13666 8.49753C6.73184 9.55096 8.61797 10.4037 10.6947 11.0458C10.0025 13.6443 9.62123 16.5236 9.5811 19.5133H1.20388C1.3042 15.3699 2.75893 11.5575 5.13666 8.49753ZM1.20388 20.4765H9.5811C9.62123 23.5364 10.0225 26.486 10.7449 29.1446C8.6882 29.7767 6.82213 30.6094 5.24702 31.6428C2.80909 28.5527 1.31423 24.6902 1.20388 20.4865M15.7411 38.3144C11.8485 37.4115 8.41732 35.2946 5.86904 32.3852C7.35386 31.4321 9.09954 30.6596 11.0158 30.0676C11.4371 31.4321 11.9488 32.6962 12.5407 33.8499C13.5741 35.8665 14.8081 37.4015 16.1525 38.4047C16.022 38.3746 15.9016 38.3546 15.7712 38.3245C15.7612 38.3245 15.7512 38.3245 15.7411 38.3245M24.2488 38.3245C24.2488 38.3245 24.2287 38.3245 24.2187 38.3245C24.0882 38.3546 23.9578 38.3847 23.8374 38.4047C25.1818 37.4015 26.4158 35.8665 27.4492 33.86C28.0411 32.7062 28.5528 31.4321 28.9741 30.0777C30.8904 30.6696 32.636 31.4421 34.1208 32.3952C31.5726 35.3047 28.1314 37.4215 24.2387 38.3245M34.7429 31.6428C33.1577 30.6194 31.2917 29.7767 29.235 29.1547C29.9573 26.5061 30.3586 23.5565 30.3988 20.4865H38.776C38.6656 24.6902 37.1708 28.5627 34.7328 31.6428M39.7491 20.0049C39.7491 14.7278 37.6925 9.76164 33.9603 6.02951C33.9202 5.98938 33.8801 5.94925 33.8399 5.90912C33.8299 5.89909 33.8199 5.88906 33.8098 5.87902C33.6995 5.76867 33.5791 5.65831 33.4587 5.54795C33.4386 5.52788 33.4186 5.50782 33.3985 5.48775C33.2881 5.37739 33.1678 5.27707 33.0574 5.17674C33.0373 5.15668 33.0173 5.14664 33.0072 5.12658C32.8768 5.01622 32.7464 4.90586 32.616 4.7955C29.6463 2.30742 26.0647 0.782461 22.2422 0.351058C22.2222 0.351058 22.2021 0.351058 22.1921 0.351058C22.0416 0.330993 21.8811 0.320961 21.7306 0.310928C21.6905 0.310928 21.6604 0.310928 21.6202 0.300895C21.4798 0.290863 21.3493 0.28083 21.2089 0.270798C21.1587 0.270798 21.1186 0.270798 21.0684 0.270798C20.938 0.270798 20.8076 0.260765 20.6671 0.250732C20.617 0.250732 20.5768 0.250732 20.5267 0.250732C20.3461 0.250732 20.1755 0.250732 19.9949 0.250732C19.8144 0.250732 19.6438 0.250732 19.4632 0.250732C19.4131 0.250732 19.3729 0.250732 19.3228 0.250732C19.1923 0.250732 19.0519 0.250732 18.9215 0.270798C18.8713 0.270798 18.8312 0.270798 18.781 0.270798C18.6405 0.270798 18.5101 0.290863 18.3697 0.300895C18.3295 0.300895 18.2994 0.300895 18.2593 0.310928C18.1088 0.320961 17.9483 0.341026 17.7978 0.351058C17.7777 0.351058 17.7677 0.351058 17.7476 0.351058C13.7446 0.802526 10.0125 2.44787 6.96259 5.12658C6.95256 5.12658 6.94253 5.14664 6.93249 5.15668C6.8121 5.26704 6.68168 5.37739 6.57132 5.48775C6.56129 5.49779 6.54122 5.51785 6.53119 5.52788C6.4108 5.64827 6.28037 5.75863 6.15998 5.87902H6.14995C6.10982 5.92919 6.06969 5.96932 6.01953 6.01948C2.2874 9.75161 0.230713 14.7178 0.230713 19.9949C0.230713 24.64 1.8259 29.0443 4.75542 32.5758C4.75542 32.5758 4.75542 32.5858 4.76545 32.5959C4.81561 32.6561 4.86578 32.7162 4.91594 32.7664C4.95607 32.8166 5.00623 32.8667 5.04636 32.9169C5.13666 33.0172 5.21692 33.1175 5.30721 33.2179C5.32728 33.2379 5.33731 33.258 5.35737 33.2781C6.21015 34.2211 7.15321 35.0739 8.15647 35.8264C8.1966 35.8564 8.2267 35.8866 8.26683 35.9066C8.33706 35.9568 8.40729 36.0069 8.47751 36.0571C8.55778 36.1173 8.63804 36.1675 8.7183 36.2277C8.75843 36.2578 8.80859 36.2879 8.85875 36.318C8.96911 36.3982 9.07947 36.4684 9.19986 36.5487C9.21993 36.5587 9.23999 36.5688 9.26006 36.5888C11.8184 38.2542 14.7278 39.2976 17.7878 39.6287C17.7978 39.6287 17.8179 39.6287 17.8379 39.6287C17.9884 39.6488 18.1389 39.6588 18.2994 39.6789C18.3396 39.6789 18.3697 39.6789 18.3998 39.6789C18.5402 39.6889 18.6706 39.6989 18.8011 39.709C18.8512 39.709 18.8914 39.709 18.9415 39.709C19.0719 39.709 19.1923 39.719 19.3228 39.729C19.3729 39.729 19.4231 39.729 19.4732 39.729C19.6338 39.729 19.7943 39.729 19.9548 39.729C19.9749 39.729 19.9849 39.729 20.005 39.729C20.025 39.729 20.0351 39.729 20.0551 39.729C20.2157 39.729 20.3762 39.729 20.5367 39.729C20.5869 39.729 20.637 39.729 20.6872 39.729C20.8176 39.729 20.938 39.729 21.0684 39.709C21.1186 39.709 21.1587 39.709 21.2089 39.709C21.3393 39.709 21.4798 39.6889 21.6102 39.6789C21.6403 39.6789 21.6804 39.6789 21.7105 39.6789C21.861 39.6688 22.0215 39.6488 22.172 39.6287C22.1821 39.6287 22.2021 39.6287 22.2122 39.6287C25.2621 39.2876 28.1615 38.2542 30.7198 36.5989C30.7499 36.5788 30.79 36.5587 30.8201 36.5387C30.9205 36.4785 31.0107 36.4082 31.1111 36.348C31.1713 36.3079 31.2315 36.2678 31.2917 36.2176C31.3519 36.1775 31.4121 36.1374 31.4622 36.0972C31.5525 36.027 31.6428 35.9668 31.7431 35.8966C31.7431 35.8966 31.7532 35.8865 31.7632 35.8765C33.0273 34.9334 34.2011 33.8399 35.2244 32.5959C35.2244 32.5858 35.2445 32.5758 35.2545 32.5557C38.174 29.0242 39.7592 24.63 39.7592 19.9949" fill="#69C9CD"/>
</g>
<defs>
<clipPath id="clip0_101_19435">
<rect width="39.99" height="40" fill="white"/>
</clipPath>
</defs>
</svg>
