<svg width="191" height="190" viewBox="0 0 191 190" fill="none" xmlns="http://www.w3.org/2000/svg">
<path d="M190.68 0H0.759766V189.92H190.68V0Z" fill="#871555"/>
<path d="M35.3694 127.37L41.3394 121.01V118.73H31.9795V121.18H37.6895L31.6895 127.57V129.82H41.5695V127.37H35.3694ZM54.3895 127.37H47.8795V125.4H52.2694V122.92H47.8795V121.18H54.2394L54.5594 118.73H45.0495V129.82H54.7195L54.3994 127.37H54.3895ZM65.5395 129.82H68.7895L65.7694 125.49C66.4494 125.23 66.9695 124.81 67.3595 124.23C67.7295 123.66 67.9095 123 67.9095 122.26C67.9095 121.61 67.7695 121.03 67.4795 120.49C67.1895 119.95 66.7595 119.54 66.1895 119.21C65.6195 118.89 64.9595 118.73 64.1895 118.73H57.8795V129.82H60.6794V125.77H62.8495L65.5395 129.82ZM60.6695 121.2H63.8094C64.1794 121.2 64.4695 121.29 64.6995 121.49C64.9195 121.69 65.0194 121.94 65.0194 122.26C65.0194 122.58 64.9095 122.85 64.6995 123.05C64.4695 123.25 64.1794 123.34 63.8094 123.34H60.6695V121.2Z" fill="black"/>
<path d="M76.9196 130.01C75.7496 130.01 74.6996 129.76 73.7796 129.27C72.8596 128.79 72.1296 128.12 71.6196 127.24C71.0996 126.36 70.8296 125.38 70.8296 124.27C70.8296 123.16 71.0896 122.18 71.6196 121.3C72.1296 120.42 72.8496 119.75 73.7796 119.25C74.6996 118.77 75.7496 118.53 76.9196 118.53C78.0896 118.53 79.1396 118.78 80.0596 119.25C80.9796 119.74 81.7096 120.42 82.2296 121.3C82.7396 122.18 82.9996 123.16 82.9996 124.27C82.9996 125.38 82.7396 126.36 82.2296 127.24C81.7096 128.12 80.9796 128.79 80.0596 129.27C79.1396 129.76 78.0896 130.01 76.9196 130.01ZM76.9196 121.11C76.3196 121.11 75.7796 121.25 75.2996 121.51C74.8196 121.77 74.4496 122.14 74.1896 122.62C73.9296 123.1 73.7896 123.65 73.7896 124.27C73.7896 124.89 73.9296 125.42 74.1896 125.9C74.4496 126.38 74.8196 126.76 75.2996 127.02C75.7796 127.28 76.3196 127.42 76.9196 127.42C77.5196 127.42 78.0596 127.28 78.5396 127.02C79.0196 126.76 79.3896 126.37 79.6496 125.9C79.9096 125.42 80.0496 124.88 80.0496 124.27C80.0496 123.66 79.9096 123.1 79.6496 122.62C79.3896 122.14 79.0196 121.77 78.5396 121.51C78.0596 121.25 77.5196 121.11 76.9196 121.11ZM96.9196 129.96C97.9496 129.96 98.8296 129.81 99.5796 129.5C100.32 129.19 100.89 128.76 101.29 128.19C101.67 127.64 101.88 126.99 101.88 126.23C101.88 125.38 101.62 124.69 101.08 124.12C100.54 123.55 99.7096 123.18 98.5896 123.01L95.9096 122.58C95.2796 122.47 94.9596 122.24 94.9596 121.86C94.9596 121.63 95.1396 121.41 95.5096 121.24C95.8596 121.07 96.3596 120.99 96.9596 120.99C97.5596 120.99 98.0996 121.08 98.6196 121.28C99.1296 121.48 99.6396 121.77 100.14 122.16L101.74 120.11C101.14 119.57 100.42 119.17 99.5496 118.91C98.6896 118.65 97.7896 118.53 96.8896 118.53C95.8596 118.53 94.9696 118.67 94.2396 118.96C93.4996 119.25 92.9496 119.65 92.5596 120.18C92.1796 120.72 91.9896 121.33 91.9896 122.04C91.9896 123.81 93.1396 124.89 95.4396 125.26L97.8096 125.63C98.5296 125.74 98.8896 126.01 98.8896 126.46C98.8896 126.75 98.7196 126.98 98.3796 127.18C98.0296 127.38 97.5496 127.49 96.9296 127.49C95.4996 127.49 94.2796 127.03 93.2496 126.12L91.5596 128.2C92.1296 128.74 92.8996 129.17 93.8696 129.48C94.8196 129.8 95.8396 129.96 96.9196 129.96ZM110.16 130.01C111.22 130.01 112.15 129.83 112.93 129.46C113.71 129.09 114.32 128.57 114.73 127.87C115.15 127.18 115.35 126.36 115.35 125.42V118.72H112.5V125.12C112.5 125.87 112.3 126.44 111.91 126.83C111.53 127.21 110.94 127.42 110.15 127.42C109.36 127.42 108.8 127.22 108.41 126.83C108.01 126.45 107.81 125.88 107.81 125.12V118.72H104.96V125.42C104.96 126.36 105.18 127.18 105.59 127.87C106.01 128.56 106.61 129.09 107.39 129.46C108.18 129.83 109.08 130.01 110.15 130.01H110.16ZM129.93 123.14H124.28V125.6H127.14V127.16C126.55 127.38 125.92 127.48 125.23 127.48C124.54 127.48 123.84 127.34 123.27 127.06C122.7 126.8 122.25 126.41 121.93 125.92C121.61 125.43 121.45 124.87 121.45 124.26C121.45 123.65 121.6 123.09 121.91 122.6C122.22 122.12 122.63 121.74 123.17 121.46C123.69 121.18 124.26 121.04 124.89 121.04C126.09 121.04 127.17 121.42 128.12 122.18L129.71 120.15C129.14 119.63 128.45 119.23 127.63 118.93C126.8 118.65 125.87 118.51 124.87 118.51C123.65 118.51 122.58 118.76 121.61 119.25C120.64 119.74 119.87 120.42 119.32 121.3C118.77 122.18 118.49 123.18 118.49 124.3C118.49 125.42 118.77 126.38 119.34 127.24C119.91 128.1 120.69 128.78 121.71 129.26C122.71 129.75 123.87 130 125.16 130C126.18 130 127.1 129.88 127.93 129.63C128.75 129.4 129.41 129.09 129.92 128.71V123.14H129.93ZM141.73 129.81H144.69L140.33 118.72H136.82L132.48 129.81H135.41L136.24 127.56H140.91L141.74 129.81H141.73ZM137.11 125.18L138.56 121.24L140.02 125.18H137.11ZM155.16 129.81H158.41L155.39 125.48C156.07 125.22 156.59 124.8 156.98 124.22C157.35 123.65 157.53 122.99 157.53 122.25C157.53 121.6 157.39 121.02 157.1 120.48C156.81 119.94 156.38 119.53 155.81 119.2C155.24 118.88 154.58 118.72 153.81 118.72H147.5V129.81H150.3V125.76H152.47L155.16 129.81ZM150.29 121.19H153.43C153.8 121.19 154.09 121.28 154.32 121.48C154.54 121.68 154.64 121.93 154.64 122.25C154.64 122.57 154.53 122.84 154.32 123.04C154.09 123.24 153.8 123.33 153.43 123.33H150.29V121.19Z" fill="black"/>
<path d="M102.73 64.9199H97.5396L94.6196 69.6599H99.7997L102.73 64.9199Z" fill="black"/>
<path d="M133.75 55.37C133.75 55.37 130.51 56.66 126.75 60.81C122.97 64.98 120.8 69.63 122.42 70.87C123.04 71.34 124.48 71.42 127.09 69.07C129.13 67.24 131.2 64.84 132.61 61.41C134.29 57.3 133.76 55.42 133.76 55.37M154.37 62.83C150.18 60.69 147.13 58.07 143.95 56.43C140.91 54.87 138.95 54.22 136.5 54.55C136.09 54.6 135.49 54.8 135.49 54.8C135.49 54.8 136.76 59.11 131.73 66.37C126.64 73.72 122.02 73.68 120.71 71.65C119.33 69.52 121.11 65.17 124.07 61.31C127.17 57.27 132.63 53.91 132.63 53.91C132.63 53.91 130.89 52.85 126.61 55.27C122.45 57.63 115.26 63.25 108.62 72.72C101.98 82.19 100.65 87.4 99.6898 91.51C98.7298 95.61 99.6098 100 104.16 100C108.71 100 114 93.06 115.49 90.64C118.26 86.15 120.07 79.25 116.29 80.2C114.43 80.67 112.92 82.73 111.97 84.72C110.99 86.76 110.6 88.71 110.6 88.71C110.6 88.71 109.03 89.27 106.91 90.85C104.8 92.43 103.42 93.94 103.42 93.94C103.42 93.94 103.43 90.66 106.04 85.36C108.65 80.05 113.45 77.62 116.17 77.4C118.62 77.2 121.8 79.28 119.11 86.95C116.42 94.62 108.45 103.93 100.08 104.06C92.3598 104.17 87.2998 94.31 98.0398 77.11C109.92 58.08 123.89 52.24 128.42 51.59C132.95 50.94 134.42 52.94 134.42 52.94C134.42 52.94 138.22 51.18 143.03 51.51C148.56 51.89 152.85 55.8 158.49 58.55C157.01 59.98 155.61 61.45 154.35 62.83M179.2 56.41C175.37 58.87 170.06 61.11 164.96 60.61C163.67 61.95 162.29 63.49 160.9 65.18C169.75 66.92 177.49 61.45 181.6 56.78C184.17 53.87 185.44 51.27 185.44 51.27C185.44 51.27 182.99 53.97 179.19 56.42M167.43 81.34C167.54 81.15 167.59 80.97 167.59 80.97C167.59 80.97 167.49 80.23 166.78 80.19C165.94 80.15 164.79 80.31 161.78 83.65C158.78 86.97 156.96 89.86 155.38 92.74C153.65 95.9 152.96 98.24 153.95 98.84C154.23 99.01 154.65 99.03 154.99 98.95C155.67 98.79 156.42 98.16 157.58 96.82C158.12 96.19 158.73 95.3 159.44 94.31C161.42 91.6 166.42 83.05 167.42 81.33M136.13 84.98C136.63 83.66 137.27 81.08 135.94 80.07C134.51 78.99 130.87 81.52 130.85 84.1C130.83 86.75 133.42 87.95 134.04 88.12C134.39 88.22 134.52 88.2 134.69 87.92C134.8 87.73 135.63 86.29 136.14 84.98M133.39 89.8C133.29 89.77 132.11 89.23 130.89 88.2C129.67 87.18 129.05 86.01 129 85.92C128.95 85.83 128.9 85.9 128.84 85.97C128.79 86.05 128.56 86.24 126.62 89.1C124.67 91.96 121.7 97.85 124.4 98.85C126.13 99.49 129.01 96.46 130.58 94.45C132.04 92.58 133.4 90.21 133.48 90.04C133.56 89.87 133.48 89.83 133.39 89.79M164.03 96.59C163.3 97.77 162.47 100.01 164.89 98.61C167.84 96.9 172.04 90.53 172.04 90.53H173.94C173.94 90.53 171.43 94.49 168.17 98.11C165.18 101.42 161.53 104.43 158.96 104.14C155.96 103.79 156.9 99.85 156.9 99.85C156.9 99.85 152.59 104.42 149.63 104.1C145.62 103.66 146.84 98.7 146.84 98.7C146.84 98.7 142.31 104.28 139.22 104.1C134.37 103.82 135.59 97.91 136.93 93.77C137.65 91.55 138.32 89.8 138.32 89.8C138.32 89.8 137.84 89.93 136.81 90.08C136.27 90.16 135.29 90.21 135.29 90.21C135.29 90.21 133.28 93.77 131.66 95.92C130.05 98.06 123.19 105.44 119.15 103.96C115.42 102.6 116.65 96.88 118.82 92.34C121.99 85.72 130.91 76.2 136.05 77.44C141.38 78.73 136.17 88.47 136.17 88.47C136.17 88.47 136.17 88.51 136.23 88.53C136.34 88.57 136.61 88.6 137.26 88.48C138.29 88.28 139.21 87.9 139.21 87.9C139.21 87.9 144.57 76.67 150.49 69.32C156.41 61.97 168.22 49.32 172.86 52.38C174 53.13 173.48 55.72 171.95 58.87C171.27 59.08 170.57 59.27 169.86 59.42C170.88 57.57 171.56 56 171.76 54.91C172.46 51.11 163.6 59.12 157.27 67.73C150.94 76.34 147.14 84.14 147.14 84.14C147.14 84.14 148.42 83.42 150.41 81.81C152.49 80.13 155.35 77.51 158.45 74.3C160.54 72.14 162.99 69.43 165.29 66.4C165.98 66.37 166.65 66.3 167.31 66.19C164.75 69.64 162.05 72.8 159.76 75.12C157.24 77.67 154.5 80.43 152.12 82.43C148.34 85.61 145.42 87.41 145.42 87.41C145.42 87.41 139.87 98.57 142.89 99.29C144.66 99.71 148.16 94.32 148.16 94.32C148.16 94.32 152.72 87.35 155.47 84.22C159.22 79.95 162.45 77.48 165.68 77.43C167.56 77.4 168.67 79.4 168.67 79.4L169.56 78.03H175.01C175.01 78.03 164.84 95.3 164.03 96.59ZM179.19 56.41C175.36 58.87 170.05 61.11 164.95 60.61C163.66 61.95 162.28 63.49 160.89 65.18C169.74 66.92 177.48 61.45 181.59 56.78C184.16 53.87 185.43 51.27 185.43 51.27C185.43 51.27 182.98 53.97 179.18 56.42M78.1698 81.33C80.3698 78.31 86.4498 67.72 86.4498 67.72C86.4498 67.72 86.3498 66.98 85.6398 66.94C84.7998 66.9 83.3998 67.18 80.6098 70.67C77.8098 74.16 75.6598 76.95 74.0898 79.83C72.3698 82.98 71.6098 85.21 72.5998 85.81C72.8798 85.98 73.2998 86 73.6398 85.92C74.2898 85.76 75.1298 85.11 76.2898 83.77C76.8298 83.14 77.4498 82.31 78.1698 81.32M50.3698 67.02C48.9398 65.94 45.2998 68.47 45.2798 71.06C45.2598 73.71 48.5698 74.47 48.9998 74.49C48.9998 74.49 49.3798 74.59 49.5198 74.28C49.6098 74.08 50.0598 73.25 50.5698 71.94C51.0698 70.62 51.7098 68.04 50.3798 67.03M48.2198 76.16C48.1298 76.13 46.7498 75.73 45.4098 74.87C44.0698 74.01 43.4498 72.74 43.3998 72.65C43.3498 72.56 43.2998 72.63 43.2398 72.7C43.1898 72.77 42.8998 73.14 40.9498 76C38.9998 78.86 36.1198 84.71 38.8198 85.71C40.5498 86.35 43.4498 83.31 45.0298 81.3C46.4898 79.43 48.2298 76.56 48.2998 76.39C48.3698 76.22 48.2998 76.18 48.2098 76.15M90.5398 77.89H92.4398C92.4398 77.89 82.9298 91.64 77.5598 91.02C74.5598 90.67 75.4498 86.97 75.4498 86.97C75.4498 86.97 71.2298 91.91 67.3698 90.92C63.8598 90.02 66.1198 84.18 66.1198 84.18C65.7198 84.34 58.1298 92.91 52.7998 90.86C47.2198 88.71 50.1098 81.54 51.1698 79.38C52.0698 77.56 53.0598 75.79 53.0598 75.79C53.0598 75.79 52.1998 76.03 51.6698 76.16C51.1398 76.28 50.3298 76.44 50.3298 76.44C50.3298 76.44 47.6898 80.73 46.0798 82.88C44.4698 85.02 37.6098 92.39 33.5698 90.92C29.5298 89.45 30.5198 83.8 32.7898 79.3C36.4698 72.01 45.2098 63.06 50.4698 64.4C55.7898 65.76 51.3898 74.38 51.3898 74.38C51.3898 74.38 52.4498 74.52 54.9798 72.79C58.6298 70.3 63.4398 63.6 68.6598 64.38C71.1098 64.75 73.3898 67.26 70.2698 72.04C69.2698 73.57 67.5898 74.94 66.3098 73.59C65.5098 72.75 66.2098 71.21 67.0398 70.16C68.2198 68.67 69.8598 68.87 69.8598 68.87C69.8598 68.87 70.7198 66.89 68.5298 66.93C66.7598 66.96 62.2698 71.1 59.7298 75.28C57.3998 79.12 53.8798 85.66 57.4198 87.08C60.6698 88.39 66.8298 81.06 69.6898 77.22C72.5498 73.38 79.0498 64.67 84.5098 64.32C86.3898 64.2 87.5098 65.91 87.5098 65.91L88.1398 64.91H93.5898C93.5898 64.91 83.3098 82.08 82.5098 83.39C81.8798 84.41 81.0398 86.7 83.3698 85.41C85.6998 84.12 90.5398 77.9 90.5398 77.9M87.5798 105.42C83.4498 102.52 78.4198 101.24 73.8498 101.42C69.2298 101.6 67.1498 105.06 67.1498 105.06C65.0598 101.42 60.9398 99.19 54.5698 99.25C44.2798 99.37 34.0698 104.12 25.9898 104.12C17.9098 104.12 12.5698 99.25 12.7598 90.59C13.0898 75.41 25.9098 61.74 35.4898 55.58C40.9998 52.04 45.6098 50.99 48.6298 51.33C50.8298 51.57 53.4798 54.12 51.8098 57.86C49.3598 63.35 45.9698 62.89 46.0898 60.27C46.1598 58.57 47.2998 57.49 48.1498 56.91C48.6898 56.53 49.6498 56.43 50.1498 56.42C50.6298 56.01 50.9998 53.01 47.0598 54C43.1098 54.99 38.3598 58.87 33.8298 63.86C29.2998 68.86 22.2498 78.33 20.5098 88.27C19.6998 92.88 20.2398 101.28 31.1598 101.18C40.4198 101.1 54.0798 95 66.6298 95.11C71.4998 95.15 75.7398 96.46 79.0498 98.5C82.3098 100.51 86.1998 103.43 87.5798 105.42Z" fill="black"/>
<path d="M174.67 97.9099C173.95 97.9099 173.31 98.0699 172.72 98.3999C172.13 98.7399 171.67 99.1899 171.33 99.7599C170.99 100.33 170.83 100.96 170.83 101.62C170.83 102.28 170.99 102.93 171.33 103.48C171.67 104.05 172.13 104.5 172.72 104.83C173.31 105.17 173.94 105.33 174.67 105.33C175.4 105.33 176.04 105.17 176.63 104.83C177.22 104.5 177.66 104.05 178 103.48C178.34 102.92 178.5 102.3 178.5 101.62C178.5 100.94 178.34 100.33 178 99.7599C177.66 99.1899 177.21 98.7399 176.63 98.3999C176.04 98.0699 175.39 97.9099 174.67 97.9099ZM174.67 104.62C174.08 104.62 173.55 104.48 173.1 104.23C172.64 103.97 172.28 103.62 172.02 103.17C171.76 102.72 171.64 102.2 171.64 101.63C171.64 101.06 171.76 100.55 172.02 100.11C172.28 99.6599 172.63 99.2899 173.1 99.0299C173.56 98.7699 174.08 98.6499 174.67 98.6499C175.26 98.6499 175.77 98.7699 176.24 99.0299C176.7 99.2899 177.06 99.6599 177.32 100.11C177.58 100.56 177.7 101.08 177.7 101.63C177.7 102.18 177.58 102.72 177.32 103.17C177.06 103.62 176.71 103.97 176.26 104.23C175.8 104.49 175.27 104.62 174.68 104.62H174.67ZM176.28 100.97C176.28 100.67 176.18 100.41 175.99 100.21C175.79 100.01 175.53 99.9099 175.2 99.9099H173.25V103.27H174.11V102.04H174.76L175.55 103.27H176.53L175.65 101.96C175.85 101.86 176 101.73 176.11 101.55C176.22 101.37 176.27 101.18 176.27 100.96L176.28 100.97ZM174.12 100.64H175.05C175.16 100.64 175.24 100.67 175.31 100.72C175.38 100.79 175.41 100.87 175.41 100.96C175.41 101.05 175.38 101.14 175.31 101.19C175.24 101.26 175.16 101.29 175.05 101.29H174.12V100.64Z" fill="black"/>
<path d="M72.3999 28.43C73.3799 28.43 74.2999 28.26 75.1499 27.95C75.9999 27.64 76.6799 27.17 77.2299 26.53L75.5999 24.75C74.7299 25.63 73.6799 26.07 72.4499 26.07C71.6699 26.07 70.9699 25.9 70.3499 25.55C69.7199 25.22 69.2299 24.75 68.8799 24.17C68.5299 23.59 68.3499 22.94 68.3499 22.22C68.3499 21.5 68.5299 20.84 68.8799 20.25C69.2299 19.66 69.7299 19.22 70.3499 18.87C70.9699 18.54 71.6499 18.37 72.4199 18.37C72.9999 18.37 73.5499 18.47 74.0699 18.69C74.5699 18.91 75.0499 19.26 75.5199 19.72L77.1499 17.9C76.6199 17.28 75.9299 16.8 75.0999 16.48C74.2499 16.16 73.3299 16 72.3499 16C71.0699 16 69.9199 16.27 68.8999 16.8C67.8799 17.35 67.0799 18.08 66.4999 19.03C65.9199 19.98 65.6299 21.05 65.6299 22.21C65.6299 23.37 65.9099 24.43 66.4999 25.38C67.0899 26.33 67.8799 27.08 68.9199 27.61C69.9399 28.16 71.0999 28.43 72.3999 28.43Z" fill="black"/>
<path d="M83.9895 18.8299C82.8395 18.8299 81.9195 19.1799 81.2695 19.8599V15.6799H78.7695V28.2099H81.2695V22.9899C81.2695 22.4399 81.4695 21.9899 81.8695 21.6599C82.2695 21.3299 82.7895 21.1599 83.3995 21.1599C84.0095 21.1599 84.4695 21.3099 84.7795 21.6299C85.0895 21.9499 85.2596 22.3999 85.2596 22.9599V28.2099H87.7596V22.3899C87.7596 21.6899 87.5895 21.0699 87.2795 20.5199C86.9695 19.9699 86.5096 19.5499 85.9496 19.2499C85.3696 18.9699 84.7196 18.8199 83.9796 18.8199L83.9895 18.8299ZM99.3395 23.6999C99.3395 22.8199 99.1396 21.9999 98.7596 21.2499C98.3596 20.5199 97.7896 19.9299 97.0396 19.4799C96.2896 19.0499 95.4196 18.8299 94.4196 18.8299C93.4196 18.8299 92.5496 19.0499 91.7996 19.4799C91.0496 19.9099 90.4695 20.4999 90.0695 21.2299C89.6695 21.9599 89.4695 22.7599 89.4695 23.6499C89.4695 24.5399 89.6895 25.3499 90.0995 26.0699C90.5195 26.7999 91.1296 27.3899 91.9496 27.7999C92.7496 28.2199 93.6995 28.4299 94.8195 28.4299C95.6995 28.4299 96.4696 28.2999 97.1396 28.0299C97.8096 27.7799 98.3395 27.4499 98.7195 27.0299L97.3695 25.3499C96.9495 25.6699 96.5695 25.8999 96.1895 26.0499C95.8095 26.1999 95.3595 26.2799 94.8395 26.2799C94.1195 26.2799 93.5196 26.1299 93.0396 25.8299C92.5596 25.5299 92.2196 25.0999 92.0396 24.5499H99.2495C99.2995 24.2999 99.3296 24.0199 99.3296 23.6999H99.3395ZM94.4395 20.9999C95.0595 20.9999 95.5896 21.1499 96.0096 21.4499C96.4296 21.7699 96.6895 22.1799 96.8395 22.7299H92.0195C92.1695 22.1799 92.4696 21.7599 92.8896 21.4499C93.3096 21.1499 93.8195 20.9999 94.4395 20.9999ZM106.34 18.9199C105.79 18.9199 105.24 19.0199 104.72 19.2399C104.19 19.4599 103.77 19.7699 103.47 20.2099V19.0599H101.09V28.2199H103.59V23.5899C103.59 22.7599 103.84 22.1599 104.32 21.7899C104.8 21.4399 105.45 21.2599 106.25 21.2599C106.57 21.2599 106.88 21.2899 107.2 21.3399V19.0199C106.92 18.9499 106.62 18.9199 106.33 18.9199H106.34Z" fill="black"/>
<path d="M113.89 18.9199C113.34 18.9199 112.79 19.0199 112.27 19.2399C111.74 19.4599 111.32 19.7699 111.02 20.2099V19.0599H108.64V28.2199H111.14V23.5899C111.14 22.7599 111.39 22.1599 111.87 21.7899C112.35 21.4399 113 21.2599 113.8 21.2599C114.12 21.2599 114.43 21.2899 114.75 21.3399V19.0199C114.47 18.9499 114.17 18.9199 113.88 18.9199H113.89ZM123.47 19.0499L120.94 25.4299L118.32 19.0499H115.57L119.67 28.1099L119.6 28.2799C119.48 28.5599 119.3 28.7999 119.05 28.9499C118.8 29.1199 118.55 29.1999 118.27 29.1999C117.8 29.1999 117.24 29.0699 116.59 28.7999L115.94 30.8199C116.29 30.9999 116.67 31.1499 117.12 31.2399C117.55 31.3399 117.97 31.3899 118.35 31.3899C119.12 31.3899 119.8 31.1899 120.38 30.7899C120.96 30.4099 121.41 29.8399 121.73 29.0899L126.1 19.0599H123.47V19.0499Z" fill="black"/>
<path d="M86.7099 161.1C86.7099 152.86 80.0299 146.18 71.7899 146.18C63.5499 146.18 56.8799 152.86 56.8799 161.1C56.8799 169.34 63.5599 176.02 71.7899 176.02C80.0199 176.02 86.7099 169.34 86.7099 161.1Z" fill="#F40009"/>
<path d="M77.2894 157.31C77.2894 157.31 76.7894 157.51 76.1994 158.16C75.6094 158.81 75.2694 159.53 75.5294 159.72C75.6294 159.79 75.8494 159.81 76.2594 159.44C76.5794 159.16 76.8994 158.79 77.1194 158.25C77.3794 157.61 77.2994 157.32 77.2994 157.31M80.4994 158.47C79.8494 158.14 79.3794 157.73 78.8794 157.48C78.4094 157.24 78.0994 157.14 77.7194 157.19C77.6594 157.19 77.5594 157.23 77.5594 157.23C77.5594 157.23 77.7594 157.9 76.9794 159.03C76.1894 160.17 75.4694 160.17 75.2694 159.85C75.0594 159.52 75.3294 158.84 75.7894 158.25C76.2694 157.62 77.1194 157.1 77.1194 157.1C77.1194 157.1 76.8494 156.94 76.1894 157.31C75.5394 157.68 74.4294 158.55 73.3994 160.02C72.3694 161.49 72.1594 162.3 72.0094 162.94C71.8594 163.57 71.9994 164.26 72.6994 164.26C73.3994 164.26 74.2294 163.18 74.4594 162.81C74.8894 162.11 75.1694 161.04 74.5794 161.19C74.2894 161.26 74.0594 161.58 73.9094 161.89C73.7594 162.21 73.6994 162.51 73.6994 162.51C73.6994 162.51 73.4594 162.6 73.1294 162.84C72.7994 163.08 72.5894 163.32 72.5894 163.32C72.5894 163.32 72.5894 162.81 72.9994 161.99C73.4094 161.17 74.1494 160.79 74.5694 160.75C74.9494 160.72 75.4494 161.04 75.0294 162.24C74.6094 163.43 73.3694 164.88 72.0694 164.9C70.8694 164.92 70.0794 163.39 71.7494 160.71C73.5894 157.76 75.7594 156.85 76.4694 156.75C77.1694 156.65 77.3994 156.96 77.3994 156.96C77.3994 156.96 77.9894 156.69 78.7394 156.74C79.5994 156.8 80.2694 157.41 81.1394 157.83C80.9094 158.05 80.6894 158.28 80.4994 158.5M84.3594 157.5C83.7694 157.88 82.9394 158.23 82.1494 158.15C81.9494 158.36 81.7394 158.6 81.5194 158.86C82.8994 159.13 84.0994 158.28 84.7394 157.56C85.1394 157.11 85.3294 156.7 85.3294 156.7C85.3294 156.7 84.9494 157.12 84.3594 157.5ZM82.5294 161.37L82.5594 161.31C82.5594 161.31 82.5394 161.19 82.4294 161.19C82.2994 161.19 82.1194 161.21 81.6494 161.73C81.1794 162.24 80.8994 162.69 80.6594 163.14C80.3894 163.63 80.2794 163.99 80.4394 164.09C80.4794 164.12 80.5494 164.12 80.5994 164.11C80.6994 164.09 80.8194 163.99 80.9994 163.78C81.0794 163.68 81.1794 163.55 81.2894 163.39C81.5994 162.97 82.3694 161.64 82.5294 161.37ZM77.6694 161.94C77.7494 161.74 77.8494 161.34 77.6394 161.18C77.4194 161.01 76.8494 161.4 76.8494 161.81C76.8494 162.22 77.2494 162.41 77.3494 162.43C77.3994 162.44 77.4194 162.44 77.4494 162.4C77.4694 162.37 77.5894 162.15 77.6694 161.94ZM77.2394 162.69C77.2394 162.69 77.0394 162.6 76.8494 162.44C76.6594 162.28 76.5594 162.1 76.5594 162.09C76.5594 162.08 76.5394 162.09 76.5394 162.09C76.5394 162.1 76.4994 162.13 76.1894 162.58C75.8894 163.02 75.4294 163.94 75.8494 164.09C76.1194 164.19 76.5694 163.72 76.8094 163.41C77.0394 163.12 77.2494 162.75 77.2594 162.72C77.2694 162.7 77.2594 162.69 77.2494 162.68M82.0094 163.74C81.8894 163.92 81.7694 164.27 82.1394 164.05C82.5994 163.78 83.2494 162.79 83.2494 162.79H83.5394C83.5394 162.79 83.1494 163.41 82.6494 163.97C82.1794 164.48 81.6194 164.95 81.2194 164.91C80.7494 164.86 80.8994 164.24 80.8994 164.24C80.8994 164.24 80.2294 164.95 79.7694 164.9C79.1494 164.83 79.3394 164.06 79.3394 164.06C79.3394 164.06 78.6294 164.93 78.1594 164.9C77.4094 164.86 77.5894 163.94 77.7994 163.29C77.9094 162.94 78.0194 162.67 78.0194 162.67C78.0194 162.67 77.9494 162.69 77.7894 162.71C77.7094 162.72 77.5494 162.73 77.5494 162.73C77.5494 162.73 77.2394 163.28 76.9894 163.61C76.7394 163.94 75.6694 165.09 75.0394 164.86C74.4594 164.65 74.6494 163.76 74.9894 163.06C75.4794 162.03 76.8694 160.55 77.6694 160.75C78.4994 160.95 77.6894 162.46 77.6894 162.46C77.7094 162.46 77.7494 162.47 77.8494 162.46C78.0094 162.43 78.1494 162.37 78.1494 162.37C78.1494 162.37 78.9794 160.63 79.8994 159.48C80.8194 158.34 82.6494 156.37 83.3694 156.85C83.5494 156.97 83.4694 157.37 83.2294 157.86C83.1294 157.89 83.0194 157.92 82.9094 157.95C83.0694 157.66 83.1694 157.42 83.1994 157.25C83.3094 156.66 81.9294 157.9 80.9494 159.24C79.9694 160.58 79.3794 161.79 79.3794 161.79C79.3794 161.79 79.5794 161.68 79.8894 161.43C80.2094 161.17 80.6494 160.76 81.1394 160.26C81.4594 159.93 81.8394 159.5 82.1994 159.03C82.3094 159.03 82.4094 159.01 82.5094 159C82.1094 159.54 81.6894 160.03 81.3394 160.39C80.9494 160.79 80.5194 161.21 80.1594 161.53C79.5694 162.02 79.1194 162.3 79.1194 162.3C79.1194 162.3 78.2594 164.03 78.7294 164.14C79.0094 164.21 79.5494 163.37 79.5494 163.37C79.5494 163.37 80.2594 162.29 80.6794 161.8C81.2594 161.14 81.7694 160.76 82.2694 160.75C82.5594 160.75 82.7294 161.05 82.7294 161.05L82.8694 160.84H83.7194C83.7194 160.84 82.1394 163.52 82.0194 163.72M84.3694 157.48C83.7794 157.86 82.9494 158.21 82.1594 158.13C81.9594 158.34 81.7494 158.58 81.5294 158.84C82.9094 159.11 84.1094 158.26 84.7494 157.54C85.1494 157.09 85.3394 156.68 85.3394 156.68C85.3394 156.68 84.9594 157.1 84.3694 157.48ZM72.4894 158.8H71.6894L71.2394 159.54H72.0394L72.4894 158.8ZM68.6794 161.35C69.0194 160.88 69.9694 159.24 69.9694 159.24C69.9694 159.24 69.9594 159.12 69.8494 159.12C69.7194 159.12 69.4994 159.16 69.0694 159.7C68.6394 160.24 68.2994 160.67 68.0594 161.12C67.7894 161.61 67.6794 161.95 67.8294 162.05C67.8694 162.07 67.9394 162.08 67.9894 162.07C68.0894 162.04 68.2194 161.94 68.3994 161.74C68.4794 161.64 68.5794 161.52 68.6894 161.36M64.3694 159.14C64.1494 158.97 63.5794 159.36 63.5794 159.77C63.5794 160.18 64.0894 160.3 64.1594 160.3C64.1594 160.3 64.2194 160.31 64.2394 160.27C64.2494 160.24 64.3194 160.11 64.3994 159.91C64.4794 159.7 64.5794 159.3 64.3694 159.15M64.0294 160.57C64.0294 160.57 63.7994 160.5 63.5994 160.37C63.3894 160.24 63.2994 160.04 63.2894 160.03C63.2894 160.01 63.2694 160.03 63.2694 160.03C63.2694 160.04 63.2194 160.1 62.9094 160.54C62.6094 160.98 62.1594 161.89 62.5794 162.05C62.8494 162.15 63.2994 161.68 63.5394 161.37C63.7694 161.08 64.0394 160.63 64.0494 160.61C64.0594 160.58 64.0494 160.58 64.0394 160.57M70.6194 160.84H70.9094C70.9094 160.84 69.4394 162.97 68.5994 162.88C68.1394 162.83 68.2694 162.25 68.2694 162.25C68.2694 162.25 67.6094 163.02 67.0094 162.86C66.4694 162.72 66.8194 161.81 66.8194 161.81C66.7594 161.84 65.5794 163.17 64.7494 162.85C63.8794 162.52 64.3294 161.4 64.4994 161.07C64.6394 160.79 64.7894 160.51 64.7894 160.51C64.7894 160.51 64.6594 160.55 64.5694 160.57C64.4894 160.59 64.3594 160.61 64.3594 160.61C64.3594 160.61 63.9494 161.28 63.6994 161.61C63.4494 161.94 62.3794 163.09 61.7594 162.86C61.1294 162.63 61.2894 161.75 61.6394 161.06C62.2094 159.93 63.5694 158.54 64.3794 158.74C65.2094 158.95 64.5194 160.29 64.5194 160.29C64.5194 160.29 64.6794 160.31 65.0794 160.04C65.6494 159.65 66.3894 158.61 67.1994 158.74C67.5794 158.8 67.9394 159.19 67.4494 159.93C67.2894 160.17 67.0294 160.38 66.8294 160.17C66.7094 160.04 66.8094 159.8 66.9494 159.64C67.1294 159.41 67.3894 159.44 67.3894 159.44C67.3894 159.44 67.5294 159.13 67.1794 159.14C66.8994 159.14 66.2094 159.79 65.8094 160.44C65.4494 161.03 64.8994 162.05 65.4494 162.27C65.9494 162.47 66.9094 161.34 67.3594 160.74C67.7994 160.14 68.8094 158.79 69.6594 158.74C69.9494 158.72 70.1294 158.98 70.1294 158.98L70.2294 158.82H71.0794C71.0794 158.82 69.4794 161.49 69.3594 161.69C69.2594 161.85 69.1294 162.2 69.4894 162C69.8494 161.8 70.5994 160.83 70.5994 160.83M70.1394 165.1C69.4994 164.65 68.7194 164.45 68.0094 164.48C67.2894 164.51 66.9694 165.04 66.9694 165.04C66.6494 164.48 66.0094 164.13 65.0194 164.14C63.4194 164.16 61.8394 164.9 60.5794 164.9C59.3194 164.9 58.4994 164.14 58.5194 162.8C58.5694 160.44 60.5594 158.32 62.0494 157.36C62.8994 156.81 63.6194 156.65 64.0894 156.7C64.4294 156.74 64.8394 157.13 64.5794 157.71C64.1994 158.57 63.6694 158.49 63.6894 158.09C63.6994 157.82 63.8794 157.66 64.0094 157.57C64.0994 157.51 64.2394 157.5 64.3194 157.49C64.3994 157.43 64.4494 156.96 63.8394 157.11C63.2294 157.26 62.4894 157.86 61.7894 158.64C61.0894 159.42 59.9894 160.89 59.7194 162.43C59.5994 163.15 59.6794 164.45 61.3694 164.44C62.8094 164.43 64.9294 163.48 66.8794 163.5C67.6394 163.5 68.2994 163.71 68.8094 164.03C69.3194 164.34 69.9194 164.8 70.1294 165.11" fill="white"/>
<path d="M84.0097 163.39C83.8597 163.39 83.7297 163.42 83.5997 163.49C83.4797 163.56 83.3797 163.65 83.3097 163.77C83.2397 163.89 83.1997 164.02 83.1997 164.16C83.1997 164.3 83.2297 164.43 83.3097 164.55C83.3797 164.67 83.4797 164.76 83.5997 164.83C83.7197 164.9 83.8597 164.94 84.0097 164.94C84.1597 164.94 84.2997 164.91 84.4197 164.83C84.5397 164.76 84.6397 164.67 84.7097 164.55C84.7797 164.43 84.8197 164.3 84.8197 164.16C84.8197 164.02 84.7897 163.89 84.7097 163.77C84.6297 163.65 84.5497 163.56 84.4197 163.49C84.2997 163.42 84.1597 163.39 84.0097 163.39ZM84.0097 164.79C83.8897 164.79 83.7797 164.76 83.6797 164.71C83.5797 164.66 83.5097 164.58 83.4597 164.49C83.4097 164.4 83.3797 164.29 83.3797 164.17C83.3797 164.05 83.4097 163.95 83.4597 163.85C83.5097 163.75 83.5897 163.68 83.6797 163.63C83.7697 163.58 83.8797 163.55 84.0097 163.55C84.1397 163.55 84.2397 163.58 84.3397 163.63C84.4397 163.68 84.5097 163.76 84.5597 163.85C84.6097 163.94 84.6397 164.05 84.6397 164.17C84.6397 164.29 84.6097 164.4 84.5597 164.49C84.5097 164.58 84.4297 164.66 84.3397 164.71C84.2397 164.76 84.1297 164.79 84.0097 164.79ZM84.3397 164.03C84.3397 163.97 84.3197 163.91 84.2797 163.87C84.2397 163.83 84.1797 163.81 84.1197 163.81H83.7097V164.51H83.8897V164.25H84.0297L84.1897 164.51H84.3897L84.2097 164.24C84.2097 164.24 84.2797 164.19 84.3097 164.15C84.3397 164.11 84.3397 164.07 84.3397 164.03ZM83.8897 163.96H84.0797C84.0797 163.96 84.1197 163.96 84.1297 163.98C84.1397 163.99 84.1497 164.01 84.1497 164.03C84.1497 164.05 84.1497 164.07 84.1297 164.08C84.1197 164.09 84.0997 164.1 84.0797 164.1H83.8897V163.96Z" fill="white"/>
<path d="M91.7295 159.4V160.79H94.0294V161.72H91.7295V164.14H90.6895V158.47H95.0695V159.4H91.7295Z" fill="black"/>
<path d="M101.1 163.2V164.14H96.7896V158.47H97.8296V163.2H101.1Z" fill="black"/>
<path d="M106.17 161.87L105.21 159.37L104.25 161.87H106.18H106.17ZM106.51 162.78H103.89L103.36 164.14H102.27L104.56 158.46H105.84L108.13 164.14H107.03L106.51 162.78Z" fill="black"/>
<path d="M114.32 158.47L112.13 164.14H110.85L108.66 158.47H109.79L111.5 163.11L113.22 158.47H114.32Z" fill="black"/>
<path d="M119.39 163.04C119.68 162.87 119.91 162.64 120.07 162.33C120.23 162.03 120.31 161.69 120.31 161.3C120.31 160.91 120.23 160.57 120.07 160.27C119.91 159.97 119.68 159.73 119.39 159.56C119.1 159.39 118.77 159.31 118.4 159.31C118.03 159.31 117.71 159.39 117.42 159.56C117.13 159.73 116.9 159.96 116.74 160.27C116.58 160.57 116.49 160.91 116.49 161.3C116.49 161.69 116.57 162.03 116.74 162.33C116.9 162.63 117.13 162.87 117.42 163.04C117.71 163.21 118.04 163.29 118.4 163.29C118.76 163.29 119.1 163.21 119.39 163.04ZM116.86 163.87C116.41 163.62 116.05 163.27 115.79 162.83C115.53 162.38 115.41 161.88 115.41 161.31C115.41 160.74 115.54 160.23 115.79 159.79C116.05 159.34 116.4 158.99 116.86 158.74C117.31 158.49 117.83 158.37 118.4 158.37C118.97 158.37 119.49 158.5 119.94 158.74C120.39 158.99 120.75 159.34 121 159.79C121.26 160.24 121.38 160.74 121.38 161.31C121.38 161.88 121.25 162.38 121 162.83C120.74 163.28 120.39 163.63 119.94 163.87C119.49 164.12 118.97 164.25 118.4 164.25C117.83 164.25 117.31 164.13 116.86 163.87Z" fill="black"/>
<path d="M124.27 160.95H126.13C126.41 160.95 126.62 160.88 126.78 160.74C126.94 160.6 127.01 160.41 127.01 160.17C127.01 159.93 126.93 159.75 126.78 159.61C126.62 159.47 126.41 159.4 126.13 159.4H124.27V160.95ZM125.74 161.87H124.27V164.14H123.24V158.46H126.3C126.66 158.46 126.97 158.54 127.24 158.69C127.51 158.84 127.71 159.05 127.85 159.3C127.99 159.56 128.06 159.85 128.06 160.16C128.06 160.55 127.95 160.89 127.74 161.19C127.53 161.49 127.23 161.69 126.86 161.79L128.45 164.13H127.24L125.75 161.86L125.74 161.87Z" fill="black"/>
<path d="M130.77 163.99C130.31 163.84 129.93 163.63 129.64 163.36L130.28 162.56C130.56 162.8 130.86 162.98 131.19 163.1C131.52 163.22 131.86 163.28 132.22 163.28C132.6 163.28 132.9 163.21 133.14 163.06C133.38 162.91 133.49 162.72 133.49 162.49C133.49 162.32 133.42 162.18 133.27 162.07C133.13 161.95 132.89 161.86 132.56 161.8L131.37 161.57C130.86 161.47 130.47 161.29 130.22 161.03C129.96 160.77 129.83 160.45 129.83 160.07C129.83 159.72 129.93 159.42 130.14 159.17C130.34 158.91 130.62 158.71 130.98 158.57C131.34 158.43 131.74 158.36 132.2 158.36C132.62 158.36 133.02 158.42 133.42 158.55C133.81 158.67 134.16 158.87 134.45 159.14L133.85 159.9C133.6 159.69 133.33 159.54 133.04 159.44C132.75 159.34 132.46 159.29 132.16 159.29C131.8 159.29 131.5 159.36 131.26 159.49C131.02 159.62 130.9 159.79 130.9 160C130.9 160.14 130.97 160.26 131.1 160.36C131.23 160.46 131.46 160.54 131.79 160.6L132.92 160.81C133.46 160.92 133.87 161.11 134.15 161.4C134.43 161.69 134.57 162.03 134.57 162.43C134.57 162.78 134.47 163.09 134.28 163.36C134.09 163.63 133.82 163.84 133.47 163.99C133.12 164.14 132.71 164.21 132.25 164.21C131.73 164.21 131.24 164.13 130.78 163.98" fill="black"/>
</svg>
