<svg width="46" height="40" viewBox="0 0 46 40" fill="none" xmlns="http://www.w3.org/2000/svg">
<g clip-path="url(#clip0_101_19555)">
<path d="M17.6216 22.9978C17.6216 26.5621 14.7283 29.4553 11.1641 29.4553C7.59979 29.4553 4.70654 26.5621 4.70654 22.9978C4.70654 19.4335 7.59979 16.5403 11.1641 16.5403C14.7283 16.5403 17.6216 19.4335 17.6216 22.9978V22.9978Z" stroke="#F59822" stroke-miterlimit="10" stroke-linecap="round"/>
<path d="M1.16016 39.4597C1.16016 33.9346 5.63946 29.4553 11.1645 29.4553C16.6896 29.4553 21.1689 33.9346 21.1689 39.4597" stroke="#F59822" stroke-miterlimit="10" stroke-linecap="round"/>
<path d="M24.5498 39.4597C24.5498 33.9346 29.0291 29.4553 34.5542 29.4553C40.0792 29.4553 44.5585 33.9346 44.5585 39.4597M41.003 22.9978C41.003 26.5621 38.1097 29.4553 34.5454 29.4553C30.9812 29.4553 28.0879 26.5621 28.0879 22.9978C28.0879 19.4335 30.9812 16.5403 34.5454 16.5403C38.1097 16.5403 41.003 19.4335 41.003 22.9978V22.9978Z" stroke="#B49D74" stroke-miterlimit="10" stroke-linecap="round"/>
<path d="M16.4106 15.329C16.4106 11.7647 19.3039 8.87144 22.8682 8.87144C26.4324 8.87144 29.3257 11.7647 29.3257 15.329M27.0337 4.71458C27.0337 7.01523 25.1688 8.88015 22.8682 8.88015C20.5675 8.88015 18.7026 7.01523 18.7026 4.71458C18.7026 2.41392 20.5675 0.540283 22.8594 0.540283C25.1514 0.540283 27.025 2.40521 27.025 4.70586L27.0337 4.71458Z" stroke="#E48138" stroke-miterlimit="10" stroke-linecap="round"/>
</g>
<defs>
<clipPath id="clip0_101_19555">
<rect width="44.488" height="40" fill="white" transform="translate(0.619629)"/>
</clipPath>
</defs>
</svg>
