<svg width="12" height="40" viewBox="0 0 12 40" fill="none" xmlns="http://www.w3.org/2000/svg">
<path d="M1.65648 38.9827C1.75648 39.2514 1.88647 39.4626 2.05647 39.501C3.18647 39.8273 4.47648 40 5.84648 40C7.21648 40 8.51647 39.8273 9.63647 39.501C9.80647 39.4626 9.94648 39.2514 10.0365 38.9827C10.3565 38.0806 11.2965 37.8695 11.2965 36.6027V7.85029C11.2965 4.41459 10.5365 3.55086 10.1465 1.38196C10.1665 1.34357 10.1465 1.38196 10.1765 1.32438C10.3065 1.40115 10.4365 1.20921 10.4365 0.978887C10.4365 0.786949 10.3665 0.633399 10.2665 0.614205C8.92648 0.211134 7.39648 0 5.84648 0C4.29648 0 2.76648 0.211134 1.42648 0.614205C1.33648 0.633399 1.26648 0.806142 1.26648 0.978887C1.26648 1.22841 1.38648 1.42035 1.51648 1.32438C1.53648 1.36276 1.52648 1.32438 1.54648 1.38196C1.16648 3.53167 0.396484 4.39539 0.396484 7.85029V36.6027C0.396484 37.8503 1.33648 38.0806 1.65648 38.9827Z" fill="#8FD6DA"/>
</svg>
