<svg width="191" height="190" viewBox="0 0 191 190" fill="none" xmlns="http://www.w3.org/2000/svg">
<path d="M190.399 0H0.479492V189.92H190.399V0Z" fill="#F18A00"/>
<path d="M190.399 0H0.479492V75.97H190.399V0Z" fill="#CDA075"/>
<path d="M35.7992 28.43C37.0292 28.43 38.1291 28.16 39.1191 27.63C40.0891 27.11 40.8492 26.38 41.3992 25.43C41.9492 24.48 42.2192 23.41 42.2192 22.21C42.2192 21.01 41.9492 19.94 41.3992 18.99C40.8492 18.04 40.0791 17.31 39.1191 16.77C38.1391 16.25 37.0392 15.99 35.7992 15.99C34.5592 15.99 33.4691 16.26 32.4991 16.77C31.5191 17.3 30.7692 18.04 30.2192 18.99C29.6692 19.94 29.3892 21.01 29.3892 22.21C29.3892 23.41 29.6692 24.48 30.2192 25.43C30.7692 26.38 31.5191 27.11 32.4991 27.63C33.4691 28.16 34.5692 28.43 35.7992 28.43ZM35.7992 26.06C35.0792 26.06 34.4492 25.89 33.8992 25.56C33.3292 25.24 32.8992 24.78 32.5792 24.19C32.2592 23.6 32.0992 22.96 32.0992 22.21C32.0992 21.46 32.2692 20.79 32.5792 20.21C32.8892 19.63 33.3292 19.18 33.8992 18.84C34.4492 18.52 35.0792 18.36 35.7992 18.36C36.5192 18.36 37.1492 18.53 37.7192 18.84C38.2692 19.17 38.7192 19.62 39.0392 20.21C39.3592 20.79 39.5092 21.46 39.5092 22.21C39.5092 22.96 39.3592 23.61 39.0392 24.19C38.7192 24.77 38.2692 25.24 37.7192 25.56C37.1492 25.89 36.5192 26.06 35.7992 26.06ZM49.4991 18.91C48.9491 18.91 48.3992 19.01 47.8792 19.23C47.3491 19.45 46.9291 19.76 46.6292 20.2V19.05H44.2491V28.21H46.7491V23.58C46.7491 22.75 46.9992 22.15 47.4792 21.78C47.9592 21.43 48.6092 21.25 49.4092 21.25C49.7292 21.25 50.0391 21.28 50.3591 21.33V19.01C50.0791 18.94 49.7791 18.91 49.4891 18.91H49.4991ZM60.9991 26.22C60.7991 26.22 60.6292 26.17 60.5192 26.05C60.3892 25.95 60.3192 25.78 60.3192 25.57V22.57C60.3192 21.39 59.9392 20.47 59.1692 19.8C58.3992 19.15 57.3392 18.82 55.9492 18.82C55.2292 18.82 54.4992 18.92 53.7792 19.1C53.0592 19.3 52.4091 19.6 51.8591 20.02L53.0792 21.87C53.5292 21.55 53.9992 21.34 54.4792 21.19C54.9592 21.06 55.4092 20.99 55.8292 20.99C56.4492 20.99 56.9292 21.12 57.2992 21.39C57.6492 21.67 57.8492 22.04 57.8992 22.52H56.0692C54.4492 22.52 53.2392 22.79 52.4392 23.3C51.6192 23.83 51.2192 24.57 51.2192 25.5C51.2192 26.13 51.3891 26.67 51.7391 27.1C52.0691 27.53 52.5192 27.85 53.0892 28.07C53.6592 28.29 54.2692 28.4 54.9592 28.4C55.6492 28.4 56.2392 28.28 56.7892 28.07C57.3392 27.85 57.8092 27.52 58.1692 27.04C58.3492 27.46 58.6492 27.76 59.0692 27.96C59.4892 28.18 59.9691 28.28 60.4991 28.28C60.8491 28.28 61.1492 28.23 61.3792 28.11V26.18C61.2492 26.21 61.1091 26.23 60.9991 26.23V26.22ZM55.2192 26.44C54.7392 26.44 54.3492 26.34 54.0992 26.14C53.8492 25.96 53.7192 25.69 53.7192 25.37C53.7192 25.05 53.8891 24.8 54.2391 24.6C54.5691 24.4 55.2092 24.3 56.1392 24.3H57.9092C57.8292 25.02 57.5292 25.55 57.0092 25.9C56.4892 26.25 55.8892 26.43 55.2292 26.43L55.2192 26.44ZM68.1392 18.83C67.5892 18.83 67.0692 18.91 66.5892 19.08C66.0892 19.26 65.6592 19.53 65.3092 19.91V19.04H62.9292V28.2H65.4292V22.95C65.4292 22.4 65.6292 21.95 66.0292 21.63C66.4092 21.31 66.9292 21.15 67.5592 21.15C68.1592 21.15 68.6292 21.3 68.9392 21.6C69.2592 21.92 69.4192 22.35 69.4192 22.92V28.2H71.9192V22.38C71.9192 21.68 71.7492 21.06 71.4392 20.51C71.1292 19.96 70.6691 19.54 70.1091 19.24C69.5291 18.96 68.8792 18.81 68.1392 18.81V18.83ZM81.1091 19.05V19.97C80.4091 19.22 79.4592 18.84 78.2592 18.84C77.3592 18.84 76.5591 19.04 75.8591 19.44C75.1391 19.84 74.5892 20.37 74.2092 21.06C73.8092 21.74 73.6091 22.51 73.6091 23.33C73.6091 24.15 73.8092 24.91 74.2092 25.58C74.5892 26.26 75.1391 26.78 75.8591 27.16C76.5591 27.54 77.3592 27.74 78.2792 27.74C79.4092 27.74 80.3292 27.41 81.0292 26.74V27.24C81.0292 27.86 80.7792 28.36 80.2992 28.71C79.8192 29.06 79.1292 29.24 78.2792 29.24C77.3292 29.24 76.2992 28.99 75.1992 28.51L74.3691 30.56C74.9191 30.81 75.5392 31.01 76.2192 31.16C76.8992 31.31 77.5992 31.39 78.3192 31.39C79.3492 31.39 80.2692 31.22 81.0492 30.89C81.8292 30.56 82.4291 30.07 82.8691 29.46C83.2891 28.84 83.4991 28.13 83.4991 27.29V19.06H81.1191L81.1091 19.05ZM78.5892 25.6C77.8692 25.6 77.2892 25.38 76.8192 24.97C76.3492 24.56 76.1191 24 76.1191 23.32C76.1191 22.64 76.3492 22.09 76.8192 21.67C77.2892 21.25 77.8692 21.04 78.5892 21.04C79.3092 21.04 79.8891 21.26 80.3591 21.67C80.8291 22.08 81.0592 22.64 81.0592 23.32C81.0592 24 80.8292 24.55 80.3792 24.97C79.9091 25.39 79.3092 25.6 78.5992 25.6H78.5892ZM95.1191 23.7C95.1191 22.82 94.9192 22 94.5392 21.25C94.1392 20.52 93.5692 19.93 92.8192 19.48C92.0692 19.05 91.1992 18.83 90.1992 18.83C89.1992 18.83 88.3292 19.05 87.5792 19.48C86.8292 19.91 86.2492 20.5 85.8492 21.23C85.4492 21.96 85.2491 22.76 85.2491 23.65C85.2491 24.54 85.4692 25.35 85.8792 26.07C86.2991 26.8 86.9092 27.39 87.7292 27.8C88.5292 28.22 89.4792 28.43 90.5992 28.43C91.4792 28.43 92.2492 28.3 92.9192 28.03C93.5892 27.78 94.1191 27.45 94.4991 27.03L93.1492 25.35C92.7292 25.67 92.3492 25.9 91.9692 26.05C91.5892 26.2 91.1391 26.28 90.6191 26.28C89.8991 26.28 89.2992 26.13 88.8192 25.83C88.3392 25.53 87.9992 25.1 87.8192 24.55H95.0292C95.0792 24.3 95.1091 24.02 95.1091 23.7H95.1191ZM90.2192 21C90.8392 21 91.3692 21.15 91.7892 21.45C92.2092 21.77 92.4691 22.18 92.6191 22.73H87.7992C87.9492 22.18 88.2492 21.76 88.6692 21.45C89.0892 21.15 89.5992 21 90.2192 21ZM110.439 16.22L107.089 25.57L103.719 16.22H100.899L105.429 28.22H108.649L113.179 16.22H110.429H110.439Z" fill="white"/>
<path d="M122.709 26.2301C122.509 26.2301 122.339 26.1801 122.229 26.0601C122.099 25.9601 122.029 25.7901 122.029 25.5801V22.5801C122.029 21.4001 121.649 20.4801 120.879 19.8101C120.109 19.1601 119.049 18.8301 117.659 18.8301C116.939 18.8301 116.209 18.9301 115.489 19.1101C114.769 19.3101 114.119 19.6101 113.569 20.0301L114.789 21.8801C115.239 21.5601 115.709 21.3501 116.189 21.2001C116.669 21.0701 117.119 21.0001 117.539 21.0001C118.159 21.0001 118.639 21.1301 119.009 21.4001C119.359 21.6801 119.559 22.0501 119.609 22.5301H117.779C116.159 22.5301 114.949 22.8001 114.149 23.3101C113.329 23.8401 112.929 24.5801 112.929 25.5101C112.929 26.1401 113.099 26.6801 113.449 27.1101C113.779 27.5401 114.229 27.8601 114.799 28.0801C115.369 28.3001 115.979 28.4101 116.669 28.4101C117.359 28.4101 117.949 28.2901 118.499 28.0801C119.049 27.8601 119.519 27.5301 119.879 27.0501C120.059 27.4701 120.359 27.7701 120.779 27.9701C121.199 28.1901 121.679 28.2901 122.209 28.2901C122.559 28.2901 122.859 28.2401 123.089 28.1201V26.1901C122.959 26.2201 122.819 26.2401 122.709 26.2401V26.2301ZM116.929 26.4501C116.449 26.4501 116.059 26.3501 115.809 26.1501C115.559 25.9701 115.429 25.7001 115.429 25.3801C115.429 25.0601 115.599 24.8101 115.949 24.6101C116.279 24.4101 116.919 24.3101 117.849 24.3101H119.619C119.539 25.0301 119.239 25.5601 118.719 25.9101C118.199 26.2601 117.599 26.4401 116.939 26.4401L116.929 26.4501ZM129.859 18.8401C129.309 18.8401 128.789 18.9201 128.309 19.0901C127.809 19.2701 127.379 19.5401 127.029 19.9201V19.0501H124.649V28.2101H127.149V22.9601C127.149 22.4101 127.349 21.9601 127.749 21.6401C128.129 21.3201 128.649 21.1601 129.279 21.1601C129.879 21.1601 130.349 21.3101 130.659 21.6101C130.979 21.9301 131.139 22.3601 131.139 22.9301V28.2101H133.639V22.3901C133.639 21.6901 133.469 21.0701 133.159 20.5201C132.849 19.9701 132.389 19.5501 131.829 19.2501C131.249 18.9701 130.599 18.8201 129.859 18.8201V18.8401Z" fill="white"/>
<path d="M135.919 28.21H138.419V19.05H135.919V28.21ZM137.169 18.13C137.589 18.13 137.949 18 138.239 17.73C138.519 17.46 138.659 17.13 138.659 16.71C138.659 16.29 138.529 15.96 138.239 15.69C137.959 15.42 137.589 15.29 137.169 15.29C136.749 15.29 136.399 15.42 136.119 15.69C135.839 15.96 135.689 16.29 135.689 16.71C135.689 17.13 135.839 17.46 136.119 17.73C136.399 18 136.749 18.13 137.169 18.13ZM140.839 15.68V25.89C140.839 26.64 141.089 27.24 141.569 27.67C142.049 28.12 142.689 28.34 143.489 28.34C144.059 28.34 144.519 28.26 144.869 28.11V25.94C144.619 26.04 144.369 26.09 144.119 26.09C143.599 26.09 143.339 25.84 143.339 25.36V15.68H140.839Z" fill="white"/>
<path d="M146.379 15.6799V25.8899C146.379 26.6399 146.629 27.2399 147.109 27.6699C147.589 28.1199 148.229 28.3399 149.029 28.3399C149.599 28.3399 150.059 28.2599 150.409 28.1099V25.9399C150.159 26.0399 149.909 26.0899 149.659 26.0899C149.139 26.0899 148.879 25.8399 148.879 25.3599V15.6799H146.379ZM161.209 26.2299C161.009 26.2299 160.839 26.1799 160.729 26.0599C160.599 25.9599 160.529 25.7899 160.529 25.5799V22.5799C160.529 21.3999 160.149 20.4799 159.379 19.8099C158.609 19.1599 157.549 18.8299 156.159 18.8299C155.439 18.8299 154.709 18.9299 153.989 19.1099C153.269 19.3099 152.619 19.6099 152.069 20.0299L153.289 21.8799C153.739 21.5599 154.209 21.3499 154.689 21.1999C155.169 21.0699 155.619 20.9999 156.039 20.9999C156.659 20.9999 157.139 21.1299 157.509 21.3999C157.859 21.6799 158.059 22.0499 158.109 22.5299H156.279C154.659 22.5299 153.449 22.7999 152.649 23.3099C151.829 23.8399 151.429 24.5799 151.429 25.5099C151.429 26.1399 151.599 26.6799 151.949 27.1099C152.279 27.5399 152.729 27.8599 153.299 28.0799C153.869 28.2999 154.479 28.4099 155.169 28.4099C155.859 28.4099 156.449 28.2899 156.999 28.0799C157.549 27.8599 158.019 27.5299 158.379 27.0499C158.559 27.4699 158.859 27.7699 159.279 27.9699C159.699 28.1899 160.179 28.2899 160.709 28.2899C161.059 28.2899 161.359 28.2399 161.589 28.1199V26.1899C161.459 26.2199 161.319 26.2399 161.209 26.2399V26.2299ZM155.429 26.4499C154.949 26.4499 154.559 26.3499 154.309 26.1499C154.059 25.9699 153.929 25.6999 153.929 25.3799C153.929 25.0599 154.099 24.8099 154.449 24.6099C154.779 24.4099 155.419 24.3099 156.349 24.3099H158.119C158.039 25.0299 157.739 25.5599 157.219 25.9099C156.699 26.2599 156.099 26.4399 155.439 26.4399L155.429 26.4499Z" fill="white"/>
<path d="M86.4296 161.1C86.4296 152.86 79.7495 146.18 71.5195 146.18C63.2895 146.18 56.5996 152.86 56.5996 161.1C56.5996 169.34 63.2795 176.01 71.5195 176.01C79.7595 176.01 86.4296 169.33 86.4296 161.1Z" fill="#F40009"/>
<path d="M77.0092 157.31C77.0092 157.31 76.5093 157.51 75.9293 158.15C75.3393 158.8 74.9992 159.52 75.2492 159.71C75.3492 159.78 75.5693 159.8 75.9793 159.43C76.2893 159.15 76.6193 158.78 76.8393 158.24C77.0993 157.6 77.0092 157.31 77.0092 157.3M80.2093 158.46C79.5593 158.13 79.0893 157.72 78.5993 157.47C78.1193 157.23 77.8193 157.13 77.4393 157.18C77.3693 157.18 77.2792 157.22 77.2792 157.22C77.2792 157.22 77.4793 157.89 76.6993 159.02C75.9093 160.16 75.1892 160.16 74.9892 159.84C74.7692 159.51 75.0492 158.83 75.5092 158.24C75.9892 157.61 76.8393 157.09 76.8393 157.09C76.8393 157.09 76.5692 156.93 75.8992 157.3C75.2592 157.67 74.1392 158.54 73.1092 160.01C72.0792 161.48 71.8693 162.29 71.7193 162.93C71.5693 163.57 71.7092 164.25 72.4092 164.25C73.1092 164.25 73.9393 163.17 74.1793 162.8C74.6093 162.1 74.8893 161.03 74.2993 161.18C74.0093 161.25 73.7792 161.57 73.6292 161.88C73.4792 162.2 73.4193 162.5 73.4193 162.5C73.4193 162.5 73.1693 162.59 72.8393 162.83C72.5193 163.07 72.2993 163.31 72.2993 163.31C72.2993 163.31 72.2993 162.8 72.7093 161.98C73.1193 161.16 73.8592 160.78 74.2792 160.74C74.6592 160.71 75.1592 161.03 74.7392 162.22C74.3192 163.41 73.0792 164.86 71.7792 164.88C70.5892 164.9 69.7993 163.37 71.4693 160.69C73.3093 157.74 75.4793 156.83 76.1893 156.73C76.8893 156.63 77.1192 156.94 77.1192 156.94C77.1192 156.94 77.7093 156.67 78.4493 156.72C79.3193 156.78 79.9792 157.39 80.8592 157.81C80.6292 158.03 80.4093 158.26 80.2093 158.48M84.0693 157.48C83.4793 157.86 82.6492 158.21 81.8592 158.13C81.6592 158.34 81.4493 158.58 81.2293 158.84C82.6093 159.11 83.8093 158.26 84.4493 157.54C84.8493 157.09 85.0392 156.68 85.0392 156.68C85.0392 156.68 84.6593 157.1 84.0693 157.48ZM82.2492 161.35L82.2692 161.29C82.2692 161.29 82.2592 161.18 82.1492 161.17C82.0192 161.17 81.8392 161.19 81.3692 161.71C80.9092 162.22 80.6192 162.67 80.3792 163.12C80.1092 163.61 79.9992 163.97 80.1592 164.07C80.1992 164.09 80.2693 164.1 80.3193 164.08C80.4193 164.06 80.5393 163.96 80.7193 163.75C80.7993 163.65 80.8992 163.52 81.0092 163.36C81.3192 162.94 82.0892 161.61 82.2492 161.34M77.3892 161.9C77.4692 161.7 77.5592 161.3 77.3592 161.14C77.1392 160.97 76.5693 161.36 76.5693 161.77C76.5693 162.18 76.9693 162.37 77.0593 162.39C77.1193 162.41 77.1392 162.41 77.1592 162.36C77.1792 162.33 77.3092 162.11 77.3892 161.9ZM76.9593 162.65C76.9593 162.65 76.7593 162.56 76.5693 162.4C76.3793 162.24 76.2792 162.06 76.2792 162.05C76.2692 162.04 76.2592 162.05 76.2492 162.05C76.2392 162.06 76.2092 162.09 75.9092 162.54C75.6092 162.98 75.1393 163.9 75.5593 164.05C75.8293 164.15 76.2792 163.68 76.5192 163.37C76.7492 163.08 76.9593 162.71 76.9693 162.68C76.9893 162.66 76.9793 162.65 76.9593 162.64M81.7193 163.7C81.5993 163.88 81.4793 164.23 81.8493 164.01C82.3093 163.74 82.9593 162.75 82.9593 162.75H83.2592C83.2592 162.75 82.8692 163.37 82.3592 163.93C81.8992 164.44 81.3293 164.91 80.9293 164.87C80.4693 164.81 80.6092 164.2 80.6092 164.2C80.6092 164.2 79.9393 164.91 79.4793 164.86C78.8593 164.79 79.0493 164.02 79.0493 164.02C79.0493 164.02 78.3492 164.89 77.8692 164.86C77.1092 164.82 77.2992 163.9 77.5092 163.26C77.6192 162.91 77.7293 162.64 77.7293 162.64C77.7293 162.64 77.6492 162.66 77.4892 162.68C77.4092 162.69 77.2492 162.7 77.2492 162.7C77.2492 162.7 76.9393 163.25 76.6893 163.58C76.4393 163.92 75.3792 165.06 74.7492 164.83C74.1692 164.62 74.3593 163.73 74.6993 163.03C75.1893 162 76.5692 160.52 77.3692 160.72C78.1992 160.92 77.3892 162.43 77.3892 162.43C77.3892 162.43 77.3892 162.43 77.3992 162.43C77.4192 162.43 77.4593 162.44 77.5593 162.43C77.7193 162.4 77.8592 162.34 77.8592 162.34C77.8592 162.34 78.6992 160.6 79.6192 159.45C80.5392 158.31 82.3693 156.34 83.0893 156.82C83.2693 156.94 83.1893 157.34 82.9493 157.83C82.8493 157.86 82.7392 157.89 82.6192 157.92C82.7792 157.63 82.8893 157.39 82.9193 157.22C83.0293 156.63 81.6493 157.87 80.6693 159.21C79.6893 160.55 79.0993 161.76 79.0993 161.76C79.0993 161.76 79.2893 161.65 79.5993 161.4C79.9293 161.14 80.3693 160.73 80.8493 160.23C81.1793 159.9 81.5593 159.48 81.9193 159.01C82.0193 159.01 82.1293 158.99 82.2293 158.98C81.8293 159.52 81.4093 160.01 81.0493 160.37C80.6693 160.77 80.2392 161.19 79.8692 161.5C79.2792 161.99 78.8293 162.28 78.8293 162.28C78.8293 162.28 77.9693 164.01 78.4293 164.13C78.7093 164.19 79.2492 163.36 79.2492 163.36C79.2492 163.36 79.9592 162.28 80.3892 161.79C80.9692 161.13 81.4693 160.75 81.9793 160.74C82.2693 160.74 82.4393 161.04 82.4393 161.04L82.5793 160.83H83.4293C83.4293 160.83 81.8493 163.51 81.7193 163.71M84.0693 157.47C83.4793 157.85 82.6492 158.2 81.8592 158.12C81.6592 158.33 81.4493 158.57 81.2293 158.83C82.6093 159.1 83.8093 158.25 84.4493 157.53C84.8493 157.08 85.0392 156.67 85.0392 156.67C85.0392 156.67 84.6593 157.09 84.0693 157.47ZM72.1893 158.79H71.3892L70.9393 159.53H71.7392L72.1893 158.79ZM68.3892 161.34C68.7292 160.87 69.6693 159.23 69.6693 159.23C69.6693 159.23 69.6593 159.12 69.5493 159.11C69.4093 159.11 69.1992 159.15 68.7692 159.69C68.3292 160.23 67.9992 160.67 67.7492 161.11C67.4792 161.6 67.3692 161.94 67.5192 162.04C67.5592 162.06 67.6293 162.07 67.6793 162.06C67.7793 162.03 67.9093 161.93 68.0893 161.73C68.1793 161.63 68.2692 161.5 68.3892 161.35M64.0693 159.13C63.8493 158.96 63.2792 159.35 63.2792 159.76C63.2692 160.17 63.7893 160.29 63.8493 160.29C63.8493 160.29 63.9093 160.3 63.9293 160.26C63.9493 160.23 64.0193 160.1 64.0993 159.9C64.1793 159.69 64.2793 159.29 64.0693 159.14M63.7293 160.56C63.7293 160.56 63.4993 160.49 63.2993 160.36C63.0893 160.23 62.9892 160.03 62.9892 160.02C62.9792 160 62.9693 160.02 62.9593 160.02C62.9493 160.03 62.9093 160.09 62.5993 160.53C62.2993 160.97 61.8592 161.88 62.2792 162.04C62.5392 162.14 62.9892 161.67 63.2392 161.36C63.4692 161.07 63.7392 160.62 63.7492 160.6C63.7592 160.57 63.7493 160.57 63.7293 160.56ZM70.3093 160.83H70.5993C70.5993 160.83 69.1292 162.96 68.2892 162.87C67.8292 162.82 67.9593 162.24 67.9593 162.24C67.9593 162.24 67.3093 163.01 66.7093 162.85C66.1593 162.71 66.5092 161.8 66.5092 161.8C66.4492 161.83 65.2693 163.16 64.4393 162.84C63.5793 162.51 64.0293 161.39 64.1893 161.06C64.3293 160.78 64.4892 160.51 64.4892 160.51C64.4892 160.51 64.3492 160.55 64.2692 160.57C64.1892 160.59 64.0593 160.61 64.0593 160.61C64.0593 160.61 63.6492 161.28 63.3992 161.61C63.1492 161.94 62.0893 163.09 61.4593 162.86C60.8293 162.63 60.9893 161.75 61.3393 161.06C61.9093 159.93 63.2693 158.54 64.0793 158.74C64.9093 158.95 64.2293 160.29 64.2293 160.29C64.2293 160.29 64.3892 160.31 64.7792 160.04C65.3492 159.65 66.0992 158.62 66.9092 158.74C67.2892 158.8 67.6392 159.19 67.1592 159.93C66.9992 160.17 66.7392 160.38 66.5392 160.17C66.4192 160.04 66.5292 159.8 66.6592 159.64C66.8392 159.41 67.0993 159.44 67.0993 159.44C67.0993 159.44 67.2292 159.13 66.8892 159.14C66.6092 159.14 65.9192 159.79 65.5192 160.44C65.1592 161.03 64.6192 162.05 65.1592 162.27C65.6692 162.47 66.6293 161.33 67.0693 160.74C67.5093 160.14 68.5192 158.79 69.3692 158.74C69.6592 158.72 69.8393 158.98 69.8393 158.98L69.9393 158.82H70.7792C70.7792 158.82 69.1893 161.49 69.0593 161.69C68.9593 161.85 68.8293 162.2 69.1893 162C69.5593 161.8 70.3093 160.83 70.3093 160.83ZM69.8493 165.1C69.1993 164.65 68.4193 164.45 67.7093 164.48C66.9993 164.51 66.6693 165.04 66.6693 165.04C66.3493 164.48 65.7093 164.13 64.7193 164.14C63.1193 164.16 61.5392 164.9 60.2792 164.9C59.0192 164.9 58.1993 164.14 58.2293 162.8C58.2793 160.44 60.2692 158.32 61.7592 157.36C62.6092 156.81 63.3293 156.65 63.7993 156.7C64.1393 156.74 64.5492 157.13 64.2892 157.71C63.9092 158.57 63.3892 158.49 63.4092 158.09C63.4192 157.82 63.5893 157.66 63.7193 157.57C63.8093 157.51 63.9592 157.5 64.0292 157.5C64.1092 157.44 64.1693 156.97 63.5493 157.12C62.9393 157.27 62.1992 157.88 61.4992 158.65C60.7992 159.43 59.6993 160.9 59.4293 162.44C59.2993 163.16 59.3893 164.46 61.0893 164.45C62.5193 164.44 64.6393 163.49 66.5893 163.51C67.3493 163.51 68.0092 163.72 68.5192 164.04C69.0292 164.35 69.6293 164.8 69.8493 165.11" fill="white"/>
<path d="M83.7391 163.39C83.5891 163.39 83.4592 163.42 83.3292 163.49C83.2092 163.56 83.1092 163.65 83.0392 163.77C82.9692 163.89 82.9292 164.02 82.9292 164.16C82.9292 164.3 82.9592 164.43 83.0392 164.55C83.1092 164.67 83.2092 164.76 83.3292 164.83C83.4492 164.9 83.5891 164.94 83.7391 164.94C83.8891 164.94 84.0292 164.91 84.1492 164.83C84.2692 164.76 84.3692 164.67 84.4392 164.55C84.5092 164.43 84.5492 164.3 84.5492 164.16C84.5492 164.02 84.5192 163.89 84.4392 163.77C84.3692 163.65 84.2792 163.56 84.1492 163.49C84.0292 163.42 83.8891 163.39 83.7391 163.39ZM83.7391 164.79C83.6191 164.79 83.5092 164.76 83.4092 164.71C83.3092 164.66 83.2392 164.58 83.1892 164.49C83.1392 164.4 83.1091 164.29 83.1091 164.17C83.1091 164.05 83.1392 163.95 83.1892 163.85C83.2392 163.76 83.3192 163.68 83.4092 163.63C83.5092 163.58 83.6091 163.55 83.7391 163.55C83.8691 163.55 83.9692 163.58 84.0692 163.63C84.1692 163.68 84.2392 163.76 84.2892 163.85C84.3392 163.94 84.3691 164.05 84.3691 164.17C84.3691 164.29 84.3392 164.4 84.2892 164.49C84.2392 164.58 84.1592 164.66 84.0692 164.71C83.9692 164.76 83.8591 164.79 83.7391 164.79ZM84.0692 164.03C84.0692 163.97 84.0492 163.91 84.0092 163.87C83.9692 163.83 83.9092 163.81 83.8492 163.81H83.4392V164.51H83.6191V164.25H83.7592L83.9192 164.51H84.1191L83.9392 164.24C83.9392 164.24 84.0092 164.19 84.0392 164.15C84.0592 164.11 84.0692 164.07 84.0692 164.03ZM83.6191 163.96H83.8092C83.8092 163.96 83.8491 163.96 83.8591 163.98C83.8691 163.99 83.8792 164.01 83.8792 164.03C83.8792 164.05 83.8791 164.07 83.8591 164.08C83.8491 164.09 83.8292 164.1 83.8092 164.1H83.6191V163.96Z" fill="white"/>
<path d="M91.4497 159.39V160.79H93.7496V161.72H91.4497V164.14H90.4097V158.46H94.7897V159.39H91.4497Z" fill="white"/>
<path d="M100.819 163.2V164.14H96.5093V158.46H97.5493V163.2H100.819Z" fill="white"/>
<path d="M105.89 161.86L104.92 159.36L103.96 161.86H105.89ZM106.23 162.77H103.609L103.09 164.13H102L104.29 158.45H105.57L107.859 164.13H106.76L106.23 162.77Z" fill="white"/>
<path d="M114.039 158.46L111.849 164.14H110.569L108.379 158.46H109.509L111.219 163.1L112.939 158.46H114.039Z" fill="white"/>
<path d="M119.109 163.03C119.399 162.86 119.629 162.63 119.789 162.32C119.949 162.02 120.029 161.68 120.029 161.29C120.029 160.9 119.949 160.56 119.789 160.26C119.629 159.96 119.399 159.72 119.109 159.55C118.819 159.38 118.489 159.3 118.119 159.3C117.749 159.3 117.429 159.38 117.139 159.55C116.849 159.72 116.629 159.95 116.459 160.26C116.299 160.56 116.219 160.9 116.219 161.29C116.219 161.68 116.299 162.02 116.459 162.32C116.629 162.62 116.849 162.86 117.139 163.03C117.429 163.2 117.759 163.28 118.119 163.28C118.479 163.28 118.819 163.2 119.109 163.03ZM116.579 163.86C116.129 163.61 115.769 163.26 115.519 162.82C115.259 162.37 115.129 161.87 115.129 161.3C115.129 160.73 115.259 160.22 115.519 159.78C115.769 159.33 116.129 158.99 116.579 158.73C117.039 158.48 117.549 158.36 118.119 158.36C118.689 158.36 119.209 158.48 119.669 158.73C120.119 158.98 120.469 159.33 120.729 159.78C120.989 160.23 121.109 160.73 121.109 161.3C121.109 161.87 120.989 162.38 120.729 162.82C120.469 163.27 120.119 163.61 119.669 163.86C119.209 164.11 118.699 164.24 118.119 164.24C117.539 164.24 117.039 164.12 116.579 163.86Z" fill="white"/>
<path d="M123.989 160.94H125.849C126.119 160.94 126.339 160.87 126.499 160.73C126.649 160.59 126.729 160.4 126.729 160.16C126.729 159.92 126.649 159.74 126.499 159.6C126.339 159.46 126.119 159.39 125.849 159.39H123.989V160.94ZM125.459 161.86H123.989V164.13H122.959V158.46H126.019C126.379 158.46 126.689 158.54 126.959 158.68C127.219 158.83 127.429 159.04 127.569 159.29C127.709 159.55 127.779 159.84 127.779 160.15C127.779 160.54 127.669 160.88 127.459 161.18C127.249 161.48 126.949 161.68 126.569 161.78L128.159 164.12H126.949L125.459 161.85V161.86Z" fill="white"/>
<path d="M130.489 163.98C130.029 163.83 129.649 163.62 129.359 163.35L129.999 162.55C130.279 162.79 130.579 162.97 130.909 163.09C131.239 163.21 131.589 163.27 131.939 163.27C132.319 163.27 132.619 163.2 132.859 163.05C133.089 162.9 133.209 162.71 133.209 162.48C133.209 162.31 133.139 162.17 132.989 162.05C132.849 161.94 132.619 161.84 132.289 161.78L131.099 161.55C130.589 161.45 130.199 161.27 129.939 161.01C129.679 160.75 129.549 160.43 129.549 160.05C129.549 159.7 129.659 159.4 129.859 159.14C130.059 158.88 130.339 158.68 130.699 158.54C131.059 158.4 131.469 158.33 131.919 158.33C132.339 158.33 132.739 158.39 133.139 158.52C133.529 158.64 133.869 158.84 134.159 159.11L133.559 159.87C133.309 159.67 133.039 159.51 132.759 159.41C132.469 159.31 132.179 159.26 131.879 159.26C131.519 159.26 131.219 159.33 130.979 159.46C130.739 159.59 130.619 159.76 130.619 159.97C130.619 160.11 130.689 160.23 130.819 160.33C130.949 160.43 131.179 160.51 131.509 160.57L132.639 160.78C133.179 160.88 133.589 161.08 133.869 161.37C134.139 161.66 134.279 162 134.279 162.4C134.279 162.75 134.189 163.06 133.999 163.33C133.799 163.6 133.539 163.81 133.189 163.96C132.839 164.11 132.429 164.18 131.969 164.18C131.439 164.18 130.949 164.1 130.489 163.95" fill="white"/>
<path d="M102.449 64.91H97.2593L94.3394 69.66H99.5193L102.449 64.91Z" fill="white"/>
<path d="M133.469 55.36C133.469 55.36 130.229 56.65 126.469 60.8C122.689 64.96 120.519 69.62 122.139 70.86C122.759 71.33 124.199 71.41 126.809 69.06C128.849 67.23 130.919 64.83 132.319 61.4C134.009 57.29 133.469 55.41 133.469 55.36ZM154.079 62.82C149.899 60.68 146.839 58.06 143.659 56.43C140.619 54.87 138.659 54.22 136.209 54.55C135.799 54.6 135.189 54.8 135.189 54.8C135.189 54.8 136.459 59.11 131.439 66.37C126.349 73.72 121.719 73.68 120.409 71.65C119.029 69.52 120.809 65.17 123.769 61.31C126.879 57.27 132.329 53.91 132.329 53.91C132.329 53.91 130.589 52.85 126.319 55.27C122.159 57.63 114.969 63.24 108.329 72.72C101.679 82.19 100.359 87.41 99.3993 91.51C98.4393 95.61 99.3193 100 103.869 100C108.419 100 113.709 93.06 115.199 90.64C117.969 86.15 119.779 79.25 116.009 80.2C114.139 80.67 112.639 82.73 111.689 84.72C110.709 86.76 110.319 88.71 110.319 88.71C110.319 88.71 108.749 89.27 106.639 90.85C104.519 92.43 103.139 93.94 103.139 93.94C103.139 93.94 103.149 90.66 105.769 85.35C108.379 80.04 113.179 77.61 115.889 77.39C118.339 77.19 121.529 79.27 118.829 86.95C116.139 94.63 108.179 103.94 99.8094 104.06C92.0794 104.17 87.0193 94.32 97.7693 77.11C109.649 58.08 123.609 52.24 128.139 51.59C132.669 50.94 134.139 52.94 134.139 52.94C134.139 52.94 137.939 51.18 142.759 51.51C148.289 51.89 152.579 55.8 158.219 58.55C156.739 59.98 155.339 61.45 154.079 62.83M178.929 56.41C175.099 58.88 169.789 61.11 164.699 60.62C163.409 61.96 162.029 63.5 160.639 65.19C169.489 66.93 177.219 61.45 181.339 56.79C183.909 53.88 185.179 51.28 185.179 51.28C185.179 51.28 182.729 53.98 178.929 56.43M167.179 81.35C167.289 81.16 167.339 80.98 167.339 80.98C167.339 80.98 167.239 80.24 166.529 80.2C165.689 80.16 164.539 80.32 161.529 83.66C158.529 86.98 156.709 89.87 155.129 92.75C153.409 95.9 152.709 98.25 153.699 98.85C153.979 99.02 154.399 99.04 154.739 98.96C155.419 98.8 156.179 98.17 157.339 96.83C157.879 96.2 158.479 95.31 159.199 94.33C161.179 91.62 166.179 83.07 167.179 81.35ZM135.879 85C136.389 83.68 137.019 81.1 135.689 80.09C134.259 79.01 130.619 81.54 130.599 84.13C130.579 86.78 133.169 87.98 133.789 88.15C134.139 88.25 134.269 88.23 134.439 87.95C134.549 87.76 135.379 86.32 135.879 85.01M133.129 89.83C133.039 89.8 131.859 89.26 130.629 88.23C129.409 87.21 128.789 86.04 128.739 85.95C128.689 85.86 128.639 85.93 128.579 86C128.529 86.07 128.309 86.27 126.359 89.13C124.409 91.99 121.439 97.88 124.139 98.88C125.869 99.52 128.749 96.49 130.319 94.48C131.779 92.61 133.149 90.24 133.219 90.07C133.299 89.9 133.229 89.86 133.129 89.83ZM163.769 96.63C163.039 97.81 162.209 100.05 164.629 98.65C167.579 96.94 171.779 90.57 171.779 90.57H173.679C173.679 90.57 171.179 94.53 167.909 98.15C164.919 101.46 161.269 104.48 158.699 104.18C155.699 103.83 156.639 99.89 156.639 99.89C156.639 99.89 152.329 104.46 149.369 104.14C145.369 103.7 146.579 98.74 146.579 98.74C146.579 98.74 142.049 104.32 138.959 104.14C134.109 103.86 135.329 97.95 136.679 93.81C137.399 91.59 138.069 89.84 138.069 89.84C138.069 89.84 137.579 89.97 136.549 90.12C136.019 90.2 135.029 90.25 135.029 90.25C135.029 90.25 133.019 93.82 131.399 95.96C129.789 98.1 122.929 105.48 118.889 104C115.159 102.64 116.389 96.92 118.559 92.38C121.729 85.76 130.649 76.24 135.789 77.48C141.119 78.77 135.919 88.51 135.919 88.51C135.919 88.51 135.919 88.55 135.979 88.57C136.079 88.61 136.359 88.64 136.999 88.52C138.029 88.33 138.949 87.94 138.949 87.94C138.949 87.94 144.309 76.71 150.229 69.36C156.149 62.01 167.959 49.36 172.609 52.42C173.739 53.17 173.219 55.76 171.699 58.91C171.019 59.12 170.319 59.31 169.609 59.46C170.629 57.6 171.299 56.04 171.499 54.95C172.199 51.15 163.339 59.16 157.009 67.77C150.679 76.39 146.879 84.18 146.879 84.18C146.879 84.18 148.159 83.46 150.149 81.85C152.229 80.18 155.089 77.55 158.189 74.34C160.279 72.18 162.739 69.47 165.029 66.44C165.719 66.41 166.389 66.34 167.049 66.23C164.489 69.69 161.789 72.84 159.499 75.16C156.979 77.71 154.239 80.47 151.859 82.47C148.089 85.65 145.169 87.45 145.169 87.45C145.169 87.45 139.619 98.61 142.639 99.33C144.409 99.75 147.899 94.36 147.899 94.36C147.899 94.36 152.459 87.39 155.209 84.26C158.959 79.99 162.189 77.52 165.419 77.47C167.299 77.44 168.409 79.44 168.409 79.44L169.299 78.07H174.749C174.749 78.07 164.579 95.34 163.769 96.64M178.929 56.46C175.099 58.93 169.789 61.16 164.699 60.67C163.409 62.01 162.029 63.55 160.639 65.24C169.489 66.98 177.219 61.5 181.339 56.84C183.909 53.93 185.179 51.33 185.179 51.33C185.179 51.33 182.729 54.03 178.929 56.48M77.9193 81.39C80.1293 78.37 86.1994 67.78 86.1994 67.78C86.1994 67.78 86.0993 67.04 85.3893 67.01C84.5493 66.97 83.1593 67.25 80.3593 70.74C77.5693 74.23 75.4194 77.01 73.8394 79.9C72.1094 83.05 71.3594 85.28 72.3494 85.88C72.6294 86.05 73.0493 86.07 73.3893 85.99C74.0393 85.83 74.8793 85.18 76.0393 83.84C76.5893 83.21 77.1993 82.38 77.9193 81.39ZM50.1193 67.09C48.6893 66.01 45.0393 68.54 45.0193 71.13C44.9993 73.78 48.3193 74.54 48.7393 74.56C48.7393 74.56 49.1193 74.66 49.2593 74.35C49.3593 74.16 49.8094 73.33 50.3094 72.01C50.8094 70.69 51.4493 68.11 50.1193 67.1M47.9594 76.23C47.8594 76.2 46.4893 75.8 45.1493 74.94C43.8093 74.08 43.1893 72.81 43.1393 72.72C43.0893 72.63 43.0393 72.7 42.9893 72.77C42.9293 72.84 42.6394 73.21 40.6994 76.07C38.7494 78.93 35.8694 84.78 38.5694 85.78C40.2994 86.42 43.2093 83.38 44.7793 81.37C46.2393 79.5 47.9693 76.63 48.0493 76.46C48.1193 76.29 48.0494 76.25 47.9594 76.21M90.2893 77.95H92.1894C92.1894 77.95 82.6794 91.7 77.3094 91.08C74.3094 90.73 75.1994 87.03 75.1994 87.03C75.1994 87.03 70.9693 91.97 67.1193 90.98C63.6093 90.08 65.8693 84.24 65.8693 84.24C65.4693 84.4 57.8793 92.97 52.5493 90.92C46.9593 88.77 49.8593 81.6 50.9193 79.44C51.8193 77.62 52.8094 75.85 52.8094 75.85C52.8094 75.85 51.9493 76.09 51.4193 76.22C50.8893 76.34 50.0794 76.5 50.0794 76.5C50.0794 76.5 47.4394 80.79 45.8294 82.94C44.2194 85.08 37.3594 92.45 33.3094 90.98C29.2694 89.51 30.2693 83.86 32.5393 79.36C36.2193 72.07 44.9594 63.12 50.2194 64.46C55.5294 65.81 51.1393 74.44 51.1393 74.44C51.1393 74.44 52.1994 74.58 54.7294 72.85C58.3794 70.36 63.1893 63.66 68.4093 64.44C70.8593 64.81 73.1393 67.32 70.0193 72.1C69.0193 73.63 67.3494 75 66.0594 73.65C65.2594 72.81 65.9593 71.27 66.7993 70.22C67.9793 68.73 69.6093 68.93 69.6093 68.93C69.6093 68.93 70.4693 66.95 68.2893 66.99C66.5093 67.02 62.0193 71.16 59.4893 75.34C57.1593 79.18 53.6393 85.72 57.1793 87.14C60.4293 88.45 66.5894 81.12 69.4494 77.28C72.3094 73.44 78.8093 64.73 84.2693 64.38C86.1493 64.26 87.2693 65.97 87.2693 65.97L87.8993 64.97H93.3593C93.3593 64.97 83.0793 82.14 82.2693 83.44C81.6393 84.46 80.7993 86.75 83.1293 85.46C85.4493 84.17 90.2893 77.95 90.2893 77.95ZM87.3294 105.47C83.1994 102.57 78.1694 101.29 73.5994 101.47C68.9794 101.66 66.8993 105.11 66.8993 105.11C64.8093 101.47 60.6894 99.24 54.3194 99.3C44.0394 99.42 33.8193 104.17 25.7393 104.17C17.6593 104.17 12.3293 99.3 12.5093 90.64C12.8393 75.46 25.6593 61.79 35.2393 55.63C40.7493 52.09 45.3693 51.04 48.3893 51.38C50.5893 51.62 53.2394 54.17 51.5694 57.91C49.1194 63.4 45.7294 62.94 45.8494 60.32C45.9194 58.62 47.0493 57.54 47.8993 56.96C48.4493 56.58 49.3993 56.48 49.8993 56.47C50.3793 56.06 50.7594 53.06 46.8094 54.05C42.8594 55.04 38.1094 58.92 33.5794 63.92C29.0494 68.92 21.9993 78.39 20.2593 88.33C19.4493 92.94 19.9993 101.34 30.9093 101.24C40.1693 101.16 53.8293 95.06 66.3793 95.17C71.2493 95.21 75.4893 96.52 78.7993 98.57C82.0493 100.58 85.9494 103.5 87.3294 105.49" fill="white"/>
<path d="M174.389 97.91C173.669 97.91 173.029 98.07 172.439 98.4C171.849 98.74 171.389 99.19 171.049 99.76C170.709 100.33 170.549 100.96 170.549 101.62C170.549 102.28 170.709 102.93 171.049 103.48C171.389 104.05 171.849 104.5 172.439 104.83C173.029 105.17 173.669 105.33 174.389 105.33C175.109 105.33 175.759 105.17 176.349 104.83C176.939 104.5 177.379 104.05 177.719 103.48C178.059 102.92 178.219 102.3 178.219 101.62C178.219 100.94 178.059 100.33 177.719 99.76C177.379 99.19 176.929 98.74 176.349 98.4C175.759 98.07 175.109 97.91 174.389 97.91ZM174.389 104.62C173.799 104.62 173.269 104.48 172.819 104.23C172.359 103.97 171.999 103.62 171.739 103.17C171.479 102.72 171.359 102.2 171.359 101.63C171.359 101.06 171.479 100.55 171.739 100.11C171.999 99.67 172.349 99.29 172.819 99.03C173.279 98.77 173.799 98.65 174.389 98.65C174.979 98.65 175.489 98.77 175.959 99.03C176.419 99.29 176.779 99.66 177.039 100.11C177.299 100.56 177.419 101.08 177.419 101.63C177.419 102.18 177.299 102.72 177.039 103.17C176.779 103.62 176.429 103.97 175.979 104.23C175.519 104.49 174.989 104.62 174.399 104.62H174.389ZM175.999 100.97C175.999 100.67 175.899 100.41 175.709 100.21C175.509 100.01 175.249 99.91 174.919 99.91H172.969V103.27H173.829V102.05H174.479L175.269 103.27H176.249L175.369 101.96C175.569 101.86 175.719 101.73 175.829 101.55C175.939 101.37 175.989 101.18 175.989 100.96L175.999 100.97ZM173.839 100.64H174.769C174.879 100.64 174.959 100.67 175.029 100.72C175.099 100.79 175.129 100.87 175.129 100.96C175.129 101.05 175.099 101.14 175.029 101.19C174.959 101.26 174.879 101.29 174.769 101.29H173.839V100.64Z" fill="white"/>
</svg>
