<svg width="191" height="190" viewBox="0 0 191 190" fill="none" xmlns="http://www.w3.org/2000/svg">
<path d="M190.6 0H0.680176V189.92H190.6V0Z" fill="#EDEDED"/>
<path d="M156.29 69.36C160.49 69.36 162.34 74 162.34 78.09C162.34 85.42 151.88 85.37 149.63 85.37C149.63 72.32 153.29 69.35 156.29 69.35M159.51 99.7599C150.96 99.7599 150.31 91.06 149.87 88.96C155.03 88.96 172.44 88.96 172.45 78.04C172.45 70.22 163.9 66.37 157.28 66.37C144.83 66.37 136.85 73.86 136.85 86.59C136.85 94.96 140.48 98.6 141.62 99.84C142.76 101.01 144.32 102.28 146.38 103.33C148.24 104.21 151.53 105.33 156.13 105.34C169.3 105.34 172.76 95.2199 173.21 93.8799C173.21 93.8799 168.07 99.7699 159.52 99.7599" fill="#F40009"/>
<path d="M81.4301 102.42C73.8701 102.42 73.7101 90.0499 73.7201 85.3199C73.7201 82.4099 73.6401 69.06 81.8601 69.06C89.0601 69.06 89.4601 80.52 89.4501 85.74C89.4501 90.96 88.7801 102.41 81.4301 102.41M82.3901 66.1899C71.7201 66.1799 61.1101 72.2799 61.0901 85.8199C61.0901 87.1299 61.2501 88.59 61.4601 89.71C61.5801 90.37 61.9001 91.57 62.2301 92.65C59.8001 95.85 55.1401 100.48 48.2901 100.48C38.8701 100.48 32.1301 93.73 32.1401 77.65C32.1501 61.57 38.4601 53.17 46.9301 53.17C57.7801 53.17 62.6101 65.69 63.4101 67.55V53.52L57.5201 51.5699C55.5401 50.9099 53.5101 50.4 51.4501 50.09C49.9401 49.86 48.2901 49.71 46.4601 49.71C29.9301 49.71 17.8601 62.29 17.8501 78.55C17.8301 94.72 28.8001 105.56 44.6201 105.56C55.6101 105.56 61.4801 99.96 64.0401 96.68C66.0801 99.85 71.1101 105.29 81.5301 105.3C95.9401 105.3 103.23 96.07 103.23 85.46C103.24 74.89 96.3701 66.19 82.4001 66.18" fill="#F40009"/>
<path d="M139.92 65.92H132.92L128.18 71.45C128.07 71.6 127.95 71.75 127.8 71.92C127.41 72.37 122.17 78.4999 119.32 81.8199L117.55 83.89C117.55 83.89 117.53 83.91 117.53 83.92V83.9L117.51 83.92L117.53 52.35H105.61V58.27C105.61 59.73 105.59 104.17 105.59 104.17H117.51V92L120.29 88.78L129.06 104.18H141.06L127.1 80.78L139.92 65.9399V65.92Z" fill="#F40009"/>
<path d="M136.78 48.83C136.6 49.1 136.43 49.42 136.1 50.07C135.77 50.71 135.11 52.58 134.58 53.87C133.65 56.12 132.25 58.13 130.54 59.55C129.12 60.75 128.39 61.25 127.24 61.65C127.24 61.65 127.67 61.81 128.66 61.86C132.46 62.02 135.67 60.33 137.48 57.79C139.15 55.43 140.36 52.25 138.43 49.37C136.62 46.67 128.68 45.58 124.37 49.28C122 51.32 122.82 54.41 126.18 53.11C126.77 52.85 127.31 52.4 127.52 51.99C129.45 52.7 131.76 51.2 131.76 51.2C131.76 51.2 130.12 54.88 126.13 55.41C122.06 55.95 120.91 53.81 120.96 52.32C121.36 47.32 131.19 44.4 137.06 46.95C141.87 49.04 142.89 52.72 141.91 55.65C140.46 59.97 136.77 61.82 133.26 62.57C129.49 63.39 126.4 62.65 125.39 62.39C124.95 62.27 124.75 62.14 124.75 62.14C124.75 62.14 126.09 61.22 127.38 59.66C128.47 58.34 129.6 56.74 130.4 55.37C132.25 52.21 134.69 49.69 136.79 48.83M149.11 49.44C149.47 50.07 149.06 50.92 148.34 51.34C147.61 51.77 146.65 51.67 146.29 51.04C145.93 50.41 146.29 49.58 147.07 49.13C147.85 48.69 148.75 48.82 149.11 49.45M146.38 60.11C145.53 60.98 144.65 61.77 143.63 62.31C142.79 62.67 141.74 63.04 140.93 62.38C140.54 62.02 140.51 61.42 140.64 60.92C140.79 60.39 141.07 59.9 141.33 59.42C141.33 59.42 144.8 53.06 144.83 53C144.87 52.93 144.94 52.93 144.94 52.93C145.56 52.93 147.41 52.93 147.5 52.93C147.56 52.93 147.52 53.05 147.52 53C147.55 52.96 146.32 55.26 146.32 55.26C146.32 55.26 143.71 60.08 143.6 60.28C143.34 60.78 143.57 61.16 144.32 60.69C145.24 60.11 145.73 59.51 146.28 58.79C147.02 57.83 147.43 56.54 148.7 55.19C149.94 53.87 150.93 53.26 151.98 52.9C153.19 52.48 154.53 52.77 154.86 53.67C155.14 54.43 154.72 55.49 154.18 56.12C152.9 57.59 151.15 58.39 149.34 58.8C149.03 59.24 148.53 61.04 150.15 61.01C151.06 60.98 151.81 60.48 152.63 59.95C154.05 58.95 155.35 57.69 156.27 56.26C156.71 55.48 157.2 54.68 157.58 53.89H155.99L156.55 52.92H158.12L159.87 49.85H162.45C162.45 49.85 160.97 52.65 160.83 52.92C161.21 52.92 162.81 52.92 162.81 52.92L162.33 53.89H160.31L160.04 54.31C160.04 54.31 157.89 58.29 157.14 59.65C156.51 60.77 156.98 60.95 157.45 60.75C158.07 60.49 158.85 59.65 159.12 59.38C159.59 58.83 160.06 58.29 160.45 57.72C160.81 57.72 161.31 57.72 161.46 57.72C160.24 59.73 158.36 62.04 155.99 62.67C155.35 62.77 154.57 62.79 154.12 62.3C153.68 61.84 153.71 61.08 153.93 60.53C154 60.35 154.09 60.15 154.14 60.08C154.17 60.01 154.13 59.97 154.05 60.05C152.59 61.41 150.8 62.73 148.82 62.75C148.02 62.75 147.1 62.4 146.7 61.61C146.3 60.83 146.39 60.3 146.39 60.1M151.21 55.71C150.78 56.19 150.31 56.84 149.95 57.6C149.95 57.6 152.11 57.05 153.29 55.55C153.54 55.21 154 54.6 153.7 54.23C153.61 54.11 152.98 53.73 151.22 55.71" fill="#F40009"/>
<path d="M175.88 97.4399C175.11 97.4399 174.42 97.62 173.79 97.97C173.16 98.34 172.67 98.82 172.3 99.43C171.93 100.04 171.76 100.72 171.76 101.43C171.76 102.14 171.94 102.83 172.3 103.43C172.67 104.04 173.16 104.53 173.79 104.88C174.42 105.25 175.1 105.42 175.88 105.42C176.66 105.42 177.35 105.24 177.98 104.88C178.61 104.53 179.09 104.05 179.45 103.43C179.82 102.83 179.99 102.16 179.99 101.43C179.99 100.7 179.81 100.04 179.45 99.43C179.09 98.82 178.6 98.33 177.98 97.97C177.35 97.62 176.65 97.4399 175.88 97.4399ZM175.88 104.64C175.25 104.64 174.68 104.49 174.2 104.22C173.7 103.94 173.32 103.56 173.05 103.08C172.78 102.6 172.64 102.04 172.64 101.43C172.64 100.82 172.77 100.28 173.05 99.79C173.33 99.3 173.71 98.91 174.2 98.64C174.69 98.37 175.25 98.23 175.88 98.23C176.51 98.23 177.06 98.36 177.56 98.64C178.06 98.92 178.44 99.31 178.71 99.79C178.98 100.27 179.12 100.83 179.12 101.43C179.12 102.03 178.99 102.6 178.71 103.08C178.43 103.56 178.05 103.94 177.57 104.22C177.07 104.5 176.5 104.64 175.88 104.64ZM177.6 100.73C177.6 100.41 177.5 100.13 177.29 99.91C177.07 99.69 176.79 99.59 176.44 99.59H174.35V103.2H175.27V101.89H175.97L176.82 103.2H177.87L176.92 101.8C177.14 101.7 177.3 101.55 177.42 101.36C177.54 101.17 177.6 100.97 177.6 100.73ZM175.28 100.38H176.27C176.39 100.38 176.47 100.41 176.55 100.47C176.62 100.54 176.65 100.63 176.65 100.73C176.65 100.83 176.62 100.92 176.55 100.98C176.48 101.05 176.39 101.08 176.27 101.08H175.28V100.38Z" fill="#F40009"/>
</svg>
