<svg width="191" height="190" viewBox="0 0 191 190" fill="none" xmlns="http://www.w3.org/2000/svg">
<path d="M190.64 0H0.719727V189.92H190.64V0Z" fill="#871555"/>
<path d="M190.64 0H0.719727V75.97H190.64V0Z" fill="#CDA075"/>
<path d="M35.3294 127.37L41.2994 121.01V118.73H31.9394V121.18H37.6494L31.6494 127.57V129.82H41.5294V127.37H35.3294ZM54.3494 127.37H47.8394V125.4H52.2294V122.92H47.8394V121.18H54.1994L54.5194 118.73H45.0094V129.82H54.6794L54.3594 127.37H54.3494ZM65.4994 129.82H68.7494L65.7294 125.49C66.4094 125.23 66.9294 124.81 67.3194 124.23C67.6894 123.66 67.8694 123 67.8694 122.26C67.8694 121.61 67.7294 121.03 67.4394 120.49C67.1494 119.95 66.7194 119.54 66.1494 119.21C65.5794 118.89 64.9194 118.73 64.1494 118.73H57.8394V129.82H60.6394V125.77H62.8094L65.4994 129.82ZM60.6294 121.2H63.7694C64.1394 121.2 64.4294 121.29 64.6594 121.49C64.8794 121.69 64.9794 121.94 64.9794 122.26C64.9794 122.58 64.8694 122.85 64.6594 123.05C64.4294 123.25 64.1394 123.34 63.7694 123.34H60.6294V121.2Z" fill="black"/>
<path d="M76.8795 130.01C75.7095 130.01 74.6595 129.76 73.7395 129.27C72.8195 128.79 72.0895 128.12 71.5795 127.24C71.0595 126.36 70.7896 125.38 70.7896 124.27C70.7896 123.16 71.0495 122.18 71.5795 121.3C72.0895 120.42 72.8095 119.75 73.7395 119.25C74.6595 118.77 75.7095 118.53 76.8795 118.53C78.0495 118.53 79.0995 118.78 80.0195 119.25C80.9395 119.74 81.6695 120.42 82.1895 121.3C82.6995 122.18 82.9595 123.16 82.9595 124.27C82.9595 125.38 82.6995 126.36 82.1895 127.24C81.6695 128.12 80.9395 128.79 80.0195 129.27C79.0995 129.76 78.0495 130.01 76.8795 130.01ZM76.8795 121.11C76.2795 121.11 75.7395 121.25 75.2595 121.51C74.7795 121.77 74.4095 122.14 74.1495 122.62C73.8895 123.1 73.7495 123.65 73.7495 124.27C73.7495 124.89 73.8895 125.42 74.1495 125.9C74.4095 126.38 74.7795 126.76 75.2595 127.02C75.7395 127.28 76.2795 127.42 76.8795 127.42C77.4795 127.42 78.0195 127.28 78.4995 127.02C78.9795 126.76 79.3496 126.37 79.6096 125.9C79.8696 125.43 80.0095 124.88 80.0095 124.27C80.0095 123.66 79.8696 123.1 79.6096 122.62C79.3496 122.14 78.9795 121.77 78.4995 121.51C78.0195 121.25 77.4795 121.11 76.8795 121.11ZM96.8795 129.96C97.9095 129.96 98.7896 129.81 99.5396 129.5C100.28 129.19 100.85 128.76 101.25 128.19C101.63 127.64 101.84 126.99 101.84 126.23C101.84 125.38 101.58 124.69 101.04 124.12C100.5 123.55 99.6695 123.18 98.5495 123.01L95.8695 122.58C95.2395 122.47 94.9196 122.24 94.9196 121.86C94.9196 121.63 95.0995 121.41 95.4695 121.24C95.8195 121.07 96.3196 120.99 96.9196 120.99C97.5196 120.99 98.0595 121.08 98.5795 121.28C99.0895 121.48 99.5995 121.77 100.1 122.16L101.7 120.11C101.1 119.57 100.38 119.17 99.5095 118.91C98.6495 118.65 97.7495 118.53 96.8495 118.53C95.8195 118.53 94.9295 118.67 94.1995 118.96C93.4595 119.25 92.9095 119.65 92.5195 120.18C92.1395 120.72 91.9495 121.33 91.9495 122.04C91.9495 123.81 93.0995 124.89 95.3995 125.26L97.7695 125.63C98.4895 125.74 98.8495 126.01 98.8495 126.46C98.8495 126.75 98.6795 126.98 98.3395 127.18C97.9895 127.38 97.5095 127.49 96.8895 127.49C95.4595 127.49 94.2395 127.03 93.2095 126.12L91.5195 128.2C92.0895 128.74 92.8595 129.17 93.8295 129.48C94.7795 129.8 95.7995 129.96 96.8795 129.96ZM110.12 130.01C111.18 130.01 112.11 129.83 112.89 129.46C113.67 129.09 114.28 128.57 114.69 127.87C115.11 127.18 115.31 126.36 115.31 125.42V118.72H112.46V125.12C112.46 125.87 112.26 126.44 111.87 126.83C111.49 127.21 110.9 127.42 110.11 127.42C109.32 127.42 108.76 127.22 108.37 126.83C107.97 126.45 107.77 125.88 107.77 125.12V118.72H104.92V125.42C104.92 126.36 105.139 127.18 105.549 127.87C105.969 128.56 106.57 129.09 107.35 129.46C108.14 129.83 109.04 130.01 110.11 130.01H110.12ZM129.89 123.14H124.24V125.6H127.1V127.16C126.51 127.38 125.88 127.48 125.19 127.48C124.5 127.48 123.8 127.34 123.23 127.06C122.66 126.8 122.21 126.41 121.89 125.92C121.57 125.43 121.41 124.87 121.41 124.26C121.41 123.65 121.56 123.09 121.87 122.6C122.18 122.12 122.59 121.74 123.13 121.46C123.65 121.18 124.22 121.04 124.85 121.04C126.05 121.04 127.13 121.42 128.08 122.18L129.67 120.15C129.1 119.63 128.41 119.23 127.59 118.93C126.76 118.65 125.83 118.51 124.83 118.51C123.61 118.51 122.54 118.76 121.57 119.25C120.6 119.74 119.83 120.42 119.28 121.3C118.73 122.18 118.45 123.18 118.45 124.3C118.45 125.42 118.729 126.38 119.299 127.24C119.869 128.1 120.65 128.78 121.67 129.26C122.67 129.75 123.83 130 125.12 130C126.14 130 127.06 129.88 127.89 129.63C128.71 129.4 129.37 129.09 129.88 128.71V123.14H129.89ZM141.69 129.81H144.65L140.29 118.72H136.78L132.44 129.81H135.37L136.2 127.56H140.87L141.7 129.81H141.69ZM137.07 125.18L138.52 121.24L139.98 125.18H137.07ZM155.12 129.81H158.37L155.35 125.48C156.03 125.22 156.55 124.8 156.94 124.22C157.31 123.65 157.49 122.99 157.49 122.25C157.49 121.6 157.35 121.02 157.06 120.48C156.77 119.94 156.34 119.53 155.77 119.2C155.2 118.88 154.54 118.72 153.77 118.72H147.46V129.81H150.26V125.76H152.43L155.12 129.81ZM150.25 121.19H153.39C153.76 121.19 154.05 121.28 154.28 121.48C154.5 121.68 154.6 121.93 154.6 122.25C154.6 122.57 154.49 122.84 154.28 123.04C154.05 123.24 153.76 123.33 153.39 123.33H150.25V121.19Z" fill="black"/>
<path d="M102.69 64.9199H97.4996L94.5796 69.6599H99.7596L102.69 64.9199Z" fill="black"/>
<path d="M133.71 55.37C133.71 55.37 130.47 56.66 126.71 60.81C122.93 64.98 120.759 69.63 122.379 70.87C122.999 71.34 124.439 71.42 127.049 69.07C129.089 67.24 131.159 64.84 132.559 61.41C134.249 57.3 133.71 55.42 133.71 55.37ZM154.319 62.83C150.129 60.69 147.079 58.07 143.889 56.43C140.85 54.87 138.889 54.22 136.439 54.55C136.029 54.6 135.429 54.8 135.429 54.8C135.429 54.8 136.7 59.11 131.67 66.37C126.58 73.72 121.96 73.68 120.65 71.65C119.27 69.52 121.049 65.17 124.009 61.31C127.109 57.27 132.569 53.91 132.569 53.91C132.569 53.91 130.829 52.85 126.549 55.27C122.389 57.63 115.199 63.25 108.559 72.72C101.919 82.19 100.589 87.4 99.6295 91.51C98.6695 95.61 99.5495 100 104.1 100C108.65 100 113.939 93.06 115.429 90.64C118.199 86.15 120.009 79.25 116.239 80.2C114.379 80.67 112.87 82.73 111.92 84.72C110.94 86.76 110.549 88.71 110.549 88.71C110.549 88.71 108.98 89.27 106.86 90.85C104.75 92.43 103.369 93.94 103.369 93.94C103.369 93.94 103.379 90.66 105.989 85.36C108.599 80.05 113.399 77.62 116.119 77.4C118.569 77.2 121.749 79.28 119.059 86.95C116.369 94.62 108.4 103.93 100.03 104.06C92.3095 104.17 87.2495 94.31 97.9895 77.11C109.869 58.08 123.839 52.24 128.369 51.59C132.899 50.94 134.369 52.94 134.369 52.94C134.369 52.94 138.17 51.18 142.98 51.51C148.52 51.89 152.799 55.8 158.439 58.55C156.969 59.98 155.569 61.45 154.309 62.83M179.16 56.41C175.33 58.87 170.02 61.11 164.92 60.61C163.63 61.95 162.25 63.49 160.86 65.18C169.71 66.92 177.449 61.45 181.569 56.78C184.139 53.87 185.409 51.27 185.409 51.27C185.409 51.27 182.95 53.97 179.16 56.42M167.4 81.34C167.51 81.15 167.559 80.97 167.559 80.97C167.559 80.97 167.459 80.23 166.749 80.19C165.909 80.15 164.759 80.31 161.749 83.65C158.759 86.97 156.93 89.86 155.36 92.74C153.63 95.9 152.939 98.24 153.929 98.84C154.209 99.01 154.63 99.03 154.97 98.95C155.64 98.79 156.399 98.16 157.559 96.82C158.099 96.19 158.71 95.3 159.42 94.31C161.41 91.6 166.41 83.05 167.4 81.33M136.11 84.98C136.61 83.66 137.25 81.08 135.92 80.07C134.49 78.99 130.849 81.52 130.829 84.1C130.81 86.75 133.399 87.95 134.02 88.12C134.369 88.22 134.5 88.2 134.67 87.92C134.78 87.73 135.609 86.29 136.119 84.98M133.369 89.8C133.269 89.77 132.089 89.23 130.869 88.2C129.649 87.18 129.03 86.01 128.98 85.92C128.93 85.83 128.879 85.9 128.819 85.97C128.769 86.05 128.55 86.24 126.6 89.1C124.65 91.96 121.679 97.85 124.379 98.85C126.109 99.49 128.989 96.46 130.559 94.45C132.019 92.58 133.38 90.21 133.46 90.04C133.54 89.87 133.459 89.83 133.369 89.79M164.009 96.59C163.269 97.77 162.44 100.01 164.86 98.61C167.81 96.9 172.02 90.53 172.02 90.53H173.92C173.92 90.53 171.41 94.49 168.139 98.11C165.149 101.42 161.509 104.43 158.939 104.14C155.939 103.79 156.879 99.85 156.879 99.85C156.879 99.85 152.57 104.42 149.61 104.1C145.6 103.66 146.819 98.7 146.819 98.7C146.819 98.7 142.289 104.28 139.199 104.1C134.349 103.82 135.57 97.91 136.91 93.77C137.63 91.55 138.299 89.8 138.299 89.8C138.299 89.8 137.82 89.93 136.79 90.08C136.25 90.16 135.27 90.21 135.27 90.21C135.27 90.21 133.259 93.77 131.639 95.92C130.029 98.06 123.169 105.44 119.129 103.96C115.399 102.6 116.629 96.88 118.799 92.34C121.969 85.72 130.89 76.2 136.03 77.44C141.36 78.73 136.15 88.47 136.15 88.47C136.15 88.47 136.15 88.51 136.21 88.53C136.32 88.57 136.589 88.6 137.239 88.48C138.269 88.28 139.189 87.9 139.189 87.9C139.189 87.9 144.55 76.67 150.47 69.32C156.39 61.97 168.2 49.32 172.84 52.38C173.98 53.13 173.459 55.72 171.929 58.87C171.259 59.08 170.56 59.27 169.84 59.42C170.86 57.57 171.539 56 171.739 54.91C172.429 51.11 163.569 59.12 157.239 67.73C150.919 76.34 147.119 84.14 147.119 84.14C147.119 84.14 148.389 83.42 150.379 81.81C152.459 80.13 155.319 77.51 158.429 74.3C160.519 72.14 162.969 69.43 165.27 66.4C165.96 66.37 166.63 66.3 167.28 66.19C164.72 69.64 162.02 72.8 159.73 75.12C157.22 77.67 154.48 80.43 152.1 82.43C148.32 85.61 145.4 87.41 145.4 87.41C145.4 87.41 139.849 98.57 142.869 99.29C144.639 99.71 148.139 94.32 148.139 94.32C148.139 94.32 152.699 87.35 155.449 84.22C159.199 79.95 162.43 77.48 165.65 77.43C167.54 77.4 168.65 79.4 168.65 79.4L169.53 78.03H174.98C174.98 78.03 164.819 95.3 164.009 96.59ZM179.17 56.41C175.34 58.87 170.029 61.11 164.929 60.61C163.639 61.95 162.259 63.49 160.869 65.18C169.719 66.92 177.46 61.45 181.579 56.78C184.15 53.87 185.419 51.27 185.419 51.27C185.419 51.27 182.96 53.97 179.17 56.42M78.1595 81.33C80.3595 78.31 86.4395 67.72 86.4395 67.72C86.4395 67.72 86.3395 66.98 85.6295 66.94C84.7895 66.9 83.3895 67.18 80.5995 70.67C77.7995 74.16 75.6495 76.95 74.0795 79.83C72.3595 82.98 71.5995 85.21 72.5895 85.81C72.8695 85.98 73.2895 86 73.6295 85.92C74.2795 85.76 75.1195 85.11 76.2795 83.77C76.8195 83.14 77.4395 82.31 78.1595 81.32M50.3495 67.02C48.9195 65.94 45.2795 68.47 45.2595 71.06C45.2395 73.71 48.5495 74.47 48.9795 74.49C48.9795 74.49 49.3595 74.59 49.4995 74.28C49.5895 74.08 50.0395 73.25 50.5495 71.94C51.0495 70.62 51.6895 68.04 50.3595 67.03M48.1995 76.16C48.1095 76.13 46.7295 75.73 45.3895 74.87C44.0495 74.01 43.4295 72.74 43.3795 72.65C43.3295 72.56 43.2795 72.63 43.2195 72.7C43.1695 72.77 42.8795 73.14 40.9295 76C38.9795 78.86 36.0995 84.71 38.7995 85.71C40.5295 86.35 43.4295 83.31 45.0095 81.3C46.4695 79.43 48.2095 76.56 48.2795 76.39C48.3495 76.22 48.2795 76.18 48.1895 76.15M90.5195 77.89H92.4195C92.4195 77.89 82.9095 91.64 77.5395 91.02C74.5395 90.67 75.4295 86.97 75.4295 86.97C75.4295 86.97 71.2095 91.91 67.3495 90.92C63.8395 90.02 66.0995 84.18 66.0995 84.18C65.6995 84.34 58.1095 92.91 52.7695 90.86C47.1895 88.71 50.0795 81.54 51.1395 79.38C52.0395 77.56 53.0295 75.79 53.0295 75.79C53.0295 75.79 52.1695 76.03 51.6395 76.16C51.1095 76.28 50.2995 76.44 50.2995 76.44C50.2995 76.44 47.6595 80.73 46.0495 82.88C44.4395 85.02 37.5795 92.39 33.5395 90.92C29.4995 89.45 30.4895 83.8 32.7595 79.3C36.4395 72.01 45.1795 63.06 50.4395 64.4C55.7495 65.76 51.3595 74.38 51.3595 74.38C51.3595 74.38 52.4195 74.52 54.9495 72.79C58.5995 70.3 63.4095 63.6 68.6295 64.38C71.0795 64.75 73.3595 67.26 70.2395 72.04C69.2395 73.57 67.5695 74.94 66.2795 73.59C65.4795 72.75 66.1795 71.21 67.0095 70.16C68.1895 68.67 69.8295 68.87 69.8295 68.87C69.8295 68.87 70.6895 66.89 68.4995 66.93C66.7195 66.96 62.2395 71.1 59.6995 75.28C57.3695 79.12 53.8595 85.66 57.3895 87.08C60.6395 88.39 66.7995 81.06 69.6595 77.22C72.5195 73.38 79.0195 64.67 84.4795 64.32C86.3595 64.2 87.4795 65.91 87.4795 65.91L88.1095 64.91H93.5595C93.5595 64.91 83.2795 82.08 82.4695 83.39C81.8395 84.41 80.9995 86.7 83.3295 85.41C85.6595 84.12 90.4995 77.9 90.4995 77.9M87.5395 105.42C83.4095 102.52 78.3795 101.24 73.8095 101.42C69.1895 101.6 67.1195 105.06 67.1195 105.06C65.0295 101.42 60.9095 99.19 54.5395 99.25C44.2495 99.37 34.0395 104.12 25.9595 104.12C17.8795 104.12 12.5395 99.25 12.7295 90.59C13.0595 75.41 25.8795 61.74 35.4595 55.58C40.9695 52.04 45.5795 50.99 48.5995 51.33C50.7995 51.57 53.4495 54.12 51.7795 57.86C49.3295 63.35 45.9395 62.89 46.0595 60.27C46.1295 58.57 47.2595 57.49 48.1095 56.91C48.6495 56.53 49.6095 56.43 50.1095 56.42C50.5895 56.01 50.9595 53.01 47.0195 54C43.0695 54.99 38.3195 58.87 33.7895 63.86C29.2595 68.86 22.2095 78.33 20.4695 88.27C19.6595 92.88 20.1995 101.28 31.1195 101.18C40.3795 101.1 54.0395 95 66.5895 95.11C71.4595 95.15 75.6995 96.46 79.0095 98.5C82.2695 100.51 86.1595 103.43 87.5395 105.42Z" fill="black"/>
<path d="M174.63 97.9099C173.91 97.9099 173.27 98.0699 172.68 98.3999C172.09 98.7399 171.63 99.1899 171.29 99.7599C170.95 100.33 170.79 100.96 170.79 101.62C170.79 102.28 170.95 102.93 171.29 103.48C171.63 104.05 172.09 104.5 172.68 104.83C173.27 105.17 173.9 105.33 174.63 105.33C175.36 105.33 176 105.17 176.59 104.83C177.18 104.5 177.62 104.05 177.96 103.48C178.3 102.92 178.46 102.3 178.46 101.62C178.46 100.94 178.3 100.33 177.96 99.7599C177.62 99.1899 177.17 98.7399 176.59 98.3999C176 98.0699 175.35 97.9099 174.63 97.9099ZM174.63 104.62C174.04 104.62 173.51 104.48 173.06 104.23C172.6 103.97 172.24 103.62 171.98 103.17C171.72 102.72 171.6 102.2 171.6 101.63C171.6 101.06 171.72 100.55 171.98 100.11C172.24 99.6599 172.59 99.2899 173.06 99.0299C173.52 98.7699 174.04 98.6499 174.63 98.6499C175.22 98.6499 175.73 98.7699 176.2 99.0299C176.66 99.2899 177.02 99.6599 177.28 100.11C177.54 100.56 177.66 101.08 177.66 101.63C177.66 102.18 177.54 102.72 177.28 103.17C177.02 103.62 176.67 103.97 176.22 104.23C175.76 104.49 175.23 104.62 174.64 104.62H174.63ZM176.24 100.97C176.24 100.67 176.14 100.41 175.95 100.21C175.75 100.01 175.49 99.9099 175.16 99.9099H173.21V103.27H174.07V102.04H174.72L175.51 103.27H176.49L175.61 101.96C175.81 101.86 175.96 101.73 176.07 101.55C176.18 101.37 176.23 101.18 176.23 100.96L176.24 100.97ZM174.08 100.64H175.01C175.12 100.64 175.2 100.67 175.27 100.72C175.34 100.79 175.37 100.87 175.37 100.96C175.37 101.05 175.34 101.14 175.27 101.19C175.2 101.26 175.12 101.29 175.01 101.29H174.08V100.64Z" fill="black"/>
<path d="M39.1597 28.4299C40.1397 28.4299 41.0597 28.2599 41.9097 27.9499C42.7597 27.6399 43.4396 27.1699 43.9896 26.5299L42.3597 24.7499C41.4897 25.6299 40.4397 26.0699 39.2097 26.0699C38.4297 26.0699 37.7297 25.8999 37.1097 25.5499C36.4797 25.2199 35.9896 24.7499 35.6396 24.1699C35.2896 23.5899 35.1097 22.9399 35.1097 22.2199C35.1097 21.4999 35.2896 20.8399 35.6396 20.2499C35.9896 19.6599 36.4897 19.2199 37.1097 18.8699C37.7297 18.5399 38.4096 18.3699 39.1796 18.3699C39.7596 18.3699 40.3097 18.4699 40.8297 18.6899C41.3297 18.9099 41.8097 19.2599 42.2797 19.7199L43.9097 17.8999C43.3797 17.2799 42.6897 16.7999 41.8597 16.4799C41.0097 16.1599 40.0897 15.9999 39.1097 15.9999C37.8297 15.9999 36.6797 16.2699 35.6597 16.7999C34.6397 17.3499 33.8396 18.0799 33.2596 19.0299C32.6796 19.9799 32.3896 21.0499 32.3896 22.2099C32.3896 23.3699 32.6696 24.4299 33.2596 25.3799C33.8496 26.3299 34.6396 27.0799 35.6796 27.6099C36.6996 28.1599 37.8597 28.4299 39.1597 28.4299ZM50.8096 18.8299C49.6596 18.8299 48.7397 19.1799 48.0897 19.8599V15.6799H45.5897V28.2099H48.0897V22.9899C48.0897 22.4399 48.2896 21.9899 48.6896 21.6599C49.0896 21.3299 49.6097 21.1599 50.2197 21.1599C50.8297 21.1599 51.2897 21.3099 51.5997 21.6299C51.9097 21.9499 52.0797 22.3999 52.0797 22.9599V28.2099H54.5797V22.3899C54.5797 21.6899 54.4097 21.0699 54.0997 20.5199C53.7897 19.9699 53.3297 19.5499 52.7697 19.2499C52.1897 18.9699 51.5396 18.8199 50.7996 18.8199L50.8096 18.8299ZM66.0897 23.6999C66.0897 22.8199 65.8896 21.9999 65.5096 21.2499C65.1096 20.5199 64.5397 19.9299 63.7897 19.4799C63.0397 19.0499 62.1697 18.8299 61.1697 18.8299C60.1697 18.8299 59.2996 19.0499 58.5496 19.4799C57.7996 19.9099 57.2196 20.4999 56.8196 21.2299C56.4196 21.9599 56.2197 22.7599 56.2197 23.6499C56.2197 24.5399 56.4397 25.3499 56.8497 26.0699C57.2697 26.7999 57.8796 27.3899 58.6996 27.7999C59.4996 28.2199 60.4496 28.4299 61.5696 28.4299C62.4496 28.4299 63.2196 28.2999 63.8896 28.0299C64.5596 27.7799 65.0897 27.4499 65.4697 27.0299L64.1196 25.3499C63.6996 25.6699 63.3196 25.8999 62.9396 26.0499C62.5596 26.1999 62.1097 26.2799 61.5897 26.2799C60.8697 26.2799 60.2697 26.1299 59.7897 25.8299C59.3097 25.5299 58.9697 25.0999 58.7897 24.5499H65.9996C66.0496 24.2999 66.0797 24.0199 66.0797 23.6999H66.0897ZM61.1896 20.9999C61.8096 20.9999 62.3396 21.1499 62.7596 21.4499C63.1796 21.7699 63.4397 22.1799 63.5897 22.7299H58.7697C58.9197 22.1799 59.2196 21.7599 59.6396 21.4499C60.0596 21.1499 60.5696 20.9999 61.1896 20.9999ZM73.0197 18.9199C72.4697 18.9199 71.9197 19.0199 71.3997 19.2399C70.8697 19.4599 70.4497 19.7699 70.1497 20.2099V19.0599H67.7697V28.2199H70.2697V23.5899C70.2697 22.7599 70.5196 22.1599 70.9996 21.7899C71.4796 21.4399 72.1296 21.2599 72.9296 21.2599C73.2496 21.2599 73.5596 21.2899 73.8796 21.3399V19.0199C73.5996 18.9499 73.2996 18.9199 73.0096 18.9199H73.0197ZM80.6497 18.9199C80.0997 18.9199 79.5497 19.0199 79.0297 19.2399C78.4997 19.4599 78.0797 19.7699 77.7797 20.2099V19.0599H75.3997V28.2199H77.8997V23.5899C77.8997 22.7599 78.1496 22.1599 78.6296 21.7899C79.1096 21.4399 79.7596 21.2599 80.5596 21.2599C80.8796 21.2599 81.1896 21.2899 81.5096 21.3399V19.0199C81.2296 18.9499 80.9296 18.9199 80.6396 18.9199H80.6497Z" fill="black"/>
<path d="M90.2393 19.05L87.7094 25.43L85.0894 19.05H82.3394L86.4393 28.11L86.3693 28.28C86.2493 28.56 86.0693 28.8 85.8193 28.95C85.5693 29.12 85.3194 29.2 85.0394 29.2C84.5694 29.2 84.0094 29.07 83.3594 28.8L82.7094 30.82C83.0594 31 83.4393 31.15 83.8893 31.24C84.3193 31.34 84.7393 31.39 85.1193 31.39C85.8893 31.39 86.5694 31.19 87.1494 30.79C87.7294 30.41 88.1793 29.84 88.4993 29.09L92.8693 19.06H90.2393V19.05ZM107.639 16.22L104.289 25.57L100.919 16.22H98.0994L102.629 28.22H105.849L110.379 16.22H107.629H107.639Z" fill="black"/>
<path d="M120.17 26.2301C119.97 26.2301 119.8 26.1801 119.69 26.0601C119.56 25.9601 119.49 25.7901 119.49 25.5801V22.5801C119.49 21.4001 119.11 20.4801 118.34 19.8101C117.57 19.1601 116.51 18.8301 115.12 18.8301C114.4 18.8301 113.67 18.9301 112.95 19.1101C112.23 19.3101 111.58 19.6101 111.03 20.0301L112.25 21.8801C112.7 21.5601 113.17 21.3501 113.65 21.2001C114.13 21.0701 114.58 21.0001 115 21.0001C115.62 21.0001 116.1 21.1301 116.47 21.4001C116.82 21.6801 117.02 22.0501 117.07 22.5301H115.24C113.62 22.5301 112.41 22.8001 111.61 23.3101C110.79 23.8401 110.39 24.5801 110.39 25.5101C110.39 26.1401 110.56 26.6801 110.91 27.1101C111.24 27.5401 111.69 27.8601 112.26 28.0801C112.83 28.3001 113.44 28.4101 114.13 28.4101C114.82 28.4101 115.41 28.2901 115.96 28.0801C116.51 27.8701 116.98 27.5301 117.34 27.0501C117.52 27.4701 117.82 27.7701 118.24 27.9701C118.66 28.1901 119.14 28.2901 119.67 28.2901C120.02 28.2901 120.32 28.2401 120.55 28.1201V26.1901C120.42 26.2201 120.28 26.2401 120.17 26.2401V26.2301ZM114.39 26.4501C113.91 26.4501 113.52 26.3501 113.27 26.1501C113.02 25.9701 112.89 25.7001 112.89 25.3801C112.89 25.0601 113.06 24.8101 113.41 24.6101C113.74 24.4101 114.38 24.3101 115.31 24.3101H117.08C117 25.0301 116.7 25.5601 116.18 25.9101C115.66 26.2601 115.06 26.4401 114.4 26.4401L114.39 26.4501ZM127.32 18.8401C126.77 18.8401 126.25 18.9201 125.77 19.0901C125.27 19.2701 124.84 19.5401 124.49 19.9201V19.0501H122.11V28.2101H124.61V22.9601C124.61 22.4101 124.81 21.9601 125.21 21.6401C125.59 21.3201 126.11 21.1601 126.74 21.1601C127.34 21.1601 127.81 21.3101 128.12 21.6101C128.44 21.9301 128.6 22.3601 128.6 22.9301V28.2101H131.1V22.3901C131.1 21.6901 130.93 21.0701 130.62 20.5201C130.31 19.9701 129.85 19.5501 129.29 19.2501C128.71 18.9701 128.06 18.8201 127.32 18.8201V18.8401Z" fill="black"/>
<path d="M133.379 28.21H135.879V19.05H133.379V28.21ZM134.629 18.13C135.049 18.13 135.409 18 135.699 17.73C135.989 17.46 136.119 17.13 136.119 16.71C136.119 16.29 135.989 15.96 135.699 15.69C135.409 15.42 135.049 15.29 134.629 15.29C134.209 15.29 133.859 15.42 133.579 15.69C133.299 15.96 133.149 16.29 133.149 16.71C133.149 17.13 133.299 17.46 133.579 17.73C133.859 18 134.209 18.13 134.629 18.13ZM138.299 15.68V25.89C138.299 26.64 138.549 27.24 139.029 27.67C139.509 28.12 140.149 28.34 140.949 28.34C141.519 28.34 141.979 28.26 142.329 28.11V25.94C142.079 26.04 141.829 26.09 141.579 26.09C141.059 26.09 140.799 25.84 140.799 25.36V15.68H138.299Z" fill="black"/>
<path d="M143.839 15.6799V25.8899C143.839 26.6399 144.089 27.2399 144.569 27.6699C145.049 28.1199 145.689 28.3399 146.489 28.3399C147.059 28.3399 147.519 28.2599 147.869 28.1099V25.9399C147.619 26.0399 147.369 26.0899 147.119 26.0899C146.599 26.0899 146.339 25.8399 146.339 25.3599V15.6799H143.839ZM158.669 26.2299C158.469 26.2299 158.299 26.1799 158.189 26.0599C158.059 25.9599 157.989 25.7899 157.989 25.5799V22.5799C157.989 21.3999 157.609 20.4799 156.839 19.8099C156.069 19.1599 155.009 18.8299 153.619 18.8299C152.899 18.8299 152.169 18.9299 151.449 19.1099C150.729 19.3099 150.079 19.6099 149.529 20.0299L150.749 21.8799C151.199 21.5599 151.669 21.3499 152.149 21.1999C152.629 21.0699 153.079 20.9999 153.499 20.9999C154.119 20.9999 154.599 21.1299 154.969 21.3999C155.319 21.6799 155.519 22.0499 155.569 22.5299H153.739C152.119 22.5299 150.909 22.7999 150.109 23.3099C149.289 23.8399 148.889 24.5799 148.889 25.5099C148.889 26.1399 149.059 26.6799 149.409 27.1099C149.739 27.5399 150.189 27.8599 150.759 28.0799C151.329 28.2999 151.939 28.4099 152.629 28.4099C153.319 28.4099 153.909 28.2899 154.459 28.0799C155.009 27.8699 155.479 27.5299 155.839 27.0499C156.019 27.4699 156.319 27.7699 156.739 27.9699C157.159 28.1899 157.639 28.2899 158.169 28.2899C158.519 28.2899 158.819 28.2399 159.049 28.1199V26.1899C158.919 26.2199 158.779 26.2399 158.669 26.2399V26.2299ZM152.889 26.4499C152.409 26.4499 152.019 26.3499 151.769 26.1499C151.519 25.9699 151.389 25.6999 151.389 25.3799C151.389 25.0599 151.559 24.8099 151.909 24.6099C152.239 24.4099 152.879 24.3099 153.809 24.3099H155.579C155.499 25.0299 155.199 25.5599 154.679 25.9099C154.159 26.2599 153.559 26.4399 152.899 26.4399L152.889 26.4499Z" fill="black"/>
<path d="M86.6694 161.1C86.6694 152.86 79.9893 146.18 71.7493 146.18C63.5093 146.18 56.8394 152.86 56.8394 161.1C56.8394 169.34 63.5193 176.02 71.7493 176.02C79.9793 176.02 86.6694 169.34 86.6694 161.1Z" fill="#F40009"/>
<path d="M77.2495 157.31C77.2495 157.31 76.7495 157.51 76.1595 158.16C75.5695 158.81 75.2395 159.53 75.4895 159.72C75.5895 159.79 75.8095 159.81 76.2095 159.44C76.5295 159.16 76.8495 158.79 77.0695 158.25C77.3295 157.61 77.2495 157.32 77.2495 157.31ZM80.4495 158.47C79.7995 158.14 79.3295 157.73 78.8295 157.48C78.3595 157.24 78.0496 157.14 77.6696 157.19C77.6096 157.19 77.5095 157.23 77.5095 157.23C77.5095 157.23 77.7095 157.9 76.9295 159.03C76.1395 160.17 75.4195 160.17 75.2195 159.85C75.0095 159.52 75.2795 158.84 75.7395 158.25C76.2195 157.62 77.0695 157.1 77.0695 157.1C77.0695 157.1 76.7995 156.94 76.1395 157.31C75.4895 157.68 74.3795 158.55 73.3395 160.02C72.3095 161.49 72.0995 162.3 71.9495 162.94C71.7995 163.57 71.9395 164.26 72.6395 164.26C73.3395 164.26 74.1695 163.18 74.3995 162.81C74.8295 162.11 75.1095 161.04 74.5195 161.19C74.2295 161.26 73.9996 161.58 73.8496 161.89C73.6996 162.21 73.6395 162.51 73.6395 162.51C73.6395 162.51 73.3995 162.6 73.0695 162.84C72.7395 163.08 72.5295 163.32 72.5295 163.32C72.5295 163.32 72.5295 162.81 72.9395 161.99C73.3495 161.17 74.0895 160.79 74.5095 160.75C74.8895 160.72 75.3895 161.04 74.9695 162.24C74.5495 163.43 73.3095 164.88 72.0095 164.9C70.8095 164.92 70.0195 163.39 71.6895 160.71C73.5295 157.76 75.6996 156.85 76.4095 156.75C77.1096 156.65 77.3395 156.96 77.3395 156.96C77.3395 156.96 77.9295 156.69 78.6795 156.74C79.5395 156.8 80.2095 157.41 81.0795 157.83C80.8495 158.05 80.6295 158.28 80.4395 158.5M84.2995 157.5C83.7095 157.88 82.8795 158.23 82.0895 158.15C81.8895 158.36 81.6795 158.6 81.4595 158.86C82.8395 159.13 84.0395 158.28 84.6795 157.56C85.0795 157.11 85.2695 156.7 85.2695 156.7C85.2695 156.7 84.8895 157.12 84.2995 157.5ZM82.4695 161.37L82.4895 161.31C82.4895 161.31 82.4696 161.19 82.3596 161.19C82.2296 161.19 82.0495 161.21 81.5795 161.73C81.1095 162.24 80.8295 162.69 80.5895 163.14C80.3195 163.63 80.2095 163.99 80.3695 164.09C80.4095 164.12 80.4795 164.12 80.5295 164.11C80.6295 164.09 80.7495 163.99 80.9295 163.78C81.0095 163.68 81.1095 163.55 81.2195 163.39C81.5295 162.97 82.3095 161.64 82.4595 161.37M77.5996 161.94C77.6796 161.74 77.7795 161.34 77.5695 161.18C77.3495 161.01 76.7795 161.4 76.7795 161.81C76.7795 162.22 77.1795 162.41 77.2795 162.43C77.3395 162.44 77.3495 162.44 77.3795 162.4C77.3995 162.37 77.5296 162.15 77.5996 161.94ZM77.1696 162.69C77.1696 162.69 76.9695 162.6 76.7795 162.44C76.5895 162.28 76.4895 162.1 76.4895 162.09C76.4895 162.08 76.4695 162.09 76.4695 162.09C76.4695 162.1 76.4295 162.13 76.1195 162.58C75.8195 163.02 75.3495 163.94 75.7795 164.09C76.0495 164.19 76.4995 163.72 76.7395 163.41C76.9695 163.12 77.1795 162.75 77.1895 162.72C77.1995 162.7 77.1895 162.69 77.1795 162.68M81.9395 163.74C81.8195 163.92 81.6995 164.27 82.0695 164.05C82.5295 163.78 83.1795 162.79 83.1795 162.79H83.4695C83.4695 162.79 83.0795 163.41 82.5795 163.97C82.1095 164.48 81.5495 164.95 81.1495 164.91C80.6795 164.86 80.8295 164.24 80.8295 164.24C80.8295 164.24 80.1595 164.95 79.6995 164.9C79.0795 164.83 79.2695 164.06 79.2695 164.06C79.2695 164.06 78.5695 164.93 78.0895 164.9C77.3395 164.86 77.5196 163.94 77.7296 163.29C77.8396 162.94 77.9495 162.67 77.9495 162.67C77.9495 162.67 77.8795 162.69 77.7195 162.71C77.6395 162.72 77.4796 162.73 77.4796 162.73C77.4796 162.73 77.1696 163.28 76.9196 163.61C76.6696 163.94 75.5995 165.09 74.9695 164.86C74.3895 164.65 74.5796 163.76 74.9196 163.06C75.4096 162.03 76.7996 160.55 77.5996 160.75C78.4296 160.95 77.6195 162.46 77.6195 162.46C77.6395 162.46 77.6795 162.47 77.7795 162.46C77.9395 162.43 78.0795 162.37 78.0795 162.37C78.0795 162.37 78.9095 160.63 79.8295 159.48C80.7495 158.34 82.5795 156.37 83.3095 156.85C83.4895 156.97 83.4096 157.37 83.1696 157.86C83.0696 157.89 82.9595 157.92 82.8395 157.95C82.9995 157.66 83.0995 157.42 83.1395 157.25C83.2495 156.66 81.8695 157.9 80.8895 159.24C79.9095 160.58 79.3195 161.79 79.3195 161.79C79.3195 161.79 79.5195 161.68 79.8295 161.43C80.1495 161.17 80.5895 160.76 81.0795 160.26C81.3995 159.93 81.7895 159.5 82.1395 159.03C82.2495 159.03 82.3495 159.01 82.4495 159C82.0495 159.54 81.6295 160.03 81.2795 160.39C80.8895 160.79 80.4696 161.21 80.0996 161.53C79.5096 162.02 79.0595 162.3 79.0595 162.3C79.0595 162.3 78.1996 164.03 78.6696 164.14C78.9396 164.21 79.4895 163.37 79.4895 163.37C79.4895 163.37 80.1995 162.29 80.6295 161.8C81.2095 161.14 81.7095 160.76 82.2195 160.75C82.5095 160.75 82.6795 161.05 82.6795 161.05L82.8195 160.84H83.6696C83.6696 160.84 82.0895 163.52 81.9695 163.72M84.3195 157.48C83.7295 157.86 82.8996 158.21 82.1096 158.13C81.9096 158.34 81.6996 158.58 81.4796 158.84C82.8596 159.11 84.0595 158.26 84.6995 157.54C85.0995 157.09 85.2896 156.68 85.2896 156.68C85.2896 156.68 84.9095 157.1 84.3195 157.48ZM72.4395 158.8H71.6395L71.1895 159.54H71.9895L72.4395 158.8ZM68.6295 161.35C68.9695 160.88 69.9196 159.24 69.9196 159.24C69.9196 159.24 69.9096 159.12 69.7896 159.12C69.6596 159.12 69.4395 159.16 69.0095 159.7C68.5795 160.24 68.2395 160.67 67.9995 161.12C67.7295 161.61 67.6095 161.95 67.7695 162.05C67.8095 162.07 67.8795 162.08 67.9295 162.07C68.0295 162.04 68.1595 161.94 68.3395 161.74C68.4195 161.64 68.5195 161.52 68.6295 161.36M64.3095 159.14C64.0895 158.97 63.5195 159.36 63.5195 159.77C63.5195 160.18 64.0296 160.3 64.0996 160.3C64.0996 160.3 64.1595 160.31 64.1795 160.27C64.1895 160.24 64.2595 160.11 64.3395 159.91C64.4195 159.7 64.5195 159.3 64.3095 159.15M63.9695 160.57C63.9695 160.57 63.7396 160.5 63.5396 160.37C63.3296 160.24 63.2396 160.04 63.2296 160.03C63.2296 160.01 63.2095 160.03 63.2095 160.03C63.2095 160.04 63.1596 160.1 62.8496 160.54C62.5496 160.98 62.0995 161.89 62.5195 162.05C62.7895 162.15 63.2396 161.68 63.4796 161.37C63.7096 161.08 63.9695 160.63 63.9895 160.61C63.9995 160.58 63.9895 160.58 63.9695 160.57ZM70.5495 160.84H70.8395C70.8395 160.84 69.3595 162.97 68.5295 162.88C68.0695 162.83 68.1995 162.25 68.1995 162.25C68.1995 162.25 67.5395 163.02 66.9395 162.86C66.3995 162.72 66.7495 161.81 66.7495 161.81C66.6895 161.84 65.5095 163.17 64.6795 162.85C63.8095 162.52 64.2595 161.4 64.4295 161.07C64.5695 160.79 64.7195 160.51 64.7195 160.51C64.7195 160.51 64.5895 160.55 64.4995 160.57C64.4195 160.59 64.2896 160.61 64.2896 160.61C64.2896 160.61 63.8795 161.28 63.6295 161.61C63.3795 161.94 62.3095 163.09 61.6895 162.86C61.0595 162.63 61.2195 161.75 61.5695 161.06C62.1395 159.93 63.4995 158.54 64.3095 158.74C65.1395 158.95 64.4495 160.29 64.4495 160.29C64.4495 160.29 64.6095 160.31 65.0095 160.04C65.5795 159.65 66.3295 158.61 67.1395 158.74C67.5195 158.8 67.8695 159.19 67.3895 159.93C67.2295 160.17 66.9695 160.38 66.7695 160.17C66.6495 160.04 66.7495 159.8 66.8895 159.64C67.0695 159.41 67.3295 159.44 67.3295 159.44C67.3295 159.44 67.4695 159.13 67.1195 159.14C66.8395 159.14 66.1495 159.79 65.7495 160.44C65.3895 161.03 64.8395 162.05 65.3895 162.27C65.8895 162.47 66.8495 161.34 67.2995 160.74C67.7395 160.14 68.7496 158.79 69.5996 158.74C69.8896 158.72 70.0695 158.98 70.0695 158.98L70.1696 158.82H71.0195C71.0195 158.82 69.4195 161.49 69.2995 161.69C69.1995 161.85 69.0695 162.2 69.4295 162C69.7895 161.8 70.5396 160.83 70.5396 160.83M70.0795 165.1C69.4395 164.65 68.6595 164.45 67.9495 164.48C67.2295 164.51 66.9095 165.04 66.9095 165.04C66.5895 164.48 65.9495 164.13 64.9595 164.14C63.3595 164.16 61.7795 164.9 60.5195 164.9C59.2595 164.9 58.4395 164.14 58.4695 162.8C58.5195 160.44 60.5095 158.32 61.9995 157.36C62.8595 156.81 63.5696 156.65 64.0396 156.7C64.3796 156.74 64.7895 157.13 64.5295 157.71C64.1495 158.57 63.6195 158.49 63.6395 158.09C63.6495 157.82 63.8295 157.66 63.9595 157.57C64.0395 157.51 64.1895 157.5 64.2695 157.49C64.3495 157.43 64.3996 156.96 63.7896 157.11C63.1796 157.26 62.4395 157.86 61.7395 158.64C61.0395 159.42 59.9396 160.89 59.6696 162.43C59.5396 163.15 59.6295 164.45 61.3195 164.44C62.7595 164.43 64.8795 163.48 66.8295 163.5C67.5895 163.5 68.2495 163.71 68.7595 164.03C69.2695 164.34 69.8695 164.8 70.0795 165.11" fill="white"/>
<path d="M83.9697 163.39C83.8197 163.39 83.6896 163.42 83.5596 163.49C83.4396 163.56 83.3397 163.65 83.2697 163.77C83.1997 163.89 83.1597 164.02 83.1597 164.16C83.1597 164.3 83.1897 164.43 83.2697 164.55C83.3397 164.67 83.4396 164.76 83.5596 164.83C83.6796 164.9 83.8197 164.94 83.9697 164.94C84.1197 164.94 84.2596 164.91 84.3796 164.83C84.4996 164.76 84.5997 164.67 84.6697 164.55C84.7397 164.43 84.7797 164.3 84.7797 164.16C84.7797 164.02 84.7497 163.89 84.6697 163.77C84.5997 163.65 84.5096 163.56 84.3796 163.49C84.2596 163.42 84.1197 163.39 83.9697 163.39ZM83.9697 164.79C83.8497 164.79 83.7396 164.76 83.6396 164.71C83.5396 164.66 83.4697 164.58 83.4197 164.49C83.3697 164.4 83.3397 164.29 83.3397 164.17C83.3397 164.05 83.3697 163.95 83.4197 163.85C83.4697 163.75 83.5496 163.68 83.6396 163.63C83.7396 163.58 83.8397 163.55 83.9697 163.55C84.0997 163.55 84.1996 163.58 84.2996 163.63C84.3996 163.68 84.4697 163.76 84.5197 163.85C84.5697 163.94 84.5997 164.05 84.5997 164.17C84.5997 164.29 84.5697 164.4 84.5197 164.49C84.4697 164.58 84.3896 164.66 84.2996 164.71C84.1996 164.76 84.0897 164.79 83.9697 164.79ZM84.2996 164.03C84.2996 163.97 84.2796 163.91 84.2396 163.87C84.1996 163.83 84.1397 163.81 84.0797 163.81H83.6697V164.51H83.8497V164.25H83.9896L84.1497 164.51H84.3497L84.1697 164.24C84.1697 164.24 84.2397 164.19 84.2697 164.15C84.2997 164.11 84.2996 164.07 84.2996 164.03ZM83.8497 163.96H84.0397C84.0397 163.96 84.0797 163.96 84.0897 163.98C84.0997 163.99 84.1097 164.01 84.1097 164.03C84.1097 164.05 84.1097 164.07 84.0897 164.08C84.0797 164.09 84.0597 164.1 84.0397 164.1H83.8497V163.96Z" fill="white"/>
<path d="M91.6894 159.4V160.79H93.9894V161.72H91.6894V164.14H90.6494V158.47H95.0294V159.4H91.6894Z" fill="black"/>
<path d="M101.06 163.2V164.14H96.7495V158.47H97.7896V163.2H101.06Z" fill="black"/>
<path d="M106.129 161.87L105.169 159.37L104.209 161.87H106.139H106.129ZM106.469 162.78H103.849L103.319 164.14H102.229L104.519 158.46H105.799L108.089 164.14H106.989L106.469 162.78Z" fill="black"/>
<path d="M114.28 158.47L112.09 164.14H110.81L108.62 158.47H109.75L111.46 163.11L113.18 158.47H114.28Z" fill="black"/>
<path d="M119.349 163.04C119.639 162.87 119.869 162.64 120.029 162.33C120.189 162.03 120.269 161.69 120.269 161.3C120.269 160.91 120.189 160.57 120.029 160.27C119.869 159.97 119.639 159.73 119.349 159.56C119.059 159.39 118.729 159.31 118.359 159.31C117.989 159.31 117.669 159.39 117.379 159.56C117.089 159.73 116.859 159.96 116.699 160.27C116.539 160.57 116.449 160.91 116.449 161.3C116.449 161.69 116.529 162.03 116.699 162.33C116.859 162.63 117.089 162.87 117.379 163.04C117.669 163.21 117.999 163.29 118.359 163.29C118.719 163.29 119.059 163.21 119.349 163.04ZM116.819 163.87C116.369 163.62 116.009 163.27 115.759 162.83C115.499 162.38 115.379 161.88 115.379 161.31C115.379 160.74 115.509 160.23 115.759 159.79C116.019 159.34 116.369 158.99 116.819 158.74C117.269 158.49 117.789 158.37 118.359 158.37C118.929 158.37 119.449 158.5 119.899 158.74C120.349 158.99 120.709 159.34 120.959 159.79C121.219 160.24 121.339 160.74 121.339 161.31C121.339 161.88 121.209 162.38 120.959 162.83C120.699 163.28 120.349 163.63 119.899 163.87C119.449 164.12 118.929 164.25 118.359 164.25C117.789 164.25 117.269 164.13 116.819 163.87Z" fill="black"/>
<path d="M124.219 160.95H126.079C126.359 160.95 126.569 160.88 126.729 160.74C126.889 160.6 126.959 160.41 126.959 160.17C126.959 159.93 126.879 159.75 126.729 159.61C126.569 159.47 126.359 159.4 126.079 159.4H124.219V160.95ZM125.689 161.87H124.219V164.14H123.189V158.46H126.249C126.609 158.46 126.919 158.54 127.189 158.69C127.459 158.84 127.659 159.05 127.799 159.3C127.939 159.56 128.009 159.85 128.009 160.16C128.009 160.55 127.899 160.89 127.689 161.19C127.479 161.49 127.179 161.69 126.809 161.79L128.399 164.13H127.189L125.699 161.86L125.689 161.87Z" fill="black"/>
<path d="M130.73 163.99C130.27 163.84 129.89 163.63 129.6 163.36L130.24 162.56C130.52 162.8 130.82 162.98 131.15 163.1C131.48 163.22 131.82 163.28 132.18 163.28C132.56 163.28 132.86 163.21 133.1 163.06C133.33 162.91 133.45 162.72 133.45 162.49C133.45 162.32 133.38 162.18 133.23 162.07C133.09 161.95 132.85 161.86 132.52 161.8L131.33 161.57C130.82 161.47 130.43 161.29 130.18 161.03C129.92 160.77 129.79 160.45 129.79 160.07C129.79 159.72 129.89 159.42 130.1 159.17C130.3 158.91 130.58 158.71 130.94 158.57C131.3 158.43 131.7 158.36 132.16 158.36C132.58 158.36 132.98 158.42 133.38 158.55C133.77 158.67 134.12 158.87 134.41 159.14L133.81 159.9C133.56 159.69 133.29 159.54 133 159.44C132.71 159.34 132.42 159.29 132.12 159.29C131.76 159.29 131.46 159.36 131.22 159.49C130.98 159.62 130.86 159.79 130.86 160C130.86 160.14 130.93 160.26 131.06 160.36C131.19 160.46 131.42 160.54 131.75 160.6L132.88 160.81C133.42 160.92 133.83 161.11 134.11 161.4C134.39 161.69 134.52 162.03 134.52 162.43C134.52 162.78 134.42 163.09 134.23 163.36C134.04 163.63 133.77 163.84 133.42 163.99C133.07 164.14 132.66 164.21 132.2 164.21C131.68 164.21 131.19 164.13 130.72 163.98" fill="black"/>
</svg>
