<svg width="191" height="190" viewBox="0 0 191 190" fill="none" xmlns="http://www.w3.org/2000/svg">
<path d="M190.04 0H0.120117V189.92H190.04V0Z" fill="white"/>
<path d="M102.09 64.9199H96.9L93.98 69.6599H99.16L102.09 64.9199Z" fill="#871555"/>
<path d="M133.11 55.36C133.11 55.36 129.87 56.65 126.11 60.8C122.33 64.97 120.16 69.62 121.78 70.86C122.4 71.33 123.84 71.41 126.45 69.06C128.49 67.23 130.56 64.83 131.97 61.4C133.65 57.29 133.12 55.41 133.12 55.36M153.73 62.82C149.54 60.68 146.49 58.06 143.31 56.43C140.27 54.87 138.31 54.23 135.86 54.55C135.45 54.6 134.85 54.8 134.85 54.8C134.85 54.8 136.12 59.11 131.09 66.37C126 73.72 121.38 73.68 120.07 71.65C118.69 69.52 120.47 65.17 123.43 61.31C126.53 57.27 131.99 53.91 131.99 53.91C131.99 53.91 130.25 52.85 125.97 55.27C121.81 57.63 114.62 63.25 107.98 72.72C101.34 82.19 100.01 87.4 99.0501 91.51C98.0901 95.61 98.9701 100 103.52 100C108.07 100 113.36 93.06 114.85 90.64C117.62 86.15 119.43 79.25 115.65 80.2C113.79 80.67 112.28 82.73 111.33 84.71C110.35 86.75 109.96 88.7 109.96 88.7C109.96 88.7 108.39 89.26 106.27 90.84C104.16 92.42 102.78 93.93 102.78 93.93C102.78 93.93 102.79 90.65 105.4 85.35C108.01 80.04 112.81 77.61 115.53 77.39C117.98 77.19 121.16 79.27 118.47 86.94C115.78 94.62 107.81 103.93 99.4402 104.05C91.7202 104.16 86.6601 94.3 97.4001 77.1C109.28 58.07 123.25 52.23 127.78 51.58C132.31 50.93 133.78 52.93 133.78 52.93C133.78 52.93 137.58 51.17 142.39 51.5C147.92 51.88 152.21 55.79 157.85 58.54C156.37 59.97 154.97 61.44 153.71 62.82M178.56 56.41C174.73 58.87 169.42 61.11 164.32 60.61C163.03 61.95 161.65 63.49 160.26 65.18C169.11 66.92 176.85 61.44 180.96 56.78C183.53 53.87 184.8 51.27 184.8 51.27C184.8 51.27 182.35 53.97 178.55 56.42M166.79 81.34C166.9 81.15 166.95 80.97 166.95 80.97C166.95 80.97 166.85 80.23 166.14 80.19C165.3 80.15 164.15 80.31 161.14 83.65C158.14 86.97 156.32 89.86 154.74 92.74C153.01 95.9 152.32 98.24 153.31 98.84C153.59 99.01 154.01 99.03 154.35 98.95C155.03 98.79 155.78 98.16 156.94 96.82C157.48 96.19 158.09 95.3 158.8 94.31C160.78 91.6 165.78 83.05 166.78 81.33M135.49 84.97C135.99 83.65 136.63 81.07 135.3 80.06C133.87 78.98 130.23 81.51 130.21 84.1C130.19 86.75 132.78 87.95 133.4 88.12C133.75 88.22 133.88 88.2 134.05 87.92C134.16 87.73 134.99 86.29 135.5 84.98M132.75 89.8C132.65 89.77 131.47 89.23 130.25 88.2C129.03 87.18 128.41 86.01 128.36 85.92C128.31 85.83 128.26 85.9 128.2 85.97C128.15 86.04 127.92 86.24 125.98 89.1C124.03 91.96 121.06 97.85 123.76 98.85C125.49 99.49 128.37 96.46 129.94 94.45C131.4 92.58 132.76 90.21 132.84 90.04C132.92 89.87 132.84 89.83 132.75 89.8ZM163.39 96.6C162.66 97.78 161.83 100.02 164.25 98.62C167.2 96.91 171.4 90.54 171.4 90.54H173.3C173.3 90.54 170.79 94.5 167.53 98.12C164.54 101.43 160.89 104.45 158.32 104.15C155.32 103.8 156.26 99.86 156.26 99.86C156.26 99.86 151.95 104.43 148.99 104.11C144.98 103.67 146.2 98.71 146.2 98.71C146.2 98.71 141.67 104.29 138.58 104.11C133.73 103.83 134.95 97.92 136.29 93.78C137.01 91.56 137.68 89.81 137.68 89.81C137.68 89.81 137.2 89.94 136.17 90.09C135.63 90.17 134.65 90.22 134.65 90.22C134.65 90.22 132.64 93.78 131.02 95.93C129.41 98.07 122.55 105.45 118.51 103.97C114.78 102.61 116.01 96.89 118.18 92.35C121.35 85.73 130.27 76.21 135.41 77.45C140.74 78.74 135.53 88.48 135.53 88.48C135.53 88.48 135.53 88.52 135.59 88.54C135.7 88.58 135.97 88.61 136.62 88.48C137.65 88.29 138.57 87.9 138.57 87.9C138.57 87.9 143.93 76.67 149.85 69.32C155.77 61.97 167.58 49.32 172.22 52.38C173.36 53.13 172.84 55.72 171.31 58.87C170.63 59.08 169.93 59.27 169.22 59.42C170.24 57.57 170.92 56 171.12 54.91C171.82 51.11 162.96 59.12 156.63 67.73C150.3 76.34 146.5 84.14 146.5 84.14C146.5 84.14 147.78 83.42 149.77 81.81C151.85 80.13 154.71 77.51 157.81 74.3C159.9 72.14 162.35 69.43 164.65 66.4C165.34 66.37 166.01 66.3 166.67 66.19C164.11 69.64 161.41 72.8 159.12 75.12C156.6 77.67 153.86 80.43 151.48 82.43C147.7 85.61 144.78 87.41 144.78 87.41C144.78 87.41 139.23 98.57 142.25 99.29C144.02 99.71 147.52 94.32 147.52 94.32C147.52 94.32 152.08 87.35 154.83 84.22C158.58 79.95 161.81 77.48 165.04 77.43C166.92 77.4 168.03 79.4 168.03 79.4L168.92 78.03H174.37C174.37 78.03 164.2 95.3 163.39 96.59M178.55 56.41C174.72 58.87 169.41 61.11 164.31 60.61C163.02 61.95 161.64 63.49 160.25 65.18C169.1 66.92 176.84 61.44 180.95 56.78C183.52 53.87 184.79 51.27 184.79 51.27C184.79 51.27 182.34 53.97 178.54 56.42M77.5302 81.33C79.7301 78.31 85.8102 67.72 85.8102 67.72C85.8102 67.72 85.7102 66.98 85.0002 66.95C84.1602 66.91 82.7602 67.19 79.9702 70.69C77.1702 74.18 75.0201 76.96 73.4501 79.85C71.7301 83 70.9701 85.23 71.9601 85.83C72.2401 86 72.6601 86.02 73.0001 85.94C73.6502 85.78 74.4901 85.13 75.6501 83.79C76.1901 83.16 76.8102 82.33 77.5302 81.34M49.7301 67.04C48.3001 65.96 44.6601 68.49 44.6401 71.08C44.6201 73.73 47.9301 74.49 48.3601 74.51C48.3601 74.51 48.7401 74.61 48.8801 74.3C48.9701 74.1 49.4201 73.27 49.9301 71.96C50.4301 70.64 51.0701 68.06 49.7401 67.05M47.5801 76.18C47.4901 76.15 46.1101 75.75 44.7701 74.89C43.4301 74.03 42.8101 72.76 42.7601 72.67C42.7101 72.58 42.6601 72.65 42.6001 72.72C42.5501 72.79 42.2601 73.16 40.3101 76.02C38.3601 78.88 35.4801 84.73 38.1801 85.73C39.9101 86.37 42.8101 83.33 44.3901 81.32C45.8501 79.45 47.5902 76.58 47.6602 76.41C47.7302 76.24 47.6601 76.2 47.5701 76.16M89.9001 77.9H91.8001C91.8001 77.9 82.2901 91.65 76.9201 91.03C73.9201 90.68 74.8101 86.98 74.8101 86.98C74.8101 86.98 70.5901 91.92 66.7301 90.93C63.2201 90.03 65.4801 84.19 65.4801 84.19C65.0801 84.35 57.4902 92.92 52.1602 90.87C46.5802 88.72 49.4701 81.55 50.5301 79.39C51.4301 77.57 52.4201 75.8 52.4201 75.8C52.4201 75.8 51.5601 76.04 51.0301 76.17C50.5001 76.29 49.6902 76.45 49.6902 76.45C49.6902 76.45 47.0502 80.74 45.4402 82.89C43.8302 85.03 36.9701 92.4 32.9301 90.93C28.8901 89.46 29.8801 83.81 32.1501 79.31C35.8301 72.02 44.5701 63.07 49.8301 64.41C55.1501 65.77 50.7501 74.39 50.7501 74.39C50.7501 74.39 51.8101 74.53 54.3401 72.8C57.9901 70.31 62.8001 63.61 68.0201 64.39C70.4701 64.76 72.7501 67.27 69.6301 72.05C68.6301 73.58 66.9501 74.95 65.6701 73.6C64.8701 72.76 65.5701 71.22 66.4001 70.17C67.5801 68.68 69.2201 68.88 69.2201 68.88C69.2201 68.88 70.0801 66.9 67.8901 66.94C66.1201 66.97 61.6301 71.11 59.0901 75.29C56.7601 79.13 53.2401 85.67 56.7801 87.09C60.0301 88.4 66.1901 81.07 69.0501 77.23C71.9101 73.39 78.4101 64.68 83.8701 64.33C85.7501 64.21 86.8701 65.92 86.8701 65.92L87.5002 64.92H92.9501C92.9501 64.92 82.6702 82.09 81.8701 83.39C81.2402 84.41 80.4001 86.7 82.7301 85.41C85.0601 84.12 89.9001 77.9 89.9001 77.9ZM86.9402 105.42C82.8102 102.52 77.7801 101.24 73.2101 101.42C68.5901 101.61 66.5101 105.06 66.5101 105.06C64.4201 101.42 60.3001 99.19 53.9301 99.25C43.6401 99.37 33.4301 104.12 25.3501 104.12C17.2701 104.12 11.9301 99.25 12.1201 90.59C12.4501 75.41 25.2701 61.74 34.8501 55.58C40.3601 52.04 44.9701 50.99 47.9901 51.33C50.1901 51.57 52.8401 54.12 51.1701 57.86C48.7201 63.35 45.3301 62.89 45.4501 60.27C45.5201 58.57 46.6601 57.49 47.5101 56.91C48.0501 56.53 49.0101 56.43 49.5101 56.42C49.9901 56.01 50.3601 53.01 46.4201 54C42.4701 54.99 37.7202 58.87 33.1902 63.87C28.6602 68.87 21.6101 78.34 19.8701 88.28C19.0601 92.89 19.6001 101.29 30.5201 101.19C39.7801 101.11 53.4401 95.01 65.9901 95.12C70.8601 95.16 75.1002 96.47 78.4102 98.52C81.6702 100.53 85.5602 103.45 86.9402 105.44" fill="#871555"/>
<path d="M174.03 97.91C173.31 97.91 172.67 98.07 172.08 98.4C171.49 98.74 171.03 99.19 170.69 99.76C170.35 100.33 170.19 100.96 170.19 101.62C170.19 102.28 170.35 102.93 170.69 103.48C171.03 104.05 171.49 104.5 172.08 104.83C172.67 105.17 173.3 105.33 174.03 105.33C174.76 105.33 175.4 105.17 175.99 104.83C176.58 104.5 177.02 104.05 177.36 103.48C177.7 102.92 177.86 102.3 177.86 101.62C177.86 100.94 177.7 100.33 177.36 99.76C177.02 99.19 176.57 98.74 175.99 98.4C175.4 98.07 174.75 97.91 174.03 97.91ZM174.03 104.62C173.44 104.62 172.91 104.48 172.46 104.23C172 103.97 171.64 103.62 171.38 103.17C171.12 102.72 171 102.2 171 101.63C171 101.06 171.12 100.55 171.38 100.11C171.64 99.67 171.99 99.29 172.46 99.03C172.93 98.77 173.44 98.65 174.03 98.65C174.62 98.65 175.13 98.77 175.6 99.03C176.07 99.29 176.42 99.66 176.68 100.11C176.94 100.56 177.06 101.08 177.06 101.63C177.06 102.18 176.94 102.72 176.68 103.17C176.42 103.62 176.07 103.97 175.62 104.23C175.16 104.49 174.63 104.62 174.04 104.62H174.03ZM175.64 100.97C175.64 100.67 175.54 100.41 175.35 100.21C175.15 100.01 174.89 99.91 174.56 99.91H172.61V103.27H173.47V102.05H174.12L174.91 103.27H175.89L175.01 101.96C175.21 101.86 175.36 101.73 175.47 101.55C175.58 101.37 175.63 101.18 175.63 100.96L175.64 100.97ZM173.48 100.64H174.41C174.52 100.64 174.6 100.67 174.67 100.72C174.74 100.79 174.77 100.87 174.77 100.96C174.77 101.05 174.74 101.14 174.67 101.19C174.6 101.26 174.52 101.29 174.41 101.29H173.48V100.64Z" fill="#871555"/>
<path d="M71.7602 28.43C72.7402 28.43 73.6602 28.26 74.5102 27.95C75.3602 27.64 76.0402 27.17 76.5902 26.53L74.9602 24.75C74.0902 25.63 73.0402 26.07 71.8102 26.07C71.0302 26.07 70.3302 25.9 69.7102 25.55C69.0802 25.22 68.5902 24.75 68.2402 24.17C67.8902 23.59 67.7102 22.94 67.7102 22.22C67.7102 21.5 67.8902 20.84 68.2402 20.25C68.5902 19.66 69.0902 19.22 69.7102 18.87C70.3302 18.54 71.0102 18.37 71.7802 18.37C72.3602 18.37 72.9102 18.47 73.4302 18.69C73.9302 18.91 74.4102 19.26 74.8802 19.72L76.5102 17.9C75.9802 17.28 75.2902 16.8 74.4602 16.48C73.6102 16.16 72.6902 16 71.7102 16C70.4302 16 69.2802 16.27 68.2602 16.8C67.2402 17.35 66.4402 18.08 65.8602 19.03C65.2802 19.98 64.9902 21.05 64.9902 22.21C64.9902 23.37 65.2702 24.43 65.8602 25.38C66.4502 26.33 67.2402 27.08 68.2802 27.61C69.3002 28.16 70.4602 28.43 71.7602 28.43Z" fill="#871555"/>
<path d="M83.3499 18.8299C82.1999 18.8299 81.2799 19.1799 80.6299 19.8599V15.6799H78.1299V28.2099H80.6299V22.9899C80.6299 22.4399 80.8299 21.9899 81.2299 21.6599C81.6299 21.3299 82.1499 21.1599 82.7599 21.1599C83.3699 21.1599 83.8299 21.3099 84.1399 21.6299C84.4499 21.9499 84.6199 22.3999 84.6199 22.9599V28.2099H87.1199V22.3899C87.1199 21.6899 86.9499 21.0699 86.6399 20.5199C86.3299 19.9699 85.8699 19.5499 85.3099 19.2499C84.7299 18.9699 84.0799 18.8199 83.3399 18.8199L83.3499 18.8299ZM98.6999 23.6999C98.6999 22.8199 98.4999 21.9999 98.1199 21.2499C97.7199 20.5199 97.1499 19.9299 96.3999 19.4799C95.6499 19.0499 94.7799 18.8299 93.7799 18.8299C92.7799 18.8299 91.9099 19.0499 91.1599 19.4799C90.4099 19.9099 89.8299 20.4999 89.4299 21.2299C89.0299 21.9599 88.8299 22.7599 88.8299 23.6499C88.8299 24.5399 89.0499 25.3499 89.4599 26.0699C89.8799 26.7999 90.4899 27.3899 91.3099 27.7999C92.1099 28.2199 93.0599 28.4299 94.1799 28.4299C95.0599 28.4299 95.8299 28.2999 96.4999 28.0299C97.1699 27.7799 97.6999 27.4499 98.0799 27.0299L96.7299 25.3499C96.3099 25.6699 95.9299 25.8999 95.5499 26.0499C95.1699 26.1999 94.7199 26.2799 94.1999 26.2799C93.4799 26.2799 92.8799 26.1299 92.3999 25.8299C91.9199 25.5299 91.5799 25.0999 91.3999 24.5499H98.6099C98.6599 24.2999 98.6899 24.0199 98.6899 23.6999H98.6999ZM93.7999 20.9999C94.4199 20.9999 94.9499 21.1499 95.3699 21.4499C95.7899 21.7699 96.0499 22.1799 96.1999 22.7299H91.3799C91.5299 22.1799 91.8299 21.7599 92.2499 21.4499C92.6699 21.1499 93.1799 20.9999 93.7999 20.9999ZM105.7 18.9199C105.15 18.9199 104.6 19.0199 104.08 19.2399C103.55 19.4599 103.13 19.7699 102.83 20.2099V19.0599H100.45V28.2199H102.95V23.5899C102.95 22.7599 103.2 22.1599 103.68 21.7899C104.16 21.4399 104.81 21.2599 105.61 21.2599C105.93 21.2599 106.24 21.2899 106.56 21.3399V19.0199C106.28 18.9499 105.98 18.9199 105.69 18.9199H105.7Z" fill="#871555"/>
<path d="M113.25 18.91C112.7 18.91 112.15 19.01 111.63 19.23C111.1 19.45 110.68 19.76 110.38 20.2V19.05H108V28.21H110.5V23.58C110.5 22.75 110.75 22.15 111.23 21.78C111.71 21.43 112.36 21.25 113.16 21.25C113.48 21.25 113.79 21.28 114.11 21.33V19.01C113.83 18.94 113.53 18.91 113.24 18.91H113.25ZM122.83 19.04L120.3 25.42L117.68 19.04H114.93L119.03 28.1L118.96 28.27C118.84 28.55 118.66 28.79 118.41 28.94C118.16 29.11 117.91 29.19 117.63 29.19C117.16 29.19 116.6 29.06 115.95 28.79L115.3 30.81C115.65 30.99 116.03 31.14 116.48 31.23C116.91 31.33 117.33 31.38 117.71 31.38C118.48 31.38 119.16 31.18 119.74 30.78C120.32 30.4 120.77 29.83 121.09 29.08L125.46 19.05H122.83V19.04Z" fill="#871555"/>
<path d="M86.0702 161.1C86.0702 152.86 79.3902 146.18 71.1502 146.18C62.9102 146.18 56.2402 152.86 56.2402 161.1C56.2402 169.34 62.9202 176.01 71.1502 176.01C79.3802 176.01 86.0702 169.33 86.0702 161.1Z" fill="#F40009"/>
<path d="M76.6498 157.31C76.6498 157.31 76.1498 157.51 75.5598 158.16C74.9698 158.81 74.6298 159.53 74.8898 159.72C74.9898 159.79 75.2098 159.81 75.6198 159.44C75.9398 159.15 76.2598 158.79 76.4798 158.25C76.7398 157.61 76.6598 157.32 76.6598 157.31M79.8598 158.47C79.2098 158.14 78.7398 157.73 78.2398 157.48C77.7698 157.24 77.4598 157.14 77.0798 157.19C77.0198 157.19 76.9198 157.23 76.9198 157.23C76.9198 157.23 77.1198 157.9 76.3398 159.03C75.5498 160.17 74.8298 160.17 74.6298 159.85C74.4198 159.52 74.6898 158.84 75.1498 158.24C75.6298 157.61 76.4798 157.09 76.4798 157.09C76.4798 157.09 76.2098 156.93 75.5498 157.3C74.8998 157.67 73.7898 158.54 72.7598 160.01C71.7298 161.48 71.5198 162.29 71.3698 162.93C71.2198 163.57 71.3598 164.25 72.0598 164.25C72.7598 164.25 73.5898 163.17 73.8198 162.8C74.2498 162.1 74.5298 161.03 73.9398 161.18C73.6498 161.25 73.4198 161.57 73.2698 161.88C73.1198 162.2 73.0598 162.5 73.0598 162.5C73.0598 162.5 72.8198 162.59 72.4898 162.83C72.1598 163.08 71.9498 163.31 71.9498 163.31C71.9498 163.31 71.9498 162.8 72.3598 161.98C72.7698 161.16 73.5098 160.78 73.9298 160.74C74.3098 160.71 74.8098 161.03 74.3898 162.22C73.9698 163.41 72.7298 164.86 71.4298 164.88C70.2298 164.9 69.4398 163.37 71.1098 160.69C72.9498 157.74 75.1198 156.83 75.8298 156.73C76.5298 156.63 76.7598 156.94 76.7598 156.94C76.7598 156.94 77.3498 156.67 78.0998 156.72C78.9598 156.78 79.6298 157.39 80.4998 157.81C80.2698 158.03 80.0498 158.26 79.8598 158.48M83.7198 157.48C83.1298 157.86 82.2998 158.21 81.5098 158.13C81.3098 158.34 81.0998 158.58 80.8798 158.84C82.2598 159.11 83.4598 158.26 84.0998 157.54C84.4998 157.09 84.6898 156.68 84.6898 156.68C84.6898 156.68 84.3098 157.1 83.7198 157.48ZM81.8898 161.35L81.9198 161.29C81.9198 161.29 81.8998 161.17 81.7898 161.17C81.6598 161.17 81.4798 161.19 81.0098 161.71C80.5398 162.22 80.2598 162.67 80.0198 163.12C79.7498 163.61 79.6398 163.97 79.7998 164.07C79.8398 164.1 79.9098 164.1 79.9598 164.08C80.0598 164.06 80.1798 163.96 80.3598 163.75C80.4398 163.65 80.5398 163.52 80.6498 163.36C80.9598 162.94 81.7298 161.61 81.8898 161.34M77.0298 161.91C77.1098 161.71 77.2098 161.31 76.9998 161.15C76.7798 160.98 76.2098 161.37 76.2098 161.78C76.2098 162.19 76.6098 162.38 76.7098 162.4C76.7598 162.42 76.7798 162.42 76.8098 162.37C76.8298 162.34 76.9498 162.12 77.0298 161.91ZM76.5998 162.66C76.5998 162.66 76.3998 162.57 76.2098 162.41C76.0198 162.25 75.9198 162.07 75.9198 162.05C75.9198 162.04 75.8998 162.05 75.8998 162.05C75.8998 162.06 75.8598 162.09 75.5498 162.54C75.2498 162.98 74.7898 163.9 75.2098 164.05C75.4798 164.15 75.9298 163.68 76.1698 163.37C76.3998 163.08 76.6098 162.71 76.6198 162.68C76.6298 162.65 76.6198 162.65 76.6098 162.64M81.3698 163.7C81.2498 163.88 81.1298 164.23 81.4998 164.01C81.9598 163.74 82.6098 162.75 82.6098 162.75H82.8998C82.8998 162.75 82.5098 163.37 82.0098 163.93C81.5398 164.44 80.9798 164.91 80.5798 164.87C80.1098 164.82 80.2598 164.2 80.2598 164.2C80.2598 164.2 79.5898 164.91 79.1298 164.86C78.5098 164.79 78.6998 164.02 78.6998 164.02C78.6998 164.02 77.9898 164.89 77.5198 164.86C76.7698 164.82 76.9498 163.9 77.1598 163.26C77.2698 162.91 77.3798 162.64 77.3798 162.64C77.3798 162.64 77.3098 162.66 77.1498 162.68C77.0698 162.69 76.9098 162.7 76.9098 162.7C76.9098 162.7 76.5998 163.25 76.3498 163.58C76.0998 163.92 75.0298 165.06 74.3998 164.83C73.8198 164.62 74.0098 163.73 74.3498 163.03C74.8398 162 76.2298 160.52 77.0298 160.72C77.8598 160.92 77.0498 162.43 77.0498 162.43C77.0698 162.43 77.1098 162.44 77.2098 162.43C77.3698 162.4 77.5098 162.34 77.5098 162.34C77.5098 162.34 78.3398 160.6 79.2598 159.45C80.1798 158.31 82.0098 156.34 82.7298 156.82C82.9098 156.94 82.8298 157.34 82.5898 157.83C82.4898 157.86 82.3798 157.89 82.2698 157.92C82.4298 157.63 82.5298 157.39 82.5598 157.22C82.6698 156.63 81.2898 157.87 80.3098 159.21C79.3298 160.55 78.7398 161.76 78.7398 161.76C78.7398 161.76 78.9398 161.65 79.2498 161.4C79.5698 161.14 80.0098 160.73 80.4998 160.23C80.8198 159.9 81.1998 159.48 81.5598 159.01C81.6698 159.01 81.7698 158.99 81.8698 158.98C81.4698 159.52 81.0498 160.01 80.6998 160.37C80.3098 160.77 79.8798 161.19 79.5198 161.5C78.9298 161.99 78.4798 162.28 78.4798 162.28C78.4798 162.28 77.6198 164.01 78.0898 164.13C78.3698 164.19 78.9098 163.36 78.9098 163.36C78.9098 163.36 79.6198 162.28 80.0398 161.79C80.6198 161.13 81.1298 160.75 81.6298 160.74C81.9198 160.74 82.0898 161.04 82.0898 161.04L82.2298 160.83H83.0798C83.0798 160.83 81.4998 163.51 81.3798 163.71M83.7298 157.47C83.1398 157.85 82.3098 158.2 81.5198 158.12C81.3198 158.33 81.1098 158.57 80.8898 158.83C82.2698 159.1 83.4698 158.25 84.1098 157.53C84.5098 157.08 84.6998 156.67 84.6998 156.67C84.6998 156.67 84.3198 157.09 83.7298 157.47ZM71.8498 158.79H71.0498L70.5998 159.53H71.3998L71.8498 158.79ZM68.0398 161.34C68.3798 160.87 69.3298 159.23 69.3298 159.23C69.3298 159.23 69.3198 159.11 69.2098 159.11C69.0798 159.11 68.8598 159.15 68.4298 159.69C67.9998 160.23 67.6598 160.66 67.4198 161.11C67.1498 161.6 67.0398 161.94 67.1898 162.04C67.2298 162.07 67.2998 162.07 67.3498 162.06C67.4498 162.03 67.5798 161.93 67.7598 161.73C67.8398 161.63 67.9398 161.5 68.0498 161.35M63.7298 159.13C63.5098 158.96 62.9398 159.35 62.9398 159.76C62.9398 160.17 63.4498 160.29 63.5198 160.29C63.5198 160.29 63.5798 160.3 63.5998 160.26C63.6098 160.23 63.6798 160.1 63.7598 159.9C63.8398 159.69 63.9398 159.29 63.7298 159.14M63.3898 160.56C63.3898 160.56 63.1598 160.49 62.9598 160.36C62.7498 160.23 62.6598 160.03 62.6498 160.02C62.6498 160.01 62.6298 160.02 62.6298 160.02C62.6298 160.03 62.5798 160.09 62.2698 160.53C61.9698 160.97 61.5198 161.88 61.9398 162.04C62.2098 162.14 62.6598 161.67 62.8998 161.36C63.1298 161.07 63.3998 160.63 63.4098 160.6C63.4198 160.57 63.4098 160.57 63.3998 160.56M69.9798 160.83H70.2698C70.2698 160.83 68.7998 162.96 67.9598 162.87C67.4998 162.82 67.6298 162.24 67.6298 162.24C67.6298 162.24 66.9698 163.01 66.3698 162.86C65.8298 162.72 66.1798 161.81 66.1798 161.81C66.1198 161.84 64.9398 163.17 64.1098 162.85C63.2398 162.52 63.6898 161.4 63.8598 161.07C63.9998 160.79 64.1498 160.51 64.1498 160.51C64.1498 160.51 64.0198 160.55 63.9298 160.57C63.8498 160.59 63.7198 160.61 63.7198 160.61C63.7198 160.61 63.3098 161.28 63.0598 161.61C62.8098 161.94 61.7398 163.09 61.1198 162.86C60.4898 162.63 60.6498 161.75 60.9998 161.06C61.5698 159.93 62.9298 158.54 63.7398 158.74C64.5698 158.95 63.8798 160.29 63.8798 160.29C63.8798 160.29 64.0398 160.31 64.4398 160.04C65.0098 159.65 65.7498 158.62 66.5598 158.74C66.9398 158.8 67.2998 159.19 66.8098 159.93C66.6498 160.17 66.3898 160.38 66.1898 160.17C66.0698 160.04 66.1698 159.8 66.3098 159.64C66.4898 159.41 66.7498 159.44 66.7498 159.44C66.7498 159.44 66.8898 159.13 66.5398 159.14C66.2598 159.14 65.5698 159.79 65.1698 160.44C64.8098 161.03 64.2598 162.05 64.8098 162.27C65.3098 162.47 66.2698 161.33 66.7198 160.74C67.1598 160.14 68.1698 158.79 69.0198 158.74C69.3098 158.72 69.4898 158.98 69.4898 158.98L69.5898 158.83H70.4398C70.4398 158.83 68.8398 161.5 68.7198 161.7C68.6198 161.86 68.4898 162.21 68.8498 162.01C69.2098 161.81 69.9598 160.84 69.9598 160.84M69.4998 165.11C68.8598 164.66 68.0798 164.46 67.3698 164.49C66.6498 164.52 66.3298 165.05 66.3298 165.05C66.0098 164.49 65.3698 164.14 64.3798 164.15C62.7798 164.17 61.1998 164.91 59.9398 164.91C58.6798 164.91 57.8598 164.15 57.8798 162.81C57.9298 160.45 59.9198 158.33 61.4098 157.37C62.2598 156.82 62.9798 156.66 63.4498 156.71C63.7898 156.75 64.1998 157.14 63.9398 157.72C63.5598 158.57 63.0298 158.5 63.0498 158.1C63.0598 157.83 63.2398 157.67 63.3698 157.58C63.4598 157.52 63.5998 157.51 63.6798 157.5C63.7598 157.44 63.8098 156.97 63.1998 157.12C62.5898 157.27 61.8498 157.87 61.1498 158.65C60.4498 159.43 59.3498 160.9 59.0798 162.44C58.9598 163.16 59.0398 164.46 60.7298 164.45C62.1698 164.44 64.2898 163.49 66.2398 163.51C66.9998 163.51 67.6598 163.72 68.1698 164.04C68.6798 164.35 69.2798 164.8 69.4898 165.12" fill="white"/>
<path d="M83.3701 163.39C83.2201 163.39 83.0901 163.42 82.9601 163.49C82.8401 163.56 82.74 163.65 82.67 163.77C82.6 163.89 82.5601 164.02 82.5601 164.16C82.5601 164.3 82.59 164.43 82.67 164.55C82.74 164.67 82.8401 164.76 82.9601 164.83C83.0801 164.9 83.2201 164.94 83.3701 164.94C83.5201 164.94 83.6601 164.91 83.7801 164.83C83.9001 164.76 84 164.67 84.07 164.55C84.14 164.43 84.1801 164.3 84.1801 164.16C84.1801 164.02 84.15 163.89 84.07 163.77C83.99 163.65 83.9101 163.56 83.7801 163.49C83.6601 163.42 83.5201 163.39 83.3701 163.39ZM83.3701 164.79C83.2501 164.79 83.14 164.76 83.04 164.71C82.94 164.66 82.87 164.58 82.82 164.49C82.77 164.4 82.7401 164.29 82.7401 164.17C82.7401 164.05 82.77 163.95 82.82 163.85C82.87 163.75 82.95 163.68 83.04 163.63C83.13 163.58 83.2401 163.55 83.3701 163.55C83.5001 163.55 83.6 163.58 83.7 163.63C83.8 163.68 83.87 163.76 83.92 163.85C83.97 163.94 84.0001 164.05 84.0001 164.17C84.0001 164.29 83.97 164.4 83.92 164.49C83.87 164.58 83.79 164.66 83.7 164.71C83.6 164.76 83.4901 164.79 83.3701 164.79ZM83.7 164.03C83.7 163.97 83.68 163.91 83.64 163.87C83.6 163.83 83.54 163.81 83.48 163.81H83.07V164.51H83.2501V164.25H83.39L83.55 164.51H83.7501L83.57 164.24C83.57 164.24 83.64 164.19 83.67 164.15C83.7 164.11 83.7 164.07 83.7 164.03ZM83.2501 163.96H83.4401C83.4401 163.96 83.4801 163.96 83.4901 163.98C83.5001 163.99 83.51 164.01 83.51 164.03C83.51 164.05 83.5101 164.07 83.4901 164.08C83.4801 164.09 83.4601 164.1 83.4401 164.1H83.2501V163.96Z" fill="white"/>
<path d="M91.0898 159.39V160.79H93.3898V161.72H91.0898V164.14H90.0498V158.46H94.4298V159.39H91.0898Z" fill="#F40009"/>
<path d="M100.46 163.2V164.14H96.1499V158.46H97.1899V163.2H100.46Z" fill="#F40009"/>
<path d="M105.53 161.87L104.57 159.37L103.61 161.87H105.54H105.53ZM105.87 162.78H103.25L102.72 164.14H101.63L103.92 158.47H105.2L107.49 164.14H106.39L105.87 162.78Z" fill="#F40009"/>
<path d="M113.68 158.46L111.49 164.14H110.21L108.02 158.46H109.15L110.86 163.1L112.58 158.46H113.68Z" fill="#F40009"/>
<path d="M118.75 163.03C119.04 162.86 119.27 162.63 119.43 162.32C119.59 162.02 119.67 161.67 119.67 161.29C119.67 160.91 119.59 160.56 119.43 160.26C119.27 159.96 119.04 159.72 118.75 159.56C118.46 159.39 118.13 159.31 117.76 159.31C117.39 159.31 117.07 159.39 116.78 159.56C116.49 159.73 116.26 159.96 116.1 160.26C115.94 160.56 115.85 160.9 115.85 161.29C115.85 161.68 115.93 162.02 116.1 162.32C116.26 162.62 116.49 162.86 116.78 163.03C117.07 163.2 117.4 163.28 117.76 163.28C118.12 163.28 118.46 163.2 118.75 163.03ZM116.22 163.86C115.77 163.61 115.41 163.26 115.15 162.82C114.89 162.37 114.77 161.87 114.77 161.3C114.77 160.73 114.9 160.22 115.15 159.78C115.41 159.33 115.76 158.99 116.22 158.74C116.67 158.49 117.19 158.37 117.76 158.37C118.33 158.37 118.85 158.49 119.3 158.74C119.75 158.99 120.11 159.34 120.36 159.78C120.62 160.23 120.74 160.73 120.74 161.3C120.74 161.87 120.61 162.37 120.36 162.82C120.1 163.27 119.75 163.61 119.3 163.86C118.85 164.11 118.33 164.23 117.76 164.23C117.19 164.23 116.67 164.11 116.22 163.86Z" fill="#F40009"/>
<path d="M123.63 160.94H125.49C125.77 160.94 125.98 160.87 126.14 160.73C126.3 160.59 126.37 160.4 126.37 160.16C126.37 159.92 126.29 159.74 126.14 159.6C125.98 159.46 125.77 159.39 125.49 159.39H123.63V160.94ZM125.1 161.86H123.63V164.13H122.6V158.46H125.66C126.02 158.46 126.33 158.53 126.6 158.69C126.87 158.84 127.07 159.04 127.21 159.3C127.35 159.56 127.42 159.85 127.42 160.16C127.42 160.55 127.31 160.89 127.1 161.19C126.89 161.49 126.59 161.69 126.22 161.79L127.81 164.13H126.6L125.11 161.86H125.1Z" fill="#F40009"/>
<path d="M130.13 163.98C129.67 163.83 129.29 163.62 129 163.35L129.64 162.55C129.92 162.79 130.22 162.97 130.55 163.09C130.88 163.21 131.22 163.27 131.58 163.27C131.96 163.27 132.26 163.2 132.5 163.05C132.74 162.9 132.85 162.71 132.85 162.48C132.85 162.31 132.78 162.17 132.63 162.05C132.49 161.93 132.25 161.84 131.92 161.78L130.73 161.55C130.22 161.45 129.83 161.27 129.58 161.01C129.32 160.75 129.19 160.43 129.19 160.05C129.19 159.7 129.29 159.4 129.5 159.14C129.7 158.88 129.98 158.68 130.34 158.54C130.7 158.4 131.1 158.33 131.56 158.33C131.98 158.33 132.38 158.39 132.78 158.52C133.17 158.64 133.52 158.84 133.81 159.11L133.21 159.88C132.96 159.68 132.69 159.52 132.4 159.42C132.11 159.32 131.82 159.27 131.52 159.27C131.16 159.27 130.86 159.34 130.62 159.47C130.38 159.6 130.26 159.77 130.26 159.98C130.26 160.12 130.33 160.24 130.46 160.34C130.59 160.44 130.82 160.52 131.15 160.58L132.28 160.79C132.82 160.89 133.23 161.09 133.51 161.38C133.79 161.67 133.93 162.01 133.93 162.41C133.93 162.76 133.83 163.07 133.64 163.34C133.45 163.61 133.18 163.82 132.83 163.97C132.48 164.12 132.07 164.19 131.61 164.19C131.09 164.19 130.6 164.11 130.14 163.96" fill="#F40009"/>
<path d="M74.7798 113.61V127.23C74.7798 127.62 74.8898 127.92 75.1198 128.12C75.3398 128.32 75.6398 128.42 76.0198 128.42C76.3398 128.42 76.6298 128.37 76.8798 128.27V129.34C76.5898 129.45 76.2698 129.51 75.9398 129.51C75.1898 129.51 74.5998 129.32 74.1898 128.94C73.7798 128.56 73.5698 128.03 73.5698 127.33V113.61H74.7898H74.7798Z" fill="#871555"/>
<path d="M79.7099 118.01H80.9199V129.36H79.7099V118.01ZM80.9699 114.37C81.1399 114.54 81.2199 114.75 81.2199 115.02C81.2199 115.29 81.1399 115.5 80.9699 115.67C80.7999 115.84 80.5899 115.92 80.3199 115.92C80.0499 115.92 79.8399 115.84 79.6699 115.67C79.4999 115.5 79.4199 115.29 79.4199 115.02C79.4199 114.75 79.4999 114.54 79.6699 114.37C79.8399 114.2 80.0499 114.12 80.3199 114.12C80.5899 114.12 80.7999 114.2 80.9699 114.37Z" fill="#871555"/>
<path d="M91.5899 127.3C92.2999 126.93 92.8599 126.41 93.2799 125.73C93.6999 125.05 93.9099 124.26 93.9099 123.35C93.9099 122.44 93.6999 121.67 93.2799 120.98C92.8599 120.29 92.2999 119.77 91.5899 119.4C90.8899 119.03 90.1099 118.84 89.2799 118.84C88.4499 118.84 87.7299 119.04 87.0499 119.44C86.3699 119.84 85.8399 120.38 85.4499 121.07C85.0599 121.76 84.8599 122.52 84.8599 123.34C84.8599 124.16 85.0599 124.94 85.4499 125.62C85.8399 126.31 86.3699 126.85 87.0499 127.24C87.7299 127.64 88.4699 127.84 89.2799 127.84C90.0899 127.84 90.8899 127.65 91.5899 127.28M95.0199 117.99V128.32C95.0199 129.33 94.7799 130.2 94.3099 130.95C93.8299 131.7 93.1599 132.27 92.2999 132.68C91.4299 133.09 90.4299 133.29 89.2799 133.29C87.4499 133.29 85.9099 132.92 84.6499 132.18L85.1899 131.13C86.3499 131.83 87.7099 132.18 89.2699 132.18C90.6499 132.18 91.7499 131.83 92.5699 131.14C93.3899 130.45 93.7899 129.49 93.7899 128.26V126.56C93.3199 127.31 92.6699 127.9 91.8599 128.32C91.0499 128.74 90.1599 128.95 89.1999 128.95C88.1699 128.95 87.2199 128.7 86.3599 128.21C85.4999 127.71 84.8299 127.04 84.3399 126.18C83.8499 125.32 83.6099 124.38 83.6099 123.34C83.6099 122.3 83.8499 121.36 84.3399 120.51C84.8299 119.66 85.4999 118.98 86.3599 118.48C87.2199 117.98 88.1599 117.73 89.1999 117.73C90.1799 117.73 91.0799 117.95 91.8899 118.38C92.7099 118.81 93.3499 119.42 93.8299 120.2V118H94.9999L95.0199 117.99Z" fill="#871555"/>
<path d="M106.63 118.89C107.45 119.66 107.85 120.7 107.85 122.01V129.36H106.64V122.2C106.64 121.17 106.34 120.35 105.73 119.76C105.12 119.17 104.25 118.87 103.12 118.87C102.3 118.87 101.57 119.03 100.94 119.35C100.31 119.67 99.8202 120.1 99.4702 120.64C99.1202 121.18 98.9502 121.77 98.9502 122.41V129.37H97.7402V113.62H98.9502V119.86C99.4502 119.14 100.08 118.6 100.85 118.26C101.61 117.92 102.44 117.75 103.33 117.75C104.71 117.75 105.81 118.13 106.63 118.9" fill="#871555"/>
<path d="M116.59 128.04V129.17C116.37 129.3 116.08 129.39 115.74 129.46C115.4 129.53 115.05 129.57 114.68 129.57C113.53 129.57 112.64 129.25 111.99 128.61C111.34 127.97 111.02 127.09 111.02 125.97V119.06H109.09V118.01H111.02V115.08L112.24 114.51V118.01H116.51V119.06H112.24V125.85C112.24 126.68 112.47 127.31 112.92 127.77C113.37 128.22 113.99 128.45 114.77 128.45C115.41 128.45 116.02 128.32 116.59 128.05" fill="#871555"/>
<path d="M81.4101 112.36C80.5301 112.36 79.8101 113.08 79.8101 113.96C79.8101 114.84 80.5201 115.56 81.4101 115.56C82.3001 115.56 83.01 114.84 83.01 113.96C83.01 113.08 82.2901 112.36 81.4101 112.36ZM81.4101 112.88C82.0001 112.88 82.48 113.36 82.48 113.95C82.48 114.54 82.0001 115.02 81.4101 115.02C80.8201 115.02 80.3401 114.54 80.3401 113.95C80.3401 113.36 80.8201 112.88 81.4101 112.88Z" fill="#871555"/>
<path d="M80.3102 109.93C80.1002 109.93 79.9402 110.1 79.9402 110.3C79.9402 110.5 80.1102 110.67 80.3102 110.67C80.5102 110.67 80.6801 110.5 80.6801 110.3C80.6801 110.1 80.5102 109.93 80.3102 109.93ZM80.3102 111.2C79.8202 111.2 79.4102 110.8 79.4102 110.3C79.4102 109.8 79.8102 109.4 80.3102 109.4C80.8102 109.4 81.2101 109.8 81.2101 110.3C81.2101 110.8 80.8102 111.2 80.3102 111.2Z" fill="#871555"/>
</svg>
