<svg width="9" height="40" viewBox="0 0 9 40" fill="none" xmlns="http://www.w3.org/2000/svg">
<path d="M4.46637 40C2.43637 40 1.33637 39.6737 0.826366 38.6946C0.676366 38.3967 0.486366 36.9352 0.556366 35.4738C0.576366 35.0055 0.626365 34.6366 0.696365 34.2251L0.726368 34.0974C0.816368 33.7427 0.886367 33.8279 0.936367 33.6718C0.976367 33.5157 0.906365 33.388 0.926365 33.2461C1.00636 32.7921 1.09637 32.3948 1.09637 31.8982C1.10637 31.7279 1.18637 31.7279 1.18637 31.5576C1.18637 31.3874 1.13637 31.3164 1.10637 31.1745C1.07637 30.7063 1.07637 30.0252 1.04637 29.5286C1.05637 29.3726 1.13637 29.3442 1.13637 29.1597C1.13637 28.9469 1.02637 28.8192 0.996368 28.6489C0.966368 28.2091 0.966367 27.6557 0.936367 27.2159C0.936367 27.0172 1.04637 26.9746 1.04637 26.7334C1.04637 26.4922 0.906368 26.3787 0.906368 26.1375C0.906368 26.0098 0.866367 25.6551 0.866367 25.6551C0.706367 22.2072 0.526367 18.4613 0.526367 17.9931C0.526367 17.156 0.756367 16.3614 1.00637 15.6519C1.13637 15.2688 1.23637 14.8716 1.27637 14.6445C1.68637 12.0764 1.98636 9.60751 2.17636 8.3447C2.35636 7.18121 2.85637 4.11642 2.82637 2.9955C2.82637 2.85361 2.82637 2.68335 2.79637 2.64078C2.72637 2.55565 2.62637 2.56984 2.61637 2.34281C2.60637 2.12998 2.78637 1.60499 2.80637 1.51986C2.81637 1.44892 2.87637 1.30703 2.89637 1.08001C2.90637 0.93812 2.74637 0.739479 2.74637 0.739479C2.72637 0.313814 2.88637 -0.026724 3.16637 0.00165366H5.77637C6.05637 -0.026724 6.22637 0.313814 6.19637 0.739479C6.19637 0.739479 6.03637 0.923931 6.04637 1.08001C6.06637 1.29284 6.12637 1.44892 6.13637 1.51986C6.15637 1.60499 6.33637 2.12998 6.32637 2.34281C6.31637 2.56984 6.20637 2.55565 6.14637 2.64078C6.11637 2.68335 6.11637 2.85361 6.11637 2.9955C6.08637 4.11642 6.59636 7.18121 6.76637 8.3447C6.95637 9.60751 7.25637 12.0764 7.66637 14.6445C7.70637 14.8716 7.80637 15.2688 7.93637 15.6519C8.18637 16.3614 8.41637 17.156 8.41637 17.9931C8.41637 18.4613 8.23637 22.2072 8.07637 25.6551C8.07637 25.6551 8.04637 26.0098 8.03637 26.1375C8.03637 26.3787 7.89637 26.4922 7.89637 26.7334C7.89637 26.9605 8.01637 27.0172 8.00637 27.2159C7.97637 27.6557 7.97637 28.2091 7.94637 28.6489C7.91637 28.8334 7.81637 28.9611 7.80637 29.1597C7.80637 29.33 7.87637 29.3726 7.89637 29.5286C7.86637 30.0252 7.86636 30.7205 7.83636 31.1745C7.80636 31.3164 7.74637 31.4016 7.75637 31.5576C7.75637 31.7421 7.83637 31.7279 7.84637 31.8982C7.84637 32.3806 7.93637 32.7921 8.01637 33.2461C8.03637 33.388 7.96637 33.5157 8.00637 33.6718C8.04637 33.8279 8.12637 33.7427 8.21637 34.0974L8.24637 34.2251C8.32637 34.6366 8.36637 35.0055 8.38637 35.4738C8.45637 36.9352 8.27637 38.4109 8.11637 38.6946C7.59637 39.6595 6.50637 40 4.47637 40" fill="#E1CA84"/>
</svg>
