<svg width="191" height="190" viewBox="0 0 191 190" fill="none" xmlns="http://www.w3.org/2000/svg">
<path d="M190.56 0H0.639648V189.92H190.56V0Z" fill="#871555"/>
<path d="M190.56 0H0.639648V75.97H190.56V0Z" fill="#CDA075"/>
<path d="M39.0796 28.4299C40.0596 28.4299 40.9796 28.2599 41.8296 27.9499C42.6796 27.6399 43.3595 27.1699 43.9095 26.5299L42.2796 24.7499C41.4096 25.6299 40.3596 26.0699 39.1296 26.0699C38.3496 26.0699 37.6496 25.8999 37.0296 25.5499C36.3996 25.2199 35.9096 24.7499 35.5596 24.1699C35.2096 23.5899 35.0296 22.9399 35.0296 22.2199C35.0296 21.4999 35.2096 20.8399 35.5596 20.2499C35.9096 19.6599 36.4096 19.2199 37.0296 18.8699C37.6496 18.5399 38.3295 18.3699 39.0995 18.3699C39.6795 18.3699 40.2296 18.4699 40.7496 18.6899C41.2496 18.9099 41.7296 19.2599 42.1996 19.7199L43.8296 17.8999C43.2996 17.2799 42.6096 16.7999 41.7796 16.4799C40.9296 16.1599 40.0096 15.9999 39.0296 15.9999C37.7496 15.9999 36.5996 16.2699 35.5796 16.7999C34.5596 17.3499 33.7596 18.0799 33.1796 19.0299C32.5996 19.9799 32.3096 21.0499 32.3096 22.2099C32.3096 23.3699 32.5896 24.4299 33.1796 25.3799C33.7696 26.3299 34.5595 27.0799 35.5995 27.6099C36.6195 28.1599 37.7796 28.4299 39.0796 28.4299ZM50.7296 18.8299C49.5796 18.8299 48.6596 19.1799 48.0096 19.8599V15.6799H45.5096V28.2099H48.0096V22.9899C48.0096 22.4399 48.2096 21.9899 48.6096 21.6599C49.0096 21.3299 49.5296 21.1599 50.1396 21.1599C50.7496 21.1599 51.2096 21.3099 51.5196 21.6299C51.8296 21.9499 51.9996 22.3999 51.9996 22.9599V28.2099H54.4996V22.3899C54.4996 21.6899 54.3296 21.0699 54.0196 20.5199C53.7096 19.9699 53.2496 19.5499 52.6896 19.2499C52.1096 18.9699 51.4595 18.8199 50.7195 18.8199L50.7296 18.8299ZM66.0096 23.6999C66.0096 22.8199 65.8096 21.9999 65.4296 21.2499C65.0296 20.5199 64.4596 19.9299 63.7096 19.4799C62.9596 19.0499 62.0896 18.8299 61.0896 18.8299C60.0896 18.8299 59.2195 19.0499 58.4695 19.4799C57.7195 19.9099 57.1396 20.4999 56.7396 21.2299C56.3396 21.9599 56.1396 22.7599 56.1396 23.6499C56.1396 24.5399 56.3596 25.3499 56.7696 26.0699C57.1896 26.7999 57.7996 27.3899 58.6196 27.7999C59.4196 28.2199 60.3696 28.4299 61.4896 28.4299C62.3696 28.4299 63.1396 28.2999 63.8096 28.0299C64.4796 27.7799 65.0096 27.4499 65.3896 27.0299L64.0396 25.3499C63.6196 25.6699 63.2396 25.8999 62.8596 26.0499C62.4796 26.1999 62.0296 26.2799 61.5096 26.2799C60.7896 26.2799 60.1896 26.1299 59.7096 25.8299C59.2296 25.5299 58.8896 25.0999 58.7096 24.5499H65.9196C65.9696 24.2999 65.9996 24.0199 65.9996 23.6999H66.0096ZM61.1096 20.9999C61.7296 20.9999 62.2596 21.1499 62.6796 21.4499C63.0996 21.7699 63.3596 22.1799 63.5096 22.7299H58.6896C58.8396 22.1799 59.1396 21.7599 59.5596 21.4499C59.9796 21.1499 60.4896 20.9999 61.1096 20.9999ZM72.9396 18.9199C72.3896 18.9199 71.8396 19.0199 71.3196 19.2399C70.7896 19.4599 70.3696 19.7699 70.0696 20.2099V19.0599H67.6896V28.2199H70.1896V23.5899C70.1896 22.7599 70.4396 22.1599 70.9196 21.7899C71.3996 21.4399 72.0495 21.2599 72.8495 21.2599C73.1695 21.2599 73.4796 21.2899 73.7996 21.3399V19.0199C73.5196 18.9499 73.2196 18.9199 72.9296 18.9199H72.9396ZM80.5696 18.9199C80.0196 18.9199 79.4696 19.0199 78.9496 19.2399C78.4196 19.4599 77.9996 19.7699 77.6996 20.2099V19.0599H75.3196V28.2199H77.8196V23.5899C77.8196 22.7599 78.0696 22.1599 78.5496 21.7899C79.0296 21.4399 79.6796 21.2599 80.4796 21.2599C80.7996 21.2599 81.1096 21.2899 81.4296 21.3399V19.0199C81.1496 18.9499 80.8496 18.9199 80.5596 18.9199H80.5696Z" fill="white"/>
<path d="M90.1592 19.05L87.6293 25.43L85.0093 19.05H82.2593L86.3593 28.11L86.2892 28.28C86.1692 28.56 85.9893 28.8 85.7393 28.95C85.4893 29.12 85.2393 29.2 84.9593 29.2C84.4893 29.2 83.9293 29.07 83.2793 28.8L82.6293 30.82C82.9793 31 83.3593 31.15 83.8093 31.24C84.2393 31.34 84.6592 31.39 85.0392 31.39C85.8092 31.39 86.4893 31.19 87.0693 30.79C87.6493 30.41 88.0993 29.84 88.4193 29.09L92.7892 19.06H90.1592V19.05ZM107.559 16.22L104.209 25.57L100.839 16.22H98.0193L102.549 28.22H105.769L110.299 16.22H107.549H107.559Z" fill="white"/>
<path d="M120.09 26.2301C119.89 26.2301 119.72 26.1801 119.61 26.0601C119.48 25.9601 119.41 25.7901 119.41 25.5801V22.5801C119.41 21.4001 119.03 20.4801 118.26 19.8101C117.49 19.1601 116.43 18.8301 115.04 18.8301C114.32 18.8301 113.59 18.9301 112.87 19.1101C112.15 19.3101 111.5 19.6101 110.95 20.0301L112.17 21.8801C112.62 21.5601 113.09 21.3501 113.57 21.2001C114.05 21.0701 114.5 21.0001 114.92 21.0001C115.54 21.0001 116.02 21.1301 116.39 21.4001C116.74 21.6801 116.94 22.0501 116.99 22.5301H115.16C113.54 22.5301 112.33 22.8001 111.53 23.3101C110.71 23.8401 110.31 24.5801 110.31 25.5101C110.31 26.1401 110.48 26.6801 110.83 27.1101C111.16 27.5401 111.61 27.8601 112.18 28.0801C112.75 28.3001 113.36 28.4101 114.05 28.4101C114.74 28.4101 115.33 28.2901 115.88 28.0801C116.43 27.8701 116.9 27.5301 117.26 27.0501C117.44 27.4701 117.74 27.7701 118.16 27.9701C118.58 28.1901 119.06 28.2901 119.59 28.2901C119.94 28.2901 120.24 28.2401 120.47 28.1201V26.1901C120.34 26.2201 120.2 26.2401 120.09 26.2401V26.2301ZM114.31 26.4501C113.83 26.4501 113.44 26.3501 113.19 26.1501C112.94 25.9701 112.81 25.7001 112.81 25.3801C112.81 25.0601 112.98 24.8101 113.33 24.6101C113.66 24.4101 114.3 24.3101 115.23 24.3101H117C116.92 25.0301 116.62 25.5601 116.1 25.9101C115.58 26.2601 114.98 26.4401 114.32 26.4401L114.31 26.4501ZM127.24 18.8401C126.69 18.8401 126.17 18.9201 125.69 19.0901C125.19 19.2701 124.76 19.5401 124.41 19.9201V19.0501H122.03V28.2101H124.53V22.9601C124.53 22.4101 124.73 21.9601 125.13 21.6401C125.51 21.3201 126.03 21.1601 126.66 21.1601C127.26 21.1601 127.73 21.3101 128.04 21.6101C128.36 21.9301 128.52 22.3601 128.52 22.9301V28.2101H131.02V22.3901C131.02 21.6901 130.85 21.0701 130.54 20.5201C130.23 19.9701 129.77 19.5501 129.21 19.2501C128.63 18.9701 127.98 18.8201 127.24 18.8201V18.8401Z" fill="white"/>
<path d="M133.299 28.21H135.799V19.05H133.299V28.21ZM134.549 18.13C134.969 18.13 135.329 18 135.619 17.73C135.909 17.46 136.039 17.13 136.039 16.71C136.039 16.29 135.909 15.96 135.619 15.69C135.329 15.42 134.969 15.29 134.549 15.29C134.129 15.29 133.779 15.42 133.499 15.69C133.219 15.96 133.069 16.29 133.069 16.71C133.069 17.13 133.219 17.46 133.499 17.73C133.779 18 134.129 18.13 134.549 18.13ZM138.219 15.68V25.89C138.219 26.64 138.469 27.24 138.949 27.67C139.429 28.12 140.069 28.34 140.869 28.34C141.439 28.34 141.899 28.26 142.249 28.11V25.94C141.999 26.04 141.749 26.09 141.499 26.09C140.979 26.09 140.719 25.84 140.719 25.36V15.68H138.219Z" fill="white"/>
<path d="M143.759 15.6799V25.8899C143.759 26.6399 144.009 27.2399 144.489 27.6699C144.969 28.1199 145.609 28.3399 146.409 28.3399C146.979 28.3399 147.439 28.2599 147.789 28.1099V25.9399C147.539 26.0399 147.289 26.0899 147.039 26.0899C146.519 26.0899 146.259 25.8399 146.259 25.3599V15.6799H143.759ZM158.589 26.2299C158.389 26.2299 158.219 26.1799 158.109 26.0599C157.979 25.9599 157.909 25.7899 157.909 25.5799V22.5799C157.909 21.3999 157.529 20.4799 156.759 19.8099C155.989 19.1599 154.929 18.8299 153.539 18.8299C152.819 18.8299 152.089 18.9299 151.369 19.1099C150.649 19.3099 149.999 19.6099 149.449 20.0299L150.669 21.8799C151.119 21.5599 151.589 21.3499 152.069 21.1999C152.549 21.0699 152.999 20.9999 153.419 20.9999C154.039 20.9999 154.519 21.1299 154.889 21.3999C155.239 21.6799 155.439 22.0499 155.489 22.5299H153.659C152.039 22.5299 150.829 22.7999 150.029 23.3099C149.209 23.8399 148.809 24.5799 148.809 25.5099C148.809 26.1399 148.979 26.6799 149.329 27.1099C149.659 27.5399 150.109 27.8599 150.679 28.0799C151.249 28.2999 151.859 28.4099 152.549 28.4099C153.239 28.4099 153.829 28.2899 154.379 28.0799C154.929 27.8699 155.399 27.5299 155.759 27.0499C155.939 27.4699 156.239 27.7699 156.659 27.9699C157.079 28.1899 157.559 28.2899 158.089 28.2899C158.439 28.2899 158.739 28.2399 158.969 28.1199V26.1899C158.839 26.2199 158.699 26.2399 158.589 26.2399V26.2299ZM152.809 26.4499C152.329 26.4499 151.939 26.3499 151.689 26.1499C151.439 25.9699 151.309 25.6999 151.309 25.3799C151.309 25.0599 151.479 24.8099 151.829 24.6099C152.159 24.4099 152.799 24.3099 153.729 24.3099H155.499C155.419 25.0299 155.119 25.5599 154.599 25.9099C154.079 26.2599 153.479 26.4399 152.819 26.4399L152.809 26.4499Z" fill="white"/>
<path d="M86.5893 161.1C86.5893 152.86 79.9093 146.18 71.6693 146.18C63.4293 146.18 56.7593 152.86 56.7593 161.1C56.7593 169.34 63.4393 176.01 71.6693 176.01C79.8993 176.01 86.5893 169.33 86.5893 161.1Z" fill="#F40009"/>
<path d="M77.1694 157.31C77.1694 157.31 76.6695 157.51 76.0795 158.15C75.4895 158.8 75.1594 159.52 75.4094 159.71C75.5094 159.78 75.7295 159.8 76.1295 159.43C76.4495 159.15 76.7694 158.78 76.9894 158.24C77.2494 157.6 77.1694 157.31 77.1694 157.3M80.3694 158.46C79.7194 158.13 79.2495 157.72 78.7495 157.47C78.2795 157.23 77.9695 157.13 77.5895 157.18C77.5295 157.18 77.4294 157.22 77.4294 157.22C77.4294 157.22 77.6294 157.89 76.8494 159.02C76.0594 160.16 75.3395 160.16 75.1395 159.84C74.9295 159.51 75.1994 158.83 75.6594 158.24C76.1394 157.61 76.9894 157.09 76.9894 157.09C76.9894 157.09 76.7195 156.93 76.0595 157.3C75.4095 157.67 74.2995 158.54 73.2595 160.01C72.2295 161.48 72.0194 162.29 71.8694 162.93C71.7194 163.57 71.8595 164.25 72.5595 164.25C73.2595 164.25 74.0895 163.17 74.3195 162.8C74.7495 162.1 75.0295 161.03 74.4395 161.18C74.1495 161.25 73.9195 161.57 73.7695 161.88C73.6195 162.2 73.5595 162.5 73.5595 162.5C73.5595 162.5 73.3194 162.59 72.9894 162.83C72.6594 163.07 72.4495 163.31 72.4495 163.31C72.4495 163.31 72.4494 162.8 72.8594 161.98C73.2694 161.16 74.0094 160.78 74.4294 160.74C74.8094 160.71 75.3095 161.03 74.8895 162.22C74.4695 163.41 73.2294 164.86 71.9294 164.88C70.7294 164.9 69.9394 163.37 71.6094 160.69C73.4494 157.74 75.6195 156.83 76.3295 156.73C77.0295 156.63 77.2595 156.94 77.2595 156.94C77.2595 156.94 77.8494 156.67 78.5994 156.72C79.4594 156.78 80.1295 157.39 80.9995 157.81C80.7695 158.03 80.5494 158.26 80.3594 158.48M84.2194 157.48C83.6294 157.86 82.7995 158.21 82.0095 158.13C81.8095 158.34 81.5995 158.58 81.3795 158.84C82.7595 159.11 83.9594 158.26 84.5994 157.54C84.9994 157.09 85.1895 156.68 85.1895 156.68C85.1895 156.68 84.8094 157.1 84.2194 157.48ZM82.3895 161.35L82.4094 161.29C82.4094 161.29 82.3895 161.18 82.2795 161.17C82.1495 161.17 81.9695 161.19 81.4995 161.71C81.0295 162.22 80.7495 162.67 80.5095 163.12C80.2395 163.61 80.1294 163.97 80.2894 164.07C80.3294 164.09 80.3995 164.1 80.4495 164.08C80.5495 164.06 80.6694 163.96 80.8494 163.75C80.9294 163.65 81.0295 163.52 81.1395 163.36C81.4495 162.94 82.2295 161.61 82.3795 161.34M77.5195 161.9C77.5995 161.7 77.6994 161.3 77.4894 161.14C77.2694 160.97 76.6995 161.36 76.6995 161.77C76.6995 162.18 77.0995 162.37 77.1995 162.39C77.2595 162.41 77.2694 162.41 77.2994 162.36C77.3194 162.33 77.4495 162.11 77.5195 161.9ZM77.0895 162.65C77.0895 162.65 76.8895 162.56 76.6995 162.4C76.5095 162.24 76.4094 162.06 76.4094 162.05C76.4094 162.04 76.3895 162.05 76.3895 162.05C76.3895 162.06 76.3494 162.09 76.0394 162.54C75.7394 162.98 75.2695 163.9 75.6995 164.05C75.9695 164.15 76.4194 163.68 76.6594 163.37C76.8894 163.08 77.0994 162.71 77.1094 162.68C77.1194 162.66 77.1094 162.65 77.0994 162.64M81.8594 163.7C81.7394 163.88 81.6194 164.23 81.9894 164.01C82.4494 163.74 83.0994 162.75 83.0994 162.75H83.3895C83.3895 162.75 82.9995 163.37 82.4995 163.93C82.0295 164.44 81.4695 164.91 81.0695 164.87C80.5995 164.81 80.7495 164.2 80.7495 164.2C80.7495 164.2 80.0794 164.91 79.6194 164.86C78.9994 164.79 79.1895 164.02 79.1895 164.02C79.1895 164.02 78.4895 164.89 78.0095 164.86C77.2595 164.82 77.4395 163.9 77.6495 163.26C77.7595 162.91 77.8694 162.64 77.8694 162.64C77.8694 162.64 77.7995 162.66 77.6395 162.68C77.5595 162.69 77.3995 162.7 77.3995 162.7C77.3995 162.7 77.0895 163.25 76.8395 163.58C76.5895 163.92 75.5195 165.06 74.8895 164.83C74.3095 164.62 74.4995 163.73 74.8395 163.03C75.3295 162 76.7195 160.52 77.5195 160.72C78.3495 160.92 77.5394 162.43 77.5394 162.43C77.5594 162.43 77.5995 162.44 77.6995 162.43C77.8595 162.4 77.9995 162.34 77.9995 162.34C77.9995 162.34 78.8295 160.6 79.7495 159.45C80.6695 158.31 82.4994 156.34 83.2294 156.82C83.4094 156.94 83.3295 157.34 83.0895 157.83C82.9895 157.86 82.8795 157.89 82.7595 157.92C82.9195 157.63 83.0195 157.39 83.0595 157.22C83.1695 156.63 81.7895 157.87 80.8095 159.21C79.8295 160.55 79.2394 161.76 79.2394 161.76C79.2394 161.76 79.4395 161.65 79.7495 161.4C80.0695 161.14 80.5095 160.73 80.9995 160.23C81.3195 159.9 81.7095 159.48 82.0595 159.01C82.1695 159.01 82.2694 158.99 82.3694 158.98C81.9694 159.52 81.5495 160.01 81.1995 160.37C80.8095 160.77 80.3895 161.19 80.0195 161.5C79.4295 161.99 78.9794 162.28 78.9794 162.28C78.9794 162.28 78.1195 164.01 78.5895 164.13C78.8595 164.19 79.4094 163.36 79.4094 163.36C79.4094 163.36 80.1194 162.28 80.5494 161.79C81.1294 161.13 81.6295 160.75 82.1395 160.74C82.4295 160.74 82.5994 161.04 82.5994 161.04L82.7394 160.83H83.5895C83.5895 160.83 82.0095 163.51 81.8895 163.71M84.2394 157.47C83.6494 157.85 82.8195 158.2 82.0295 158.12C81.8295 158.33 81.6195 158.57 81.3995 158.83C82.7795 159.1 83.9795 158.25 84.6194 157.53C85.0194 157.08 85.2095 156.67 85.2095 156.67C85.2095 156.67 84.8294 157.09 84.2394 157.47ZM72.3594 158.79H71.5595L71.1094 159.53H71.9094L72.3594 158.79ZM68.5494 161.34C68.8894 160.87 69.8395 159.23 69.8395 159.23C69.8395 159.23 69.8295 159.12 69.7095 159.11C69.5795 159.11 69.3594 159.15 68.9294 159.69C68.4994 160.23 68.1594 160.67 67.9194 161.11C67.6494 161.6 67.5295 161.94 67.6895 162.04C67.7295 162.06 67.7994 162.07 67.8494 162.06C67.9494 162.03 68.0795 161.93 68.2595 161.73C68.3395 161.63 68.4394 161.5 68.5494 161.35M64.2294 159.13C64.0094 158.96 63.4395 159.35 63.4395 159.76C63.4395 160.17 63.9495 160.29 64.0195 160.29C64.0195 160.29 64.0794 160.3 64.0994 160.26C64.1094 160.23 64.1795 160.1 64.2595 159.9C64.3395 159.69 64.4394 159.29 64.2294 159.14M63.8895 160.56C63.8895 160.56 63.6595 160.49 63.4595 160.36C63.2495 160.23 63.1595 160.03 63.1495 160.02C63.1495 160 63.1295 160.02 63.1295 160.02C63.1295 160.03 63.0795 160.09 62.7695 160.53C62.4695 160.97 62.0195 161.88 62.4395 162.04C62.7095 162.14 63.1595 161.67 63.3995 161.36C63.6295 161.07 63.8894 160.62 63.9094 160.6C63.9194 160.57 63.9095 160.57 63.8895 160.56ZM70.4694 160.83H70.7595C70.7595 160.83 69.2795 162.96 68.4495 162.87C67.9895 162.82 68.1194 162.24 68.1194 162.24C68.1194 162.24 67.4594 163.01 66.8594 162.85C66.3194 162.71 66.6694 161.8 66.6694 161.8C66.6094 161.83 65.4294 163.16 64.5994 162.84C63.7294 162.51 64.1794 161.39 64.3494 161.06C64.4894 160.78 64.6395 160.51 64.6395 160.51C64.6395 160.51 64.5094 160.55 64.4194 160.57C64.3394 160.59 64.2095 160.61 64.2095 160.61C64.2095 160.61 63.7994 161.28 63.5494 161.61C63.2994 161.94 62.2294 163.09 61.6094 162.86C60.9794 162.63 61.1394 161.75 61.4894 161.06C62.0594 159.93 63.4194 158.54 64.2294 158.74C65.0594 158.95 64.3694 160.29 64.3694 160.29C64.3694 160.29 64.5294 160.31 64.9294 160.04C65.4994 159.65 66.2495 158.62 67.0595 158.74C67.4395 158.8 67.7895 159.19 67.3095 159.93C67.1495 160.17 66.8895 160.38 66.6895 160.17C66.5695 160.04 66.6695 159.8 66.8095 159.64C66.9895 159.41 67.2495 159.44 67.2495 159.44C67.2495 159.44 67.3894 159.13 67.0394 159.14C66.7594 159.14 66.0694 159.79 65.6694 160.44C65.3094 161.03 64.7595 162.05 65.3095 162.27C65.8095 162.47 66.7694 161.33 67.2194 160.74C67.6594 160.14 68.6695 158.79 69.5195 158.74C69.8095 158.72 69.9894 158.98 69.9894 158.98L70.0895 158.82H70.9395C70.9395 158.82 69.3394 161.49 69.2194 161.69C69.1194 161.85 68.9894 162.2 69.3494 162C69.7094 161.8 70.4595 160.83 70.4595 160.83M69.9995 165.1C69.3595 164.65 68.5794 164.45 67.8694 164.48C67.1494 164.51 66.8295 165.04 66.8295 165.04C66.5095 164.48 65.8695 164.13 64.8795 164.14C63.2795 164.16 61.6995 164.9 60.4395 164.9C59.1795 164.9 58.3595 164.14 58.3895 162.8C58.4395 160.44 60.4294 158.32 61.9194 157.36C62.7794 156.81 63.4895 156.65 63.9595 156.7C64.2995 156.74 64.7095 157.13 64.4495 157.71C64.0695 158.57 63.5395 158.49 63.5595 158.09C63.5695 157.82 63.7495 157.66 63.8795 157.57C63.9595 157.51 64.1095 157.5 64.1895 157.5C64.2695 157.44 64.3195 156.97 63.7095 157.12C63.0995 157.27 62.3594 157.88 61.6594 158.65C60.9594 159.43 59.8595 160.9 59.5895 162.44C59.4595 163.16 59.5494 164.46 61.2394 164.45C62.6794 164.44 64.7995 163.49 66.7495 163.51C67.5095 163.51 68.1694 163.72 68.6794 164.04C69.1894 164.35 69.7895 164.8 69.9995 165.11" fill="white"/>
<path d="M83.8896 163.39C83.7396 163.39 83.6096 163.42 83.4796 163.49C83.3596 163.56 83.2596 163.65 83.1896 163.77C83.1196 163.89 83.0796 164.02 83.0796 164.16C83.0796 164.3 83.1096 164.43 83.1896 164.55C83.2596 164.67 83.3596 164.76 83.4796 164.83C83.5996 164.9 83.7396 164.94 83.8896 164.94C84.0396 164.94 84.1796 164.91 84.2996 164.83C84.4196 164.76 84.5196 164.67 84.5896 164.55C84.6596 164.43 84.6996 164.3 84.6996 164.16C84.6996 164.02 84.6696 163.89 84.5896 163.77C84.5196 163.65 84.4296 163.56 84.2996 163.49C84.1796 163.42 84.0396 163.39 83.8896 163.39ZM83.8896 164.79C83.7696 164.79 83.6596 164.76 83.5596 164.71C83.4596 164.66 83.3896 164.58 83.3396 164.49C83.2896 164.4 83.2596 164.29 83.2596 164.17C83.2596 164.05 83.2896 163.95 83.3396 163.85C83.3896 163.75 83.4696 163.68 83.5596 163.63C83.6596 163.58 83.7596 163.55 83.8896 163.55C84.0196 163.55 84.1195 163.58 84.2195 163.63C84.3195 163.68 84.3896 163.76 84.4396 163.85C84.4896 163.94 84.5196 164.05 84.5196 164.17C84.5196 164.29 84.4896 164.4 84.4396 164.49C84.3896 164.58 84.3095 164.66 84.2195 164.71C84.1195 164.76 84.0096 164.79 83.8896 164.79ZM84.2195 164.03C84.2195 163.97 84.1995 163.91 84.1595 163.87C84.1195 163.83 84.0596 163.81 83.9996 163.81H83.5896V164.51H83.7696V164.25H83.9095L84.0696 164.51H84.2696L84.0896 164.24C84.0896 164.24 84.1596 164.19 84.1896 164.15C84.2096 164.11 84.2195 164.07 84.2195 164.03ZM83.7696 163.96H83.9596C83.9596 163.96 83.9996 163.96 84.0096 163.98C84.0196 163.99 84.0296 164.01 84.0296 164.03C84.0296 164.05 84.0296 164.07 84.0096 164.08C83.9996 164.09 83.9796 164.1 83.9596 164.1H83.7696V163.96Z" fill="white"/>
<path d="M91.6093 159.39V160.79H93.9093V161.72H91.6093V164.14H90.5693V158.46H94.9493V159.39H91.6093Z" fill="white"/>
<path d="M100.979 163.2V164.14H96.6694V158.46H97.7095V163.2H100.979Z" fill="white"/>
<path d="M106.049 161.86L105.089 159.36L104.129 161.86H106.059H106.049ZM106.389 162.77H103.769L103.239 164.13H102.149L104.439 158.45H105.719L108.009 164.13H106.909L106.389 162.77Z" fill="white"/>
<path d="M114.2 158.46L112.01 164.14H110.73L108.54 158.46H109.67L111.38 163.1L113.1 158.46H114.2Z" fill="white"/>
<path d="M119.269 163.03C119.559 162.86 119.789 162.63 119.949 162.32C120.109 162.02 120.189 161.68 120.189 161.29C120.189 160.9 120.109 160.56 119.949 160.26C119.789 159.96 119.559 159.72 119.269 159.55C118.979 159.38 118.649 159.3 118.279 159.3C117.909 159.3 117.589 159.38 117.299 159.55C117.009 159.72 116.779 159.95 116.619 160.26C116.459 160.56 116.369 160.9 116.369 161.29C116.369 161.68 116.449 162.02 116.619 162.32C116.779 162.62 117.009 162.86 117.299 163.03C117.589 163.2 117.919 163.28 118.279 163.28C118.639 163.28 118.979 163.2 119.269 163.03ZM116.739 163.86C116.289 163.61 115.929 163.26 115.679 162.82C115.419 162.37 115.299 161.87 115.299 161.3C115.299 160.73 115.429 160.22 115.679 159.78C115.939 159.33 116.289 158.99 116.739 158.73C117.189 158.48 117.709 158.36 118.279 158.36C118.849 158.36 119.369 158.48 119.819 158.73C120.269 158.98 120.629 159.33 120.879 159.78C121.139 160.23 121.259 160.73 121.259 161.3C121.259 161.87 121.129 162.38 120.879 162.82C120.619 163.27 120.269 163.61 119.819 163.86C119.369 164.11 118.849 164.24 118.279 164.24C117.709 164.24 117.189 164.12 116.739 163.86Z" fill="white"/>
<path d="M124.139 160.94H125.999C126.279 160.94 126.489 160.87 126.649 160.73C126.809 160.59 126.879 160.4 126.879 160.16C126.879 159.92 126.799 159.74 126.649 159.6C126.489 159.46 126.279 159.39 125.999 159.39H124.139V160.94ZM125.609 161.86H124.139V164.13H123.109V158.46H126.169C126.529 158.46 126.839 158.54 127.109 158.68C127.379 158.83 127.579 159.04 127.719 159.29C127.859 159.55 127.929 159.84 127.929 160.15C127.929 160.54 127.819 160.88 127.609 161.18C127.399 161.48 127.099 161.68 126.729 161.78L128.319 164.12H127.109L125.619 161.85L125.609 161.86Z" fill="white"/>
<path d="M130.65 163.98C130.19 163.83 129.81 163.62 129.52 163.35L130.159 162.55C130.439 162.79 130.74 162.97 131.07 163.09C131.4 163.21 131.739 163.27 132.099 163.27C132.479 163.27 132.78 163.2 133.02 163.05C133.25 162.9 133.37 162.71 133.37 162.48C133.37 162.31 133.3 162.17 133.15 162.05C133.01 161.94 132.77 161.84 132.44 161.78L131.25 161.55C130.74 161.45 130.349 161.27 130.099 161.01C129.839 160.75 129.71 160.43 129.71 160.05C129.71 159.7 129.81 159.4 130.02 159.14C130.22 158.88 130.499 158.68 130.859 158.54C131.219 158.4 131.62 158.33 132.08 158.33C132.5 158.33 132.899 158.39 133.299 158.52C133.689 158.64 134.04 158.84 134.33 159.11L133.729 159.87C133.479 159.67 133.209 159.51 132.919 159.41C132.629 159.31 132.339 159.26 132.039 159.26C131.679 159.26 131.38 159.33 131.14 159.46C130.9 159.59 130.78 159.76 130.78 159.97C130.78 160.11 130.849 160.23 130.979 160.33C131.109 160.43 131.339 160.51 131.669 160.57L132.799 160.78C133.339 160.88 133.75 161.08 134.03 161.37C134.31 161.66 134.44 162 134.44 162.4C134.44 162.75 134.34 163.06 134.15 163.33C133.96 163.6 133.69 163.81 133.34 163.96C132.99 164.11 132.58 164.18 132.12 164.18C131.6 164.18 131.11 164.1 130.64 163.95" fill="white"/>
<path d="M102.609 64.91H97.4195L94.4995 69.66H99.6795L102.609 64.91Z" fill="white"/>
<path d="M133.629 55.36C133.629 55.36 130.389 56.65 126.629 60.8C122.849 64.96 120.679 69.62 122.299 70.86C122.919 71.33 124.359 71.41 126.969 69.06C129.009 67.23 131.079 64.83 132.479 61.4C134.169 57.29 133.629 55.41 133.629 55.36ZM154.239 62.82C150.049 60.68 146.999 58.06 143.809 56.43C140.769 54.87 138.809 54.22 136.359 54.55C135.949 54.6 135.349 54.8 135.349 54.8C135.349 54.8 136.619 59.11 131.589 66.37C126.499 73.72 121.879 73.68 120.569 71.65C119.189 69.52 120.969 65.17 123.929 61.31C127.029 57.27 132.489 53.91 132.489 53.91C132.489 53.91 130.749 52.85 126.469 55.27C122.309 57.63 115.119 63.24 108.479 72.72C101.839 82.19 100.509 87.41 99.5494 91.51C98.5894 95.61 99.4694 100 104.019 100C108.569 100 113.859 93.06 115.349 90.64C118.119 86.15 119.929 79.25 116.159 80.2C114.299 80.67 112.789 82.73 111.839 84.72C110.859 86.76 110.469 88.71 110.469 88.71C110.469 88.71 108.899 89.27 106.779 90.85C104.669 92.43 103.289 93.94 103.289 93.94C103.289 93.94 103.299 90.66 105.909 85.35C108.519 80.04 113.319 77.61 116.039 77.39C118.489 77.19 121.669 79.27 118.979 86.95C116.289 94.63 108.319 103.94 99.9494 104.06C92.2294 104.17 87.1694 94.32 97.9094 77.11C109.789 58.08 123.759 52.24 128.289 51.59C132.819 50.94 134.289 52.94 134.289 52.94C134.289 52.94 138.089 51.18 142.899 51.51C148.439 51.89 152.719 55.8 158.359 58.55C156.889 59.98 155.489 61.45 154.229 62.83M179.079 56.41C175.249 58.88 169.939 61.11 164.839 60.62C163.549 61.96 162.169 63.5 160.779 65.19C169.629 66.93 177.369 61.45 181.489 56.79C184.059 53.88 185.329 51.28 185.329 51.28C185.329 51.28 182.869 53.98 179.079 56.43M167.319 81.35C167.429 81.16 167.479 80.98 167.479 80.98C167.479 80.98 167.379 80.24 166.669 80.2C165.829 80.16 164.679 80.32 161.669 83.66C158.679 86.98 156.849 89.87 155.279 92.75C153.549 95.9 152.859 98.25 153.849 98.85C154.129 99.02 154.549 99.04 154.889 98.96C155.559 98.8 156.319 98.17 157.479 96.83C158.019 96.2 158.629 95.31 159.339 94.33C161.329 91.62 166.329 83.07 167.319 81.35ZM136.029 85C136.529 83.68 137.169 81.1 135.839 80.09C134.409 79.01 130.769 81.54 130.749 84.13C130.729 86.78 133.319 87.98 133.939 88.15C134.289 88.25 134.419 88.23 134.589 87.95C134.699 87.76 135.529 86.32 136.039 85.01M133.289 89.83C133.189 89.8 132.009 89.26 130.789 88.23C129.569 87.21 128.949 86.04 128.899 85.95C128.849 85.86 128.799 85.93 128.739 86C128.689 86.07 128.469 86.27 126.519 89.13C124.569 91.99 121.599 97.88 124.299 98.88C126.029 99.52 128.909 96.49 130.479 94.48C131.939 92.61 133.299 90.24 133.379 90.07C133.459 89.9 133.379 89.86 133.289 89.83ZM163.929 96.63C163.189 97.81 162.359 100.05 164.779 98.65C167.729 96.94 171.939 90.57 171.939 90.57H173.839C173.839 90.57 171.329 94.53 168.059 98.15C165.069 101.46 161.429 104.48 158.859 104.18C155.859 103.83 156.799 99.89 156.799 99.89C156.799 99.89 152.489 104.46 149.529 104.14C145.519 103.7 146.739 98.74 146.739 98.74C146.739 98.74 142.209 104.32 139.119 104.14C134.269 103.86 135.489 97.95 136.829 93.81C137.549 91.59 138.219 89.84 138.219 89.84C138.219 89.84 137.739 89.97 136.709 90.12C136.169 90.2 135.189 90.25 135.189 90.25C135.189 90.25 133.179 93.82 131.559 95.96C129.949 98.1 123.089 105.48 119.049 104C115.319 102.64 116.549 96.92 118.719 92.38C121.889 85.76 130.809 76.24 135.949 77.48C141.279 78.77 136.069 88.51 136.069 88.51C136.069 88.51 136.069 88.55 136.129 88.57C136.239 88.61 136.509 88.64 137.159 88.52C138.189 88.33 139.109 87.94 139.109 87.94C139.109 87.94 144.469 76.71 150.389 69.36C156.309 62.01 168.119 49.36 172.759 52.42C173.899 53.17 173.379 55.76 171.849 58.91C171.179 59.12 170.479 59.31 169.759 59.46C170.779 57.6 171.459 56.04 171.659 54.95C172.349 51.15 163.489 59.16 157.159 67.77C150.839 76.39 147.039 84.18 147.039 84.18C147.039 84.18 148.309 83.46 150.299 81.85C152.379 80.18 155.239 77.55 158.349 74.34C160.439 72.18 162.889 69.47 165.189 66.44C165.879 66.41 166.549 66.34 167.199 66.23C164.639 69.69 161.939 72.84 159.649 75.16C157.139 77.71 154.399 80.47 152.019 82.47C148.239 85.65 145.319 87.45 145.319 87.45C145.319 87.45 139.769 98.61 142.789 99.33C144.559 99.75 148.059 94.36 148.059 94.36C148.059 94.36 152.619 87.39 155.369 84.26C159.119 79.99 162.349 77.52 165.569 77.47C167.459 77.44 168.569 79.44 168.569 79.44L169.449 78.07H174.899C174.899 78.07 164.739 95.34 163.929 96.64M179.089 56.46C175.259 58.93 169.949 61.16 164.849 60.67C163.559 62.01 162.179 63.55 160.789 65.24C169.639 66.98 177.379 61.5 181.499 56.84C184.069 53.93 185.339 51.33 185.339 51.33C185.339 51.33 182.879 54.03 179.089 56.48M78.0794 81.39C80.2794 78.37 86.3594 67.78 86.3594 67.78C86.3594 67.78 86.2594 67.04 85.5494 67.01C84.7094 66.97 83.3094 67.25 80.5194 70.74C77.7194 74.23 75.5694 77.01 73.9994 79.9C72.2794 83.05 71.5194 85.28 72.5094 85.88C72.7894 86.05 73.2094 86.07 73.5494 85.99C74.1994 85.83 75.0394 85.18 76.1994 83.84C76.7394 83.21 77.3594 82.38 78.0794 81.39ZM50.2694 67.09C48.8394 66.01 45.1994 68.54 45.1794 71.13C45.1594 73.78 48.4694 74.54 48.8994 74.56C48.8994 74.56 49.2794 74.66 49.4194 74.35C49.5094 74.16 49.9594 73.33 50.4694 72.01C50.9694 70.69 51.6094 68.11 50.2794 67.1M48.1194 76.23C48.0294 76.2 46.6494 75.8 45.3094 74.94C43.9694 74.08 43.3494 72.81 43.2994 72.72C43.2494 72.63 43.1994 72.7 43.1394 72.77C43.0894 72.84 42.7994 73.21 40.8494 76.07C38.8994 78.93 36.0194 84.78 38.7194 85.78C40.4494 86.42 43.3494 83.38 44.9294 81.37C46.3894 79.5 48.1294 76.63 48.1994 76.46C48.2694 76.29 48.1994 76.25 48.1094 76.21M90.4394 77.95H92.3394C92.3394 77.95 82.8294 91.7 77.4594 91.08C74.4594 90.73 75.3494 87.03 75.3494 87.03C75.3494 87.03 71.1294 91.97 67.2694 90.98C63.7594 90.08 66.0194 84.24 66.0194 84.24C65.6194 84.4 58.0294 92.97 52.6894 90.92C47.1094 88.77 49.9994 81.6 51.0594 79.44C51.9594 77.62 52.9494 75.85 52.9494 75.85C52.9494 75.85 52.0894 76.09 51.5594 76.22C51.0294 76.34 50.2194 76.5 50.2194 76.5C50.2194 76.5 47.5794 80.79 45.9694 82.94C44.3594 85.08 37.4994 92.45 33.4594 90.98C29.4194 89.51 30.4094 83.86 32.6794 79.36C36.3594 72.07 45.0994 63.12 50.3594 64.46C55.6694 65.81 51.2794 74.44 51.2794 74.44C51.2794 74.44 52.3394 74.58 54.8694 72.85C58.5194 70.36 63.3294 63.66 68.5494 64.44C70.9994 64.81 73.2794 67.32 70.1594 72.1C69.1594 73.63 67.4894 75 66.1994 73.65C65.3994 72.81 66.0994 71.27 66.9294 70.22C68.1094 68.73 69.7494 68.93 69.7494 68.93C69.7494 68.93 70.6094 66.95 68.4194 66.99C66.6394 67.02 62.1594 71.16 59.6194 75.34C57.2894 79.18 53.7794 85.72 57.3094 87.14C60.5594 88.45 66.7194 81.12 69.5794 77.28C72.4394 73.44 78.9394 64.73 84.3994 64.38C86.2794 64.26 87.3994 65.97 87.3994 65.97L88.0294 64.97H93.4794C93.4794 64.97 83.1994 82.14 82.3894 83.44C81.7594 84.46 80.9194 86.75 83.2494 85.46C85.5794 84.17 90.4194 77.95 90.4194 77.95M87.4594 105.47C83.3294 102.57 78.2994 101.29 73.7294 101.47C69.1094 101.66 67.0394 105.11 67.0394 105.11C64.9494 101.47 60.8294 99.24 54.4594 99.3C44.1694 99.42 33.9594 104.17 25.8794 104.17C17.7994 104.17 12.4594 99.3 12.6494 90.64C12.9794 75.46 25.7994 61.79 35.3794 55.63C40.8894 52.09 45.4994 51.04 48.5194 51.38C50.7194 51.62 53.3694 54.17 51.6994 57.91C49.2494 63.4 45.8594 62.94 45.9794 60.32C46.0494 58.62 47.1794 57.54 48.0294 56.96C48.5694 56.58 49.5294 56.48 50.0294 56.47C50.5094 56.06 50.8794 53.06 46.9394 54.05C42.9894 55.04 38.2394 58.92 33.7094 63.92C29.1794 68.92 22.1294 78.39 20.3894 88.33C19.5794 92.94 20.1194 101.34 31.0394 101.24C40.2994 101.16 53.9594 95.06 66.5094 95.17C71.3794 95.21 75.6194 96.52 78.9294 98.57C82.1894 100.58 86.0794 103.5 87.4594 105.49" fill="white"/>
<path d="M174.549 97.91C173.829 97.91 173.189 98.07 172.599 98.4C172.009 98.74 171.549 99.19 171.209 99.76C170.869 100.33 170.709 100.96 170.709 101.62C170.709 102.28 170.869 102.93 171.209 103.48C171.549 104.05 172.009 104.5 172.599 104.83C173.189 105.17 173.819 105.33 174.549 105.33C175.279 105.33 175.919 105.17 176.509 104.83C177.099 104.5 177.539 104.05 177.879 103.48C178.219 102.92 178.379 102.3 178.379 101.62C178.379 100.94 178.219 100.33 177.879 99.76C177.539 99.19 177.089 98.74 176.509 98.4C175.919 98.07 175.269 97.91 174.549 97.91ZM174.549 104.62C173.959 104.62 173.429 104.48 172.979 104.23C172.519 103.97 172.159 103.62 171.899 103.17C171.639 102.72 171.519 102.2 171.519 101.63C171.519 101.06 171.639 100.55 171.899 100.11C172.159 99.67 172.509 99.29 172.979 99.03C173.439 98.77 173.959 98.65 174.549 98.65C175.139 98.65 175.649 98.77 176.119 99.03C176.579 99.29 176.939 99.66 177.199 100.11C177.459 100.56 177.579 101.08 177.579 101.63C177.579 102.18 177.459 102.72 177.199 103.17C176.939 103.62 176.589 103.97 176.139 104.23C175.679 104.49 175.149 104.62 174.559 104.62H174.549ZM176.159 100.97C176.159 100.67 176.059 100.41 175.869 100.21C175.669 100.01 175.409 99.91 175.079 99.91H173.129V103.27H173.989V102.05H174.639L175.429 103.27H176.409L175.529 101.96C175.729 101.86 175.879 101.73 175.989 101.55C176.099 101.37 176.149 101.18 176.149 100.96L176.159 100.97ZM173.999 100.64H174.929C175.039 100.64 175.119 100.67 175.189 100.72C175.259 100.79 175.289 100.87 175.289 100.96C175.289 101.05 175.259 101.14 175.189 101.19C175.119 101.26 175.039 101.29 174.929 101.29H173.999V100.64Z" fill="white"/>
</svg>
