<svg width="49" height="40" viewBox="0 0 49 40" fill="none" xmlns="http://www.w3.org/2000/svg">
<g clip-path="url(#clip0_101_19560)">
<path d="M12.5128 21.9536H12.3647C11.4943 21.9721 11.1887 22.1203 10.9943 22.2592C10.5406 22.6018 10.5221 23.0277 10.5313 24.2499C10.4943 24.3425 10.4573 24.4721 10.4665 24.6295C10.4665 24.7036 10.4758 24.8518 10.5499 24.9999C9.81838 25.7869 9.32764 26.611 9.32764 28.5647V30.6481C9.32764 33.0369 9.3369 36.6388 9.34615 38.4073C9.34615 39.1573 9.7906 39.6203 10.6332 39.7869C11.2073 39.8981 11.8276 39.9629 12.4758 39.9629C13.1332 39.9629 13.7536 39.8981 14.3276 39.7777C15.1702 39.611 15.6054 39.1481 15.6054 38.3981C15.6054 36.5277 15.6054 32.6018 15.5869 30.2407V28.5555C15.5776 26.6018 15.0776 25.7777 14.3462 24.9907C14.4202 24.8332 14.4295 24.6944 14.4295 24.6018C14.4295 24.4536 14.3925 24.3332 14.3554 24.2314C14.3554 23.0184 14.3462 22.5925 13.8832 22.2499C13.6887 22.111 13.3832 21.9629 12.5591 21.9536H12.5128ZM12.5128 22.7962H12.5499C12.7628 22.7962 13.235 22.8147 13.3925 22.9351C13.4758 22.9999 13.5221 23.0462 13.5221 24.3518C13.5313 24.5277 13.5962 24.5092 13.5962 24.611C13.5962 24.7036 13.3554 24.7129 13.3554 24.7777C13.3554 24.861 13.3554 25.074 13.3554 25.1388C13.3554 25.1851 13.4017 25.2129 13.5406 25.3518C14.2443 26.074 14.7443 26.6388 14.7443 28.5462C14.7443 29.8518 14.7721 35.9166 14.7628 38.3795C14.7628 38.5832 14.7628 38.824 14.161 38.9444C13.4758 39.0832 12.8647 39.111 12.4758 39.111C12.0962 39.111 11.4758 39.0925 10.7906 38.9536C10.1795 38.8332 10.1887 38.6018 10.1795 38.3888C10.161 35.9258 10.161 29.861 10.161 28.5555C10.161 26.6573 10.6517 26.0832 11.3554 25.361C11.4943 25.2129 11.5406 25.1851 11.5499 25.1481C11.5499 25.074 11.5499 24.8703 11.5499 24.7869C11.5499 24.7221 11.3091 24.7129 11.3091 24.6203C11.3091 24.5184 11.3832 24.5369 11.3832 24.361C11.3832 23.0555 11.4295 22.9999 11.5036 22.9351C11.6517 22.824 12.1332 22.8055 12.3462 22.7962C12.3832 22.7962 12.4665 22.7962 12.5221 22.7962" fill="#73C37E"/>
<path d="M35.6977 -3.61688e-05C35.5773 -3.61688e-05 35.4477 -3.61688e-05 35.3181 -3.61688e-05C35.207 -3.61688e-05 35.0959 -3.61688e-05 34.9755 -3.61688e-05C33.957 -3.61688e-05 33.3736 0.0740379 33.0403 0.499964C32.8181 0.777742 32.7533 1.12959 32.6884 2.40737C32.6884 2.48145 32.6884 2.537 32.6792 2.56478C32.6607 2.72219 32.6884 2.88885 32.7625 3.037C31.5773 4.15737 31.457 4.39811 31.4107 4.50922C31.1051 5.14811 31.2255 8.17589 31.3644 8.72219C31.4199 8.94441 31.5125 9.12033 31.6051 9.25922C31.4662 9.47219 31.3551 9.74996 31.4107 10.1203C31.4662 10.5185 31.6236 10.8333 31.7255 11.0185C31.7255 11.0185 31.7255 11.037 31.7347 11.037C31.744 11.1666 31.7533 11.4259 31.744 11.5555C31.6422 11.7129 31.457 12 31.4477 12.4537C31.4477 12.787 31.4477 13.1851 31.457 13.6296V14.2037C31.4662 14.5648 31.5866 14.8518 31.6607 15.037C31.6792 15.0833 31.6977 15.1296 31.707 15.1666C31.7255 15.2685 31.707 15.5833 31.6236 15.75C31.4384 16.037 31.3273 16.3611 31.3366 16.9907C31.3366 17.0833 31.3366 17.2129 31.3366 17.3518C31.3181 18.1666 31.3273 18.7314 31.5866 19.1481C31.9384 19.6944 33.1051 19.8518 33.5959 19.8889L33.8736 19.9166C34.2347 19.9537 34.5866 19.9814 35.2996 19.9814C36.0681 19.9814 36.4477 19.9444 36.8551 19.9074L37.0959 19.8889C37.5773 19.8426 38.744 19.6944 39.1051 19.1389C39.3644 18.7314 39.3736 18.1666 39.3551 17.3518C39.3551 17.2129 39.3551 17.0833 39.3551 16.9907C39.3736 16.3611 39.2533 16.037 39.0681 15.75C38.9847 15.5833 38.9662 15.2685 38.9847 15.1481C38.9847 15.1296 39.0125 15.0833 39.031 15.037C39.1051 14.8426 39.2162 14.5555 39.2255 14.1944V13.6203C39.244 13.1759 39.244 12.787 39.244 12.4444C39.244 11.9907 39.0496 11.7037 38.9477 11.5463C38.9477 11.4074 38.9477 11.1666 38.9662 11.0185C38.9662 11.0185 38.9662 11.0092 38.9662 11C39.0588 10.8148 39.2255 10.5 39.281 10.1018C39.3366 9.73145 39.2255 9.45367 39.0866 9.2407C39.1792 9.10182 39.2625 8.92589 39.3273 8.70367C39.4662 8.15737 39.5866 5.12959 39.281 4.4907C39.2255 4.37959 39.1144 4.13885 37.9199 3.01848C37.994 2.87033 38.0218 2.70367 38.0033 2.52774C38.0033 2.50922 38.0033 2.45367 38.0033 2.37959C37.9292 1.10182 37.8644 0.749964 37.6422 0.472186C37.3088 0.0555194 36.7347 -0.0185547 35.7347 -0.0185547M35.7347 0.824038C36.4199 0.824038 36.8736 0.870334 36.9847 1.00922C37.1144 1.16663 37.1514 2.50922 37.1699 2.63885C37.1792 2.72219 37.0033 2.73145 36.9292 2.73145H36.8922L36.8551 3.17589C36.8551 3.17589 38.4014 4.59256 38.531 4.86107C38.6884 5.19441 38.6607 7.94441 38.5218 8.4907C38.3829 9.04626 37.994 8.96293 37.994 9.27774C37.994 9.47219 38.5218 9.56478 38.4662 9.98145C38.4107 10.3703 38.1792 10.6759 38.1607 10.7963C38.1422 10.9166 38.0866 11.6111 38.1607 11.8148C38.2347 12.0092 38.4199 12.1296 38.4199 12.4537C38.4199 12.9259 38.4199 13.5 38.4014 14.1759C38.4014 14.5185 38.207 14.787 38.1699 15.0185C38.1329 15.25 38.1514 15.7407 38.3181 16.0926C38.3922 16.25 38.5403 16.324 38.5218 16.9537C38.5125 17.3796 38.6051 18.3796 38.4107 18.6759C38.3273 18.7963 37.6699 18.9907 37.0403 19.0463C36.531 19.0926 36.1977 19.1389 35.3366 19.1389H35.3181C34.4755 19.1389 34.1977 19.0926 33.6884 19.0463C33.0588 18.9907 32.3922 18.8055 32.3088 18.6759C32.1144 18.3796 32.207 17.3889 32.1977 16.9537C32.1792 16.324 32.3273 16.25 32.4014 16.0926C32.5681 15.7314 32.5866 15.25 32.5496 15.0185C32.5125 14.787 32.3273 14.5185 32.3181 14.1759C32.3181 13.5 32.2903 12.9259 32.2996 12.4537C32.2996 12.1296 32.4847 12.0092 32.5588 11.8148C32.6329 11.6111 32.5866 10.9166 32.5588 10.7963C32.531 10.6759 32.3088 10.3703 32.2533 9.98145C32.1977 9.57404 32.7255 9.48145 32.7255 9.27774C32.7255 8.95367 32.3366 9.04626 32.1977 8.4907C32.0588 7.94441 32.0218 5.18515 32.1792 4.86107C32.3088 4.59256 33.8551 3.17589 33.8551 3.17589L33.8181 2.73145C33.8181 2.73145 33.7996 2.73145 33.781 2.73145C33.707 2.73145 33.531 2.72219 33.5403 2.63885C33.5496 2.50922 33.5959 1.17589 33.7255 1.00922C33.8366 0.870334 34.3088 0.824038 35.0033 0.824038C35.1144 0.824038 35.2255 0.824038 35.3459 0.824038H35.3551C35.4847 0.824038 35.6051 0.824038 35.7255 0.824038" fill="#69C9CE"/>
<path d="M45.2996 11.5371C44.1237 11.5371 43.4941 11.9075 43.4385 12.6297C43.4292 12.7593 43.4292 12.9353 43.4292 13.1112C43.4292 13.1853 43.4292 13.3056 43.4292 13.3797C43.3644 13.5186 43.3089 13.7223 43.3644 13.9723C42.7718 14.3427 42.1885 14.9445 42.0774 16.3519C42.0681 16.4816 42.0589 16.639 42.1052 16.8056C42.0866 16.9075 42.0866 17.0001 42.0866 17.1112C42.0866 17.4816 42.42 22.4445 42.4478 22.8334C42.4663 23.0556 42.4292 23.176 42.3552 23.4353C42.2996 23.6297 42.2348 23.8612 42.1792 24.1853C42.0959 24.6853 41.8737 26.3982 42.5126 27.5093C42.9755 28.3056 44.0959 28.4167 45.1422 28.4167H45.2811H45.3274H45.3922C46.4663 28.4167 47.6515 28.3427 48.1329 27.5093C48.7718 26.3982 48.5496 24.6853 48.457 24.1853C48.4015 23.8704 48.3366 23.6297 48.2811 23.4445C48.207 23.1853 48.17 23.0741 48.1885 22.8519C48.2163 22.463 48.5403 17.5001 48.5403 17.1297C48.5403 17.0186 48.5403 16.926 48.5218 16.8241C48.5681 16.6575 48.5589 16.5001 48.5496 16.3704C48.4292 14.9538 47.8366 14.3612 47.2533 13.9908C47.3089 13.7408 47.2533 13.5464 47.1885 13.3982C47.1885 13.3149 47.1885 13.2038 47.1885 13.1204C47.1885 12.9445 47.1885 12.7686 47.17 12.639C47.1144 11.9167 46.4941 11.5556 45.3274 11.5556M45.3274 12.3982C45.6052 12.3982 46.3089 12.4075 46.3366 12.713C46.3644 13.0093 46.3274 13.5927 46.3922 13.6853C46.457 13.7778 46.4755 13.8056 46.3644 13.8612C46.2626 13.9167 46.2441 13.9816 46.2441 14.2593C46.2441 14.4816 46.457 14.4908 46.7163 14.639C47.0774 14.8427 47.6144 15.1667 47.7255 16.4353C47.7533 16.7316 47.6515 16.6204 47.6515 16.7964C47.6515 16.9075 47.7163 16.8149 47.7163 17.1297C47.7163 17.4445 47.4107 22.1853 47.3737 22.7964C47.3274 23.3982 47.5311 23.6297 47.6515 24.3427C47.7626 24.9816 47.8644 26.3334 47.42 27.1112C47.1329 27.6112 45.8737 27.6019 45.3459 27.6019C45.2903 27.6019 45.2348 27.6019 45.17 27.6019C44.5774 27.6019 43.5311 27.5741 43.2718 27.1204C42.8274 26.3427 42.9292 24.9908 43.0311 24.3519C43.1422 23.6482 43.3459 23.4167 43.2996 22.8056C43.2533 22.2038 42.9385 17.4538 42.9385 17.1482C42.9385 16.8334 42.994 16.9353 42.994 16.8149C42.994 16.6482 42.9015 16.7501 42.9292 16.4538C43.0311 15.1853 43.5681 14.8612 43.9292 14.6482C44.1885 14.5001 44.4015 14.4908 44.4015 14.2593C44.4015 13.9908 44.3829 13.926 44.2718 13.8704C44.17 13.8149 44.1885 13.7871 44.2533 13.6945C44.3181 13.6019 44.2811 13.0186 44.2996 12.7223C44.3274 12.4167 45.0496 12.4075 45.3181 12.4075H45.3274" fill="#F59822"/>
<path d="M3.75336 13.1943H3.7441C2.73485 13.1943 1.97559 13.2962 1.56818 13.7684C1.26262 14.1295 1.31818 14.5369 1.43855 15.4351L1.45707 15.5647C1.45707 15.5647 1.46633 15.6388 1.47559 15.6665C1.47559 15.7869 1.48485 15.9073 1.50336 16.0091C1.50336 16.0647 1.52188 16.1388 1.53114 16.2314C1.51262 16.3332 1.42929 16.6573 1.20707 16.9999L1.0867 17.1943C0.744104 17.7221 0.475586 18.1388 0.475586 18.9536C0.475586 19.5925 0.475586 25.4073 0.475586 25.4073V26.4351C0.475586 27.9906 2.7441 27.9906 3.71633 27.9906C5.3367 27.9906 6.17929 27.7962 6.65151 27.3239C6.89225 27.0832 7.02188 26.7684 7.02188 26.4351V18.9536C7.02188 18.1388 6.7441 17.7128 6.39225 17.1851L6.27188 16.9999C6.04966 16.6573 5.96633 16.3332 5.94781 16.2314C5.95707 16.1388 5.96633 16.0647 5.97559 16.0091C5.9941 15.898 6.00336 15.7869 6.00336 15.6573C6.00336 15.6202 6.02188 15.5832 6.02188 15.5554V15.4721C6.16077 14.5462 6.21633 14.1202 5.91077 13.7591C5.50336 13.2777 4.75336 13.1851 3.7441 13.1851M3.7441 14.0277C4.16077 14.0277 5.0404 14.0277 5.26262 14.3054C5.3367 14.3888 5.2441 14.9814 5.18855 15.4443C5.17003 15.5647 5.0404 15.4814 5.12373 15.5925C5.18855 15.6851 5.16077 15.7036 5.10522 16.1665C5.07744 16.3888 5.23485 16.9443 5.55892 17.4536C5.96633 18.0832 6.16077 18.3147 6.16077 18.9536C6.16077 19.5925 6.16077 25.4073 6.16077 25.4073V26.4351C6.16077 27.1017 4.65151 27.148 3.73485 27.1573H3.69781C2.78114 27.1573 1.29966 27.1017 1.29966 26.4443C1.29966 25.7777 1.29966 25.4165 1.29966 25.4165C1.29966 25.4165 1.29966 19.6017 1.29966 18.9628C1.29966 18.3239 1.50336 18.0925 1.90151 17.4628C2.22559 16.9536 2.38299 16.4073 2.35522 16.1758C2.29966 15.7128 2.27188 15.7036 2.3367 15.6017C2.42003 15.4906 2.2904 15.5647 2.27188 15.4536C2.20707 14.9906 2.12373 14.398 2.18855 14.3147C2.42003 14.0462 3.29966 14.0369 3.71633 14.0369H3.72559" fill="#F40009"/>
<path d="M12.4846 0.768555H12.4661C10.6883 0.768555 10.2161 1.10189 10.0309 1.60189C9.91982 1.92596 9.87352 2.39818 9.87352 3.28707C9.855 3.34263 9.82723 3.40744 9.81797 3.49078C9.80871 3.57411 9.79019 3.80559 9.91982 4.04633C9.24389 4.48152 8.92908 4.73152 8.80871 5.11115C8.70686 5.44448 8.67908 5.83337 8.80871 6.93522C8.9013 7.64818 9.03093 9.08337 9.14204 10.2315C9.21611 10.9908 9.27167 11.6297 9.30871 11.8704C9.31797 11.9723 9.33649 12.0556 9.36426 12.1297C9.36426 12.1574 9.34574 12.1852 9.34574 12.2223C9.28093 12.5463 8.73463 16.6574 8.70686 17.0371C8.6513 17.9815 8.91982 18.6204 9.50315 18.9445C10.1143 19.2778 11.4939 19.463 12.4661 19.463C13.4383 19.463 14.8272 19.2778 15.4291 18.9445C16.0124 18.6204 16.2809 17.9815 16.2254 17.0371C16.1976 16.6111 15.642 12.4908 15.5865 12.213C15.5865 12.1852 15.5772 12.1574 15.568 12.1297C15.5957 12.0556 15.6143 11.9723 15.6235 11.8797C15.6513 11.6389 15.7161 11.0093 15.7809 10.2593C15.892 9.10189 16.0309 7.65744 16.1143 6.94448C16.2532 5.83337 16.2254 5.44448 16.1143 5.12967C15.9939 4.75004 15.6791 4.50004 14.9939 4.05559C15.1328 3.81485 15.105 3.58337 15.0957 3.5093C15.0865 3.42596 15.0587 3.36115 15.0402 3.30559C15.0402 2.39818 14.9939 1.94448 14.8828 1.62041C14.7069 1.12041 14.2254 0.787073 12.4661 0.787073M12.4661 1.62967C12.9569 1.62967 14.0124 1.67596 14.0865 1.90744C14.1698 2.13893 14.1976 2.59263 14.1976 3.30559C14.1976 3.59263 14.2532 3.56485 14.2624 3.63893C14.2624 3.70374 13.9846 3.72226 13.9754 3.79633C13.9383 4.09263 13.9383 4.31485 13.9939 4.39818C14.0587 4.49078 15.2254 5.12967 15.2994 5.37967C15.355 5.56485 15.3828 5.85189 15.2624 6.84263C15.1143 8.03707 14.8365 11.176 14.7624 11.7778C14.7439 11.963 14.6698 11.9445 14.6698 12.1019C14.6698 12.2686 14.7161 12.2963 14.7346 12.3797C14.7994 12.676 15.3365 16.7223 15.355 17.0834C15.3735 17.3982 15.392 17.9908 14.9939 18.2037C14.605 18.4167 13.4383 18.6204 12.4291 18.6204C11.4198 18.6204 10.2624 18.426 9.86426 18.213C9.47537 18 9.48463 17.3982 9.50315 17.0926C9.52167 16.7315 10.068 12.676 10.1328 12.3889C10.1513 12.3056 10.1976 12.2778 10.1976 12.1111C10.1976 11.9445 10.1235 11.963 10.105 11.7871C10.0309 11.1852 9.75315 8.04633 9.605 6.85189C9.48463 5.86115 9.51241 5.57411 9.56797 5.38893C9.64204 5.14818 10.818 4.5093 10.8735 4.4167C10.9291 4.33337 10.9291 4.11115 10.892 3.81485C10.8828 3.74078 10.5957 3.72226 10.605 3.65744C10.6143 3.58337 10.6698 3.60189 10.6698 3.32411C10.6698 2.61115 10.6976 2.14818 10.7809 1.9167C10.8643 1.68522 11.9198 1.63893 12.4198 1.63893H12.4383" fill="#B49D74"/>
<path d="M37.3553 21.7314H37.0405H36.9479H36.846C35.6979 21.7407 35.0868 21.8148 34.7257 22.2037C34.3738 22.574 34.3831 23.1018 34.3923 23.9814V24.2685C34.3923 24.4444 34.4386 24.6111 34.5127 24.75C34.1886 25.1666 33.2257 26.8703 33.2349 27.7777V28.0833C33.2534 29.75 33.3275 36.8333 33.3368 38C33.3368 38.7592 33.7072 39.0648 34.0775 39.3148C34.1146 39.3426 34.1609 39.3703 34.2072 39.4074C34.7812 39.824 35.2812 40 36.8738 40H37.1331C38.9016 39.9814 39.4294 39.8055 40.0497 39.3426C40.096 39.3055 40.1331 39.2777 40.1794 39.25C40.5405 39 40.9016 38.6852 40.8923 37.9166L40.8553 34.6759C40.8275 31.8148 40.7905 28.1296 40.7812 27.6944C40.772 26.787 39.7627 25.1018 39.4386 24.6944C39.5127 24.5555 39.5497 24.3889 39.5497 24.2129V23.9074C39.5497 23.0463 39.5405 22.5277 39.1886 22.1574C38.8831 21.8426 38.4016 21.7314 37.3646 21.7314M37.3646 22.574C37.8275 22.574 38.4386 22.5926 38.5775 22.7407C38.7164 22.8889 38.6979 23.4537 38.7072 24.2129C38.7072 24.3981 38.5868 24.3148 38.5775 24.4537C38.5683 24.9351 38.596 25.0092 38.772 25.2037C39.0127 25.4629 39.9294 27.074 39.9386 27.6944C39.9386 28.3703 40.0312 36.6574 40.0405 37.9259C40.0405 38.3889 39.8646 38.4166 39.5312 38.6666C39.1331 38.9722 38.8183 39.1389 37.1238 39.1481C37.0405 39.1481 36.9572 39.1481 36.8738 39.1481C35.3923 39.1481 35.0868 38.9907 34.6979 38.7129C34.3553 38.4629 34.1794 38.4351 34.1701 37.9722C34.1609 36.7037 34.0683 28.4166 34.0683 27.7407C34.0683 27.1203 34.9479 25.4907 35.1794 25.2222C35.3553 25.0277 35.3831 24.9537 35.3553 24.4722C35.3553 24.3333 35.2257 24.4166 35.2257 24.2314C35.2257 23.4629 35.1886 22.8981 35.3275 22.75C35.522 22.5463 36.5312 22.5555 36.9386 22.5463C37.0405 22.5463 37.1794 22.5463 37.3368 22.5463" fill="#D5B758"/>
<path d="M24.1886 4.07397C23.4757 4.07397 22.7164 4.13879 22.4757 4.19435C22.2627 4.2499 21.6146 4.40731 21.4016 5.05546C21.272 5.46286 21.2997 5.86101 21.4757 6.17583C21.3183 6.5462 21.2072 6.84249 21.1979 7.12953C21.1979 7.4999 21.2812 7.7499 21.4109 7.9536C21.4109 8.47212 21.4109 9.2962 21.3275 9.94434C21.2164 10.7406 20.8923 11.8425 20.6516 12.6388L20.6053 12.7962C20.4016 13.4906 20.1794 14.1573 19.9849 14.7684C19.6423 15.824 19.3738 16.6573 19.2997 17.1851V17.2314C19.2442 17.574 19.1979 17.9443 19.272 18.2777C19.1609 18.611 19.0868 19.0369 19.022 19.5832C18.8831 20.7221 18.7349 22.4629 18.9201 23.5369C18.7812 23.9073 18.846 24.3332 18.8738 24.5925L18.9016 24.7592C18.9016 24.7592 18.9201 24.9166 18.9572 25.111C19.1146 26.1388 19.6053 29.2499 19.6053 30.9536C19.6053 32.5277 19.3368 33.3425 19.1609 33.8795L19.096 34.0832C18.8275 34.9073 18.3923 37.4629 19.8646 38.2962C20.6238 38.7314 22.6146 38.9629 24.1794 38.9629C25.7442 38.9629 27.7349 38.7314 28.5034 38.2962C29.9664 37.4629 29.5497 34.9721 29.272 34.0832L29.2072 33.898C29.022 33.361 28.7534 32.5462 28.7534 30.9536C28.7534 29.8147 28.9757 27.8332 29.4109 25.074C29.4386 24.9166 29.4572 24.8055 29.4572 24.7684L29.4849 24.5832C29.522 24.3332 29.5775 23.9073 29.4479 23.5462C29.6516 22.3795 29.4572 20.4536 29.3368 19.4999C29.272 18.9999 29.2072 18.5925 29.096 18.2777C29.1701 17.9443 29.1146 17.5832 29.0775 17.2406V17.1851C29.0034 16.6573 28.7257 15.8055 28.3738 14.7314C28.1794 14.1388 27.9664 13.4814 27.7627 12.8055L27.6794 12.5277C27.4572 11.7592 27.1423 10.7129 27.0405 9.96286C26.9479 9.31472 26.9479 8.4999 26.9572 7.97212C27.096 7.77768 27.1886 7.51842 27.1701 7.13879C27.1701 6.87027 27.0497 6.55546 26.9016 6.19434C27.0775 5.88879 27.1146 5.49064 26.9757 5.08323C26.7534 4.42583 26.1053 4.26842 25.8923 4.22212C25.6423 4.16657 24.8553 4.10175 24.1794 4.10175M24.1794 4.94434C24.8831 4.94434 25.559 5.00916 25.6979 5.0462C25.846 5.08323 26.1053 5.14805 26.1701 5.35175C26.2257 5.52768 26.2349 5.73138 26.1053 5.86101C25.9942 5.97212 25.9849 6.08323 25.9849 6.17583C25.9849 6.26842 26.3275 6.91657 26.3275 7.18509C26.3275 7.43509 26.272 7.50916 26.1146 7.67583C26.1146 8.14805 26.0868 9.23138 26.2072 10.0832C26.3275 10.9999 26.7164 12.2406 26.9572 13.0555C27.5034 14.898 28.1423 16.5925 28.2349 17.3055C28.2905 17.6943 28.3738 18.2684 28.1331 18.2684C28.6146 18.4629 28.8368 23.5462 28.559 23.7499C28.7812 23.8425 28.6794 24.2499 28.6331 24.6666C28.6053 24.9073 27.9294 28.898 27.9201 30.9536C27.9201 32.8703 28.2997 33.7962 28.4757 34.3332C28.7164 35.1018 28.9849 37.0647 28.096 37.5647C27.559 37.8703 25.7997 38.1203 24.1886 38.1203C22.5775 38.1203 20.8183 37.8703 20.2905 37.5647C19.4016 37.0647 19.6609 35.1018 19.9109 34.3332C20.0775 33.7869 20.4664 32.8703 20.4572 30.9536C20.4572 28.8888 19.7812 24.9073 19.7534 24.6573C19.7072 24.2406 19.596 23.8332 19.8275 23.7406C19.5497 23.5369 19.772 18.4536 20.2534 18.2592C20.0127 18.2592 20.096 17.6943 20.1516 17.2962C20.2442 16.574 20.8831 14.8795 21.4201 13.0462C21.6701 12.2221 22.0405 10.9906 22.1701 10.0647C22.2905 9.21286 22.2627 8.12953 22.2627 7.65731C22.1053 7.4999 22.0405 7.42583 22.0497 7.16657C22.0497 6.89805 22.4016 6.25916 22.3923 6.15731C22.3923 6.06472 22.3923 5.9536 22.272 5.84249C22.1423 5.72212 22.1423 5.50916 22.1979 5.33323C22.272 5.12953 22.5312 5.06472 22.6701 5.02768C22.809 4.99064 23.4849 4.92583 24.1886 4.92583" fill="white"/>
</g>
<defs>
<clipPath id="clip0_101_19560">
<rect width="48.0741" height="40" fill="white" transform="translate(0.475586)"/>
</clipPath>
</defs>
</svg>
