<svg width="41" height="40" viewBox="0 0 41 40" fill="none" xmlns="http://www.w3.org/2000/svg">
<g clip-path="url(#clip0_101_19514)">
<path fill-rule="evenodd" clip-rule="evenodd" d="M0.626465 20.6199C0.626465 9.31361 9.79049 0.159912 21.0865 0.159912C32.3824 0.159912 41.5465 9.31361 41.5465 20.6199C41.5465 25.6653 39.7184 30.2852 36.6887 33.8533C36.6806 33.8703 36.6715 33.8871 36.6614 33.9035C36.6226 33.966 36.5723 34.017 36.5148 34.0554C32.7634 38.3592 27.2415 41.0799 21.0865 41.0799C14.9162 41.0799 9.38201 38.3487 5.63008 34.0273C5.58839 33.9932 5.55152 33.9518 5.52156 33.9035L5.51687 33.8958C2.46771 30.3233 0.626465 25.6879 0.626465 20.6199ZM6.72802 33.7562C9.51514 36.8008 13.2578 38.9554 17.4804 39.7465C16.0874 38.6675 14.8735 36.9942 13.8978 34.9517C13.393 33.8948 12.9443 32.7253 12.5611 31.4636C10.3471 32.0327 8.37148 32.8152 6.72802 33.7562ZM12.2864 30.5017C9.92797 31.1101 7.81684 31.9567 6.0602 32.9874C3.38887 29.7456 1.74626 25.6237 1.63276 21.1199H11.0594C11.0987 24.5131 11.5377 27.7068 12.2864 30.5017ZM12.0594 21.1199H17.2145C17.2203 20.8045 17.234 20.4619 17.255 20.1199H12.0594C12.0985 16.831 12.5216 13.7516 13.2332 11.069C15.0685 11.4807 17.0374 11.7514 19.0925 11.8583C19.1818 11.5217 19.2629 11.181 19.32 10.8684C17.2717 10.7717 15.318 10.5084 13.5063 10.1053C13.8782 8.87466 14.3129 7.73919 14.8001 6.71917C16.504 3.15211 18.76 1.15991 21.0865 1.15991C23.4128 1.15991 25.6663 3.15185 27.369 6.71905C27.8557 7.73874 28.2901 8.87381 28.6618 10.1041C26.8788 10.5008 24.9591 10.7627 22.9495 10.8634C23.0043 11.176 23.0855 11.5163 23.175 11.8529C25.1927 11.7423 27.1281 11.4731 28.935 11.0677C29.6469 13.7506 30.0711 16.8304 30.1131 20.1199H25.0178C25.0388 20.4619 25.0526 20.8045 25.0585 21.1199H30.1135C30.0739 24.4467 29.6407 27.5605 28.9131 30.2663C27.489 29.9479 25.9849 29.7142 24.4227 29.5759C24.45 29.9718 24.496 30.3066 24.55 30.5917C25.9729 30.7263 27.3408 30.9421 28.6365 31.2292C28.2713 32.4219 27.8469 33.524 27.3728 34.517C25.6687 38.0855 23.4128 40.0799 21.0865 40.0799C18.76 40.0799 16.504 38.0877 14.8001 34.5207C14.3256 33.5272 13.9008 32.4242 13.5355 31.2304C14.8614 30.9361 16.2634 30.7165 17.7229 30.5825C17.7756 30.2974 17.8199 29.9629 17.8448 29.5678C16.2479 29.705 14.7116 29.9421 13.259 30.2675C12.5318 27.5622 12.0989 24.4484 12.0594 21.1199ZM31.1136 21.1199C31.0742 24.5112 30.6349 27.7048 29.8857 30.5001C32.2448 31.1076 34.357 31.9529 36.1137 32.9821C38.7844 29.7399 40.4266 25.6191 40.5402 21.1199H31.1136ZM40.5402 20.1199C40.4275 15.6491 38.808 11.5546 36.1713 8.32379C34.4092 9.36468 32.2833 10.2195 29.9074 10.8332C30.6408 13.6053 31.0714 16.7652 31.1131 20.1199H40.5402ZM11.0594 20.1199C11.0983 16.7657 11.5277 13.6063 12.2608 10.8345C9.88715 10.2212 7.7642 9.36608 6.00266 8.32256C3.36529 11.5536 1.74545 15.6485 1.63276 20.1199H11.0594ZM29.611 31.462C29.2279 32.7227 28.7796 33.8915 28.2752 34.9479C27.2992 36.9917 26.0849 38.6666 24.6912 39.7464C28.9148 38.9546 32.6584 36.7975 35.446 33.7511C33.8024 32.8115 31.8257 32.0303 29.611 31.462ZM35.5081 7.55302C32.7142 4.47144 28.9462 2.28988 24.691 1.49306C26.0835 2.57207 27.2964 4.24557 28.2714 6.28828C28.7884 7.37138 29.2465 8.57275 29.6359 9.87048C31.8682 9.29563 33.859 8.50443 35.5081 7.55302ZM12.5323 9.87176C12.9218 8.57349 13.3802 7.37164 13.8978 6.28815C14.8735 4.24561 16.0874 2.57231 17.4804 1.49334C13.2263 2.29031 9.45927 4.47132 6.66574 7.55201C8.31406 8.50575 10.3019 9.29724 12.5323 9.87176Z" fill="#7ECFD4"/>
<path d="M24.6359 30.7134L24.6359 30.7134C24.7518 31.0887 24.8679 31.722 24.8545 32.332C24.8478 32.6379 24.8081 32.9643 24.7025 33.2589C24.5966 33.5543 24.4098 33.8556 24.0861 34.0406M24.6359 30.7134L23.838 33.6065M24.6359 30.7134L24.6345 30.7089C24.6199 30.6631 24.6037 30.6145 24.5863 30.5626C24.433 30.1027 24.1912 29.3778 24.1828 27.9878C24.183 26.4987 24.6133 23.7707 24.7441 22.9412C24.7628 22.8228 24.7753 22.7431 24.7797 22.7111L24.7798 22.7112L24.7812 22.6988C24.7849 22.6653 24.7907 22.6219 24.7972 22.5732C24.814 22.4476 24.8356 22.2864 24.8387 22.1666C24.8411 22.0743 24.8371 21.9414 24.7905 21.8077C24.7866 21.7967 24.7825 21.7856 24.778 21.7744C24.7828 21.7443 24.7869 21.7143 24.7905 21.6849C24.8099 21.5259 24.8207 21.3235 24.8254 21.1013C24.8348 20.6533 24.8203 20.0789 24.7858 19.5088C24.7513 18.9399 24.696 18.3609 24.6212 17.9062C24.5842 17.6812 24.5397 17.4697 24.4848 17.2999C24.4784 17.2802 24.4716 17.2599 24.4642 17.2394C24.4976 17.1252 24.5041 17.0134 24.5053 16.9343C24.5084 16.7262 24.4727 16.4837 24.4498 16.3279L24.4498 16.3275C24.4028 15.965 24.2299 15.4053 24.0324 14.794C23.9814 14.6362 23.9279 14.4723 23.8726 14.3032C23.7045 13.789 23.5209 13.2271 23.3474 12.6452C23.32 12.5512 23.2908 12.4526 23.2607 12.3507C23.0588 11.6673 22.8122 10.8328 22.7334 10.2022L22.7334 10.2022L22.7328 10.1982C22.6538 9.60521 22.6567 8.86883 22.6589 8.41031C22.6926 8.3667 22.7258 8.31691 22.7536 8.26133C22.8341 8.10026 22.8499 7.93882 22.8438 7.78652C22.8413 7.65128 22.8025 7.51706 22.7742 7.42966C22.7407 7.32596 22.6983 7.21886 22.6604 7.12741C22.6412 7.08092 22.6221 7.03602 22.6051 6.99606L22.6042 6.99381C22.5984 6.98034 22.593 6.96758 22.5879 6.95545C22.8288 6.6475 22.7479 6.26662 22.6922 6.09935C22.6043 5.83582 22.4027 5.69553 22.2659 5.62609C22.13 5.55712 21.9924 5.5244 21.9257 5.50899C21.8181 5.48317 21.6076 5.45978 21.386 5.44247C21.1425 5.42344 20.8358 5.4082 20.52 5.4082C20.2042 5.4082 19.8976 5.42344 19.654 5.44247C19.4324 5.45978 19.2219 5.48317 19.1144 5.50899C19.0477 5.5244 18.91 5.55712 18.7742 5.62609C18.6374 5.69553 18.4357 5.83582 18.3479 6.09935C18.3089 6.21627 18.2783 6.36762 18.2911 6.52865C18.3012 6.65662 18.3422 6.81616 18.4517 6.9565C18.4467 6.96832 18.4414 6.98075 18.4359 6.99385L18.4349 6.99606C18.4179 7.03602 18.3989 7.08092 18.3796 7.12741C18.3418 7.21886 18.2993 7.32596 18.2658 7.42966C18.2366 7.51997 18.1961 7.66027 18.1961 7.80003C18.1961 7.94306 18.2104 8.10216 18.2883 8.26129C18.3155 8.31687 18.348 8.36641 18.3811 8.40972C18.3834 8.86794 18.3863 9.60413 18.3073 10.1972C18.2071 10.925 17.9011 11.9411 17.6849 12.6387L17.6849 12.6387L17.6834 12.6438C17.5152 13.2079 17.339 13.7525 17.1769 14.2535C17.1163 14.4408 17.0577 14.6219 17.0022 14.7957C16.8068 15.4079 16.6371 15.9662 16.5903 16.3275L16.5902 16.3279C16.5673 16.4837 16.5316 16.7262 16.5348 16.9343C16.5359 17.0131 16.5424 17.1243 16.5754 17.238M24.6359 30.7134L16.5754 17.238M24.0861 34.0406L23.838 33.6065M24.0861 34.0406C24.0864 34.0404 24.0867 34.0402 24.0871 34.04L23.838 33.6065M24.0861 34.0406C23.9111 34.1409 23.6785 34.2164 23.4417 34.2761C23.1946 34.3384 22.9044 34.3926 22.5918 34.4374C21.9667 34.5268 21.2275 34.5819 20.52 34.5819C19.8078 34.5819 19.0662 34.5269 18.4409 34.4374C18.1283 34.3926 17.8385 34.3383 17.5922 34.2759C17.3574 34.2165 17.1252 34.1407 16.951 34.0389M23.838 33.6065C23.382 33.8684 21.888 34.0819 20.52 34.0819C19.1424 34.0819 17.6483 33.8684 17.202 33.6065M16.951 34.0389C16.952 34.0395 16.953 34.04 16.954 34.0406L17.202 33.6065M16.951 34.0389C16.6292 33.8538 16.4427 33.5529 16.3365 33.2584C16.2302 32.9634 16.1894 32.6363 16.1819 32.3295C16.1672 31.7197 16.2826 31.0845 16.4062 30.707M16.951 34.0389C16.9503 34.0385 16.9496 34.0381 16.9489 34.0377L17.202 33.6065M17.202 33.6065L16.4062 30.707M16.4062 30.707C16.406 30.7076 16.4058 30.7082 16.4056 30.7089L16.8819 30.8609L16.4068 30.7049C16.4066 30.7056 16.4064 30.7063 16.4062 30.707ZM16.4062 30.707C16.4204 30.6624 16.4362 30.6152 16.453 30.5647C16.6061 30.1055 16.8476 29.381 16.8476 27.9892C16.8476 27.1489 16.7067 25.8965 16.5586 24.8052C16.4852 24.2641 16.4111 23.7704 16.354 23.3977C16.3409 23.3122 16.3283 23.2309 16.3167 23.1558C16.282 22.9309 16.2557 22.7611 16.249 22.6974M16.4062 30.707L16.7461 22.6436M16.249 22.6974C16.249 22.6978 16.2491 22.6983 16.2491 22.6988L16.7461 22.6436M16.249 22.6974C16.2486 22.6943 16.2484 22.6914 16.2481 22.6889L16.7461 22.6436M16.249 22.6974C16.2454 22.6654 16.24 22.6246 16.2338 22.5787C16.217 22.4519 16.1949 22.2866 16.1928 22.1623C16.1912 22.0681 16.1968 21.9324 16.2481 21.7962C16.252 21.7858 16.2562 21.7754 16.2606 21.7651M16.7461 22.6436C16.7397 22.5859 16.7319 22.5281 16.7243 22.4716C16.7006 22.2946 16.6785 22.1296 16.7038 22.0144L16.514 22.2675C16.414 22.1924 16.3644 22.1004 16.3437 22.0579C16.319 22.0071 16.3033 21.9582 16.2931 21.9207C16.2794 21.8709 16.2689 21.8179 16.2606 21.7651M16.2606 21.7651C16.2564 21.738 16.2527 21.7109 16.2495 21.6844C16.2301 21.5252 16.2193 21.3225 16.2147 21.0999C16.2052 20.6512 16.2197 20.0759 16.2543 19.5052C16.2887 18.9357 16.344 18.3563 16.4189 17.902C16.4559 17.6773 16.5004 17.4659 16.5554 17.2965C16.5616 17.2774 16.5683 17.2578 16.5754 17.238M16.2606 21.7651C16.3229 21.6204 16.4397 21.4787 16.6283 21.4032L16.7648 21.7445C16.6437 21.1577 16.7378 18.715 16.9708 17.6764L16.5754 17.238" stroke="#F40009" stroke-miterlimit="10"/>
</g>
<defs>
<clipPath id="clip0_101_19514">
<rect width="40" height="40" fill="white" transform="translate(0.466309)"/>
</clipPath>
</defs>
</svg>
