<svg width="44" height="40" viewBox="0 0 44 40" fill="none" xmlns="http://www.w3.org/2000/svg">
<g clip-path="url(#clip0_101_19488)">
<path d="M17.1927 23.4848C17.1927 26.9494 14.4127 29.7474 10.9927 29.7474C7.57271 29.7474 4.78271 26.9393 4.78271 23.4848C4.78271 20.0302 7.56271 17.2222 10.9927 17.2222C14.4227 17.2222 17.1927 20.0302 17.1927 23.4848Z" stroke="#F59822" stroke-width="1.06" stroke-miterlimit="10" stroke-linecap="round"/>
<path d="M1.37256 39.4647C1.37256 34.1011 5.68256 29.7476 10.9926 29.7476C16.3026 29.7476 20.6126 34.1011 20.6126 39.4647" stroke="#F59822" stroke-width="1.06" stroke-miterlimit="10" stroke-linecap="round"/>
<path d="M23.8525 39.4646C23.8525 34.101 28.1625 29.7474 33.4725 29.7474C38.7825 29.7474 43.0925 34.101 43.0925 39.4646M39.6825 23.4848C39.6825 26.9494 36.9025 29.7474 33.4825 29.7474C30.0625 29.7474 27.2725 26.9393 27.2725 23.4848C27.2725 20.0302 30.0525 17.2222 33.4825 17.2222C36.9125 17.2222 39.6825 20.0302 39.6825 23.4848Z" stroke="#B49C74" stroke-width="1.06" stroke-miterlimit="10" stroke-linecap="round"/>
<path d="M22.2325 0.5354L24.8325 5.11116C26.1125 7.31318 27.8825 9.5657 27.8825 12.1011C27.8825 15.2223 25.3225 17.798 22.2325 17.798C19.1425 17.798 16.5825 15.2223 16.5825 12.1011C16.5825 9.5657 18.3525 7.31318 19.5925 5.11116L22.2325 0.5354Z" stroke="#69C9CE" stroke-width="1.06" stroke-linecap="round" stroke-linejoin="round"/>
</g>
<defs>
<clipPath id="clip0_101_19488">
<rect width="42.78" height="40" fill="white" transform="translate(0.842773)"/>
</clipPath>
</defs>
</svg>
