<svg width="191" height="190" viewBox="0 0 191 190" fill="none" xmlns="http://www.w3.org/2000/svg">
<path d="M0.860352 189.42V0.5H189.78V189.42H0.860352Z" fill="#DBD3AA" stroke="#DBD3AA"/>
<path d="M155.98 69.36C160.19 69.36 162.03 74 162.03 78.09C162.03 85.42 151.57 85.37 149.32 85.37C149.32 72.32 152.98 69.35 155.98 69.35M159.21 99.7599C150.66 99.7599 150.01 91.06 149.57 88.96C154.73 88.96 172.14 88.96 172.15 78.04C172.15 70.22 163.6 66.37 156.98 66.37C144.53 66.37 136.55 73.86 136.55 86.59C136.55 94.96 140.18 98.6 141.32 99.84C142.46 101.01 144.01 102.28 146.08 103.33C147.94 104.21 151.23 105.33 155.83 105.34C169 105.34 172.46 95.2199 172.91 93.8799C172.91 93.8799 167.77 99.7699 159.22 99.7599" fill="#F40009"/>
<path d="M81.1103 102.42C73.5503 102.42 73.3903 90.0499 73.4003 85.3199C73.4003 82.4099 73.3203 69.06 81.5403 69.06C88.7403 69.06 89.1403 80.52 89.1303 85.74C89.1303 90.96 88.4603 102.41 81.1103 102.41M82.0703 66.1899C71.4003 66.1799 60.7903 72.2799 60.7703 85.8199C60.7703 87.1299 60.9303 88.59 61.1403 89.71C61.2603 90.37 61.5803 91.57 61.9103 92.65C59.4803 95.85 54.8203 100.48 47.9703 100.48C38.5503 100.48 31.8103 93.73 31.8203 77.65C31.8303 61.57 38.1403 53.17 46.6103 53.17C57.4603 53.17 62.2903 65.69 63.0903 67.55V53.52L57.2003 51.5699C55.2203 50.9099 53.1903 50.4 51.1303 50.09C49.6203 49.86 47.9703 49.71 46.1403 49.71C29.6103 49.71 17.5403 62.29 17.5303 78.55C17.5103 94.72 28.4803 105.56 44.3003 105.56C55.2903 105.56 61.1503 99.96 63.7203 96.68C65.7603 99.85 70.7903 105.29 81.2103 105.3C95.6203 105.3 102.91 96.07 102.91 85.46C102.93 74.89 96.0503 66.19 82.0803 66.18" fill="#F40009"/>
<path d="M139.6 65.92H132.6L127.86 71.45C127.75 71.6 127.63 71.75 127.48 71.92C127.09 72.37 121.85 78.4999 119 81.8199L117.24 83.89C117.24 83.89 117.22 83.91 117.22 83.92V83.9L117.2 83.92L117.22 52.35H105.3V58.27C105.3 59.73 105.28 104.17 105.28 104.17H117.2V92L119.98 88.78L128.75 104.18H140.75L126.79 80.78L139.61 65.9399L139.6 65.92Z" fill="#F40009"/>
<path d="M136.46 48.83C136.28 49.1 136.11 49.42 135.78 50.07C135.45 50.71 134.79 52.58 134.25 53.87C133.32 56.12 131.92 58.13 130.21 59.55C128.79 60.75 128.06 61.25 126.91 61.65C126.91 61.65 127.34 61.81 128.33 61.86C132.13 62.02 135.34 60.33 137.15 57.79C138.82 55.43 140.03 52.25 138.1 49.37C136.29 46.67 128.35 45.58 124.04 49.28C121.67 51.32 122.49 54.41 125.85 53.11C126.44 52.85 126.98 52.4 127.19 51.99C129.12 52.7 131.43 51.2 131.43 51.2C131.43 51.2 129.79 54.88 125.8 55.41C121.73 55.95 120.58 53.81 120.63 52.32C121.03 47.32 130.86 44.4 136.73 46.95C141.54 49.04 142.56 52.72 141.58 55.65C140.13 59.97 136.44 61.82 132.93 62.57C129.16 63.39 126.07 62.65 125.05 62.39C124.61 62.27 124.41 62.14 124.41 62.14C124.41 62.14 125.75 61.22 127.04 59.66C128.13 58.34 129.26 56.74 130.06 55.37C131.9 52.21 134.35 49.69 136.45 48.83M148.77 49.44C149.13 50.07 148.72 50.92 148 51.34C147.27 51.77 146.31 51.67 145.95 51.04C145.59 50.41 145.95 49.58 146.73 49.13C147.51 48.69 148.41 48.82 148.76 49.45M146.03 60.11C145.18 60.98 144.3 61.77 143.28 62.31C142.44 62.67 141.39 63.04 140.58 62.38C140.19 62.02 140.16 61.42 140.29 60.92C140.44 60.39 140.72 59.9 140.98 59.42C140.98 59.42 144.45 53.06 144.48 53C144.52 52.93 144.59 52.93 144.59 52.93C145.21 52.93 147.07 52.93 147.15 52.93C147.21 52.93 147.17 53.05 147.17 53C147.2 52.96 145.98 55.26 145.98 55.26C145.98 55.26 143.37 60.08 143.26 60.28C143 60.78 143.24 61.16 143.98 60.69C144.9 60.11 145.39 59.51 145.94 58.79C146.68 57.83 147.09 56.54 148.36 55.19C149.6 53.87 150.59 53.26 151.64 52.9C152.85 52.48 154.19 52.77 154.52 53.67C154.8 54.43 154.38 55.49 153.84 56.12C152.56 57.59 150.81 58.39 149 58.8C148.69 59.24 148.19 61.04 149.81 61.01C150.72 60.98 151.47 60.48 152.29 59.95C153.71 58.95 155.01 57.69 155.93 56.26C156.37 55.48 156.85 54.68 157.24 53.89H155.65L156.21 52.92H157.78L159.52 49.85H162.1C162.1 49.85 160.62 52.65 160.48 52.92C160.86 52.92 162.46 52.92 162.46 52.92L161.98 53.89H159.96L159.69 54.31C159.69 54.31 157.54 58.29 156.79 59.65C156.16 60.77 156.63 60.95 157.1 60.75C157.72 60.49 158.5 59.65 158.77 59.38C159.24 58.83 159.71 58.29 160.1 57.72C160.46 57.72 160.96 57.72 161.11 57.72C159.89 59.73 158.01 62.04 155.64 62.67C155 62.77 154.22 62.79 153.77 62.3C153.33 61.84 153.36 61.08 153.58 60.53C153.65 60.35 153.74 60.15 153.79 60.08C153.82 60.01 153.78 59.97 153.7 60.05C152.24 61.41 150.45 62.73 148.47 62.75C147.67 62.75 146.75 62.4 146.35 61.61C145.95 60.83 146.04 60.3 146.04 60.1M150.85 55.71C150.42 56.19 149.95 56.84 149.59 57.6C149.59 57.6 151.75 57.05 152.93 55.55C153.18 55.21 153.64 54.6 153.33 54.23C153.24 54.11 152.62 53.73 150.85 55.71Z" fill="#F40009"/>
<path d="M175.57 97.4399C174.8 97.4399 174.11 97.62 173.48 97.97C172.85 98.34 172.36 98.82 171.99 99.43C171.62 100.04 171.45 100.72 171.45 101.43C171.45 102.14 171.63 102.83 171.99 103.43C172.36 104.04 172.85 104.53 173.48 104.88C174.11 105.25 174.79 105.42 175.57 105.42C176.35 105.42 177.04 105.24 177.67 104.88C178.3 104.53 178.78 104.05 179.14 103.43C179.51 102.83 179.68 102.16 179.68 101.43C179.68 100.7 179.5 100.04 179.14 99.43C178.77 98.82 178.29 98.33 177.67 97.97C177.04 97.62 176.34 97.4399 175.57 97.4399ZM175.57 104.64C174.94 104.64 174.37 104.49 173.89 104.22C173.39 103.94 173.01 103.56 172.74 103.08C172.47 102.6 172.33 102.04 172.33 101.43C172.33 100.82 172.46 100.28 172.74 99.79C173.02 99.3 173.4 98.91 173.89 98.64C174.39 98.36 174.94 98.23 175.57 98.23C176.2 98.23 176.75 98.36 177.25 98.64C177.75 98.92 178.13 99.31 178.4 99.79C178.67 100.27 178.81 100.83 178.81 101.43C178.81 102.03 178.68 102.6 178.4 103.08C178.12 103.56 177.74 103.94 177.26 104.22C176.76 104.5 176.19 104.64 175.57 104.64ZM177.29 100.73C177.29 100.41 177.19 100.13 176.98 99.91C176.76 99.69 176.48 99.59 176.13 99.59H174.04V103.2H174.96V101.89H175.66L176.51 103.2H177.56L176.61 101.8C176.83 101.7 176.99 101.55 177.11 101.36C177.23 101.17 177.29 100.97 177.29 100.73ZM174.97 100.38H175.96C176.08 100.38 176.16 100.41 176.24 100.47C176.31 100.54 176.34 100.63 176.34 100.73C176.34 100.83 176.31 100.92 176.24 100.98C176.17 101.05 176.08 101.08 175.96 101.08H174.97V100.38Z" fill="#F40009"/>
<path d="M30.0402 128.78C30.9202 128.78 31.7302 128.64 32.4902 128.36C33.2302 128.08 33.8502 127.66 34.3102 127.1L32.6902 125.35C32.3002 125.76 31.8902 126.04 31.4702 126.19C31.0402 126.36 30.5902 126.44 30.1102 126.44C29.4902 126.44 28.9502 126.31 28.4702 126.06C27.9802 125.81 27.6202 125.46 27.3502 125.02C27.0802 124.58 26.9402 124.1 26.9402 123.55C26.9402 123 27.0802 122.51 27.3502 122.08C27.6202 121.65 27.9902 121.3 28.4702 121.04C28.9502 120.78 29.4902 120.66 30.0902 120.66C30.5802 120.66 31.0102 120.74 31.4202 120.91C31.8102 121.08 32.2002 121.37 32.6102 121.78L34.2302 119.99C33.7702 119.44 33.1802 119.04 32.4402 118.74C31.7002 118.46 30.8902 118.32 30.0002 118.32C28.8902 118.32 27.9102 118.54 27.0402 119.01C26.1602 119.47 25.4702 120.09 24.9802 120.89C24.4902 121.69 24.2402 122.57 24.2402 123.55C24.2402 124.53 24.4902 125.41 24.9802 126.21C25.4702 127.01 26.1602 127.62 27.0402 128.09C27.9202 128.56 28.9202 128.78 30.0202 128.78H30.0402ZM44.4902 128.6H47.1802L43.2202 118.51H40.0302L36.0802 128.6H38.7402L39.5002 126.55H43.7402L44.5002 128.6H44.4902ZM40.2902 124.38L41.6102 120.79L42.9402 124.38H40.2902ZM58.0702 120.75V118.51H49.7202V128.6H52.3002V124.73H56.2102V122.47H52.3002V120.75H58.0702ZM69.2702 120.75V118.51H60.9202V128.6H63.5002V124.73H67.4102V122.47H63.5002V120.75H69.2702ZM80.6202 126.37H74.6902V124.58H78.6802V122.32H74.6902V120.74H80.4802L80.7702 118.51H72.1102V128.6H80.9102L80.6202 126.37ZM83.8402 118.51V128.6H86.4202V118.51H83.8402ZM97.1402 118.51V124.83L92.7602 118.51H90.0802V128.6H92.6202V122.17L97.0902 128.6H99.6802V118.51H97.1402ZM111.76 126.37H105.83V124.58H109.82V122.32H105.83V120.74H111.62L111.91 118.51H103.25V128.6H112.05L111.76 126.37ZM128.8 120.75V118.51H120.45V128.6H123.03V124.73H126.94V122.47H123.03V120.75H128.8ZM138.63 128.59H141.59L138.84 124.65C139.46 124.41 139.93 124.03 140.28 123.5C140.62 122.98 140.78 122.38 140.78 121.71C140.78 121.12 140.65 120.59 140.39 120.1C140.13 119.61 139.73 119.23 139.21 118.94C138.69 118.65 138.09 118.51 137.39 118.51H131.65V128.6H134.2V124.92H136.18L138.63 128.6V128.59ZM134.2 120.75H137.06C137.4 120.75 137.66 120.83 137.87 121.02C138.07 121.2 138.16 121.43 138.16 121.72C138.16 122.01 138.06 122.25 137.87 122.43C137.66 122.61 137.39 122.7 137.06 122.7H134.2V120.75ZM152.61 126.37H146.68V124.58H150.67V122.32H146.68V120.74H152.47L152.76 118.51H144.1V128.6H152.9L152.61 126.37ZM164.24 126.37H158.31V124.58H162.3V122.32H158.31V120.74H164.1L164.39 118.51H155.73V128.6H164.53L164.24 126.37Z" fill="#F40009"/>
</svg>
