<svg width="11" height="40" viewBox="0 0 11 40" fill="none" xmlns="http://www.w3.org/2000/svg">
<path d="M0.946171 17.8053C0.856171 17.7365 0.696172 17.6677 0.656172 17.4888C0.606172 17.3099 0.486171 16.4568 0.436171 15.8239C0.386171 15.1909 0.326172 13.8012 0.326172 12.9481C0.326172 12.0949 0.326172 10.0722 0.326172 9.26041C0.326172 8.44858 0.486172 8.17338 0.646172 7.95323C0.806172 7.73307 1.08617 7.27898 1.42617 6.83867C1.75617 6.39835 2.29617 5.60028 2.49617 5.13244C2.69617 4.66461 2.64617 3.90781 2.64617 3.90781C2.57617 3.90781 2.25617 3.90782 2.11617 3.86654C1.97617 3.83902 1.95617 3.67389 1.95617 3.63261C1.95617 3.57757 1.95617 3.52254 2.00617 3.48126C2.04617 3.42622 2.14617 3.41246 2.14617 3.41246C2.14617 3.41246 2.20617 1.33471 2.22617 0.756798C2.25617 0.178883 2.76617 0.137606 3.21617 0.0825665C3.65617 0.0275269 4.85617 0 5.42617 0C5.99617 0 7.19617 0.0275269 7.63617 0.0825665C8.07617 0.137606 8.59617 0.165123 8.61617 0.756798C8.63617 1.33471 8.69617 3.41246 8.69617 3.41246C8.69617 3.41246 8.79617 3.41246 8.83617 3.48126C8.87617 3.5363 8.88617 3.59133 8.88617 3.63261C8.88617 3.67389 8.85617 3.83902 8.72617 3.86654C8.58617 3.89406 8.26617 3.90781 8.19617 3.90781C8.19617 3.90781 8.14617 4.67837 8.35617 5.13244C8.55617 5.60028 9.09617 6.38459 9.42617 6.83867C9.75617 7.27898 10.0362 7.73307 10.2062 7.95323C10.3762 8.17338 10.5262 8.44858 10.5262 9.26041C10.5262 10.0722 10.5262 12.0949 10.5262 12.9481C10.5262 13.8012 10.4562 15.1772 10.4062 15.8239C10.3562 16.4568 10.2362 17.3237 10.1862 17.4888C10.1362 17.6677 9.97617 17.7365 9.89617 17.8053C9.81617 17.8741 9.61617 18.0392 9.67617 18.2869C9.71617 18.4795 9.92617 18.6997 10.0262 18.8923C10.1362 19.1263 10.1662 19.3602 10.1162 19.6766C10.0762 19.9106 9.81617 20.461 9.71617 20.7637C9.61617 21.0664 9.56617 21.5205 9.57617 21.9883C9.57617 22.4561 9.64617 22.979 9.78617 23.3505C9.92617 23.7358 9.92617 23.7908 9.92617 23.9835C9.92617 24.1761 9.73617 24.6852 9.69617 24.9192C9.64617 25.2081 9.64617 25.5934 9.69617 25.8824C9.74617 26.1713 9.89617 26.5841 10.0362 26.8318C10.1462 27.0244 10.1662 27.2446 10.1462 27.4647C10.1162 27.8225 9.87617 28.2628 9.92617 28.7994C9.97617 29.3361 10.0562 29.5975 10.1962 29.8452C10.3362 30.0929 10.4062 30.4369 10.3462 30.7671C10.2862 31.1111 10.2062 31.5239 10.2062 31.8404C10.2062 32.1569 10.2062 32.721 10.2062 33.1063C10.2062 33.4916 10.2062 34.2621 10.2262 34.3997C10.2562 34.5373 10.5162 34.9776 10.5162 35.2804C10.5162 35.5831 10.3962 35.9133 10.3462 36.0234C10.2962 36.1472 10.2662 36.2711 10.2962 36.3261C10.3262 36.3812 10.5362 36.6563 10.4762 37.0279C10.4162 37.3994 10.1162 38.4039 9.92617 38.7341C9.73617 39.0781 8.99617 39.5046 8.37617 39.656C7.76617 39.8074 6.92617 39.9312 6.55617 39.9587C6.18617 39.9862 5.58617 40 5.45617 40C5.32617 40 4.72617 40 4.35617 39.9587C3.98617 39.9312 3.14617 39.8074 2.53617 39.656C1.91617 39.5046 1.18617 39.0643 0.986172 38.7341C0.796172 38.3901 0.496171 37.3994 0.436171 37.0279C0.376171 36.6563 0.586171 36.3949 0.616171 36.3261C0.646171 36.2711 0.616172 36.1472 0.566172 36.0234C0.516172 35.8996 0.396172 35.5831 0.396172 35.2804C0.396172 34.9776 0.656172 34.5373 0.676172 34.3997C0.706172 34.2621 0.706171 33.4778 0.696171 33.1063C0.696171 32.721 0.696171 32.1569 0.696171 31.8404C0.696171 31.5239 0.616171 31.0974 0.556171 30.7671C0.496171 30.4231 0.566171 30.0791 0.706171 29.8452C0.846171 29.5975 0.926171 29.3361 0.976171 28.7994C1.02617 28.2628 0.786172 27.8225 0.756172 27.4647C0.736172 27.2308 0.756171 27.0107 0.866171 26.8318C1.00617 26.5841 1.14617 26.1713 1.20617 25.8824C1.25617 25.5934 1.25617 25.2081 1.20617 24.9192C1.16617 24.6852 0.976171 24.1761 0.976171 23.9835C0.976171 23.7908 0.976171 23.7358 1.11617 23.3505C1.25617 22.9653 1.32617 22.4561 1.32617 21.9883C1.32617 21.5205 1.28617 21.0802 1.18617 20.7637C1.08617 20.4472 0.816171 19.9106 0.776171 19.6766C0.726171 19.3602 0.756171 19.1263 0.866171 18.8923C0.966171 18.6997 1.17617 18.4795 1.21617 18.2869C1.26617 18.0392 1.07617 17.8741 0.996172 17.8053" fill="#8FD6DA"/>
</svg>
