<svg width="9" height="40" viewBox="0 0 9 40" fill="none" xmlns="http://www.w3.org/2000/svg">
<path d="M0.316406 10.4953C0.386406 7.58254 1.46641 5.11792 2.96641 4.13914V3.49057C2.66641 3.38443 2.4864 3.25472 2.4864 3.11321C2.4864 3.00708 2.58641 2.91273 2.74641 2.83018H2.72641V0.69575C2.72641 0.483486 2.84641 0.283013 3.02641 0.22405C3.45641 0.0825411 3.9164 0 4.4164 0C4.9164 0 5.37641 0.0825411 5.79641 0.22405C5.97641 0.283013 6.09641 0.471694 6.09641 0.69575V2.83018H6.07641C6.23641 2.91273 6.3364 3.00708 6.3364 3.11321C6.3364 3.25472 6.15641 3.38443 5.85641 3.49057V4.13914C7.35641 5.11792 8.43641 7.58254 8.50641 10.4953V38.3373C8.50641 38.8325 8.2364 39.2807 7.8364 39.4222C6.7864 39.7877 5.63641 40 4.42641 40C3.21641 40 2.0564 39.7995 1.0164 39.4222C0.616403 39.2807 0.336403 38.8325 0.336403 38.3373V10.4953H0.316406Z" fill="#FF804A"/>
</svg>
