<svg width="33" height="40" viewBox="0 0 33 40" fill="none" xmlns="http://www.w3.org/2000/svg">
<g clip-path="url(#clip0_101_19448)">
<path d="M23.6198 15.1038C20.6749 13.4958 16.2486 11.0387 16.2486 11.0387C16.2486 11.0387 15.6162 16.3323 11.4067 17.5428C15.7969 20.4877 21.0724 22.9628 21.0724 22.9628C21.0724 22.9628 20.3678 17.597 23.6198 15.1038ZM25.2278 14.7424C25.5169 14.2185 25.3362 13.5681 24.8123 13.279L2.30096 0.704489C1.77702 0.41542 1.12662 0.596088 0.837546 1.12003C0.548476 1.64397 0.729145 2.29437 1.25308 2.58344L23.7463 15.1399C24.2702 15.429 24.9207 15.2483 25.2097 14.7244L25.2278 14.7424Z" stroke="white" stroke-linecap="round" stroke-linejoin="round"/>
<path d="M9.27491 23.1616C8.91357 23.1616 8.5703 23.3062 8.31736 23.5591C8.06443 23.812 7.91989 24.1734 7.91989 24.5347C7.97409 32.3396 6.87202 36.6034 6.38421 38.0668C6.23968 38.4823 6.31194 38.934 6.56488 39.2953C6.81782 39.6567 7.23335 39.8735 7.66696 39.8735L28.9497 40.018C29.4556 40.018 29.9072 39.747 30.1421 39.3134C30.377 38.8798 30.3589 38.3558 30.106 37.9222C28.769 35.7903 28.5884 33.0261 28.5522 32.177L31.8404 28.7443C32.3282 28.2384 32.3463 27.4254 31.8765 26.9015L30.6841 25.5645C30.4312 25.2754 30.0518 25.1128 29.6724 25.1128C29.3652 25.1128 29.0581 25.2212 28.8052 25.42L28.3716 25.7813V24.607C28.3716 23.8662 27.7754 23.252 27.0346 23.252L9.27491 23.1616ZM9.27491 24.0288L27.0346 24.1192C27.3056 24.1192 27.5224 24.336 27.5224 24.607V26.5943C27.5224 26.8834 27.7573 27.0821 28.0102 27.0821C28.1186 27.0821 28.227 27.046 28.3174 26.9737L29.3652 26.0885C29.4556 26.0162 29.564 25.9801 29.6724 25.9801C29.8169 25.9801 29.9434 26.0343 30.0337 26.1427L31.2261 27.4796C31.3887 27.6783 31.3887 27.9674 31.2261 28.1481L27.8296 31.6892C27.7392 31.7795 27.685 31.906 27.685 32.0324C27.685 32.8274 27.8296 35.9349 29.3652 38.392C29.564 38.7172 29.3472 39.1508 28.9678 39.1508L7.68502 38.9882C7.34175 38.9882 7.08882 38.663 7.19722 38.3197C7.70309 36.766 8.8413 32.4299 8.7871 24.5166C8.7871 24.2456 9.0039 24.0108 9.27491 24.0108" fill="#CDA075"/>
<path d="M12.3462 35.3206V38.952M12.3823 26.9014L12.3462 32.2854M18.0192 26.5943L17.965 35.5193M23.6199 33.6404L23.5838 39.0243M23.656 24.2095L23.6199 29.5934" stroke="#CDA075" stroke-linecap="round" stroke-linejoin="round"/>
</g>
<defs>
<clipPath id="clip0_101_19448">
<rect width="32.0867" height="40" fill="white" transform="translate(0.133057)"/>
</clipPath>
</defs>
</svg>
