<svg width="31" height="40" viewBox="0 0 31 40" fill="none" xmlns="http://www.w3.org/2000/svg">
<g clip-path="url(#clip0_101_19472)">
<path d="M3.64693 8.6167C3.46906 8.6167 3.31096 8.6167 3.11333 8.6167C2.7576 8.6167 2.42163 8.79456 2.18448 9.07124C1.94732 9.34792 1.86827 9.72342 1.92756 10.0791C3.7655 19.7432 10.8999 20.7906 13.8841 20.7906C14.9315 20.7906 15.6232 20.672 15.7023 20.6523C16.3347 20.5337 16.7695 19.9606 16.7102 19.3282C16.3742 15.6127 13.2319 8.6167 3.62716 8.6167M3.62716 9.842C14.6351 9.842 15.4849 19.427 15.4849 19.427C15.4849 19.427 14.8525 19.5456 13.8841 19.5456C10.9394 19.5456 4.77341 18.4784 3.13309 9.842C3.29119 9.842 3.46906 9.842 3.62716 9.842Z" fill="#57BC74"/>
<path d="M26.8883 0C26.8883 0 26.7302 0 26.6709 0.0197628C14.1215 2.37154 16.0385 13.6759 16.0583 13.7747C16.1571 14.3676 16.6907 14.7826 17.2638 14.7826C17.3034 14.7826 17.3429 14.7826 17.3626 14.7826C21.1769 14.4466 28.331 11.1858 28.0939 1.20553C28.0939 0.849802 27.916 0.494071 27.6393 0.27668C27.4219 0.0988142 27.1453 0 26.8686 0M26.8686 1.2253C27.1453 12.7075 17.2638 13.5573 17.2638 13.5573C17.2638 13.5573 15.3864 3.37945 26.8686 1.2253Z" fill="#57BC74"/>
<path d="M21.9079 6.95654C21.9079 6.95654 13.7656 11.7589 17.1253 25.3953" stroke="#57BC74" stroke-linecap="round" stroke-linejoin="round"/>
<path d="M29.5363 39.3676C29.5363 38.1028 29.3189 36.8775 28.8248 35.7708C28.0541 34.0317 26.4137 31.9763 24.4375 30.9487C22.8564 27.925 19.6746 25.8499 16.0185 25.8499C13.805 25.8499 11.7695 26.6206 10.1687 27.8854C9.67461 27.8064 9.16077 27.7668 8.64694 27.7471C6.05801 27.6878 1.61136 27.4902 0.899902 32.0356" stroke="#BDA87C" stroke-linecap="round" stroke-linejoin="round"/>
</g>
<defs>
<clipPath id="clip0_101_19472">
<rect width="29.8814" height="40" fill="white" transform="translate(0.267578)"/>
</clipPath>
</defs>
</svg>
