<svg width="11" height="40" viewBox="0 0 11 40" fill="none" xmlns="http://www.w3.org/2000/svg">
<path d="M9.87688 17.8053C9.96688 17.7365 10.1269 17.6677 10.1669 17.4888C10.2169 17.3099 10.3369 16.4568 10.3869 15.8239C10.4369 15.1909 10.4969 13.8012 10.4969 12.9481C10.4969 12.0949 10.4969 10.0722 10.4969 9.26041C10.4969 8.44857 10.3369 8.17337 10.1769 7.95322C10.0169 7.73306 9.73688 7.27898 9.39688 6.83867C9.06688 6.39835 8.52689 5.60028 8.32689 5.13244C8.12689 4.6646 8.17688 3.90781 8.17688 3.90781C8.24688 3.90781 8.56688 3.90781 8.70688 3.86653C8.84688 3.83901 8.86688 3.68765 8.86688 3.63261C8.86688 3.57757 8.86688 3.52253 8.81688 3.48125C8.77688 3.42621 8.67688 3.41245 8.67688 3.41245C8.67688 3.41245 8.61688 1.33471 8.59688 0.756794C8.56688 0.178879 8.05689 0.137599 7.60689 0.0825593C7.16689 0.0275198 5.96688 0 5.39688 0C4.82688 0 3.62687 0.0275198 3.18687 0.0825593C2.74687 0.137599 2.22688 0.165119 2.20688 0.756794C2.18688 1.33471 2.12688 3.41245 2.12688 3.41245C2.12688 3.41245 2.02688 3.41245 1.98688 3.48125C1.94688 3.53629 1.93687 3.59133 1.93687 3.63261C1.93687 3.67389 1.96688 3.83901 2.09688 3.86653C2.23688 3.89405 2.55688 3.90781 2.62688 3.90781C2.62688 3.90781 2.67689 4.67836 2.46689 5.13244C2.26689 5.60028 1.72688 6.38459 1.39688 6.83867C1.06688 7.27898 0.786882 7.73306 0.616882 7.95322C0.446882 8.17337 0.296875 8.44857 0.296875 9.26041C0.296875 10.0722 0.296875 12.0949 0.296875 12.9481C0.296875 13.8012 0.366885 15.1772 0.416885 15.8239C0.466885 16.4706 0.586887 17.3237 0.636887 17.4888C0.686887 17.6677 0.84688 17.7365 0.92688 17.8053C1.00688 17.8741 1.20688 18.0392 1.14688 18.2869C1.10688 18.4795 0.896875 18.6997 0.796875 18.8923C0.686875 19.1262 0.656879 19.3602 0.706879 19.6766C0.746879 19.9106 1.00689 20.461 1.10689 20.7637C1.20689 21.0664 1.25689 21.5205 1.24689 21.9883C1.24689 22.4561 1.17688 22.979 1.03688 23.3505C0.896881 23.7358 0.896881 23.7908 0.896881 23.9835C0.896881 24.1761 1.08688 24.6852 1.12688 24.9192C1.17688 25.2081 1.17688 25.5934 1.12688 25.8824C1.07688 26.1713 0.92688 26.5841 0.78688 26.8318C0.67688 27.0244 0.65688 27.2446 0.67688 27.4647C0.70688 27.8225 0.946881 28.2628 0.896881 28.7994C0.846881 29.3361 0.766877 29.5975 0.626877 29.8452C0.486877 30.0929 0.416883 30.4369 0.476883 30.7671C0.536883 31.1111 0.616882 31.5239 0.616882 31.8404C0.616882 32.1569 0.616882 32.721 0.616882 33.1063C0.616882 33.4916 0.616878 34.2621 0.596878 34.3997C0.566878 34.5373 0.306885 34.9776 0.306885 35.2804C0.306885 35.5831 0.426883 35.9133 0.476883 36.0234C0.526883 36.1472 0.556886 36.2711 0.526886 36.3261C0.496886 36.3811 0.286878 36.6563 0.346878 37.0279C0.406878 37.3994 0.706881 38.4039 0.896881 38.7341C1.08688 39.0781 1.82688 39.5046 2.44688 39.656C3.05688 39.8074 3.89688 39.9312 4.26688 39.9587C4.63688 39.9862 5.23688 40 5.36688 40C5.49688 40 6.09689 40 6.46689 39.9587C6.83689 39.9312 7.67688 39.8074 8.28688 39.656C8.90688 39.5046 9.63688 39.0643 9.83688 38.7341C10.0269 38.3901 10.3269 37.3994 10.3869 37.0279C10.4469 36.6563 10.2369 36.3949 10.2069 36.3261C10.1769 36.2711 10.2069 36.1472 10.2569 36.0234C10.3069 35.8996 10.4269 35.5831 10.4269 35.2804C10.4269 34.9776 10.1669 34.5373 10.1469 34.3997C10.1169 34.2621 10.1169 33.4778 10.1269 33.1063C10.1269 32.721 10.1269 32.1569 10.1269 31.8404C10.1269 31.5239 10.2069 31.0974 10.2669 30.7671C10.3269 30.4231 10.2569 30.0791 10.1169 29.8452C9.97688 29.5975 9.89688 29.3361 9.84688 28.7994C9.79688 28.2628 10.0369 27.8225 10.0669 27.4647C10.0869 27.2308 10.0669 27.0107 9.95688 26.8318C9.81688 26.5841 9.67688 26.1713 9.61688 25.8824C9.56688 25.5934 9.56688 25.2081 9.61688 24.9192C9.65688 24.6852 9.84688 24.1761 9.84688 23.9835C9.84688 23.7908 9.84688 23.7358 9.70688 23.3505C9.56688 22.9653 9.49689 22.4561 9.49689 21.9883C9.49689 21.5205 9.53689 21.0802 9.63689 20.7637C9.73689 20.4472 10.0069 19.9106 10.0469 19.6766C10.0969 19.3602 10.0669 19.1262 9.95688 18.8923C9.85688 18.6997 9.64689 18.4795 9.60689 18.2869C9.55689 18.0392 9.74689 17.8741 9.82689 17.8053" fill="#ECA06E"/>
</svg>
