<svg width="32" height="40" viewBox="0 0 32 40" fill="none" xmlns="http://www.w3.org/2000/svg">
<g clip-path="url(#clip0_101_19464)">
<path d="M3.55499 19.0049C3.55499 19.0049 4.85515 19.3901 5.54536 20.3853C6.23557 21.3805 6.84552 23.3709 6.84552 23.3709M17.6641 31.0755C17.6641 26.5651 14.0205 22.9214 9.51005 22.9214C4.99962 22.9214 1.35596 26.5651 1.35596 31.0755C1.35596 35.5859 4.99962 39.2296 9.51005 39.2296C14.0205 39.2296 17.6641 35.5859 17.6641 31.0755Z" stroke="#D7B75B" stroke-width="0.9" stroke-miterlimit="10" stroke-linecap="round"/>
<path d="M5.68994 19.39C5.68994 19.39 5.91466 15.5698 8.12975 14.1252C10.3448 12.6805 14.0045 12.52 14.0045 12.52C14.0045 12.52 12.7525 14.382 10.4572 16.7415C9.41386 17.817 5.68994 19.39 5.68994 19.39Z" stroke="#73C37E" stroke-width="0.9" stroke-miterlimit="10" stroke-linecap="round"/>
<path d="M23.8442 14.3178C23.8442 14.3178 23.2021 14.992 22.3996 16.3403C21.5328 17.801 20.9549 19.695 20.9549 19.695M20.8426 20.7544V12.5361M20.9228 20.7705C22.7206 20.7705 24.6307 22.2954 24.6307 26.87C24.6307 31.4446 20.9228 38.3628 20.9228 38.3628C20.9228 38.3628 17.2471 30.2087 17.2471 26.5329C17.2471 22.8572 18.467 20.7705 20.9228 20.7705V20.7705Z" stroke="#D7B75B" stroke-width="0.9" stroke-miterlimit="10" stroke-linecap="round"/>
<path d="M30.3611 8.3948C30.3611 8.3948 27.9534 7.59224 25.7543 9.80732C23.5392 12.0224 23.8282 14.3178 23.8282 14.3178C23.8282 14.3178 26.4445 13.6115 28.1139 11.7656C29.7832 9.90363 30.3611 8.41085 30.3611 8.41085V8.3948ZM20.8426 1.12354C20.8426 1.12354 18.3868 3.93252 18.8041 7.49593C19.2214 11.0433 20.8426 13.0979 20.8426 13.0979C20.8426 13.0979 22.7046 9.87153 23.0738 7.43172C23.5232 4.46222 20.8426 1.12354 20.8426 1.12354V1.12354Z" stroke="#73C37E" stroke-width="0.9" stroke-miterlimit="10" stroke-linecap="round"/>
<path d="M17.9692 14.3179C17.9692 14.3179 18.6113 14.992 19.4139 16.3403C20.2806 17.801 20.8585 19.6951 20.8585 19.6951" stroke="#D7B75B" stroke-width="0.9" stroke-miterlimit="10" stroke-linecap="round"/>
<path d="M11.4365 8.39486C11.4365 8.39486 13.8442 7.59229 16.0433 9.80738C18.2584 12.0225 17.9694 14.3178 17.9694 14.3178C17.9694 14.3178 15.3531 13.6116 13.6837 11.7496C12.0144 9.88764 11.4526 8.39486 11.4526 8.39486H11.4365Z" stroke="#73C37E" stroke-width="0.9" stroke-miterlimit="10" stroke-linecap="round"/>
</g>
<defs>
<clipPath id="clip0_101_19464">
<rect width="30.6902" height="40" fill="white" transform="translate(0.633789)"/>
</clipPath>
</defs>
</svg>
