<svg width="37" height="200" viewBox="0 0 37 200" fill="none" xmlns="http://www.w3.org/2000/svg">
<g clip-path="url(#clip0_101_19760)">
<path d="M17.8224 -7.50848e-07C17.4977 0.257339 17.2334 0.583541 17.0915 1.00278C16.7161 2.10219 16.6716 3.44322 17.5347 4.21281C18.3151 4.90869 18.3361 5.61909 18.3361 6.20987C18.3361 6.80066 16.1247 10.9253 16.0777 12.6179C16.0308 14.2416 16.4383 14.7056 17.4927 15.7337C17.4927 18.7396 17.6545 25.6622 16.9013 31.0868C16.0925 36.933 13.6082 44.815 12.0241 50.0438C8.47295 61.7532 4.33657 72.5516 3.73401 77.134C3.40063 79.6289 2.83882 83.2569 4.42547 83.2569C1.28675 84.4965 -0.148017 116.868 1.64483 118.171C0.185364 118.767 0.838543 121.381 1.16945 124.008C1.36825 125.583 5.75776 150.97 5.77011 164.093C5.78245 176.32 3.29568 182.198 2.17083 185.653C1.14723 188.799 0.0853529 195.068 0.983011 200L36.2905 200L36.2905 -1.55811e-06L17.8224 -7.50848e-07Z" fill="white"/>
<path d="M31.4119 94.761L32.7652 92.0632L30.1019 92.0632L28.7437 94.761L31.4119 94.761Z" fill="#F40009"/>
<path d="M16.6184 98.9109C15.333 101.174 12.7808 105.997 11.3584 105.005C10.0359 104.079 11.2892 100.112 12.1474 98.1848C12.8833 96.5224 14.9403 93.2786 15.9257 93.8404C16.2936 94.0494 16.2516 94.6087 16.1171 94.9216C14.7119 95.034 14.1094 97.2618 14.8181 97.8103C15.612 98.418 16.464 96.7967 16.8406 95.1246C17.0814 94.0397 16.8653 93.0212 16.1492 92.6902C14.0328 91.7068 11.8621 95.2913 11.4559 96.0078C11.0608 96.7012 10.1693 98.5135 9.06297 98.8252C9.51859 96.9477 10.0829 94.2946 8.7444 93.8863C7.13307 93.3946 5.71558 97.3053 5.22045 98.9677C3.89927 103.405 4.45367 106.589 5.31923 106.761C6.37123 106.975 8.09493 102.369 8.8259 99.7881C9.08272 99.724 9.43463 99.5561 9.67664 99.3628C8.83578 101.867 8.78886 103.399 8.78886 104.255C8.79379 105.854 9.60749 106.956 10.1199 107.076C12.1523 107.562 13.6414 105.08 14.87 103.489C14.4502 105.794 14.8206 106.961 15.7454 107.231C17.2073 107.658 18.4964 106.095 19.3039 104.998C19.2545 105.878 19.4509 106.95 20.0843 107.244C20.8153 107.583 21.8302 107.042 22.3574 106.642C23.9614 105.426 26.1975 102.453 27.8409 99.5694L26.8359 99.5694C24.7244 103.234 23.0625 104.421 22.6451 104.249C22.4982 104.188 22.3414 103.897 22.5464 103.354C22.6735 103.019 28.02 92.0596 28.02 92.0596L25.1171 92.0596C25.0183 92.2613 24.9603 92.5331 24.8208 92.6685C21.9006 89.1334 17.9037 96.6481 16.6208 98.9097L16.6184 98.9109ZM8.60735 95.1186C9.28399 95.2986 8.81849 97.5385 8.47029 98.8783C7.86527 98.8324 7.39113 98.3093 7.34668 97.9553C7.15282 96.3412 8.25174 95.0219 8.60735 95.1186ZM8.2184 99.7458C7.62696 102.099 6.62682 104.466 6.09712 104.466C5.87857 104.466 5.43036 102.843 6.85772 98.4398C7.12936 99.1381 7.58375 99.5549 8.2184 99.7446L8.2184 99.7458ZM24.3194 93.6869C24.3194 93.6869 21.0091 100.73 20.3251 101.978C19.7361 103.061 18.7038 104.578 18.0099 104.414C17.3604 104.259 17.6321 102.651 18.3532 100.857C18.9174 99.4329 20.3004 97.0564 21.7006 95.034C22.9909 93.1674 24.1454 92.8485 24.3194 93.6869Z" fill="#F40009"/>
<path d="M5.20707 90.931C3.79947 93.6312 2.74253 97.4876 2.35235 100.49C1.66089 105.76 2.32518 110.933 4.59094 111.978C5.80963 112.534 12.4328 108.804 16.1037 114.959C17.7372 111.298 24.232 114.149 26.2261 115.744C26.0964 115.398 21.7094 110.589 16.8495 109.748C10.7535 108.694 7.22217 111.715 5.07002 110.885C3.28952 110.203 2.88205 106.712 3.5377 100.741C3.88837 97.5661 4.98482 93.45 6.03559 91.5194C6.87151 89.9983 7.6568 88.9352 8.2359 89.1164C8.68781 89.2529 8.64089 89.6975 8.48655 90.0696C7.49629 90.3765 7.03943 92.7783 7.65804 92.951C8.16552 93.0972 8.79153 91.7876 9.09281 90.2315C9.24715 89.4547 9.11256 88.2707 8.51371 87.9614C7.80991 87.5905 6.30723 88.8216 5.20831 90.931L5.20707 90.931Z" fill="#F40009"/>
<path d="M36.2904 106.587L36.2904 101.839C35.2372 103.438 34.4432 105.829 34.2173 108.95C34.8853 108.061 35.5125 107.249 36.2904 106.586L36.2904 106.587Z" fill="#F40009"/>
<path d="M30.9265 114.473C32.7873 115.409 34.6999 114.56 36.2903 113.193L36.2903 111.704C35.6013 112.238 34.8703 112.539 34.1492 112.386C32.7564 112.095 32.0304 110.317 32.0749 108.838C32.2131 104.316 34.3727 99.7081 36.2903 96.4546L36.2903 91.1617C31.6044 96.3193 29.5103 101.456 28.4694 105.574C27.5236 109.317 28.362 113.181 30.9265 114.473Z" fill="#F40009"/>
</g>
<defs>
<clipPath id="clip0_101_19760">
<rect width="200" height="36.2903" fill="white" transform="translate(0 200) rotate(-90)"/>
</clipPath>
</defs>
</svg>
