<svg width="200" height="56" viewBox="0 0 200 56" fill="none" xmlns="http://www.w3.org/2000/svg">
<g clip-path="url(#clip0_101_19739)">
<path fill-rule="evenodd" clip-rule="evenodd" d="M0 28.0568C0 37.8694 1.54332 48.5504 3.353 51.771C6.38018 57.149 18.186 55.5802 22.8194 54.0885C26.09 53.0415 31.6505 50.724 43.2208 50.7332C55.6382 50.7447 79.6602 54.8418 81.151 55.0238C83.6351 55.3302 86.1102 55.943 86.6738 54.5804C87.9073 56.2528 118.538 54.9121 119.711 51.9864C119.711 53.4665 123.144 52.9424 125.505 52.6314C129.841 52.0682 140.059 48.2095 151.139 44.9002C156.086 43.4224 163.545 41.1049 169.077 40.3481C174.209 39.6432 180.76 39.7975 183.604 39.7975C184.578 40.7812 185.016 41.1602 186.554 41.1176C188.155 41.0738 192.061 39.0131 192.617 39.0131C193.174 39.0131 193.848 39.0362 194.507 39.7607C195.236 40.5635 196.505 40.5197 197.544 40.173C198.802 39.7526 199.179 38.185 199.394 37.2842C199.592 36.4606 199.999 32.3301 199.999 28.0591C199.999 23.788 199.592 19.6621 199.394 18.8339C199.178 17.9343 198.802 16.3678 197.544 15.9474C196.504 15.5972 195.235 15.5557 194.507 16.3609C193.848 17.0889 193.176 17.1084 192.617 17.1084C192.058 17.1084 188.155 15.0455 186.554 15.0017C185.017 14.9579 184.578 15.3381 183.604 16.3217C180.76 16.3217 174.209 16.4726 169.077 15.77C163.545 15.0155 156.086 12.698 151.139 11.2202C140.059 7.90748 129.841 4.04879 125.505 3.48669C123.144 3.17569 119.711 2.6516 119.711 4.13172C118.538 1.20372 87.9073 -0.134722 86.6738 1.53776C86.1102 0.176277 83.6363 0.785604 81.151 1.0943C79.6602 1.27975 55.6382 5.37457 43.2208 5.38608C31.6505 5.3976 26.0889 3.07778 22.8194 2.02845C18.186 0.537957 6.38247 -1.03547 3.353 4.34136C1.54332 7.56308 0 18.2453 0 28.0568Z" fill="white"/>
<path d="M111.38 30.5655V28.081L108.828 26.814V29.3031L111.38 30.5655Z" fill="#F40009"/>
<path d="M104.9 15.5029C102.758 14.3038 98.1947 11.9229 99.1332 10.596C100.009 9.36237 103.763 10.5315 105.587 11.332C107.16 12.0185 110.229 13.9375 109.698 14.8567C109.5 15.1999 108.97 15.1608 108.674 15.0352C108.568 13.7244 106.46 13.1623 105.941 13.8235C105.366 14.5641 106.9 15.3589 108.482 15.7102C109.509 15.9348 110.473 15.7332 110.786 15.0652C111.716 13.0909 108.325 11.066 107.647 10.687C106.99 10.3184 105.276 9.48677 104.981 8.45471C106.757 8.87975 109.268 9.40614 109.654 8.15754C110.119 6.65437 106.419 5.33205 104.846 4.87016C100.647 3.63768 97.6345 4.15486 97.471 4.96231C97.2687 5.94368 101.628 7.55166 104.07 8.23356C104.13 8.47314 104.289 8.80142 104.472 9.02718C102.102 8.24277 100.653 8.199 99.8432 8.199C98.3296 8.20361 97.287 8.96268 97.1738 9.44069C96.7131 11.3366 99.0624 12.7258 100.568 13.8719C98.3867 13.4802 97.2824 13.8258 97.0263 14.6885C96.6228 16.0523 98.1021 17.2548 99.1401 18.0081C98.3067 17.9621 97.2927 18.1452 97.0149 18.7361C96.6936 19.418 97.2058 20.3648 97.5842 20.8567C98.7342 22.3529 101.548 24.4389 104.276 25.972V25.0344C100.809 23.0648 99.6854 21.5144 99.8489 21.125C99.906 20.988 100.182 20.8417 100.695 21.0329C101.013 21.1515 111.383 26.139 111.383 26.139V23.431C111.192 23.3389 110.934 23.2848 110.806 23.1546C114.151 20.4305 107.041 16.7019 104.901 15.5052L104.9 15.5029ZM108.488 8.02968C108.318 8.66089 106.198 8.22665 104.93 7.90183C104.974 7.33742 105.469 6.89511 105.804 6.85364C107.331 6.6728 108.579 7.69795 108.488 8.02968ZM104.11 7.66685C101.883 7.11511 99.6431 6.18212 99.6431 5.68797C99.6431 5.4841 101.178 5.06598 105.345 6.39751C104.685 6.65092 104.29 7.0748 104.111 7.66685H104.11ZM109.843 22.6869C109.843 22.6869 103.178 19.5988 101.997 18.9607C100.973 18.4113 99.5368 17.4483 99.6922 16.801C99.8386 16.1951 101.36 16.4485 103.058 17.1212C104.406 17.6476 106.654 18.9377 108.568 20.2439C110.334 21.4476 110.636 22.5245 109.843 22.6869Z" fill="#F40009"/>
<path d="M94.6463 15.7181C95.6432 10.0315 92.7852 6.73719 93.5706 4.72952C94.2154 3.06855 97.5192 2.68844 103.169 3.30007C106.173 3.6272 110.068 4.65004 111.895 5.63026C113.334 6.41006 114.34 7.14264 114.169 7.68286C114.04 8.10443 113.619 8.06066 113.267 7.91668C112.976 6.9929 110.704 6.56672 110.54 7.14379C110.402 7.6172 111.641 8.20119 113.114 8.48224C113.849 8.62622 114.969 8.50067 115.262 7.94202C115.613 7.28547 114.448 5.88367 112.452 4.85852C109.897 3.54542 106.247 2.55944 103.407 2.19545C98.42 1.55042 93.5249 2.17011 92.536 4.28375C92.0101 5.42063 95.5392 11.5991 89.7157 15.0236C93.1796 16.5475 90.4817 22.6062 88.9727 24.4664C89.2996 24.3455 93.8507 20.253 94.6463 15.7193V15.7181Z" fill="#F40009"/>
<path d="M112.95 34.5116C107.831 29.6738 102.683 27.5763 98.5951 26.5581C95.0535 25.6758 91.3964 26.4579 90.1743 28.8503C88.8734 31.3982 91.2135 34.0497 93.3981 35.7038C94.3287 36.4133 95.3701 36.9328 96.2047 37.3601C97.0404 37.7921 98.73 38.4083 100.35 38.6502C102.594 38.9865 104.583 38.4671 104.327 36.7427C104.001 34.5393 100.898 32.3116 95.3987 31.9211C96.5968 32.808 97.6474 33.6155 98.3527 34.8675C100.008 34.8675 103.312 36.2993 102.897 37.5893C102.522 38.7562 98.6088 37.7748 96.5556 36.6909C94.73 35.728 91.7428 33.756 92.1475 31.8578C92.423 30.5585 94.1058 29.8812 95.505 29.9226C102.029 30.1196 108.74 34.6982 110.817 36.1806C112.9 37.6654 114.65 39.7468 114.891 41.1175C114.975 41.5817 114.825 41.918 114.535 42.1564C112.868 38.8437 106.898 37.2979 106.201 39.3678C105.789 40.5865 107.417 41.9203 109.563 42.6552C110.91 43.1125 112.571 43.3348 113.883 43.003C113.913 43.1309 113.936 43.261 113.941 43.3947C114.009 44.8103 111.815 46.0773 110.427 47.4342C111.21 47.6841 111.942 47.9422 112.598 48.1944C113.666 46.7857 115.216 44.9554 114.903 43.2392C114.867 43.0445 114.811 42.8521 114.745 42.6655C115.524 42.2359 116.057 41.4964 116.113 40.3388C116.173 39.1363 115.105 36.5504 112.95 34.5151V34.5116ZM109.898 42.1403C108.343 41.5436 106.799 40.6924 106.932 39.7157C107.162 38.0639 112.57 39.8689 113.726 42.5089C112.574 42.7715 110.858 42.5089 109.898 42.1403Z" fill="#F40009"/>
</g>
<defs>
<clipPath id="clip0_101_19739">
<rect width="200" height="55.5133" fill="white"/>
</clipPath>
</defs>
</svg>
