<svg width="55" height="200" viewBox="0 0 55 200" fill="none" xmlns="http://www.w3.org/2000/svg">
<g clip-path="url(#clip0_101_19773)">
<path fill-rule="evenodd" clip-rule="evenodd" d="M27.2444 200C36.9852 200 47.5822 198.461 50.7752 196.645C56.1083 193.614 54.5581 181.814 53.0773 177.175C52.0361 173.901 49.734 168.348 49.7455 156.768C49.7571 144.354 53.8177 120.326 54.0028 118.845C54.3036 116.358 54.9168 113.882 53.5632 113.316C55.2175 112.078 53.8987 81.4553 50.995 80.2753C52.4642 80.2753 51.9436 76.8394 51.6312 74.4794C51.0759 70.1411 47.2467 59.926 43.9612 48.8431C42.492 43.8917 40.1898 36.4415 39.4494 30.9116C38.7553 25.7751 38.9056 19.2272 38.9056 16.3813C39.8774 15.4095 40.2592 14.9699 40.2129 13.4313C40.1666 11.8348 38.1305 7.92457 38.1305 7.36927C38.1305 6.81397 38.1537 6.13142 38.8709 5.48357C39.6692 4.75474 39.6229 3.48218 39.2758 2.441C38.8594 1.18001 37.2976 0.80981 36.4068 0.590005C35.5854 0.404905 31.4901 0 27.2444 0C22.9987 0 18.9149 0.404905 18.0935 0.601573C17.2027 0.821379 15.641 1.19158 15.2245 2.45257C14.8774 3.49375 14.8311 4.76631 15.641 5.49514C16.3582 6.15456 16.3814 6.82554 16.3814 7.38084C16.3814 7.93614 14.3337 11.8464 14.2874 13.4429C14.2411 14.9815 14.6229 15.4211 15.5947 16.3929C15.5947 19.2388 15.7451 25.7867 15.051 30.9232C14.299 36.453 11.9968 43.9149 10.5392 48.8547C7.25364 59.9375 3.42439 70.1527 2.86909 74.491C2.55674 76.851 2.03614 80.2869 3.50537 80.2869C0.601623 81.4553 -0.728779 112.089 0.937116 113.327C-0.416424 113.894 0.185149 116.37 0.497505 118.857C0.682604 120.349 4.74322 144.366 4.75479 156.779C4.76636 168.348 2.46419 173.913 1.423 177.186C-0.0577936 181.814 -1.61957 193.626 3.72518 196.657C6.91814 198.461 17.5267 200.012 27.2559 200.012" fill="white"/>
<path d="M29.7432 88.6165H27.2675L26.0181 91.1731H28.4822L29.7432 88.6165Z" fill="#F40009"/>
<path d="M25.347 88.6163H22.6631C22.5706 88.813 22.5243 89.0675 22.3855 89.1948C19.6784 85.8514 15.9764 92.9662 14.7964 95.0948C13.6048 97.235 11.2448 101.805 9.92594 100.868C8.69966 99.9884 9.85653 96.2401 10.6548 94.4122C11.3373 92.8389 13.2462 89.7732 14.1485 90.3053C14.4956 90.502 14.4493 91.0342 14.3221 91.3234C13.0264 91.4275 12.4595 93.533 13.1189 94.0536C13.8593 94.6321 14.646 93.0934 14.993 91.5085C15.2128 90.4789 15.0162 89.5187 14.3568 89.2063C12.4016 88.2693 10.3887 91.6705 10.0185 92.3414C9.64829 93.0009 8.82692 94.713 7.7973 95.0023C8.21377 93.2207 8.74593 90.7103 7.49651 90.3285C6.00415 89.8657 4.69688 93.5562 4.23414 95.1295C3.00785 99.329 3.52844 102.337 4.32668 102.499C5.29846 102.707 6.89494 98.3456 7.57749 95.9046C7.82044 95.8468 8.14436 95.6848 8.36417 95.4997C7.58906 97.8713 7.54279 99.3174 7.54279 100.127C7.54279 101.643 8.30632 102.684 8.78064 102.8C10.6548 103.262 12.043 100.914 13.1768 99.4099C12.7834 101.596 13.1305 102.695 13.9866 102.95C15.3401 103.355 16.5317 101.874 17.2836 100.833C17.2374 101.666 17.4225 102.684 18.0009 102.962C18.6835 103.285 19.6205 102.776 20.1064 102.395C21.5872 101.249 23.658 98.4266 25.1851 95.7079H24.2596C22.3045 99.1786 20.7658 100.301 20.3841 100.139C20.2452 100.081 20.1064 99.8033 20.2915 99.2942C20.4072 98.9819 25.3586 88.6047 25.3586 88.6047M5.06708 100.347C4.87041 100.347 4.45394 98.8084 5.77277 94.6436C6.02729 95.303 6.44376 95.6964 7.03376 95.8815C6.49004 98.1142 5.56454 100.347 5.06708 100.347ZM7.26514 95.0601C6.70984 95.0138 6.27023 94.5279 6.22395 94.1924C6.05042 92.6654 7.0569 91.4159 7.39239 91.5085C8.01711 91.682 7.58906 93.7991 7.26514 95.0601ZM18.2439 97.9985C17.7001 99.0282 16.7399 100.463 16.1036 100.301C15.5021 100.15 15.7566 98.6348 16.4276 96.9342C16.9482 95.5807 18.2323 93.3364 19.528 91.4275C20.7196 89.6691 21.7954 89.3567 21.9574 90.155C21.9574 90.155 18.8917 96.8185 18.2554 97.9985" fill="#F40009"/>
<path d="M15.0047 105.356C9.35921 104.362 6.09684 107.219 4.09545 106.432C2.45269 105.784 2.07092 102.487 2.6725 96.8303C2.99642 93.8224 4.01447 89.9353 4.98624 88.1075C5.76134 86.6729 6.49017 85.6665 7.02233 85.84C7.43881 85.9672 7.39253 86.3837 7.25371 86.7423C6.33978 87.0316 5.91174 89.299 6.49017 89.4726C6.96449 89.6114 7.54293 88.3735 7.82058 86.9043C7.9594 86.1639 7.84371 85.0533 7.28841 84.7525C6.629 84.4055 5.24075 85.5623 4.2227 87.5637C2.92701 90.1204 1.94367 93.7646 1.58504 96.6105C0.948756 101.597 1.5619 106.49 3.65584 107.485C4.78957 108.006 10.921 104.477 14.3106 110.308C15.8261 106.849 21.8419 109.544 23.6813 111.048C23.5656 110.724 19.505 106.166 15.0047 105.38" fill="#F40009"/>
<path d="M52.6144 101.377C51.9319 103.852 51.1452 104.94 50.9717 104.963C50.9022 104.963 50.7981 104.697 50.9022 104.304C51.446 101.99 52.4525 97.5127 52.707 95.9046L51.7699 95.9856C51.7352 96.136 51.6658 96.4831 51.6195 96.5756C50.4858 93.5793 48.3918 99.0976 47.7556 100.995C47.2003 102.649 46.2863 106.189 45.5922 105.958C45.2683 105.854 45.5459 103.471 46.0897 100.335C47.9059 98.2299 49.3289 94.7015 49.8958 92.6307C50.0577 92.0175 50.1966 91.3928 50.3122 90.7913C50.1618 90.8838 49.9536 90.9648 49.7801 91.0226C49.676 91.5548 49.5603 92.0638 49.433 92.5034C48.9934 94.0768 47.7556 97.0615 46.2863 99.1323C47.4201 93.0125 49.3752 85.0416 50.1387 85.3887C50.3469 85.4812 50.3585 86.4067 50.2544 87.633C50.3817 87.5404 50.5668 87.4016 50.7056 87.2512C50.7519 85.5275 50.6362 84.4053 50.0115 84.3475C48.7967 84.2318 46.645 90.6756 45.2914 96.9921C44.9906 98.3919 44.7014 99.7223 44.4469 100.995C44.1808 101.157 43.9263 101.273 43.6718 101.319C44.0998 99.5372 44.4932 96.6219 43.3016 96.1129C41.4969 95.3262 39.4029 99.005 38.6625 100.706C36.3141 106.189 36.6149 109.081 38.0263 109.382C40.7333 109.949 42.8157 104.477 43.4867 102.048C43.7528 102.001 44.0304 101.897 44.2965 101.77C43.6371 105.264 43.4057 107.925 44.5742 108.341C45.4649 108.665 46.3673 106.467 46.8069 105.275C46.7259 106.987 47.1077 107.496 47.501 107.693C48.1142 107.994 49.0975 106.305 49.3867 105.472C49.3405 106.155 49.4562 107.149 49.8379 107.311C50.8791 107.739 52.5219 103.436 53.0309 101.353H52.626L52.6144 101.377ZM39.9929 106.583C39.1484 106.409 39.1022 103.748 41.1383 99.9884C41.3928 100.763 42.0985 101.897 42.9661 102.001C42.4224 104.118 40.8722 106.756 40.0045 106.583M43.1743 101.307C42.2373 101.249 41.8324 99.919 41.7514 99.4331C41.52 98.0448 42.7926 96.8301 43.3826 97.2582C44.0189 97.7209 43.4983 100.046 43.1743 101.307ZM49.7454 103.39C49.4562 104.176 49.0744 105.287 48.6926 105.171C48.415 105.09 48.5538 103.933 48.7736 102.591C48.9471 101.527 49.6065 99.6298 50.266 98.1721C50.937 96.6682 51.3071 96.6566 51.4113 97.2813C51.4113 97.2813 50.1966 102.117 49.7338 103.378" fill="#F40009"/>
<path d="M35.8631 95.6732C33.6766 95.9972 31.467 99.0976 31.0736 104.604C31.9529 103.401 32.7627 102.36 34.0005 101.654C34.0005 99.9999 35.4235 96.6913 36.7076 97.1078C37.8645 97.478 36.8927 101.4 35.8168 103.447C34.8566 105.275 32.9015 108.26 31.0158 107.855C29.7201 107.577 29.0491 105.9 29.0954 104.5C29.292 97.9754 33.8386 91.2656 35.3078 89.1948C36.777 87.1124 38.8478 85.3655 40.2013 85.1226C40.6641 85.0416 40.9996 85.192 41.231 85.4812C37.9454 87.1471 36.4068 93.1165 38.466 93.8107C39.6808 94.2156 40.9996 92.596 41.7284 90.4442C42.1796 89.0906 42.3994 87.4363 42.0755 86.1175C42.2027 86.0828 42.33 86.0712 42.4688 86.0596C43.8686 85.9902 45.1296 88.1883 46.4832 89.5765C46.7261 88.7899 46.9806 88.061 47.2351 87.4016C45.8353 86.3257 44.019 84.7871 42.3184 85.0994C42.1218 85.1341 41.9367 85.192 41.7516 85.2614C41.3235 84.4863 40.5947 83.9541 39.4378 83.8963C38.2462 83.8384 35.678 84.9028 33.665 87.0661C28.864 92.1795 26.7816 97.3276 25.7752 101.423C24.8959 104.963 25.671 108.619 28.0542 109.845C30.5877 111.141 33.2138 108.804 34.8566 106.617C35.5623 105.692 36.0713 104.651 36.4994 103.806C36.9274 102.973 37.5405 101.284 37.7719 99.6644C38.1074 97.4201 37.5868 95.4303 35.8747 95.6848M41.6012 86.291C41.8557 87.4479 41.6012 89.1601 41.231 90.1203C40.641 91.6705 39.7964 93.2207 38.8247 93.0818C37.1819 92.8505 38.9751 87.4479 41.6012 86.291Z" fill="#F40009"/>
<path d="M48.6929 90.7335C51.6776 90.907 52.1519 86.4762 52.3949 84.7178C51.747 86.9852 50.7637 88.3503 49.3407 88.3735C49.1325 89.0792 48.9127 89.8774 48.6929 90.7335Z" fill="#F40009"/>
<path d="M53.1235 106.49C52.7302 106.606 52.3832 106.282 52.3716 105.484C52.3716 104.685 52.7071 104.165 53.1004 104.049C53.4822 103.933 53.7714 104.269 53.783 105.056C53.783 105.854 53.5053 106.363 53.1235 106.49ZM53.1004 104.304C52.8112 104.385 52.5798 104.847 52.5914 105.426C52.5914 106.004 52.8343 106.328 53.1235 106.236C53.4012 106.155 53.6441 105.692 53.6326 105.113C53.6326 104.535 53.3896 104.223 53.1004 104.304ZM52.9963 105.981L52.8228 106.027V104.674L53.112 104.593C53.3086 104.535 53.4359 104.593 53.4359 104.905C53.4359 105.148 53.3549 105.275 53.2508 105.31L53.459 105.842L53.2624 105.9L53.0773 105.379L52.9963 105.403V105.97V105.981ZM53.1467 105.137C53.2277 105.113 53.2624 105.079 53.2624 104.928C53.2624 104.789 53.1698 104.801 53.112 104.824L52.9963 104.859V105.183L53.1467 105.137Z" fill="#F40009"/>
</g>
<defs>
<clipPath id="clip0_101_19773">
<rect width="54.5002" height="200" fill="white"/>
</clipPath>
</defs>
</svg>
