<svg width="200" height="37" viewBox="0 0 200 37" fill="none" xmlns="http://www.w3.org/2000/svg">
<g clip-path="url(#clip0_101_19747)">
<path d="M200 17.8222C199.743 17.4974 199.416 17.2332 198.997 17.0912C197.898 16.7159 196.557 16.6714 195.787 17.5345C195.091 18.3148 194.381 18.3358 193.79 18.3358C193.199 18.3358 189.075 16.1244 187.382 16.0775C185.758 16.0306 185.294 16.438 184.266 17.4925C181.26 17.4925 174.338 17.6543 168.913 16.9011C163.067 16.0923 155.185 13.608 149.956 12.0238C138.247 8.47272 127.448 4.33633 122.866 3.73377C120.371 3.40039 116.743 2.83859 116.743 4.42523C115.504 1.28651 83.1325 -0.148258 81.8289 1.64459C81.2333 0.185123 78.6188 0.838302 75.9923 1.16921C74.4169 1.36801 49.0302 5.75752 35.9073 5.76986C23.6796 5.78221 17.802 3.29544 14.3467 2.17059C11.2007 1.14699 4.93165 0.0851089 0 0.982767V36.2902H200V17.8222Z" fill="white"/>
<path d="M105.239 31.4119L107.937 32.7652V30.1019L105.239 28.7437V31.4119Z" fill="#F40009"/>
<path d="M101.089 16.6184C98.8262 15.333 94.0033 12.7808 94.9952 11.3584C95.9206 10.0359 99.8882 11.2892 101.815 12.1474C103.478 12.8833 106.721 14.9403 106.16 15.9257C105.951 16.2936 105.391 16.2516 105.078 16.1171C104.966 14.7119 102.738 14.1094 102.19 14.8181C101.582 15.612 103.203 16.464 104.875 16.8406C105.96 17.0814 106.979 16.8653 107.31 16.1492C108.293 14.0328 104.709 11.8621 103.992 11.4559C103.299 11.0608 101.487 10.1693 101.175 9.06297C103.052 9.51859 105.705 10.0829 106.114 8.74441C106.605 7.13307 102.695 5.71558 101.032 5.22045C96.5948 3.89927 93.4113 4.45367 93.2385 5.31923C93.0247 6.37123 97.6313 8.09493 100.212 8.8259C100.276 9.08273 100.444 9.43463 100.637 9.67664C98.1327 8.83578 96.6008 8.78886 95.7454 8.78886C94.1458 8.79379 93.044 9.60749 92.9244 10.1199C92.4375 12.1523 94.9203 13.6414 96.5114 14.87C94.2063 14.4502 93.0392 14.8206 92.7686 15.7454C92.3421 17.2073 93.9054 18.4964 95.0024 19.3039C94.1217 19.2545 93.0501 19.4509 92.7565 20.0843C92.417 20.8153 92.9582 21.8302 93.3581 22.3574C94.5735 23.9614 97.5468 26.1975 100.431 27.8409V26.8359C96.7663 24.7244 95.5787 23.0625 95.7515 22.6451C95.8119 22.4982 96.103 22.3414 96.6455 22.5464C96.9814 22.6735 107.94 28.02 107.94 28.02V25.1171C107.739 25.0183 107.467 24.9603 107.332 24.8208C110.867 21.9006 103.352 17.9037 101.09 16.6208L101.089 16.6184ZM104.881 8.60735C104.701 9.28399 102.462 8.81849 101.122 8.47029C101.168 7.86527 101.691 7.39113 102.045 7.34668C103.659 7.15282 104.978 8.25174 104.881 8.60735ZM100.254 8.2184C97.9008 7.62696 95.534 6.62682 95.534 6.09712C95.534 5.87857 97.1565 5.43036 101.56 6.85772C100.862 7.12936 100.445 7.58375 100.255 8.2184H100.254ZM106.313 24.3195C106.313 24.3195 99.2696 21.0091 98.0216 20.3251C96.9391 19.7361 95.4216 18.7038 95.586 18.0099C95.7406 17.3604 97.3486 17.6321 99.1427 18.3532C100.567 18.9174 102.944 20.3004 104.966 21.7006C106.833 22.9909 107.152 24.1454 106.313 24.3195Z" fill="#F40009"/>
<path d="M109.069 5.20683C106.369 3.79922 102.512 2.74228 99.5099 2.3521C94.24 1.66065 89.0667 2.32494 88.0216 4.59069C87.4659 5.80938 91.1954 12.4325 85.0412 16.1034C88.7018 17.737 85.8506 24.2317 84.2559 26.2259C84.6014 26.0962 89.411 21.7092 90.2519 16.8492C91.3054 10.7533 88.285 7.22193 89.115 5.06977C89.7964 3.28927 93.288 2.88181 99.2586 3.53746C102.434 3.88812 106.55 4.98458 108.48 6.03534C110.001 6.87126 111.065 7.65656 110.883 8.23565C110.747 8.68757 110.302 8.64065 109.93 8.48631C109.623 7.49604 107.221 7.03919 107.049 7.65779C106.903 8.16527 108.212 8.79129 109.768 9.09256C110.545 9.24691 111.729 9.11232 112.038 8.51347C112.409 7.80967 111.178 6.30699 109.069 5.20806V5.20683Z" fill="#F40009"/>
<path d="M93.4124 36.2904H98.1605C96.5621 35.2372 94.1712 34.4432 91.0493 34.2173C91.9385 34.8853 92.7504 35.5125 93.4137 36.2904H93.4124Z" fill="#F40009"/>
<path d="M85.5269 30.9265C84.5906 32.7873 85.4399 34.6999 86.8063 36.2903H88.296C87.762 35.6013 87.4611 34.8703 87.6133 34.1492C87.9045 32.7564 89.6829 32.0304 91.1617 32.0749C95.6838 32.2131 100.292 34.3727 103.545 36.2903H108.838C103.68 31.6044 98.5434 29.5103 94.4261 28.4694C90.6832 27.5236 86.8184 28.362 85.5269 30.9265Z" fill="#F40009"/>
</g>
<defs>
<clipPath id="clip0_101_19747">
<rect width="200" height="36.2903" fill="white"/>
</clipPath>
</defs>
</svg>
