<svg width="43" height="40" viewBox="0 0 43 40" fill="none" xmlns="http://www.w3.org/2000/svg">
<g clip-path="url(#clip0_101_19452)">
<path d="M0.953369 29.1707C0.953369 29.1707 5.52229 25.5683 7.2576 22.1855" stroke="#F40009" stroke-linecap="round" stroke-linejoin="round"/>
<path d="M33.1116 20.2966L41.3269 28.9073M22.8975 29.4784C22.8975 29.4784 27.093 32.1143 33.5729 39.2313" stroke="#69C9CE" stroke-linecap="round" stroke-linejoin="round"/>
<path d="M30.3218 13.619C30.3218 13.619 33.4848 10.4339 32.716 7.38062C31.9472 4.32735 31.3102 4.19556 31.3102 4.19556M32.3426 16.5844C32.3426 16.5844 35.3739 12.916 33.1114 8.80841M10.2449 39.2532C10.2449 39.2532 16.2635 32.1582 17.8231 31.653C19.3827 31.1478 26.4338 28.3801 29.1576 25.1511C31.8813 21.9221 33.8802 20.0989 33.9901 17.8144C34.0999 15.53 33.5947 14.256 33.5947 14.256" stroke="#F40009" stroke-linecap="round" stroke-linejoin="round"/>
<path d="M17.2081 7.51235C17.2081 7.51235 15.5387 8.63262 12.9687 7.31466C10.3987 6.01867 10.9698 4.70071 12.3976 4.34925C13.8034 3.9978 13.5618 4.56891 15.1214 3.60241C16.6809 2.63591 17.4497 1.64744 18.9215 1.82317C20.3932 1.9989 22.5239 4.17353 22.5239 4.17353M12.8589 20.6041H16.5711C16.5711 20.6041 18.5041 20.8457 18.5041 18.7809C18.5041 17.3092 18.5041 16.4305 16.7908 16.4305M7.58703 14.168C7.58703 14.168 5.56617 13.9264 5.56617 16.5623C5.56617 19.1982 7.16968 18.4294 7.16968 18.4294M13.1005 11.1148C13.1005 11.1148 18.7897 12.3449 18.4602 14.7392C18.1307 17.1334 15.2312 16.4525 12.9687 15.9692C10.6842 15.464 5.71993 14.4756 5.69796 11.5321C5.676 8.58868 8.61943 9.84074 8.61943 9.84074M13.386 4.17353C13.386 4.17353 6.33497 2.72377 6.33497 6.91927C6.33497 11.1148 17.3399 12.1032 16.9885 10.3899C16.659 8.67655 17.0763 8.23723 15.1873 7.9297M9.27841 18.4294C9.27841 18.4294 4.81932 17.9901 4.99505 19.8353C5.19274 21.7024 5.96155 22.3394 9.27841 22.3394C12.5953 22.3394 12.8369 21.5266 12.8369 20.626C12.8369 19.7254 12.3756 18.4294 9.27841 18.4294V18.4294Z" stroke="#69C9CE" stroke-linecap="round" stroke-linejoin="round"/>
<path d="M26.8952 8.78635C26.8952 8.78635 33.1116 4.12956 29.5531 1.44972C25.9946 -1.20816 23.2709 4.32726 20.6789 5.55735C18.0649 6.78744 17.2083 7.51232 17.2083 7.51232" stroke="#F40009" stroke-linecap="round" stroke-linejoin="round"/>
</g>
<defs>
<clipPath id="clip0_101_19452">
<rect width="41.8891" height="40" fill="white" transform="translate(0.206543)"/>
</clipPath>
</defs>
</svg>
