<svg width="38" height="40" viewBox="0 0 38 40" fill="none" xmlns="http://www.w3.org/2000/svg">
<g clip-path="url(#clip0_101_19509)">
<path d="M36.3154 38.7537H5.45383V31.5691H36.3615V38.7537H36.3154ZM1.51537 33.2307H4.53075V36.1537H1.51537V33.2307ZM8.00768 19.8614L22.0692 10.9999V30.6307H8.00768V19.8614ZM9.96152 8.39989H11.7769L12.3308 16.0153L9.26921 17.9691L9.96152 8.39989ZM16.3615 5.84605H18.8692V11.923L16.3615 13.5076V5.84605ZM14.9769 2.36912H20.2692V4.92297H14.9769V2.36912ZM26.7154 24.8307H32.7L33.2538 30.6307H26.1461L26.7 24.8307H26.7154ZM28.3923 7.19989H31.0384L31.5923 12.9999H27.8384L28.3923 7.19989ZM27.7923 13.923H31.6846L32.1 18.4768H27.3154L27.7769 13.923H27.7923ZM27.2384 19.3537H32.2077L32.6231 23.9076H26.8231L27.2384 19.3537ZM36.7923 30.6307H34.1923L31.9154 6.72297C31.9154 6.4922 31.6846 6.30759 31.4538 6.30759H27.9769C27.7461 6.30759 27.5615 6.4922 27.5154 6.72297L25.2384 30.6307H23.0077V10.1691C23.0077 9.98451 22.9154 9.84605 22.7769 9.75374C22.6384 9.66143 22.4538 9.66143 22.3154 9.75374L19.8538 11.2768V5.84605H20.7769C21.0538 5.84605 21.2384 5.66143 21.2384 5.38451V1.90758C21.2384 1.63066 21.0538 1.44604 20.7769 1.44604H14.5154C14.2384 1.44604 14.0538 1.63066 14.0538 1.90758V5.38451C14.0538 5.66143 14.2384 5.84605 14.5154 5.84605H15.4384V14.1076L13.2077 15.5076L12.6538 7.93835C12.6538 7.70758 12.4231 7.52297 12.1923 7.52297H9.49998C9.26921 7.52297 9.03845 7.70758 9.03845 7.93835L8.25383 18.6153L7.2846 19.2153C7.14614 19.3076 7.05383 19.446 7.05383 19.5845V30.5845H4.96152C4.6846 30.5845 4.49998 30.7691 4.49998 31.0461V32.246H1.02306C0.746138 32.246 0.561523 32.4307 0.561523 32.7076V36.5537C0.561523 36.8307 0.746138 37.0153 1.02306 37.0153H4.49998V39.1537C4.49998 39.4307 4.6846 39.6153 4.96152 39.6153H36.7461C37.0231 39.6153 37.2077 39.4307 37.2077 39.1537V31.0768C37.2538 30.7999 37.0692 30.6153 36.7923 30.6153" fill="#6BC9CE"/>
<path d="M19.2845 20.9383H16.823V18.4768H19.2845V20.9383ZM19.7461 17.5537H16.3614C16.0845 17.5537 15.8999 17.7383 15.8999 18.0152V21.3999C15.8999 21.6768 16.0845 21.8614 16.3614 21.8614H19.7461C20.023 21.8614 20.2076 21.6768 20.2076 21.3999V18.0152C20.2076 17.7383 20.023 17.5537 19.7461 17.5537Z" fill="#6BC9CE"/>
<path d="M13.4847 26.9691H11.0232V24.5076H13.4847V26.9691ZM13.9463 23.5845H10.5616C10.2847 23.5845 10.1001 23.7691 10.1001 24.046V27.4306C10.1001 27.7075 10.2847 27.8922 10.5616 27.8922H13.9463C14.2232 27.8922 14.4078 27.7075 14.4078 27.4306V24.046C14.4078 23.7691 14.2232 23.5845 13.9463 23.5845Z" fill="#6BC9CE"/>
</g>
<defs>
<clipPath id="clip0_101_19509">
<rect width="36.9231" height="40" fill="white" transform="translate(0.407715)"/>
</clipPath>
</defs>
</svg>
