<svg width="110" height="40" viewBox="0 0 110 40" fill="none" xmlns="http://www.w3.org/2000/svg">
<path d="M51.641 16.6132C51.641 15.0109 50.3211 13.7065 48.6932 13.7065C47.0653 13.7065 45.7506 15.0058 45.7506 16.6132C45.7506 18.2206 47.0653 19.5147 48.6932 19.5147C50.3211 19.5147 51.641 18.2154 51.641 16.6132ZM104.207 5.37681C105.219 5.35627 106.842 5.77738 107.53 4.4627C107.53 4.4627 107.967 3.60508 107.319 2.69097C106.672 1.77172 106.113 1.06304 104.824 0C104.824 0 102.975 1.73578 102.148 2.19283L90.8141 2.15689L92.0723 5.38195C92.0723 5.38195 103.196 5.40249 104.207 5.38195M41.9658 39.4865C41.9658 39.4248 41.9401 39.4248 41.8887 39.4248C41.8374 39.4248 41.6114 39.4454 41.483 39.4556C41.4009 39.4556 40.8154 39.4556 40.2505 39.4556C40.2865 39.281 40.3533 38.9832 40.4303 38.7469C40.6871 38.7469 40.8925 38.7572 40.9284 38.7572C41.0414 38.7623 41.0825 38.7726 41.0825 38.6699C41.0825 38.5672 41.0825 37.7866 41.0825 37.7096C41.0825 37.6325 41.0825 37.5966 40.8822 37.5966C40.8822 37.5966 39.7575 37.6171 39.4237 37.612C39.0899 37.6069 38.1399 37.5966 37.9755 37.5863C37.8112 37.5761 37.7188 37.5709 37.6726 37.5709C37.6263 37.5709 37.5955 37.6069 37.5955 37.6736V38.5723C37.5955 38.6648 37.575 38.7469 37.6828 38.7469C37.7342 38.7469 38.0166 38.7418 38.335 38.7315C38.3607 38.8445 38.4326 39.1424 38.4583 39.4505H37.6777C37.4055 39.4505 36.969 39.4197 36.969 39.4197C36.9176 39.4094 36.8149 39.3991 36.7687 39.394C36.7225 39.394 36.666 39.394 36.666 39.4402V39.6816C36.666 39.7432 36.6763 39.7689 36.7687 39.7689C36.8611 39.7689 37.0255 39.7535 37.2155 39.7484C37.4055 39.7484 38.7253 39.7227 39.28 39.7227C39.8346 39.7227 40.6665 39.7381 40.9952 39.7432C41.329 39.7432 41.6885 39.774 41.8323 39.7792C41.976 39.7792 41.9555 39.7227 41.9555 39.6867V39.471L41.9658 39.4865ZM38.1296 38.4337C38.0371 38.4337 37.9704 38.4131 37.9704 38.3207V37.992C37.9704 37.9355 38.0166 37.8842 38.0988 37.8842H39.4289C39.5829 37.8842 40.5433 37.8996 40.5998 37.8996C40.6563 37.8996 40.6871 37.9201 40.6871 37.9818C40.6871 37.9818 40.6871 38.2539 40.6871 38.3156C40.6871 38.3772 40.6614 38.4388 40.5895 38.4388C40.5176 38.4388 39.6086 38.4388 39.3929 38.4388H38.1347L38.1296 38.4337ZM39.8551 39.4556C39.6754 39.4556 39.5059 39.4556 39.3826 39.4556H38.8537C38.8178 39.281 38.7664 38.9935 38.7202 38.7315C38.9256 38.7315 39.1105 38.7264 39.2234 38.7264C39.3775 38.7264 39.6856 38.7315 39.9989 38.7367C39.9784 38.8651 39.9219 39.2194 39.85 39.4556M39.3929 37.1241C39.7319 37.1241 40.3327 37.1447 40.4714 37.155C40.61 37.1704 40.7179 37.2063 40.7179 37.0728V36.8366C40.7179 36.7852 40.6768 36.7493 40.5998 36.7595C40.5279 36.7698 40.4714 36.7903 40.307 36.7903C40.307 36.7903 39.6086 36.8006 39.3775 36.8006C39.1464 36.8006 38.4275 36.7903 38.3093 36.7801C38.1912 36.7698 38.1193 36.7544 38.0731 36.7441C38.0269 36.739 38.0218 36.7852 38.0218 36.8263V37.0574C38.0218 37.0985 38.0217 37.1601 38.1655 37.1498C38.3093 37.1395 39.054 37.1241 39.3929 37.1241ZM41.18 36.6003C41.1236 36.5695 41.0671 36.5387 41.0157 36.5079C41.1133 36.4206 41.2828 36.2717 41.3906 36.1792C41.5498 36.0457 41.6063 35.9738 41.6474 35.9533C41.6885 35.9327 41.7912 35.9019 41.7963 35.8454C41.8117 35.7838 41.745 35.7427 41.6782 35.7016C41.6166 35.6554 41.5498 35.6143 41.5139 35.5886C41.4779 35.563 41.4471 35.5681 41.4266 35.5989C41.406 35.6349 41.3752 35.6914 41.329 35.7478C41.329 35.7478 41.0671 36.0354 40.9695 36.1176C40.8976 36.1792 40.7846 36.2665 40.7076 36.323C40.5535 36.2152 40.4097 36.1022 40.2813 35.9789C40.3327 35.9173 40.4868 35.7376 40.6357 35.5938C40.8154 35.4192 40.8719 35.373 40.9284 35.3421C40.9849 35.3113 41.0003 35.2754 40.9387 35.224C40.8822 35.1727 40.723 35.0854 40.6716 35.0546C40.6254 35.0237 40.5895 35.0392 40.5689 35.0905C40.5689 35.0905 40.3532 35.4757 40.04 35.7016C39.8089 35.4038 39.737 35.2086 39.737 35.2086C39.7318 35.1675 39.6908 35.1624 39.5983 35.1829C39.511 35.2035 39.4494 35.2343 39.3878 35.3011C39.3724 35.3216 39.3621 35.3421 39.3672 35.3576C39.3262 35.2959 39.2697 35.2908 39.2029 35.2446C39.131 35.1932 39.1053 35.1213 38.9821 35.1624C38.8537 35.1983 38.7921 35.2086 38.6637 35.2138C38.6637 35.2138 37.6161 35.2035 37.4517 35.1984C37.2874 35.1984 37.0614 35.1727 36.9793 35.1624C36.8971 35.1624 36.8611 35.1881 36.8611 35.2343V35.4397C36.8611 35.4757 36.8611 35.5373 36.9895 35.5373C36.9895 35.5373 37.1949 35.5219 37.3593 35.5167C37.5287 35.5167 38.5199 35.5013 38.6329 35.5013C38.7459 35.5013 38.8588 35.5116 38.8024 35.6041C38.751 35.6965 38.6791 35.8557 38.2991 36.1638C38.2426 36.21 38.181 36.2511 38.1245 36.2973C38.032 36.2203 37.6931 35.9327 37.6571 35.9019C37.6161 35.8711 37.6058 35.8762 37.5647 35.8968C37.5236 35.9224 37.3695 36.0303 37.3387 36.0508C37.3079 36.0714 37.3233 36.0919 37.3644 36.1227C37.4004 36.1535 37.688 36.3795 37.8061 36.513C37.6315 36.6209 37.4723 36.6979 37.3542 36.7544C37.1282 36.852 36.7687 36.9752 36.5222 37.0214C36.5222 37.0214 36.4349 37.0317 36.4811 37.0882C36.5325 37.1395 36.6609 37.2525 36.6865 37.2782C36.7122 37.309 36.7225 37.3347 36.8047 37.309C36.8817 37.2833 37.236 37.1858 37.6366 36.9598C38.0372 36.7338 38.3299 36.6055 38.7202 36.2203C39.1105 35.8351 39.2594 35.563 39.2594 35.563C39.2594 35.563 39.2799 35.5424 39.3056 35.5167C39.3262 35.4962 39.3929 35.4603 39.3775 35.3986C39.3929 35.4192 39.4186 35.4346 39.4237 35.4448C39.4494 35.4654 39.47 35.5013 39.47 35.5013C39.8859 36.1895 40.4508 36.6003 40.8103 36.852C41.1698 37.1036 41.6063 37.2371 41.7244 37.2782C41.8425 37.3244 41.8733 37.2525 41.9093 37.2012C41.9504 37.1498 42.0582 37.0317 42.1147 36.9701C42.1712 36.9136 42.1506 36.9033 42.0787 36.8879C42.0068 36.8725 41.5858 36.8366 41.1647 36.6055M71.7617 35.111C71.7257 35.111 71.7051 35.1419 71.7051 35.1829V35.3781C71.7051 35.4295 71.7565 35.4654 71.8335 35.4603C71.9106 35.4603 72.4703 35.4243 72.7682 35.4243H72.8144V35.8505H72.0441C71.9465 35.8505 71.8798 35.8403 71.8798 35.9481V36.8879C71.8798 36.9855 71.8849 37.0009 71.9927 37.0009H74.9405C75.0021 37.0009 75.0791 37.0009 75.0791 36.8622V35.9276C75.0791 35.8557 75.0227 35.8505 74.961 35.8505H74.1548V35.4243H74.7094C74.8481 35.4243 75.0535 35.4397 75.1305 35.4397C75.2075 35.4397 75.2332 35.45 75.2332 35.373V35.1932C75.2332 35.147 75.2281 35.0751 75.1408 35.0905C75.0432 35.1059 74.9867 35.1213 74.8429 35.1213C74.8429 35.1213 73.9082 35.1213 73.4769 35.1213C73.0455 35.1213 72.003 35.1111 71.9157 35.1059C71.8233 35.1008 71.7976 35.0956 71.7668 35.0956M72.8144 36.6825H72.3214C72.229 36.6825 72.2341 36.6363 72.2341 36.5746V36.2306C72.2341 36.1843 72.2803 36.1535 72.3265 36.1535H72.8144V36.6825ZM74.1548 36.1535H74.6221C74.6889 36.1535 74.7299 36.1792 74.7299 36.2306V36.5849C74.7299 36.6363 74.6991 36.6825 74.6323 36.6825H74.1548V36.1535ZM73.1431 35.4192H73.7747V35.8454H73.1431V35.4192ZM73.1431 36.1535H73.7747V36.6825H73.1431V36.1535ZM39.3775 29.3645C39.7575 28.4658 39.9167 27.4233 39.9167 26.4732L40.0451 9.53139C40.0451 9.53139 41.139 8.66351 41.5395 7.74426C41.7141 7.34883 41.709 6.93286 41.5036 6.58879C41.2725 6.19336 41.1082 6.0701 40.836 5.95198C40.5587 5.82873 40.3892 5.81332 40.1119 5.69521C39.4135 5.39222 38.5559 4.91462 37.8318 3.99538C37.8318 3.99538 36.3322 5.96225 36.0908 6.32173H32.2803C32.3882 5.27924 32.4652 4.51406 32.4652 4.51406C32.4652 4.51406 33.6515 3.89781 33.2766 2.86559C33.1534 2.52151 32.9377 2.275 32.6039 2.13121C32.229 1.96687 31.5203 1.86416 31.0992 1.77686C30.6575 1.68956 30.7705 1.71524 27.1911 1.01682L27.5609 3.06072C27.5609 3.06072 27.4479 4.49351 27.2887 6.32173H22.8414L24.0277 10.0963L26.9549 10.086C26.847 11.2929 26.7494 12.3764 26.6724 13.0851C26.4002 15.622 25.7378 21.0399 24.9983 24.342C24.2588 27.6441 24.0123 29.5134 22.2405 33.8734C22.2405 33.8734 24.6028 32.8874 26.3797 29.7086C28.1566 26.5349 30.0259 21.7794 30.6678 18.2308C31.2173 15.1958 31.6384 12.1967 31.8849 10.0655L35.2332 10.0552C35.2332 10.0552 35.1665 23.8285 35.1665 24.948C35.1665 26.0675 35.3821 28.096 33.0301 28.096L30.1594 28.1166C30.1594 28.1166 31.8233 28.6815 32.1673 29.9294C32.5114 31.1824 32.4498 32.2403 34.2164 32.8001C35.1305 33.0877 36.8765 32.6152 38.0372 31.3776C38.6637 30.71 39.0489 30.1399 39.3775 29.3696M49.556 39.2194C49.556 39.2194 49.3865 39.2759 49.1143 39.317C49.0321 39.3324 48.95 39.3427 48.8575 39.3581V37.7866C49.14 37.7866 49.4173 37.7866 49.4687 37.7866C49.5714 37.7866 49.7049 37.8072 49.7049 37.7096V37.5196C49.7049 37.4785 49.6792 37.4682 49.6279 37.4734C49.5816 37.4734 49.5046 37.4888 49.3403 37.4888H48.8524V36.9547H48.95C49.0732 36.9547 49.3762 36.9752 49.443 36.9752C49.5098 36.9752 49.5149 36.929 49.5149 36.893V36.6876C49.5149 36.6311 49.4584 36.6363 49.3762 36.6363C49.2941 36.6363 48.8832 36.6568 48.6316 36.6568C48.3799 36.6568 48.0667 36.6466 48.0667 36.6466C47.9743 36.6466 47.964 36.626 47.9126 36.626C47.8664 36.626 47.8305 36.6465 47.8305 36.6825V36.8982C47.8305 36.9547 47.851 36.9649 47.8715 36.9649C47.8972 36.9649 47.9588 36.9649 48.0975 36.9598C48.1643 36.9598 48.3235 36.9598 48.4929 36.9598V37.499C48.1951 37.499 47.661 37.5093 47.5788 37.5042C47.4761 37.5042 47.3785 37.4734 47.3734 37.535C47.3734 37.5915 47.3734 37.7147 47.3734 37.7507C47.3734 37.7866 47.3785 37.8226 47.4556 37.8226C47.5326 37.8226 48.0307 37.7917 48.2208 37.7917C48.2721 37.7917 48.3697 37.7917 48.4878 37.7917V39.4146C48.4365 39.4197 48.38 39.43 48.3235 39.4351C47.661 39.5224 47.5891 39.507 47.5018 39.507C47.4145 39.507 47.3118 39.4916 47.3477 39.5943C47.3837 39.697 47.4402 39.7946 47.4607 39.8511C47.4813 39.9024 47.5121 39.923 47.6045 39.8819C47.6969 39.8408 47.8972 39.7894 48.041 39.7638C48.1848 39.7432 48.8473 39.6611 49.0219 39.6302C49.1913 39.5994 49.4687 39.5583 49.5149 39.5481C49.5662 39.5378 49.6022 39.5275 49.6125 39.4505C49.6279 39.3683 49.6176 39.3529 49.6227 39.3118C49.6279 39.2502 49.6381 39.1937 49.5457 39.2297M74.7299 37.3706C74.5861 37.3758 73.7131 37.4117 73.3793 37.4066C73.0455 37.4066 72.1828 37.386 72.1828 37.386C72.0441 37.3706 72.0544 37.4169 72.0544 37.4631V37.6531C72.0544 37.7199 72.1263 37.7147 72.2084 37.7147C72.2906 37.7147 73.256 37.7147 73.4358 37.7147C73.6155 37.7147 74.1907 37.7147 74.3345 37.7147C74.4783 37.7147 74.6734 37.725 74.771 37.725C74.8737 37.725 74.884 37.6993 74.884 37.648V37.4374C74.884 37.3809 74.8737 37.3706 74.7299 37.3758M19.1541 3.08127C18.3017 2.56772 17.177 2.17229 15.7288 0.446781C15.7288 0.446781 15.3077 1.08872 14.8403 1.63821C14.373 2.18257 13.8492 2.62935 12.247 2.62935C9.0373 2.62935 0.517578 2.64989 0.517578 2.64989L1.60629 6.03929L12.8786 5.95712V28.1833H1.14926L2.35608 31.8038H12.8118C12.8118 31.8038 13.9827 34.0429 16.5196 32.836C16.5196 32.836 17.3567 32.4303 17.7059 31.3108C17.8035 30.9924 17.824 30.6227 17.824 30.181C17.824 30.181 17.7419 8.88432 17.7419 8.29374C17.7419 7.90858 17.7059 7.13314 17.9421 6.47067C18.0654 6.11118 18.3016 5.84928 18.5944 5.5617C19.0668 5.0841 19.5239 4.7657 19.642 4.29324C19.755 3.84646 19.5598 3.3329 19.149 3.08127M87.8459 15.8634C87.5942 15.622 87.1012 15.2163 86.6185 14.8774C86.2179 14.6001 85.8636 14.3793 85.6222 14.2406C85.1806 13.989 84.857 14.0557 84.4308 14.4049C84.0045 14.7541 82.8593 15.4474 82.4742 15.6426C82.4742 15.6426 77.7444 15.6066 75.3616 15.3858L76.4349 18.7495C76.4349 18.7495 86.1871 18.5287 86.9831 18.5082C87.7791 18.4876 88.2567 18.2873 88.534 17.5478C88.8113 16.8083 88.3132 16.3102 87.851 15.8685M71.3867 37.6171C71.4278 37.6685 71.474 37.6839 71.5151 37.6428C71.5562 37.6017 71.6333 37.5401 71.6898 37.4888C71.7411 37.4374 71.7308 37.3963 71.6846 37.345C71.6384 37.2936 71.5511 37.2063 71.2892 36.8417C71.1762 36.6774 71.094 36.5284 71.0427 36.4103V36.3487C71.2327 36.3538 71.4381 36.359 71.51 36.3692C71.6076 36.3692 71.6025 36.3127 71.6025 36.2717V36.056C71.6025 35.9995 71.5768 36.0046 71.4997 36.0046C71.4381 36.0046 71.2532 36.0149 71.0427 36.0252C71.0427 35.9379 71.0427 35.8762 71.0427 35.8454C71.0375 35.6349 71.0581 35.2651 71.0889 35.1675C71.1146 35.07 71.1659 34.957 71.0684 34.9467C71.0684 34.9467 70.863 34.921 70.7346 34.921C70.6319 34.921 70.6627 34.9981 70.6729 35.0494C70.6883 35.111 70.7089 35.1727 70.7089 35.2548C70.7089 35.2959 70.7089 35.6554 70.7089 36.0354C70.3905 36.0354 69.9232 36.0097 69.9232 36.0097C69.8513 36.0046 69.7845 36.02 69.7845 36.0919V36.3281C69.7845 36.4052 69.9232 36.3795 69.9232 36.3795C70.0978 36.3692 70.4367 36.3538 70.678 36.3538C70.6472 36.4463 70.5343 36.7749 70.2929 37.2217C70.0053 37.7507 69.8102 37.9818 69.7229 38.0793C69.6356 38.1718 69.6818 38.1718 69.7075 38.2026C69.728 38.2334 69.8307 38.3207 69.8769 38.3515C69.918 38.3875 69.9745 38.4029 70.0259 38.3104C70.0721 38.2334 70.4521 37.6942 70.714 37.1858C70.7037 37.689 70.6883 38.711 70.678 38.9216C70.6678 39.1989 70.6575 39.5378 70.6524 39.6148C70.6472 39.6919 70.678 39.7329 70.7397 39.7329H70.9502C70.9862 39.7329 71.0735 39.7484 71.0735 39.6097C71.0735 39.471 71.0478 38.2745 71.0427 37.9869C71.0427 37.8688 71.0427 37.535 71.0427 37.1652C71.1608 37.386 71.3559 37.5863 71.3867 37.6274M72.5628 38.6442C72.5114 38.6134 72.4909 38.634 72.4446 38.6904C72.3933 38.7418 72.2547 38.8445 72.116 38.9626C71.9773 39.0807 71.5665 39.2862 71.51 39.317C71.4535 39.3478 71.4741 39.3735 71.4946 39.394C71.5151 39.4145 71.6127 39.5019 71.6641 39.5429C71.7154 39.5789 71.7514 39.5943 71.8335 39.5429C71.9208 39.4967 72.4601 39.1372 72.5576 39.0705C72.6552 38.9986 72.7528 38.9061 72.799 38.8856C72.8452 38.8651 72.8298 38.8291 72.7887 38.7983C72.7477 38.7726 72.5628 38.6494 72.5628 38.6494M63.6425 35.6195C63.5809 35.6297 63.4884 35.6657 63.2933 35.6708C63.2933 35.6708 62.6205 35.6811 62.3021 35.6862C62.0916 35.6862 61.6448 35.6965 61.2597 35.6965C61.2597 35.6041 61.2597 35.4808 61.2597 35.45C61.2597 35.3935 61.2751 35.2959 61.3161 35.2394C61.3624 35.1829 61.3418 35.1419 61.2699 35.1316C61.2032 35.1213 60.9258 35.0905 60.8283 35.0905C60.7307 35.0905 60.7821 35.1983 60.8026 35.2702C60.818 35.3216 60.818 35.5732 60.818 35.7016H60.7461C60.3764 35.7016 58.8819 35.6913 58.7536 35.6862C58.6303 35.6811 58.5327 35.6708 58.466 35.6657C58.3992 35.6605 58.3581 35.6811 58.3581 35.7324V35.9584C58.3581 36.0097 58.3581 36.056 58.466 36.0508C58.5738 36.0457 58.8408 36.0252 59.0565 36.0252C59.2722 36.0252 60.8283 35.9995 61.4034 35.9995C61.9786 35.9995 63.206 36.0098 63.3344 36.0149C63.4628 36.02 63.6014 36.0252 63.663 36.0252C63.7247 36.0252 63.7452 36.0098 63.7452 35.9533V35.6914C63.7452 35.6246 63.7092 35.5989 63.6476 35.6143M70.9759 31.3622C71.1505 30.8846 71.1248 30.3043 71.1248 29.4775C71.1248 29.4775 70.9964 7.47208 70.9964 6.93799C70.9964 6.40391 71.0324 5.72089 71.4946 5.35114C71.9568 4.98139 72.5114 4.59109 72.7322 4.20593C72.9531 3.81564 73.066 2.93234 72.3625 2.47015C72.1263 2.31608 71.7052 2.15689 71.3097 1.97201C70.5291 1.60739 69.6099 1.13493 68.7471 0.364612C68.7471 0.364612 67.6379 1.6228 67.0832 1.97201C66.5286 2.32122 66.7648 2.4342 65.3834 2.4342C64.002 2.4342 54.0444 2.3315 54.0444 2.3315L55.1331 5.75683L65.9894 5.82359L66.0356 27.8957L54.7171 27.829L55.6363 31.4032L65.7994 31.4495C65.7994 31.4495 67.0216 34.1096 69.6612 32.8463C69.6612 32.8463 70.5548 32.5536 70.9862 31.3622M73.6207 38.4131C74.1496 38.4131 74.694 38.4131 74.807 38.4234C74.9456 38.4234 75.1562 38.4388 75.2281 38.4388C75.3 38.4388 75.3308 38.4542 75.3308 38.3669V38.182C75.3308 38.1307 75.3 38.0639 75.2178 38.0742C75.1048 38.0896 75.0689 38.0947 74.9199 38.0947C74.9199 38.0947 73.6566 38.1204 73.2304 38.1204C72.8041 38.1204 71.7565 38.0947 71.6692 38.0896C71.5819 38.0845 71.5511 38.0793 71.5203 38.0793C71.4895 38.0793 71.4638 38.1101 71.4638 38.1512V38.3618C71.4638 38.4131 71.5151 38.4491 71.587 38.444C71.6692 38.4388 72.2238 38.408 72.5217 38.408C72.6244 38.408 72.912 38.408 73.2407 38.408C73.2407 38.5364 73.2407 38.9883 73.2407 39.1526C73.2407 39.1526 73.2252 39.6354 73.2201 39.6867C73.2201 39.7381 73.2098 39.81 73.2869 39.81H73.5642C73.6155 39.81 73.6618 39.7997 73.6464 39.6559C73.6361 39.4916 73.6207 39.1013 73.6207 38.9472V38.408V38.4131ZM47.9178 39.0859C47.9589 39.0808 48.0975 39.0551 48.1335 39.0397C48.1694 39.0243 48.2053 39.0397 48.1899 38.937C48.1694 38.8342 47.9845 38.3104 47.9845 38.3104C47.964 38.2642 47.9383 38.2539 47.8921 38.2591C47.8407 38.2642 47.7226 38.2899 47.6661 38.3053C47.6096 38.3207 47.6148 38.3361 47.6507 38.4286C47.6918 38.521 47.8048 38.9318 47.8253 39.014C47.8459 39.0962 47.8869 39.0961 47.9229 39.091M74.8018 38.9626C74.658 38.8496 74.504 38.7264 74.4526 38.6802C74.4013 38.6288 74.3807 38.6494 74.355 38.6648C74.355 38.6648 74.201 38.788 74.1753 38.8137C74.1496 38.8343 74.1239 38.8805 74.1856 38.9318C74.2421 38.9832 74.5348 39.1989 74.7043 39.3118C74.8737 39.4197 74.9713 39.4813 75.0021 39.5019C75.0329 39.5224 75.0792 39.5583 75.1665 39.4762C75.2538 39.394 75.3205 39.3375 75.3513 39.3067C75.377 39.2759 75.3565 39.2605 75.3102 39.2348C75.264 39.2143 74.9456 39.0756 74.8018 38.9626ZM109.127 8.44267C108.146 7.60046 106.811 6.76852 106.169 5.88009C106.169 5.88009 104.397 7.40531 103.607 7.82642C102.821 8.24239 103.037 8.3451 101.342 8.29374C99.642 8.24239 90.3314 7.99589 89.7922 7.92399L91.148 11.2723L102.256 11.4469C102.256 11.4469 100.864 16.4591 99.0206 20.1515C98.4711 21.2556 97.8138 22.5292 97.0845 23.736C95.3796 26.5708 93.0994 29.5391 89.5251 32.6768C89.5251 32.6768 93.7362 31.7936 98.466 27.6544C103.196 23.5152 105.743 16.5361 106.298 14.0198C106.298 14.0198 106.616 12.6537 106.765 12.3816C106.914 12.1094 107.135 11.6934 108.367 11.1028C108.937 10.8255 109.461 10.6458 109.672 10.2144C109.908 9.72141 109.815 9.03325 109.127 8.44267ZM49.8436 36.1227C49.7819 36.0919 49.6484 36.0046 49.6484 36.0046C49.4635 35.8968 49.2324 35.6965 49.1143 35.5886C49.0373 35.5167 48.9911 35.45 48.9654 35.414C48.9911 35.3832 49.0065 35.3678 49.0065 35.3678C49.0424 35.3421 49.0784 35.2959 49.0322 35.2754C48.9859 35.2548 48.8062 35.1675 48.7138 35.1419C48.6213 35.1162 48.6162 35.1778 48.5905 35.2446C48.5648 35.3113 48.3543 35.6297 48.0667 35.9379C47.7842 36.2408 47.3477 36.4976 47.245 36.5541C47.1474 36.6106 47.1937 36.6363 47.2193 36.662C47.2501 36.6928 47.3221 36.7338 47.3683 36.7647C47.4145 36.7955 47.4402 36.8006 47.4967 36.7698C47.5532 36.7441 47.8561 36.549 47.9897 36.4411C48.118 36.3384 48.3286 36.1381 48.457 35.9995C48.5083 35.943 48.6213 35.8146 48.7292 35.6862C48.7959 35.7581 48.9243 35.8814 49.0219 35.9687C49.14 36.0765 49.4173 36.2819 49.5149 36.3384C49.6125 36.3898 49.6484 36.359 49.6741 36.3281C49.71 36.3025 49.7973 36.2203 49.823 36.1998C49.8487 36.1792 49.9052 36.1484 49.8487 36.1176M52.6424 39.0088C52.4061 38.8445 52.1699 38.634 51.908 38.3566C51.718 38.1512 51.6358 37.9407 51.605 37.8431C51.5999 37.6736 51.5947 37.5452 51.5947 37.5196C51.5947 37.4425 51.5999 37.3244 51.605 37.2474C52.0107 37.2525 52.6732 37.2679 52.8735 37.2731C52.8735 37.2731 52.9967 37.309 52.9967 37.2114V37.0112C52.9967 36.9444 52.9454 36.9393 52.8683 36.9393C52.8683 36.9393 52.6064 36.9495 52.2932 36.9598C52.2932 36.7801 52.2829 36.246 52.2829 36.1022C52.2829 35.9276 52.2829 35.4243 52.2829 35.3627C52.2829 35.3011 52.2521 35.2754 52.1853 35.2754C52.1186 35.2754 51.4972 35.2856 51.302 35.2856C51.1069 35.2856 50.6293 35.2857 50.542 35.2754C50.4598 35.2702 50.4033 35.2651 50.3622 35.26C50.3211 35.26 50.3057 35.2908 50.3057 35.3165V35.5322C50.3057 35.5732 50.3212 35.6143 50.3879 35.6143C50.4547 35.6143 51.0093 35.6041 51.148 35.5989C51.2866 35.5989 51.7694 35.5989 51.8258 35.5989C51.8823 35.5989 51.9029 35.6195 51.9029 35.6759V36.0765C51.7488 36.0816 51.2455 36.1022 51.1171 36.1022C50.9682 36.1022 50.4752 36.0765 50.4033 36.0765C50.3366 36.0765 50.3263 36.1022 50.3263 36.1381V36.3538C50.3263 36.3898 50.3366 36.4206 50.4136 36.4155C50.4855 36.4155 50.8604 36.3846 51.0555 36.3846C51.225 36.3846 51.6615 36.3744 51.9029 36.3744V36.9752C51.7899 36.9752 51.682 36.9752 51.5845 36.9752C51.1325 36.9752 50.2852 36.9649 50.1312 36.9649C49.9771 36.9649 49.9411 36.9547 49.9001 36.9547C49.8538 36.9547 49.8384 36.9804 49.8384 37.0163V37.2114C49.8384 37.2474 49.8538 37.2885 49.9411 37.2782C50.013 37.2731 50.7885 37.2525 51.2455 37.2474C51.2507 37.4169 51.2661 37.9972 51.2815 38.3926C51.189 38.444 50.9015 38.6031 50.7371 38.6699C50.542 38.7469 50.3263 38.8445 50.2133 38.8651C50.1003 38.8856 50.049 38.8959 50.013 38.9061C49.9822 38.9061 49.9771 38.9318 49.9976 38.9729C50.0182 39.0089 50.1157 39.1732 50.1465 39.2245C50.1825 39.2759 50.2184 39.3016 50.2801 39.2502C50.3417 39.1937 50.4495 39.127 50.5522 39.0705C50.6447 39.0191 51.0709 38.8137 51.2917 38.7161V38.7469C51.2917 38.9935 51.302 39.3016 51.302 39.3991C51.302 39.4967 51.3123 39.6611 51.0607 39.6559C50.8142 39.6559 50.7474 39.6456 50.6858 39.6405C50.6293 39.6405 50.5831 39.6405 50.6139 39.7073C50.6396 39.7689 50.6909 39.8408 50.7114 39.9127C50.732 39.9846 50.809 40 50.8655 40C50.922 40 51.1942 39.9897 51.2866 39.9743C51.3791 39.9589 51.6718 39.923 51.6564 39.4916C51.6564 39.2964 51.6358 38.9061 51.6256 38.521C51.7437 38.6802 51.908 38.8702 52.0723 39.0448C52.2983 39.281 52.5294 39.4351 52.6424 39.4967C52.7553 39.5583 52.7759 39.5173 52.8273 39.471C52.8786 39.4197 52.9659 39.3529 53.0327 39.3016C53.0994 39.2502 53.0943 39.2348 53.0327 39.2091C52.9762 39.1835 52.8683 39.1834 52.6321 39.0243M49.6792 38.2129C49.633 38.1975 49.4892 38.1666 49.4276 38.1512C49.3659 38.141 49.3197 38.141 49.3146 38.1718C49.3043 38.2231 49.2992 38.2642 49.2787 38.3361C49.2787 38.3361 49.2273 38.5107 49.2016 38.6083C49.1657 38.7161 49.1195 38.8034 49.0989 38.8599C49.0732 38.9164 49.0527 38.9626 49.1143 38.9832C49.1759 39.0037 49.2376 39.0294 49.2684 39.0397C49.294 39.0499 49.3711 39.0962 49.4173 38.9729C49.4635 38.8548 49.6279 38.5004 49.6535 38.4388C49.6741 38.3772 49.7408 38.3156 49.7511 38.2847C49.7562 38.2539 49.7255 38.2385 49.6792 38.218M50.696 38.2796C50.696 38.2796 50.7936 38.1769 50.8347 38.1358C50.8758 38.0947 50.8809 38.0639 50.8039 37.992C50.7269 37.9201 50.3725 37.648 50.3725 37.648C50.3468 37.6274 50.3109 37.612 50.2749 37.648C50.239 37.6788 50.1671 37.7455 50.1363 37.7763C50.1106 37.8072 50.1003 37.8277 50.1517 37.8739C50.203 37.9253 50.5009 38.2129 50.5779 38.2796C50.655 38.3464 50.696 38.2796 50.696 38.2796ZM63.3498 36.8776C63.3498 36.8776 62.5743 36.8776 61.917 36.8828C61.994 36.7698 62.1121 36.6003 62.1429 36.549C62.184 36.4822 62.2662 36.3538 62.3124 36.3281C62.3586 36.3025 62.3638 36.246 62.3124 36.2203C62.2611 36.1946 62.0556 36.1176 61.994 36.0971C61.9375 36.0765 61.8554 36.056 61.8297 36.0971C61.804 36.133 61.8092 36.1895 61.804 36.2357C61.7937 36.2871 61.7218 36.4771 61.7218 36.4771C61.6345 36.6722 61.5472 36.8109 61.4908 36.8879C61.2699 36.8879 61.1005 36.8879 61.0286 36.8879C60.9053 36.8879 60.5407 36.8879 60.1607 36.893C60.2428 36.8622 60.438 36.7852 60.4688 36.7647C60.5201 36.739 60.5047 36.6825 60.4791 36.6311C60.4534 36.5849 60.1299 36.0919 60.1299 36.0919C60.1093 36.0611 60.0836 36.0508 60.0374 36.0714C59.9912 36.0919 59.8628 36.1484 59.8063 36.1792C59.755 36.2049 59.7652 36.2306 59.7806 36.2563C59.8012 36.2819 59.796 36.2871 59.9039 36.4463C60.0015 36.5849 60.0888 36.8263 60.1145 36.8879C59.6215 36.8879 59.113 36.893 59.0514 36.893H58.7381C58.7022 36.893 58.6355 36.893 58.6355 36.9701C58.6355 37.0471 58.6457 38.2847 58.6457 38.5775C58.6457 38.8702 58.6149 39.6611 58.6046 39.774C58.5995 39.887 58.5687 39.9743 58.6457 39.9743H58.9487C59.0052 39.9743 59.0514 39.9743 59.0411 39.81C59.0309 39.6508 59.036 38.901 59.036 38.5056V37.3296C59.036 37.2731 59.0309 37.196 59.1592 37.196C59.2363 37.196 59.7396 37.1909 60.2069 37.1858C60.2172 37.2166 60.2223 37.2679 60.2171 37.309C60.2069 37.3604 60.1401 37.4682 59.9193 37.6736C59.7088 37.8739 59.3801 38.0434 59.3082 38.0845C59.2363 38.1307 59.2671 38.1358 59.3184 38.1718C59.3647 38.2077 59.452 38.2745 59.4931 38.3053C59.5341 38.3361 59.5804 38.3258 59.6163 38.3053C59.6574 38.2847 59.7601 38.2231 59.9193 38.105C60.0888 37.992 60.3918 37.6634 60.4482 37.612C60.5099 37.5606 60.592 37.4631 60.6331 37.4477C60.6742 37.4323 60.7101 37.3912 60.6639 37.3347C60.6228 37.2936 60.551 37.2269 60.4893 37.1858C60.6999 37.1858 60.8848 37.1858 60.9721 37.1858H61.2545C61.2545 37.2525 61.2648 37.4117 61.2648 37.5144C61.2648 37.6479 61.2648 37.8123 61.3675 37.9047C61.4651 37.9972 61.537 38.0126 61.7732 38.0228C62.0146 38.0331 62.2303 38.0434 62.4562 37.9869C62.6822 37.9304 62.8054 37.8945 62.8876 37.6377C62.8876 37.6377 62.903 37.6069 62.9081 37.5761C62.9081 37.5453 62.8927 37.535 62.8671 37.5144C62.8362 37.4939 62.6514 37.3809 62.6103 37.3552C62.5692 37.3296 62.523 37.3552 62.5024 37.4015C62.4819 37.4528 62.4716 37.5196 62.4203 37.5863C62.3741 37.6582 62.3124 37.7301 62.0916 37.7353C61.8708 37.7455 61.6602 37.7507 61.6602 37.5658C61.6602 37.422 61.6654 37.2577 61.6705 37.1858H62.9287C63.0211 37.1858 63.0725 37.2063 63.0725 37.2833C63.0725 37.3604 63.0879 38.4902 63.0879 38.6494C63.0879 38.8086 63.0879 39.3118 63.0879 39.3786C63.0879 39.4505 63.093 39.5943 62.8619 39.5994C62.6257 39.5994 62.5486 39.5994 62.5024 39.5994C62.4562 39.5994 62.3997 39.584 62.4511 39.6662C62.5024 39.7432 62.5846 39.887 62.6 39.9384C62.6154 39.9897 62.6565 39.9897 62.6822 39.9897C62.7079 39.9897 62.9543 39.9897 63.1392 39.9281C63.3292 39.8665 63.4936 39.8151 63.4936 39.3375C63.4936 38.8599 63.4782 37.0882 63.4782 36.9906C63.4782 36.893 63.4782 36.8725 63.36 36.8725M62.1635 38.3669C62.1635 38.2745 62.0967 38.2745 61.994 38.2796C61.8862 38.2796 60.0323 38.3002 60.0323 38.3002C59.9347 38.3002 59.9347 38.3926 59.9347 38.4696C59.9347 38.5415 59.9347 38.9472 59.9347 39.0602C59.9347 39.1732 59.9193 39.5173 59.909 39.6251C59.8988 39.7329 59.945 39.7586 59.9758 39.7586H60.2069C60.2685 39.7586 60.3147 39.7432 60.3147 39.6405V39.4813H61.7681V39.6456C61.7681 39.7175 61.7938 39.7227 61.8451 39.7227C61.8965 39.7227 62.107 39.7124 62.1635 39.7124C62.22 39.7124 62.1943 39.6662 62.1943 39.5429C62.1943 39.4197 62.1686 38.4594 62.1635 38.3618M61.7681 39.1732H60.3147V38.675C60.3147 38.6186 60.3507 38.5877 60.4123 38.5877H61.6859C61.7475 38.5877 61.7732 38.6031 61.7732 38.6904V39.168L61.7681 39.1732ZM52.4626 37.5709C52.4626 37.5709 52.3086 37.7815 52.247 37.8482C52.1802 37.915 52.0723 38.0434 52.0415 38.0691C52.0107 38.0947 52.021 38.1307 52.0672 38.1666C52.1185 38.2077 52.1802 38.2283 52.211 38.2437C52.247 38.2591 52.288 38.2796 52.3753 38.1923C52.4678 38.1101 52.7143 37.8637 52.7707 37.8174C52.8221 37.7763 52.8992 37.7609 52.8273 37.689C52.7502 37.6223 52.6218 37.5452 52.5756 37.5247C52.5242 37.499 52.4986 37.5042 52.4626 37.5658" fill="white"/>
</svg>
