<svg width="40" height="40" viewBox="0 0 40 40" fill="none" xmlns="http://www.w3.org/2000/svg">
<g clip-path="url(#clip0_101_19725)">
<path d="M39.9617 19.9841C39.963 11.9023 35.0956 4.61562 27.6294 1.52196C20.1632 -1.57169 11.5686 0.136988 5.85347 5.8512C0.138336 11.5654 -1.57172 20.1598 1.52074 27.6265C4.6132 35.0932 11.8991 39.9617 19.9809 39.9617C31.0147 39.9617 39.9599 31.0179 39.9617 19.9841Z" fill="#F40000"/>
<path d="M27.3442 14.9026C26.7855 15.1751 26.2897 15.5608 25.8882 16.0354C25.101 16.8994 24.6498 17.869 24.9858 18.125C25.117 18.2242 25.4146 18.2402 25.9458 17.7538C26.4462 17.3155 26.8393 16.768 27.0946 16.1538C27.4434 15.2994 27.3314 14.9058 27.3314 14.8962M31.6194 16.4482C30.749 16.0002 30.1154 15.4562 29.453 15.117C28.7906 14.7778 28.4258 14.6658 27.9138 14.7202C27.8422 14.7318 27.7716 14.7489 27.7026 14.7714C27.7026 14.7714 27.9682 15.6674 26.9218 17.1778C25.8754 18.6882 24.8994 18.7138 24.6402 18.2882C24.381 17.8626 24.7234 16.941 25.341 16.1378C25.8525 15.5365 26.4524 15.0164 27.1202 14.5954C27.1202 14.5954 26.7586 14.3778 25.869 14.8802C24.3745 15.8122 23.0941 17.0499 22.1122 18.5122C20.7298 20.4802 20.4546 21.5682 20.2562 22.4194C20.0578 23.2706 20.237 24.1889 21.1842 24.1889C22.1314 24.1889 23.2322 22.7426 23.5426 22.2402C24.1186 21.3058 24.5026 19.8722 23.7122 20.0706C23.3218 20.1666 23.0082 20.5954 22.813 21.0082C22.6872 21.2728 22.5916 21.5508 22.5282 21.837C22.2534 21.9515 21.9952 22.1022 21.7602 22.285C21.5009 22.478 21.258 22.692 21.0338 22.925C21.0911 22.2984 21.2774 21.6905 21.581 21.1394C21.9727 20.2814 22.7544 19.6653 23.6802 19.485C24.1922 19.4434 24.8546 19.8754 24.2914 21.4722C23.7282 23.069 22.0802 25.0082 20.3394 25.0338C18.7394 25.0562 17.6802 23.005 19.9138 19.4242C22.4002 15.469 25.2802 14.253 26.2402 14.1186C27.2002 13.9842 27.4882 14.397 27.4882 14.397C28.0554 14.1636 28.668 14.0618 29.2802 14.0994C30.4322 14.1762 31.3218 14.9922 32.4962 15.5618C32.1762 15.8594 31.901 16.1666 31.6354 16.4546M36.8002 15.117C36.0066 15.6322 34.8994 16.0962 33.8402 15.9938C33.5714 16.2722 33.2834 16.5922 32.9954 16.9538C34.8354 17.3186 36.445 16.1762 37.3026 15.2034C37.6142 14.8556 37.8818 14.4709 38.0994 14.0578C37.7102 14.4614 37.274 14.817 36.8002 15.117ZM34.3554 20.3042C34.3694 20.2801 34.3801 20.2542 34.3874 20.2274C34.3782 20.1406 34.308 20.0731 34.221 20.0674C34.045 20.0674 33.805 20.093 33.181 20.7842C32.6601 21.3584 32.2119 21.9947 31.8466 22.6786C31.4882 23.3186 31.3442 23.821 31.5522 23.9586C31.6193 23.9934 31.6971 24.0014 31.7698 23.981C31.9074 23.949 32.0674 23.8177 32.3074 23.5394C32.4194 23.4082 32.5474 23.2194 32.6946 23.0178C33.1074 22.4546 34.1474 20.6754 34.3554 20.317M27.8402 21.0626C27.9458 20.7874 28.077 20.253 27.7986 20.0418C27.5202 19.8306 26.7458 20.3426 26.7394 20.8802C26.7628 21.2711 27.0291 21.6053 27.405 21.7154C27.4786 21.7378 27.5042 21.7346 27.5394 21.6738C27.654 21.4774 27.7545 21.2732 27.8402 21.0626ZM27.2738 22.0802C27.0879 21.9945 26.9128 21.8871 26.7522 21.7602C26.5938 21.6258 26.4605 21.4643 26.3586 21.2834C26.3586 21.2674 26.3394 21.2834 26.3266 21.2834C26.1614 21.4881 26.0076 21.7018 25.8658 21.9234C25.4626 22.5186 24.8418 23.7442 25.405 23.9522C25.7634 24.0866 26.365 23.4562 26.685 23.037C26.9088 22.746 27.1109 22.4391 27.2898 22.1186C27.2898 22.0866 27.2898 22.077 27.2706 22.0706M33.645 23.485C33.4914 23.7282 33.325 24.1954 33.8242 23.9042C34.4386 23.549 35.3122 22.221 35.3122 22.221H35.7058C35.3475 22.7765 34.9475 23.3039 34.509 23.7986C33.885 24.4866 33.1266 25.1138 32.589 25.053C31.949 24.9794 32.1602 24.1602 32.1602 24.1602C32.1602 24.1602 31.2642 25.1202 30.6466 25.0434C29.821 24.9602 30.0802 23.917 30.0802 23.917C30.0802 23.917 29.1202 25.0786 28.4802 25.0402C27.4722 24.9826 27.725 23.7602 28.0066 22.893C28.157 22.429 28.2946 22.0674 28.2946 22.0674C28.2946 22.0674 28.1954 22.093 27.9746 22.125C27.8626 22.125 27.6546 22.1538 27.6546 22.1538C27.6546 22.1538 27.2322 22.893 26.8994 23.3378C26.5666 23.7826 25.1522 25.3186 24.3202 25.0146C23.5426 24.7298 23.7986 23.5394 24.253 22.5954C24.9122 21.2194 26.765 19.2354 27.837 19.4946C28.909 19.7538 27.8626 21.7889 27.8626 21.7889C27.9321 21.8048 28.0043 21.8048 28.0738 21.7889C28.2124 21.7612 28.3484 21.7216 28.4802 21.6706C29.1368 20.309 29.9222 19.0135 30.8258 17.8018C32.0578 16.2754 34.5154 13.6418 35.4818 14.2818C35.7154 14.4386 35.6098 14.9762 35.293 15.6322C35.1522 15.6738 35.005 15.7154 34.8578 15.7442C35.0337 15.4523 35.1663 15.1365 35.2514 14.8066C35.3954 14.0194 33.5522 15.6834 32.2338 17.4754C31.4412 18.555 30.7371 19.6968 30.1282 20.8898C30.3673 20.7462 30.5952 20.5846 30.8098 20.4066C31.3963 19.9176 31.954 19.3951 32.4802 18.8418C32.9925 18.3226 33.4734 17.7734 33.9202 17.197C34.061 17.197 34.2018 17.1746 34.3362 17.1522C33.8558 17.8064 33.332 18.4275 32.7682 19.0114C32.2434 19.5426 31.6738 20.1122 31.1682 20.5314C30.7264 20.9058 30.2615 21.252 29.7762 21.5682C29.7762 21.5682 28.621 23.8882 29.2482 24.0386C29.6162 24.1282 30.3426 23.005 30.3426 23.005C30.3426 23.005 31.3026 21.5554 31.8658 20.9026C32.6466 20.0162 33.3186 19.5042 33.9906 19.4914C34.2523 19.5175 34.4844 19.6707 34.6114 19.901L34.7938 19.6162H35.933C35.933 19.6162 33.8146 23.2098 33.645 23.4818M36.8002 15.117C36.0066 15.6322 34.8994 16.0962 33.8402 15.9938C33.5714 16.2722 33.2834 16.5922 32.9954 16.9538C34.8354 17.3186 36.445 16.1762 37.3026 15.2034C37.6142 14.8556 37.8818 14.4709 38.0994 14.0578C37.7102 14.4614 37.274 14.817 36.8002 15.117ZM34.8482 24.3746H35.021C35.0666 24.3676 35.113 24.3676 35.1586 24.3746C35.2103 24.3953 35.2426 24.447 35.2386 24.5026C35.2406 24.5416 35.2209 24.5785 35.1874 24.5986C35.1654 24.6136 35.1402 24.6235 35.1138 24.6274C35.1488 24.6281 35.1811 24.646 35.2002 24.6754C35.2166 24.6979 35.2265 24.7244 35.229 24.7522V24.8226C35.229 24.8226 35.229 24.8482 35.229 24.8514H35.149V24.7938C35.149 24.7362 35.149 24.6978 35.101 24.6818C35.0727 24.6661 35.0404 24.6594 35.0082 24.6626H34.9378V24.8578H34.8482V24.3746ZM35.149 24.5282C35.149 24.4898 35.149 24.4642 35.117 24.4546C35.0839 24.4396 35.0476 24.433 35.0114 24.4354H34.9378V24.6146H35.0146C35.0421 24.6191 35.0703 24.6191 35.0978 24.6146C35.1288 24.6016 35.149 24.5713 35.149 24.5378M35.469 24.6338C35.4702 24.84 35.3324 25.0211 35.1333 25.075C34.9342 25.1288 34.7239 25.0419 34.6209 24.8632C34.5179 24.6846 34.5482 24.459 34.6946 24.3138C34.8731 24.1414 35.1561 24.1414 35.3346 24.3138C35.4213 24.3973 35.4689 24.5134 35.4658 24.6338M35.0114 24.2434C34.9077 24.2423 34.8082 24.284 34.7362 24.3586C34.661 24.4301 34.6192 24.5299 34.621 24.6338C34.6197 24.7393 34.6613 24.8409 34.7362 24.9154C34.8088 24.9887 34.9082 25.0292 35.0114 25.0274C35.1182 25.0345 35.2231 24.9968 35.3008 24.9233C35.3786 24.8498 35.4221 24.7471 35.421 24.6402C35.424 24.5368 35.3834 24.4369 35.309 24.365C35.2358 24.2902 35.1352 24.2486 35.0306 24.2498M20.8898 16.8898H19.8114L19.2002 17.8754H20.2754L20.8898 16.8898ZM15.7698 20.301C16.2306 19.661 17.4946 17.469 17.4946 17.469C17.4828 17.3823 17.4122 17.3157 17.325 17.309C17.149 17.309 16.861 17.3602 16.2786 18.0866C15.7722 18.6808 15.3182 19.3179 14.9218 19.9906C14.5634 20.6306 14.4034 21.1106 14.6018 21.2354C14.6694 21.2681 14.7465 21.2761 14.8194 21.2578C15.052 21.1649 15.2523 21.0058 15.3954 20.8002C15.5106 20.6722 15.6354 20.4802 15.7858 20.2914M10.0002 17.3154C9.7026 17.0914 8.9442 17.6162 8.94099 18.157C8.9378 18.6978 9.6258 18.8802 9.7154 18.8802C9.75693 18.8936 9.80223 18.8763 9.8242 18.8386C9.8434 18.797 9.9362 18.6242 10.0418 18.3522C10.1474 18.0802 10.2786 17.5394 10.0002 17.3282M9.5522 19.229C9.34401 19.1641 9.14504 19.0726 8.9602 18.957C8.78447 18.8414 8.64126 18.6827 8.5442 18.4962C8.5442 18.477 8.5218 18.4962 8.509 18.4962C8.4962 18.4962 8.4386 18.5922 8.0354 19.1842C7.6322 19.7762 7.0402 21.0082 7.6002 21.213C7.9586 21.3474 8.5602 20.7138 8.8802 20.2978C9.12627 19.9705 9.35383 19.6297 9.5618 19.277C9.5778 19.2418 9.5618 19.2322 9.5426 19.2258M18.3522 19.5874H18.7458C18.7458 19.5874 16.7682 22.4482 15.6482 22.3202C15.0274 22.2466 15.2098 21.4754 15.2098 21.4754C15.2098 21.4754 14.333 22.5026 13.5298 22.2978C12.8002 22.109 13.2706 20.8962 13.2706 20.8962C13.1874 20.9282 11.6066 22.7106 10.4962 22.285C9.3858 21.8594 9.9362 20.3458 10.1762 19.8978C10.3554 19.5202 10.5602 19.149 10.5602 19.149C10.5602 19.149 10.381 19.2002 10.269 19.2258L9.9906 19.2834C9.9906 19.2834 9.4402 20.1762 9.1042 20.6242C8.7682 21.0722 7.3602 22.605 6.5058 22.2978C5.6514 21.9906 5.8658 20.8162 6.3458 19.8818C7.1106 18.3618 8.9282 16.4994 10.0226 16.781C11.117 17.0626 10.2146 18.8546 10.2146 18.8546C10.2146 18.8546 10.4322 18.8866 10.9602 18.5346C11.7218 18.0162 12.7234 16.6146 13.8082 16.7874C14.317 16.861 14.7906 17.3858 14.1442 18.3874C13.933 18.7074 13.5874 18.9922 13.3186 18.7074C13.1522 18.5346 13.2962 18.2114 13.4722 17.9938C13.6108 17.8126 13.8301 17.712 14.0578 17.725C14.0578 17.725 14.237 17.3154 13.7826 17.3218C13.4114 17.3218 12.4802 18.189 11.9522 19.0594C11.4658 19.8594 10.733 21.2194 11.4722 21.5138C12.1442 21.7858 13.4274 20.2626 14.0322 19.4626C14.637 18.6626 15.981 16.8514 17.117 16.7778C17.3649 16.7755 17.5981 16.8951 17.741 17.0978L17.8722 16.8898H19.0082C19.0082 16.8898 16.8674 20.4642 16.701 20.7298C16.5698 20.941 16.381 21.4178 16.8802 21.1522C17.3794 20.8866 18.3714 19.5874 18.3714 19.5874M17.7442 25.3122C16.9058 24.7349 15.9038 24.4432 14.8866 24.4802C14.3277 24.4951 13.8095 24.7756 13.4914 25.2354C13.0594 24.4802 12.2114 24.0162 10.877 24.0258C8.7362 24.0514 6.6114 25.0402 4.9282 25.0402C3.3282 25.0402 2.1378 24.0258 2.1762 22.2274C2.2402 19.069 4.9122 16.2242 6.9058 14.941C8.0514 14.205 9.0114 13.981 9.6418 14.0578C9.94057 14.1029 10.198 14.2921 10.3303 14.5637C10.4626 14.8354 10.4529 15.1547 10.3042 15.4178C9.7922 16.5602 9.0882 16.4642 9.1138 15.917C9.13437 15.6276 9.29429 15.3662 9.5426 15.2162C9.6698 15.1489 9.81151 15.1137 9.9554 15.1138C10.0578 15.0306 10.1346 14.4066 9.3154 14.6114C8.4962 14.8162 7.5074 15.6226 6.5634 16.6626C5.6194 17.7026 4.1602 19.6738 3.789 21.7602C3.6194 22.7202 3.7346 24.4674 6.0066 24.445C7.9266 24.445 10.7746 23.165 13.3858 23.1841C14.2947 23.1786 15.1879 23.422 15.9682 23.8882C16.6331 24.2706 17.2326 24.7567 17.7442 25.3282" fill="white"/>
</g>
<defs>
<clipPath id="clip0_101_19725">
<rect width="40" height="40" fill="white"/>
</clipPath>
</defs>
</svg>
