<svg width="46" height="40" viewBox="0 0 46 40" fill="none" xmlns="http://www.w3.org/2000/svg">
<path d="M13.8503 38.4448C13.7549 38.4448 13.6804 38.4746 13.6298 38.5312C13.5791 38.5878 13.5553 38.6563 13.5553 38.7338C13.5553 38.8112 13.5821 38.8827 13.6357 38.9423C13.6894 38.9989 13.7609 39.0287 13.8503 39.0287L13.8979 39.0228V39.6961C13.8979 39.7527 13.892 39.7795 13.8771 39.7795C13.8622 39.7795 13.8443 39.7587 13.8205 39.714L13.3319 38.8946L13.1352 39.0287L13.6208 39.851C13.6834 39.9494 13.7728 40 13.889 40C13.9605 40 14.0231 39.9762 14.0767 39.9285C14.1303 39.8838 14.1571 39.8212 14.1571 39.7408V38.7278C14.1571 38.6444 14.1273 38.5788 14.0707 38.5252C14.0111 38.4716 13.9426 38.4448 13.8532 38.4448M13.8592 38.8529C13.7817 38.8529 13.746 38.8172 13.746 38.7427C13.746 38.6652 13.7847 38.6265 13.8592 38.6265C13.9337 38.6265 13.9724 38.6652 13.9724 38.7427C13.9724 38.8202 13.9337 38.8529 13.8592 38.8529ZM15.7809 38.5312C15.7332 38.4746 15.6647 38.4448 15.5723 38.4448C15.4681 38.4448 15.3936 38.4716 15.3399 38.5282C15.2863 38.5818 15.2595 38.6503 15.2595 38.7308C15.2595 38.8112 15.2833 38.8768 15.334 38.9364C15.2804 38.9721 15.2386 39.0019 15.2059 39.0257C15.1165 39.0972 15.039 39.1837 14.9824 39.276V38.7516C14.9824 38.6623 14.9586 38.5878 14.905 38.5312C14.8543 38.4746 14.7768 38.4448 14.6785 38.4448C14.5802 38.4448 14.5087 38.4746 14.458 38.5312C14.4074 38.5878 14.3836 38.6563 14.3836 38.7338C14.3836 38.8112 14.4044 38.8768 14.4461 38.9334C14.4878 38.99 14.5504 39.0228 14.6338 39.0287C14.6726 39.0347 14.7024 39.0287 14.7262 39.0198V39.9583H14.9824V39.9017C14.9824 39.7616 15.0271 39.6127 15.1195 39.4578C15.2208 39.285 15.3548 39.1568 15.5127 39.0734C15.5306 39.0794 15.5425 39.0853 15.5485 39.0943C15.5723 39.1241 15.5843 39.1777 15.5843 39.2581V39.9613H15.8405V39.2581C15.8405 39.139 15.8166 39.0526 15.769 38.9989C15.763 38.99 15.7541 38.9811 15.7392 38.9781C15.8166 38.9185 15.8554 38.838 15.8554 38.7367C15.8554 38.6593 15.8315 38.5878 15.7839 38.5342M14.7649 38.8231C14.7471 38.844 14.7173 38.8559 14.6815 38.8559C14.607 38.8559 14.5713 38.8202 14.5713 38.7457C14.5713 38.6712 14.607 38.6295 14.6815 38.6295C14.756 38.6295 14.7947 38.6682 14.7947 38.7457C14.7947 38.7755 14.7858 38.8023 14.7649 38.8261M15.6468 38.8261C15.626 38.85 15.5992 38.8589 15.5604 38.8589C15.4859 38.8589 15.4472 38.8231 15.4472 38.7457C15.4472 38.6682 15.4859 38.6325 15.5604 38.6325C15.6349 38.6325 15.6736 38.6682 15.6736 38.7457C15.6736 38.7785 15.6647 38.8053 15.6438 38.8261M20.3513 29.0508H24.8978C28.1513 22.1863 30.4871 12.7357 23.5481 12.7357H23.1519C16.2099 12.7357 10.7785 22.1863 8.39502 29.0508H12.9416C12.9416 29.0508 13.2365 27.8322 13.8711 25.9969C14.6398 24.9393 17.062 22.091 20.0146 23.6283L21.8737 19.1056C21.8737 19.1056 19.3383 18.2535 15.2863 22.3502C15.3936 22.1029 15.5068 21.8526 15.62 21.6024C17.4642 17.5862 19.5617 14.8302 22.4904 14.8243C25.4132 14.8302 25.2434 17.5862 23.7895 21.6024C22.3296 25.6215 20.3483 29.0508 20.3483 29.0508M28.2138 13.0098H34.116L35.6772 10.6829L31.3541 10.668L31.8904 9.66996C32.5131 8.52886 31.375 8.63016 31.375 8.63016H26.3755L24.7935 10.8111L29.0034 10.8051C29.0034 10.8051 29.5873 10.7485 29.4026 11.115L28.2138 13.0098ZM9.77149 38.5639C9.64636 38.4746 9.49739 38.4299 9.32459 38.4299C9.15178 38.4299 8.99983 38.4775 8.8747 38.5729C8.74658 38.6682 8.68401 38.7993 8.68401 38.9691C8.68401 39.0585 8.73764 39.2105 8.85086 39.425C8.90151 39.5233 8.92534 39.6127 8.92534 39.7021V39.9613H9.18156V39.3773C9.19646 39.3833 9.21435 39.3863 9.23521 39.3892C9.25606 39.3922 9.27989 39.3952 9.30373 39.3952C9.39609 39.3952 9.46759 39.3684 9.51824 39.3088C9.56888 39.2522 9.5957 39.1837 9.5957 39.1032C9.5957 39.0228 9.5689 38.9483 9.51527 38.8917C9.46164 38.8381 9.39311 38.8112 9.30075 38.8112C9.15178 38.8112 9.05048 38.8798 8.99983 39.0138C8.98195 39.0585 8.97003 39.1241 8.96408 39.2164C8.95216 39.2015 8.94322 39.1896 8.94024 39.1807C8.91342 39.1211 8.89854 39.0555 8.89854 38.9781C8.89854 38.8708 8.94024 38.7844 9.02367 38.7219C9.10709 38.6593 9.20242 38.6295 9.31266 38.6295C9.42289 38.6295 9.51229 38.6593 9.58677 38.7159C9.66424 38.7725 9.69999 38.8559 9.69999 38.9662V39.9642H9.95621V38.9513C9.95621 38.7844 9.89365 38.6563 9.77149 38.5669M9.21435 39.0257C9.23521 39.0049 9.26201 38.993 9.29478 38.993C9.36927 38.993 9.408 39.0317 9.408 39.1032C9.408 39.133 9.39907 39.1598 9.3812 39.1837C9.36034 39.2045 9.33351 39.2164 9.29478 39.2164C9.22328 39.2164 9.18455 39.1807 9.18455 39.1062C9.18455 39.0734 9.19349 39.0466 9.21137 39.0257M9.85192 35.0066C8.24008 34.2707 7.78722 33.8535 7.78722 33.8535C5.54971 32.3162 5.04619 29.6675 5.62419 26.8401C6.56269 22.9401 8.36821 19.63 11.0377 16.1918C11.0377 16.1918 14.6457 12.0743 18.4355 10.4178C22.0972 8.82084 17.9737 7.64398 17.6579 7.48905C17.351 7.33711 16.5376 7.05705 17.8247 5.89211C19.0373 4.79272 22.2253 2.77866 25.8035 2.86804C25.8035 2.86804 26.4888 2.80249 28.0351 3.30898L34.2858 6.01128L39.5742 3.38347L31.5209 0.541148C25.9733 -1.0558 21.5251 1.39026 21.5251 1.39026C18.7096 2.64756 16.5555 5.08469 15.4681 6.23175C15.4681 6.23175 14.8037 6.89615 14.8037 7.23878C14.8037 7.58141 14.8424 7.78402 15.8703 8.16538C16.919 8.55568 17.8813 8.78807 17.8813 9.13069C17.8813 9.41969 16.7641 9.79807 16.7641 9.79807C8.04047 12.0624 3.3688 19.0997 2.34688 21.0065C0.177891 25.0376 -0.63547 30.326 2.20685 33.6718C3.97958 36.0047 6.9828 36.7912 9.99495 36.4903C11.136 36.3354 12.1848 36.1179 13.1769 35.8646C13.1769 35.8646 11.8422 35.9242 9.84896 35.0095M8.25797 39.3922H8.21923V38.4835H7.96301V39.6812C7.96301 39.7706 7.98983 39.8421 8.04048 39.8987C8.09113 39.9583 8.16263 39.9851 8.25797 39.9851C8.35331 39.9851 8.41886 39.9553 8.47249 39.8957C8.52612 39.8391 8.54994 39.7646 8.54994 39.6812C8.54994 39.5978 8.52612 39.5293 8.47249 39.4756C8.42184 39.422 8.35033 39.3952 8.25797 39.3952M8.33841 39.7706C8.32054 39.7944 8.29074 39.8034 8.25498 39.8034C8.1805 39.8034 8.14475 39.7646 8.14475 39.6902C8.14475 39.6157 8.1805 39.5769 8.25498 39.5769C8.32947 39.5769 8.36522 39.6127 8.36522 39.6902C8.36522 39.7229 8.35629 39.7497 8.33841 39.7706ZM10.7219 38.6295C10.7845 38.6295 10.8739 38.6474 10.993 38.6831C11.1092 38.7189 11.2046 38.7367 11.2701 38.7367C11.3416 38.7367 11.4102 38.7218 11.4846 38.6891L11.434 38.4954C11.3744 38.5252 11.3208 38.5401 11.2731 38.5401C11.2373 38.5401 11.1807 38.5282 11.1033 38.5043C10.9573 38.4597 10.8381 38.4388 10.7487 38.4388C10.6236 38.4388 10.5104 38.4775 10.4031 38.558C10.3227 38.6205 10.2601 38.6921 10.2154 38.7785V38.9125C10.3614 38.9125 10.5163 38.9245 10.6802 38.9453C10.8441 38.9662 10.9424 38.993 10.9811 39.0228C11.0199 39.0526 11.0407 39.0824 11.0526 39.1151C11.0616 39.1449 11.0645 39.1866 11.0645 39.2343V39.3952H11.0109C10.9126 39.3952 10.8381 39.425 10.7875 39.4816C10.7368 39.5382 10.71 39.6097 10.71 39.6902C10.71 39.7706 10.7368 39.8391 10.7904 39.8957C10.8441 39.9553 10.9156 39.9851 11.005 39.9851C11.0914 39.9851 11.1629 39.9553 11.2254 39.8987C11.288 39.8421 11.3178 39.7676 11.3178 39.6842V39.2373C11.3178 39.1628 11.3088 39.1002 11.294 39.0466C11.2761 38.993 11.2463 38.9453 11.1986 38.9096C11.1211 38.847 11.0228 38.8023 10.9066 38.7814C10.7904 38.7606 10.6802 38.7487 10.57 38.7487H10.4955C10.5163 38.7189 10.5342 38.698 10.5491 38.6891C10.5968 38.6503 10.6534 38.6325 10.7249 38.6325M11.1271 39.6931C11.1271 39.7229 11.1182 39.7527 11.0973 39.7736C11.0794 39.7974 11.0496 39.8063 11.0109 39.8063C10.9334 39.8063 10.8947 39.7676 10.8947 39.6931C10.8947 39.6187 10.9334 39.5799 11.0109 39.5799C11.0884 39.5799 11.1271 39.6157 11.1271 39.6931ZM11.3118 36.7614H11.0854V37.2679H11.3118V36.7614ZM12.2354 38.4507C12.0924 38.4507 11.9643 38.4835 11.8511 38.5461C11.7677 38.5937 11.6991 38.6533 11.6455 38.7278L11.8064 38.8589C11.857 38.7963 11.9166 38.7457 11.9911 38.7069C12.0656 38.6682 12.1461 38.6504 12.2295 38.6504C12.3457 38.6504 12.438 38.6742 12.5095 38.7248C12.5781 38.7755 12.6138 38.8529 12.6138 38.9572V39.6157C12.6138 39.6693 12.6049 39.7021 12.59 39.7199C12.5721 39.7378 12.5363 39.7438 12.4768 39.7438H12.1073C12.0388 39.7438 11.9971 39.7259 11.9852 39.6991C11.9852 39.6901 11.9822 39.6633 11.9822 39.6157V39.5024H12.0328C12.1252 39.5024 12.1997 39.4726 12.2503 39.416C12.301 39.3594 12.3278 39.2909 12.3278 39.2105C12.3278 39.13 12.301 39.0645 12.2503 39.0079C12.1967 38.9542 12.1252 38.9244 12.0298 38.9244C11.9345 38.9244 11.866 38.9542 11.8094 39.0138C11.7528 39.0734 11.723 39.1479 11.723 39.2343V39.6812C11.723 39.7974 11.7438 39.8749 11.7856 39.9106C11.8273 39.9494 11.9137 39.9642 12.0418 39.9642H12.5483C12.6764 39.9642 12.7628 39.9464 12.8015 39.9076C12.8432 39.8689 12.8641 39.7915 12.8641 39.6693V38.9513C12.8641 38.6116 12.6525 38.4418 12.2295 38.4418M11.9166 39.2134C11.9166 39.139 11.9554 39.1002 12.0298 39.1002C12.1043 39.1002 12.1431 39.139 12.1431 39.2134C12.1431 39.2879 12.1043 39.3237 12.0298 39.3237C11.9554 39.3237 11.9166 39.2879 11.9166 39.2134ZM10.5074 38.0813C10.5551 38.0813 10.6057 38.0813 10.6593 38.0843C10.713 38.0872 10.7606 38.0932 10.7994 38.0962C10.9335 38.1141 11.0854 38.1438 11.2493 38.1915C11.2761 38.1975 11.3118 38.2064 11.3535 38.2213C11.3416 38.1617 11.3297 38.1111 11.3148 38.0694C11.3118 38.0575 11.3059 38.0426 11.3029 38.0306V37.4258H11.0854V37.6999C11.0586 37.6761 11.0318 37.6582 11.002 37.6463C10.999 37.6463 10.993 37.6463 10.99 37.6433V37.4288H10.7845V37.5867C10.6683 37.5927 10.5789 37.6076 10.5163 37.6314C10.3286 37.7089 10.2095 37.8638 10.1528 38.1051C10.1767 38.0992 10.1946 38.0962 10.2095 38.0962C10.2988 38.0872 10.3972 38.0843 10.5074 38.0843M10.5759 37.8042C10.6474 37.7714 10.71 37.7595 10.7696 37.7685C10.8619 37.7804 10.9394 37.8102 10.996 37.8608C11.0288 37.8906 11.0586 37.9323 11.0884 37.983C11.0705 37.977 11.0556 37.971 11.0437 37.9681C10.9662 37.9442 10.8768 37.9264 10.7755 37.9144C10.7636 37.9144 10.7428 37.9115 10.7189 37.9055H10.6623C10.6385 37.9055 10.6027 37.9055 10.5551 37.9085C10.5074 37.9085 10.4716 37.9144 10.4478 37.9144C10.4627 37.8727 10.5044 37.837 10.5729 37.8072M26.9625 38.4448C26.7957 38.4448 26.6616 38.4954 26.5603 38.5997C26.4888 38.6712 26.4441 38.7516 26.4202 38.844L26.6377 38.9066C26.6586 38.8261 26.6914 38.7636 26.745 38.7129C26.7956 38.6652 26.8612 38.6414 26.9387 38.6414C27.0221 38.6414 27.0906 38.6593 27.1413 38.698C27.1919 38.7338 27.2187 38.7993 27.2187 38.8857V39.9732H27.4749V38.8946C27.4749 38.7427 27.4362 38.6295 27.3558 38.558C27.2753 38.4865 27.1442 38.4477 26.9595 38.4477M35.9543 38.0396V37.4377H35.7248V37.7059C35.695 37.682 35.6682 37.6672 35.6474 37.6582C35.5848 37.6284 35.5103 37.6105 35.4239 37.6016C35.263 37.6016 35.123 37.6493 35.0098 37.7476C34.8936 37.8459 34.8251 37.9681 34.8012 38.1141C34.8251 38.1111 34.8429 38.1081 34.8578 38.1081C34.9442 38.0992 35.0426 38.0962 35.1558 38.0962C35.2005 38.0962 35.2541 38.0962 35.3077 38.0992C35.3643 38.1021 35.409 38.1081 35.4478 38.1141C35.5818 38.1319 35.7308 38.1617 35.9006 38.2064C35.9245 38.2124 35.9602 38.2213 36.0049 38.2362C35.993 38.1796 35.9811 38.126 35.9662 38.0843C35.9632 38.0723 35.9602 38.0604 35.9543 38.0455M35.695 37.977C35.6176 37.9532 35.5282 37.9353 35.4269 37.9234C35.415 37.9234 35.3971 37.9204 35.3703 37.9144H35.3137C35.2898 37.9144 35.2541 37.9144 35.2064 37.9174C35.1588 37.9204 35.123 37.9234 35.0992 37.9263C35.1141 37.8846 35.1588 37.8489 35.2273 37.8161C35.2988 37.7833 35.3613 37.7714 35.4209 37.7804C35.5133 37.7923 35.5908 37.8221 35.6474 37.8697C35.6801 37.8995 35.7099 37.9383 35.7397 37.9889C35.7218 37.98 35.707 37.977 35.695 37.971M32.0066 38.4805C31.9083 38.4805 31.8367 38.5044 31.7921 38.555C31.7682 38.5818 31.7384 38.6414 31.6997 38.7338L31.4465 39.3654V38.7695C31.4465 38.6801 31.4196 38.6057 31.369 38.5461C31.3183 38.4895 31.2439 38.4597 31.1485 38.4597C31.0532 38.4597 30.9757 38.4895 30.928 38.5461C30.8804 38.6027 30.8536 38.6712 30.8536 38.7487C30.8536 38.8261 30.8744 38.8917 30.9161 38.9483C30.9578 39.0049 31.0204 39.0377 31.0979 39.0436C31.1217 39.0436 31.1426 39.0436 31.1634 39.0436C31.1753 39.0406 31.1843 39.0377 31.1902 39.0347V39.9732H31.4465L31.947 38.7397C31.947 38.7397 31.9559 38.7159 31.9589 38.7099C31.9738 38.6891 31.9917 38.6801 32.0155 38.6801C32.0453 38.6801 32.0632 38.7099 32.0632 38.7665V39.9732H32.3164V38.8321C32.3164 38.6861 32.2926 38.5908 32.2449 38.5461C32.1973 38.5014 32.1168 38.4805 32.0066 38.4805ZM31.2289 38.838C31.2111 38.8589 31.1813 38.8708 31.1455 38.8708C31.0681 38.8708 31.0323 38.8351 31.0323 38.7606C31.0323 38.6861 31.0681 38.6444 31.1455 38.6444C31.223 38.6444 31.2588 38.6831 31.2588 38.7606C31.2588 38.7904 31.2498 38.8172 31.2289 38.841M34.1964 39.4011H34.1577V38.4924H33.9015V39.6902C33.9015 39.7766 33.9283 39.851 33.9759 39.9076C34.0266 39.9642 34.0981 39.9911 34.1934 39.9911C34.2888 39.9911 34.3543 39.9613 34.408 39.9017C34.4616 39.8421 34.4854 39.7706 34.4854 39.6872C34.4854 39.6037 34.4616 39.5382 34.408 39.4816C34.3573 39.428 34.2858 39.4011 34.1934 39.4011M34.2739 39.7765C34.256 39.7974 34.2292 39.8093 34.1904 39.8093C34.116 39.8093 34.0772 39.7706 34.0772 39.6961C34.0772 39.6216 34.116 39.5829 34.1904 39.5829C34.2649 39.5829 34.3007 39.6216 34.3007 39.6961C34.3007 39.7259 34.2918 39.7557 34.2739 39.7765ZM33.2966 39.6663C33.2698 39.708 33.2222 39.7408 33.1536 39.7617C33.1596 39.7497 33.1626 39.7408 33.1626 39.7348C33.1715 39.7021 33.1745 39.6723 33.1715 39.6425C33.1715 39.565 33.1447 39.4965 33.094 39.4429C33.0434 39.3892 32.9719 39.3624 32.8855 39.3624C32.7931 39.3624 32.7216 39.3892 32.671 39.4429C32.6233 39.4965 32.5995 39.565 32.5995 39.6484C32.5995 39.7557 32.6412 39.8421 32.7276 39.8987C32.7991 39.9493 32.8885 39.9732 32.9957 39.9732C33.2162 39.9732 33.3801 39.9166 33.4814 39.8034C33.5678 39.711 33.6095 39.571 33.6095 39.3892H33.3682C33.3682 39.5054 33.3443 39.5978 33.2966 39.6633M32.9689 39.7289C32.951 39.7497 32.9242 39.7587 32.8855 39.7587C32.817 39.7587 32.7812 39.7229 32.7812 39.6514C32.7812 39.5799 32.817 39.5412 32.8855 39.5412C32.954 39.5412 32.9927 39.5769 32.9927 39.6514C32.9927 39.6812 32.9838 39.705 32.9659 39.7259M33.2937 38.7844C33.2669 38.8261 33.2192 38.8589 33.1506 38.8798C33.1566 38.8678 33.1596 38.8589 33.1596 38.8529C33.1685 38.8232 33.1715 38.7904 33.1685 38.7665C33.1685 38.6831 33.1447 38.6176 33.094 38.5639C33.0464 38.5103 32.9749 38.4865 32.8825 38.4865C32.7902 38.4865 32.7186 38.5133 32.668 38.5639C32.6203 38.6176 32.5965 38.6861 32.5965 38.7695C32.5965 38.8738 32.6382 38.9542 32.7246 39.0138C32.7961 39.0645 32.8855 39.0883 32.9927 39.0883C33.2162 39.0883 33.3801 39.0347 33.4784 38.9215C33.5648 38.8291 33.6065 38.6891 33.6065 38.5014H33.3652C33.3652 38.6206 33.3413 38.7129 33.2937 38.7814M32.9659 38.847C32.9481 38.8678 32.9212 38.8768 32.8825 38.8768C32.814 38.8768 32.7782 38.844 32.7782 38.7725C32.7782 38.701 32.814 38.6652 32.8825 38.6652C32.951 38.6652 32.9898 38.701 32.9898 38.7725C32.9898 38.8023 32.9808 38.8261 32.9629 38.847M35.6861 39.6127C35.6861 39.6663 35.6772 39.6991 35.6623 39.714C35.6474 39.7318 35.6086 39.7378 35.552 39.7378H35.1319V38.7576C35.1319 38.6682 35.1051 38.5937 35.0545 38.5371C35.0038 38.4805 34.9293 38.4507 34.831 38.4507C34.7327 38.4507 34.6612 38.4805 34.6105 38.5371C34.5599 38.5937 34.5361 38.6593 34.5361 38.7397C34.5361 38.8202 34.5569 38.8857 34.5986 38.9393C34.6433 38.996 34.7029 39.0257 34.7804 39.0347C34.8042 39.0347 34.8251 39.0347 34.8459 39.0347C34.8578 39.0317 34.8668 39.0287 34.8727 39.0257V39.7378H34.685V39.9642H35.552C35.6921 39.9642 35.7934 39.9434 35.8529 39.9076C35.9125 39.8689 35.9423 39.7944 35.9423 39.6782V38.4805H35.6861V39.6097V39.6127ZM34.9145 38.8321C34.8936 38.8529 34.8668 38.8649 34.828 38.8649C34.7506 38.8649 34.7148 38.8261 34.7148 38.7546C34.7148 38.6831 34.7536 38.6384 34.828 38.6384C34.9025 38.6384 34.9413 38.6772 34.9413 38.7546C34.9413 38.7874 34.9323 38.8112 34.9145 38.8351M41.1145 12.7357C37.4529 12.7357 34.0028 15.5691 31.2409 19.2636L32.4833 19.7671C28.1066 21.793 26.0538 29.0597 26.0538 29.0597H30.4364C30.4364 29.0597 31.2945 25.6305 33.1328 21.6113C34.9681 17.5921 37.441 14.7975 40.2684 14.7975L40.2892 14.7855C43.1167 14.7855 43.2358 17.5921 41.77 21.6113C40.3071 25.6305 38.3467 29.0597 38.3467 29.0597H42.7323C45.9709 22.1953 47.8122 12.7357 41.1205 12.7357M37.2413 39.6187C37.2413 39.6693 37.2324 39.705 37.2175 39.7199C37.2026 39.7348 37.1669 39.7438 37.1073 39.7438H36.6186V39.6127C36.6186 39.5293 36.6395 39.4667 36.6842 39.425C36.7289 39.3833 36.8034 39.3594 36.9047 39.3594V39.1717C36.8242 39.1717 36.7468 39.1509 36.6693 39.1122C36.5918 39.0734 36.5531 39.0228 36.5531 38.9632C36.565 38.9751 36.571 38.984 36.5799 38.987C36.6216 39.0108 36.6723 39.0228 36.7319 39.0228C36.8242 39.0228 36.8927 38.993 36.9404 38.9393C36.9881 38.8857 37.0119 38.8172 37.0119 38.7338C37.0119 38.6503 36.9851 38.5908 36.9315 38.5371C36.8778 38.4835 36.8123 38.4567 36.7319 38.4567C36.6455 38.4567 36.568 38.4775 36.5024 38.5222C36.4369 38.5669 36.3922 38.6235 36.3654 38.6921C36.3416 38.7606 36.3297 38.8261 36.3297 38.8827C36.3297 38.9721 36.3505 39.0526 36.3922 39.1181C36.4339 39.1866 36.4935 39.2283 36.571 39.2492C36.5233 39.2701 36.4905 39.2909 36.4667 39.3118C36.3982 39.3773 36.3624 39.4756 36.3624 39.6037V39.9702H37.1788C37.3099 39.9702 37.3963 39.9553 37.435 39.9196C37.4737 39.8838 37.4946 39.8063 37.4946 39.6872V38.4895H37.2384V39.6187H37.2413ZM36.7319 38.6354C36.8004 38.6354 36.8361 38.6712 36.8361 38.7397C36.8361 38.8083 36.8004 38.844 36.7319 38.844C36.6633 38.844 36.6276 38.8083 36.6276 38.7397C36.6276 38.6712 36.6633 38.6354 36.7319 38.6354ZM36.3147 31.616C32.2062 29.8761 27.8742 30.2098 23.2562 31.5714H23.2532C15.334 33.9131 13.2067 34.3571 11.568 34.4405C11.568 34.4405 14.172 35.4594 18.6262 34.2856C18.6262 34.2856 19.9907 33.934 20.6551 33.788C21.251 33.6569 22.8688 33.4424 23.8073 33.4722C23.8073 33.4722 24.4866 33.4722 24.716 33.4841C24.9246 33.496 25.6188 33.5616 25.6188 33.5616C28.8782 33.8923 30.353 36.8389 30.353 36.8389C34.2739 35.0066 38.9813 36.0076 42.5625 37.0266C42.6429 37.0415 42.6519 36.9551 42.6608 36.8895C41.2933 34.2498 38.7906 32.7214 36.3147 31.616ZM39.1035 39.2909V38.4895H38.8502V39.2909C38.7578 39.3147 38.6685 39.3505 38.5791 39.4041C38.4897 39.4578 38.4212 39.5173 38.3675 39.5888V38.7129C38.3675 38.6384 38.3377 38.5759 38.2811 38.5252C38.2216 38.4746 38.153 38.4507 38.0756 38.4507C37.9832 38.4507 37.9117 38.4775 37.861 38.5371C37.8074 38.5937 37.7806 38.6623 37.7806 38.7427C37.7806 38.8232 37.8044 38.8917 37.8551 38.9483C37.9057 39.0049 37.9802 39.0347 38.0726 39.0347L38.1113 39.0287V39.9642H38.3675C38.3884 39.8778 38.445 39.7825 38.5403 39.6812C38.6327 39.5799 38.737 39.5144 38.8532 39.4786V39.7557C38.8532 39.8451 38.88 39.9076 38.9306 39.9494C38.9724 39.9821 39.026 39.997 39.0915 39.997C39.1749 39.997 39.2435 39.9672 39.3031 39.9047C39.3627 39.8421 39.3895 39.7646 39.3895 39.6723C39.3895 39.574 39.3656 39.4875 39.315 39.416C39.2673 39.3445 39.1958 39.3028 39.1064 39.2879M38.1649 38.8231C38.1471 38.844 38.1173 38.8559 38.0815 38.8559C38.004 38.8559 37.9683 38.8202 37.9683 38.7427C37.9683 38.6652 38.004 38.6265 38.0815 38.6265C38.159 38.6265 38.1947 38.6652 38.1947 38.7427C38.1947 38.7755 38.1858 38.7993 38.1649 38.8231ZM39.1928 39.7527C39.1809 39.7855 39.1601 39.8034 39.1392 39.8063C39.1183 39.8063 39.1094 39.7885 39.1094 39.7497V39.4786C39.1392 39.4846 39.163 39.5024 39.1869 39.5352C39.2077 39.565 39.2167 39.6037 39.2167 39.6514C39.2167 39.6872 39.2077 39.7199 39.1958 39.7557M26.0955 37.6135C26.0955 37.6642 26.0895 37.7089 26.0806 37.7476C26.0717 37.7863 26.0538 37.828 26.024 37.8727C25.9853 37.9293 25.9286 37.974 25.8571 38.0038C25.8184 38.0128 25.7797 38.0217 25.7409 38.0306C25.7588 38.0128 25.7707 37.9979 25.7797 37.983C25.8065 37.9323 25.8184 37.8668 25.8184 37.7833C25.8184 37.7148 25.7946 37.6463 25.7439 37.5867C25.6933 37.5241 25.6277 37.4944 25.5443 37.4944C25.4668 37.4944 25.4043 37.5212 25.3536 37.5718C25.303 37.6254 25.2791 37.688 25.2791 37.7595C25.2791 37.8936 25.3298 37.977 25.437 38.0068L25.5205 38.0306C25.5145 38.0545 25.4966 38.0783 25.4639 38.1051C25.4549 38.1111 25.44 38.12 25.4192 38.1319V38.2154C25.443 38.2213 25.4698 38.2243 25.4996 38.2303C25.5294 38.2303 25.5711 38.2332 25.6188 38.2332C25.6843 38.2332 25.7499 38.2273 25.8184 38.2154C25.8869 38.2005 25.9555 38.1796 26.021 38.1498C26.1342 38.0932 26.2176 38.0038 26.2683 37.8847C26.313 37.7804 26.3338 37.6612 26.3338 37.5212H26.0925V37.6165L26.0955 37.6135ZM25.6039 37.8251C25.589 37.8429 25.5652 37.8489 25.5413 37.8489C25.4877 37.8489 25.4609 37.8191 25.4609 37.7625C25.4609 37.7476 25.4668 37.7267 25.4788 37.7059C25.4907 37.682 25.5115 37.6731 25.5413 37.6731C25.5979 37.6731 25.6277 37.7029 25.6277 37.7655C25.6277 37.7893 25.6188 37.8102 25.6039 37.8251ZM20.0771 39.6157C20.0771 39.6663 20.0682 39.7021 20.0533 39.717C20.0384 39.7319 20.0027 39.7408 19.9431 39.7408H19.4545V39.6067C19.4545 39.5263 19.4753 39.4607 19.52 39.419C19.5647 39.3773 19.6362 39.3535 19.7405 39.3535V39.1628C19.66 39.1628 19.5826 39.1419 19.5051 39.1032C19.4276 39.0645 19.3889 39.0138 19.3889 38.9542C19.4008 38.9662 19.4098 38.9751 19.4157 38.9781C19.4545 39.0019 19.5081 39.0138 19.5677 39.0138C19.6571 39.0138 19.7286 38.987 19.7762 38.9304C19.8239 38.8768 19.8477 38.8083 19.8477 38.7248C19.8477 38.6414 19.8209 38.5818 19.7673 38.5282C19.7166 38.4746 19.6481 38.4477 19.5677 38.4477C19.4783 38.4477 19.4038 38.4686 19.3383 38.5133C19.2727 38.558 19.228 38.6146 19.2012 38.6831C19.1774 38.7516 19.1625 38.8172 19.1625 38.8738C19.1625 38.9632 19.1833 39.0436 19.228 39.1092C19.2697 39.1777 19.3293 39.2194 19.4038 39.2403C19.3591 39.2611 19.3234 39.282 19.2995 39.3028C19.231 39.3684 19.1953 39.4667 19.1953 39.5948V39.9613H20.0146C20.1457 39.9613 20.2321 39.9434 20.2708 39.9076C20.3125 39.8719 20.3304 39.7944 20.3304 39.6752V38.4775H20.0742V39.6067L20.0771 39.6157ZM19.5677 38.6325C19.6362 38.6325 19.672 38.6652 19.672 38.7367C19.672 38.8083 19.6362 38.841 19.5677 38.841C19.4992 38.841 19.4634 38.8053 19.4634 38.7367C19.4634 38.6682 19.4962 38.6325 19.5677 38.6325ZM22.7169 38.4418C22.55 38.4418 22.416 38.4924 22.3147 38.5967C22.2432 38.6652 22.1985 38.7487 22.1746 38.841L22.3951 38.9036C22.416 38.8232 22.4517 38.7606 22.5024 38.7099C22.553 38.6623 22.6186 38.6384 22.696 38.6384C22.7824 38.6384 22.848 38.6563 22.9016 38.695C22.9523 38.7308 22.9791 38.7963 22.9791 38.8827V39.9672H23.2353V38.8887C23.2353 38.7368 23.1966 38.6235 23.1161 38.549C23.0357 38.4775 22.9046 38.4418 22.7198 38.4418M21.3464 38.4448C21.1497 38.4448 20.9769 38.5014 20.822 38.6116C20.7713 38.6474 20.7177 38.701 20.6551 38.7725V38.8559C20.7147 38.8619 20.7773 38.8768 20.8488 38.8946C20.8697 38.9006 20.8965 38.9095 20.9233 38.9215C20.8309 38.984 20.7833 39.0913 20.7833 39.2462V39.9672H21.0395V39.2283C21.0395 39.1449 21.0633 39.0824 21.111 39.0347C21.1378 39.0079 21.1855 38.99 21.254 38.9811V38.8619C21.1914 38.8202 21.1259 38.7874 21.0544 38.7665C21.0306 38.7606 21.0008 38.7546 20.962 38.7487C21.0782 38.6712 21.1974 38.6325 21.3225 38.6325C21.4268 38.6325 21.5132 38.6593 21.5817 38.7159C21.6503 38.7695 21.683 38.847 21.683 38.9513V39.9672H21.9393V38.9364C21.9393 38.7785 21.8826 38.6563 21.7694 38.5729C21.6562 38.4895 21.5162 38.4448 21.3434 38.4448M18.2627 38.4388C18.0959 38.4388 17.9618 38.4895 17.8605 38.5937C17.792 38.6652 17.7443 38.7457 17.7205 38.838L17.938 38.9006C17.9588 38.8202 17.9946 38.7576 18.0452 38.7069C18.0959 38.6593 18.1614 38.6354 18.2389 38.6354C18.3223 38.6354 18.3908 38.6533 18.4415 38.6921C18.4921 38.7278 18.5189 38.7934 18.5189 38.8798V39.9672H18.7752V38.8887C18.7752 38.7368 18.7364 38.6235 18.656 38.552C18.5756 38.4805 18.4445 38.4418 18.2627 38.4418M25.9882 38.5699C25.8661 38.4805 25.7141 38.4358 25.5413 38.4358C25.3685 38.4358 25.2196 38.4835 25.0914 38.5788C24.9633 38.6742 24.9008 38.8053 24.9008 38.9751C24.9008 39.0645 24.9544 39.2164 25.0676 39.431C25.1182 39.5293 25.1421 39.6186 25.1421 39.708V39.9672H25.3983V39.3833C25.3983 39.3833 25.4311 39.3922 25.452 39.3952C25.4728 39.3982 25.4966 39.4011 25.5205 39.4011C25.6128 39.4011 25.6843 39.3743 25.735 39.3147C25.7856 39.2581 25.8124 39.1896 25.8124 39.1092C25.8124 39.0287 25.7856 38.9542 25.735 38.8976C25.6813 38.844 25.6098 38.8172 25.5205 38.8172C25.3715 38.8172 25.2702 38.8857 25.2195 39.0198C25.2017 39.0645 25.1927 39.13 25.1868 39.2224C25.1749 39.2075 25.1659 39.1956 25.1659 39.1866C25.1391 39.127 25.1242 39.0615 25.1242 38.984C25.1242 38.8768 25.1659 38.7904 25.2494 38.7278C25.3328 38.6652 25.4311 38.6354 25.5383 38.6354C25.6456 38.6354 25.738 38.6652 25.8154 38.7219C25.8899 38.7785 25.9286 38.8619 25.9286 38.9721V39.9702H26.1849V38.9572C26.1849 38.7904 26.1223 38.6623 26.0001 38.5729M25.443 39.0317C25.4639 39.0108 25.4907 38.9989 25.5264 38.9989C25.6009 38.9989 25.6397 39.0377 25.6397 39.1092C25.6397 39.139 25.6307 39.1658 25.6098 39.1896C25.592 39.2105 25.5622 39.2224 25.5264 39.2224C25.4549 39.2224 25.4162 39.1866 25.4162 39.1122C25.4162 39.0794 25.4251 39.0526 25.443 39.0317ZM28.4045 38.4567C28.2406 38.4567 28.0976 38.4984 27.9725 38.5848C27.8891 38.6384 27.8235 38.707 27.7759 38.7904L27.9367 38.9096C27.9904 38.8351 28.0529 38.7755 28.1215 38.7338C28.2019 38.6831 28.2943 38.6593 28.3956 38.6593C28.4879 38.6593 28.5684 38.6831 28.6339 38.7278C28.6995 38.7755 28.7322 38.85 28.7322 38.9542V39.7199C28.7322 39.7706 28.7233 39.7944 28.7084 39.7944C28.6935 39.7944 28.6816 39.7766 28.6727 39.7408L28.5058 39.1539C28.4581 39.0079 28.3568 38.9364 28.2019 38.9364C28.1125 38.9364 28.0381 38.9662 27.9874 39.0228C27.9338 39.0794 27.907 39.1479 27.907 39.2283C27.907 39.3088 27.9338 39.3773 27.9844 39.4339C28.0351 39.4905 28.1066 39.5203 28.2019 39.5203C28.2526 39.5203 28.2972 39.5114 28.327 39.4965C28.336 39.4935 28.3449 39.4846 28.3568 39.4726L28.4343 39.7706C28.4552 39.851 28.4879 39.9047 28.5296 39.9345C28.5743 39.9643 28.6309 39.9821 28.7054 39.9821C28.7859 39.9821 28.8484 39.9643 28.8931 39.9285C28.9497 39.8808 28.9795 39.7944 28.9795 39.6663V38.9453C28.9795 38.7904 28.9259 38.6712 28.8157 38.5848C28.7054 38.4984 28.5684 38.4567 28.3985 38.4567M28.2883 39.3088C28.2704 39.3326 28.2406 39.3416 28.2049 39.3416C28.1274 39.3416 28.0917 39.3028 28.0917 39.2283C28.0917 39.1539 28.1304 39.1151 28.2049 39.1151C28.2794 39.1151 28.3181 39.1509 28.3181 39.2283C28.3181 39.2611 28.3092 39.2879 28.2883 39.3088ZM17.2348 39.562C17.1872 39.5084 17.1455 39.4697 17.1097 39.4429C16.9965 39.3594 16.8654 39.3058 16.7164 39.282V38.7189C16.7164 38.6474 16.6866 38.5848 16.63 38.5342C16.5734 38.4835 16.5049 38.4567 16.4244 38.4567C16.3291 38.4567 16.2546 38.4865 16.204 38.5431C16.1533 38.5997 16.1295 38.6682 16.1295 38.7516C16.1295 38.8351 16.1563 38.9036 16.2069 38.9572C16.2576 39.0138 16.3291 39.0436 16.4244 39.0436H16.4602V39.2849C16.3649 39.2849 16.2904 39.3207 16.2338 39.3922C16.1742 39.4667 16.1444 39.5591 16.1444 39.6723C16.1444 39.7706 16.1742 39.851 16.2338 39.9076C16.2933 39.9672 16.3708 39.997 16.4751 39.997C16.5377 39.997 16.5943 39.9732 16.6449 39.9285C16.6926 39.8838 16.7164 39.8183 16.7164 39.7318V39.4756C16.8475 39.4965 16.9667 39.562 17.0739 39.6782C17.1633 39.7736 17.2229 39.8689 17.2467 39.9642H17.491V38.4835H17.2348V39.5591V39.562ZM16.4602 39.7557C16.4602 39.7944 16.4483 39.8093 16.4244 39.8093C16.3648 39.8093 16.3321 39.7587 16.3321 39.6514C16.3321 39.6008 16.344 39.559 16.3678 39.5263C16.3917 39.4935 16.4215 39.4786 16.4572 39.4786V39.7557H16.4602ZM16.5108 38.8351C16.493 38.8559 16.4632 38.8678 16.4244 38.8678C16.3499 38.8678 16.3112 38.8291 16.3112 38.7546C16.3112 38.6801 16.3499 38.6384 16.4244 38.6384C16.4989 38.6384 16.5376 38.6772 16.5376 38.7546C16.5376 38.7874 16.5287 38.8142 16.5108 38.8351ZM29.9299 38.4537C29.7393 38.4537 29.5814 38.5133 29.4532 38.6295C29.3371 38.7368 29.2804 38.8619 29.2804 38.996C29.2804 39.0883 29.2983 39.1836 29.3311 39.2879C29.3668 39.3892 29.4175 39.5024 29.4801 39.6246C29.4979 39.6782 29.5069 39.7289 29.5099 39.7765C29.5128 39.8272 29.5158 39.8898 29.5158 39.9702H29.7333L30.1385 39.3714C30.1862 39.2999 30.213 39.2134 30.213 39.1181C30.213 39.0287 30.1862 38.9602 30.1355 38.9036C30.0849 38.85 30.0134 38.8231 29.921 38.8231C29.8287 38.8231 29.7601 38.85 29.7065 38.9066C29.6529 38.9632 29.629 39.0317 29.629 39.1122C29.629 39.1866 29.6529 39.2522 29.6976 39.3088C29.7423 39.3684 29.7989 39.4011 29.8614 39.4071L29.6856 39.6574C29.6856 39.6574 29.6856 39.6186 29.6797 39.5829C29.6797 39.5471 29.6558 39.4876 29.6141 39.4071C29.5605 39.2999 29.5248 39.2224 29.5128 39.1837C29.5009 39.1419 29.495 39.0913 29.495 39.0257C29.495 38.9125 29.5397 38.8232 29.6261 38.7606C29.7125 38.698 29.8167 38.6682 29.9359 38.6682C30.0402 38.6682 30.1296 38.6891 30.2011 38.7367C30.2726 38.7814 30.3083 38.85 30.3083 38.9423V39.9732H30.5646V38.9602C30.5646 38.8202 30.5169 38.704 30.4186 38.6116C30.3083 38.5073 30.1445 38.4537 29.927 38.4537M29.8078 39.1211C29.8078 39.0466 29.8435 39.0079 29.918 39.0079C29.9925 39.0079 30.0283 39.0466 30.0283 39.1211C30.0283 39.1539 30.0193 39.1807 30.0014 39.2015C29.9836 39.2254 29.9538 39.2343 29.918 39.2343C29.8435 39.2343 29.8078 39.1956 29.8078 39.1211ZM24.004 38.6325C24.0665 38.6325 24.1559 38.6504 24.2721 38.6861C24.3913 38.7219 24.4836 38.7397 24.5492 38.7397C24.6147 38.7397 24.6892 38.7248 24.7637 38.6921L24.7101 38.4984C24.6505 38.5282 24.5969 38.5431 24.5492 38.5431C24.5134 38.5431 24.4568 38.5312 24.3794 38.5073C24.2334 38.4626 24.1142 38.4418 24.0248 38.4418C23.8997 38.4418 23.7865 38.4805 23.6792 38.561C23.5958 38.6235 23.5332 38.695 23.4915 38.7814V38.9155C23.6375 38.9155 23.7924 38.9274 23.9563 38.9483C24.1202 38.9691 24.2185 38.9959 24.2572 39.0257C24.2959 39.0555 24.3198 39.0853 24.3257 39.1181C24.3347 39.1479 24.3377 39.1896 24.3377 39.2373V39.3982H24.284C24.1857 39.3982 24.1112 39.428 24.0606 39.4846C24.0099 39.5412 23.9831 39.6127 23.9831 39.6931C23.9831 39.7736 24.0099 39.8421 24.0636 39.8987C24.1172 39.9583 24.1887 39.9881 24.2811 39.9881C24.3675 39.9881 24.439 39.9583 24.5015 39.9017C24.5641 39.8451 24.5939 39.7706 24.5939 39.6872V39.2403C24.5939 39.1658 24.5849 39.1032 24.57 39.0496C24.5552 38.996 24.5224 38.9483 24.4747 38.9125C24.3943 38.85 24.2959 38.8053 24.1827 38.7844C24.0665 38.7636 23.9533 38.7516 23.849 38.7516H23.7716C23.7924 38.7218 23.8103 38.701 23.8252 38.6921C23.8729 38.6533 23.9295 38.6354 24.001 38.6354M24.4032 39.6961C24.4032 39.7259 24.3943 39.7557 24.3734 39.7765C24.3555 39.8004 24.3257 39.8093 24.287 39.8093C24.2095 39.8093 24.1708 39.7706 24.1708 39.6961C24.1708 39.6216 24.2095 39.5829 24.287 39.5829C24.3645 39.5829 24.4032 39.6186 24.4032 39.6961Z" fill="white"/>
</svg>
