<svg width="63" height="40" viewBox="0 0 63 40" fill="none" xmlns="http://www.w3.org/2000/svg">
<g clip-path="url(#clip0_101_19691)">
<path d="M62.7569 0H0.650879V40H62.7569V0Z" fill="black"/>
<path d="M40.3842 13.3667C40.3842 13.3667 39.5721 13.6909 38.6296 14.7303C37.6842 15.7727 37.1357 16.9394 37.5418 17.2485C37.6963 17.3667 38.0569 17.3879 38.7115 16.8C39.2236 16.3424 39.7418 15.7424 40.0963 14.8818C40.5206 13.8515 40.3842 13.3788 40.3842 13.3667ZM45.5478 15.2394C44.4993 14.703 43.7357 14.0455 42.9357 13.6364C42.1751 13.2455 41.6842 13.0818 41.069 13.1636C40.969 13.1788 40.8145 13.2273 40.8145 13.2273C40.8145 13.2273 41.1296 14.3091 39.8721 16.1273C38.5963 17.9667 37.4387 17.9576 37.1084 17.4485C36.763 16.9152 37.2084 15.8242 37.9509 14.8576C38.7296 13.8455 40.0963 13.003 40.0963 13.003C40.0963 13.003 39.6599 12.7364 38.5902 13.3424C37.5478 13.9333 35.7448 15.3394 34.0812 17.7121C32.4145 20.0849 32.0812 21.3909 31.8418 22.4182C31.5993 23.4455 31.8206 24.5455 32.9599 24.5455C34.0993 24.5455 35.4266 22.8061 35.8024 22.203C36.4993 21.0788 36.9509 19.3515 36.0054 19.5879C35.5387 19.703 35.163 20.2212 34.9236 20.7182C34.6781 21.2303 34.5812 21.7182 34.5812 21.7182C34.5812 21.7182 34.1872 21.8576 33.6569 22.2545C33.1266 22.6515 32.7812 23.0273 32.7812 23.0273C32.7812 23.0273 32.7842 22.2061 33.4418 20.8758C34.0963 19.5455 35.2993 18.9364 35.9812 18.8818C36.5963 18.8333 37.3933 19.3545 36.7175 21.2758C36.0418 23.2 34.0448 25.5303 31.9478 25.5606C30.0145 25.5879 28.7448 23.1182 31.4387 18.8091C34.4175 14.0424 37.9175 12.5818 39.0539 12.4182C40.1902 12.2545 40.5569 12.7576 40.5569 12.7576C40.5569 12.7576 41.5084 12.3182 42.7145 12.4C44.1024 12.4939 45.1751 13.4758 46.5872 14.1636C46.2175 14.5212 45.866 14.8909 45.5509 15.2364M51.7781 13.6333C50.8175 14.2485 49.4872 14.8091 48.2084 14.6849C47.8842 15.0212 47.5387 15.4061 47.1903 15.8303C49.4054 16.2697 51.3448 14.897 52.3781 13.7273C53.0236 12.997 53.3418 12.3455 53.3418 12.3455C53.3418 12.3455 52.7266 13.0212 51.7751 13.6333M48.8266 19.8758C48.8539 19.8273 48.866 19.7849 48.866 19.7849C48.866 19.7849 48.8418 19.597 48.663 19.5909C48.4509 19.5818 48.163 19.6212 47.4084 20.4576C46.6569 21.2879 46.1993 22.0121 45.8054 22.7333C45.3721 23.5242 45.1993 24.1121 45.4478 24.2636C45.5175 24.3061 45.6236 24.3121 45.7084 24.2909C45.8781 24.2485 46.066 24.0939 46.3569 23.7576C46.4933 23.6 46.6448 23.3758 46.8236 23.1303C47.3205 22.4515 48.5751 20.3091 48.8236 19.8788M40.9812 20.7879C41.1084 20.4576 41.266 19.8121 40.9327 19.5576C40.5751 19.2879 39.6599 19.9212 39.6569 20.5697C39.6509 21.2333 40.2993 21.5333 40.4569 21.5758C40.5448 21.6 40.5751 21.597 40.6206 21.5242C40.6478 21.4788 40.8569 21.1152 40.9842 20.7879M40.2933 21.9939C40.269 21.9849 39.9721 21.8515 39.666 21.5939C39.3599 21.3394 39.2054 21.0455 39.1933 21.0212C39.1812 21 39.169 21.0152 39.1539 21.0333C39.1418 21.0515 39.0842 21.1 38.5963 21.8152C38.1084 22.5303 37.363 24.0061 38.0387 24.2576C38.4721 24.4182 39.1933 23.6606 39.5902 23.1576C39.9569 22.6909 40.2993 22.097 40.3175 22.0515C40.3357 22.0091 40.3175 21.997 40.2963 21.9879M47.9721 23.6939C47.7872 23.9879 47.5781 24.5515 48.1872 24.2C48.9266 23.7727 49.9812 22.1758 49.9812 22.1758H50.4569C50.4569 22.1758 49.8296 23.1697 49.0084 24.0758C48.2599 24.9061 47.3448 25.6606 46.7024 25.5849C45.9509 25.497 46.1872 24.5091 46.1872 24.5091C46.1872 24.5091 45.1084 25.6545 44.366 25.5727C43.3599 25.4606 43.669 24.2182 43.669 24.2182C43.669 24.2182 42.5327 25.6152 41.7569 25.5697C40.5418 25.5 40.8478 24.0182 41.1842 22.9818C41.366 22.4273 41.5327 21.9879 41.5327 21.9879C41.5327 21.9879 41.4115 22.0212 41.1539 22.0576C41.0175 22.0758 40.7721 22.0909 40.7721 22.0909C40.7721 22.0909 40.266 22.9849 39.863 23.5212C39.4569 24.0576 37.7387 25.9061 36.7266 25.5364C35.7902 25.1939 36.0993 23.7606 36.6448 22.6242C37.4387 20.9667 39.6751 18.5818 40.963 18.8939C42.2993 19.2182 40.9933 21.6576 40.9933 21.6576C40.9933 21.6576 40.9933 21.6667 41.0084 21.6727C41.0357 21.6818 41.1054 21.6909 41.266 21.6606C41.5236 21.6121 41.7539 21.5152 41.7539 21.5152C41.7539 21.5152 43.0963 18.7 44.5812 16.8606C46.066 15.0182 49.0266 11.8515 50.1903 12.6182C50.4751 12.8061 50.3448 13.4576 49.963 14.2455C49.7933 14.3 49.6175 14.3455 49.4387 14.3818C49.6933 13.9182 49.866 13.5242 49.9145 13.2515C50.0872 12.3 47.869 14.3061 46.2812 16.4636C44.6933 18.6212 43.7418 20.5758 43.7418 20.5758C43.7418 20.5758 44.063 20.3939 44.5599 19.9939C45.0812 19.5758 45.7963 18.9182 46.5751 18.1121C47.0993 17.5697 47.7145 16.8909 48.2902 16.1333C48.463 16.1242 48.6296 16.1061 48.7963 16.0818C48.1539 16.9455 47.4781 17.7364 46.9054 18.3182C46.2751 18.9576 45.5872 19.6485 44.9902 20.1485C44.0418 20.9455 43.3115 21.3939 43.3115 21.3939C43.3115 21.3939 41.9205 24.1909 42.6751 24.3697C43.1175 24.4758 43.9963 23.1242 43.9963 23.1242C43.9963 23.1242 45.1387 21.3788 45.8296 20.5939C46.7721 19.5242 47.5781 18.9061 48.3872 18.8939C48.8599 18.8849 49.1357 19.3879 49.1357 19.3879L49.3569 19.0455H50.7236C50.7236 19.0455 48.1751 23.3697 47.9721 23.697M51.7781 13.6303C50.8175 14.2455 49.4872 14.8061 48.2084 14.6818C47.8842 15.0182 47.5387 15.403 47.1903 15.8273C49.4054 16.2667 51.3448 14.8939 52.3781 13.7242C53.0236 12.9939 53.3418 12.3424 53.3418 12.3424C53.3418 12.3424 52.7266 13.0182 51.7751 13.6303M32.6084 15.7545H31.3115L30.5781 16.9394H31.8751L32.6084 15.7545ZM26.4599 19.8606C27.0115 19.103 28.5357 16.4515 28.5357 16.4515C28.5357 16.4515 28.5115 16.2636 28.3327 16.2576C28.1206 16.2485 27.7721 16.3182 27.0721 17.1939C26.3721 18.0667 25.8327 18.7636 25.4357 19.4879C25.0024 20.2788 24.8145 20.8364 25.063 20.9879C25.1327 21.0303 25.2387 21.0364 25.3236 21.0152C25.4872 20.9758 25.6963 20.8121 25.9872 20.4788C26.1236 20.3212 26.2781 20.1121 26.4569 19.8636M19.4933 16.2758C19.1357 16.0061 18.2206 16.6394 18.2175 17.2849C18.2115 17.9485 19.0418 18.1394 19.1478 18.1455C19.1478 18.1455 19.2418 18.1697 19.2781 18.0909C19.3024 18.0424 19.4145 17.8333 19.5418 17.503C19.669 17.1727 19.8266 16.5273 19.4933 16.2727M18.9509 18.5606C18.9266 18.5515 18.5842 18.4545 18.2478 18.2364C17.9115 18.0212 17.7569 17.703 17.7448 17.6818C17.7327 17.6606 17.7175 17.6758 17.7054 17.697C17.6902 17.7152 17.6206 17.8061 17.1327 18.5242C16.6448 19.2394 15.9206 20.7061 16.5993 20.9576C17.0327 21.1182 17.7599 20.3576 18.1539 19.8545C18.5206 19.3879 18.9539 18.6697 18.9751 18.6273C18.9933 18.5849 18.9751 18.5727 18.9539 18.5667M29.5599 19.0091H30.0357C30.0357 19.0091 27.6509 22.4515 26.3054 22.297C25.5539 22.2091 25.7751 21.2818 25.7751 21.2818C25.7751 21.2818 24.7175 22.5182 23.7509 22.2697C22.8721 22.0424 23.4387 20.5818 23.4387 20.5818C23.3387 20.6212 21.4357 22.7667 20.0993 22.2515C18.6993 21.7121 19.4266 19.9152 19.6933 19.3758C19.9175 18.9212 20.169 18.4758 20.169 18.4758C20.169 18.4758 19.9539 18.5364 19.8206 18.5667C19.6872 18.597 19.4842 18.6364 19.4842 18.6364C19.4842 18.6364 18.8206 19.7121 18.4175 20.2485C18.0115 20.7849 16.2933 22.6303 15.2812 22.2636C14.269 21.8939 14.5206 20.4788 15.0902 19.3545C16.0145 17.5273 18.2024 15.2849 19.5206 15.6212C20.8539 15.9606 19.7509 18.1242 19.7509 18.1242C19.7509 18.1242 20.0145 18.1576 20.6509 17.7242C21.566 17.1 22.7721 15.4212 24.0781 15.6182C24.6933 15.7091 25.263 16.3394 24.4812 17.5364C24.2296 17.9212 23.8115 18.2636 23.4872 17.9242C23.2872 17.7152 23.463 17.3303 23.6721 17.0636C23.969 16.6909 24.3781 16.7424 24.3781 16.7424C24.3781 16.7424 24.5933 16.2455 24.0448 16.2576C23.5993 16.2667 22.4751 17.303 21.8387 18.3485C21.2539 19.3091 20.3721 20.9485 21.2599 21.303C22.0721 21.6303 23.6175 19.797 24.3357 18.8333C25.0509 17.8727 26.6812 15.6909 28.0509 15.603C28.5206 15.5727 28.8024 16.003 28.8024 16.003L28.9599 15.7515H30.3266C30.3266 15.7515 27.7478 20.0545 27.5478 20.3818C27.3902 20.6364 27.1781 21.2091 27.763 20.8879C28.3478 20.5667 29.5599 19.0061 29.5599 19.0061M28.8145 25.9C27.7812 25.1727 26.5206 24.8515 25.3751 24.897C24.2175 24.9424 23.6963 25.8061 23.6963 25.8061C23.1751 24.8939 22.1418 24.3333 20.5448 24.3485C17.966 24.3758 15.4084 25.5667 13.3812 25.5667C11.4357 25.5667 10.0206 24.3455 10.066 22.1758C10.1509 18.3727 13.366 14.9485 15.766 13.4061C17.1448 12.5212 18.3024 12.2576 19.0599 12.3424C19.6115 12.403 20.2751 13.0424 19.8569 13.9788C19.2418 15.3545 18.3933 15.2394 18.4236 14.5818C18.4418 14.1545 18.7266 13.8849 18.9387 13.7394C19.0751 13.6455 19.3145 13.6182 19.4387 13.6152C19.5599 13.5121 19.6539 12.7606 18.663 13.0091C17.6721 13.2576 16.4842 14.2273 15.3478 15.4788C14.2115 16.7303 12.4448 19.103 12.0084 21.5939C11.8054 22.7485 11.9387 24.8545 14.6751 24.8303C16.9933 24.8121 20.4206 23.2849 23.563 23.3152C24.7842 23.3273 25.8448 23.6545 26.6721 24.1667C27.4902 24.6697 28.463 25.403 28.8084 25.903" fill="white"/>
<path d="M36.8115 10.0728H34.8721V9.31821H36.1782V8.69094H34.8721V8.04549H36.7661L36.857 7.42427H34.157V10.7H36.8994L36.8085 10.0788L36.8115 10.0728ZM32.4934 7.41821V8.60609H30.8176V7.41821H30.1055V10.694H30.8176V9.24246H32.4934V10.694H33.2085V7.41821H32.4964H32.4934ZM29.4024 7.41821H26.5024V8.05761H27.5934V10.694H28.3085V8.06064H29.3994V7.42124L29.4024 7.41821Z" fill="white"/>
<path d="M44.9388 29.2637H44.151L43.2934 30.7971L42.4267 29.2637H41.6207L42.9297 31.4547V32.5425H43.6449V31.4425L44.9388 29.2668V29.2637ZM40.36 29.2637V31.485L38.7904 29.2637H38.0479V32.5395H38.7419V30.2819L40.3328 32.5395H41.051V29.2637H40.354H40.36ZM35.1934 31.191L35.6813 29.894L36.1691 31.191H35.1934ZM36.6722 32.5395H37.4237L36.1237 29.2637H35.2449L33.9419 32.5395H34.6873L34.96 31.8122H36.3994L36.6722 32.5425V32.5395ZM32.7631 30.7092H31.8116V29.894H32.7631C32.9055 29.894 33.0176 29.9304 33.0964 30.0001C33.1752 30.0698 33.2146 30.1698 33.2146 30.3001C33.2146 30.4304 33.1752 30.5304 33.0964 30.6031C33.0176 30.6728 32.9055 30.7092 32.7631 30.7092ZM32.7813 29.2607H31.0964V32.5365H31.8116V31.3395H32.7813C33.0297 31.3395 33.2419 31.294 33.4146 31.2031C33.5873 31.1122 33.7176 30.988 33.8055 30.8304C33.8934 30.6728 33.9388 30.4941 33.9388 30.2971C33.9388 30.1001 33.8964 29.9213 33.8085 29.7637C33.7207 29.6062 33.5903 29.4819 33.4176 29.394C33.2449 29.3062 33.0328 29.2607 32.7843 29.2607M30.1479 29.2607H29.1873L28.2237 31.5365L27.2419 29.2607H26.2813V32.5365H26.9722V30.194L27.9691 32.4941H28.4479L29.454 30.1365V32.5395H30.1449V29.2637L30.1479 29.2607ZM23.76 31.9456C23.5661 31.9456 23.3934 31.9001 23.2388 31.8122C23.0843 31.7213 22.9661 31.5971 22.8782 31.4395C22.7903 31.2789 22.7479 31.1001 22.7479 30.8971C22.7479 30.694 22.7903 30.5122 22.8782 30.3516C22.9631 30.191 23.0843 30.0668 23.2388 29.9789C23.3903 29.888 23.5661 29.8456 23.76 29.8456C23.954 29.8456 24.1267 29.891 24.2813 29.9819C24.4358 30.0728 24.554 30.194 24.6388 30.3547C24.7267 30.5122 24.7691 30.694 24.7691 30.9001C24.7691 31.1031 24.7267 31.285 24.6388 31.4425C24.554 31.6031 24.4328 31.7244 24.2782 31.8153C24.1237 31.9062 23.951 31.9486 23.757 31.9486M23.757 32.594C24.0934 32.594 24.3964 32.5213 24.66 32.3789C24.9267 32.2334 25.1328 32.0334 25.2843 31.7759C25.4358 31.5183 25.5085 31.2244 25.5085 30.8971C25.5085 30.5698 25.4328 30.2759 25.2843 30.0183C25.1358 29.7607 24.9267 29.5577 24.66 29.4153C24.3934 29.2728 24.0934 29.2001 23.757 29.2001C23.4207 29.2001 23.1207 29.2728 22.854 29.4153C22.5873 29.5607 22.3813 29.7607 22.2297 30.0183C22.0782 30.2759 22.0025 30.5698 22.0025 30.8971C22.0025 31.2244 22.0782 31.5183 22.2267 31.7759C22.3752 32.0334 22.5843 32.2334 22.851 32.3789C23.1176 32.5213 23.4176 32.594 23.754 32.594M20.3146 32.594C20.5813 32.594 20.8328 32.5516 21.0631 32.4637C21.2964 32.3789 21.4873 32.2486 21.6358 32.0759L21.1903 31.588C20.954 31.8274 20.6661 31.9456 20.3297 31.9456C20.1176 31.9456 19.9237 31.9001 19.754 31.8062C19.5813 31.7122 19.4479 31.588 19.354 31.4274C19.26 31.2668 19.2116 31.091 19.2116 30.891C19.2116 30.691 19.26 30.5153 19.357 30.3547C19.454 30.194 19.5873 30.0698 19.757 29.9759C19.9267 29.8819 20.1146 29.8365 20.3237 29.8365C20.4843 29.8365 20.6328 29.8668 20.7722 29.9244C20.9116 29.985 21.0419 30.0789 21.1691 30.2062L21.6146 29.7092C21.4691 29.5395 21.2813 29.4092 21.054 29.3213C20.8237 29.2334 20.5752 29.188 20.3055 29.188C19.957 29.188 19.6419 29.2607 19.3631 29.4092C19.0843 29.5547 18.8661 29.7577 18.7085 30.0183C18.551 30.2789 18.4722 30.5668 18.4722 30.885C18.4722 31.2031 18.551 31.494 18.7085 31.7516C18.8661 32.0092 19.0843 32.2153 19.3661 32.3607C19.6449 32.5092 19.9631 32.5819 20.3207 32.5819" fill="white"/>
</g>
<defs>
<clipPath id="clip0_101_19691">
<rect width="62.1061" height="40" fill="white" transform="translate(0.650879)"/>
</clipPath>
</defs>
</svg>
