<svg width="124" height="40" viewBox="0 0 124 40" fill="none" xmlns="http://www.w3.org/2000/svg">
<path fill-rule="evenodd" clip-rule="evenodd" d="M25.8018 34.3868C13.5954 37.6109 10.3017 35.7669 10.3017 35.7669C2.51979 33.7895 5.74972 23.5663 5.74972 23.5663C9.87844 11.3135 19.0985 5.39295 19.0985 5.39295C27.959 -0.649362 29.7508 3.24161 29.7508 3.24161C31.3686 6.52951 24.7233 14.7232 10.122 17.4718L10.3597 23.6881C16.344 26.4367 18.681 31.1569 20.235 34.149L24.8451 19.8029C26.0976 15.4364 28.0112 15.8597 28.8578 15.9757C32.1515 16.8107 31.0671 20.8177 31.0671 20.8177C30.2321 25.3581 27.1182 24.7029 27.1182 24.7029C29.7508 22.6095 28.4925 21.1134 27.2979 21.1134C24.9668 21.2932 25.0828 23.5083 25.3263 24.3433C26.7586 27.2717 31.0149 25.7814 32.3892 22.5515C36.2802 12.4501 28.4403 11.4875 28.4403 11.4875C31.4324 9.22014 31.9079 5.09142 31.9079 4.13462C31.1889 -1.48438 23.8883 0.133472 23.1692 0.487197C10.841 3.83309 1.02369 17.408 0.0668983 25.9496C-1.12765 40.835 14.0709 38.6837 14.0709 38.6837C16.6456 38.4401 31.0671 33.3662 35.4394 39.2809C38.072 38.0806 43.5171 38.0806 47.7734 40C41.7253 29.8348 25.8076 34.381 25.8076 34.381M18.4432 27.8052C18.0257 26.3091 13.1779 20.3306 13.1779 20.3306C15.7468 19.6173 21.8007 16.4454 22.0326 16.2077L18.4432 27.8052Z" fill="white"/>
<path fill-rule="evenodd" clip-rule="evenodd" d="M32.3833 27.092L34.5404 30.7394L40.9423 11.5513H33.1661L32.8066 13.3431L37.0513 13.4011L32.3833 27.092Z" fill="white"/>
<path fill-rule="evenodd" clip-rule="evenodd" d="M42.4557 11.5512L42.0962 13.343L50.5218 13.3662L50.0405 14.6014C50.0405 14.6014 41.5395 16.8107 40.7625 17.6457L41.5395 21.2931C43.0936 21.7686 47.0483 27.811 47.8254 30.9771L51.7163 19.4955C52.6731 16.6251 55.903 19.0142 55.5493 22.3659C55.1898 27.2079 52.5514 27.0861 52.6731 25.8336C54.7085 25.4683 54.8941 22.7196 53.2124 22.7834C50.2203 23.3807 50.9915 26.8426 52.2556 27.4398C52.9689 28.1009 56.9816 28.3966 57.8225 20.6263C57.9964 17.9357 57.3991 14.8855 53.3342 14.6535L53.8213 13.372L61.6264 13.3952L56.9584 27.0861L59.1156 30.7335L65.5174 11.5454H42.4615L42.4557 11.5512ZM46.6888 24.7608C46.6888 24.7608 46.1495 22.3079 44.1779 20.4581C45.848 19.6753 47.4079 19.3216 48.6082 19.1998L46.6888 24.7608Z" fill="white"/>
<path fill-rule="evenodd" clip-rule="evenodd" d="M68.8923 11.4875H66.9787L66.4395 12.9256H68.3588L68.8923 11.4875Z" fill="white"/>
<path fill-rule="evenodd" clip-rule="evenodd" d="M89.3621 20.2146C87.9878 20.1509 86.4917 23.3866 89.6057 24.8769C95.59 26.7267 98.8837 16.1497 91.2235 14.1781C95.2305 11.6673 97.8109 2.5806 92.1223 0.968543C92.1223 0.968543 83.6851 -2.08161 73.2067 9.45794C73.2067 9.45794 61.2961 23.1488 66.0859 34.6884C66.0859 34.6884 68.5387 41.9774 79.5506 39.4086C79.5506 39.4086 89.6057 37.1355 91.7048 29.9044C91.7048 29.9044 92.4818 26.6165 89.1302 26.7963C89.1302 26.7963 85.1754 27.6313 83.5691 33.9113C83.5691 33.9113 86.138 32.2935 87.3383 32.0557C87.3383 32.0557 87.8196 28.0546 89.6115 28.7678C89.6115 28.7678 90.806 29.7826 87.8196 33.1343C87.8196 33.1343 80.9365 39.8957 74.0476 36.2424C74.0476 36.2424 69.5593 34.1491 70.4581 24.8827C70.7597 21.6585 72.911 13.2909 80.8727 6.77311C82.8501 4.80153 92.2441 -0.341978 92.9631 5.15525C93.3227 14.1839 75.9669 18.7882 73.4561 19.6232L73.9316 25.7757C76.9295 26.6165 81.5918 32.8328 82.131 34.1491L86.7411 20.9975C88.3589 17.2283 91.5251 17.2283 92.7254 19.2057C93.6822 20.696 92.7892 23.9896 90.632 23.2706C91.9483 22.9691 91.6526 19.9189 89.3737 20.2205M80.3972 28.762C80.1595 27.0282 76.4483 23.1488 76.4483 23.1488C77.6428 22.7255 83.4532 20.0987 83.4532 20.0987L80.3972 28.762Z" fill="white"/>
<path fill-rule="evenodd" clip-rule="evenodd" d="M96.5582 15.1638L96.2045 16.9556L98.8371 17.0136L93.885 31.2728L96.0363 34.9202L102.728 15.1638H96.5582Z" fill="white"/>
<path fill-rule="evenodd" clip-rule="evenodd" d="M117.428 14.8971L119.046 9.3999H106.057L105.338 11.4353H114.975L113.062 17.6516C111.745 17.0543 110.847 17.7733 110.847 17.7733C110.191 14.5434 103.488 14.6652 101.453 22.1398C99.4173 29.6086 103.604 29.7246 103.604 29.7246C107.437 29.6028 108.516 23.8098 106.602 21.7107L104.381 24.0998C105.877 27.985 103.963 28.2227 103.963 28.2227C101.685 28.5242 102.583 24.6333 102.583 24.6333C103.244 19.9131 107.785 17.582 108.446 22.25C109.826 20.1566 111.682 20.4582 111.919 20.7539L108.927 29.9565L111.264 33.7199L116.831 16.9847L119.284 17.0427L115.033 29.713L117.422 33.2966L123.349 14.8855H117.422L117.428 14.8971Z" fill="white"/>
<path d="M121.308 31.7427H120.664V33.3431H120.409V31.7427H119.759V31.5107H121.308V31.7427Z" fill="white"/>
<path d="M123.72 33.3431H123.47V31.8239L122.775 33.3084H122.601L121.91 31.8471V33.3431H121.667V31.5107H122.009L122.688 32.972L123.372 31.5107H123.72V33.3431Z" fill="white"/>
</svg>
