<svg width="162" height="40" viewBox="0 0 162 40" fill="none" xmlns="http://www.w3.org/2000/svg">
<path d="M83.2453 20.0506H82.3471C82.3471 20.0506 78.6656 25.1237 77.3992 25.6538C76.1328 26.184 75.8677 25.6538 75.9708 25.2047C76.0223 24.9617 84.5559 9.9488 84.5559 9.9488H79.9762L79.2841 11.1931C78.9012 10.7734 78.003 9.9488 76.8396 9.9488C75.2787 9.9488 72.6575 10.7366 69.6829 13.8879C67.7097 15.979 64.8381 19.4175 63.4171 22.7381C62.6587 23.7616 61.5249 25.2047 61.1125 25.617C60.5235 26.2281 59.1466 26.9718 58.6386 26.5594C58.1306 26.1471 58.7932 24.9322 58.7932 24.9322C58.7932 24.9322 60.1112 22.4215 60.3615 21.6779C60.6192 20.9342 60.5161 19.9697 59.8314 19.3217C59.1466 18.6738 57.9465 18.6002 57.7256 18.5192C57.5121 18.4382 57.6888 18.3646 57.6888 18.3646C59.5737 18.07 61.0831 16.973 61.8341 16.1042C62.5777 15.2427 64.2491 12.4742 64.6025 11.9441C64.9559 11.414 65.464 11.0238 66.2297 10.9796C66.9955 10.9354 67.29 11.4655 67.2679 11.7232C67.2532 11.9809 66.8556 12.0546 66.6568 12.0546C66.458 12.0546 65.7143 12.1135 65.302 12.7614C64.8897 13.4094 64.3596 14.8598 65.7585 14.9187C67.1501 14.9776 67.8937 13.0707 67.8937 13.0707C67.8937 13.0707 69.035 9.9488 66.0088 9.9488C62.9827 9.9488 59.7283 14.6831 59.2571 15.3531C58.7858 16.0231 58.2115 16.8257 57.1366 17.6135C56.3708 18.1731 55.5241 18.2173 55.0971 18.1952L59.7062 9.95617H55.583L53.9779 12.8645C52.2697 14.661 50.3701 16.3839 47.9919 17.9375C47.5796 18.2026 47.1893 18.4161 46.8285 18.5707C47.0273 18.2026 47.2261 17.827 47.4028 17.4663C48.4852 15.2721 48.8165 12.6289 48.2201 11.2299C47.6164 9.83099 45.9008 9.52911 44.2 9.89726C42.4992 10.2654 40.305 11.981 40.305 11.981C37.7207 14.1162 34.5325 18.2026 32.655 21.7294C30.7775 25.2489 30.9395 29.9611 35.3277 29.9832C39.7234 29.9979 44.5902 22.3111 44.5902 22.3111C44.5902 22.3111 45.3044 21.2213 46.0996 19.8592C47.8078 19.3144 49.5749 18.1952 50.348 17.5915C50.8192 17.2307 51.4598 16.7742 52.0415 16.3766L46.9905 25.5066C46.9905 25.5066 46.0849 27.4283 44.9068 28.2971C43.7288 29.1585 43.2207 28.7683 43.2207 28.7683C43.2207 28.7683 43.1397 30.2556 45.6578 30.2188C48.9196 30.1672 51.9825 23.7763 51.9825 23.7763L54.3608 19.5353C54.7731 19.5206 55.34 19.5132 56.091 19.5353C57.917 19.5942 56.9378 21.0079 56.9378 21.0079C56.9378 21.0079 55.4063 23.9898 54.0883 26.7583C52.9692 29.1144 54.7952 29.7991 55.7155 29.8212C56.6359 29.8359 57.8581 29.5267 58.8595 28.9156C59.5958 28.4664 61.5911 26.6183 62.5925 25.6685C62.5262 26.3091 62.5483 26.9202 62.6808 27.4945C63.2109 29.7623 64.4185 29.7623 65.0369 29.7623C65.6554 29.7623 68.3576 29.4236 71.0303 26.5742C70.8978 27.1117 70.8242 27.7375 70.9788 28.3118C71.3469 29.6592 71.958 30.1525 74.616 29.4162C77.274 28.68 82.3912 22.3405 83.2453 20.0506ZM43.4195 21.7588C42.3225 23.4523 39.9811 26.287 38.4054 26.5742C36.8298 26.854 36.064 25.9189 36.5426 24.0119C36.7488 23.1725 37.9857 19.1892 40.3124 15.7066C40.2609 18.1142 42.1605 19.9623 43.9791 20.1611C44.0969 20.1758 44.2221 20.1832 44.3546 20.1758C44.0012 20.8164 43.6699 21.3612 43.4195 21.7588ZM44.9805 19.0051C43.8466 19.0199 43.1029 18.5266 42.7421 18.2468C42.3372 17.9302 40.9162 15.9127 42.0132 13.9836C42.5139 13.1001 43.1029 12.57 43.6036 12.2386C43.8908 12.0693 44.2221 11.9073 44.5608 11.7895C44.6197 11.7748 44.6491 11.7674 44.6491 11.7674H44.627C44.6786 11.7527 44.7375 11.7306 44.789 11.7159C44.789 11.7159 46.7917 11.3257 46.9169 13.3578C46.9979 14.6463 46.0039 17.0172 44.9878 19.0051M72.5986 23.3198C71.612 24.5273 70.029 26.1324 68.6595 26.022C67.2458 25.9042 67.6287 24.461 67.9232 23.6069C68.0778 23.1652 70.3382 18.0111 72.6354 15.2132C74.9326 12.4153 76.523 11.5613 77.4066 11.5907C78.0987 11.6128 78.4815 12.0325 78.4079 12.7982L72.5986 23.3198ZM91.5065 10.0372H87.3317L84.9682 14.2045H89.143L91.5065 10.0372ZM60.3836 32.8768C52.5495 31.9049 46.4236 33.1713 41.4463 34.4672C36.469 35.763 29.6951 37.6774 26.8457 37.4712C23.9889 37.2651 24.6074 34.7322 24.9903 34.0548C25.4762 33.1934 25.8885 32.2804 26.3303 31.3969C27.015 30.02 27.6924 28.6358 28.3698 27.2589C28.9441 26.0956 29.6141 24.9912 29.7614 23.6732C29.8129 23.1652 29.7982 22.6571 29.7172 22.1565C29.6289 21.6116 29.4448 21.0741 29.0693 20.6544C28.5907 20.1169 27.8765 19.7856 27.1918 19.5942C26.9414 19.5205 26.6837 19.4911 26.426 19.4543C26.264 19.4322 26.0652 19.3806 26.0432 19.1892C26.0432 19.1156 26.1315 18.9241 26.1978 18.902C26.9414 18.6075 28.09 18.0406 29.0325 17.3927C30.2474 16.5459 32.4268 15.2132 34.7019 12.1871C35.6296 10.9649 37.3157 8.79283 38.0594 7.60004C38.803 6.39989 40.4155 3.77133 41.1591 2.98351C41.9101 2.19568 42.7348 1.84227 43.4564 1.88644C44.1632 1.92326 44.4282 2.62275 44.5092 3.14551C44.4651 3.19705 44.3988 3.24859 44.281 3.27804C43.9276 3.36639 43.4269 3.16024 42.5802 3.69773C41.7334 4.23522 41.2843 4.8537 41.0413 5.44273C40.791 6.03176 40.791 6.7312 41.1665 7.15824C41.5126 7.54848 43.0956 7.4675 44.443 6.02438C44.5166 5.95811 44.605 5.87712 44.708 5.75195C44.7301 5.7225 44.7449 5.69305 44.7669 5.6636C44.7669 5.6636 44.7743 5.65623 44.7817 5.64886C44.8774 5.52369 44.9584 5.39853 45.032 5.28072C45.0467 5.25127 45.0615 5.22919 45.0762 5.19974C45.1572 5.05248 45.2234 4.90521 45.2676 4.77268C45.6799 3.66825 45.518 2.46812 45.1425 1.94536C44.6491 1.26061 43.4711 0.980827 42.1752 1.12072C40.8794 1.26062 39.3258 2.02636 36.5573 4.61809C33.7889 7.20982 31.7273 11.5539 28.819 15.0439C25.9106 18.5339 24.0036 18.3719 24.0036 18.3719H21.0953C20.7492 18.3719 20.5946 18.2468 20.5357 18.1069C22.2071 14.5727 23.7312 11.3183 23.7312 11.3183C25.6897 7.73257 30.1958 2.82889 31.1383 2.34294C32.147 1.84226 31.7126 1.53301 31.6169 1.40784C31.5285 1.28267 31.3003 1.15753 30.9247 1.29742C30.9027 1.30479 30.8732 1.3195 30.8511 1.32686C27.7145 2.52701 23.9153 0.752558 20.4842 1.23851C17.0236 1.72446 14.638 4.33092 14.638 4.33092C14.638 4.33092 14.5129 4.58862 14.9178 4.41928C14.9326 4.41928 14.9547 4.40453 14.9768 4.39717C17.4139 3.56516 22.4648 4.19837 24.0478 3.8965C25.6382 3.59462 27.7292 2.80681 28.3625 2.67428C28.7085 2.60065 28.576 2.91727 28.576 2.91727C28.576 2.91727 25.3363 4.6328 21.2573 9.16097C17.1856 13.6965 14.7411 19.0787 14.1889 20.0948C13.6367 21.1035 8.4017 31.3011 6.87022 33.5984C5.33874 35.8956 3.16669 37.0589 2.30523 37.243C1.45114 37.4271 0.560231 37.3019 0.560231 37.3019C0.0669185 38.0087 2.21688 39.901 4.26376 39.9967C6.318 40.0924 8.88766 38.0971 10.9051 35.6158C12.9299 33.1345 16.4788 26.3974 16.4788 26.3974C17.0457 25.3666 18.3931 22.5982 19.77 19.7046H23.7091C23.7091 19.7046 25.0492 19.7488 25.5277 21.0888C25.8223 21.9061 25.5278 22.6866 25.1449 23.4229C25.0271 23.6437 19.8068 33.7677 19.8068 33.7677C19.8068 33.7677 18.5109 35.9766 19.6595 37.5964C20.8081 39.2162 23.0759 40.0409 25.6087 39.8053C28.1416 39.5696 38.2434 36.4772 42.3961 35.7115C46.5488 34.9458 50.7898 35.3875 52.3801 36.006C53.9705 36.6245 56.3856 38.5094 56.6506 39.3635C56.6506 39.3635 59.2424 37.0074 63.3361 36.7128C67.4299 36.4183 72.9667 39.3929 72.9667 39.3929C72.9667 39.3929 68.2251 33.856 60.391 32.8841M144.652 10.6409C154.842 10.4642 161.675 0.215058 161.675 0.215058C161.675 0.215058 155.078 6.34098 145.359 5.75195C138.047 5.31018 133.814 0.0972713 128.866 0.0972713C125.876 0.0972713 124.22 0.546389 123.38 0.90717C123.38 0.899807 123.366 0.89246 123.358 0.877734C122.865 0.192987 121.414 -0.101546 120.119 0.0309857C116.791 0.377041 114.015 1.69502 111.246 4.28675C108.478 6.87848 106.851 10.6777 103.942 14.1751C101.041 17.6725 99.127 17.5031 99.127 17.5031H96.2187C95.8727 17.5031 95.718 17.3779 95.6591 17.238C97.3305 13.7038 98.8546 10.4495 98.8546 10.4495C100.813 6.86375 105.312 1.95271 106.262 1.47413C107.27 0.966087 106.836 0.664195 106.74 0.539026C106.652 0.413857 106.424 0.281359 106.048 0.43598C106.019 0.443343 105.997 0.450689 105.975 0.465415C102.831 1.66556 99.0387 -0.108886 95.6076 0.377064C92.147 0.863014 89.7615 3.46948 89.7615 3.46948C89.7615 3.46948 89.6363 3.72718 90.0339 3.55783C90.0486 3.55783 90.0707 3.55045 90.0854 3.54309C92.5225 2.71109 97.5735 3.3443 99.1565 3.04242C100.754 2.73318 102.838 1.95273 103.471 1.81283C103.817 1.73921 103.685 2.06315 103.685 2.06315C103.685 2.06315 100.438 3.77873 96.366 8.3069C92.2943 12.8424 89.8425 18.2247 89.2902 19.2407C88.738 20.2495 83.503 30.447 81.9715 32.7442C80.4401 35.0415 78.268 36.2048 77.4066 36.3889C76.5525 36.5729 75.6616 36.4478 75.6616 36.4478C75.1682 37.1546 77.3182 39.0469 79.3651 39.1426C81.4193 39.2309 83.989 37.243 86.0064 34.7617C88.0238 32.2804 91.5801 25.5434 91.5801 25.5434C92.1544 24.5199 93.4945 21.7441 94.8787 18.8505H98.8104C98.8104 18.8505 100.15 18.8947 100.629 20.2347C100.916 21.0594 100.629 21.8325 100.246 22.5688C100.128 22.7897 94.4958 33.0903 94.1645 33.834C93.8331 34.585 93.2147 36.5656 94.0835 37.8467C94.6357 38.6567 95.2984 39.0469 96.1083 39.1573L96.4617 39.2089C96.4617 39.2089 97.1096 39.3046 98.3098 38.8702C99.5099 38.4357 100.592 37.7584 101.734 36.6834C102.234 36.2122 102.816 35.6452 103.317 35.1519C103.287 37.4049 104.377 39.2531 107.131 39.2678C109.214 39.2751 111.408 37.5522 113.131 35.7336C113.286 36.0208 113.477 36.3741 113.698 36.8086C113.521 37.1914 113.117 38.259 113.934 38.8849C114.943 39.6506 116.614 39.4298 117.475 38.4431C118.344 37.4565 121.628 31.4484 123.078 29.1143C124.529 26.7729 127.003 22.8117 128.453 21.8251C129.904 20.8311 131.214 20.6176 130.832 21.884C130.449 23.1504 127.666 27.9657 127.666 27.9657L124.581 33.7235C124.581 33.7235 122.57 36.9484 124.176 38.4137C125.788 39.8789 127.842 38.8775 129.388 37.8688C130.449 37.1841 132.245 35.6084 133.283 34.6734C133.188 35.3802 133.202 36.0576 133.35 36.6834C133.88 38.9512 135.087 38.9512 135.706 38.9512C136.324 38.9512 139.034 38.6051 141.699 35.763C141.567 36.3005 141.493 36.9264 141.648 37.5007C142.016 38.8481 142.627 39.3414 145.292 38.6051C147.95 37.8688 153.06 31.5294 153.922 29.2395H153.023C153.023 29.2395 149.342 34.3126 148.075 34.8427C146.809 35.3728 146.544 34.8427 146.647 34.3936C146.699 34.1506 155.232 19.1377 155.232 19.1377H150.652L149.96 20.382C149.577 19.9549 148.679 19.1377 147.516 19.1377C145.955 19.1377 143.334 19.9255 140.359 23.0768C138.599 24.947 136.111 27.8995 134.587 30.8667C133.865 31.8239 131.796 34.4524 130.5 35.012C128.91 35.6968 128.807 34.7543 129.315 33.8634C129.816 32.9725 133.99 25.4403 133.99 25.4403C133.99 25.4403 135.846 22.3037 134.255 20.1243C132.665 17.9449 129.72 19.3807 128.998 19.7635C128.269 20.1464 125.898 22.0018 123.66 25.6023C121.422 29.2101 118.285 35.0488 118.285 35.0488C118.285 35.0488 117.115 37.162 116.231 37.8246C115.392 38.4578 114.295 38.1781 114.913 37.1841C115.259 37.1473 115.789 37.0515 116.253 36.8012C117.019 36.3741 117.063 35.5348 116.916 35.1666C116.776 34.8059 116.474 34.4598 115.583 34.666C115.082 34.7838 114.736 35.0856 114.53 35.3212C114.486 35.3212 114.434 35.3213 114.376 35.3065C114.236 35.2845 114.088 35.0856 113.949 34.8206C115.421 33.1197 116.393 31.5883 116.393 31.5883C116.393 31.5883 117.623 29.9169 119.206 26.7583C120.303 24.5715 120.627 21.9208 120.023 20.5219C119.419 19.1229 117.704 18.8211 116.003 19.1892C114.302 19.5573 112.108 21.2729 112.108 21.2729C109.516 23.4081 106.335 27.4945 104.45 31.014C104.222 31.441 104.023 31.8975 103.854 32.354C101.682 35.5127 100.371 35.7409 99.7455 35.601C99.3921 35.52 99.2522 35.3728 99.186 35.1814C99.0902 34.8059 99.2007 34.4745 99.3553 34.1358C99.7529 33.2302 100.254 32.3614 100.695 31.4778C101.38 30.101 102.808 27.789 103.479 26.4122C104.045 25.2415 104.723 24.1371 104.863 22.8265C104.922 22.3258 104.9 21.803 104.819 21.3097C104.73 20.7649 104.546 20.2273 104.178 19.815C103.699 19.2775 102.978 18.9389 102.293 18.7474C102.043 18.6738 101.785 18.6444 101.527 18.6076C101.365 18.5781 101.167 18.5339 101.144 18.3425C101.144 18.2688 101.225 18.0774 101.299 18.048C102.043 17.7608 103.191 17.1865 104.134 16.5386C105.349 15.6919 107.528 14.3592 109.811 11.333C110.731 10.1108 112.424 7.93875 113.168 6.7386C114.169 5.13349 116.121 3.21912 116.673 2.79943C119.029 0.99553 120.744 1.03969 121.466 1.08387C121.842 1.10596 122.232 1.16488 122.534 1.29005L122.158 1.44469C122.158 1.44469 118.86 2.71847 116.312 5.90659C113.764 9.09472 112.601 12.3638 114.346 13.7186C116.091 15.0807 118.948 13.5271 121.554 10.339C124.131 7.18034 124.676 3.59463 124.338 2.07052L125.037 1.93062C130.338 1.75391 134.461 10.825 144.652 10.6483M138.607 32.8032C138.754 32.3614 141.022 27.2074 143.319 24.4095C145.616 21.6116 147.207 20.7575 148.09 20.7869C148.775 20.809 149.165 21.2287 149.092 21.9945L143.282 32.516C142.296 33.7235 140.713 35.3286 139.343 35.2108C137.929 35.093 138.312 33.6499 138.607 32.7958M113.58 23.8352C113.58 23.8352 114.758 21.5232 116.57 20.8458C118.381 20.1685 118.963 21.7956 118.999 22.2595C119.139 23.8941 118.683 25.5728 116.842 28.5548C115.038 31.4852 114.353 32.6412 113.396 33.3333C113.396 33.3333 112.564 31.36 112.66 28.113C112.719 26.0588 113.315 24.4316 113.58 23.8278M111.931 25.8011C110.805 30.1083 111.968 33.2818 112.292 34.0254C112.307 34.099 112.329 34.1579 112.343 34.2168C111.416 35.2918 110.547 35.4685 110.09 35.4685C109.634 35.4685 108.507 35.5569 108.36 33.7751C108.139 31.1465 111.924 25.8011 111.924 25.8011M121.628 8.38788C119.964 11.0459 116.614 13.6008 115.193 12.7909C113.779 11.9883 115.163 8.74866 117.77 5.86242C120.376 2.97617 122.983 2.3135 122.983 2.3135C123.064 2.56384 123.292 5.72252 121.628 8.38788Z" fill="white"/>
</svg>
