<svg width="133" height="40" viewBox="0 0 133 40" fill="none" xmlns="http://www.w3.org/2000/svg">
<path d="M29.6741 16.4864L29.9248 16.3015L29.1849 18.1392C26.5117 25.1742 23.3672 29.894 19.6976 32.5492C19.5722 32.6387 19.5484 32.6984 19.5484 32.7044C19.5543 32.7282 19.6498 32.758 19.7751 32.7282C27.5261 30.8546 32.5561 25.8186 36.0826 16.3731L37.4669 12.5125C38.2545 10.1615 38.2426 8.00753 37.27 6.60532C36.369 5.32841 34.6923 4.74366 32.6039 4.74366H16.5769C16.5292 4.863 15.3 7.16023 15.2164 7.381H28.1705C29.5071 7.381 30.4618 7.73304 31.0048 8.41923C31.4761 9.02785 31.5835 9.91094 31.5418 10.6508C31.506 11.2535 30.9451 13.312 30.605 14.2966L30.0918 15.7406H30.0143H13.9992C13.9515 15.848 12.8655 18.1631 12.7521 18.4078H21.1356C26.2671 18.4078 28.8447 17.095 29.6741 16.4745M51.9425 34.4526C45.9517 30.795 38.9884 30.061 28.7314 33.0803C22.8123 34.8226 18.2536 35.8668 13.2891 35.8847C12.1733 35.8429 10.6279 35.7475 9.66129 35.5864L8.80803 35.3954C12.5015 34.9479 16.3084 32.8058 17.9254 29.3987C18.4564 28.2889 19.2142 26.3377 19.8467 24.9236C20.4195 23.7361 21.0162 23.1096 21.3921 22.8411H17.281C16.0518 22.8411 15.1866 23.8495 14.7928 24.7863L14.0589 26.6062C13.4562 28.1158 12.776 29.8164 12.4717 30.3773C9.9298 35.0971 7.79963 35.0911 5.65753 34.3989C4.45223 33.9275 3.69443 33.4025 2.88891 32.5074C1.6478 31.1291 1.87454 29.7448 2.11918 29.3092C2.38172 28.8557 2.85907 28.5812 3.13355 28.623L3.16935 28.635L3.19322 28.6648C3.42592 28.993 3.79587 29.4226 4.27919 29.5896C4.55366 29.6553 5.88427 30.3176 7.15521 29.0467C7.75787 28.4381 8.09798 27.7638 7.90107 26.9821C7.6624 26.0394 6.80317 25.3412 5.753 25.2398C4.06438 25.0787 1.86857 25.9857 0.770672 29.0347C0.561832 29.5479 0.233655 31.3141 0.98548 33.2414C1.612 34.8405 3.05001 37.0363 7.00604 37.997C12.1853 39.25 17.09 37.8597 21.3563 36.4575L23.576 35.7474C27.902 34.4467 38.3201 32.239 42.2583 39.4589C42.5805 38.7965 43.9886 36.368 47.2466 36.2427C50.4806 35.8549 54.4426 37.096 57.0919 39.2679C56.0477 37.818 54.1741 35.825 51.9425 34.4586M64.8965 16.8802H59.944L61.7639 12.3991L62.8738 9.64243C63.4167 8.38939 63.9836 7.75691 64.276 7.5242H60.66C59.3951 7.5242 58.5836 8.49084 58.0704 9.80952C57.6826 10.812 51.7575 25.21 49.6154 30.4489L52.3482 30.4787C53.3745 30.4787 54.7588 29.4763 55.2004 28.4142L55.5465 27.5728L58.9595 19.0343C63.8285 19.0283 63.7091 19.0283 63.912 19.0283C63.9597 18.9209 64.807 17.1129 64.8965 16.8862M88.6506 8.6042H74.2048C74.1571 8.71161 73.2621 10.5017 73.1606 10.7403H80.9295C83.7995 10.7403 86.598 10.1079 88.0837 9.29041L88.4597 9.05172L88.3761 9.29041C88.2568 9.61858 87.672 10.8776 87.3498 11.5339C86.4309 13.3896 83.6862 16.9876 81.8722 16.9876H79.2468C79.2468 16.9876 80.7445 13.497 80.8459 13.2524C80.5894 13.2524 76.5677 13.2345 76.4424 13.2345C76.3947 13.3538 74.8612 16.9876 74.8612 16.9876H67.4742C67.4205 17.101 66.5493 18.903 66.4419 19.1357H92.2486C92.2904 19.0224 93.1317 17.2144 93.2272 16.9876H85.4046L85.8939 16.8027C89.1578 15.5377 91.5147 13.7536 92.9587 11.4086C93.794 10.0661 94.4862 7.78675 94.4921 7.75692C94.8561 6.50388 94.9098 5.50739 94.4504 4.63623C93.794 3.39512 92.2785 2.83426 89.2234 2.83426H75.1357C75.0939 2.94763 74.2287 4.59446 74.1332 4.8212H87.2603C87.8809 4.8212 88.4656 5.20907 88.7878 5.67449C88.943 5.9072 89.0862 6.34277 89.0623 6.82609C89.0504 7.05283 89.0146 7.27359 88.937 7.6316L88.6685 8.59823L88.6506 8.6042ZM70.1235 8.52663C69.8669 8.52066 66.8358 8.52066 66.7164 8.52066C66.6627 8.62806 65.2903 11.7129 65.1889 11.9576H68.5721C68.6199 11.8382 70.0161 8.77128 70.1235 8.5326M46.7334 17.817L47.0198 17.644L46.8647 17.9424C45.7966 20.0308 42.3418 26.6122 33.666 27.4714L33.4333 27.5012C33.302 27.5549 33.3378 27.6266 33.302 27.7041C33.3378 27.734 33.4333 27.7996 33.6958 27.8235C41.8465 28.5156 48.1535 24.3269 50.7789 19.9592C52.4735 17.1488 52.8554 16.0926 53.5118 13.7834C53.9533 12.2022 53.8161 10.7702 53.1299 9.8274C52.4616 8.92641 51.3159 8.46698 49.7288 8.46698H41.9599C41.9122 8.58631 41.2558 10.2749 41.1604 10.5076H46.8647C47.3838 10.5076 48.1296 10.7105 48.5235 11.2833C48.7442 11.5996 48.8397 11.9814 48.8158 12.4409C48.7979 12.7392 48.7383 13.1271 48.613 13.4851C47.891 15.5496 47.6344 16.1105 47.3361 16.8146L47.3122 16.8802H39.5612C39.5075 16.9936 38.696 18.7658 38.6006 18.9925H41.041C42.3358 18.9925 44.8061 19.0104 46.7334 17.8111M123.801 17.5605C123.044 17.5605 122.405 18.1691 122.405 18.9925C122.405 19.8159 123.044 20.4365 123.801 20.4365C124.559 20.4365 125.18 19.8279 125.18 18.9925C125.18 18.1571 124.547 17.5605 123.801 17.5605ZM123.801 20.1978C123.175 20.1978 122.686 19.6906 122.686 18.9925C122.686 18.2944 123.175 17.7932 123.801 17.7932C124.428 17.7932 124.905 18.3123 124.905 18.9925C124.905 19.6727 124.416 20.1978 123.801 20.1978ZM132.412 0C131.517 1.03227 129.649 2.98341 127.197 4.45723C124.273 6.21745 121.88 6.90961 118.938 6.84994C116.194 6.65304 113.371 4.96443 113.336 4.95846C112.315 4.33791 111.635 4.00376 110.841 3.60994L109.123 2.7328C106.229 1.17545 103.108 1.00242 100.107 2.21965C98.5616 2.85214 97.1653 3.83073 96.2643 4.55272L96.318 4.63623C99.6296 3.10871 103.765 4.41547 103.8 4.43337C105.107 4.82719 106.599 5.8296 108.031 6.8022C108.842 7.34518 109.606 7.85835 110.298 8.24023C110.418 8.3178 113.258 10.1138 116.194 10.3465C120.86 10.985 125.144 8.53858 127.859 6.00863C130.114 3.99183 131.839 1.4022 132.489 0.059654L132.412 0.00597269V0ZM87.9346 32.5731C84.3127 34.2736 76.7288 37.275 71.7703 36.4098C71.0484 36.2845 70.1653 36.0398 69.7595 35.2582C69.5984 34.9538 69.5268 34.5839 69.5507 34.1543C69.5745 33.5278 69.8729 32.6566 70.2786 31.7676C70.2786 31.7676 71.1259 30.1744 71.2035 30.0372H86.0848L87.8868 25.7172C88.0837 25.2637 88.1912 24.8281 88.1971 24.4044C88.215 23.939 88.1076 23.5154 87.8988 23.1753C87.4632 22.4891 86.592 22.137 85.3211 22.137H68.1604H68.1246L67.1759 24.297H81.2636C81.6932 24.297 82.0453 24.4582 82.2362 24.7565C82.3436 24.9236 82.3973 25.1324 82.3854 25.3472C82.3854 25.4964 82.3496 25.6575 82.2899 25.8126C82.2899 25.8126 81.4367 27.7399 81.3651 27.901H66.1317L64.8786 30.5145L64.6041 31.0814C63.4466 33.5636 63.196 35.7236 64.0433 37.2869C65.0278 39.0829 67.1341 39.7631 68.1186 39.8765C74.4256 40.5806 80.7743 38.2714 88.1136 33.0146C88.3582 32.8356 88.4776 32.591 88.4239 32.4955C88.3821 32.412 88.1852 32.4359 87.9286 32.5552M124.422 18.6166C124.422 18.2944 124.237 18.1452 123.867 18.1452H123.264V19.81H123.497V19.088H123.783L124.189 19.81H124.464L124.01 19.0701C124.243 19.0462 124.422 18.9209 124.422 18.6166ZM123.497 18.8732V18.36H123.825C123.992 18.36 124.171 18.3958 124.171 18.5987C124.171 18.8612 123.992 18.8732 123.783 18.8732H123.497ZM118.801 14.7083C119.35 13.4552 119.827 12.8884 120.185 12.614H116.57C115.311 12.614 114.499 13.5806 113.98 14.8933C113.699 15.6332 110.686 22.7755 107.965 29.4524L107.953 29.4822L107.81 29.8224C105.931 30.5205 99.6595 32.7461 97.2727 32.1673C96.8849 32.0719 96.5925 31.8511 96.4314 31.517C96.312 31.2962 96.2583 31.0277 96.2583 30.7353C96.2583 30.3773 96.3419 29.9835 96.503 29.5658C96.503 29.5658 98.4064 24.5596 98.5317 24.2553H106.778L109.654 17.3337C109.875 16.7967 109.982 16.2776 109.982 15.8122C109.982 15.3468 109.875 14.947 109.66 14.6188C109.254 14.0102 108.538 13.682 107.566 13.6582H97.5233L96.5209 15.8957H103.604C104.069 15.8957 104.367 16.0091 104.511 16.2299C104.582 16.3373 104.624 16.4805 104.624 16.6416C104.624 16.8564 104.558 17.1249 104.433 17.4292C104.057 18.4435 102.577 21.9402 102.553 21.97C102.553 21.97 102.553 21.9939 102.541 22.0058H94.2415L93.2391 24.4522L91.2939 29.172C90.9538 29.9536 90.7808 30.7055 90.7808 31.4274C90.7808 33.128 91.7355 34.2259 92.5589 34.6555C96.5388 36.732 103.789 33.5457 107.255 31.147L103.866 39.4767H106.497C107.518 39.4767 108.89 38.4982 109.326 37.4301L114.702 24.1896H120.012C120.06 24.0763 120.884 22.3757 120.985 22.143H115.621L118.801 14.7024V14.7083Z" fill="white"/>
</svg>
