<svg width="129" height="40" viewBox="0 0 129 40" fill="none" xmlns="http://www.w3.org/2000/svg">
<path d="M67.1995 10.1013H63.3729L61.2153 13.5985H65.0419L67.1995 10.1013Z" fill="white"/>
<path d="M56.0383 39.9945C52.9914 37.8534 49.2746 36.9036 45.8982 37.0409C42.4834 37.1781 40.9517 39.7255 40.9517 39.7255C39.409 37.0409 36.3675 35.3939 31.6625 35.4323C24.0698 35.5201 16.5265 39.0283 10.5588 39.0283C4.59115 39.0283 0.654801 35.4323 0.792052 29.0364C1.03361 17.8312 10.4985 7.72954 17.5806 3.18378C21.6487 0.570521 25.0525 -0.203576 27.2815 0.043476C28.9066 0.224647 30.8665 2.10225 29.6313 4.86923C27.8195 8.92637 25.3216 8.58598 25.4094 6.648C25.4643 5.39078 26.2988 4.60022 26.9301 4.1665C27.3309 3.88651 28.0391 3.80965 28.407 3.80416C28.7638 3.50221 29.0383 1.28422 26.1231 2.0144C23.2079 2.74457 19.7052 5.61037 16.3563 9.29968C13.0129 12.989 7.80833 19.9888 6.52366 27.3235C5.92524 30.7273 6.32603 36.9311 14.3909 36.8597C21.226 36.7993 31.3167 32.2975 40.5784 32.3798C44.1743 32.4128 47.3037 33.379 49.7467 34.8888C52.1514 36.3766 55.0282 38.5287 56.0438 40M58.2344 19.6813H59.6343C59.6343 19.6813 52.6125 29.8325 48.6432 29.3713C46.4253 29.1133 47.0841 26.3792 47.0841 26.3792C47.0841 26.3792 43.9657 30.0246 41.1219 29.2944C38.5306 28.6301 40.1996 24.3204 40.1996 24.3204C39.9031 24.4412 34.2978 30.7658 30.3614 29.2505C26.2384 27.6639 28.374 22.366 29.1591 20.7794C29.8234 19.4343 30.5536 18.1277 30.5536 18.1277C30.5536 18.1277 29.9222 18.3088 29.5269 18.3967C29.1372 18.49 28.5387 18.6053 28.5387 18.6053C28.5387 18.6053 26.5898 21.7786 25.3984 23.3597C24.2071 24.9408 19.1398 30.3815 16.1587 29.2999C13.1721 28.2129 13.9078 24.0405 15.5877 20.7245C18.3053 15.3442 24.7561 8.72873 28.643 9.72242C32.5684 10.7216 29.3238 17.0955 29.3238 17.0955C29.3238 17.0955 30.1034 17.1944 31.9755 15.9207C34.6711 14.0815 38.2232 9.13498 42.0772 9.71143C43.8889 9.98044 45.5688 11.8416 43.2685 15.3662C42.5273 16.4971 41.2921 17.5128 40.3423 16.5136C39.7549 15.8932 40.2655 14.7568 40.8858 13.9827C41.7588 12.8847 42.9666 13.0329 42.9666 13.0329C42.9666 13.0329 43.5979 11.5726 41.9838 11.6C40.6717 11.622 37.3557 14.6799 35.4836 17.7653C33.7652 20.5982 31.1685 25.4294 33.7817 26.478C36.1809 27.4443 40.7321 22.0311 42.8403 19.1982C44.9485 16.3654 49.7523 9.93654 53.7819 9.67301C55.1709 9.58517 55.9999 10.8479 55.9999 10.8479L56.4665 10.1067H60.4908C60.4908 10.1067 52.898 22.7887 52.3051 23.7495C51.8385 24.5016 51.2181 26.1925 52.9365 25.2428C54.6548 24.293 58.2289 19.6978 58.2289 19.6978M26.9686 18.4132C26.8972 18.3857 25.8816 18.0947 24.8933 17.4634C23.9051 16.832 23.444 15.8877 23.411 15.8273C23.3726 15.7615 23.3342 15.8109 23.2957 15.8658C23.2573 15.9207 23.0432 16.1952 21.6048 18.3034C20.1664 20.4115 18.0363 24.7322 20.0346 25.4734C21.3138 25.9455 23.455 23.7001 24.6188 22.2178C25.6949 20.8398 26.9795 18.7206 27.0344 18.5943C27.0893 18.4681 27.0344 18.4406 26.9686 18.4132ZM28.5607 11.6714C27.5066 10.8698 24.8165 12.7419 24.8 14.6525C24.789 16.6124 27.2321 17.1669 27.545 17.1834C27.545 17.1834 27.8195 17.2602 27.9293 17.0242C27.9952 16.8814 28.3301 16.2666 28.7034 15.2948C29.0768 14.3231 29.5434 12.418 28.5607 11.6714ZM49.0934 22.2287C50.7185 19.9998 55.2093 12.182 55.2093 12.182C55.2093 12.182 55.1325 11.633 54.6109 11.611C53.9906 11.5835 52.9584 11.7922 50.8942 14.367C48.8299 16.9473 47.2433 19.0006 46.0794 21.1307C44.8057 23.4585 44.2457 25.1 44.9814 25.5447C45.19 25.671 45.4975 25.6875 45.75 25.6216C46.2331 25.5008 46.8535 25.0232 47.71 24.035C48.1107 23.5738 48.5664 22.9534 49.0989 22.2287M123.687 3.8371C120.859 5.6543 116.939 7.3068 113.173 6.93897C112.223 7.92717 111.202 9.06362 110.176 10.3099C116.709 11.6 122.424 7.55385 125.46 4.1061C127.359 1.95401 128.293 0.0379806 128.293 0.0379806C128.293 0.0379806 126.481 2.03636 123.681 3.8371M112.487 33.5108C111.943 34.3782 111.334 36.0362 113.118 35.0041C115.298 33.7413 118.4 29.0364 118.4 29.0364H119.8C119.8 29.0364 117.95 31.9626 115.539 34.6362C113.332 37.0848 110.637 39.3083 108.743 39.0887C106.525 38.8306 107.222 35.9209 107.222 35.9209C107.222 35.9209 104.043 39.2973 101.858 39.0557C98.8991 38.7263 99.7995 35.0645 99.7995 35.0645C99.7995 35.0645 96.456 39.182 94.1722 39.0557C90.5927 38.8526 91.4875 34.4825 92.4867 31.4301C93.0193 29.794 93.5134 28.5039 93.5134 28.5039C93.5134 28.5039 93.1565 28.5972 92.3934 28.707C91.9981 28.7674 91.2679 28.8058 91.2679 28.8058C91.2679 28.8058 89.7801 31.4355 88.5888 33.0222C87.3974 34.6088 82.3302 40.0494 79.3491 38.9624C76.5931 37.9577 77.4989 33.7359 79.1075 30.3815C81.4463 25.4898 88.0343 18.4626 91.8334 19.3849C95.7698 20.3402 91.9267 27.5266 91.9267 27.5266C91.9267 27.5266 91.9268 27.5541 91.9707 27.5706C92.0475 27.6035 92.2507 27.62 92.7283 27.5321C93.4859 27.3894 94.1667 27.1039 94.1667 27.1039C94.1667 27.1039 98.125 18.8139 102.495 13.3843C106.865 7.96011 115.589 -1.38393 119.015 0.872478C119.855 1.42697 119.47 3.34299 118.345 5.66527C117.845 5.82448 117.329 5.96175 116.797 6.07155C117.549 4.69904 118.054 3.54613 118.197 2.74458C118.707 -0.0608275 112.169 5.85194 107.496 12.2094C102.824 18.5724 100.019 24.3314 100.019 24.3314C100.019 24.3314 100.963 23.7989 102.429 22.613C103.961 21.3778 106.075 19.4343 108.369 17.0626C109.912 15.4705 111.724 13.4666 113.42 11.2267C113.925 11.1992 114.425 11.1498 114.908 11.073C113.014 13.6258 111.021 15.9536 109.336 17.6665C107.475 19.5496 105.454 21.5864 103.697 23.0632C100.908 25.413 98.7509 26.7416 98.7509 26.7416C98.7509 26.7416 94.6553 34.9821 96.8843 35.5146C98.1909 35.8276 100.771 31.8473 100.771 31.8473C100.771 31.8473 104.137 26.7031 106.168 24.3918C108.94 21.235 111.323 19.4178 113.706 19.3794C115.095 19.3574 115.918 20.8343 115.918 20.8343L116.572 19.8241H120.596C120.596 19.8241 113.085 32.572 112.487 33.5327M89.8625 28.5148C89.7911 28.4874 88.9182 28.0921 88.0123 27.3345C87.1065 26.5823 86.6508 25.7149 86.6179 25.649C86.5794 25.5832 86.541 25.6326 86.5026 25.6875C86.4641 25.7424 86.2994 25.8851 84.8611 27.9933C83.4227 30.1015 81.2267 34.4551 83.225 35.1962C84.5042 35.6684 86.6289 33.4339 87.7873 31.9516C88.8633 30.5736 89.8735 28.8223 89.9284 28.696C89.9833 28.5697 89.9338 28.5423 89.8625 28.5148ZM91.8938 24.9573C92.2671 23.9856 92.7338 22.0805 91.7511 21.3339C90.697 20.5378 88.0069 22.4044 87.9904 24.3149C87.9739 26.2749 89.8844 27.1588 90.3456 27.2796C90.6091 27.3509 90.697 27.34 90.8232 27.1313C90.9056 26.9941 91.5205 25.929 91.8883 24.9573M114.996 22.2672C115.078 22.1244 115.117 21.9981 115.117 21.9981C115.117 21.9981 115.04 21.4492 114.518 21.4272C113.898 21.3997 113.047 21.515 110.823 23.9801C108.611 26.4341 107.266 28.5642 106.102 30.6944C104.828 33.0221 104.318 34.757 105.048 35.2017C105.257 35.328 105.564 35.3444 105.817 35.2786C106.316 35.1578 106.871 34.6966 107.733 33.7084C108.133 33.2473 108.578 32.5885 109.111 31.8583C110.576 29.8544 114.266 23.5408 115.001 22.2726M123.681 3.87004C120.854 5.68724 116.934 7.33974 113.168 6.97191C112.218 7.96011 111.197 9.09656 110.17 10.3428C116.703 11.633 122.418 7.58679 125.454 4.13904C127.354 1.98695 128.287 0.0709195 128.287 0.0709195C128.287 0.0709195 126.476 2.0693 123.676 3.87004M105.322 8.60794C102.232 7.02681 99.9751 5.09431 97.6254 3.88651C95.38 2.7336 93.9306 2.25596 92.1244 2.49753C91.8224 2.53596 91.3777 2.68418 91.3777 2.68418C91.3777 2.68418 92.3165 5.86841 88.6053 11.2267C84.8446 16.6509 81.4353 16.6234 80.4635 15.1246C79.4479 13.549 80.7545 10.3428 82.945 7.48797C85.2399 4.50139 89.2641 2.01989 89.2641 2.01989C89.2641 2.01989 87.9794 1.23481 84.8226 3.02456C81.7482 4.76491 76.4393 8.91538 71.5367 15.9097C66.6341 22.904 65.6514 26.7525 64.9432 29.783C64.235 32.8135 64.8828 36.0527 68.2427 36.0527C71.6026 36.0527 75.506 30.925 76.6095 29.1462C78.6573 25.8302 79.9914 20.7409 77.2024 21.4382C75.8244 21.784 74.7155 23.3103 74.0127 24.7706C73.2935 26.2749 73.0026 27.7133 73.0026 27.7133C73.0026 27.7133 71.8442 28.1305 70.2795 29.2944C68.7203 30.4638 67.6992 31.5783 67.6992 31.5783C67.6992 31.5783 67.7102 29.1572 69.6372 25.2373C71.5697 21.3174 75.1107 19.5221 77.1146 19.3574C78.9208 19.2092 81.276 20.7464 79.2832 26.4121C77.2958 32.0779 71.4159 38.9514 65.2342 39.0447C59.53 39.1271 55.7913 31.8473 63.7244 19.1488C72.4975 5.0998 82.8078 0.790128 86.1567 0.307004C89.5056 -0.17612 90.5872 1.3007 90.5872 1.3007C90.5872 1.3007 93.3926 0.00504302 96.9501 0.246605C101.035 0.521107 104.197 3.41435 108.364 5.44018C107.277 6.49427 106.239 7.5813 105.306 8.59695M90.0876 3.09044C90.0876 3.09044 87.6994 4.04571 84.9214 7.10916C82.1325 10.1836 80.5239 13.6204 81.7262 14.5317C82.1874 14.8831 83.2415 14.938 85.174 13.2031C86.6783 11.8526 88.21 10.0848 89.2476 7.54837C90.4938 4.51238 90.093 3.12339 90.093 3.08496" fill="white"/>
<path d="M117.911 36.2942C118.142 36.426 118.318 36.6016 118.449 36.8212C118.581 37.0463 118.647 37.2879 118.647 37.5514C118.647 37.815 118.581 38.062 118.449 38.2816C118.318 38.5012 118.136 38.6824 117.911 38.8086C117.681 38.9404 117.428 39.0008 117.148 39.0008C116.868 39.0008 116.616 38.9349 116.385 38.8086C116.154 38.6769 115.979 38.5012 115.847 38.2816C115.715 38.062 115.649 37.815 115.649 37.5514C115.649 37.2879 115.715 37.0463 115.847 36.8212C115.979 36.5962 116.16 36.4205 116.385 36.2942C116.616 36.1624 116.868 36.1021 117.148 36.1021C117.428 36.1021 117.681 36.1679 117.911 36.2942ZM117.763 38.5726C117.944 38.4737 118.081 38.331 118.18 38.1553C118.279 37.9797 118.329 37.7765 118.329 37.5514C118.329 37.3263 118.279 37.1342 118.18 36.953C118.081 36.7773 117.939 36.6346 117.758 36.5358C117.576 36.4369 117.373 36.382 117.143 36.382C116.912 36.382 116.709 36.4315 116.533 36.5358C116.352 36.6346 116.215 36.7773 116.111 36.953C116.012 37.1287 115.962 37.3318 115.962 37.5514C115.962 37.771 116.012 37.9742 116.111 38.1553C116.209 38.331 116.347 38.4737 116.528 38.5726C116.709 38.6714 116.912 38.7263 117.143 38.7263C117.373 38.7263 117.576 38.6769 117.758 38.5726M117.708 37.5295C117.664 37.6008 117.604 37.6503 117.527 37.6887L117.873 38.1993H117.489L117.181 37.7216H116.929V38.1993H116.594V36.8816H117.357C117.483 36.8816 117.587 36.9201 117.664 37.0024C117.741 37.0848 117.78 37.1781 117.78 37.2989C117.78 37.3812 117.758 37.4581 117.714 37.5295M116.929 37.4252H117.291C117.335 37.4252 117.368 37.4142 117.395 37.3922C117.423 37.3703 117.434 37.3373 117.434 37.2989C117.434 37.2604 117.423 37.2275 117.395 37.2056C117.368 37.1836 117.335 37.1726 117.291 37.1726H116.929V37.4252Z" fill="white"/>
</svg>
