<svg width="250" height="40" viewBox="0 0 250 40" fill="none" xmlns="http://www.w3.org/2000/svg">
<g clip-path="url(#clip0_101_19730)">
<path d="M130.75 3.07753C130.75 3.07753 128.36 4.02991 125.581 7.09246C122.791 10.1662 121.182 13.6023 122.381 14.5136C122.84 14.8609 123.901 14.9207 125.828 13.1877C127.333 11.8394 128.864 10.0691 129.902 7.53691C131.146 4.50423 130.75 3.11114 130.75 3.07753ZM145.962 8.59013C142.874 7.00656 140.618 5.07192 138.269 3.86557C136.028 2.71525 134.578 2.23345 132.767 2.47622C132.468 2.5173 132.02 2.66296 132.02 2.66296C132.02 2.66296 132.954 5.84877 129.241 11.2045C125.48 16.6275 122.071 16.5976 121.1 15.0999C120.084 13.5276 121.395 10.3194 123.583 7.46595C125.876 4.48182 129.906 2.00563 129.906 2.00563C129.906 2.00563 128.621 1.22132 125.466 3.0103C122.392 4.74699 117.085 8.89265 112.177 15.8842C107.273 22.8758 106.287 26.7227 105.581 29.7517C104.872 32.7806 105.518 36.0224 108.875 36.0224C112.237 36.0262 116.143 30.902 117.245 29.1205C119.296 25.804 120.633 20.7171 117.843 21.4155C116.468 21.7591 115.355 23.2829 114.653 24.747C113.932 26.2521 113.641 27.69 113.641 27.69C113.641 27.69 112.48 28.1046 110.918 29.2736C109.357 30.4389 108.338 31.5556 108.338 31.5556C108.338 31.5556 108.349 29.1354 110.28 25.2176C112.211 21.2997 115.751 19.5108 117.757 19.3427C119.564 19.197 121.917 20.7321 119.923 26.3978C117.932 32.0635 112.05 38.9356 105.869 39.0215C100.166 39.0999 96.4347 31.8208 104.371 19.1261C113.152 5.08313 123.46 0.776871 126.806 0.298814C130.153 -0.179244 131.24 1.29601 131.24 1.29601C131.24 1.29601 134.044 0.00376217 137.6 0.246526C141.686 0.522903 144.846 3.41366 149.014 5.44541C147.931 6.48742 146.896 7.57052 145.962 8.59013ZM164.315 3.86557C161.484 5.6807 157.566 7.32776 153.802 6.96548C152.849 7.95147 151.83 9.0906 150.806 10.3343C157.335 11.6265 163.053 7.58173 166.093 4.13822C167.994 1.99069 168.931 0.070989 168.931 0.070989C168.931 0.070989 167.116 2.06539 164.315 3.86557ZM155.624 22.2559C155.706 22.1102 155.744 21.9832 155.744 21.9832C155.744 21.9832 155.669 21.4342 155.146 21.4118C154.526 21.3819 153.675 21.5014 151.452 23.9627C149.238 26.4127 147.893 28.5416 146.724 30.6704C145.451 32.9972 144.935 34.7302 145.667 35.1784C145.873 35.3054 146.183 35.3203 146.437 35.2568C146.933 35.1373 147.494 34.6742 148.349 33.6844C148.748 33.2213 149.193 32.564 149.723 31.8357C151.195 29.8338 154.892 23.5294 155.624 22.2559ZM132.521 24.9337C132.89 23.9627 133.365 22.0579 132.382 21.311C131.325 20.5154 128.636 22.3791 128.621 24.2913C128.603 26.2484 130.515 27.1335 130.974 27.2568C131.236 27.3278 131.325 27.3166 131.452 27.1074C131.531 26.9692 132.147 25.9085 132.521 24.9337ZM130.485 28.493C130.414 28.4706 129.544 28.071 128.636 27.3128C127.733 26.5584 127.277 25.6956 127.243 25.6284C127.206 25.5649 127.169 25.6135 127.128 25.6695C127.086 25.7255 126.926 25.8674 125.484 27.9776C124.046 30.0878 121.846 34.4351 123.841 35.1784C125.118 35.6527 127.243 33.4155 128.409 31.9328C129.484 30.5546 130.493 28.803 130.549 28.676C130.608 28.549 130.556 28.5192 130.485 28.493ZM153.103 33.5238C152.562 34.3903 151.945 36.0523 153.734 35.0178C155.912 33.7591 159.015 29.0532 159.015 29.0532H160.42C160.42 29.0532 158.567 31.9776 156.155 34.648C153.947 37.0943 151.254 39.3166 149.357 39.0962C147.142 38.8385 147.837 35.9291 147.837 35.9291C147.837 35.9291 144.655 39.3054 142.47 39.0626C139.508 38.7339 140.412 35.0738 140.412 35.0738C140.412 35.0738 137.062 39.1933 134.78 39.0589C131.202 38.8534 132.102 34.4874 133.096 31.4323C133.63 29.7927 134.123 28.5042 134.123 28.5042C134.123 28.5042 133.768 28.5976 133.006 28.7096C132.607 28.7657 131.882 28.8067 131.882 28.8067C131.882 28.8067 130.392 31.4361 129.2 33.0159C128.009 34.5995 122.941 40.0411 119.96 38.9505C117.204 37.9421 118.115 33.7218 119.721 30.3679C122.063 25.479 128.651 18.4538 132.45 19.3763C136.39 20.3324 132.539 27.5182 132.539 27.5182C132.539 27.5182 132.539 27.5444 132.58 27.5631C132.659 27.5929 132.864 27.6153 133.339 27.522C134.097 27.3763 134.78 27.0925 134.78 27.0925C134.78 27.0925 138.739 18.8011 143.113 13.3782C147.486 7.95521 156.211 -1.38186 159.635 0.877712C160.472 1.4342 160.091 3.34643 158.963 5.6695C158.463 5.82636 157.947 5.96455 157.417 6.07286C158.171 4.70217 158.672 3.54811 158.821 2.74139C159.337 -0.0597299 152.793 5.84503 148.117 12.2017C143.441 18.5584 140.633 24.3138 140.633 24.3138C140.633 24.3138 141.574 23.7797 143.045 22.5957C144.58 21.3595 146.694 19.4211 148.984 17.0532C150.526 15.4585 152.341 13.4566 154.037 11.2194C154.545 11.1933 155.042 11.1448 155.523 11.0663C153.63 13.6135 151.639 15.9403 149.947 17.6546C148.087 19.5406 146.063 21.5687 144.308 23.0476C141.514 25.3931 139.363 26.7227 139.363 26.7227C139.363 26.7227 135.273 34.9692 137.499 35.4996C138.806 35.8133 141.391 31.8357 141.391 31.8357C141.391 31.8357 144.76 26.6928 146.791 24.381C149.563 21.2288 151.949 19.4099 154.332 19.3726C155.721 19.3464 156.539 20.8292 156.539 20.8292L157.193 19.817L161.215 19.8208C161.215 19.8208 153.705 32.564 153.103 33.5238ZM164.315 3.86557C161.484 5.6807 157.566 7.32776 153.802 6.96548C152.849 7.95147 151.83 9.0906 150.806 10.3343C157.335 11.6265 163.053 7.58173 166.093 4.13822C167.994 1.99069 168.931 0.070989 168.931 0.070989C168.931 0.070989 167.116 2.06539 164.315 3.86557ZM107.841 10.1177L104.016 10.1139L101.854 13.6097L105.678 13.6135L107.841 10.1177ZM89.7307 22.211C91.3591 19.9814 95.8483 12.1644 95.8483 12.1644C95.8483 12.1644 95.7736 11.6153 95.2508 11.5929C94.6308 11.5631 93.6 11.7722 91.5346 14.3492C89.4692 16.9225 87.8782 18.9767 86.7129 21.1093C85.4356 23.4361 84.8791 25.0794 85.6112 25.5238C85.8166 25.6471 86.1266 25.6658 86.3805 25.6023C86.8586 25.4828 87.4823 25.0047 88.3376 24.0187C88.741 23.5593 89.1966 22.9393 89.7307 22.211ZM69.2078 11.6415C68.1509 10.8422 65.4618 12.7096 65.4468 14.6181C65.4319 16.5752 67.8745 17.1354 68.1919 17.1504C68.1919 17.1504 68.4683 17.2251 68.5766 16.9935C68.6439 16.8478 68.9763 16.2353 69.3497 15.2643C69.7195 14.2932 70.1901 12.3884 69.2078 11.6415ZM67.613 18.3828C67.5421 18.3567 66.5299 18.0654 65.5402 17.4305C64.5505 16.7993 64.0948 15.8581 64.0612 15.7909C64.0239 15.7274 63.9828 15.7759 63.9454 15.832C63.9044 15.888 63.6915 16.1569 62.2536 18.2671C60.8157 20.3735 58.6831 24.6947 60.6812 25.4342C61.9585 25.9085 64.106 23.6639 65.2676 22.1812C66.3432 20.803 67.628 18.6854 67.684 18.5621C67.7326 18.4351 67.6803 18.4053 67.613 18.3828ZM98.8623 19.6826H100.263C100.263 19.6826 93.2414 29.8301 89.2713 29.367C87.0566 29.1093 87.7139 26.3754 87.7139 26.3754C87.7139 26.3754 84.5953 30.0168 81.7494 29.2885C79.1574 28.6237 80.8306 24.3175 80.8306 24.3175C80.5355 24.437 74.9296 30.7563 70.9893 29.24C66.8661 27.649 69.0061 22.3567 69.7904 20.7657C70.4552 19.4249 71.191 18.1177 71.191 18.1177C71.191 18.1177 70.5598 18.2969 70.1639 18.3866C69.7718 18.4762 69.1742 18.592 69.1742 18.592C69.1742 18.592 67.2246 21.7629 66.0332 23.3427C64.8418 24.9263 59.7736 30.3604 56.7895 29.2773C53.8054 28.1905 54.5449 24.0187 56.2218 20.7022C58.9408 15.324 65.3946 8.71338 69.2788 9.70684C73.2041 10.7078 69.9548 17.0757 69.9548 17.0757C69.9548 17.0757 70.7354 17.1765 72.6065 15.8992C75.3068 14.0617 78.8586 9.11674 82.7092 9.69564C84.5169 9.96828 86.2013 11.8245 83.8969 15.3464C83.1574 16.4781 81.9212 17.4902 80.9725 16.4893C80.3824 15.873 80.8978 14.7339 81.5178 13.9571C82.3918 12.8553 83.5981 13.0084 83.5981 13.0084C83.5981 13.0084 84.233 11.5481 82.6158 11.578C81.3049 11.6041 77.9884 14.6555 76.1172 17.7405C74.3992 20.5715 71.7998 25.3969 74.4104 26.4501C76.8044 27.4174 81.3609 22.0094 83.4711 19.1746C85.5813 16.3436 90.3843 9.91599 94.4179 9.65829C95.8073 9.56866 96.6327 10.8348 96.6327 10.8348L97.0995 10.0953L101.126 10.099C101.126 10.099 93.529 22.775 92.9352 23.7349C92.4683 24.4856 91.8483 26.1737 93.5664 25.2288C95.2918 24.2801 98.8623 19.6826 98.8623 19.6826ZM96.6663 40C93.6186 37.8525 89.9025 36.9076 86.5299 37.042C83.1163 37.1765 81.585 39.7237 81.585 39.7237C80.0463 37.0383 77.0061 35.3913 72.304 35.4286C64.7073 35.5145 57.1667 39.0178 51.2022 39.014C45.473 39.0103 41.3012 35.4137 41.4394 29.0234C41.6859 17.8189 51.1574 7.72739 58.2349 3.18584C62.3021 0.575191 65.7083 -0.197919 67.938 0.0523149C69.5626 0.231587 71.5159 2.11021 70.2834 4.87771C68.472 8.93 65.9697 8.59013 66.0631 6.65549C66.1154 5.39685 66.952 4.60507 67.5832 4.17183C67.9828 3.89545 68.6887 3.81702 69.0584 3.80955C69.417 3.50703 69.6896 1.29228 66.7764 2.02057C63.8595 2.74886 60.3525 5.60974 57.0061 9.29975C53.6597 12.986 48.4534 19.9814 47.1649 27.3166C46.5636 30.719 46.9632 36.9225 55.0229 36.8553C61.8539 36.7993 71.9454 32.3026 81.2115 32.3885C84.8082 32.4221 87.938 33.3931 90.3768 34.8983C92.7746 36.3735 95.6467 38.5285 96.6663 40Z" fill="white"/>
<path d="M23.3702 25.4716L31.4561 25.4754L31.191 23.6378L25.4804 23.6341V21.4081H29.3273V19.5594L25.4804 19.5557V17.6509L31.0565 17.6546L31.3254 15.8171L23.374 15.8134L23.3702 25.4716ZM11.4225 25.4642H13.5252L13.529 21.1878L18.4627 21.1915L18.4589 25.4679H20.5654L20.5728 15.8134H18.4664V19.3129L13.5327 19.3092V15.8096H11.43L11.4225 25.4642ZM0.819336 17.6957L4.03876 17.6995L4.03502 25.4604H6.14146L6.1452 17.6957H9.36462V15.8059H0.819336V17.6957Z" fill="white"/>
<path d="M249.559 15.8358H247.24L244.715 20.3512L242.156 15.832H239.785L243.643 22.2858L243.639 25.4903H245.746V22.2447L249.559 15.8358ZM236.069 15.8283L236.065 22.3717L231.445 15.8246H229.264L229.26 25.4791H231.311L231.314 18.8274L236.001 25.4791H238.119L238.123 15.8246L236.069 15.8283ZM220.849 21.5052L222.287 17.6845L223.721 21.509L220.849 21.5052ZM225.204 25.4753H227.419L223.591 15.8208H221.002L217.159 25.4716H219.359L220.162 23.3278L224.401 23.3316L225.204 25.4753ZM213.69 20.0785H210.888V17.677H213.69C214.108 17.677 214.437 17.7816 214.668 17.987C214.9 18.1924 215.015 18.4875 215.015 18.8722C215.015 19.2569 214.9 19.5556 214.664 19.7611C214.437 19.9739 214.108 20.0785 213.69 20.0785ZM213.746 15.8171L208.782 15.8134L208.778 25.4679H210.885L210.888 21.9422H213.746C214.478 21.9422 215.101 21.8077 215.609 21.5426C216.117 21.2737 216.502 20.9077 216.76 20.4445C217.021 19.9814 217.148 19.4585 217.148 18.8759C217.148 18.2933 217.021 17.7704 216.76 17.3035C216.502 16.8404 216.117 16.4744 215.609 16.213C215.101 15.9478 214.478 15.8171 213.746 15.8171ZM205.981 15.8096H203.154L200.319 22.5136L197.428 15.8059H194.601L194.597 25.4604H196.636L196.64 18.5547L199.572 25.326H200.98L203.945 18.3792L203.942 25.4604H205.981V15.8096ZM187.15 23.7237C186.578 23.7237 186.067 23.593 185.615 23.3278C185.163 23.0627 184.808 22.6966 184.554 22.226C184.3 21.7555 184.173 21.2251 184.173 20.6238C184.173 20.0225 184.3 19.4884 184.558 19.0216C184.812 18.551 185.167 18.185 185.619 17.9235C186.067 17.6621 186.578 17.5276 187.154 17.5276C187.729 17.5276 188.237 17.6621 188.689 17.9235C189.141 18.1887 189.495 18.551 189.746 19.0253C190 19.4922 190.127 20.03 190.127 20.6275C190.127 21.2251 190 21.7592 189.746 22.2298C189.492 22.7004 189.137 23.0664 188.685 23.3278C188.237 23.5967 187.725 23.7237 187.15 23.7237ZM187.15 25.6285C188.143 25.6285 189.032 25.4156 189.813 24.9936C190.597 24.5678 191.206 23.9777 191.65 23.2158C192.091 22.4576 192.315 21.5949 192.315 20.6313C192.315 19.664 192.095 18.8049 191.654 18.043C191.213 17.2849 190.601 16.691 189.817 16.2653C189.036 15.8395 188.147 15.6266 187.154 15.6266C186.16 15.6266 185.275 15.8395 184.491 16.2615C183.706 16.6873 183.094 17.2811 182.653 18.0393C182.209 18.8012 181.988 19.6602 181.988 20.6275C181.988 21.5911 182.209 22.4539 182.653 23.2158C183.094 23.9777 183.706 24.5678 184.487 24.9936C185.275 25.4156 186.156 25.6285 187.15 25.6285ZM177.014 25.6247C177.802 25.6247 178.534 25.4978 179.221 25.2438C179.904 24.9898 180.465 24.6089 180.905 24.0972L179.591 22.663C178.892 23.3689 178.052 23.72 177.058 23.72C176.431 23.72 175.867 23.5855 175.363 23.3092C174.855 23.0365 174.466 22.6668 174.183 22.1962C173.902 21.7256 173.761 21.199 173.761 20.6201C173.761 20.0374 173.902 19.5146 174.19 19.044C174.474 18.5734 174.866 18.2036 175.363 17.931C175.86 17.6584 176.416 17.5202 177.032 17.5202C177.507 17.5202 177.947 17.6098 178.354 17.7816C178.761 17.9571 179.154 18.2335 179.527 18.6107L180.842 17.1504C180.412 16.65 179.863 16.269 179.187 16.0113C178.511 15.7499 177.775 15.6191 176.98 15.6191C175.953 15.6191 175.027 15.8358 174.205 16.269C173.383 16.7022 172.737 17.2998 172.274 18.0655C171.807 18.8311 171.576 19.6826 171.576 20.6201C171.576 21.5575 171.807 22.4091 172.27 23.1747C172.733 23.9366 173.38 24.5379 174.205 24.9711C175.03 25.4081 175.968 25.6247 177.014 25.6247Z" fill="white"/>
</g>
<defs>
<clipPath id="clip0_101_19730">
<rect width="248.74" height="40" fill="white" transform="translate(0.819336)"/>
</clipPath>
</defs>
</svg>
