<svg width="132" height="40" viewBox="0 0 132 40" fill="none" xmlns="http://www.w3.org/2000/svg">
<path d="M44.0216 32.3807C39.6805 32.3807 35.4956 33.0291 30.8724 34.26C19.7826 36.7577 5.7688 40.3362 0.455078 33.3053C2.32839 37.8445 7.82824 39.5137 12.2713 39.5137C15.4356 39.5137 19.9928 38.9192 23.9855 38.1687C28.8429 37.2561 41.3617 34.0498 44.2677 39.7238C47.522 34.5902 56.5283 37.8505 59.3683 40C57.8312 38.0787 51.9291 32.3867 44.0216 32.3867M76.4563 25.4998L84.5259 12.0684C85.0423 11.2219 84.7601 10.5254 83.9075 10.5254H73.0999C72.2533 10.5254 71.1366 11.2219 70.6262 12.0684L62.5565 25.4998C62.0522 26.3524 62.3224 27.0429 63.175 27.0429H73.9825C74.8291 27.0429 75.9459 26.3524 76.4503 25.4998M67.9303 24.263L74.5169 13.2993H79.1462L72.5595 24.263H67.9303ZM1.42175 27.0429H12.2293C13.0819 27.0429 14.1927 26.3524 14.697 25.4998L22.7667 12.0684C23.277 11.2219 23.0009 10.5254 22.1483 10.5254H11.3407C10.4941 10.5254 9.37732 11.2219 8.86697 12.0684L0.797317 25.4998C0.28696 26.3524 0.563153 27.0429 1.41575 27.0429M12.7637 13.3053H17.3929L10.8123 24.269H6.17708L12.7637 13.3053ZM29.8577 28.2798C29.3473 29.1324 29.6235 29.8289 30.4761 29.8289H52.0912C52.9378 29.8289 54.0486 29.1324 54.5589 28.2798L65.9669 9.2945C66.4773 8.44191 66.2011 7.75142 65.3545 7.75142H43.7394C42.8928 7.75142 41.776 8.44791 41.2656 9.2945L29.8577 28.2798ZM46.6994 10.5254H59.0501L49.1251 27.0429H36.7745L46.6994 10.5254ZM18.3656 25.5659C15.4476 30.3212 11.1185 33.8397 5.64271 33.8397C4.46588 33.8397 3.39113 33.6776 2.43046 33.3774C4.17168 34.7343 6.60338 35.5389 9.53343 35.5389C15.9099 35.5389 20.8093 31.7322 23.8955 26.6406L35.8979 6.67067H39.7586L41.4278 3.89072H10.5541L8.88498 6.67067H29.7256L18.3716 25.5719L18.3656 25.5659ZM116.486 10.6334C122.713 10.6334 128.927 5.50585 131.713 0C127.396 4.45512 121.956 6.84479 118.588 6.74872C115.886 6.67667 113.706 5.8661 108.255 2.79796C105.222 1.09276 102.214 0.108076 99.2542 0.108076C96.036 0.108076 92.5595 1.38697 89.8156 3.87871H72.3074L70.6382 6.65866H91.4788L80.1248 25.5539C77.2068 30.3152 72.8838 33.8337 67.4019 33.8337C66.2251 33.8337 65.1504 33.6716 64.1897 33.3714C65.9309 34.7283 68.3626 35.5329 71.2927 35.5329C77.6691 35.5329 82.5686 31.7262 85.6547 26.6346L97.6571 6.66466H101.518L103.187 3.88472H89.8156C92.4455 2.50375 95.2194 1.66917 97.4169 1.66917C100.863 1.66917 103.721 3.66256 106.363 5.70399C106.784 6.02822 107.186 6.33443 107.57 6.62864L94.4329 22.5998C93.7484 23.4284 93.8865 24.1069 94.7391 24.1069H104.616C102.509 27.6193 100.515 30.9276 100.089 31.6482C99.3983 32.795 98.3116 33.8277 96.3602 33.8277C95.4296 33.8277 94.8592 33.6836 94.1146 33.3654C96.7205 35.9772 101.025 36.2894 104.184 33.9358C105.048 33.2873 105.745 32.5007 106.267 31.6421L110.794 24.1009H121.908L123.577 21.3209H112.457L116.444 14.6863H110.266C110.266 14.6863 108.411 17.7724 106.273 21.3209H101.644L111.485 9.35454C112.998 10.1891 114.499 10.6214 116.48 10.6214M114.619 33.1492C114.313 32.1045 114.703 30.6995 115.658 29.0964L117.453 26.1063H111.743L110.818 27.6494C109.635 29.6187 109.179 31.36 109.629 32.6629C110.296 34.5782 112.812 35.2327 116.426 34.7523C115.484 34.4821 114.853 33.9538 114.619 33.1492ZM118.017 32.5007C117.507 32.5007 117.093 32.915 117.093 33.4254C117.093 33.9357 117.507 34.35 118.017 34.35C118.528 34.35 118.942 33.9357 118.942 33.4254C118.942 32.915 118.522 32.5007 118.017 32.5007ZM118.017 34.2059C117.765 34.2059 117.549 34.0738 117.411 33.8877L117.537 33.9718C117.585 33.8277 117.639 33.6716 117.687 33.5094C117.645 33.5034 117.609 33.4794 117.573 33.4314C117.531 33.6115 117.471 33.7616 117.411 33.8877C117.315 33.7556 117.249 33.6055 117.249 33.4314C117.249 33.0051 117.597 32.6509 118.023 32.6509C118.45 32.6509 118.798 33.0051 118.798 33.4314C118.798 33.8577 118.45 34.212 118.023 34.212M95.0753 26.1183C91.5749 29.8229 87.2999 32.837 82.7787 34.7643C89.5034 34.3981 95.6757 31.8523 101.248 26.1183H95.0753ZM118.33 33.8397H118.215V33.4974H118.33C118.33 33.4974 118.414 33.4974 118.528 33.4974V33.3834C118.528 33.3834 118.438 33.3954 118.336 33.3894H118.222V33.1252H118.348C118.444 33.1252 118.528 33.1252 118.582 33.1252V32.9991C118.582 32.9991 118.48 33.0111 118.348 33.0111H117.777V33.1192C117.795 33.1192 117.867 33.1192 117.999 33.1192H118.101V33.3834H117.891C117.849 33.3834 117.819 33.3774 117.801 33.3714V33.4914C117.849 33.4914 117.915 33.4854 117.999 33.4794H118.101V33.8217H117.951C117.837 33.8217 117.759 33.8217 117.711 33.8217V33.9298C117.789 33.9237 117.867 33.9237 117.951 33.9298H118.48C118.534 33.9298 118.576 33.9297 118.606 33.9418V33.8277C118.564 33.8337 118.474 33.8397 118.342 33.8337M118.258 32.9691C118.24 32.927 118.228 32.897 118.228 32.879C118.228 32.867 118.222 32.855 118.215 32.855C118.215 32.849 118.197 32.825 118.185 32.7829L118.059 32.819C118.089 32.885 118.107 32.9511 118.131 33.0051L118.258 32.9751V32.9691ZM117.417 33.2213C117.495 33.2753 117.567 33.3293 117.627 33.3894L117.705 33.2873C117.669 33.2573 117.597 33.2032 117.489 33.1252L117.417 33.2213ZM117.579 32.831L117.501 32.9271C117.555 32.9631 117.615 33.0171 117.699 33.0892L117.783 32.9931C117.735 32.9511 117.669 32.897 117.579 32.825" fill="white"/>
</svg>
