<svg width="117" height="40" viewBox="0 0 117 40" fill="none" xmlns="http://www.w3.org/2000/svg">
<path d="M50.5477 25.2163C48.652 27.2084 47.9773 26.7265 49.2572 24.472L49.8141 23.4277L49.782 23.417L55.1638 13.8635H56.4009C57.3916 13.8903 58.0074 13.0924 58.5804 12.439C58.0984 12.9264 57.1774 13.0924 56.2831 13.2477C47.9719 13.2316 39.6555 13.2209 31.3336 13.2155C31.6228 13.162 31.9066 13.0977 32.1904 13.0281C33.0419 12.8139 33.8719 12.514 34.6591 12.1231C32.8491 12.6693 31.2372 12.921 29.7806 12.8835C26.5087 12.7978 24.0346 11.2341 21.8497 8.20316C21.1214 7.19105 20.4253 6.01828 19.7452 4.68486C17.8227 1.28972 15.1666 -0.729156 12.8692 0.245473C15.67 0.0794645 16.6714 2.08763 19.1133 8.72795C19.938 10.961 22.6209 12.5997 25.8339 13.2048C19.0437 13.1995 12.2534 13.1887 5.46849 13.178V13.917L41.3959 13.8796L39.8643 16.5839C39.6769 16.2251 39.1467 14.1795 35.6606 15.7324C32.3029 17.9173 30.3215 20.6109 29.5611 23.6633C28.2973 28.7078 32.576 27.8135 34.627 25.875L33.1222 28.4615L35.7034 28.5311L41.8725 17.5746C46.8366 16.2947 43.0613 25.5751 39.1735 26.7318C44.9142 28.4347 50.4674 15.0363 42.1884 16.9588L43.9449 13.8796L52.4006 13.8689L47.2115 22.9136C44.4429 26.9781 44.7267 28.8042 46.5635 28.8096C46.6974 28.8096 46.8313 28.7989 46.9812 28.7828C47.1258 28.7667 47.2811 28.74 47.4418 28.7025C50.6548 27.2459 52.5934 24.5951 53.9429 22.1586L53.0539 22.0889L50.5424 25.2217L50.5477 25.2163ZM39.1253 17.7245L34.8894 25.1895C34.1022 26.0678 31.4568 26.0303 32.3083 23.1278C32.9402 20.9697 34.4449 18.8384 36.5281 17.0658C38.2042 15.5557 39.7411 16.8035 39.1253 17.7245ZM53.6644 20.4074L57.081 20.3807L58.9874 18.4528L55.5708 18.4957L53.659 20.4074H53.6644ZM114.231 15.1487C104.891 15.1327 95.5574 15.1219 86.2181 15.1112C87.3587 14.897 88.4726 14.5382 89.5168 14.0188C82.2714 16.2037 78.239 13.7028 74.6029 6.58591C72.6804 3.19078 70.0296 1.17191 67.7323 2.14654C70.533 1.98054 71.5344 3.9887 73.9709 10.629C74.7956 12.8621 77.4678 14.4954 80.6702 15.1059C74.9081 15.1005 69.1514 15.0952 63.3946 15.0845V15.8288L69.4245 15.8181L67.8822 18.7741C67.668 18.3136 67.0468 15.7378 62.9609 17.6924C59.0142 20.4503 56.7061 23.8561 55.8011 27.7064C54.4409 33.5114 58.4733 33.0937 61.0277 31.1337C57.4505 37.3081 59.9566 42.6847 73.821 38.5398C82.9033 35.1875 87.771 35.1982 90.711 39.3109C94.481 36.039 95.6163 36.4674 102.305 38.1275C98.1867 34.6788 94.3096 32.4939 84.6812 34.32L76.8466 36.7244C66.8058 40.0232 60.8724 38.6469 63.3893 33.0776L63.9623 31.9798C64.0212 31.8834 64.0801 31.7817 64.1497 31.6799H64.1283L70.2331 20.0058C72.2359 19.4489 73.0285 20.4717 73.0177 22.1104C73.0017 24.9432 70.5972 29.6182 67.925 31.1872C67.6466 31.3533 67.3628 31.4818 67.0736 31.5728C73.7889 33.7363 80.306 16.8035 70.6026 19.2347L72.4073 15.8181L81.8429 15.8074L74.3672 29.2273C73.6175 31.289 76.3915 32.0601 82.0143 25.6501L81.2539 25.634C80.9968 25.8536 79.3903 27.2673 78.2979 28.1616C78.1212 28.3062 77.9712 28.4187 77.8534 28.4883C77.5 28.7025 77.4357 28.5633 77.8534 27.8992L84.3598 15.7967L99.6005 15.7806L98.2992 18.0565C97.2014 17.1248 95.3164 17.6174 93.6456 18.8544C93.1208 17.3657 91.2572 17.0337 88.2423 19.5399C84.7026 22.7851 83.412 25.5697 83.3638 27.5726C83.2781 31.3747 87.6854 32.3332 89.731 28.1723C90.0523 27.5136 90.3147 26.7318 90.4968 25.8107C85.9503 31.9852 83.2942 26.6247 89.6935 19.722C91.5464 18.2975 92.762 18.3725 92.9762 19.4167C91.932 20.3914 91.2037 21.6445 90.7538 23.0047L93.0779 22.8654C93.1047 22.7048 93.1369 22.5441 93.1797 22.3835C93.7741 20.0111 95.7769 18.1422 97.9618 18.6456L94.4863 24.7129C91.3375 29.3397 92.1676 31.0587 94.7273 30.475C97.9404 29.0184 99.8789 26.3677 101.212 23.9311L100.318 23.8615L97.8226 26.9942C95.9269 28.9863 95.2521 28.5043 96.5213 26.2498L97.0943 25.2217L97.0407 25.2056L102.358 15.7646H107.778L102.664 24.6862C99.397 29.4254 100.216 31.1873 102.819 30.5982C106.021 29.1416 107.96 26.5015 109.309 24.0543L108.42 23.9846L105.909 27.1174C104.013 29.1255 103.338 28.6275 104.618 26.373L105.18 25.3395L105.143 25.3288L110.546 15.7539H114.338C115.328 15.7753 115.944 14.9774 116.517 14.324C116.035 14.8114 115.114 14.9774 114.22 15.1327M67.1004 19.9683C67.0736 20.0433 67.0361 20.1183 66.9933 20.1932L62.0398 29.6289C61.108 30.7428 58.0235 30.6839 59.0141 27.021C59.7478 24.2792 61.5257 21.6016 63.9623 19.3632C65.5581 17.8102 67.0468 18.5546 67.1539 19.5185C67.17 19.6684 67.1539 19.8184 67.1004 19.9683ZM32.576 31.7817L23.9007 34.2022C14.5186 36.9815 8.14604 36.3549 8.06036 32.7188C8.04965 32.3172 8.11926 31.8727 8.2692 31.3961C8.37095 31.0748 8.50483 30.7428 8.68155 30.3893L9.17957 29.5058C9.27596 29.3505 9.37771 29.1951 9.49017 29.0291L9.45268 29.0184L15.4986 18.2975C21.3249 16.7874 16.8909 27.685 12.3391 29.0184C13.3887 29.329 14.4383 29.2112 15.4129 28.7989C15.8038 28.6329 16.184 28.4187 16.5535 28.167C16.7356 28.0385 16.9177 27.9046 17.0891 27.76C17.4425 27.4708 17.7745 27.1495 18.0905 26.8014C18.2458 26.6247 18.4011 26.448 18.5456 26.2606C21.3249 22.7208 22.0907 17.264 17.496 17.3497C17.0141 17.3604 16.4679 17.43 15.8627 17.5692L17.9298 13.9385L14.9417 13.9278L13.137 17.1462C12.9228 16.7178 12.3016 14.3294 8.21565 16.1394C4.26894 18.6938 1.96089 21.8587 1.05588 25.4466C-0.325734 30.973 3.9637 30.4161 6.49666 28.4562C2.43214 34.6895 5.10969 40.1892 20.5485 36.0176C30.5839 32.6492 35.9604 32.6653 39.227 36.7726C43.3826 33.5007 44.6357 33.9291 52.0257 35.5891C47.4739 32.1405 43.2112 29.9663 32.5707 31.7817M6.87152 28.2527L6.78049 28.2259C6.85546 28.1616 6.92507 28.0974 7.00005 28.0277L6.87152 28.2473V28.2527ZM4.08152 25.9339C4.09223 25.6072 4.15113 25.2377 4.2743 24.8147C5.00259 22.2871 6.78584 19.7862 9.22777 17.7085C11.1931 15.9359 12.9871 17.3925 12.2695 18.4796L7.30529 27.2352C6.49131 28.1348 4.02796 28.2098 4.08687 25.9393M27.4565 13.9331L22.321 22.8976C19.0704 27.6368 19.8737 29.3986 22.4763 28.8096C25.6733 27.353 27.6118 24.7129 28.9613 22.2656L28.0724 22.196L25.5608 25.3288C23.6812 27.3209 22.9904 26.8443 24.2702 24.5844L24.8432 23.5562L24.7897 23.5402L30.2091 13.9331H27.4512H27.4565Z" fill="white"/>
</svg>
