<svg width="104" height="40" viewBox="0 0 104 40" fill="none" xmlns="http://www.w3.org/2000/svg">
<path d="M5.25961 37.5013C5.25961 37.1833 5.02833 37.0272 4.56578 37.0272H3.92976V38.6635H4.32293V37.9928H4.51374L4.82018 38.6635H5.25961L4.89535 37.935C5.11506 37.8772 5.25382 37.7153 5.25382 37.5013M4.51374 37.7557H4.32293V37.2816H4.4964C4.73345 37.2816 4.84908 37.351 4.84908 37.5245C4.84908 37.6864 4.73924 37.7557 4.51374 37.7557ZM49.3407 1.33562C49.3407 1.33562 48.1208 1.02339 46.0508 1.36452C45.675 1.40499 36.742 2.32432 32.0355 5.16322C32.0355 5.16322 31.9835 5.19791 31.9777 5.19791C31.9777 5.19791 31.9372 5.24996 31.9141 5.27887C31.4631 5.86284 29.6245 8.36061 29.6245 10.5346C29.6245 11.107 29.7517 11.6505 30.0639 12.1362C30.0755 12.1593 31.2492 14.1945 35.0884 16.3281C35.1057 16.3396 37.7654 17.9528 40.8414 19.1438C40.8587 19.1438 42.4661 19.7278 44.403 20.9247C44.7788 21.1733 45.5189 21.8209 45.6403 22.48V22.5089L45.623 22.5262C45.1489 22.8789 43.4259 24.0411 41.0611 24.2608H41.0206L41.009 24.2261C40.4482 22.4279 39.6329 21.0345 38.5749 20.0805C38.2569 19.7972 37.1005 18.8779 35.6145 18.9588C34.5391 19.0166 33.5504 19.5775 32.6658 20.6356C32.5212 20.7685 31.2608 22.029 30.9717 25.157C30.7577 26.1284 30.9428 27.9034 32.9664 28.3891C33.0705 28.4238 35.4815 29.187 39.0085 28.5915C39.0085 28.5915 39.0547 28.5857 39.0721 28.5741L39.2456 28.5221L39.3323 28.5047L39.2976 28.5972C39.2976 28.5972 39.1588 29.002 39.153 29.0077C39.0663 29.1465 37.008 32.3902 29.0232 35.0614C28.9943 35.073 26.1958 35.9576 24.2069 34.8474C23.38 34.3791 22.8019 33.6275 22.4954 32.5752C22.4954 32.5752 22.3971 32.2109 22.3971 32.2167C22.3913 32.1993 21.8132 30.4185 22.5821 28.152C22.5937 28.1289 23.7559 25.3362 23.091 19.8145C23.0852 19.7509 22.8192 18.3459 22.5128 16.7154C21.9404 13.68 21.1598 9.51699 21.102 9.05444L21.0846 8.92724C21.0846 8.92724 23.5419 10.9278 23.8195 11.159C23.2471 9.81764 19.512 1.16216 19.4773 1.06965C19.4773 1.06965 19.113 0.231276 19.0147 0C18.9453 0.341131 18.7892 1.14481 18.7834 1.15638C18.7314 1.41078 18.4654 2.53246 17.3842 6.15771C17.3842 6.15771 17.3206 6.38899 17.3033 6.45259C17.3842 6.49306 17.5808 6.58558 17.5982 6.60293C17.7369 6.75325 18.2053 7.39504 18.4076 9.41292C18.4192 9.49964 19.8531 21.2773 19.8647 21.3872C19.8704 21.4045 20.3966 24.6713 20.3966 25.9433C20.3966 25.9665 20.3966 25.9838 20.3966 26.0012V26.0474V26.0532C20.3966 26.1226 20.3966 26.2324 20.3966 26.3654C20.3966 27.3368 20.252 29.7767 18.8933 30.9389V31.043H18.8355C18.8123 31.043 18.7892 31.043 18.7892 31.043V30.9909C18.7892 30.4474 18.7025 27.2963 16.7482 23.3704C16.702 23.249 14.9905 19.9302 13.944 18.7796C13.9093 18.7275 10.2956 13.651 9.27224 12.5872C9.2549 12.564 6.7918 9.57481 6.34659 9.14695C5.93608 8.6844 5.12083 7.67835 4.68719 6.88045L4.64094 6.75324L4.78549 6.82841L6.06907 7.16954C6.06907 7.16954 6.99417 7.41817 7.25435 7.48755C7.00573 7.21581 6.43333 6.58558 6.43333 6.58558L6.13845 6.26757C5.14975 5.18635 2.14316 1.90224 0.911618 0.832594C0.911618 0.832594 0.425952 0.41052 0.292969 0.294882C0.298751 0.53194 0.321871 1.10434 0.321871 1.10434L0.437516 5.45811C0.437516 5.45811 0.443292 5.63155 0.449073 5.68359C0.489547 5.70094 0.622523 5.76455 0.622523 5.77033C0.662996 5.77033 1.40308 6.1635 1.81938 7.12329C1.83672 7.15798 4.03962 11.5233 7.18497 15.8539C7.20232 15.8829 9.98919 19.6237 11.955 21.8498L11.9897 21.8902C12.9033 22.9252 15.933 26.5042 16.6557 29.1812C16.6557 29.1928 17.1645 30.2913 17.1645 31.9738C17.1645 32.1357 17.1645 32.3034 17.1529 32.4711C17.1529 32.4711 17.072 32.5694 17.0662 32.5752C17.0431 32.5983 14.5742 34.8185 6.80337 38.9931C6.80337 38.9931 6.22518 39.2995 6.06328 39.3862C6.29456 39.4614 6.86119 39.6406 6.86119 39.6406C7.5261 39.8372 13.5335 41.3752 19.7837 34.2635H19.8993V34.3155C19.9514 35.4546 20.2867 37.5592 21.9057 38.8717C23.4205 40.109 25.7101 40.3287 28.6994 39.5308C29.7979 39.2012 39.4768 36.1137 41.5352 28.2792V28.2503L41.5699 28.2387C44.6285 27.3426 46.3746 26.4637 46.629 25.6947V25.6832C46.7967 25.3594 47.7045 23.5034 47.7045 21.5144C47.7045 20.2308 47.3229 18.901 46.1087 17.9123C46.0971 17.895 44.5302 16.2356 41.46 15.0214C40.2747 14.5646 36.5396 12.9803 34.9438 11.6852L34.8629 11.6216L34.9612 11.5985C35.7128 11.425 36.1175 11.1937 36.1291 10.9336V10.9162C36.1291 10.4421 34.8976 9.88702 34.4177 9.71357L33.1688 9.2915C33.0011 9.25681 32.6831 9.14695 32.3882 9.00241L32.2899 8.95614L32.3882 8.90989C33.9493 8.19872 38.5402 6.4179 47.5426 5.29621C47.716 5.29621 48.2306 5.34247 48.5313 5.55062L48.5544 5.56796V5.59686C48.5197 5.88018 48.4156 6.61448 48.0398 7.18688C48.0282 7.21001 46.6348 9.58638 46.1491 10.2108C46.1491 10.2108 45.9641 10.471 46.0104 10.6907C46.0277 10.7774 46.074 10.8468 46.1607 10.8989C46.1723 10.9104 46.4845 11.1417 46.8719 10.7138C47.3344 10.2108 49.7223 7.55115 50.925 4.37111C51.0984 3.94903 51.347 3.13379 50.9943 2.40527C50.7168 1.85021 50.156 1.49172 49.3176 1.32983M33.3018 24.1047C33.3018 24.1047 32.9895 23.8908 33.1283 23.5496C33.2093 23.4109 33.4521 23.1044 34.1691 22.6592C34.6432 22.3239 35.3717 21.9828 36.1407 22.214C36.9675 22.4626 37.6902 23.3241 38.2858 24.7696C38.0487 24.8563 36.3199 25.4172 33.3018 24.1047ZM100.285 7.19267C100.239 7.2794 98.8626 9.60951 98.3885 10.2166C98.3885 10.2166 98.2093 10.4768 98.2497 10.6907C98.2671 10.7774 98.3133 10.8468 98.4001 10.9046C98.4116 10.9162 98.7239 11.1475 99.0997 10.7196C99.383 10.419 101.898 7.68991 103.141 4.38845C103.141 4.37689 103.673 3.32459 103.228 2.41106C102.95 1.85599 102.384 1.49172 101.54 1.32983C101.528 1.32983 100.302 1.02917 98.2729 1.36452C98.1804 1.37608 88.9929 2.30119 84.2518 5.16322L84.1998 5.2037C84.1998 5.2037 84.1477 5.24995 84.1419 5.26729C83.6852 5.85126 81.8292 8.33749 81.8292 10.523C81.8292 11.0955 81.9564 11.6447 82.2744 12.1362C82.4016 12.3501 83.6331 14.2986 87.2931 16.3281C87.3162 16.3454 89.9701 17.947 93.046 19.1381C93.0518 19.1381 94.6534 19.722 96.6019 20.9189C96.9026 21.1155 97.7062 21.7746 97.8392 22.4742V22.5031L97.8219 22.5205C97.3478 22.8732 95.6132 24.0353 93.2658 24.255H93.2253L93.2137 24.2203C92.6529 22.428 91.8376 21.0345 90.7911 20.0863C90.7391 20.0342 89.5017 18.8605 87.8366 18.953C86.7496 19.0109 85.7609 19.5717 84.8762 20.6298C84.7317 20.7628 83.477 22.0406 83.1879 25.157C82.974 26.1284 83.1532 27.9034 85.1769 28.3891C85.4371 28.47 87.825 29.1639 91.2305 28.5915L91.2883 28.5741L91.456 28.5221L91.5485 28.4816L91.5138 28.5741C91.5138 28.5741 91.3635 29.002 91.3693 28.9788C91.3693 29.0077 89.496 32.2976 81.2394 35.0614C81.2163 35.073 78.3947 35.9576 76.4231 34.8474C75.4749 34.3097 74.8504 33.402 74.5787 32.1473C74.5787 32.1415 74.2318 31.1586 74.3879 29.6842C74.4399 28.6204 74.8446 27.0766 74.8446 27.0766C75.1048 26.296 75.4171 24.4343 75.4228 24.3533C75.8854 21.2138 74.677 19.4271 74.4226 19.0918C73.5264 17.5885 71.1616 16.2876 70.6817 16.0332C70.6817 16.0332 66.6748 14.0442 66.6691 14.0442C66.6575 14.0384 65.5647 13.4602 64.4951 12.6103L64.4083 12.5409L64.5124 12.5178C64.5124 12.5178 65.4491 12.3212 65.5763 11.9223C65.6167 11.8008 65.5647 11.6621 65.4375 11.5175C65.4375 11.5118 64.8478 10.9335 63.807 10.656L61.6851 10.0316L61.7949 9.97376C63.304 9.17008 67.7734 7.13485 76.7064 5.50435C76.7758 5.50435 77.3656 5.487 77.7125 5.70093L77.7414 5.7183V5.7472C77.7298 6.11146 77.6546 6.80529 77.3251 7.3777L77.1979 7.61476C76.8625 8.26233 75.9663 9.97376 75.5963 10.4941C75.5963 10.4941 75.5789 10.5346 75.5674 10.5635C75.3997 10.9451 75.55 11.1186 75.6541 11.1822C75.8449 11.3152 76.0531 11.2631 76.3017 11.0087C76.7469 10.4768 79.0076 7.66678 80.0252 4.40001C80.1293 4.13404 80.4357 3.19738 80.0021 2.41683C79.6841 1.86755 79.0943 1.53799 78.2502 1.43392C78.1172 1.41079 76.903 1.2142 74.9776 1.64784C74.8909 1.65941 65.8076 3.07597 61.1936 6.23866L61.1474 6.27912C61.1474 6.27912 61.1127 6.33116 61.1127 6.33695C61.0837 6.37164 59.0832 9.09491 59.0832 11.4886C59.0832 12.1593 59.2393 12.8011 59.6383 13.3562C59.6383 13.3562 59.8869 13.7146 59.8927 13.7204C59.9158 13.7725 60.5171 14.9867 62.9166 16.7328C62.9282 16.7386 64.3563 17.8256 66.432 18.7796C67.3918 19.2364 72.2197 21.5838 73.3124 22.5956C73.4801 22.7286 73.7345 23.0004 73.7345 23.1969C73.7345 23.2374 73.7114 23.301 73.6131 23.382C73.6131 23.382 73.59 23.4051 73.5668 23.4167C73.5611 23.4282 71.6646 25.3825 70.1035 26.1746C69.6583 26.4406 68.0336 27.331 65.9752 27.6721C65.3277 27.7762 64.7148 27.8167 64.0961 27.7935C63.7781 27.7935 60.9392 27.7126 60.1355 24.6771C60.043 24.3418 59.1873 21.2658 59.1757 15.9754C59.1642 15.7152 58.9213 12.1246 58.6322 10.1588C58.5108 8.92146 57.8285 2.65967 56.3426 1.17951C56.3426 1.17951 55.9668 0.815241 55.8627 0.716949C55.8222 0.901969 55.7239 1.35296 55.7239 1.35296L54.5387 6.63762C54.5387 6.63762 54.4866 6.84576 54.4751 6.90937C54.556 6.94406 54.7526 7.04235 54.7642 7.05391C54.8856 7.17533 55.3192 7.67834 55.6777 9.26258C55.8916 10.0547 56.6086 12.9919 56.8283 17.7041C56.8283 17.7041 57.1405 25.1917 57.1405 25.209C57.1636 25.7178 57.3313 28.3428 58.3952 29.8924C58.4183 29.9328 61.1242 33.639 66.5476 32.4711L66.8483 32.4191L67.5248 32.2456C67.5248 32.2456 67.6635 32.1993 67.6751 32.1993C67.8833 32.1357 69.7624 31.546 72.3584 29.5975L72.4625 29.5223L72.4394 29.6495C72.2255 30.829 72.1214 32.0606 72.1214 33.3152C72.0578 34.4485 72.1329 37.2527 74.1277 38.8717C75.6541 40.109 77.9437 40.3287 80.933 39.5308C82.0315 39.2012 91.7162 36.0848 93.7803 28.2792L93.7919 28.2503H93.815C96.8563 27.3368 98.5967 26.4579 98.8511 25.7063C98.8511 25.7005 98.8626 25.6889 98.8626 25.6889C99.0361 25.342 99.9265 23.4918 99.9265 21.5202C99.9265 20.2366 99.5507 18.9068 98.3423 17.9239C98.3307 17.9065 96.7407 16.2355 93.6936 15.0329C92.5083 14.5761 88.7674 12.9803 87.1774 11.6968L87.0965 11.6332L87.1948 11.61C87.9464 11.4366 88.3511 11.2053 88.3627 10.9451V10.9278C88.3627 10.4537 87.1312 9.8986 86.6455 9.72514L85.4082 9.30306C85.2752 9.27415 84.9514 9.17007 84.6392 9.01396L84.5467 8.96772L84.6392 8.92145C86.1656 8.21028 90.6986 6.44102 99.7704 5.30777C99.9901 5.30777 100.487 5.35981 100.771 5.56217L100.794 5.57952V5.60844C100.753 5.96692 100.638 6.65496 100.285 7.19846M85.5296 24.1105C85.5296 24.1105 85.2174 23.8965 85.3561 23.5554C85.4371 23.4166 85.6799 23.1102 86.3969 22.665C86.871 22.3297 87.5995 21.9828 88.3685 22.214C89.1953 22.4626 89.918 23.3241 90.5136 24.7696C90.2765 24.8563 88.5477 25.4172 85.5354 24.1047M4.51374 36.397C3.98759 36.397 3.53661 36.663 3.27064 37.1082C3.12609 37.3568 3.05671 37.6112 3.05671 37.8772C3.05671 38.2588 3.20126 38.623 3.47301 38.9006C3.75632 39.1839 4.12057 39.3458 4.50795 39.3458C4.89534 39.3458 5.25382 39.1954 5.53713 38.9179C5.81466 38.6461 5.97077 38.2819 5.97077 37.8772C5.97077 37.4724 5.82622 37.1197 5.55447 36.8422C5.27116 36.5531 4.9069 36.397 4.50795 36.397M5.36947 38.7387C5.12663 38.9699 4.82018 39.0971 4.50795 39.0971C4.19573 39.0971 3.87773 38.9642 3.64646 38.7213C3.41518 38.49 3.29375 38.1836 3.29375 37.8598C3.29375 37.536 3.42675 37.218 3.6638 36.981C3.89508 36.7497 4.18417 36.634 4.51374 36.634C4.84331 36.634 5.14397 36.7613 5.38681 37.0041C5.61231 37.2354 5.73371 37.536 5.73371 37.8887C5.73371 38.2067 5.60651 38.5132 5.37524 38.7387" fill="white"/>
</svg>
