<svg width="73" height="40" viewBox="0 0 73 40" fill="none" xmlns="http://www.w3.org/2000/svg">
<path d="M22.9636 36.4937C23.6116 36.5882 24.3227 36.6478 24.9708 36.5882V36.4026L23.0862 36.308L22.9636 36.4937ZM27.013 39.4641C26.6101 39.2154 26.8553 38.69 26.7958 38.2591C27.0445 37.9824 27.5069 38.1961 27.8187 38.0735V37.8563H26.985C26.6417 37.6706 26.8588 37.2363 26.7958 36.9315C27.0445 36.5287 27.6015 36.7143 28.0008 36.6198V36.5567C27.9693 36.28 27.6295 36.4341 27.4123 36.4026C26.4245 36.7739 27.1636 35.5689 26.5156 35.5689C26.393 35.723 26.484 35.9717 26.456 36.1854C26.2073 36.6478 25.7449 36.2169 25.3106 36.4026V36.6198L26.1443 36.6513C26.7012 36.6828 26.3579 37.2993 26.4525 37.6111C26.2984 38.042 25.6468 37.7652 25.3701 37.8563V37.9824C25.5242 38.1996 25.9586 38.105 26.2073 38.0735C26.6101 38.1961 26.393 38.7215 26.456 39.0648C26.4875 39.839 25.5277 39.31 25.0934 39.5272V39.7129C26.0812 39.7444 27.1951 39.7444 28.1865 39.7129V39.5903C27.8152 39.3451 27.4754 39.5903 27.013 39.4677M46.5524 37.1802C46.1811 36.7494 46.9552 36.935 46.9237 36.6233C46.9237 36.5007 46.7381 36.5602 46.647 36.5602C46.2126 36.4691 46.3702 35.9122 46.3702 35.5724C45.9709 35.3237 46.062 35.8806 46.062 36.0978C46.1846 36.5917 45.5961 36.4691 45.3509 36.5602C45.1652 36.9315 45.7537 36.7178 45.9078 36.8685C45.8168 37.5165 45.3824 38.0139 45.1652 38.5394C45.5996 38.6935 45.6907 38.0735 45.9394 37.8913C46.0935 38.5394 45.9709 39.345 46.062 39.9616C46.125 39.9616 46.2476 39.9931 46.3107 39.93L46.3702 37.6741C46.6189 37.5515 46.71 38.2942 47.0183 37.8913C47.0183 37.6426 46.6785 37.4254 46.5559 37.1802M23.2438 37.7687C23.3979 38.1085 23.9829 37.8913 24.3578 37.9544C24.4804 37.9544 24.6975 38.0139 24.666 37.8003C24.2947 37.6461 23.6782 37.6776 23.2438 37.7687ZM23.3034 35.667L23.2718 35.8841H24.603L24.6345 35.73C24.2316 35.6074 23.7377 35.6985 23.3034 35.667ZM7.87991 5.87443L4.75529 5.90596L2.37679 4.60637C2.19113 7.79054 2.31373 11.283 2.28571 14.5442C2.25418 15.0697 2.37679 15.5356 2.77962 15.9069C3.15094 16.1836 3.61332 16.3377 4.07921 16.2151C4.47855 16.061 4.82184 15.7527 5.06705 15.3814C6.14945 15.476 7.85189 14.7929 8.49994 15.9699C8.87125 16.2186 9.33363 16.3412 9.768 16.1556C10.1708 16.033 10.5702 15.6617 10.6963 15.2273L10.8189 6.02856L9.83105 4.91463C8.99735 4.14048 8.53146 5.5942 7.88341 5.87443M7.69776 13.1606L5.31576 13.2516L5.19316 13.066L5.28773 8.06728L5.37881 7.9762H7.69776L7.85189 8.16185L7.69776 13.1606ZM14.9944 0.371311L13.8804 1.42219L1.05268 1.39067L0.712891 1.45022C1.05268 2.06674 1.33291 2.74631 1.76377 3.27525L11.4704 3.30678C11.8733 3.36983 12.5528 3.12112 12.5844 3.67809L12.6159 14.1729L12.5528 15.5636C12.3356 16.1801 11.593 15.8403 11.2848 16.089C12.0904 16.9858 13.0152 17.7879 13.8804 18.6567C14.2202 18.7793 14.5285 18.5936 14.8087 18.5025C15.4603 18.1628 15.7685 17.5147 15.9227 16.8947C15.9227 12.5756 16.0453 8.00422 16.0172 3.55549C16.294 3.12112 16.7879 2.78133 17.0086 2.31895C16.357 1.63938 15.8001 0.837202 14.9979 0.371311M30.7962 16.8667C31.5073 16.7721 31.4757 17.6408 32.0327 17.823C32.5266 18.1032 33.0836 18.1312 33.6405 17.9456C34.0434 17.7599 34.4462 17.3571 34.5688 16.8947L34.6599 2.56415L34.5688 2.19284L32.9925 1.29609C32.2184 0.924776 31.784 1.88108 31.2305 2.25239C28.1409 2.40652 25.2335 2.31194 22.0808 2.34697L19.9511 1.11043L19.8565 1.14196L19.7934 15.7808C19.7023 16.4919 19.888 17.1084 20.3189 17.6058C20.7217 17.9456 21.1841 18.1908 21.8041 18.0997C22.4521 18.0051 22.9776 17.3886 23.2859 16.8316L30.7997 16.8632L30.7962 16.8667ZM23.2859 4.23506L23.4715 4.11245H31.0764L31.2305 4.36116L31.1675 14.7649L30.9503 14.919L23.3454 14.856L23.2543 14.6703L23.2859 4.23506ZM24.7396 38.5394L24.645 38.4448C24.0565 38.4133 23.8708 38.3537 23.1913 38.4763C23.1597 38.9387 23.1282 39.4957 23.2543 39.93C23.3454 39.9616 23.4085 39.8705 23.468 39.839C23.5311 39.4677 23.9619 39.6848 24.2422 39.6218C24.4278 39.7129 24.4593 39.93 24.7361 39.839C24.8306 39.4046 24.6765 39.0053 24.7361 38.5394M24.2106 39.3766L23.5626 39.345C23.5626 39.1279 23.44 38.7566 23.6852 38.6655C23.9934 38.6655 24.5539 38.6024 24.3963 39.0963C24.4278 39.2505 24.3332 39.3766 24.2106 39.3766ZM71.3918 8.0988L72.4426 6.08811C72.8139 5.47159 71.9172 5.13181 71.5774 4.7605C71.2376 5.00921 71.2061 5.50312 70.8348 5.72031C70.6491 5.44357 70.3093 5.16334 70.3093 4.79203L71.7315 1.94764C71.4863 1.63587 71.1115 1.01935 70.6491 1.08241L69.8435 2.69026C69.5037 3.06157 69.5352 3.86374 68.9152 3.89527C67.6471 3.89527 68.3582 2.53613 68.0184 1.85306C67.556 1.60435 67.0901 1.26456 66.5962 1.20501C66.1338 1.63587 65.668 2.19284 64.8938 1.97916C63.5347 2.10177 65.0199 1.05088 64.7397 0.525441C64.3999 0.308259 64.0286 0.063053 63.5977 0L62.4522 1.97916C62.0529 2.04222 61.6185 1.97916 61.2788 2.16482V7.54534C61.4049 8.8134 60.8794 10.2041 61.8638 11.1288C62.1755 11.346 62.6379 11.346 63.0407 11.283C63.6573 10.3582 64.9568 10.9117 65.8536 10.7891C66.2529 11.2515 66.873 11.3776 67.3984 11.2514C67.7382 11.1253 68.078 10.7891 68.1725 10.4178L68.2041 4.20353L68.2636 4.172C68.7295 5.28594 69.255 6.36485 70.0571 7.35618C69.5317 8.40706 69.0378 9.45795 68.3897 10.4773L69.2585 11.8364C69.9696 11.5912 70.523 11.0343 71.2061 10.6945C71.7 10.3862 71.7596 11.311 72.2885 11.1569C72.5057 11.1569 72.6283 10.9397 72.7229 10.754C73.0311 9.67162 72.1974 8.74334 71.3918 8.0953M65.6119 9.11816C65.118 9.33534 64.4384 9.24076 63.913 9.20923C63.7273 8.62074 63.7588 7.85009 63.8814 7.23358C64.4699 7.17052 65.0269 7.04792 65.5804 7.20205C65.7065 7.79054 65.6434 8.50164 65.6119 9.11816ZM65.6119 5.46809C65.118 5.65375 64.4384 5.53115 63.913 5.56267L63.7904 5.37702L63.8219 3.52396C64.3789 3.52396 64.9358 3.39785 65.4928 3.49243L65.6154 3.73764C65.5524 4.38568 65.738 4.85158 65.6154 5.46809M71.15 9.61207C70.8733 9.79773 70.53 10.0429 70.2533 9.98339L71.059 8.56119C71.3042 8.83792 71.059 9.24076 71.15 9.61207ZM23.2578 37.2083C23.6922 37.2713 24.2176 37.2713 24.6485 37.2083V37.0226L23.3489 36.9911C23.2543 36.9911 23.2263 37.1137 23.2543 37.2083M47.7434 38.9072L46.9062 39.6183L47.0323 39.7409C47.4036 39.6498 47.7119 39.4326 47.9886 39.1559C47.9886 39.0018 47.8345 38.9387 47.7434 38.9072ZM50.3706 38.6935V38.5078L47.0323 38.4448L47.0008 38.6935C47.5577 38.9107 48.5176 38.2907 48.5771 39.1559C48.7312 39.5868 48.2058 39.6498 47.9886 39.7724C48.0481 40.0491 48.4195 40.0211 48.6051 39.9581C49.1025 39.7724 48.7592 39.1874 48.9169 38.8441C49.3197 38.5043 49.8767 38.8441 50.3706 38.69M49.4423 39.1839C49.628 39.338 49.7821 39.5552 49.9993 39.7094C50.1534 39.832 50.3075 39.6463 50.4021 39.5552C50.1534 39.3065 49.8767 39.1209 49.5964 38.9667L49.4423 39.1839ZM35.0627 35.723H33.5775C33.4829 36.2169 33.7001 36.8965 33.3918 37.3624C33.2377 37.3309 33.0205 37.4219 32.8979 37.2993C32.7438 36.8054 32.8349 36.2484 32.8068 35.723L31.4477 35.66C31.2305 35.9997 31.3531 36.5567 31.3251 37.0191C31.3566 37.4535 30.8942 37.2678 30.6771 37.3589V37.5761H31.0799C31.5423 37.8843 31.1429 38.4413 31.1429 38.8757C31.1745 39.2154 30.4634 39.6498 30.9573 39.8039C31.5423 39.3065 31.5143 38.4098 31.6999 37.6706C31.9486 37.6391 32.3164 37.5165 32.4741 37.7652V39.2189C32.4425 39.4992 32.1658 39.6218 31.8856 39.5622C31.854 39.6533 31.9171 39.7444 32.0082 39.8109C32.2254 39.902 32.4741 39.8109 32.6562 39.7164C32.933 39.0963 32.6247 38.2626 32.933 37.6741C33.1186 37.5831 33.3673 37.6146 33.4899 37.7687C33.5215 38.4798 33.3358 39.2224 33.0906 39.8109H33.3393C33.7737 39.1909 33.7421 38.4168 33.9278 37.7092C34.173 37.6496 34.4813 37.6181 34.6984 37.7407C34.821 38.2346 34.7895 38.8231 34.758 39.3486C34.6984 39.5938 34.3867 39.6253 34.138 39.5938V39.6568C34.138 39.9651 34.4778 39.874 34.6634 39.9055C35.4376 39.5342 34.8806 38.3923 35.1889 37.7407C35.343 37.555 35.9315 37.8633 35.7143 37.4289C34.6039 37.5235 35.4376 36.3465 35.0662 35.73M32.0047 37.3379C31.8505 37.3694 31.6964 37.2433 31.6649 37.1207C31.756 36.7494 31.6018 36.2555 31.8225 36.0067C32.0362 36.0383 32.3164 35.9157 32.4706 36.1013C32.3795 36.5322 32.7788 37.492 32.0047 37.3379ZM34.7895 36.5637C34.6634 36.8439 34.9121 37.6146 34.2641 37.3694C34.0469 37.3694 33.8297 37.2468 33.9243 36.9981C33.9523 36.6898 33.8297 36.287 34.0469 36.0418C34.4182 36.0102 34.9436 36.0102 34.7895 36.5672M51.8874 0.129607C51.4845 0.40634 51.0817 0.840706 50.8365 1.27507L37.2626 1.4292C37.5428 2.07725 37.8826 2.72879 38.3485 3.28226L48.9834 3.19118C49.1691 3.19118 49.3547 3.22271 49.4143 3.37684L49.4773 15.4795C49.3232 16.0365 48.6752 15.9139 48.2408 16.0365C49.043 16.9612 50.0028 17.83 50.9311 18.6637C51.2709 18.7863 51.5791 18.6041 51.8909 18.5095C53.3446 17.7074 52.8787 15.8508 52.9418 14.4601L52.8787 3.34531C53.1589 2.91445 53.7124 2.57116 53.9296 2.1403C53.3411 1.4292 52.63 0.686576 51.8874 0.133111M50.2795 36.0137V35.8281L47.2495 35.737C47.1584 35.7685 47.1269 35.8596 47.1269 35.9542C47.4947 36.0768 47.838 35.8946 48.1462 36.1083C48.1778 36.6653 47.5577 36.294 47.281 36.4796C47.2495 36.7879 47.1864 37.1592 47.3125 37.4359L49.9713 37.499C50.3426 37.3764 50.1254 36.7879 50.1569 36.4796C49.8802 36.357 49.3232 36.6653 49.2917 36.1994C49.4773 35.8596 49.9713 36.0768 50.2795 36.0137ZM47.8064 37.2188C47.5893 37.2503 47.5612 37.0331 47.5893 36.8475C47.5577 36.5672 48.1147 36.5672 48.1147 36.8475C48.1462 37.0646 48.0236 37.2503 47.8064 37.2188ZM48.9204 37.1872C48.7032 37.2818 48.3319 37.2188 48.423 36.879C48.3599 36.6022 48.7627 36.6618 48.9204 36.6933V37.1872ZM48.9204 36.3816C48.7627 36.4446 48.6121 36.3816 48.486 36.2905C48.3914 35.9822 48.7627 36.0137 48.9204 36.0733V36.3816ZM49.4773 36.6618C49.7261 36.6022 49.9397 36.7564 49.8452 37.0331C49.9082 37.2188 49.691 37.2503 49.5369 37.2188C49.4143 37.2818 49.2882 37.1557 49.2882 37.0331C49.3512 36.9105 49.2882 36.6933 49.4739 36.6618M47.4947 37.8668L47.4351 37.9929C48.2688 38.084 49.1341 38.1786 49.9993 38.084V37.9614C49.2567 37.8388 48.3599 37.8388 47.4947 37.8668ZM57.45 12.0011L59.6744 10.7645L60.2629 11.29C60.5116 11.3846 60.8199 11.29 60.9425 11.0413C61.3768 9.86779 60.3855 8.93951 59.6464 8.25994C59.9546 7.42274 60.5431 6.71514 60.8199 5.87794L60.2349 5.22989C59.5553 4.42422 59.5553 5.84991 58.9984 5.90946C58.8442 5.56968 58.5009 5.32097 58.5325 4.92163C59.0264 3.96183 59.6464 3.0966 59.9862 2.07724C59.6464 1.83204 59.3662 1.33462 58.9353 1.24354C58.3188 2.17182 57.9475 3.19118 57.2679 4.08793C56.9877 4.15099 56.7109 3.87075 56.4027 3.9338C56.7109 5.20187 57.2364 6.37535 58.2242 7.36318L58.2557 7.60839L56.5848 10.7295C56.8931 11.1639 57.0472 11.6893 57.45 11.9941M59.3346 8.8099C59.4888 8.99555 59.3977 9.42992 59.4257 9.76971C59.149 9.95536 58.8687 10.3267 58.5289 10.2951C58.592 9.76971 59.0229 9.27579 59.3311 8.8134M72.4391 12.7647L71.7596 12.0887C71.3883 11.6263 71.2341 12.3339 70.9259 12.4249L66.5052 12.551C65.9797 12.3654 66.4421 11.6298 66.1023 11.29L63.5066 11.2585C62.9812 11.4126 63.4436 12.2463 63.0758 12.551L56.8931 12.7332L56.7705 12.8278L57.5761 14.0258L60.7603 14.0573C60.9775 14.0888 61.3173 13.9662 61.3488 14.243C60.0808 15.7878 58.4099 17.0874 56.7705 18.1382C59.3346 18.1698 61.3768 16.9928 63.1984 15.3219C63.5066 16.3412 63.2299 17.4552 63.4156 18.5376L63.5697 18.6917L65.9832 18.6602L66.2284 18.443C66.351 17.2975 66.1689 16.0295 66.3826 14.856C67.6191 16.124 68.9782 17.7319 70.6807 18.1032L72.1659 16.7721L72.229 16.5234C70.7752 15.8753 69.1989 15.3464 68.085 14.0503C69.1989 13.8646 70.2813 13.9277 71.4233 13.8646C71.8576 13.5879 72.229 13.1886 72.4426 12.7577M42.3629 35.6319C41.2174 35.6635 39.7952 35.5093 38.8669 35.6319C38.8669 35.6915 38.8354 35.7545 38.8985 35.8176H42.3629V35.6319ZM38.1278 36.3115C38.4361 36.5287 38.9615 36.4061 39.3959 36.4341C39.55 36.5567 39.6726 36.7739 39.5815 36.9911C39.2102 37.1452 38.7163 37.0226 38.345 37.1137C38.2819 37.9789 38.2819 39.0613 38.345 39.9265C38.4396 39.895 38.5307 39.9581 38.5902 39.895C38.5902 38.9667 38.5902 38.2241 38.7443 37.3274C39.0211 37.2678 39.4239 37.2328 39.6726 37.3589C39.6726 37.7302 39.1787 37.9789 38.93 38.1646C39.0841 38.5043 39.55 37.9789 39.487 38.4728C39.7041 38.8441 39.1787 39.5832 39.7952 39.6183C40.0124 39.2154 40.6009 39.4641 41.0002 39.4011C41.2489 39.4641 41.3085 39.7409 41.5572 39.5868C41.5572 39.1559 41.6203 38.662 41.4941 38.3222C40.8146 38.2907 40.1035 38.4133 39.487 38.2276C39.7041 37.8563 40.0754 37.6111 40.3242 37.2993C40.9127 37.0541 40.6639 37.7932 40.9407 37.9789C41.312 38.133 41.8059 38.07 42.1177 37.8843C42.1807 37.7897 42.2718 37.6671 42.1177 37.6076C41.932 37.3589 41.932 37.7617 41.7464 37.7932C41.5607 37.8248 41.2524 37.9158 41.1263 37.6987C41.0318 37.5761 41.1263 37.4184 41.1894 37.3274C41.5887 37.2958 42.1457 37.1732 42.454 37.4184V39.4291C42.3909 39.6778 42.1142 39.6463 41.9285 39.7058C41.9916 39.7689 41.9285 39.8915 42.0546 39.9546C42.3348 39.9861 42.5801 39.9546 42.7657 39.7058C42.7972 38.8406 42.8603 37.9158 42.7342 37.1102C42.3348 36.956 41.6833 37.2643 41.4976 36.8334C41.6202 36.0908 42.5485 36.5532 43.0144 36.4306L43.046 36.2765C41.4066 36.1854 39.9213 36.1854 38.2819 36.1223C38.1909 36.1854 38.0648 36.1854 38.1278 36.308M40.0124 38.5954C40.4117 38.6865 41.1544 38.3467 41.1859 38.8722C41.2174 39.303 40.692 39.1209 40.3837 39.1804L39.8898 39.0858C39.8267 38.9317 39.8583 38.683 40.0124 38.5919M40.0439 36.4586L41.1263 36.4902C41.2209 36.7073 41.1263 36.893 40.9407 37.0156C40.6009 36.956 39.8898 37.2328 39.9809 36.6443L40.0439 36.4586ZM45.6416 16.11C46.0445 16.3272 46.6014 16.2361 47.0008 16.0505C47.4351 15.8333 47.6523 15.3709 47.6838 14.9365L47.6208 6.04608C47.5297 5.45758 46.8817 5.08978 46.4753 4.65541C45.6101 4.2841 45.2388 5.48911 44.6223 5.8289L41.312 5.86042L39.0246 4.59236L38.93 4.65541L39.0246 14.7509L39.1472 15.525C39.487 16.082 40.0159 16.3903 40.692 16.2992C41.2805 16.2396 41.6833 15.7107 41.9916 15.2798L44.4962 15.2203C45.0531 15.2518 45.1442 15.9629 45.6416 16.117M44.6538 13.1535C43.6975 13.2446 42.9198 13.3077 42.0231 13.1851C41.869 11.5247 41.96 9.7627 41.932 8.06377L42.1177 7.90964H44.5312L44.6853 8.15835L44.6538 13.1571V13.1535Z" fill="white"/>
</svg>
