<svg width="129" height="40" viewBox="0 0 129 40" fill="none" xmlns="http://www.w3.org/2000/svg">
<path d="M8.90055 35.8194H9.45151V33.8192H8.90055V35.8194ZM7.30749 33.8192H6.36127V35.8254H8.35554V34.7295C8.35554 34.466 8.31961 34.2444 8.16988 34.0767C7.96626 33.8491 7.65484 33.8251 7.30749 33.8251M7.80457 35.4182H6.91224V34.2324H7.33146C7.49316 34.2324 7.6249 34.2504 7.72671 34.3701C7.80457 34.466 7.80457 34.5618 7.80457 34.7355V35.4182ZM20.1536 20.8532C22.5731 15.0201 21.4472 10.3308 16.7639 10.3308C13.9192 10.3308 10.4157 12.1694 7.571 15.1159C8.78075 14.6248 9.99051 14.3553 11.1344 14.3673C15.4823 14.4092 17.1352 18.5056 14.8295 23.5183C13.4581 26.5007 10.9967 29.1299 8.30765 30.7648L8.41545 31.1182C12.7334 30.4474 17.8958 26.2971 20.1536 20.8592M96.0087 13.1815C94.6372 16.158 92.1758 18.7931 89.4928 20.428L89.5946 20.7814C93.9126 20.1106 99.069 15.9603 101.327 10.5224C103.746 4.68929 102.626 0 97.9431 0C95.0984 0 91.5949 1.83259 88.7502 4.77912C89.9599 4.28803 91.1697 4.01853 92.3135 4.03051C96.6614 4.07243 98.3144 8.17481 96.0087 13.1815ZM11.895 34.4061C11.895 34.993 11.8471 35.1786 11.7033 35.3283C11.5356 35.508 11.4099 35.5559 11.1284 35.5739C10.6373 35.6098 10.4756 35.2026 10.4756 35.2026C10.4756 35.2026 10.9667 35.2146 11.2182 34.957C11.4039 34.7654 11.4398 34.4899 11.4398 34.3582V33.8311H10.8889V34.4061C10.8889 34.454 10.9008 34.7175 10.6912 34.8492C10.6074 34.9031 10.4996 34.9211 10.4277 34.9211V33.8311H9.87673V34.7774C9.87673 35.5978 10.3678 35.9452 11.1404 35.9392C11.3739 35.9392 11.7572 35.8973 12.0327 35.6577C12.404 35.3343 12.4519 35.1008 12.4519 34.3881V33.8311H11.9129V34.4061H11.895ZM103.034 19.5716L114.155 1.84457L108.501 3.7131L97.9251 20.8173L103.034 19.5656V19.5716ZM9.00235 24.728C9.60722 23.5123 10.3618 21.6977 10.5654 19.7573L6.36726 21.1467C6.36128 21.3803 6.48704 22.3565 5.39108 24.9616C4.26517 27.6446 3.08533 29.0879 0.719727 30.7708L0.821564 31.1302C3.73814 30.5792 7.2476 28.2315 8.99635 24.728M75.0896 4.0365C79.4375 4.07842 81.0904 8.1808 78.7847 13.1875C77.4132 16.164 74.9518 18.7991 72.2688 20.434L72.3766 20.7874C76.6946 20.1166 81.851 15.9663 84.1088 10.5284C86.5283 4.69527 85.4024 0.00598558 80.7251 0.00598558C77.8744 0.00598558 74.3769 1.83858 71.5322 4.78511C72.7419 4.29402 73.9516 4.02452 75.0955 4.0365M72.9635 14.3913C73.5684 13.1755 74.323 11.3609 74.5266 9.42049L70.3284 10.8099C70.3284 11.0435 70.4482 12.0137 69.3582 14.6248C68.2323 17.3078 67.0525 18.7512 64.6869 20.434L64.7887 20.7874C67.7053 20.2364 71.2147 17.8888 72.9635 14.3853M64.0102 10.8039L61.6445 14.2535H65.3876L67.7532 10.8039H64.0102ZM105.956 32.0045L105.8 31.9925L105.621 32.286C104.86 33.5257 103.758 34.9451 102.393 36.2626L103.938 36.2207C111.813 35.8015 114.628 31.7171 115.874 29.7707C116.047 29.5012 116.167 29.2077 116.317 28.8484C114.005 30.9086 111.017 32.1782 107.915 32.1782C107.238 32.1782 106.585 32.1183 105.962 32.0045M13.4401 33.8251H12.8472V34.2324H13.3683C13.53 34.2324 13.6797 34.2504 13.7635 34.3761C13.8354 34.4839 13.8234 34.6097 13.8234 34.7654V35.8314H14.3744V34.6875C14.3744 34.46 14.3744 34.2863 14.2426 34.1186C14.057 33.879 13.7695 33.8251 13.4341 33.8251M54.937 10.3368C52.0923 10.3368 48.5888 12.1754 45.7441 15.1219C46.9538 14.6308 48.1636 14.3613 49.3074 14.3733C53.6554 14.4152 55.3083 18.5116 53.0086 23.5243C51.6371 26.5067 49.1757 29.1359 46.4867 30.7708L46.5945 31.1242C50.9125 30.4534 56.0689 26.3031 58.3267 20.8652C60.7522 15.0321 59.6203 10.3428 54.943 10.3428M123.821 0C120.976 0 117.473 1.83259 114.628 4.77912C115.838 4.28803 117.048 4.01853 118.191 4.03051C122.539 4.07243 124.192 8.17481 121.887 13.1815C120.515 16.158 118.054 18.7931 115.371 20.428L115.479 20.7814C119.796 20.1106 124.959 15.9603 127.217 10.5224C129.636 4.68929 128.51 0 123.833 0M109.418 24.6741L118.814 9.45044L112.376 11.5885L104.842 24.1651C101.632 24.0992 96.2482 25.0574 92.2537 27.6207C89.379 26.3031 86.7918 25.3509 83.5698 24.6801L92.9723 9.43846L88.3729 10.9656C88.1453 11.0435 87.9417 11.1153 87.75 11.1692L86.5283 11.5705L78.9823 24.1651C73.6702 24.0513 62.4111 26.7643 61.4409 34.8313C61.2972 35.7356 61.3271 39.7781 66.3578 39.9937C72.155 40.1733 76.9581 35.3823 79.1201 31.8728L81.6054 27.8483C84.3124 28.8304 86.1271 29.8366 88.5226 31.2859C87.8818 32.3339 87.4506 33.5077 87.2889 34.8253C87.1511 35.7296 87.1751 39.7721 92.2057 39.9877C98.0089 40.1674 102.806 35.3763 104.968 31.8668L109.406 24.6682L109.418 24.6741ZM73.5204 33.2861C72.0232 35.7356 69.1486 38.1731 66.2739 38.1371C64.6509 38.1132 63.0938 36.8136 63.2136 34.8971C63.4532 30.8067 69.0947 25.4527 76.3772 26.5726L77.4372 26.7403L73.5204 33.2861ZM99.3744 33.2861C97.8772 35.7356 94.9965 38.1731 92.1279 38.1371C90.5049 38.1132 88.9478 36.8136 89.0676 34.8971C89.1215 34.0048 89.4329 33.0526 89.9599 32.1183C90.0018 32.1902 94.236 34.6456 96.2722 35.3643L96.5237 35.4481C97.3861 34.6995 98.1467 33.8072 98.7156 32.8729L99.7877 31.0822C97.0627 30.0522 93.691 28.3214 93.691 28.3214C95.9668 26.89 98.9312 26.0636 102.231 26.5726L103.291 26.7403L99.3744 33.2861ZM29.0471 31.184L34.1556 29.9324L45.2769 12.2053L39.6294 14.0798L29.0531 31.184H29.0471ZM43.5222 21.9193C42.9652 23.0092 41.1626 26.8062 37.4375 32.819C35.1018 36.592 32.9219 37.9994 31.4726 38.1431C30.2868 38.2569 29.9454 37.8976 29.6759 37.4065C29.6161 37.3047 29.4484 36.2985 29.9754 36.2806C31.1672 36.2267 31.6582 35.6278 32.0954 35.1127C32.4188 34.6756 32.6344 34.2563 32.7123 33.8311C32.886 32.8669 32.5326 32.2022 31.7361 32.1602C31.275 32.1363 30.4245 32.4417 29.9993 32.9328C28.9513 34.1545 28.4542 35.4062 28.3225 36.2806C27.8853 39.1612 30.2808 39.9877 31.251 39.9997C34.3293 40.0356 38.258 37.143 40.2463 34.6516C43.5581 30.5073 47.1155 24.3987 49.9543 19.7992L43.5282 21.9253L43.5222 21.9193ZM15.7877 36.4962H16.3387V33.8251H15.7877V36.4962ZM18.2432 33.7892C17.8898 33.8072 17.6383 34.0048 17.5245 34.3402C17.5065 34.2324 17.4886 34.1605 17.4586 34.0527C17.4347 33.9569 17.4047 33.8731 17.3928 33.8311H16.7759C16.7879 33.8731 16.8597 34.0467 16.9017 34.1665C16.9975 34.436 17.0274 34.6336 17.0274 34.7414C17.0274 34.8492 16.9915 35.0828 16.9675 35.1726L16.8238 35.8374H17.4167L17.4826 35.4062C17.5006 35.2924 17.5545 34.987 17.6263 34.7714C17.6623 34.6576 17.812 34.2264 18.1114 34.2264C18.4109 34.2264 18.5127 34.5678 18.5067 34.8552C18.5007 35.2206 18.3629 35.508 18.0575 35.514C17.9797 35.514 17.9258 35.4901 17.8599 35.4541V35.8614C17.9677 35.8913 18.0455 35.9033 18.1653 35.9033C18.848 35.8913 19.0936 35.3823 19.0936 34.8313C19.0936 34.3342 18.7762 33.7653 18.2432 33.7952M21.603 33.8311H20.483V34.9511C20.483 35.5979 20.9142 35.9272 21.4592 35.9332C22.3096 35.9452 22.615 35.496 22.615 34.8672C22.615 34.1246 22.112 33.8371 21.603 33.8371M21.567 35.5559C21.2795 35.5739 21.034 35.3763 21.034 35.0289V34.2444H21.4412C21.9323 34.2444 22.0341 34.5318 22.0401 34.8492C22.0521 35.2325 21.9563 35.526 21.567 35.5559ZM19.5128 35.1187L20.0638 34.993V33.8371H19.5128V35.1187ZM38.8868 9.6301C40.4439 7.18664 42.0909 4.87494 44.5104 5.89305C52.5594 9.28874 61.5966 8.12091 66.3578 5.1624C68.7653 3.6592 71.6519 1.49123 72.67 0.00598558C69.6157 2.16797 65.4175 3.23998 62.5069 2.98845C58.9675 2.93455 57.5481 0.281473 57.5481 0.281473C55.4999 3.88078 52.4995 5.84514 48.3372 5.71937C45.8159 5.64151 44.9356 3.64123 42.2825 3.44959C39.1144 3.47953 37.5034 4.58148 36.0601 7.27647C35.8145 7.73163 35.587 8.0191 33.3411 11.5705C30.4964 16.0681 29.9993 16.7928 27.1127 21.3024C26.8612 21.6737 25.4717 21.7815 25.1364 21.8594C24.1781 22.087 22.8666 22.5301 21.4173 23.5123C18.2252 25.6982 17.6323 28.6268 18.6385 30.4235C19.8063 31.9626 25.0406 32.4477 28.6339 26.2013L38.8928 9.62412L38.8868 9.6301ZM22.6749 28.3453C22.657 28.3753 22.5372 28.501 22.3456 28.6567C21.3394 29.5072 20.2016 29.6329 19.5368 28.4651C19.0277 27.5608 20.0458 26.0875 20.7824 25.4108C21.6987 24.5663 22.8906 24.0154 23.8009 23.668C24.7231 23.3147 25.316 23.129 26.3222 22.9613L22.669 28.3453H22.6749Z" fill="white"/>
</svg>
