<svg width="70" height="40" viewBox="0 0 70 40" fill="none" xmlns="http://www.w3.org/2000/svg">
<path d="M48.9289 9.45104C48.9289 9.45104 47.6386 9.9662 46.1413 11.6176C44.6391 13.2739 43.7677 15.1275 44.4128 15.6186C44.6584 15.8064 45.2313 15.8401 46.2713 14.906C47.0849 14.179 47.9082 13.2257 48.4716 11.8584C49.1456 10.2214 48.9289 9.4703 48.9289 9.45104ZM57.1331 12.4265C55.4672 11.5743 54.2539 10.5295 52.9829 9.87954C51.7744 9.25845 50.9944 8.99846 50.0171 9.12846C49.8582 9.15253 49.6126 9.22957 49.6126 9.22957C49.6126 9.22957 50.1133 10.9484 48.1153 13.8372C46.0883 16.7597 44.2491 16.7452 43.7243 15.9364C43.1755 15.089 43.8832 13.3557 45.0628 11.8198C46.3002 10.2118 48.4716 8.87328 48.4716 8.87328C48.4716 8.87328 47.7782 8.44959 46.0787 9.41252C44.4224 10.3514 41.5577 12.5854 38.9145 16.3552C36.2665 20.1251 35.7368 22.2002 35.3565 23.8324C34.9713 25.4645 35.3228 27.2122 37.1331 27.2122C38.9434 27.2122 41.0522 24.4486 41.6492 23.4905C42.7566 21.7043 43.474 18.9599 41.9718 19.3355C41.2303 19.5184 40.6333 20.3417 40.253 21.1313C39.863 21.945 39.7089 22.7202 39.7089 22.7202C39.7089 22.7202 39.083 22.9416 38.2405 23.5724C37.3979 24.2031 36.849 24.8001 36.849 24.8001C36.849 24.8001 36.8538 23.4953 37.8986 21.3817C38.9386 19.2681 40.85 18.3003 41.9333 18.2137C42.9107 18.1366 44.1769 18.9648 43.1032 22.0172C42.0296 25.0745 38.8567 28.777 35.525 28.8251C32.4533 28.8685 30.4359 24.9445 34.7161 18.0981C39.4489 10.5247 45.0098 8.20405 46.8153 7.94406C48.6208 7.68407 49.2034 8.4833 49.2034 8.4833C49.2034 8.4833 50.7152 7.78517 52.6314 7.91517C54.8365 8.06442 56.5409 9.62437 58.7845 10.7173C58.1971 11.2854 57.6386 11.8728 57.1379 12.4217M67.032 9.87473C65.5057 10.8521 63.3921 11.7428 61.3603 11.5454C60.8452 12.0798 60.2963 12.6913 59.7426 13.3653C63.2621 14.0635 66.3435 11.8824 67.9853 10.024C69.0108 8.86365 69.5163 7.82851 69.5163 7.82851C69.5163 7.82851 68.539 8.90217 67.0272 9.87473M62.3425 19.7929C62.3858 19.7158 62.4051 19.6484 62.4051 19.6484C62.4051 19.6484 62.3666 19.3499 62.0825 19.3403C61.7455 19.3259 61.2881 19.3884 60.0893 20.7173C58.8952 22.0365 58.1682 23.1872 57.5423 24.3331C56.8538 25.5897 56.5794 26.5237 56.9742 26.7645C57.0849 26.8319 57.2535 26.8415 57.3883 26.8078C57.6579 26.7404 57.9564 26.4948 58.4186 25.9604C58.6353 25.7101 58.876 25.3538 59.16 24.9638C59.9496 23.8853 61.9429 20.4814 62.3377 19.7977M49.8774 21.2421C50.0796 20.7173 50.33 19.6918 49.8004 19.2873C49.2323 18.8588 47.7783 19.8651 47.7734 20.8954C47.7638 21.9498 48.7941 22.4265 49.0445 22.4939C49.1841 22.5324 49.2323 22.5276 49.3045 22.412C49.3478 22.3398 49.68 21.7621 49.8822 21.2421M48.7845 23.1583C48.746 23.1439 48.2742 22.932 47.7879 22.5228C47.3016 22.1183 47.0561 21.6513 47.0368 21.6128C47.0175 21.5791 46.9983 21.6032 46.9742 21.6321C46.9549 21.661 46.8635 21.738 46.0883 22.8742C45.3132 24.0105 44.1288 26.3552 45.2024 26.7548C45.8909 27.01 47.0368 25.8064 47.6675 25.0071C48.2501 24.2657 48.7941 23.322 48.823 23.2498C48.8519 23.1824 48.823 23.1631 48.7893 23.1487M60.9848 25.8593C60.6911 26.3263 60.3589 27.2219 61.3266 26.6634C62.5014 25.9845 64.1769 23.4472 64.1769 23.4472H64.9328C64.9328 23.4472 63.9362 25.0264 62.6314 26.466C61.4422 27.7852 59.9882 28.984 58.9675 28.8636C57.7734 28.724 58.149 27.1545 58.149 27.1545C58.149 27.1545 56.435 28.9744 55.2554 28.8444C53.6569 28.6662 54.148 26.6922 54.148 26.6922C54.148 26.6922 52.3425 28.9118 51.11 28.8396C49.1793 28.7288 49.6656 26.3745 50.2 24.7279C50.4889 23.8468 50.7537 23.1487 50.7537 23.1487C50.7537 23.1487 50.5611 23.2016 50.1519 23.2594C49.9352 23.2883 49.5452 23.3124 49.5452 23.3124C49.5452 23.3124 48.7412 24.7327 48.1008 25.5849C47.4557 26.4371 44.7258 29.374 43.1177 28.7866C41.63 28.2426 42.1211 25.9652 42.9877 24.1598C44.2491 21.5261 47.8023 17.737 49.8485 18.2329C51.9718 18.7481 49.8967 22.6239 49.8967 22.6239C49.8967 22.6239 49.8967 22.6383 49.9208 22.648C49.9641 22.6624 50.0748 22.6768 50.33 22.6287C50.7393 22.5517 51.1052 22.3976 51.1052 22.3976C51.1052 22.3976 53.238 17.9248 55.5972 15.0023C57.9564 12.075 62.6603 7.04372 64.5091 8.26182C64.9617 8.56033 64.7547 9.59548 64.148 10.8473C63.8784 10.9339 63.5991 11.0062 63.3151 11.0639C63.7195 10.3273 63.9939 9.7014 64.071 9.26808C64.3454 7.75629 60.8211 10.9436 58.2982 14.3716C55.7754 17.7996 54.2636 20.9051 54.2636 20.9051C54.2636 20.9051 54.7739 20.6162 55.5635 19.9806C56.3916 19.3162 57.5279 18.2715 58.7652 16.9908C59.5982 16.1289 60.5756 15.0505 61.4903 13.8468C61.7648 13.8324 62.0296 13.8035 62.2944 13.765C61.2737 15.1371 60.2 16.3937 59.29 17.3182C58.2886 18.334 57.1957 19.4318 56.2472 20.2262C54.7402 21.4924 53.5799 22.205 53.5799 22.205C53.5799 22.205 51.37 26.6489 52.5688 26.933C53.2717 27.1015 54.668 24.9542 54.668 24.9542C54.668 24.9542 56.4831 22.1809 57.5808 20.9339C59.0782 19.2344 60.3589 18.2522 61.6444 18.2329C62.3955 18.2185 62.8336 19.0177 62.8336 19.0177L63.1851 18.4737H65.3565C65.3565 18.4737 61.3074 25.3441 60.9848 25.8641M67.032 9.86991C65.5057 10.8473 63.3921 11.738 61.3603 11.5406C60.8452 12.075 60.2963 12.6865 59.7426 13.3605C63.2621 14.0586 66.3435 11.8776 67.9853 10.0192C69.0108 8.85884 69.5163 7.82369 69.5163 7.82369C69.5163 7.82369 68.539 8.89735 67.0272 9.86991M36.5746 13.245H34.5139L33.3488 15.1275H35.4095L36.5746 13.245ZM26.8057 19.7688C27.682 18.5651 30.1037 14.3523 30.1037 14.3523C30.1037 14.3523 30.0652 14.0538 29.7811 14.0442C29.4441 14.0298 28.8904 14.1405 27.7783 15.5319C26.6661 16.9185 25.8091 18.0259 25.1784 19.1766C24.4899 20.4332 24.1914 21.3191 24.5862 21.5598C24.6969 21.6273 24.8654 21.6369 25.0002 21.6032C25.2602 21.5406 25.5924 21.2806 26.0546 20.751C26.2713 20.5006 26.5168 20.1684 26.8009 19.7736M15.7369 14.0731C15.1687 13.6446 13.7147 14.6508 13.7099 15.6764C13.7003 16.7308 15.0195 17.0341 15.188 17.0437C15.188 17.0437 15.3372 17.0822 15.395 16.9571C15.4335 16.88 15.6117 16.5478 15.8139 16.023C16.0161 15.4982 16.2665 14.4727 15.7369 14.0683M14.875 17.7033C14.8365 17.6889 14.2925 17.5348 13.758 17.1882C13.2236 16.8463 12.9781 16.3408 12.9588 16.3071C12.9396 16.2734 12.9155 16.2975 12.8962 16.3312C12.8721 16.36 12.7614 16.5045 11.9863 17.6455C11.2111 18.7818 10.0604 21.1121 11.1389 21.5117C11.8274 21.7669 12.9829 20.5584 13.6088 19.7592C14.1914 19.0177 14.8799 17.8766 14.9136 17.8092C14.9424 17.7418 14.9136 17.7226 14.8799 17.713M31.7311 18.4159H32.487C32.487 18.4159 28.6979 23.8853 26.5602 23.6398C25.3661 23.5001 25.7176 22.0269 25.7176 22.0269C25.7176 22.0269 24.0373 23.9912 22.5014 23.5964C21.1052 23.2353 22.0055 20.9147 22.0055 20.9147C21.8466 20.9773 18.823 24.386 16.6998 23.5675C14.4754 22.7105 15.6309 19.8555 16.0546 18.9985C16.4109 18.2763 16.8105 17.5685 16.8105 17.5685C16.8105 17.5685 16.4687 17.6648 16.2568 17.713C16.045 17.7611 15.7224 17.8237 15.7224 17.8237C15.7224 17.8237 14.668 19.5329 14.0277 20.3851C13.3825 21.2373 10.6526 24.1694 9.04451 23.5868C7.43643 22.9994 7.83604 20.751 8.74119 18.9648C10.2097 16.0615 13.6858 12.4987 15.7802 13.0331C17.8986 13.5724 16.1461 17.01 16.1461 17.01C16.1461 17.01 16.565 17.063 17.576 16.3745C19.0301 15.3827 20.9463 12.7154 23.0214 13.0283C23.9988 13.1728 24.9039 14.1742 23.6617 16.076C23.2621 16.6874 22.5977 17.2315 22.0825 16.6923C21.7648 16.36 22.044 15.7486 22.3762 15.3249C22.8481 14.7327 23.4981 14.8145 23.4981 14.8145C23.4981 14.8145 23.8399 14.0249 22.9684 14.0442C22.2607 14.0586 20.4745 15.7052 19.4634 17.3663C18.5342 18.8925 17.1331 21.4973 18.5438 22.0606C19.8341 22.5806 22.2896 19.6677 23.4306 18.1366C24.5669 16.6104 27.1572 13.1439 29.3334 13.0042C30.0797 12.9561 30.5274 13.6398 30.5274 13.6398L30.7778 13.2402H32.9492C32.9492 13.2402 28.8519 20.0769 28.5342 20.5969C28.2838 21.0013 27.9468 21.9113 28.876 21.401C29.8052 20.8906 31.7311 18.4111 31.7311 18.4111M30.5467 29.3644C28.9049 28.2089 26.902 27.6985 25.0821 27.7707C23.2429 27.8429 22.4148 29.2151 22.4148 29.2151C21.5866 27.7659 19.9448 26.8752 17.4075 26.8993C13.3103 26.9426 9.24673 28.8348 6.02574 28.8348C2.93474 28.8348 0.686308 26.8945 0.758527 23.4472C0.893337 17.4048 6.00167 11.9643 9.81486 9.51363C12.0055 8.10776 13.8447 7.68888 15.0484 7.82369C15.9246 7.91998 16.979 8.93587 16.3146 10.4236C15.3372 12.6094 13.9891 12.4265 14.0373 11.3817C14.0662 10.7028 14.5188 10.2743 14.8558 10.0432C15.0724 9.89398 15.4528 9.85065 15.6502 9.84584C15.8428 9.68214 15.992 8.48811 14.4176 8.88291C12.8433 9.27771 10.9559 10.8184 9.15044 12.8068C7.34495 14.7953 4.53802 18.5651 3.84471 22.5228C3.52213 24.3571 3.73397 27.7033 8.08159 27.6648C11.7648 27.6359 17.2101 25.2093 22.2029 25.2575C24.1432 25.2767 25.8283 25.7967 27.1427 26.6104C28.4427 27.4096 29.9882 28.5748 30.537 29.3692" fill="white"/>
<path d="M43.2524 4.21762H40.1711V3.01878H42.2462V2.02215H40.1711V0.996629H43.1802L43.3247 0.00962949H39.0348V5.21425H43.3921L43.2476 4.22725L43.2524 4.21762ZM36.3916 0V1.88734H33.7291V0H32.5976V5.20462H33.7291V2.89841H36.3916V5.20462H37.5278V0H36.3964H36.3916ZM31.4807 0H26.873V1.01589H28.6063V5.20462H29.7426V1.0207H31.4758V0.00481474L31.4807 0Z" fill="white"/>
<path d="M56.1653 34.7087H54.9135L53.5509 37.1449L52.174 34.7087H50.8933L52.9732 38.1897V39.9182H54.1094V38.1705L56.1653 34.7136V34.7087ZM48.8904 34.7087V38.2379L46.3964 34.7087H45.2168V39.9134H46.3194V36.3265L48.847 39.9134H49.9881V34.7087H48.8807H48.8904ZM40.6814 37.7709L41.4566 35.7102L42.2317 37.7709H40.6814ZM43.031 39.9134H44.225L42.1595 34.7087H40.7633L38.693 39.9134H39.8774L40.3107 38.7579H42.5976L43.031 39.9182V39.9134ZM36.8201 37.0053H35.3083V35.7102H36.8201C37.0464 35.7102 37.2245 35.768 37.3497 35.8787C37.4749 35.9894 37.5375 36.1483 37.5375 36.3553C37.5375 36.5624 37.4749 36.7213 37.3497 36.8368C37.2245 36.9475 37.0464 37.0053 36.8201 37.0053ZM36.849 34.7039H34.172V39.9086H35.3083V38.0068H36.849C37.2438 38.0068 37.5808 37.9346 37.8552 37.7901C38.1297 37.6457 38.3367 37.4483 38.4763 37.1979C38.6159 36.9475 38.6882 36.6635 38.6882 36.3505C38.6882 36.0376 38.6208 35.7535 38.4811 35.5032C38.3415 35.2528 38.1345 35.0554 37.86 34.9158C37.5856 34.7761 37.2486 34.7039 36.8538 34.7039M32.665 34.7039H31.1388L29.6078 38.3197L28.0478 34.7039H26.5216V39.9086H27.6193V36.1868L29.2033 39.8411H29.964L31.5625 36.0954V39.9134H32.6602V34.7087L32.665 34.7039ZM22.5158 38.9697C22.2077 38.9697 21.9332 38.8975 21.6877 38.7579C21.4421 38.6134 21.2544 38.416 21.1147 38.1657C20.9751 37.9105 20.9077 37.6264 20.9077 37.3038C20.9077 36.9813 20.9751 36.6924 21.1147 36.4372C21.2495 36.182 21.4421 35.9846 21.6877 35.845C21.9284 35.7006 22.2077 35.6332 22.5158 35.6332C22.8239 35.6332 23.0984 35.7054 23.3439 35.8498C23.5895 35.9943 23.7772 36.1868 23.912 36.442C24.0517 36.6924 24.1191 36.9813 24.1191 37.3086C24.1191 37.6312 24.0517 37.9201 23.912 38.1705C23.7772 38.4256 23.5846 38.6182 23.3391 38.7627C23.0936 38.9071 22.8191 38.9745 22.511 38.9745M22.511 40C23.0454 40 23.5269 39.8845 23.9457 39.6582C24.3694 39.4271 24.6968 39.1093 24.9376 38.7001C25.1783 38.2908 25.2938 37.8238 25.2938 37.3038C25.2938 36.7839 25.1735 36.3168 24.9376 35.9076C24.7016 35.4983 24.3694 35.1758 23.9457 34.9495C23.5221 34.7232 23.0454 34.6076 22.511 34.6076C21.9766 34.6076 21.4999 34.7232 21.0762 34.9495C20.6525 35.1806 20.3251 35.4983 20.0844 35.9076C19.8437 36.3168 19.7233 36.7839 19.7233 37.3038C19.7233 37.8238 19.8437 38.2908 20.0796 38.7001C20.3155 39.1093 20.6477 39.4271 21.0714 39.6582C21.4951 39.8845 21.9717 40 22.5062 40M17.0416 40C17.4652 40 17.8649 39.9326 18.2308 39.793C18.6015 39.6582 18.9048 39.4512 19.1407 39.1767L18.433 38.4016C18.0574 38.7819 17.6001 38.9697 17.0656 38.9697C16.7286 38.9697 16.4205 38.8975 16.1508 38.7482C15.8764 38.599 15.6646 38.4016 15.5153 38.1464C15.3661 37.8912 15.289 37.612 15.289 37.2942C15.289 36.9764 15.3661 36.6972 15.5201 36.442C15.6742 36.1868 15.886 35.9894 16.1557 35.8402C16.4253 35.6909 16.7238 35.6187 17.056 35.6187C17.3112 35.6187 17.5471 35.6669 17.7686 35.7583C17.99 35.8546 18.1971 36.0039 18.3993 36.2061L19.107 35.4165C18.8759 35.1469 18.5774 34.9398 18.2163 34.8002C17.8504 34.6606 17.4556 34.5884 17.0271 34.5884C16.4734 34.5884 15.9727 34.7039 15.5298 34.9398C15.0868 35.171 14.7402 35.4935 14.4898 35.9076C14.2394 36.3216 14.1143 36.779 14.1143 37.2846C14.1143 37.7901 14.2394 38.2523 14.4898 38.6616C14.7402 39.0708 15.0868 39.3982 15.5346 39.6293C15.9775 39.8652 16.4831 39.9808 17.0512 39.9808" fill="white"/>
</svg>
