<svg width="90" height="40" viewBox="0 0 90 40" fill="none" xmlns="http://www.w3.org/2000/svg">
<g clip-path="url(#clip0_101_19705)">
<path d="M15.5437 35.4003C15.5437 33.8944 15.5437 33.6286 15.5233 33.322C15.5028 32.9949 15.4279 32.8381 15.1076 32.77C15.0531 32.7632 14.9509 32.7632 14.8691 32.7496C14.7805 32.7427 14.7056 32.7291 14.7056 32.6814C14.7056 32.6269 14.7533 32.6064 14.8623 32.6064C15.2371 32.6064 15.6051 32.6337 15.9526 32.6337C16.1434 32.6337 18.0991 32.6337 18.324 32.6269C18.5488 32.6201 18.7192 32.6201 18.7942 32.5724C18.8214 32.5519 18.8623 32.5315 18.8827 32.5315C18.9236 32.5315 18.9373 32.5724 18.9373 32.6201C18.9373 32.6678 18.8964 32.8041 18.8827 32.9199C18.8419 33.1993 18.8419 33.356 18.8282 33.6218C18.8282 33.7376 18.7805 33.8126 18.7396 33.8126C18.6919 33.8126 18.6851 33.7717 18.6715 33.6899C18.6647 33.5536 18.6238 33.322 18.4875 33.2061C18.3717 33.1107 18.2013 33.0358 17.9219 33.0221C17.4313 33.0153 16.9407 33.0017 16.45 32.9949C16.3955 32.9949 16.3614 33.0221 16.3614 33.1039V35.7615C16.3614 35.816 16.3683 35.8501 16.4296 35.8501C16.8248 35.8501 17.3768 35.8501 17.772 35.8432C18.2831 35.8364 18.4057 35.8228 18.542 35.6593C18.5897 35.6047 18.6102 35.5639 18.6511 35.5639C18.6919 35.5639 18.6988 35.5911 18.6988 35.6388C18.6988 35.6933 18.6511 35.8637 18.6238 36.1771C18.5965 36.4633 18.5965 36.695 18.5829 36.845C18.5761 36.954 18.5625 37.0085 18.5148 37.0085C18.4603 37.0085 18.4466 36.9404 18.4398 36.845C18.4194 36.6337 18.3921 36.293 17.8878 36.2248C17.6493 36.1976 16.5931 36.1976 16.4296 36.1976C16.3819 36.1976 16.3614 36.218 16.3614 36.2862V37.1039C16.3614 37.9216 16.3614 38.6099 16.3887 39.0528C16.416 39.4889 16.525 39.7001 16.7839 39.7274C16.9066 39.7478 17.0701 39.7547 17.1792 39.7683C17.2677 39.7751 17.295 39.7955 17.295 39.8364C17.295 39.8841 17.2473 39.9046 17.1383 39.9046C16.5999 39.9046 16.0003 39.8773 15.9526 39.8773H15.864C15.6732 39.8841 15.2371 39.9046 15.0054 39.9046C14.8964 39.9046 14.8487 39.8841 14.8487 39.8296C14.8487 39.8024 14.8691 39.7819 14.9577 39.7751C15.0531 39.7683 15.1417 39.7547 15.2098 39.7342C15.4143 39.6797 15.4824 39.5298 15.5097 39.1073C15.5369 38.6916 15.5505 38.017 15.5505 37.1107V35.4139L15.5437 35.4003Z" fill="white"/>
<path d="M20.7227 36.7835C20.7227 35.5024 21.7175 33.5808 24.0957 33.5808C26.0037 33.5808 27.462 34.7188 27.462 36.6541C27.462 38.5893 26.106 39.9999 24.048 39.9999C21.6835 39.9999 20.7227 38.2418 20.7227 36.7835ZM26.5557 36.8994C26.5557 34.9641 25.3632 33.8806 24.0412 33.8806C22.7192 33.8806 21.6221 34.712 21.6221 36.5314C21.6221 38.3508 22.6715 39.6728 24.2934 39.6728C24.9407 39.6728 26.5557 39.3457 26.5557 36.8994Z" fill="white"/>
<path d="M30.7739 37.213C30.7739 38.3918 30.9987 38.8893 31.3599 39.2164C31.7756 39.5843 32.239 39.6593 32.6342 39.6593C33.1384 39.6593 33.5882 39.523 33.9562 39.1005C34.3446 38.6576 34.4263 37.9216 34.4263 37.0835V36.0613C34.4263 34.8007 34.4263 34.5758 34.4059 34.3169C34.3855 34.0375 34.3582 33.8944 34.0516 33.8467C33.9834 33.8399 33.8676 33.8262 33.779 33.8262C33.7245 33.8262 33.6836 33.799 33.6836 33.7717C33.6836 33.7172 33.7313 33.6968 33.8199 33.6968C34.2355 33.6968 34.7194 33.724 34.7534 33.724C34.8011 33.724 35.2168 33.6968 35.4894 33.6968C35.5848 33.6968 35.6257 33.7172 35.6257 33.7649C35.6257 33.8058 35.5848 33.8331 35.5303 33.8331C35.4758 33.8331 35.4553 33.8331 35.3599 33.8399C35.0873 33.8671 35.0533 34.0443 35.0328 34.3237C35.026 34.5826 35.026 34.8075 35.026 36.0682V36.9268C35.026 37.7922 34.9306 38.8348 34.2424 39.4208C33.6154 39.9523 32.9953 40 32.4775 40C32.2049 40 31.2986 40 30.6785 39.4208C30.2628 39.0324 29.963 38.46 29.963 37.2607V36.0682C29.963 34.7939 29.963 34.5758 29.9357 34.3169C29.9289 34.0579 29.8812 33.8944 29.5814 33.8535C29.5269 33.8467 29.411 33.8331 29.3292 33.8331C29.2611 33.8331 29.2202 33.8058 29.2202 33.7785C29.2202 33.724 29.2611 33.7036 29.3633 33.7036C29.779 33.7036 30.2969 33.7308 30.365 33.7308C30.44 33.7308 31.0124 33.7036 31.2713 33.7036C31.3804 33.7036 31.4076 33.724 31.4076 33.7717C31.4076 33.8194 31.3395 33.8399 31.2918 33.8399C31.2373 33.8399 31.1555 33.8467 31.0805 33.8603C30.8488 33.8876 30.808 34.0511 30.7943 34.3237C30.7875 34.5826 30.7875 34.8075 30.7875 36.075V37.2198L30.7739 37.213Z" fill="white"/>
<path d="M37.9221 33.976C37.9221 33.6762 37.9494 33.5808 38.0311 33.5808C38.0993 33.5808 38.2628 33.7716 38.331 33.8398C38.4196 33.9352 39.7552 35.3048 41.1044 36.6813C41.854 37.4173 42.8216 38.4053 43.0669 38.637L42.9579 34.6302C42.9511 34.1123 42.8897 33.9352 42.6308 33.867C42.4673 33.8398 42.3242 33.8261 42.256 33.8261C42.1606 33.8261 42.1402 33.7852 42.1402 33.7512C42.1402 33.7035 42.2151 33.6967 42.3105 33.6967C42.7262 33.6967 43.1282 33.7239 43.2168 33.7239C43.3122 33.7239 43.6121 33.6967 43.9868 33.6967C44.0959 33.6967 44.1231 33.7035 44.1231 33.7512C44.1231 33.7921 44.0959 33.8193 44.0345 33.8261C43.98 33.8329 43.8983 33.8329 43.796 33.8534C43.5712 33.9011 43.5098 33.9965 43.5098 34.5757L43.4894 39.4139C43.4894 39.8977 43.469 39.9454 43.4008 39.9454C43.3327 39.9454 43.2373 39.8772 42.7671 39.4343C42.7262 39.4139 41.3906 38.0851 40.5524 37.2674C39.5507 36.2248 38.5831 35.2231 38.3446 34.9709L38.4673 38.7392C38.4877 39.407 38.5422 39.6524 38.7875 39.7137C38.9443 39.7546 39.1078 39.7546 39.1828 39.7546C39.2577 39.7546 39.2986 39.7818 39.2986 39.8227C39.2986 39.8704 39.2509 39.8909 39.1419 39.8909C38.624 39.8909 38.2765 39.8636 38.2083 39.8636C38.1402 39.8636 37.7858 39.8909 37.3702 39.8909C37.2816 39.8909 37.2271 39.884 37.2271 39.8227C37.2271 39.7818 37.2679 39.7546 37.3633 39.7546C37.4315 39.7546 37.5337 39.7546 37.6632 39.7137C37.8744 39.6455 37.9221 39.3866 37.9221 38.6847C37.9221 34.0851 37.9289 35.5706 37.9221 33.9692V33.976Z" fill="white"/>
<path d="M46.978 36.0681C46.978 34.7938 46.978 34.5553 46.9576 34.3032C46.9371 34.0443 46.8622 33.908 46.5828 33.8535C46.5283 33.8467 46.3784 33.833 46.3034 33.833C46.2557 33.833 46.208 33.8058 46.208 33.7785C46.208 33.724 46.2625 33.7036 46.3511 33.7036C46.7463 33.7036 47.3528 33.7308 47.3801 33.7308C47.4482 33.7308 47.9457 33.7036 48.4908 33.7036C49.3426 33.7036 50.9167 33.615 51.9388 34.6507C52.3613 35.0732 52.7566 35.7478 52.7566 36.7223C52.7566 37.7444 52.3136 38.5417 51.8434 39.0255C51.4687 39.4003 50.7327 39.9727 49.2676 39.9727C48.8997 39.9727 48.4295 39.9523 48.0615 39.925C47.6935 39.9046 47.3937 39.8773 47.3664 39.8773C47.346 39.8773 47.2233 39.8773 47.0394 39.8841C46.8554 39.8841 46.6237 39.9046 46.4806 39.9046C46.392 39.9046 46.3443 39.8841 46.3443 39.8364C46.3443 39.8092 46.3716 39.7683 46.4533 39.7683C46.5351 39.7683 46.5964 39.7615 46.6782 39.741C46.8417 39.7138 46.9031 39.5093 46.9303 39.2981C46.9848 38.9438 46.978 38.2828 46.978 37.5059V36.0817V36.0681ZM47.7685 36.8858C47.7685 37.7513 47.7753 38.5076 47.7753 38.6507C47.7821 38.9506 47.8026 39.2095 47.8707 39.2981C47.9797 39.4616 48.2864 39.6661 49.2881 39.6661C50.0785 39.6661 50.794 39.4139 51.2915 38.9165C51.714 38.494 51.9184 37.7717 51.9184 36.9949C51.9184 35.9046 51.4141 35.2436 51.0871 34.9233C50.2693 34.1056 49.3221 34.0102 48.3681 34.0102C48.2319 34.0102 47.932 34.0375 47.8775 34.0783C47.8026 34.1192 47.7685 34.1533 47.7685 34.2419C47.7617 34.5213 47.7617 35.339 47.7617 35.9182V36.8926L47.7685 36.8858Z" fill="white"/>
<path d="M55.9184 37.5399C55.8707 37.5399 55.8435 37.5672 55.823 37.6149L55.4005 38.821C55.3051 39.0936 55.237 39.3525 55.237 39.5024C55.237 39.6728 55.346 39.7546 55.5573 39.7546H55.6254C55.714 39.7546 55.7412 39.7818 55.7412 39.8227C55.7412 39.8704 55.6663 39.8908 55.5981 39.8908C55.3869 39.8908 54.944 39.8636 54.8349 39.8636C54.7395 39.8636 54.3171 39.8908 53.9082 39.8908C53.7992 39.8908 53.7515 39.8704 53.7515 39.8227C53.7515 39.7818 53.7923 39.7546 53.8673 39.7546C53.915 39.7546 54.0036 39.7546 54.0581 39.7477C54.4738 39.7069 54.6373 39.3934 54.8009 38.9845L56.7293 33.9011C56.8383 33.6217 56.8656 33.574 56.9337 33.574C56.9814 33.574 57.0223 33.6149 57.1245 33.8806C57.2608 34.2009 58.5692 37.5603 59.0803 38.7665C59.4005 39.5297 59.6799 39.6523 59.8162 39.7C59.9389 39.7477 60.0751 39.7477 60.1433 39.7477C60.2114 39.7477 60.2591 39.7682 60.2591 39.8159C60.2591 39.8636 60.2182 39.884 60.116 39.884C60.0206 39.884 59.2983 39.884 58.651 39.8636C58.467 39.8568 58.4125 39.8431 58.4125 39.7954C58.4125 39.7682 58.4397 39.7409 58.4806 39.7273C58.5215 39.7069 58.576 39.6592 58.5215 39.5161L57.7583 37.5808C57.7583 37.5808 57.7174 37.5331 57.6833 37.5331H55.932L55.9184 37.5399ZM57.5539 37.1992C57.5947 37.1992 57.5947 37.1719 57.5811 37.1447L56.8179 35.0118C56.7702 34.8755 56.7634 34.8755 56.7089 35.0118L55.9866 37.1447C55.9661 37.1856 55.9866 37.1992 56.007 37.1992H57.547H57.5539Z" fill="white"/>
<path d="M63.3598 37.5128C63.3598 38.2556 63.3666 38.937 63.4075 39.2982C63.4348 39.5299 63.4552 39.6662 63.6937 39.7207C63.8096 39.7479 63.9936 39.7616 64.0685 39.7616C64.1435 39.7616 64.1844 39.7888 64.1844 39.8161C64.1844 39.8638 64.1571 39.891 64.0617 39.891C63.5711 39.891 62.9987 39.8638 62.9646 39.8638C62.9305 39.8638 62.3581 39.891 62.106 39.891C61.997 39.891 61.9629 39.8706 61.9629 39.8229C61.9629 39.7956 61.9902 39.7548 62.0719 39.7548C62.1537 39.7548 62.2082 39.7548 62.2832 39.7479C62.4672 39.7207 62.4944 39.6048 62.5353 39.2778C62.5762 38.9302 62.5762 38.2352 62.5762 37.5128V34.0716C62.2559 34.0716 61.7448 34.0716 61.3632 34.0784C60.7431 34.0852 60.6137 34.1875 60.4774 34.3851C60.3888 34.5214 60.3547 34.6372 60.3343 34.6849C60.307 34.7531 60.2866 34.7599 60.2457 34.7599C60.2048 34.7599 60.198 34.719 60.198 34.6713C60.1912 34.6168 60.3343 33.9762 60.3888 33.7173C60.416 33.6014 60.4433 33.5605 60.4774 33.5605C60.5455 33.5605 60.7295 33.6491 60.8999 33.6696C61.2406 33.7105 61.5063 33.7173 61.52 33.7173H64.6818C64.9544 33.7173 65.2406 33.6968 65.3769 33.6696C65.4995 33.6423 65.5336 33.6287 65.5609 33.6287C65.6017 33.6287 65.6154 33.6764 65.6154 33.7173C65.6154 33.9898 65.5949 34.6236 65.5949 34.6985C65.5949 34.7871 65.554 34.8144 65.5268 34.8144C65.4791 34.8144 65.4586 34.7735 65.4586 34.6985C65.4586 34.6713 65.4586 34.6577 65.4518 34.5623C65.4109 34.1738 65.2883 34.0784 64.3138 34.0716C63.9459 34.0716 63.646 34.0648 63.3666 34.0648V37.506L63.3598 37.5128Z" fill="white"/>
<path d="M68.041 36.0682C68.041 34.7939 68.041 34.5622 68.0205 34.3033C68.0001 34.0443 67.9456 33.9012 67.7411 33.8603C67.6457 33.8399 67.5776 33.8399 67.5163 33.8331C67.4481 33.8262 67.4072 33.8058 67.4072 33.7649C67.4072 33.7172 67.4481 33.6968 67.5503 33.6968C67.8502 33.6968 68.4021 33.724 68.4294 33.724C68.4703 33.724 69.029 33.6968 69.2948 33.6968C69.3902 33.6968 69.4379 33.7172 69.4379 33.7649C69.4379 33.8058 69.4106 33.8194 69.3289 33.8331C69.2743 33.8399 69.2198 33.8399 69.1585 33.8535C68.8791 33.8944 68.8519 34.0375 68.8314 34.3169C68.811 34.5758 68.8246 34.8007 68.8246 36.0682V37.5128C68.8246 38.2555 68.8178 38.9302 68.8655 39.2777C68.9064 39.5571 68.9404 39.6661 69.1926 39.7206C69.3152 39.7479 69.5197 39.7615 69.5605 39.7615C69.6491 39.7683 69.6696 39.7888 69.6696 39.8297C69.6696 39.8705 69.6287 39.8978 69.5333 39.8978C69.0427 39.8978 68.4839 39.8705 68.4362 39.8705C68.4089 39.8705 67.8365 39.8978 67.5708 39.8978C67.4822 39.8978 67.414 39.8774 67.414 39.8297C67.414 39.7888 67.4549 39.7615 67.5367 39.7615C67.5844 39.7615 67.6934 39.7547 67.7684 39.7343C67.9319 39.6934 67.9592 39.5026 67.9933 39.2709C68.041 38.9234 68.041 38.2419 68.041 37.5196V36.075V36.0682Z" fill="white"/>
<path d="M71.4688 36.7835C71.4688 35.5024 72.4636 33.5808 74.8418 33.5808C76.7498 33.5808 78.2081 34.7188 78.2081 36.6541C78.2081 38.5893 76.8521 39.9999 74.7941 39.9999C72.4296 39.9999 71.4688 38.2418 71.4688 36.7835ZM77.3018 36.8994C77.3018 34.9641 76.1093 33.8806 74.7873 33.8806C73.4653 33.8806 72.3682 34.712 72.3682 36.5314C72.3682 38.3508 73.4176 39.6728 75.0394 39.6728C75.6868 39.6728 77.3018 39.3457 77.3018 36.8994Z" fill="white"/>
<path d="M80.6887 33.976C80.6887 33.6762 80.716 33.5808 80.7977 33.5808C80.8659 33.5808 81.0294 33.7716 81.0976 33.8398C81.1862 33.9352 82.5218 35.3048 83.871 36.6813C84.6206 37.4173 85.5882 38.4053 85.8335 38.637L85.7245 34.6302C85.7177 34.1123 85.6563 33.9352 85.3974 33.867C85.2339 33.8398 85.0908 33.8261 85.0226 33.8261C84.9272 33.8261 84.9068 33.7852 84.9068 33.7512C84.9068 33.7035 84.9817 33.6967 85.0771 33.6967C85.4928 33.6967 85.8948 33.7239 85.9834 33.7239C86.0788 33.7239 86.3787 33.6967 86.7534 33.6967C86.8625 33.6967 86.8897 33.7035 86.8897 33.7512C86.8897 33.7921 86.8625 33.8193 86.8011 33.8261C86.7466 33.8329 86.6649 33.8329 86.5626 33.8534C86.3378 33.9011 86.2764 33.9965 86.2764 34.5757L86.256 39.4139C86.256 39.8977 86.2356 39.9454 86.1674 39.9454C86.0993 39.9454 86.0039 39.8772 85.5337 39.4343C85.4928 39.4139 84.1572 38.0851 83.319 37.2674C82.3173 36.2248 81.3497 35.2231 81.1112 34.9709L81.2339 38.7392C81.2543 39.407 81.3088 39.6524 81.5541 39.7137C81.7109 39.7546 81.8744 39.7546 81.9494 39.7546C82.0243 39.7546 82.0652 39.7818 82.0652 39.8227C82.0652 39.8704 82.0175 39.8909 81.9085 39.8909C81.3906 39.8909 81.0431 39.8636 80.9749 39.8636C80.9068 39.8636 80.5524 39.8909 80.1368 39.8909C80.0482 39.8909 79.9937 39.884 79.9937 39.8227C79.9937 39.7818 80.0345 39.7546 80.1299 39.7546C80.1981 39.7546 80.3003 39.7546 80.4298 39.7137C80.641 39.6455 80.6887 39.3866 80.6887 38.6847C80.6887 34.0851 80.6955 35.5706 80.6887 33.9692V33.976Z" fill="white"/>
<path d="M38.3853 4.41567C38.3853 5.30153 38.3853 6.02385 38.433 6.41227C38.4603 6.67802 38.5148 6.88245 38.7942 6.91652C38.9237 6.93697 39.1281 6.9506 39.2099 6.9506C39.2644 6.9506 39.2848 6.97785 39.2848 7.00511C39.2848 7.05281 39.2371 7.08007 39.1349 7.08007C38.6306 7.08007 38.0514 7.05281 38.0037 7.05281C37.956 7.05281 37.3768 7.08007 37.1042 7.08007C37.002 7.08007 36.9543 7.05963 36.9543 7.00511C36.9543 6.97785 36.9748 6.9506 37.0293 6.9506C37.1111 6.9506 37.2201 6.93015 37.3087 6.91652C37.4927 6.88245 37.5404 6.67802 37.5744 6.41227C37.6221 6.02385 37.6221 5.30153 37.6221 4.41567V0.524702C37.1724 0.531516 36.709 0.531516 36.2593 0.545145C35.6869 0.551959 35.4688 0.620102 35.3189 0.83816C35.2167 0.994889 35.1894 1.05622 35.1622 1.12436C35.1349 1.19932 35.1077 1.21295 35.0736 1.21295C35.0463 1.21295 35.0259 1.18569 35.0259 1.13118C35.0259 1.04259 35.2099 0.245315 35.2303 0.177172C35.2508 0.122658 35.2848 0 35.3189 0C35.3802 0 35.4756 0.088586 35.7209 0.109029C35.9867 0.136286 36.341 0.156729 36.4501 0.156729H39.8981C40.1911 0.156729 40.4024 0.136286 40.5523 0.109029C40.6886 0.088586 40.7703 0.0613288 40.8112 0.0613288C40.8589 0.0613288 40.8589 0.115843 40.8589 0.170358C40.8589 0.449744 40.8317 1.08348 40.8317 1.18569C40.8317 1.26746 40.8044 1.30835 40.7703 1.30835C40.7226 1.30835 40.709 1.28109 40.6954 1.15162C40.6954 1.11755 40.6886 1.09029 40.6886 1.0494C40.6613 0.770017 40.4364 0.558773 39.5574 0.545145C39.169 0.53833 38.7874 0.53833 38.399 0.524702V4.41567H38.3853Z" fill="white"/>
<path d="M46.6169 3.63204C46.6169 3.63204 46.6714 3.63204 46.6714 3.58434V3.4208C46.6714 2.20785 46.6714 1.99661 46.651 1.74448C46.6305 1.49916 46.5965 1.36969 46.2898 1.31518C46.2285 1.30836 46.1331 1.29473 46.0581 1.29473C45.9968 1.29473 45.9491 1.26748 45.9491 1.2334C45.9491 1.17889 45.9968 1.17208 46.0786 1.17208C46.467 1.17208 47.0053 1.19933 47.0462 1.19933C47.0871 1.19933 47.5982 1.17208 47.8775 1.17208C47.9661 1.17208 48.0275 1.17889 48.0275 1.2334C48.0275 1.26066 48.0002 1.29473 47.9252 1.29473C47.8707 1.29473 47.7958 1.30155 47.7413 1.31518C47.4959 1.34925 47.4551 1.49916 47.4346 1.75811C47.4278 2.00342 47.4278 2.21467 47.4278 3.43443V4.81773C47.4278 5.57412 47.4278 6.16697 47.4619 6.50087C47.4891 6.71892 47.5368 6.90291 47.7753 6.93017C47.8912 6.95061 48.0138 6.95743 48.0956 6.95743C48.1706 6.95743 48.2115 6.98468 48.2115 7.01875C48.2115 7.06645 48.1637 7.08008 48.0752 7.08008C47.6186 7.08008 47.0803 7.05283 47.0326 7.05283C46.9985 7.05283 46.4602 7.08008 46.2149 7.08008C46.1195 7.08008 46.0786 7.05964 46.0786 7.00513C46.0786 6.97787 46.1058 6.95061 46.1808 6.95061C46.2557 6.95061 46.3171 6.95061 46.392 6.93017C46.5488 6.90291 46.5965 6.69848 46.6237 6.48724C46.6714 6.15334 46.6714 5.57412 46.6714 4.83136V4.01364C46.6714 3.97957 46.6442 3.95913 46.6169 3.95913H43.2779C43.2779 3.95913 43.2302 3.96594 43.2302 4.01364V4.83136C43.2302 5.57412 43.2302 6.17378 43.2779 6.50768C43.3051 6.71211 43.3528 6.8961 43.5913 6.92335C43.714 6.9438 43.8503 6.95061 43.9253 6.95061C43.9866 6.95061 44.0343 6.97787 44.0343 7.01194C44.0343 7.04601 44.0002 7.07327 43.9116 7.07327C43.4414 7.07327 42.8963 7.04601 42.8554 7.04601C42.8281 7.04601 42.2694 7.07327 42.0241 7.07327C41.9355 7.07327 41.8741 7.05283 41.8741 7.01194C41.8741 6.98468 41.8946 6.95061 41.9764 6.95061C42.0513 6.95061 42.1263 6.9438 42.1944 6.92335C42.358 6.88928 42.3988 6.71211 42.4261 6.50768C42.4806 6.17378 42.4738 5.56049 42.4738 4.8041V3.44124C42.4738 2.22829 42.4738 1.98979 42.4534 1.73766C42.4329 1.49916 42.3716 1.32199 42.1058 1.29473C42.0241 1.28792 41.9287 1.27429 41.8605 1.27429C41.7992 1.27429 41.7583 1.24703 41.7583 1.21978C41.7583 1.16526 41.806 1.15845 41.8946 1.15845C42.2898 1.15845 42.7327 1.1857 42.8554 1.1857C42.8895 1.1857 43.4278 1.15845 43.6799 1.15845C43.7685 1.15845 43.8162 1.17889 43.8162 1.21978C43.8162 1.25385 43.7821 1.27429 43.7208 1.27429C43.6595 1.27429 43.6391 1.27429 43.5368 1.29473C43.3051 1.3288 43.2506 1.48553 43.2302 1.74448C43.2234 1.98979 43.2234 2.19422 43.2234 3.40717V3.57071C43.2234 3.61841 43.2506 3.61841 43.2779 3.61841H46.6101L46.6169 3.63204Z" fill="white"/>
<path d="M50.2629 3.43452C50.2629 2.22839 50.2629 2.01033 50.2424 1.7582C50.222 1.49926 50.1607 1.36978 49.8949 1.31527C49.8404 1.30845 49.745 1.29483 49.6769 1.29483C49.6155 1.29483 49.5542 1.26757 49.5542 1.24031C49.5542 1.1858 49.6019 1.16535 49.6905 1.16535C49.8745 1.16535 50.1198 1.1858 50.6377 1.19261C50.6854 1.19261 52.3208 1.19261 52.5048 1.1858C52.6888 1.17898 52.791 1.16535 52.8659 1.1381C52.9205 1.11765 52.9273 1.11084 52.9682 1.11084C52.9886 1.11084 53.0022 1.13128 53.0022 1.17217C53.0022 1.22668 52.9477 1.35615 52.9273 1.58784C52.9205 1.74457 52.9068 1.89449 52.9 2.06484C52.9 2.14661 52.8796 2.20113 52.8387 2.20113C52.7978 2.20113 52.7774 2.16706 52.7774 2.09891C52.7706 1.96263 52.7433 1.86723 52.716 1.8059C52.6615 1.62191 52.5797 1.55377 52.1164 1.52651C51.9937 1.5197 51.0874 1.50607 51.067 1.50607C51.0397 1.50607 51.0193 1.52651 51.0193 1.58103V3.67302C51.0193 3.72753 51.0261 3.76161 51.0738 3.76161C51.1828 3.76161 52.1232 3.75479 52.314 3.73435C52.5252 3.72753 52.6615 3.70028 52.7365 3.59806C52.7706 3.54355 52.7978 3.52311 52.8387 3.52311C52.8591 3.52311 52.8728 3.52992 52.8728 3.57762C52.8728 3.62532 52.8387 3.79568 52.8114 4.06144C52.7842 4.32038 52.7842 4.50437 52.7774 4.62021C52.7706 4.69517 52.7501 4.72242 52.716 4.72242C52.6683 4.72242 52.6615 4.66791 52.6615 4.59977C52.6615 4.54525 52.6547 4.44985 52.6343 4.38171C52.6002 4.26587 52.5457 4.13639 52.1913 4.10914C51.9801 4.08869 51.2373 4.07506 51.0874 4.07506C51.0329 4.07506 51.0261 4.10232 51.0261 4.13639V4.81101C51.0261 5.09721 51.0193 5.90811 51.0261 6.06484C51.0465 6.40556 51.0874 6.58273 51.285 6.6645C51.4213 6.72583 51.6462 6.74627 51.9596 6.74627C52.1368 6.74627 52.4298 6.75309 52.6615 6.69176C52.9341 6.60999 53.0022 6.426 53.0772 6.08529C53.0976 5.9967 53.1249 5.95581 53.159 5.95581C53.2135 5.95581 53.2135 6.03759 53.2135 6.0921C53.2135 6.15343 53.1385 6.73946 53.1113 6.88937C53.0772 7.07336 53.0091 7.0938 52.7092 7.0938C52.1027 7.0938 51.8438 7.07336 51.5235 7.07336C51.2033 7.06655 50.7808 7.0461 50.4401 7.0461C50.2288 7.0461 50.0516 7.07336 49.8336 7.07336C49.7518 7.07336 49.7041 7.05292 49.7041 7.01203C49.7041 6.97796 49.7382 6.9507 49.7859 6.9507C49.8404 6.9507 49.9085 6.94389 49.9699 6.92345C50.1334 6.88937 50.2493 6.76672 50.2629 6.19431C50.2697 5.88086 50.2833 5.50607 50.2833 4.8042V3.42089L50.2629 3.43452Z" fill="white"/>
<path d="M67.339 6.84832C67.339 6.84832 65.9285 7.43435 64.293 9.32192C62.6508 11.2163 61.7036 13.3355 62.4123 13.9011C62.6849 14.1192 63.305 14.1533 64.443 13.0834C65.3288 12.2521 66.2283 11.1618 66.8416 9.6013C67.5707 7.72737 67.339 6.86877 67.339 6.84832ZM76.2999 10.2418C74.4804 9.2674 73.1516 8.0749 71.7683 7.33214C70.4464 6.62345 69.5946 6.33043 68.5315 6.48035C68.3544 6.50761 68.0886 6.59619 68.0886 6.59619C68.0886 6.59619 68.6406 8.55871 66.4532 11.8637C64.2385 15.2095 62.2283 15.1959 61.6627 14.2691C61.0631 13.3015 61.8331 11.3185 63.1278 9.56042C64.477 7.72055 66.8484 6.18733 66.8484 6.18733C66.8484 6.18733 66.092 5.70352 64.2317 6.80744C62.4191 7.8841 59.2982 10.4395 56.4089 14.7529C53.5196 19.0664 52.9472 21.4378 52.5247 23.3049C52.1091 25.172 52.4907 27.1686 54.4668 27.1686C56.443 27.1686 58.7462 24.0068 59.3936 22.9097C60.5997 20.8654 61.3833 17.724 59.7411 18.1601C58.9302 18.3713 58.276 19.3117 57.8671 20.218C57.4447 21.1447 57.2743 22.0306 57.2743 22.0306C57.2743 22.0306 56.5929 22.2827 55.6729 23.0051C54.753 23.7274 54.1534 24.4088 54.1534 24.4088C54.1534 24.4088 54.1534 22.9165 55.2913 20.5042C56.4293 18.0851 58.5145 16.9812 59.6934 16.879C60.7564 16.7836 62.1397 17.7376 60.9677 21.2265C59.7956 24.7223 56.3339 28.9608 52.6951 29.0153C49.3356 29.0698 47.1346 24.5792 51.8092 16.7495C56.9745 8.08853 63.046 5.43095 65.0154 5.13112C66.9847 4.83129 67.6252 5.7444 67.6252 5.7444C67.6252 5.7444 69.2743 4.94713 71.3731 5.09023C73.7786 5.26059 75.6389 7.04594 78.092 8.29296C77.4515 8.94713 76.8382 9.61493 76.293 10.2418M87.1005 7.31851C85.4378 8.44287 83.1278 9.4582 80.9131 9.23333C80.3544 9.8398 79.7547 10.5417 79.1482 11.3117C82.9915 12.109 86.3578 9.60812 88.1499 7.48887C89.2675 6.16008 89.8195 4.9812 89.8195 4.9812C89.8195 4.9812 88.7496 6.21459 87.1005 7.32532M81.9898 18.6712C82.0375 18.5826 82.0648 18.5008 82.0648 18.5008C82.0648 18.5008 82.0239 18.1601 81.7104 18.1464C81.3424 18.126 80.845 18.201 79.5367 19.7206C78.2351 21.2333 77.4447 22.5485 76.7564 23.8568C76.0068 25.2947 75.707 26.3645 76.1363 26.6371C76.259 26.712 76.443 26.7257 76.5861 26.6848C76.8791 26.6098 77.2062 26.3236 77.7104 25.7171C77.9489 25.4309 78.2079 25.0289 78.5213 24.5792C79.3799 23.3458 81.5537 19.4548 81.9898 18.6712ZM68.3884 20.3338C68.6065 19.7342 68.8859 18.5553 68.3067 18.0987C67.6866 17.6081 66.1056 18.7597 66.092 19.9318C66.0852 21.1379 67.2096 21.6831 67.4821 21.758C67.6389 21.8057 67.6866 21.7989 67.7615 21.6626C67.8092 21.5809 68.1704 20.9199 68.3884 20.327M67.1891 22.5212C67.1482 22.5076 66.6372 22.2623 66.0988 21.7921C65.5673 21.3287 65.2947 20.7972 65.2743 20.7563C65.2539 20.7154 65.2266 20.7495 65.2062 20.7836C65.1789 20.8177 65.0835 20.9062 64.2385 22.2078C63.3936 23.5093 62.0988 26.1941 63.2777 26.6439C64.0273 26.9369 65.2811 25.5604 65.9625 24.6405C66.5963 23.7887 67.1891 22.712 67.2232 22.6303C67.2573 22.5553 67.2232 22.5349 67.1823 22.5212M80.5043 25.6149C80.184 26.1533 79.8229 27.1754 80.8791 26.5349C82.1602 25.758 83.9864 22.8551 83.9864 22.8551H84.8109C84.8109 22.8551 83.7206 24.6609 82.3033 26.3032C81.0017 27.8091 79.4208 29.1788 78.3033 29.0493C77.0017 28.8926 77.4038 27.1005 77.4038 27.1005C77.4038 27.1005 75.5298 29.1856 74.2419 29.0357C72.4975 28.8313 73.029 26.5758 73.029 26.5758C73.029 26.5758 71.0597 29.1175 69.7172 29.0357C67.6116 28.9062 68.1363 26.2146 68.7223 24.3338C69.0358 23.3253 69.3288 22.5281 69.3288 22.5281C69.3288 22.5281 69.1176 22.5826 68.6678 22.6575C68.4361 22.6916 68.0068 22.7189 68.0068 22.7189C68.0068 22.7189 67.1278 24.3407 66.4327 25.3151C65.7309 26.2895 62.753 29.649 60.9949 28.9744C59.3731 28.3543 59.9046 25.7512 60.8518 23.6797C62.2283 20.6677 66.1057 16.3338 68.3407 16.8994C70.6576 17.4855 68.3953 21.9216 68.3953 21.9216C68.3953 21.9216 68.3953 21.9352 68.4225 21.9488C68.4702 21.9693 68.5861 21.9829 68.8723 21.9216C69.3152 21.833 69.7172 21.6558 69.7172 21.6558C69.7172 21.6558 72.0477 16.5451 74.6235 13.1993C77.1993 9.85343 82.3305 4.09534 84.3476 5.48546C84.8382 5.82618 84.6133 7.00505 83.9523 8.44287C83.6593 8.53827 83.3527 8.62686 83.0392 8.695C83.4821 7.85003 83.7752 7.13452 83.8637 6.64389C84.1636 4.91306 80.3135 8.55871 77.5605 12.4769C74.8075 16.402 73.1585 19.9522 73.1585 19.9522C73.1585 19.9522 73.7104 19.6252 74.5758 18.896C75.4821 18.1328 76.7223 16.9403 78.0716 15.4752C78.9779 14.494 80.0477 13.2606 81.0426 11.8773C81.3424 11.8637 81.6355 11.8296 81.9217 11.7819C80.8041 13.356 79.6321 14.787 78.6372 15.8432C77.5401 17.0085 76.3544 18.2623 75.3186 19.1686C73.6763 20.6132 72.4089 21.4378 72.4089 21.4378C72.4089 21.4378 69.9966 26.5212 71.305 26.8483C72.075 27.0391 73.5946 24.586 73.5946 24.586C73.5946 24.586 75.5775 21.4173 76.77 19.9863C78.3987 18.0442 79.8024 16.9199 81.2062 16.8926C82.0239 16.879 82.5077 17.7921 82.5077 17.7921L82.8893 17.172H85.2607C85.2607 17.172 80.8382 25.0357 80.4907 25.6217M87.0801 7.33214C85.4174 8.4565 83.1074 9.47183 80.8927 9.24696C80.3339 9.85343 79.7343 10.5553 79.1278 11.3253C82.9711 12.1226 86.3373 9.62175 88.1295 7.5025C89.247 6.17371 89.799 4.99483 89.799 4.99483C89.799 4.99483 88.7292 6.22822 87.0801 7.33895M53.8263 11.2163H51.5707L50.2964 13.3764H52.5452L53.8194 11.2163H53.8263ZM43.1619 18.678C44.1227 17.3015 46.7598 12.4838 46.7598 12.4838C46.7598 12.4838 46.7189 12.143 46.4055 12.1294C46.0375 12.1158 45.4378 12.2384 44.2181 13.833C43.0051 15.4207 42.0648 16.6882 41.3833 18.0033C40.6338 19.4412 40.3067 20.4497 40.736 20.7291C40.8586 20.804 41.0426 20.8177 41.1857 20.7768C41.4719 20.7018 41.8331 20.4088 42.3373 19.8023C42.5758 19.5161 42.8416 19.1345 43.1551 18.6848M31.0665 12.1771C30.4464 11.6865 28.8586 12.8381 28.8518 14.017C28.845 15.2231 30.2828 15.5706 30.4668 15.5775C30.4668 15.5775 30.6304 15.6252 30.6917 15.4821C30.7326 15.3935 30.9302 15.0119 31.1482 14.419C31.3663 13.8194 31.6457 12.6473 31.0665 12.1839M30.1261 16.3407C30.0852 16.327 29.4855 16.143 28.9063 15.7546C28.3271 15.3662 28.0545 14.787 28.0341 14.7461C28.0137 14.7052 27.9864 14.7393 27.966 14.7734C27.9455 14.8074 27.816 14.9778 26.9711 16.2793C26.1261 17.5809 24.8723 20.2453 26.0443 20.7018C26.7939 20.9948 28.0614 19.6115 28.7428 18.6916C29.3765 17.8398 30.1329 16.5383 30.167 16.4565C30.201 16.3815 30.167 16.3611 30.1261 16.3475M48.5315 17.1379H49.3561C49.3561 17.1379 45.2266 23.4003 42.8893 23.1141C41.5878 22.9573 41.9694 21.2674 41.9694 21.2674C41.9694 21.2674 40.1363 23.5161 38.46 23.0664C36.9336 22.6575 37.9149 19.9999 37.9149 19.9999C37.7377 20.0749 34.4396 23.9727 32.1227 23.0391C29.6968 22.0579 30.9506 18.7938 31.414 17.8125C31.8024 16.9812 32.2385 16.1771 32.2385 16.1771C32.2385 16.1771 31.8637 16.2861 31.6321 16.3475C31.4004 16.402 31.0528 16.4769 31.0528 16.4769C31.0528 16.4769 29.9012 18.4326 29.2062 19.4071C28.5043 20.3815 25.5264 23.741 23.7683 23.0664C22.0102 22.3986 22.4395 19.8228 23.4276 17.7785C25.029 14.4599 28.8246 10.3849 31.1142 10.9914C33.4242 11.6047 31.5162 15.5366 31.5162 15.5366C31.5162 15.5366 31.9728 15.5979 33.0767 14.8143C34.6644 13.6831 36.7564 10.6303 39.0256 10.9846C40.0886 11.155 41.0835 12.2998 39.7275 14.4667C39.2913 15.1618 38.569 15.7887 38.0034 15.1754C37.6559 14.7938 37.9625 14.0919 38.3237 13.6149C38.8348 12.9335 39.5503 13.0289 39.5503 13.0289C39.5503 13.0289 39.9251 12.1294 38.9711 12.143C38.201 12.1567 36.2453 14.0442 35.1482 15.9454C34.1397 17.6899 32.6065 20.6677 34.1465 21.3151C35.5571 21.9079 38.2351 18.5758 39.4821 16.8245C40.7223 15.08 43.5503 11.1141 45.9285 10.9505C46.7462 10.896 47.23 11.6729 47.23 11.6729L47.5026 11.2163H49.874C49.874 11.2163 45.4038 19.0323 45.0562 19.6252C44.7837 20.0885 44.4157 21.1311 45.431 20.5451C46.4396 19.9591 48.5452 17.1243 48.5452 17.1243M47.2573 29.649C45.4651 28.327 43.2709 27.741 41.2879 27.8296C39.2777 27.9114 38.3782 29.4855 38.3782 29.4855C37.4719 27.8296 35.6798 26.8142 32.9063 26.8415C28.4361 26.896 24 29.0562 20.4838 29.0562C16.9677 29.0562 14.6508 26.8415 14.7326 22.896C14.8757 15.9863 20.4498 9.75803 24.6133 6.95735C27.0051 5.34917 29.0154 4.86536 30.3237 5.02209C31.2777 5.13112 32.4361 6.28955 31.707 7.99313C30.644 10.494 29.1721 10.2827 29.2198 9.09023C29.247 8.3134 29.7445 7.82277 30.1125 7.55701C30.351 7.38665 30.7666 7.33895 30.9847 7.33214C31.1959 7.14815 31.3527 5.77848 29.6423 6.22822C27.9251 6.67796 25.8603 8.44287 23.891 10.7189C21.9217 12.9948 18.8552 17.3083 18.0988 21.833C17.7513 23.9318 17.983 27.7546 22.7258 27.7137C26.7462 27.6797 32.6883 24.8994 38.1465 24.9539C40.2658 24.9744 42.1056 25.5672 43.5435 26.5008C44.9608 27.4139 46.6508 28.7427 47.2505 29.649" fill="#F40009"/>
<path d="M83.2847 28.1635C83.2847 28.5655 82.9848 28.8926 82.5896 28.8926C82.1944 28.8926 81.9014 28.5723 81.9014 28.1703C81.9014 27.7614 82.2012 27.4343 82.5964 27.4343C82.9916 27.4343 83.2847 27.7546 83.2847 28.1566V28.1635ZM82.5964 27.2776C82.1194 27.2776 81.7446 27.6864 81.7446 28.1703C81.7446 28.6609 82.1126 29.0629 82.5896 29.0629C83.0666 29.0629 83.4414 28.6609 83.4414 28.1703C83.4414 27.6796 83.0734 27.2776 82.5964 27.2776Z" fill="#F40009"/>
<path d="M82.801 27.9931C82.801 28.0749 82.7464 28.1294 82.6442 28.1294H82.4466V27.85H82.6442C82.7396 27.85 82.801 27.8977 82.801 27.9863V27.9931ZM82.801 28.2793C82.9168 28.2316 82.9986 28.1362 82.9986 27.9863C82.9986 27.8977 82.9713 27.8296 82.9236 27.7751C82.8623 27.7069 82.7669 27.6729 82.6442 27.6729H82.2422V28.62H82.4398V28.3134H82.5965L82.7942 28.62H83.0258L82.801 28.2793Z" fill="#F40009"/>
<path fill-rule="evenodd" clip-rule="evenodd" d="M5.43101 39.8637C7.12777 39.8637 8.98127 39.5979 9.54004 39.2776C10.4736 38.7529 10.201 36.6882 9.94208 35.8841C9.7581 35.3117 9.35605 34.3441 9.36287 32.327C9.36287 30.1601 10.0716 25.9693 10.1056 25.7103C10.1601 25.2742 10.2624 24.8449 10.0307 24.7495C10.3169 24.5315 10.0852 19.189 9.58093 18.9846C9.83987 18.9846 9.74447 18.3849 9.68995 17.9761C9.59455 17.2197 8.92675 15.4344 8.35435 13.5059C8.09541 12.6405 7.70018 11.339 7.56389 10.3781C7.44123 9.48546 7.46849 8.34066 7.46849 7.84321C7.63885 7.67285 7.70699 7.5979 7.70018 7.32532C7.69336 7.04594 7.33902 6.36451 7.33902 6.26911C7.33902 6.17371 7.33902 6.05105 7.46849 5.94202C7.60478 5.81255 7.59796 5.59449 7.53663 5.4105C7.46168 5.19244 7.1891 5.1243 7.03919 5.09023C6.89609 5.05616 6.18059 4.9812 5.44464 4.9812C4.70869 4.9812 3.99319 5.04934 3.85009 5.09023C3.69336 5.13112 3.42079 5.19244 3.35265 5.4105C3.29132 5.59449 3.2845 5.81255 3.4276 5.94202C3.55026 6.05786 3.55708 6.17371 3.55708 6.26911C3.55708 6.36451 3.20273 7.04594 3.1891 7.32532C3.18229 7.59108 3.25043 7.67285 3.42079 7.84321C3.42079 8.34066 3.44805 9.48546 3.32539 10.3781C3.19592 11.3458 2.79387 12.6473 2.53493 13.5059C1.96253 15.4412 1.29473 17.2197 1.19251 17.9761C1.138 18.3849 1.04941 18.9846 1.30154 18.9846C0.797281 19.189 0.565594 24.5315 0.851795 24.7495C0.613294 24.8449 0.722323 25.281 0.776838 25.7103C0.810909 25.9693 1.5196 30.1601 1.5196 32.327C1.5196 34.3441 1.11755 35.3185 0.940381 35.8841C0.681438 36.695 0.408865 38.7529 1.34243 39.2776C1.9012 39.5911 3.74788 39.8637 5.45145 39.8637H5.43101Z" fill="#F40009"/>
</g>
<defs>
<clipPath id="clip0_101_19705">
<rect width="89.1448" height="40" fill="white" transform="translate(0.674805)"/>
</clipPath>
</defs>
</svg>
