<svg width="250" height="40" viewBox="0 0 250 40" fill="none" xmlns="http://www.w3.org/2000/svg">
<path fill-rule="evenodd" clip-rule="evenodd" d="M18.7405 0.500147C23.3787 0.200905 29.3636 2.29559 31.4583 3.41775C30.785 4.01623 29.8124 4.98877 29.2139 6.11092C28.1666 6.18573 20.4611 2.14597 17.0947 2.74446C13.429 3.34294 9.98769 5.2132 9.01515 9.10334C8.19224 12.2454 14.4015 12.0209 17.6183 6.18573H18.3664C18.3664 6.18573 16.3466 9.92625 14.7755 11.3476C11.035 14.7141 6.69603 14.3401 6.69603 11.7965C6.69603 6.63459 12.9053 0.874198 18.7405 0.500147ZM26.82 6.18573C23.9024 7.00865 19.8627 13.5171 19.713 13.8164C19.339 14.2652 16.3466 20.2501 13.429 23.7662C9.76326 28.18 7.07009 29.751 4.82578 29.9754C2.73109 30.125 0.486777 29.1525 0.411967 26.8334C0.262346 23.9158 2.65628 22.27 4.07767 22.27C4.60134 22.27 5.19983 22.7188 5.19983 23.3173C5.05021 25.0379 2.58147 24.8135 2.58147 24.8135C2.58147 24.8135 1.45931 25.1876 1.53412 26.6838C1.53412 27.9555 4.37691 30.948 7.66857 26.609C11.2595 21.8959 14.8504 14.6393 18.142 11.0484C23.0047 5.36282 26.82 6.18573 26.82 6.18573ZM42.0065 15.6866C42.7546 15.2378 43.4279 15.6866 43.1287 16.3599C41.4828 19.502 39.0889 21.8959 35.7973 23.6913C37.2186 19.9508 39.463 17.108 42.0065 15.6866ZM34.8995 7.98118C34.8995 7.98118 35.6476 7.98118 36.5454 7.68194C33.0293 12.2454 26.6704 16.4347 26.5956 16.4347C26.5956 16.4347 26.8948 16.5096 26.9696 16.4347C31.6827 12.9187 33.2537 15.6866 32.5056 17.0332C30.4857 20.9982 29.2888 22.1203 27.1193 26.0853C26.7452 26.7586 26.7452 27.5067 28.7651 27.1326C29.588 26.9082 30.5605 26.3097 31.2338 25.7112C33.3285 18.6791 39.5378 13.966 42.9042 14.6393C43.5775 14.7889 44.176 15.6866 44.0264 16.2851C42.979 20.3249 38.7149 23.0181 35.1988 25.7112C34.7499 26.0853 35.7224 30.1998 41.4828 23.0929H42.4554C35.498 33.3419 31.0094 28.6288 31.159 27.2822C30.7101 27.5815 28.2414 29.0777 25.8475 29.5266C23.678 29.9754 23.0047 28.7785 23.1543 27.8807C23.6032 25.5616 28.5406 18.305 28.7651 17.4821C28.9895 16.9584 28.391 16.5096 28.1666 16.734C26.5208 17.6317 26.6704 16.3599 18.4413 29.4517H14.8504C14.8504 29.3021 25.249 13.2179 25.6979 12.4698C28.0918 8.8789 38.0416 -3.76404 39.9866 1.09863C40.1362 1.47268 40.1363 1.77192 39.837 2.44522C39.837 2.44522 39.3881 2.74446 38.4904 2.81927C39.2385 1.54749 38.4156 1.02382 38.0416 1.24825C34.1514 3.34294 28.3162 13.8164 28.3162 13.8164C31.0842 12.1706 34.6003 8.50485 34.8995 7.98118ZM36.1713 4.16585C35.124 5.43763 34.8995 5.73687 33.927 7.23308C37.5927 7.83156 44.3256 2.89408 45.0737 0.649767C42.4554 2.59484 40.5103 3.71699 36.1713 4.16585Z" fill="white"/>
<path fill-rule="evenodd" clip-rule="evenodd" d="M68.938 0.425405C71.0327 -0.0234565 72.5289 1.0987 72.3045 3.2682C71.8556 6.48504 69.2373 7.00871 69.1625 5.51251C69.0877 3.64225 70.4342 3.41782 71.2572 3.2682C71.706 2.44528 70.8831 1.17351 68.938 2.14604C56.8936 8.05606 47.6919 30.7236 63.4021 28.0304C67.7411 27.2823 71.706 25.8609 77.1672 24.8884C86.9673 23.1677 91.9796 29.5266 91.9796 29.5266C91.9796 29.5266 83.8253 25.9357 81.5062 29.9007C79.1871 27.0579 75.8954 26.8335 72.1549 27.1327C66.6189 27.6564 61.3822 30.4243 57.4921 29.6762C52.5546 28.7785 51.7317 26.4594 51.1332 22.8685C49.637 16.0608 59.2875 2.22085 68.938 0.425405ZM116.218 0.425405C117.34 0.350595 118.088 0.649836 118.537 1.17351C124.747 -1.29523 130.432 2.96896 132.078 3.86668C131.479 4.31554 130.283 5.73694 129.759 6.26061C128.487 6.26061 121.904 1.0987 119.285 2.37047C119.36 3.94149 118.537 8.72935 114.946 11.3477C111.804 13.592 110.458 11.7966 110.981 9.40265C111.206 8.3553 113.001 4.31554 117.415 1.77199C117.415 1.77199 116.592 1.54756 116.143 1.69718C106.717 4.09111 93.9247 25.7861 101.481 27.2823C104.997 27.9556 109.859 21.3723 109.784 17.7066C109.784 17.1829 109.635 15.7615 108.363 16.4348C107.091 17.0333 105.82 19.0532 105.52 21.1479C103.8 21.3723 101.705 23.841 101.705 23.841C101.63 22.6441 103.725 14.7142 109.111 14.8638C112.328 14.9386 110.907 20.9234 108.438 24.0655C102.229 32.145 95.7201 30.7984 95.2713 24.3647C94.7476 17.8562 105.221 1.0987 116.218 0.425405ZM118.238 2.81934C118.612 6.41023 115.021 10.5996 113.45 11.1981C111.655 11.8714 111.73 10.9737 111.655 10.5248C111.58 8.65454 115.171 3.56744 118.238 2.81934ZM69.5365 7.90644C70.8083 7.38277 72.8282 7.83163 72.9778 9.25303C73.0526 10.7492 72.8282 11.7966 72.1549 13.0684C75.1473 12.7691 77.7657 7.00871 81.581 7.6072C84.8726 8.05606 83.0024 13.0684 81.1321 12.9935C80.0848 12.9187 80.3092 12.1706 80.384 11.5721C80.4588 10.824 81.4314 10.1507 82.4039 10.0759C82.4039 9.7767 82.3291 8.95378 81.5062 9.02859C80.2344 9.17821 76.8679 12.2454 74.9977 17.6318C74.5488 18.8287 74.9229 20.6242 76.3443 20.325C77.4664 20.0257 78.4389 19.6517 79.9352 17.7814C84.7978 11.5721 86.8177 8.57973 89.6605 7.83163C91.4559 7.38277 92.204 8.3553 92.204 8.3553C92.2789 8.3553 92.6529 7.98125 92.8773 7.75682H95.7949C95.4957 8.28049 92.0544 14.3401 89.5857 18.6791C89.2116 19.2776 89.6605 19.8013 89.8849 19.6517C91.7552 18.6043 93.2514 16.7341 94.2239 15.0882L94.972 15.0134C94.972 15.163 92.5033 19.7265 89.5857 21.6715C86.9673 23.3174 85.92 22.1204 85.7704 20.4746C85.3963 20.9234 79.5611 25.8609 80.384 18.7539C77.242 23.2426 67.5166 25.6365 73.1274 14.0409C72.3045 14.3401 72.2297 14.1905 71.706 14.3401C71.706 14.3401 68.0403 21.8212 63.7761 22.4945C62.2799 22.7189 61.457 21.8212 61.3074 20.5494C60.7837 16.2104 64.8235 10.0759 69.5365 7.90644ZM97.8148 7.83163C98.7874 7.90644 99.0866 7.75682 100.583 7.75682C100.059 8.80416 99.311 10.3004 99.0118 10.3004C97.74 10.3004 96.169 10.5248 96.3934 10.1507C96.9171 9.17821 97.1415 8.87897 97.8148 7.83163ZM70.3594 9.25303C73.277 8.57973 71.7808 12.3951 70.8831 13.3676C69.761 13.218 68.7136 12.6195 68.7884 11.4225C68.7884 10.9737 69.3121 9.47746 70.3594 9.25303ZM90.5582 9.17822C90.8575 9.02859 91.6056 9.02859 91.3063 9.70189C90.259 12.1706 86.0696 19.2776 84.4986 19.502C83.7505 19.6517 83.8253 18.6043 83.9749 18.2303C85.0971 15.0882 88.2391 10.0759 90.5582 9.17822ZM70.5839 14.3401C69.4617 16.4348 68.6388 17.7814 66.6937 19.2028C65.1975 20.325 64.5242 18.7539 64.7487 17.7066C65.3471 15.4623 66.6189 13.4424 67.6663 12.3202C68.4892 13.5172 68.7884 13.8913 70.5839 14.3401ZM119.285 16.8089H119.51H119.285ZM119.285 16.2852C120.033 16.2852 120.258 16.9585 120.258 17.6318C120.258 18.9036 119.36 20.2501 119.211 20.7738C119.211 20.7738 117.191 20.6242 117.116 18.6791C117.116 17.4822 118.163 16.2852 119.285 16.2852ZM136.193 16.6592C136.791 16.2852 137.913 16.4348 137.464 17.2577C135.519 20.5494 134.846 22.1204 132.901 25.038C131.33 27.3571 129.834 27.6564 130.283 25.4869C130.881 22.1952 135.22 17.1829 136.193 16.6592ZM115.994 19.7265C115.994 19.7265 116.443 21.2227 118.837 21.896C118.388 22.4945 117.041 25.038 115.62 26.0854C111.879 28.8533 112.852 23.0181 115.994 19.7265ZM146.89 0.500216C146.89 0.500216 142.925 8.43011 133.649 8.05606C133.649 8.05606 136.043 5.13846 136.641 5.13846C136.567 5.21327 139.858 6.1858 146.89 0.500216ZM139.035 3.94149C139.035 3.86668 139.709 2.96896 139.709 2.14604C139.709 1.8468 139.484 1.62237 139.26 1.62237C139.26 1.62237 133.873 4.09111 126.542 18.3051C126.542 18.3051 126.991 19.3524 136.118 8.87897L137.09 8.80416C137.09 8.80416 133.35 14.789 125.046 20.8486C124.223 22.8685 124.298 22.7937 123.55 25.6365C123.4 26.235 123.849 28.3297 125.644 26.0854C127.365 23.9907 131.031 16.5096 135.519 14.8638C136.492 14.4897 137.764 15.0134 138.212 15.5371C138.212 15.5371 138.661 15.0882 138.886 14.789C139.783 14.7142 141.055 14.8638 141.728 14.789C141.803 15.0882 138.437 20.9982 135.744 25.9357C135.37 26.5342 135.893 26.9083 136.118 26.7586C137.764 25.5617 138.063 25.6365 140.232 22.1952C140.232 22.1952 140.232 22.1952 140.831 22.1952C139.559 25.5617 132.901 32.9679 131.928 27.5816H131.629C131.255 28.1052 126.243 32.145 126.243 26.7586C123.849 29.7511 120.557 30.3495 120.183 28.0304C119.734 25.6365 121.305 21.9708 121.305 21.9708H119.659C119.211 22.4196 116.293 28.4793 111.879 29.5266C110.383 29.9007 109.036 28.5541 109.336 26.5342C109.934 21.2227 115.395 15.3875 118.462 14.8638C119.959 14.5646 121.38 15.163 121.23 17.7066C121.156 18.9784 120.408 20.4746 120.258 20.8486C120.258 20.8486 121.679 20.8486 121.979 20.2501C126.766 8.87897 136.492 0.425405 139.26 0.350595C139.484 0.350595 140.532 0.500216 140.532 1.77199C140.532 2.22085 140.307 2.96896 140.083 3.49263C140.083 3.79187 139.783 3.86668 139.035 3.94149Z" fill="white"/>
<path fill-rule="evenodd" clip-rule="evenodd" d="M169.334 1.02384C170.605 1.17346 172.476 3.49258 169.782 6.26056C168.81 7.2331 167.912 6.5598 167.912 5.8117C167.912 4.61474 169.034 3.49258 170.082 3.71701C170.456 1.77194 168.81 2.07118 167.239 2.74448C157.065 7.2331 145.619 28.6288 155.943 27.6563C157.738 27.5067 162.975 22.8685 163.349 17.6317C163.424 16.8836 163.124 16.0607 161.479 16.4348C159.683 16.8836 158.86 20.9982 158.636 21.073C158.187 21.4471 157.364 20.699 154.596 23.7662C154.596 23.7662 155.569 15.6119 161.329 14.7141C167.314 13.8164 162.376 24.5143 157.962 27.5815C150.033 33.1175 148.013 26.3845 148.237 23.5417C149.06 14.0408 161.179 0.200926 169.334 1.02384ZM200.679 14.9386H203.821C203.821 15.0882 203.223 16.2103 203.223 16.2103C204.27 15.4622 205.018 14.9386 206.29 14.7141C208.385 14.4149 208.609 16.0607 208.385 17.3325C207.113 22.7188 202.774 26.6838 202.774 26.7586C210.255 23.0181 212.35 14.8637 217.063 14.6393C217.811 14.5645 218.26 14.7141 218.933 15.3126C219.157 15.537 219.008 15.537 219.382 14.9386H222.299C222.299 15.0134 217.362 23.6166 216.24 25.7112C215.641 26.9082 216.389 27.1326 216.689 26.983C221.102 24.5143 225.741 15.6119 226.414 14.9386H229.406C229.406 15.0882 229.182 15.3874 228.434 16.734C228.658 16.734 231.426 14.1905 233.521 15.0134C234.493 15.4622 234.194 17.0332 233.97 17.6317C233.97 17.6317 228.883 26.0105 228.883 26.3845C228.883 26.8334 229.331 26.983 229.556 26.9082C232.174 26.1601 235.915 21.8211 239.655 14.7889H242.797C242.797 14.7889 236.588 25.038 235.391 27.0578C235.242 27.2823 235.242 28.3296 236.139 27.8807C240.927 24.9631 242.274 21.5219 246.239 14.7889H249.381C249.381 14.7889 236.214 36.9328 234.793 39.5512C232.698 39.7008 232.848 39.4763 231.725 39.5512L238.309 28.2548C238.309 28.2548 232.698 32.1449 232.324 28.0304C232.324 28.0304 232.399 27.2823 233.147 25.7112C233.147 25.7112 225.217 33.3419 225.217 27.5815C225.292 25.3372 230.603 18.5295 230.603 17.3325C230.603 17.0332 230.454 16.8836 230.154 16.8836C227.312 16.8088 221.925 27.5815 220.579 29.6014C220.13 29.6014 217.287 29.6014 217.287 29.6014L219.157 26.3845C216.988 28.6288 211.826 31.7709 212.35 27.3571C212.35 27.3571 209.582 29.9006 208.459 29.6014C205.243 28.8533 207.412 24.5143 207.412 24.5143C207.038 24.5891 198.659 32.3694 195.742 28.8533C192.674 34.1648 192.749 34.2396 192.45 34.6137C189.532 39.2519 190.206 38.429 189.383 39.8504C188.934 39.8504 187.213 39.8504 186.316 40L194.096 25.8609C193.722 25.9357 191.103 28.7785 188.635 29.5266C188.261 29.6014 186.091 30.0502 186.166 27.6563C186.241 25.6364 191.477 18.6043 191.477 17.2577C191.477 16.9584 191.403 16.734 190.655 16.8836C189.906 17.1081 188.41 18.0806 185.792 22.27C185.044 23.4669 182.5 27.8807 181.378 29.6014H178.46L185.493 17.1081C185.268 16.5844 185.193 16.6592 184.819 16.6592C181.079 17.6317 176.889 27.1326 175.543 29.5266H172.326C173.673 27.1326 178.012 19.4272 178.012 19.4272C178.012 19.4272 176.216 20.6241 173.523 21.073C173.149 21.1478 169.782 28.2548 165.443 29.4518C163.349 29.9754 162.526 28.4044 162.526 26.9082C162.975 20.5493 169.633 14.1156 172.476 14.5645C173.822 14.7889 174.645 15.4622 174.57 17.4073C174.496 18.5295 173.897 20.2501 173.897 20.2501C173.897 20.2501 177.862 20.2501 180.406 14.9386C184.595 14.9386 180.854 14.9386 183.697 14.9386C183.697 14.9386 183.099 15.8363 182.799 16.5844C182.799 16.5844 189.607 11.8713 188.56 17.1081C189.458 16.4348 194.021 12.1706 194.769 16.1355C195.068 17.7814 189.682 25.5616 189.682 26.4594C189.682 27.0578 190.206 26.983 190.43 26.983C190.729 26.983 194.021 25.1128 196.415 21.5967C198.21 19.2027 200.679 15.0134 200.679 14.9386ZM172.775 15.9859C172.85 15.9859 173.897 16.2851 173.897 17.5569C173.897 18.6043 173.448 19.502 173.074 20.3997C173.074 20.3997 170.531 20.1753 170.68 18.305C170.68 16.734 171.952 15.9859 172.775 15.9859ZM216.539 16.5844C217.886 15.6119 217.96 16.2851 217.811 16.5844C217.362 17.8562 215.94 20.9982 212.798 25.4868C212.05 26.5342 210.479 27.5815 210.704 26.0105C211.227 22.1203 215.267 17.5569 216.539 16.5844ZM203.971 17.4073C204.569 17.4073 204.869 17.8562 204.869 18.305C204.869 19.1279 201.876 25.6364 199.033 27.6563C197.163 29.377 196.789 27.8059 196.789 27.3571C196.789 27.0578 201.652 18.1554 202.774 17.8562C202.849 17.5569 203.522 17.4073 203.971 17.4073ZM169.558 19.0531C169.932 19.4272 170.381 20.5493 172.55 21.1478C172.55 21.1478 169.857 26.1601 167.987 26.5342C166.64 26.8334 166.566 26.2349 166.491 25.4868C166.341 23.9906 168.66 19.6516 169.558 19.0531Z" fill="white"/>
</svg>
