<svg width="188" height="171" viewBox="0 0 188 171" fill="none" xmlns="http://www.w3.org/2000/svg">
<path d="M131.91 120.584H128.39V105.084L125.05 106.004L124.28 103.084L129.44 101.434L131.91 101.424V120.584Z" fill="#ED1C24"/>
<path d="M143.68 120.854C139.39 120.854 136.39 118.594 136.39 115.364C136.39 113.194 137.44 111.694 139.6 110.714C137.87 109.734 137.03 108.364 137.03 106.544C137.03 103.524 139.89 101.294 143.67 101.294C147.45 101.294 150.31 103.524 150.31 106.494C150.31 108.364 149.47 109.734 147.73 110.714C149.92 111.784 150.95 113.224 150.95 115.224C150.95 118.614 148.02 120.854 143.67 120.854M143.67 112.384C141.43 112.384 139.86 113.494 139.86 115.094C139.86 116.694 141.43 117.834 143.67 117.834C145.91 117.834 147.48 116.734 147.48 115.154C147.48 113.574 145.91 112.394 143.67 112.394M143.67 104.324C141.83 104.324 140.45 105.384 140.45 106.794C140.45 108.384 141.8 109.504 143.67 109.504C145.54 109.504 146.89 108.394 146.89 106.874C146.89 105.354 145.54 104.324 143.67 104.324Z" fill="#ED1C24"/>
<path d="M161.66 120.854C157.37 120.854 154.37 118.594 154.37 115.364C154.37 113.204 155.42 111.694 157.58 110.714C155.85 109.734 155.01 108.364 155.01 106.544C155.01 103.524 157.86 101.294 161.65 101.294C165.44 101.294 168.29 103.524 168.29 106.494C168.29 108.364 167.45 109.734 165.71 110.714C167.91 111.784 168.93 113.224 168.93 115.224C168.93 118.614 166 120.854 161.64 120.854M161.64 112.384C159.4 112.384 157.83 113.494 157.83 115.094C157.83 116.694 159.4 117.834 161.64 117.834C163.88 117.834 165.45 116.734 165.45 115.154C165.45 113.574 163.88 112.394 161.64 112.394M161.64 104.324C159.8 104.324 158.42 105.384 158.42 106.794C158.42 108.384 159.77 109.504 161.64 109.504C163.51 109.504 164.86 108.394 164.86 106.874C164.86 105.354 163.51 104.324 161.64 104.324Z" fill="#ED1C24"/>
<path d="M180.1 120.904C177.89 120.904 176.15 120.254 174.78 118.914C173.16 117.254 172.46 115.084 172.46 111.634C172.46 105.304 175.67 101.244 180.63 101.244C182.86 101.244 184.6 101.874 186.45 103.364L186.55 103.444L184.63 106.204L184.52 106.124C183.24 105.134 182.13 104.514 180.53 104.514C178.08 104.514 176.43 106.614 176.18 110.014C177.13 109.144 178.4 108.324 180.5 108.324C184.51 108.324 187.2 110.744 187.2 114.354C187.2 117.964 184.15 120.914 180.1 120.914M179.94 111.344C177.81 111.344 176.26 112.674 176.26 114.514C176.26 116.484 177.81 117.814 180.02 117.814C182.23 117.814 183.64 116.494 183.64 114.544C183.64 112.594 182.12 111.354 179.94 111.354" fill="#ED1C24"/>
<path d="M7.50992 120.884C5.21992 120.884 2.68992 120.064 0.669922 118.474L2.31992 115.974C4.05992 117.284 5.94992 117.964 7.59992 117.964C9.24992 117.964 10.0999 117.294 10.0999 116.224V116.164C10.0999 114.914 8.38992 114.484 6.49992 113.904C4.11992 113.234 1.45992 112.254 1.45992 109.174V109.114C1.45992 106.064 3.98992 104.194 7.19992 104.194C9.20992 104.194 11.4099 104.894 13.1199 106.024L11.6499 108.644C10.0899 107.694 8.43992 107.114 7.09992 107.114C5.65992 107.114 4.83992 107.784 4.83992 108.734V108.794C4.83992 109.954 6.57992 110.444 8.46992 111.054C10.8199 111.784 13.4799 112.854 13.4799 115.754V115.814C13.4799 119.204 10.8599 120.884 7.49992 120.884" fill="#ED1C24"/>
<path d="M16.6396 98.4744H20.6096V101.984H16.6396V98.4744ZM16.7896 104.454H20.4796V120.574H16.7896V104.454Z" fill="#ED1C24"/>
<path d="M28.9498 120.574H25.2598V104.454H28.9498V106.954C29.9898 105.424 31.4798 104.114 33.9898 104.114C37.6198 104.114 39.7298 106.554 39.7298 110.314V120.574H36.0398V111.414C36.0398 108.914 34.7898 107.474 32.5898 107.474C30.3898 107.474 28.9598 108.974 28.9598 111.474V120.574H28.9498Z" fill="#ED1C24"/>
<path d="M51.0898 120.945C46.2998 120.945 42.7598 117.185 42.7598 112.585C42.7598 107.985 46.2998 104.125 51.1198 104.125C54.1698 104.125 56.0598 105.255 57.5598 106.905L55.2698 109.375C54.1398 108.185 52.9498 107.365 51.0898 107.365C48.3998 107.365 46.4498 109.685 46.4498 112.525C46.4498 115.365 48.4298 117.745 51.2698 117.745C53.0098 117.745 54.2898 116.925 55.4498 115.725L57.6798 117.924C56.0898 119.694 54.2298 120.945 51.0898 120.945Z" fill="#ED1C24"/>
<path d="M68.0697 117.924C69.8697 117.924 71.1497 117.255 72.4297 116.005L74.5997 117.924C73.0697 119.754 70.9697 120.945 68.0097 120.945C63.3397 120.945 59.7397 117.555 59.7397 112.555C59.7397 107.915 63.0097 104.125 67.6197 104.125C72.7497 104.125 75.3397 108.154 75.3397 112.824C75.3397 113.164 75.3097 113.465 75.2797 113.835H63.4397C63.8697 116.455 65.6997 117.924 68.0797 117.924M71.6797 111.395C71.4397 109.015 70.0297 107.155 67.5897 107.155C65.3297 107.155 63.7397 108.895 63.4097 111.395H71.6797Z" fill="#ED1C24"/>
<path d="M94.22 43.6644C93.41 43.6644 92.64 43.3644 92.04 42.8144C90.73 41.6144 90.64 39.5744 91.84 38.2544C92.45 37.5844 93.32 37.2043 94.22 37.2043C95.03 37.2043 95.8 37.5044 96.4 38.0544C97.71 39.2544 97.8 41.2943 96.6 42.6143C95.99 43.2843 95.12 43.6644 94.22 43.6644ZM94.22 37.9543C93.52 37.9543 92.86 38.2444 92.39 38.7544C91.47 39.7644 91.54 41.3344 92.54 42.2544C93.51 43.1444 95.16 43.0743 96.05 42.1043C96.97 41.0943 96.9 39.5244 95.89 38.5944C95.43 38.1744 94.84 37.9444 94.22 37.9444" fill="#ED1C24"/>
<path d="M110.17 14.7444C109.36 14.7444 108.59 14.4444 108 13.9044C107.37 13.3244 106.99 12.5344 106.96 11.6744C106.92 10.8144 107.22 9.99445 107.8 9.35445C108.41 8.68445 109.28 8.30444 110.18 8.30444C110.99 8.30444 111.76 8.60445 112.35 9.15445C113.66 10.3544 113.75 12.3944 112.55 13.7044C111.94 14.3744 111.07 14.7545 110.17 14.7545M110.17 9.06444C109.48 9.06444 108.81 9.35444 108.34 9.86444C107.89 10.3544 107.66 10.9844 107.69 11.6444C107.72 12.3044 108 12.9144 108.49 13.3544C109.46 14.2444 111.1 14.1644 111.99 13.2044C112.91 12.1944 112.84 10.6244 111.84 9.70444C111.38 9.28444 110.79 9.05444 110.17 9.05444" fill="#ED1C24"/>
<path d="M97.2298 15.2843C97.7098 15.7243 97.7398 16.4743 97.2998 16.9643C96.8598 17.4443 96.1098 17.4743 95.6198 17.0343C95.1398 16.5943 95.0998 15.8343 95.5498 15.3543C95.9898 14.8643 96.7398 14.8343 97.2298 15.2743" fill="#ED1C24"/>
<path d="M109.18 26.9545C108.48 26.9545 107.8 26.6945 107.28 26.2145C106.13 25.1645 106.05 23.3745 107.1 22.2345C107.63 21.6545 108.39 21.3245 109.18 21.3245C109.89 21.3245 110.56 21.5845 111.08 22.0645C112.23 23.1145 112.31 24.8945 111.26 26.0445C110.73 26.6245 109.97 26.9545 109.18 26.9545ZM109.18 22.0645C108.6 22.0645 108.04 22.3145 107.65 22.7345C106.88 23.5745 106.94 24.8945 107.78 25.6645C108.59 26.4045 109.96 26.3445 110.71 25.5345C111.48 24.6945 111.42 23.3845 110.58 22.6045C110.2 22.2545 109.7 22.0645 109.18 22.0645Z" fill="#ED1C24"/>
<path d="M95.3001 25.3043C94.9101 25.3043 94.5401 25.1643 94.2501 24.8943C93.6201 24.3143 93.5701 23.3244 94.1501 22.6944C94.7101 22.0844 95.7401 22.0443 96.3501 22.5943C96.6601 22.8743 96.8401 23.2643 96.8601 23.6743C96.8801 24.0943 96.7301 24.4943 96.4501 24.7943C96.1601 25.1143 95.7401 25.3043 95.3001 25.3043ZM95.3001 22.9343C95.0701 22.9343 94.8501 23.0344 94.7001 23.1944C94.4001 23.5244 94.4201 24.0443 94.7501 24.3443C95.0701 24.6343 95.6101 24.6143 95.9001 24.2943C96.0501 24.1343 96.1201 23.9243 96.1101 23.7043C96.1001 23.4843 96.0101 23.2843 95.8401 23.1343C95.6901 22.9943 95.4901 22.9243 95.2901 22.9243" fill="#ED1C24"/>
<path d="M107.59 37.7143C108.58 38.6243 108.65 40.1743 107.74 41.1643C106.83 42.1643 105.28 42.2243 104.29 41.3143C103.29 40.4043 103.23 38.8543 104.14 37.8643C105.05 36.8643 106.6 36.7943 107.59 37.7143Z" fill="#ED1C24"/>
<path d="M101.11 28.2545C102.34 29.3845 102.43 31.3045 101.3 32.5345C100.17 33.7745 98.2497 33.8545 97.0197 32.7245C95.7897 31.5945 95.6997 29.6745 96.8297 28.4445C97.9597 27.2145 99.8797 27.1245 101.11 28.2545Z" fill="#ED1C24"/>
<path d="M101.76 47.0344C102.27 47.5044 102.3 48.2944 101.84 48.7944C101.37 49.3044 100.59 49.3344 100.08 48.8744C99.5697 48.4044 99.5397 47.6144 99.9997 47.1144C100.47 46.6044 101.26 46.5744 101.76 47.0344Z" fill="#ED1C24"/>
<path d="M107.32 28.2343C107.83 28.6943 107.86 29.4943 107.4 29.9943C106.94 30.5043 106.15 30.5443 105.64 30.0743C105.13 29.6143 105.1 28.8144 105.56 28.3144C106.03 27.8044 106.82 27.7743 107.32 28.2343Z" fill="#ED1C24"/>
<path d="M106.38 18.7244C106.74 19.0544 106.77 19.6144 106.43 19.9744C106.1 20.3344 105.54 20.3644 105.18 20.0344C104.82 19.7044 104.79 19.1444 105.12 18.7844C105.45 18.4244 106.01 18.4044 106.38 18.7344" fill="#ED1C24"/>
<path d="M122.45 0.224411C122.81 0.554412 122.84 1.11441 122.5 1.47441C122.17 1.83441 121.61 1.86441 121.25 1.53441C120.89 1.20441 120.86 0.644409 121.19 0.284409C121.52 -0.075591 122.08 -0.0955788 122.44 0.234421" fill="#ED1C24"/>
<path d="M98.4899 49.3343C99.2099 49.9943 99.2599 51.1143 98.5999 51.8343C97.9399 52.5543 96.8199 52.6044 96.0899 51.9444C95.3699 51.2844 95.3199 50.1644 95.9799 49.4344C96.6399 48.7144 97.7599 48.6643 98.4899 49.3243" fill="#ED1C24"/>
<path d="M100.89 45.3144C100.46 45.3144 100.04 45.1544 99.7301 44.8644C99.3901 44.5544 99.1901 44.1344 99.1701 43.6744C99.1501 43.2144 99.3101 42.7744 99.6201 42.4344C100.23 41.7644 101.38 41.7044 102.05 42.3244C102.75 42.9644 102.8 44.0544 102.16 44.7544C101.83 45.1144 101.37 45.3144 100.89 45.3144ZM100.89 42.6144C100.62 42.6144 100.35 42.7344 100.17 42.9344C99.9901 43.1244 99.9001 43.3744 99.9101 43.6344C99.9201 43.8944 100.03 44.1344 100.23 44.3144C100.62 44.6644 101.26 44.6344 101.61 44.2544C101.97 43.8544 101.95 43.2344 101.55 42.8744C101.37 42.7044 101.14 42.6144 100.89 42.6144Z" fill="#ED1C24"/>
<path d="M100.22 36.2746C100.77 36.7746 100.81 37.6346 100.3 38.1846C99.7999 38.7346 98.9399 38.7746 98.3899 38.2746C97.8399 37.7746 97.7999 36.9145 98.3099 36.3645C98.8099 35.8145 99.6699 35.7746 100.22 36.2846" fill="#ED1C24"/>
<path d="M96.4501 45.6943C96.8201 46.0343 96.8401 46.5943 96.5101 46.9643C96.1701 47.3343 95.6001 47.3543 95.2401 47.0243C94.8701 46.6843 94.8501 46.1243 95.1901 45.7543C95.5201 45.3843 96.0901 45.3643 96.4601 45.6943" fill="#ED1C24"/>
<path d="M92.7797 32.8544C93.1497 33.1944 93.1697 33.7645 92.8397 34.1245C92.4997 34.4845 91.9297 34.5144 91.5697 34.1744C91.1997 33.8444 91.1797 33.2745 91.5097 32.9045C91.8397 32.5345 92.4197 32.5144 92.7797 32.8544Z" fill="#ED1C24"/>
<path d="M104.99 44.3844C105.29 44.6544 105.31 45.1244 105.03 45.4144C104.76 45.7144 104.3 45.7344 104 45.4544C103.7 45.1844 103.68 44.7244 103.95 44.4244C104.22 44.1244 104.69 44.1044 104.98 44.3744" fill="#ED1C24"/>
<path d="M80.3897 13.7044C80.6897 13.9744 80.7097 14.4444 80.4297 14.7344C80.1597 15.0344 79.6997 15.0544 79.3997 14.7744C79.0997 14.5044 79.0797 14.0444 79.3497 13.7444C79.6197 13.4444 80.0897 13.4244 80.3797 13.6944" fill="#ED1C24"/>
<path d="M116.04 36.8045C116.34 37.0745 116.36 37.5445 116.08 37.8345C115.81 38.1345 115.35 38.1545 115.05 37.8745C114.75 37.6045 114.73 37.1445 115 36.8445C115.27 36.5445 115.74 36.5245 116.03 36.7945" fill="#ED1C24"/>
<path d="M89.64 21.8144C90.01 22.1544 90.03 22.7244 89.7 23.0844C89.36 23.4444 88.79 23.4744 88.43 23.1344C88.07 22.8044 88.04 22.2344 88.37 21.8644C88.71 21.4944 89.28 21.4744 89.64 21.8044" fill="#ED1C24"/>
<path d="M84.91 28.8643C85.28 29.2043 85.3 29.7643 84.97 30.1343C84.63 30.5043 84.06 30.5244 83.7 30.1944C83.34 29.8644 83.31 29.2943 83.65 28.9243C83.99 28.5643 84.55 28.5343 84.92 28.8743" fill="#ED1C24"/>
<path d="M119.44 7.50435C119.81 7.84435 119.83 8.41436 119.5 8.77436C119.16 9.14436 118.59 9.16436 118.23 8.83436C117.86 8.50436 117.84 7.93435 118.18 7.56435C118.51 7.19435 119.08 7.17435 119.45 7.50435" fill="#ED1C24"/>
<path d="M103.92 50.9843C104.29 51.3243 104.31 51.8844 103.98 52.2544C103.64 52.6244 103.07 52.6444 102.71 52.3144C102.34 51.9744 102.32 51.4143 102.66 51.0443C102.99 50.6743 103.56 50.6543 103.93 50.9843" fill="#ED1C24"/>
<path d="M84.5101 5.98433C84.8801 6.32433 84.9001 6.88432 84.5701 7.25432C84.2301 7.62432 83.6601 7.64432 83.3001 7.31432C82.9401 6.98432 82.9101 6.41433 83.2501 6.04433C83.5801 5.67433 84.1501 5.65433 84.5201 5.98433" fill="#ED1C24"/>
<path d="M112.81 31.1145C113.63 31.8645 113.69 33.1445 112.94 33.9645C112.18 34.7845 110.91 34.8445 110.09 34.0845C109.27 33.3345 109.21 32.0545 109.96 31.2345C110.71 30.4145 111.99 30.3545 112.81 31.1045" fill="#ED1C24"/>
<path d="M125.98 12.6745C126.49 13.1345 126.52 13.9245 126.06 14.4345C125.59 14.9445 124.81 14.9845 124.3 14.5145C123.79 14.0445 123.76 13.2545 124.22 12.7545C124.69 12.2445 125.48 12.2145 125.98 12.6745Z" fill="#ED1C24"/>
<path d="M86.6098 15.1643C87.1198 15.6243 87.1498 16.4243 86.6898 16.9243C86.2298 17.4343 85.4398 17.4743 84.9298 17.0043C84.4198 16.5443 84.3898 15.7443 84.8498 15.2443C85.3198 14.7343 86.1098 14.7043 86.6098 15.1643Z" fill="#ED1C24"/>
<path d="M106.98 47.0644C107.64 47.6644 107.69 48.6944 107.08 49.3444C106.48 50.0044 105.45 50.0544 104.8 49.4444C104.14 48.8444 104.09 47.8244 104.7 47.1644C105.3 46.5044 106.32 46.4544 106.98 47.0644Z" fill="#ED1C24"/>
<path d="M115.95 20.1044C116.61 20.7044 116.65 21.7344 116.05 22.3844C115.45 23.0444 114.42 23.0844 113.77 22.4844C113.11 21.8844 113.07 20.8544 113.67 20.2044C114.27 19.5444 115.29 19.4944 115.95 20.1044Z" fill="#ED1C24"/>
<path fill-rule="evenodd" clip-rule="evenodd" d="M94.1297 7.40445C94.0797 7.17445 93.7097 7.10445 93.6297 7.43445C93.5297 7.85445 93.2897 7.93445 93.0897 7.69445C92.9797 7.56445 92.9997 7.08445 93.0097 6.83445C93.0097 6.55445 93.0297 6.20445 92.9897 5.96445C92.9397 5.66445 92.8997 5.13445 93.0397 4.77445C94.2697 1.57445 103.48 -1.19555 105.29 0.884449C105.61 1.25445 105.69 1.45446 105.85 1.59446C106.16 1.88446 106.79 2.39445 106.89 2.58445C106.98 2.75445 106.88 3.04446 106.74 3.09446C106.62 3.13446 106.47 2.99445 106.28 2.99445C105.69 2.99445 106.16 3.75444 106.02 4.03444C105.97 4.15444 105.83 4.22444 105.75 4.20444C105.56 4.15444 105.61 3.97445 105.38 3.91445C105.15 3.85445 105.02 4.05444 105.01 4.31444C105.01 4.45444 105.23 5.15445 104.77 5.07445C104.51 5.03445 104.47 4.66445 104.16 4.65445C103.57 4.63445 104.23 5.84445 103.62 5.74445C103.36 5.70445 103.27 5.25446 102.96 5.34446C102.89 5.36446 102.83 5.41445 102.8 5.47445C102.66 5.73445 102.91 6.30445 102.51 6.35445C102.36 6.37445 102.28 6.36444 102.13 6.11444C102.04 5.97444 101.94 5.92445 101.87 5.91445C101.62 5.88445 101.5 6.08446 101.52 6.34446C101.52 6.50446 101.66 6.81445 101.4 6.91445C101.05 7.05445 100.97 6.45445 100.67 6.37445C100.61 6.36445 100.48 6.36445 100.39 6.46445C100.15 6.72445 100.54 7.27444 100.11 7.36444C99.7397 7.44444 99.8097 6.82445 99.4097 6.76445C99.2897 6.74445 99.1297 6.77444 99.0597 6.92444C98.9497 7.16444 99.1597 7.56445 98.8797 7.66445C98.4897 7.81445 98.3497 7.10444 98.0597 7.03444C97.5197 6.89444 97.8397 7.84445 97.4497 7.88445C97.0897 7.91445 96.7797 6.89445 96.4497 7.47445C96.3497 7.65445 96.3897 8.03444 96.1297 8.11444C95.6897 8.25445 95.6497 7.43446 95.2597 7.34446C94.8597 7.25446 94.9597 8.07446 94.6897 8.09446C94.4697 8.11446 94.2497 7.85445 94.1497 7.40445" fill="#ED1C24"/>
<path fill-rule="evenodd" clip-rule="evenodd" d="M101.53 10.6343C101.63 11.1443 101.29 11.6343 100.79 11.7343C100.28 11.8343 99.7801 11.5043 99.6801 10.9843C99.5801 10.4743 99.9201 9.98429 100.43 9.88429C100.94 9.78429 101.44 10.1143 101.53 10.6343Z" fill="#ED1C24"/>
<path fill-rule="evenodd" clip-rule="evenodd" d="M86.96 168.794C83.96 167.044 84.84 160.194 85.67 157.514C86.26 155.614 87.5499 152.394 87.5399 145.684C87.5399 138.494 85.25 124.554 85.15 123.694C84.97 122.254 84.63 120.814 85.39 120.484C84.45 119.764 85.2 102.014 86.84 101.324C86.01 101.324 86.3 99.3444 86.48 97.9744C86.8 95.4644 88.95 89.5344 90.81 83.1144C91.63 80.2444 92.93 75.9244 93.35 72.7144C93.74 69.7344 93.66 65.9344 93.66 64.2944C93.1 63.7344 92.9 63.4744 92.92 62.5744C92.95 61.6444 94.09 59.3844 94.09 59.0644C94.09 58.7444 94.09 58.3544 93.67 57.9644C93.22 57.5444 93.25 56.8044 93.45 56.2044C93.68 55.4644 94.55 55.2544 95.07 55.1244C95.53 55.0144 97.8299 54.7744 100.22 54.7744C102.61 54.7744 104.93 55.0144 105.38 55.1244C105.88 55.2544 106.76 55.4644 106.99 56.2044C107.19 56.8044 107.21 57.5444 106.76 57.9644C106.35 58.3444 106.35 58.7344 106.35 59.0644C106.35 59.3944 107.5 61.6444 107.52 62.5744C107.54 63.4744 107.33 63.7244 106.78 64.2944C106.78 65.9344 106.7 69.7344 107.09 72.7144C107.51 75.9244 108.81 80.2444 109.63 83.1144C111.49 89.5444 113.64 95.4644 113.96 97.9744C114.13 99.3444 114.43 101.324 113.6 101.324C115.23 102.014 115.99 119.764 115.05 120.484C115.81 120.814 115.47 122.254 115.29 123.694C115.19 124.554 112.91 138.494 112.9 145.684C112.9 152.394 114.19 155.614 114.78 157.514C115.61 160.194 116.5 167.044 113.49 168.794C111.69 169.854 105.71 170.734 100.23 170.734C94.75 170.734 88.76 169.844 86.96 168.794Z" fill="#ED1C24"/>
<path fill-rule="evenodd" clip-rule="evenodd" d="M101.63 106.164H100.24L99.5298 107.634H100.93L101.64 106.164H101.63ZM99.1498 106.164H97.6298C97.5698 106.274 97.5498 106.424 97.4798 106.504C95.9498 104.554 93.8598 108.684 93.1898 109.924C92.5198 111.164 91.1898 113.814 90.4398 113.264C89.7598 112.754 90.4098 110.584 90.8498 109.524C91.2398 108.614 92.3098 106.834 92.8298 107.134C93.0298 107.254 92.9998 107.564 92.9298 107.724C92.1898 107.794 91.8798 109.004 92.2498 109.314C92.6598 109.644 93.1098 108.764 93.2998 107.834C93.4298 107.234 93.3098 106.684 92.9398 106.504C91.8398 105.964 90.6998 107.934 90.4998 108.314C90.2898 108.704 89.8298 109.694 89.2498 109.864C89.4898 108.834 89.7798 107.384 89.0898 107.154C88.2398 106.884 87.4998 109.034 87.2398 109.944C86.5498 112.374 86.8498 114.124 87.2998 114.224C87.8498 114.334 88.7398 111.814 89.1298 110.394C89.2598 110.354 89.4398 110.264 89.5698 110.154C89.1298 111.534 89.1098 112.374 89.1098 112.834C89.1098 113.714 89.5398 114.314 89.7998 114.384C90.8598 114.654 91.6398 113.284 92.2798 112.414C92.0698 113.674 92.2598 114.314 92.7398 114.464C93.4998 114.694 94.1698 113.844 94.5898 113.234C94.5698 113.724 94.6698 114.304 94.9998 114.464C95.3898 114.654 95.9098 114.354 96.1898 114.144C97.0298 113.474 98.1898 111.844 99.0598 110.254H98.5298C97.4298 112.274 96.5698 112.924 96.3398 112.824C96.2698 112.794 96.1798 112.634 96.2898 112.344C96.3498 112.154 99.1398 106.144 99.1398 106.144M87.6998 112.954C87.5898 112.954 87.3498 112.064 88.0998 109.644C88.2398 110.024 88.4698 110.254 88.8098 110.364C88.4998 111.654 87.9798 112.954 87.6998 112.954ZM88.9398 109.884C88.6198 109.854 88.3798 109.574 88.3598 109.374C88.2498 108.494 88.8298 107.774 89.0098 107.824C89.3598 107.924 89.1198 109.144 88.9398 109.884ZM95.1298 111.584C94.8098 112.174 94.2798 113.004 93.9198 112.924C93.5798 112.844 93.7198 111.954 94.0898 110.974C94.3998 110.194 95.1098 108.894 95.8398 107.794C96.5098 106.764 97.1198 106.584 97.2098 107.054C97.2098 107.054 95.4798 110.914 95.1298 111.594M98.2098 119.144C97.1698 118.274 93.7698 116.704 92.9198 118.714C90.9998 115.334 87.5498 117.374 86.9198 117.074C85.7298 116.504 85.3798 113.664 85.7398 110.764C85.9498 109.124 86.4998 107.004 87.2298 105.524C87.8098 104.364 88.5998 103.694 88.9598 103.894C89.2698 104.064 89.3398 104.714 89.2598 105.144C89.0998 105.994 88.7798 106.714 88.5098 106.644C88.1798 106.544 88.4198 105.234 88.9398 105.064C89.0198 104.854 89.0398 104.614 88.8098 104.544C88.5098 104.434 88.0998 105.024 87.6698 105.864C87.1098 106.924 86.5398 109.184 86.3598 110.924C86.0198 114.194 86.2398 116.114 87.1698 116.484C88.2798 116.944 90.1298 115.284 93.3098 115.864C95.8398 116.324 98.1398 118.964 98.2098 119.154M114.51 113.554C114.12 114.994 113.68 115.624 113.59 115.634C113.55 115.634 113.49 115.484 113.55 115.254C113.85 113.904 114.42 111.314 114.56 110.384L114.04 110.424C114.03 110.514 113.98 110.714 113.95 110.774C113.31 109.034 112.13 112.224 111.76 113.334C111.45 114.294 110.93 116.344 110.54 116.214C110.36 116.154 110.51 114.774 110.83 112.954C111.85 111.724 112.65 109.684 112.97 108.484C113.06 108.134 113.14 107.764 113.21 107.424C113.12 107.464 113.01 107.524 112.91 107.554C112.85 107.864 112.79 108.164 112.71 108.414C112.46 109.324 111.77 111.054 110.95 112.254C111.58 108.704 112.69 104.084 113.12 104.284C113.23 104.334 113.24 104.874 113.18 105.574C113.26 105.524 113.36 105.444 113.44 105.354C113.46 104.354 113.39 103.704 113.05 103.664C112.36 103.604 111.14 107.334 110.38 111.004C110.22 111.804 110.05 112.584 109.91 113.324C109.76 113.414 109.62 113.484 109.47 113.514C109.71 112.484 109.93 110.784 109.26 110.494C108.24 110.034 107.06 112.164 106.65 113.164C105.32 116.334 105.49 118.024 106.3 118.184C107.82 118.514 109 115.344 109.37 113.924C109.52 113.894 109.68 113.844 109.83 113.774C109.46 115.794 109.33 117.334 109.99 117.584C110.49 117.774 111 116.504 111.24 115.814C111.2 116.804 111.42 117.094 111.63 117.214C111.98 117.384 112.54 116.404 112.7 115.924C112.67 116.324 112.74 116.904 112.95 116.994C113.54 117.244 114.45 114.744 114.74 113.534H114.51V113.554ZM107.4 116.574C106.94 116.474 106.9 114.934 108.05 112.744C108.19 113.194 108.59 113.864 109.07 113.914C108.76 115.144 107.89 116.674 107.4 116.574ZM109.19 113.514C108.67 113.484 108.44 112.714 108.39 112.424C108.26 111.624 108.97 110.914 109.3 111.154C109.66 111.424 109.37 112.774 109.19 113.504M112.89 114.714C112.73 115.164 112.51 115.834 112.3 115.754C112.14 115.714 112.23 115.044 112.35 114.264C112.45 113.644 112.81 112.554 113.19 111.704C113.58 110.824 113.78 110.824 113.83 111.184C113.83 111.184 113.15 113.994 112.9 114.724M105.08 110.254C103.84 110.454 102.6 112.244 102.39 115.424C102.88 114.734 103.33 114.124 104.03 113.724C104.03 112.754 104.83 110.844 105.55 111.084C106.21 111.304 105.66 113.564 105.05 114.754C104.51 115.814 103.41 117.554 102.34 117.314C101.61 117.154 101.24 116.184 101.26 115.364C101.37 111.584 103.93 107.694 104.76 106.494C105.59 105.284 106.76 104.274 107.52 104.124C107.78 104.074 107.97 104.154 108.1 104.334C106.26 105.304 105.39 108.764 106.54 109.164C107.23 109.414 107.97 108.454 108.38 107.214C108.64 106.434 108.75 105.474 108.57 104.714C108.64 104.704 108.72 104.684 108.79 104.674C109.59 104.634 110.3 105.914 111.06 106.714C111.19 106.254 111.34 105.834 111.48 105.454C110.7 104.834 109.67 103.934 108.71 104.114C108.6 104.134 108.5 104.164 108.39 104.204C108.15 103.754 107.74 103.444 107.09 103.414C106.42 103.374 104.97 104.004 103.83 105.254C101.12 108.224 99.9498 111.204 99.3798 113.574C98.8898 115.624 99.3298 117.754 100.67 118.464C102.09 119.214 103.58 117.864 104.5 116.594C104.9 116.054 105.18 115.444 105.42 114.964C105.66 114.484 106.01 113.504 106.15 112.564C106.33 111.264 106.04 110.104 105.08 110.254ZM108.31 104.814C108.45 105.474 108.31 106.464 108.1 107.034C107.77 107.934 107.3 108.824 106.74 108.754C105.82 108.624 106.82 105.484 108.31 104.814ZM112.68 106.024C113.49 106.014 114.04 105.214 114.39 103.904C114.26 104.934 113.99 107.504 112.31 107.394C112.44 106.894 112.56 106.434 112.68 106.014M114.81 116.524C114.59 116.584 114.39 116.404 114.39 115.944C114.39 115.484 114.58 115.174 114.79 115.114C115.01 115.044 115.17 115.234 115.18 115.704C115.18 116.164 115.02 116.464 114.81 116.534M114.81 115.264C114.64 115.314 114.51 115.574 114.51 115.914C114.51 116.254 114.65 116.434 114.81 116.384C114.97 116.344 115.1 116.074 115.1 115.734C115.1 115.404 114.96 115.214 114.81 115.264ZM114.74 116.234L114.65 116.264V115.484L114.81 115.434C114.92 115.404 114.99 115.434 114.99 115.614C114.99 115.764 114.95 115.824 114.89 115.854L115.01 116.164L114.89 116.194L114.79 115.894H114.74V116.234ZM114.82 115.744C114.82 115.744 114.88 115.714 114.88 115.624C114.88 115.544 114.83 115.554 114.8 115.564L114.73 115.584V115.774L114.82 115.754V115.744Z" fill="black"/>
</svg>
