<svg width="187" height="171" viewBox="0 0 187 171" fill="none" xmlns="http://www.w3.org/2000/svg">
<path d="M131.51 120.584H127.99V105.084L124.65 106.004L123.88 103.084L129.04 101.434L131.51 101.424V120.584Z" fill="#ED1C24"/>
<path d="M143.28 120.854C138.99 120.854 135.99 118.594 135.99 115.364C135.99 113.194 137.04 111.694 139.2 110.714C137.47 109.734 136.63 108.364 136.63 106.544C136.63 103.524 139.49 101.294 143.27 101.294C147.05 101.294 149.91 103.524 149.91 106.494C149.91 108.364 149.07 109.734 147.33 110.714C149.52 111.784 150.55 113.224 150.55 115.224C150.55 118.614 147.62 120.854 143.27 120.854M143.27 112.384C141.03 112.384 139.46 113.494 139.46 115.094C139.46 116.694 141.03 117.834 143.27 117.834C145.51 117.834 147.08 116.734 147.08 115.154C147.08 113.574 145.51 112.394 143.27 112.394M143.27 104.324C141.43 104.324 140.05 105.384 140.05 106.794C140.05 108.384 141.4 109.504 143.27 109.504C145.14 109.504 146.49 108.394 146.49 106.874C146.49 105.354 145.14 104.324 143.27 104.324Z" fill="#ED1C24"/>
<path d="M161.26 120.854C156.97 120.854 153.97 118.594 153.97 115.364C153.97 113.204 155.02 111.694 157.18 110.714C155.45 109.734 154.61 108.364 154.61 106.544C154.61 103.524 157.46 101.294 161.25 101.294C165.04 101.294 167.89 103.524 167.89 106.494C167.89 108.364 167.05 109.734 165.31 110.714C167.51 111.784 168.53 113.224 168.53 115.224C168.53 118.614 165.6 120.854 161.24 120.854M161.24 112.384C159 112.384 157.43 113.494 157.43 115.094C157.43 116.694 159 117.834 161.24 117.834C163.48 117.834 165.05 116.734 165.05 115.154C165.05 113.574 163.48 112.394 161.24 112.394M161.24 104.324C159.4 104.324 158.02 105.384 158.02 106.794C158.02 108.384 159.37 109.504 161.24 109.504C163.11 109.504 164.46 108.394 164.46 106.874C164.46 105.354 163.11 104.324 161.24 104.324Z" fill="#ED1C24"/>
<path d="M179.7 120.904C177.49 120.904 175.75 120.254 174.38 118.914C172.76 117.254 172.06 115.084 172.06 111.634C172.06 105.304 175.27 101.244 180.23 101.244C182.46 101.244 184.2 101.874 186.05 103.364L186.15 103.444L184.23 106.204L184.12 106.124C182.84 105.134 181.73 104.514 180.13 104.514C177.68 104.514 176.03 106.614 175.78 110.014C176.73 109.144 178 108.324 180.1 108.324C184.11 108.324 186.8 110.744 186.8 114.354C186.8 117.964 183.75 120.914 179.7 120.914M179.54 111.344C177.41 111.344 175.86 112.674 175.86 114.514C175.86 116.484 177.41 117.814 179.62 117.814C181.83 117.814 183.24 116.494 183.24 114.544C183.24 112.594 181.72 111.354 179.54 111.354" fill="#ED1C24"/>
<path d="M7.11002 120.884C4.82002 120.884 2.29002 120.064 0.27002 118.474L1.92002 115.974C3.66002 117.284 5.55002 117.964 7.20002 117.964C8.85002 117.964 9.70002 117.294 9.70002 116.224V116.164C9.70002 114.914 7.99002 114.484 6.10002 113.904C3.72002 113.234 1.06002 112.254 1.06002 109.174V109.114C1.06002 106.064 3.59002 104.194 6.80002 104.194C8.81002 104.194 11.01 104.894 12.72 106.024L11.25 108.644C9.69002 107.694 8.04002 107.114 6.70002 107.114C5.26002 107.114 4.44002 107.784 4.44002 108.734V108.794C4.44002 109.954 6.18002 110.444 8.07002 111.054C10.42 111.784 13.08 112.854 13.08 115.754V115.814C13.08 119.204 10.46 120.884 7.10002 120.884" fill="#ED1C24"/>
<path d="M16.2402 98.4744H20.2102V101.984H16.2402V98.4744ZM16.3902 104.454H20.0802V120.574H16.3902V104.454Z" fill="#ED1C24"/>
<path d="M28.5499 120.574H24.8599V104.454H28.5499V106.954C29.5899 105.424 31.0799 104.114 33.5899 104.114C37.2199 104.114 39.3299 106.554 39.3299 110.314V120.574H35.6399V111.414C35.6399 108.914 34.3899 107.474 32.1899 107.474C29.9899 107.474 28.5599 108.974 28.5599 111.474V120.574H28.5499Z" fill="#ED1C24"/>
<path d="M50.6899 120.945C45.8999 120.945 42.3599 117.185 42.3599 112.585C42.3599 107.985 45.8999 104.125 50.7199 104.125C53.7699 104.125 55.6599 105.255 57.1599 106.905L54.8699 109.375C53.7399 108.185 52.5499 107.365 50.6899 107.365C47.9999 107.365 46.0499 109.685 46.0499 112.525C46.0499 115.365 48.0299 117.745 50.8699 117.745C52.6099 117.745 53.8899 116.925 55.0499 115.725L57.2799 117.924C55.6899 119.694 53.8299 120.945 50.6899 120.945Z" fill="#ED1C24"/>
<path d="M67.6698 117.924C69.4698 117.924 70.7498 117.255 72.0298 116.005L74.1998 117.924C72.6698 119.754 70.5698 120.945 67.6098 120.945C62.9398 120.945 59.3398 117.555 59.3398 112.555C59.3398 107.915 62.6098 104.125 67.2198 104.125C72.3498 104.125 74.9398 108.154 74.9398 112.824C74.9398 113.164 74.9098 113.465 74.8798 113.835H63.0398C63.4698 116.455 65.2998 117.924 67.6798 117.924M71.2798 111.395C71.0398 109.015 69.6298 107.155 67.1898 107.155C64.9298 107.155 63.3398 108.895 63.0098 111.395H71.2798Z" fill="#ED1C24"/>
<path d="M93.8201 43.6644C93.0101 43.6644 92.2401 43.3644 91.6401 42.8144C90.3301 41.6144 90.2401 39.5744 91.4401 38.2544C92.0501 37.5844 92.9201 37.2043 93.8201 37.2043C94.6301 37.2043 95.4001 37.5044 96.0001 38.0544C97.3101 39.2544 97.4001 41.2943 96.2001 42.6143C95.5901 43.2843 94.7201 43.6644 93.8201 43.6644ZM93.8201 37.9543C93.1201 37.9543 92.4601 38.2444 91.9901 38.7544C91.0701 39.7644 91.1401 41.3344 92.1401 42.2544C93.1101 43.1444 94.7601 43.0743 95.6501 42.1043C96.5701 41.0943 96.5001 39.5244 95.4901 38.5944C95.0301 38.1744 94.4401 37.9444 93.8201 37.9444" fill="#ED1C24"/>
<path d="M109.77 14.7444C108.96 14.7444 108.19 14.4444 107.6 13.9044C106.97 13.3244 106.59 12.5344 106.56 11.6744C106.52 10.8144 106.82 9.99445 107.4 9.35445C108.01 8.68445 108.88 8.30444 109.78 8.30444C110.59 8.30444 111.36 8.60445 111.95 9.15445C113.26 10.3544 113.35 12.3944 112.15 13.7044C111.54 14.3744 110.67 14.7545 109.77 14.7545M109.77 9.06444C109.08 9.06444 108.41 9.35444 107.94 9.86444C107.49 10.3544 107.26 10.9844 107.29 11.6444C107.32 12.3044 107.6 12.9144 108.09 13.3544C109.06 14.2444 110.7 14.1644 111.59 13.2044C112.51 12.1944 112.44 10.6244 111.44 9.70444C110.98 9.28444 110.39 9.05444 109.77 9.05444" fill="#ED1C24"/>
<path d="M96.8299 15.2843C97.3099 15.7243 97.3399 16.4743 96.8999 16.9643C96.4599 17.4443 95.7099 17.4743 95.2199 17.0343C94.7399 16.5943 94.6999 15.8343 95.1499 15.3543C95.5899 14.8643 96.3399 14.8343 96.8299 15.2743" fill="#ED1C24"/>
<path d="M108.78 26.9545C108.08 26.9545 107.4 26.6945 106.88 26.2145C105.73 25.1645 105.65 23.3745 106.7 22.2345C107.23 21.6545 107.99 21.3245 108.78 21.3245C109.49 21.3245 110.16 21.5845 110.68 22.0645C111.83 23.1145 111.91 24.8945 110.86 26.0445C110.33 26.6245 109.57 26.9545 108.78 26.9545ZM108.78 22.0645C108.2 22.0645 107.64 22.3145 107.25 22.7345C106.48 23.5745 106.54 24.8945 107.38 25.6645C108.19 26.4045 109.56 26.3445 110.31 25.5345C111.08 24.6945 111.02 23.3845 110.18 22.6045C109.8 22.2545 109.3 22.0645 108.78 22.0645Z" fill="#ED1C24"/>
<path d="M94.9002 25.3043C94.5102 25.3043 94.1402 25.1643 93.8502 24.8943C93.2202 24.3143 93.1702 23.3244 93.7502 22.6944C94.3102 22.0844 95.3402 22.0443 95.9502 22.5943C96.2602 22.8743 96.4402 23.2643 96.4602 23.6743C96.4802 24.0943 96.3302 24.4943 96.0502 24.7943C95.7602 25.1143 95.3402 25.3043 94.9002 25.3043ZM94.9002 22.9343C94.6702 22.9343 94.4502 23.0344 94.3002 23.1944C94.0002 23.5244 94.0202 24.0443 94.3502 24.3443C94.6702 24.6343 95.2102 24.6143 95.5002 24.2943C95.6502 24.1343 95.7202 23.9243 95.7102 23.7043C95.7002 23.4843 95.6102 23.2843 95.4402 23.1343C95.2902 22.9943 95.0902 22.9243 94.8902 22.9243" fill="#ED1C24"/>
<path d="M107.19 37.7143C108.18 38.6243 108.25 40.1743 107.34 41.1643C106.43 42.1643 104.88 42.2243 103.89 41.3143C102.89 40.4043 102.83 38.8543 103.74 37.8643C104.65 36.8643 106.2 36.7943 107.19 37.7143Z" fill="#ED1C24"/>
<path d="M100.71 28.2545C101.94 29.3845 102.03 31.3045 100.9 32.5345C99.7698 33.7745 97.8498 33.8545 96.6198 32.7245C95.3898 31.5945 95.2998 29.6745 96.4298 28.4445C97.5598 27.2145 99.4798 27.1245 100.71 28.2545Z" fill="#ED1C24"/>
<path d="M101.36 47.0344C101.87 47.5044 101.9 48.2944 101.44 48.7944C100.97 49.3044 100.19 49.3344 99.6798 48.8744C99.1698 48.4044 99.1398 47.6144 99.5998 47.1144C100.07 46.6044 100.86 46.5744 101.36 47.0344Z" fill="#ED1C24"/>
<path d="M106.92 28.2343C107.43 28.6943 107.46 29.4943 107 29.9943C106.54 30.5043 105.75 30.5443 105.24 30.0743C104.73 29.6143 104.7 28.8144 105.16 28.3144C105.63 27.8044 106.42 27.7743 106.92 28.2343Z" fill="#ED1C24"/>
<path d="M105.98 18.7244C106.34 19.0544 106.37 19.6144 106.03 19.9744C105.7 20.3344 105.14 20.3644 104.78 20.0344C104.42 19.7044 104.39 19.1444 104.72 18.7844C105.05 18.4244 105.61 18.4044 105.98 18.7344" fill="#ED1C24"/>
<path d="M122.05 0.224411C122.41 0.554412 122.44 1.11441 122.1 1.47441C121.77 1.83441 121.21 1.86441 120.85 1.53441C120.49 1.20441 120.46 0.644409 120.79 0.284409C121.12 -0.075591 121.68 -0.0955788 122.04 0.234421" fill="#ED1C24"/>
<path d="M98.09 49.3343C98.81 49.9943 98.86 51.1143 98.2 51.8343C97.54 52.5543 96.42 52.6044 95.69 51.9444C94.97 51.2844 94.92 50.1644 95.58 49.4344C96.24 48.7144 97.36 48.6643 98.09 49.3243" fill="#ED1C24"/>
<path d="M100.49 45.3144C100.06 45.3144 99.6402 45.1544 99.3302 44.8644C98.9902 44.5544 98.7902 44.1344 98.7702 43.6744C98.7502 43.2144 98.9102 42.7744 99.2202 42.4344C99.8302 41.7644 100.98 41.7044 101.65 42.3244C102.35 42.9644 102.4 44.0544 101.76 44.7544C101.43 45.1144 100.97 45.3144 100.49 45.3144ZM100.49 42.6144C100.22 42.6144 99.9502 42.7344 99.7702 42.9344C99.5902 43.1244 99.5002 43.3744 99.5102 43.6344C99.5202 43.8944 99.6302 44.1344 99.8302 44.3144C100.22 44.6644 100.86 44.6344 101.21 44.2544C101.57 43.8544 101.55 43.2344 101.15 42.8744C100.97 42.7044 100.74 42.6144 100.49 42.6144Z" fill="#ED1C24"/>
<path d="M99.82 36.2746C100.37 36.7746 100.41 37.6346 99.9 38.1846C99.4 38.7346 98.54 38.7746 97.99 38.2746C97.44 37.7746 97.4 36.9145 97.91 36.3645C98.41 35.8145 99.27 35.7746 99.82 36.2846" fill="#ED1C24"/>
<path d="M96.0497 45.6943C96.4197 46.0343 96.4397 46.5943 96.1097 46.9643C95.7697 47.3343 95.1998 47.3543 94.8398 47.0243C94.4698 46.6843 94.4497 46.1243 94.7897 45.7543C95.1197 45.3843 95.6898 45.3643 96.0598 45.6943" fill="#ED1C24"/>
<path d="M92.3798 32.8544C92.7498 33.1944 92.7698 33.7645 92.4398 34.1245C92.0998 34.4845 91.5298 34.5144 91.1698 34.1744C90.7998 33.8444 90.7798 33.2745 91.1098 32.9045C91.4398 32.5345 92.0198 32.5144 92.3798 32.8544Z" fill="#ED1C24"/>
<path d="M104.59 44.3844C104.89 44.6544 104.91 45.1244 104.63 45.4144C104.36 45.7144 103.9 45.7344 103.6 45.4544C103.3 45.1844 103.28 44.7244 103.55 44.4244C103.82 44.1244 104.29 44.1044 104.58 44.3744" fill="#ED1C24"/>
<path d="M79.9898 13.7044C80.2898 13.9744 80.3098 14.4444 80.0298 14.7344C79.7598 15.0344 79.2998 15.0544 78.9998 14.7744C78.6998 14.5044 78.6798 14.0444 78.9498 13.7444C79.2198 13.4444 79.6898 13.4244 79.9798 13.6944" fill="#ED1C24"/>
<path d="M115.64 36.8045C115.94 37.0745 115.96 37.5445 115.68 37.8345C115.41 38.1345 114.95 38.1545 114.65 37.8745C114.35 37.6045 114.33 37.1445 114.6 36.8445C114.87 36.5445 115.34 36.5245 115.63 36.7945" fill="#ED1C24"/>
<path d="M89.2401 21.8144C89.6101 22.1544 89.6301 22.7244 89.3001 23.0844C88.9601 23.4444 88.3901 23.4744 88.0301 23.1344C87.6701 22.8044 87.6401 22.2344 87.9701 21.8644C88.3101 21.4944 88.8801 21.4744 89.2401 21.8044" fill="#ED1C24"/>
<path d="M84.5101 28.8643C84.8801 29.2043 84.9001 29.7643 84.5701 30.1343C84.2301 30.5043 83.6601 30.5244 83.3001 30.1944C82.9401 29.8644 82.9101 29.2943 83.2501 28.9243C83.5901 28.5643 84.1501 28.5343 84.5201 28.8743" fill="#ED1C24"/>
<path d="M119.04 7.50435C119.41 7.84435 119.43 8.41436 119.1 8.77436C118.76 9.14436 118.19 9.16436 117.83 8.83436C117.46 8.50436 117.44 7.93435 117.78 7.56435C118.11 7.19435 118.68 7.17435 119.05 7.50435" fill="#ED1C24"/>
<path d="M103.52 50.9843C103.89 51.3243 103.91 51.8844 103.58 52.2544C103.24 52.6244 102.67 52.6444 102.31 52.3144C101.94 51.9744 101.92 51.4143 102.26 51.0443C102.59 50.6743 103.16 50.6543 103.53 50.9843" fill="#ED1C24"/>
<path d="M84.1102 5.98433C84.4802 6.32433 84.5002 6.88432 84.1702 7.25432C83.8302 7.62432 83.2602 7.64432 82.9002 7.31432C82.5402 6.98432 82.5102 6.41433 82.8502 6.04433C83.1802 5.67433 83.7502 5.65433 84.1202 5.98433" fill="#ED1C24"/>
<path d="M112.41 31.1145C113.23 31.8645 113.29 33.1445 112.54 33.9645C111.78 34.7845 110.51 34.8445 109.69 34.0845C108.87 33.3345 108.81 32.0545 109.56 31.2345C110.31 30.4145 111.59 30.3545 112.41 31.1045" fill="#ED1C24"/>
<path d="M125.58 12.6745C126.09 13.1345 126.12 13.9245 125.66 14.4345C125.19 14.9445 124.41 14.9845 123.9 14.5145C123.39 14.0445 123.36 13.2545 123.82 12.7545C124.29 12.2445 125.08 12.2145 125.58 12.6745Z" fill="#ED1C24"/>
<path d="M86.2099 15.1643C86.7199 15.6243 86.7499 16.4243 86.2899 16.9243C85.8299 17.4343 85.0399 17.4743 84.5299 17.0043C84.0199 16.5443 83.9899 15.7443 84.4499 15.2443C84.9199 14.7343 85.7099 14.7043 86.2099 15.1643Z" fill="#ED1C24"/>
<path d="M106.58 47.0644C107.24 47.6644 107.29 48.6944 106.68 49.3444C106.08 50.0044 105.05 50.0544 104.4 49.4444C103.74 48.8444 103.69 47.8244 104.3 47.1644C104.9 46.5044 105.92 46.4544 106.58 47.0644Z" fill="#ED1C24"/>
<path d="M115.55 20.1044C116.21 20.7044 116.25 21.7344 115.65 22.3844C115.05 23.0444 114.02 23.0844 113.37 22.4844C112.71 21.8844 112.67 20.8544 113.27 20.2044C113.87 19.5444 114.89 19.4944 115.55 20.1044Z" fill="#ED1C24"/>
<path fill-rule="evenodd" clip-rule="evenodd" d="M93.7302 7.40445C93.6802 7.17445 93.3102 7.10445 93.2302 7.43445C93.1302 7.85445 92.8902 7.93445 92.6902 7.69445C92.5802 7.56445 92.6002 7.08445 92.6102 6.83445C92.6102 6.55445 92.6302 6.20445 92.5902 5.96445C92.5402 5.66445 92.5002 5.13445 92.6402 4.77445C93.8702 1.57445 103.08 -1.19555 104.89 0.884449C105.21 1.25445 105.29 1.45446 105.45 1.59446C105.76 1.88446 106.39 2.39445 106.49 2.58445C106.58 2.75445 106.48 3.04446 106.34 3.09446C106.22 3.13446 106.07 2.99445 105.88 2.99445C105.29 2.99445 105.76 3.75444 105.62 4.03444C105.57 4.15444 105.43 4.22444 105.35 4.20444C105.16 4.15444 105.21 3.97445 104.98 3.91445C104.75 3.85445 104.62 4.05444 104.61 4.31444C104.61 4.45444 104.83 5.15445 104.37 5.07445C104.11 5.03445 104.07 4.66445 103.76 4.65445C103.17 4.63445 103.83 5.84445 103.22 5.74445C102.96 5.70445 102.87 5.25446 102.56 5.34446C102.49 5.36446 102.43 5.41445 102.4 5.47445C102.26 5.73445 102.51 6.30445 102.11 6.35445C101.96 6.37445 101.88 6.36444 101.73 6.11444C101.64 5.97444 101.54 5.92445 101.47 5.91445C101.22 5.88445 101.1 6.08446 101.12 6.34446C101.12 6.50446 101.26 6.81445 101 6.91445C100.65 7.05445 100.57 6.45445 100.27 6.37445C100.21 6.36445 100.08 6.36445 99.9902 6.46445C99.7502 6.72445 100.14 7.27444 99.7102 7.36444C99.3402 7.44444 99.4102 6.82445 99.0102 6.76445C98.8902 6.74445 98.7302 6.77444 98.6602 6.92444C98.5502 7.16444 98.7602 7.56445 98.4802 7.66445C98.0902 7.81445 97.9502 7.10444 97.6602 7.03444C97.1202 6.89444 97.4402 7.84445 97.0502 7.88445C96.6902 7.91445 96.3802 6.89445 96.0502 7.47445C95.9502 7.65445 95.9902 8.03444 95.7302 8.11444C95.2902 8.25445 95.2502 7.43446 94.8602 7.34446C94.4602 7.25446 94.5602 8.07446 94.2902 8.09446C94.0702 8.11446 93.8502 7.85445 93.7502 7.40445" fill="#ED1C24"/>
<path fill-rule="evenodd" clip-rule="evenodd" d="M101.13 10.6343C101.23 11.1443 100.89 11.6343 100.39 11.7343C99.8802 11.8343 99.3802 11.5043 99.2802 10.9843C99.1802 10.4743 99.5202 9.98429 100.03 9.88429C100.54 9.78429 101.04 10.1143 101.13 10.6343Z" fill="#ED1C24"/>
<path fill-rule="evenodd" clip-rule="evenodd" d="M86.5601 168.794C83.5601 167.044 84.4401 160.194 85.2701 157.514C85.8601 155.614 87.15 152.394 87.14 145.684C87.14 138.494 84.85 124.554 84.75 123.694C84.57 122.254 84.2301 120.814 84.9901 120.484C84.0501 119.764 84.8001 102.014 86.4401 101.324C85.6101 101.324 85.9 99.3444 86.08 97.9744C86.4 95.4644 88.5501 89.5344 90.4101 83.1144C91.2301 80.2444 92.5301 75.9244 92.9501 72.7144C93.3401 69.7344 93.26 65.9344 93.26 64.2944C92.7 63.7344 92.5001 63.4744 92.5201 62.5744C92.5501 61.6444 93.6901 59.3844 93.6901 59.0644C93.6901 58.7444 93.6901 58.3544 93.2701 57.9644C92.8201 57.5444 92.8501 56.8044 93.0501 56.2044C93.2801 55.4644 94.1501 55.2544 94.6701 55.1244C95.1301 55.0144 97.43 54.7744 99.82 54.7744C102.21 54.7744 104.53 55.0144 104.98 55.1244C105.48 55.2544 106.36 55.4644 106.59 56.2044C106.79 56.8044 106.81 57.5444 106.36 57.9644C105.95 58.3444 105.95 58.7344 105.95 59.0644C105.95 59.3944 107.1 61.6444 107.12 62.5744C107.14 63.4744 106.93 63.7244 106.38 64.2944C106.38 65.9344 106.3 69.7344 106.69 72.7144C107.11 75.9244 108.41 80.2444 109.23 83.1144C111.09 89.5444 113.24 95.4644 113.56 97.9744C113.73 99.3444 114.03 101.324 113.2 101.324C114.83 102.014 115.59 119.764 114.65 120.484C115.41 120.814 115.07 122.254 114.89 123.694C114.79 124.554 112.51 138.494 112.5 145.684C112.5 152.394 113.79 155.614 114.38 157.514C115.21 160.194 116.1 167.044 113.09 168.794C111.29 169.854 105.31 170.734 99.83 170.734C94.35 170.734 88.3601 169.844 86.5601 168.794Z" fill="#ED1C24"/>
<path fill-rule="evenodd" clip-rule="evenodd" d="M101.23 106.164H99.8399L99.1299 107.634H100.53L101.24 106.164H101.23ZM98.7499 106.164H97.2299C97.1699 106.274 97.1499 106.424 97.0799 106.504C95.5499 104.554 93.4599 108.684 92.7899 109.924C92.1199 111.164 90.7899 113.814 90.0399 113.264C89.3599 112.754 90.0099 110.584 90.4499 109.524C90.8399 108.614 91.9099 106.834 92.4299 107.134C92.6299 107.254 92.5999 107.564 92.5299 107.724C91.7899 107.794 91.4799 109.004 91.8499 109.314C92.2599 109.644 92.7099 108.764 92.8999 107.834C93.0299 107.234 92.9099 106.684 92.5399 106.504C91.4399 105.964 90.2999 107.934 90.0999 108.314C89.8899 108.704 89.4299 109.694 88.8499 109.864C89.0899 108.834 89.3799 107.384 88.6899 107.154C87.8399 106.884 87.0999 109.034 86.8399 109.944C86.1499 112.374 86.4499 114.124 86.8999 114.224C87.4499 114.334 88.3399 111.814 88.7299 110.394C88.8599 110.354 89.0399 110.264 89.1699 110.154C88.7299 111.534 88.7099 112.374 88.7099 112.834C88.7099 113.714 89.1399 114.314 89.3999 114.384C90.4599 114.654 91.2399 113.284 91.8799 112.414C91.6699 113.674 91.8599 114.314 92.3399 114.464C93.0999 114.694 93.7699 113.844 94.1899 113.234C94.1699 113.724 94.2699 114.304 94.5999 114.464C94.9899 114.654 95.5099 114.354 95.7899 114.144C96.6299 113.474 97.7899 111.844 98.6599 110.254H98.1299C97.0299 112.274 96.1699 112.924 95.9399 112.824C95.8699 112.794 95.7799 112.634 95.8899 112.344C95.9499 112.154 98.7399 106.144 98.7399 106.144M87.2999 112.954C87.1899 112.954 86.9499 112.064 87.6999 109.644C87.8399 110.024 88.0699 110.254 88.4099 110.364C88.0999 111.654 87.5799 112.954 87.2999 112.954ZM88.5399 109.884C88.2199 109.854 87.9799 109.574 87.9599 109.374C87.8499 108.494 88.4299 107.774 88.6099 107.824C88.9599 107.924 88.7199 109.144 88.5399 109.884ZM94.7299 111.584C94.4099 112.174 93.8799 113.004 93.5199 112.924C93.1799 112.844 93.3199 111.954 93.6899 110.974C93.9999 110.194 94.7099 108.894 95.4399 107.794C96.1099 106.764 96.7199 106.584 96.8099 107.054C96.8099 107.054 95.0799 110.914 94.7299 111.594M97.8099 119.144C96.7699 118.274 93.3699 116.704 92.5199 118.714C90.5999 115.334 87.1499 117.374 86.5199 117.074C85.3299 116.504 84.9799 113.664 85.3399 110.764C85.5499 109.124 86.0999 107.004 86.8299 105.524C87.4099 104.364 88.1999 103.694 88.5599 103.894C88.8699 104.064 88.9399 104.714 88.8599 105.144C88.6999 105.994 88.3799 106.714 88.1099 106.644C87.7799 106.544 88.0199 105.234 88.5399 105.064C88.6199 104.854 88.6399 104.614 88.4099 104.544C88.1099 104.434 87.6999 105.024 87.2699 105.864C86.7099 106.924 86.1399 109.184 85.9599 110.924C85.6199 114.194 85.8399 116.114 86.7699 116.484C87.8799 116.944 89.7299 115.284 92.9099 115.864C95.4399 116.324 97.7399 118.964 97.8099 119.154M114.11 113.554C113.72 114.994 113.28 115.624 113.19 115.634C113.15 115.634 113.09 115.484 113.15 115.254C113.45 113.904 114.02 111.314 114.16 110.384L113.64 110.424C113.63 110.514 113.58 110.714 113.55 110.774C112.91 109.034 111.73 112.224 111.36 113.334C111.05 114.294 110.53 116.344 110.14 116.214C109.96 116.154 110.11 114.774 110.43 112.954C111.45 111.724 112.25 109.684 112.57 108.484C112.66 108.134 112.74 107.764 112.81 107.424C112.72 107.464 112.61 107.524 112.51 107.554C112.45 107.864 112.39 108.164 112.31 108.414C112.06 109.324 111.37 111.054 110.55 112.254C111.18 108.704 112.29 104.084 112.72 104.284C112.83 104.334 112.84 104.874 112.78 105.574C112.86 105.524 112.96 105.444 113.04 105.354C113.06 104.354 112.99 103.704 112.65 103.664C111.96 103.604 110.74 107.334 109.98 111.004C109.82 111.804 109.65 112.584 109.51 113.324C109.36 113.414 109.22 113.484 109.07 113.514C109.31 112.484 109.53 110.784 108.86 110.494C107.84 110.034 106.66 112.164 106.25 113.164C104.92 116.334 105.09 118.024 105.9 118.184C107.42 118.514 108.6 115.344 108.97 113.924C109.12 113.894 109.28 113.844 109.43 113.774C109.06 115.794 108.93 117.334 109.59 117.584C110.09 117.774 110.6 116.504 110.84 115.814C110.8 116.804 111.02 117.094 111.23 117.214C111.58 117.384 112.14 116.404 112.3 115.924C112.27 116.324 112.34 116.904 112.55 116.994C113.14 117.244 114.05 114.744 114.34 113.534H114.11V113.554ZM107 116.574C106.54 116.474 106.5 114.934 107.65 112.744C107.79 113.194 108.19 113.864 108.67 113.914C108.36 115.144 107.49 116.674 107 116.574ZM108.79 113.514C108.27 113.484 108.04 112.714 107.99 112.424C107.86 111.624 108.57 110.914 108.9 111.154C109.26 111.424 108.97 112.774 108.79 113.504M112.49 114.714C112.33 115.164 112.11 115.834 111.9 115.754C111.74 115.714 111.83 115.044 111.95 114.264C112.05 113.644 112.41 112.554 112.79 111.704C113.18 110.824 113.38 110.824 113.43 111.184C113.43 111.184 112.75 113.994 112.5 114.724M104.68 110.254C103.44 110.454 102.2 112.244 101.99 115.424C102.48 114.734 102.93 114.124 103.63 113.724C103.63 112.754 104.43 110.844 105.15 111.084C105.81 111.304 105.26 113.564 104.65 114.754C104.11 115.814 103.01 117.554 101.94 117.314C101.21 117.154 100.84 116.184 100.86 115.364C100.97 111.584 103.53 107.694 104.36 106.494C105.19 105.284 106.36 104.274 107.12 104.124C107.38 104.074 107.57 104.154 107.7 104.334C105.86 105.304 104.99 108.764 106.14 109.164C106.83 109.414 107.57 108.454 107.98 107.214C108.24 106.434 108.35 105.474 108.17 104.714C108.24 104.704 108.32 104.684 108.39 104.674C109.19 104.634 109.9 105.914 110.66 106.714C110.79 106.254 110.94 105.834 111.08 105.454C110.3 104.834 109.27 103.934 108.31 104.114C108.2 104.134 108.1 104.164 107.99 104.204C107.75 103.754 107.34 103.444 106.69 103.414C106.02 103.374 104.57 104.004 103.43 105.254C100.72 108.224 99.5499 111.204 98.9799 113.574C98.4899 115.624 98.9299 117.754 100.27 118.464C101.69 119.214 103.18 117.864 104.1 116.594C104.5 116.054 104.78 115.444 105.02 114.964C105.26 114.484 105.61 113.504 105.75 112.564C105.93 111.264 105.64 110.104 104.68 110.254ZM107.91 104.814C108.05 105.474 107.91 106.464 107.7 107.034C107.37 107.934 106.9 108.824 106.34 108.754C105.42 108.624 106.42 105.484 107.91 104.814ZM112.28 106.024C113.09 106.014 113.64 105.214 113.99 103.904C113.86 104.934 113.59 107.504 111.91 107.394C112.04 106.894 112.16 106.434 112.28 106.014M114.41 116.524C114.19 116.584 113.99 116.404 113.99 115.944C113.99 115.484 114.18 115.174 114.39 115.114C114.61 115.044 114.77 115.234 114.78 115.704C114.78 116.164 114.62 116.464 114.41 116.534M114.41 115.264C114.24 115.314 114.11 115.574 114.11 115.914C114.11 116.254 114.25 116.434 114.41 116.384C114.57 116.344 114.7 116.074 114.7 115.734C114.7 115.404 114.56 115.214 114.41 115.264ZM114.34 116.234L114.25 116.264V115.484L114.41 115.434C114.52 115.404 114.59 115.434 114.59 115.614C114.59 115.764 114.55 115.824 114.49 115.854L114.61 116.164L114.49 116.194L114.39 115.894H114.34V116.234ZM114.42 115.744C114.42 115.744 114.48 115.714 114.48 115.624C114.48 115.544 114.43 115.554 114.4 115.564L114.33 115.584V115.774L114.42 115.754V115.744Z" fill="white"/>
</svg>
