<svg width="188" height="171" viewBox="0 0 188 171" fill="none" xmlns="http://www.w3.org/2000/svg">
<path d="M94.4202 43.6643C93.6102 43.6643 92.8402 43.3643 92.2402 42.8143C90.9302 41.6143 90.8402 39.5743 92.0402 38.2543C92.6502 37.5843 93.5202 37.2043 94.4202 37.2043C95.2302 37.2043 96.0002 37.5043 96.6002 38.0543C97.9102 39.2543 98.0002 41.3043 96.8002 42.6143C96.1902 43.2843 95.3202 43.6643 94.4202 43.6643ZM94.4202 37.9543C93.7202 37.9543 93.0602 38.2443 92.5902 38.7643C91.6702 39.7743 91.7402 41.3443 92.7402 42.2643C93.7102 43.1543 95.3602 43.0843 96.2502 42.1143C97.1702 41.1043 97.1002 39.5343 96.0902 38.6043C95.6302 38.1843 95.0402 37.9543 94.4202 37.9543Z" fill="white"/>
<path d="M110.37 14.7444C109.56 14.7444 108.79 14.4444 108.2 13.8944C107.57 13.3144 107.19 12.5244 107.16 11.6644C107.12 10.8044 107.42 9.98443 108 9.34443C108.61 8.67443 109.48 8.29443 110.38 8.29443C111.19 8.29443 111.96 8.59443 112.55 9.14443C113.86 10.3444 113.95 12.3844 112.75 13.6944C112.14 14.3544 111.27 14.7444 110.37 14.7444ZM110.37 9.05443C109.68 9.05443 109.01 9.34443 108.54 9.85443C108.09 10.3444 107.86 10.9744 107.89 11.6344C107.92 12.2944 108.2 12.9044 108.69 13.3544C109.66 14.2444 111.3 14.1644 112.19 13.2044C113.11 12.1944 113.04 10.6244 112.04 9.70443C111.58 9.28443 110.99 9.05443 110.37 9.05443Z" fill="white"/>
<path d="M97.43 15.2945C97.91 15.7345 97.94 16.4845 97.5 16.9745C97.06 17.4545 96.31 17.4945 95.82 17.0445C95.34 16.6045 95.3 15.8545 95.75 15.3645C96.19 14.8845 96.94 14.8445 97.43 15.2845" fill="white"/>
<path d="M109.38 26.9645C108.68 26.9645 108 26.7045 107.48 26.2245C106.33 25.1745 106.25 23.3945 107.3 22.2445C107.83 21.6645 108.59 21.3245 109.38 21.3245C110.09 21.3245 110.76 21.5845 111.28 22.0645C112.43 23.1145 112.51 24.8945 111.46 26.0445C110.93 26.6245 110.17 26.9645 109.38 26.9645ZM109.38 22.0745C108.8 22.0745 108.24 22.3245 107.85 22.7445C107.08 23.5845 107.14 24.9045 107.98 25.6745C108.79 26.4145 110.16 26.3545 110.91 25.5445C111.68 24.7045 111.62 23.3845 110.78 22.6145C110.4 22.2645 109.9 22.0745 109.38 22.0745Z" fill="white"/>
<path d="M95.5003 25.3144C95.1103 25.3144 94.7403 25.1744 94.4503 24.9044C93.8203 24.3244 93.7703 23.3344 94.3503 22.7044C94.9103 22.0944 95.9403 22.0544 96.5503 22.6044C96.8603 22.8844 97.0403 23.2744 97.0603 23.6844C97.0803 24.1044 96.9303 24.5044 96.6503 24.8044C96.3603 25.1244 95.9403 25.3144 95.5003 25.3144ZM95.5003 22.9444C95.2703 22.9444 95.0503 23.0444 94.9003 23.2044C94.6003 23.5344 94.6203 24.0544 94.9503 24.3544C95.2703 24.6444 95.8103 24.6244 96.1003 24.3044C96.2503 24.1444 96.3203 23.9344 96.3103 23.7144C96.3003 23.4944 96.2103 23.2944 96.0403 23.1444C95.8903 23.0044 95.6903 22.9344 95.4903 22.9344" fill="white"/>
<path d="M107.79 37.7145C108.78 38.6245 108.85 40.1745 107.94 41.1645C107.03 42.1645 105.48 42.2245 104.49 41.3145C103.49 40.4045 103.43 38.8545 104.34 37.8645C105.25 36.8645 106.8 36.8045 107.79 37.7145Z" fill="white"/>
<path d="M101.31 28.2544C102.54 29.3844 102.63 31.3044 101.5 32.5344C100.37 33.7744 98.4499 33.8544 97.2199 32.7244C95.9899 31.5944 95.8999 29.6744 97.0299 28.4444C98.1599 27.2044 100.08 27.1244 101.31 28.2544Z" fill="white"/>
<path d="M101.96 47.0444C102.47 47.5144 102.5 48.3044 102.04 48.8044C101.57 49.3144 100.79 49.3444 100.28 48.8844C99.7699 48.4144 99.7399 47.6244 100.2 47.1244C100.67 46.6144 101.46 46.5844 101.96 47.0444Z" fill="white"/>
<path d="M107.52 28.2444C108.03 28.7044 108.06 29.5044 107.6 30.0044C107.14 30.5144 106.35 30.5544 105.84 30.0844C105.33 29.6244 105.3 28.8244 105.76 28.3244C106.23 27.8144 107.02 27.7844 107.52 28.2444Z" fill="white"/>
<path d="M106.58 18.7344C106.94 19.0644 106.97 19.6244 106.63 19.9844C106.3 20.3444 105.74 20.3744 105.38 20.0344C105.02 19.7044 104.99 19.1444 105.32 18.7844C105.65 18.4244 106.21 18.4044 106.58 18.7344Z" fill="white"/>
<path d="M122.65 0.224417C123.01 0.554417 123.04 1.11442 122.7 1.47442C122.37 1.83442 121.81 1.86442 121.45 1.53442C121.09 1.20442 121.06 0.644416 121.39 0.284416C121.72 -0.0755838 122.28 -0.0955849 122.64 0.234415" fill="white"/>
<path d="M98.6901 49.3344C99.4101 49.9944 99.4601 51.1144 98.8001 51.8444C98.1401 52.5644 97.0201 52.6144 96.2901 51.9544C95.5701 51.2944 95.5201 50.1744 96.1801 49.4444C96.8401 48.7244 97.9601 48.6744 98.6901 49.3344Z" fill="white"/>
<path d="M101.09 45.3144C100.66 45.3144 100.24 45.1544 99.9303 44.8644C99.5903 44.5544 99.3903 44.1344 99.3703 43.6744C99.3503 43.2144 99.5103 42.7744 99.8203 42.4344C100.43 41.7644 101.58 41.7044 102.25 42.3244C102.95 42.9644 103 44.0544 102.36 44.7544C102.03 45.1144 101.57 45.3144 101.09 45.3144ZM101.09 42.6144C100.82 42.6144 100.55 42.7244 100.37 42.9344C100.19 43.1244 100.1 43.3744 100.11 43.6344C100.12 43.8944 100.23 44.1344 100.43 44.3144C100.82 44.6644 101.46 44.6344 101.81 44.2544C102.17 43.8544 102.15 43.2344 101.75 42.8744C101.57 42.7044 101.34 42.6144 101.09 42.6144Z" fill="white"/>
<path d="M100.42 36.2843C100.97 36.7843 101.01 37.6443 100.5 38.1943C100 38.7443 99.1401 38.7843 98.5901 38.2843C98.0401 37.7843 98.0001 36.9243 98.5101 36.3743C99.0101 35.8243 99.8701 35.7843 100.42 36.2943" fill="white"/>
<path d="M96.6503 45.7043C97.0203 46.0443 97.0403 46.6043 96.7103 46.9743C96.3703 47.3443 95.8003 47.3643 95.4403 47.0243C95.0703 46.6943 95.0503 46.1243 95.3903 45.7543C95.7203 45.3843 96.2903 45.3643 96.6603 45.6943" fill="white"/>
<path d="M92.9799 32.8644C93.3499 33.2044 93.3699 33.7744 93.0399 34.1344C92.6999 34.4944 92.1299 34.5245 91.7699 34.1845C91.3999 33.8545 91.3799 33.2845 91.7099 32.9145C92.0399 32.5445 92.6199 32.5245 92.9799 32.8545" fill="white"/>
<path d="M105.19 44.3944C105.49 44.6644 105.51 45.1344 105.23 45.4244C104.96 45.7244 104.5 45.7444 104.2 45.4644C103.9 45.1944 103.88 44.7344 104.15 44.4344C104.42 44.1344 104.89 44.1144 105.18 44.3844" fill="white"/>
<path d="M80.5899 13.7044C80.8899 13.9744 80.9099 14.4444 80.6299 14.7344C80.3599 15.0344 79.8999 15.0544 79.5999 14.7744C79.2999 14.5044 79.2799 14.0444 79.5499 13.7444C79.8199 13.4444 80.2899 13.4244 80.5799 13.6944" fill="white"/>
<path d="M116.24 36.8143C116.54 37.0843 116.56 37.5543 116.28 37.8443C116.01 38.1443 115.55 38.1643 115.25 37.8843C114.95 37.6143 114.93 37.1543 115.2 36.8543C115.47 36.5543 115.94 36.5343 116.23 36.8043" fill="white"/>
<path d="M89.8402 21.8244C90.2102 22.1644 90.2302 22.7344 89.9002 23.0944C89.5602 23.4544 88.9902 23.4844 88.6302 23.1444C88.2702 22.8044 88.2402 22.2444 88.5702 21.8744C88.9102 21.5044 89.4802 21.4844 89.8402 21.8144" fill="white"/>
<path d="M85.1102 28.8645C85.4802 29.2045 85.5002 29.7645 85.1702 30.1345C84.8302 30.5045 84.2602 30.5245 83.9002 30.1945C83.5402 29.8645 83.5102 29.2945 83.8502 28.9245C84.1902 28.5545 84.7502 28.5345 85.1202 28.8645" fill="white"/>
<path d="M119.64 7.51436C120.01 7.85436 120.03 8.41436 119.7 8.78436C119.36 9.15436 118.79 9.17436 118.43 8.84436C118.06 8.51436 118.04 7.94436 118.38 7.57436C118.71 7.20436 119.28 7.18436 119.65 7.51436" fill="white"/>
<path d="M104.12 50.9943C104.49 51.3343 104.51 51.8943 104.18 52.2643C103.84 52.6343 103.27 52.6543 102.91 52.3243C102.54 51.9943 102.52 51.4243 102.86 51.0543C103.19 50.6843 103.76 50.6643 104.13 50.9943" fill="white"/>
<path d="M84.7103 5.99434C85.0803 6.33434 85.1003 6.89434 84.7703 7.26434C84.4303 7.63434 83.8603 7.65434 83.5003 7.32434C83.1403 6.99434 83.1103 6.42434 83.4503 6.05434C83.7803 5.68434 84.3503 5.66434 84.7203 5.99434" fill="white"/>
<path d="M113.01 31.1245C113.83 31.8745 113.89 33.1545 113.14 33.9845C112.38 34.8045 111.11 34.8645 110.29 34.1045C109.47 33.3545 109.41 32.0745 110.16 31.2545C110.91 30.4345 112.19 30.3745 113.01 31.1245Z" fill="white"/>
<path d="M126.18 12.6845C126.69 13.1445 126.72 13.9445 126.26 14.4445C125.79 14.9545 125.01 14.9945 124.5 14.5245C123.99 14.0545 123.96 13.2645 124.42 12.7545C124.89 12.2445 125.68 12.2145 126.18 12.6745" fill="white"/>
<path d="M86.81 15.1645C87.32 15.6245 87.35 16.4245 86.89 16.9245C86.43 17.4345 85.64 17.4645 85.13 17.0045C84.62 16.5445 84.59 15.7445 85.05 15.2345C85.52 14.7245 86.31 14.6945 86.81 15.1545" fill="white"/>
<path d="M107.18 47.0743C107.84 47.6743 107.89 48.7043 107.28 49.3543C106.68 50.0143 105.65 50.0643 105 49.4543C104.34 48.8543 104.29 47.8343 104.9 47.1743C105.5 46.5143 106.52 46.4743 107.18 47.0743Z" fill="white"/>
<path d="M116.15 20.1044C116.81 20.7044 116.85 21.7344 116.25 22.3844C115.65 23.0444 114.62 23.0944 113.97 22.4844C113.31 21.8844 113.27 20.8544 113.87 20.2044C114.47 19.5444 115.49 19.4944 116.15 20.1044Z" fill="white"/>
<path fill-rule="evenodd" clip-rule="evenodd" d="M94.3299 7.41446C94.2799 7.18446 93.9099 7.11446 93.8299 7.44446C93.7299 7.86446 93.4899 7.94446 93.2899 7.70446C93.1799 7.57446 93.1999 7.09446 93.2099 6.84446C93.2099 6.56446 93.2299 6.21446 93.1899 5.97446C93.1399 5.67446 93.0999 5.14446 93.2399 4.78446C94.4699 1.58446 103.68 -1.18554 105.49 0.894459C105.81 1.26446 105.89 1.46446 106.05 1.60446C106.36 1.89446 106.99 2.40446 107.09 2.59446C107.18 2.77446 107.08 3.05446 106.94 3.10446C106.82 3.14446 106.67 3.00446 106.48 3.00446C105.89 3.00446 106.36 3.77446 106.22 4.04446C106.17 4.16446 106.03 4.23446 105.95 4.21446C105.76 4.16446 105.81 3.98446 105.58 3.92446C105.35 3.86446 105.22 4.07446 105.21 4.32446C105.21 4.46446 105.43 5.16446 104.97 5.08446C104.71 5.03446 104.67 4.67446 104.36 4.66446C103.77 4.63446 104.43 5.85446 103.82 5.75446C103.56 5.71446 103.47 5.26446 103.16 5.35446C103.09 5.37446 103.03 5.42446 103 5.48446C102.86 5.74446 103.11 6.31446 102.71 6.36446C102.56 6.38446 102.48 6.38446 102.33 6.12446C102.24 5.98446 102.14 5.93446 102.07 5.92446C101.82 5.89446 101.7 6.09446 101.72 6.35446C101.72 6.51446 101.86 6.82446 101.6 6.92446C101.25 7.06446 101.17 6.46446 100.87 6.38446C100.81 6.37446 100.68 6.37446 100.59 6.47446C100.35 6.73446 100.74 7.28446 100.31 7.37446C99.9399 7.45446 100.01 6.83446 99.6099 6.77446C99.4899 6.75446 99.3299 6.78446 99.2599 6.93446C99.1499 7.17446 99.3599 7.56446 99.0799 7.67446C98.6899 7.82446 98.5499 7.11446 98.2599 7.04446C97.7199 6.90446 98.0399 7.85446 97.6499 7.89446C97.2899 7.92446 96.9799 6.90446 96.6499 7.48446C96.5499 7.66446 96.5899 8.04446 96.3299 8.12446C95.8899 8.26446 95.8499 7.44446 95.4599 7.35446C95.0599 7.26446 95.1599 8.08446 94.8899 8.10446C94.6699 8.12446 94.4499 7.86446 94.3499 7.41446" fill="white"/>
<path fill-rule="evenodd" clip-rule="evenodd" d="M101.73 10.6443C101.83 11.1543 101.49 11.6443 100.99 11.7443C100.48 11.8443 99.9803 11.5143 99.8803 10.9943C99.7803 10.4843 100.12 9.9943 100.63 9.8943C101.14 9.7943 101.64 10.1243 101.73 10.6443Z" fill="white"/>
<path fill-rule="evenodd" clip-rule="evenodd" d="M87.1602 168.804C84.1602 167.054 85.0401 160.204 85.8701 157.514C86.4601 155.614 87.7501 152.394 87.7401 145.684C87.7401 138.494 85.4501 124.554 85.3501 123.694C85.1701 122.254 84.8302 120.814 85.5902 120.484C84.6502 119.764 85.4001 102.014 87.0401 101.324C86.2101 101.324 86.5001 99.3444 86.6801 97.9744C87.0001 95.4644 89.1501 89.5344 91.0101 83.1144C91.8301 80.2444 93.1301 75.9244 93.5501 72.7144C93.9402 69.7344 93.8601 65.9344 93.8601 64.2944C93.3001 63.7344 93.1001 63.4744 93.1201 62.5744C93.1501 61.6444 94.2901 59.3844 94.2901 59.0644C94.2901 58.7444 94.2901 58.3544 93.8701 57.9644C93.4201 57.5444 93.4501 56.8044 93.6501 56.2044C93.8801 55.4644 94.7502 55.2544 95.2702 55.1344C95.7302 55.0244 98.0301 54.7844 100.42 54.7844C102.81 54.7844 105.13 55.0244 105.58 55.1344C106.08 55.2644 106.96 55.4744 107.19 56.2044C107.39 56.8044 107.41 57.5444 106.96 57.9644C106.55 58.3544 106.55 58.7344 106.55 59.0644C106.55 59.3944 107.7 61.6444 107.72 62.5744C107.74 63.4744 107.53 63.7244 106.98 64.2944C106.98 65.9344 106.9 69.7344 107.29 72.7144C107.71 75.9244 109.01 80.2444 109.83 83.1144C111.69 89.5444 113.84 95.4644 114.16 97.9744C114.33 99.3444 114.63 101.324 113.8 101.324C115.43 102.014 116.19 119.764 115.25 120.484C116.01 120.814 115.67 122.254 115.49 123.694C115.39 124.554 113.11 138.494 113.1 145.684C113.1 152.394 114.39 155.614 114.98 157.514C115.81 160.194 116.7 167.044 113.69 168.804C111.89 169.864 105.91 170.744 100.43 170.744C94.9501 170.744 88.9602 169.854 87.1602 168.804Z" fill="white"/>
<path fill-rule="evenodd" clip-rule="evenodd" d="M101.83 106.174H100.44L99.73 107.644H101.13L101.84 106.174H101.83ZM99.35 106.174H97.83C97.77 106.284 97.75 106.434 97.68 106.514C96.15 104.564 94.06 108.694 93.39 109.934C92.72 111.174 91.39 113.824 90.64 113.274C89.96 112.764 90.61 110.594 91.05 109.534C91.44 108.624 92.51 106.844 93.03 107.144C93.23 107.264 93.2 107.574 93.13 107.734C92.39 107.804 92.08 109.014 92.45 109.324C92.86 109.654 93.31 108.774 93.5 107.844C93.63 107.244 93.51 106.694 93.14 106.514C92.04 105.974 90.9 107.944 90.7 108.324C90.49 108.714 90.03 109.704 89.45 109.874C89.69 108.844 89.98 107.394 89.29 107.164C88.44 106.894 87.7 109.044 87.44 109.954C86.75 112.384 87.05 114.134 87.5 114.224C88.05 114.334 88.94 111.814 89.33 110.404C89.46 110.364 89.64 110.274 89.77 110.164C89.33 111.544 89.31 112.384 89.31 112.844C89.31 113.724 89.74 114.324 90 114.394C91.06 114.664 91.84 113.294 92.48 112.424C92.27 113.684 92.46 114.324 92.94 114.474C93.7 114.704 94.37 113.854 94.79 113.254C94.77 113.744 94.87 114.324 95.2 114.484C95.59 114.664 96.11 114.374 96.39 114.164C97.23 113.494 98.39 111.864 99.26 110.274H98.73C97.63 112.294 96.77 112.944 96.54 112.844C96.47 112.814 96.38 112.654 96.49 112.364C96.55 112.174 99.34 106.164 99.34 106.164M87.9 112.964C87.79 112.964 87.55 112.074 88.3 109.654C88.44 110.034 88.67 110.274 89.01 110.374C88.7 111.664 88.18 112.964 87.9 112.964ZM89.14 109.894C88.82 109.864 88.58 109.584 88.56 109.384C88.45 108.504 89.03 107.784 89.21 107.834C89.56 107.934 89.32 109.154 89.14 109.894ZM95.33 111.594C95.01 112.184 94.48 113.024 94.12 112.934C93.78 112.854 93.92 111.964 94.29 110.984C94.6 110.204 95.31 108.904 96.04 107.804C96.71 106.774 97.32 106.594 97.41 107.064C97.41 107.064 95.68 110.924 95.33 111.604M98.41 119.154C97.37 118.284 93.97 116.714 93.12 118.724C91.2 115.344 87.75 117.384 87.12 117.084C85.93 116.514 85.58 113.674 85.94 110.774C86.15 109.134 86.7 107.014 87.43 105.534C88.01 104.374 88.8 103.704 89.16 103.904C89.47 104.074 89.54 104.734 89.46 105.154C89.3 106.004 88.98 106.734 88.71 106.654C88.38 106.554 88.62 105.234 89.14 105.074C89.22 104.864 89.24 104.624 89.01 104.554C88.71 104.444 88.3 105.034 87.87 105.874C87.31 106.924 86.74 109.194 86.56 110.924C86.22 114.204 86.44 116.114 87.37 116.484C88.48 116.944 90.33 115.284 93.51 115.864C96.04 116.324 98.34 118.964 98.41 119.154ZM114.71 113.554C114.32 114.994 113.88 115.624 113.79 115.634C113.75 115.644 113.69 115.484 113.75 115.254C114.05 113.904 114.62 111.314 114.76 110.384L114.24 110.424C114.23 110.514 114.18 110.714 114.15 110.774C113.51 109.034 112.33 112.224 111.96 113.334C111.65 114.294 111.13 116.344 110.74 116.214C110.56 116.154 110.71 114.774 111.03 112.954C112.05 111.724 112.85 109.684 113.17 108.484C113.26 108.134 113.34 107.764 113.41 107.434C113.32 107.474 113.21 107.534 113.11 107.564C113.05 107.874 112.99 108.164 112.91 108.424C112.66 109.334 111.97 111.064 111.15 112.264C111.78 108.714 112.89 104.094 113.32 104.294C113.43 104.344 113.44 104.884 113.38 105.594C113.46 105.534 113.56 105.464 113.64 105.374C113.66 104.374 113.59 103.724 113.25 103.684C112.56 103.624 111.34 107.354 110.58 111.024C110.42 111.834 110.25 112.604 110.11 113.344C109.96 113.434 109.82 113.504 109.67 113.534C109.91 112.494 110.13 110.804 109.46 110.514C108.44 110.054 107.26 112.184 106.85 113.184C105.52 116.354 105.69 118.044 106.5 118.204C108.02 118.534 109.2 115.364 109.57 113.944C109.72 113.914 109.88 113.864 110.03 113.794C109.66 115.814 109.53 117.364 110.19 117.604C110.69 117.794 111.2 116.524 111.44 115.834C111.4 116.824 111.62 117.114 111.83 117.234C112.18 117.404 112.74 116.434 112.9 115.944C112.87 116.344 112.94 116.924 113.15 117.014C113.74 117.264 114.65 114.764 114.94 113.554H114.71ZM107.6 116.574C107.14 116.474 107.1 114.934 108.25 112.744C108.39 113.194 108.79 113.864 109.27 113.914C108.96 115.144 108.09 116.674 107.6 116.574ZM109.39 113.514C108.87 113.474 108.64 112.714 108.59 112.424C108.46 111.624 109.17 110.914 109.5 111.154C109.86 111.424 109.57 112.774 109.39 113.504M113.09 114.704C112.93 115.154 112.71 115.824 112.5 115.744C112.34 115.704 112.43 115.034 112.55 114.254C112.65 113.634 113.01 112.544 113.39 111.694C113.78 110.814 113.98 110.814 114.03 111.174C114.03 111.174 113.35 113.984 113.1 114.714M105.28 110.254C104.04 110.454 102.8 112.244 102.59 115.424C103.08 114.734 103.53 114.124 104.23 113.724C104.23 112.754 105.03 110.844 105.75 111.084C106.41 111.304 105.86 113.574 105.25 114.754C104.71 115.814 103.61 117.554 102.54 117.314C101.81 117.164 101.44 116.184 101.46 115.364C101.57 111.584 104.13 107.694 104.96 106.494C105.79 105.284 106.96 104.274 107.72 104.124C107.98 104.074 108.17 104.164 108.3 104.334C106.46 105.304 105.59 108.764 106.74 109.164C107.43 109.414 108.17 108.454 108.58 107.214C108.84 106.434 108.95 105.474 108.77 104.704C108.84 104.684 108.92 104.674 108.99 104.664C109.79 104.624 110.5 105.904 111.26 106.714C111.39 106.254 111.54 105.834 111.68 105.454C110.9 104.834 109.87 103.934 108.91 104.114C108.8 104.134 108.7 104.164 108.59 104.204C108.35 103.754 107.94 103.444 107.29 103.414C106.62 103.374 105.17 104.004 104.03 105.254C101.32 108.224 100.15 111.204 99.58 113.574C99.09 115.624 99.53 117.754 100.87 118.454C102.29 119.204 103.78 117.854 104.7 116.584C105.1 116.044 105.38 115.434 105.62 114.954C105.86 114.474 106.21 113.494 106.35 112.554C106.53 111.254 106.24 110.094 105.28 110.244M108.51 104.804C108.65 105.464 108.51 106.454 108.3 107.024C107.97 107.924 107.5 108.824 106.94 108.744C106.02 108.614 107.02 105.474 108.51 104.814M112.88 106.024C113.69 106.014 114.24 105.214 114.59 103.904C114.46 104.934 114.19 107.504 112.51 107.394C112.64 106.894 112.76 106.434 112.88 106.024ZM115.01 116.534C114.79 116.604 114.59 116.414 114.59 115.954C114.59 115.494 114.78 115.184 114.99 115.124C115.21 115.054 115.37 115.244 115.38 115.714C115.38 116.174 115.22 116.474 115.01 116.544M115.01 115.274C114.84 115.324 114.71 115.584 114.71 115.924C114.71 116.264 114.85 116.444 115.01 116.394C115.17 116.344 115.3 116.074 115.3 115.744C115.3 115.414 115.16 115.224 115.01 115.274ZM114.94 116.244L114.85 116.274V115.494L115.01 115.444C115.12 115.414 115.19 115.444 115.19 115.624C115.19 115.774 115.15 115.834 115.09 115.864L115.21 116.164L115.09 116.194L114.99 115.894L114.94 115.914V116.244ZM115.03 115.754C115.03 115.754 115.09 115.714 115.09 115.634C115.09 115.554 115.04 115.564 115.01 115.574L114.94 115.594V115.774L115.03 115.754Z" fill="#ED1C24"/>
<path d="M132.11 120.714H128.59V105.214L125.25 106.134L124.48 103.214L129.64 101.564L132.11 101.554V120.714Z" fill="white"/>
<path d="M143.88 120.984C139.59 120.984 136.59 118.724 136.59 115.494C136.59 113.324 137.64 111.824 139.8 110.844C138.07 109.864 137.23 108.494 137.23 106.674C137.23 103.654 140.09 101.424 143.87 101.424C147.65 101.424 150.51 103.654 150.51 106.624C150.51 108.494 149.67 109.864 147.93 110.844C150.12 111.914 151.15 113.354 151.15 115.354C151.15 118.744 148.22 120.984 143.87 120.984M143.87 112.514C141.63 112.514 140.06 113.624 140.06 115.224C140.06 116.824 141.63 117.964 143.87 117.964C146.11 117.964 147.68 116.864 147.68 115.284C147.68 113.704 146.11 112.524 143.87 112.524M143.87 104.454C142.03 104.454 140.65 105.514 140.65 106.924C140.65 108.514 142 109.634 143.87 109.634C145.74 109.634 147.09 108.524 147.09 107.004C147.09 105.484 145.74 104.454 143.87 104.454Z" fill="white"/>
<path d="M161.86 120.984C157.57 120.984 154.57 118.724 154.57 115.494C154.57 113.334 155.62 111.824 157.78 110.844C156.05 109.864 155.21 108.494 155.21 106.674C155.21 103.654 158.06 101.424 161.85 101.424C165.64 101.424 168.49 103.654 168.49 106.624C168.49 108.494 167.65 109.864 165.91 110.844C168.11 111.914 169.13 113.354 169.13 115.354C169.13 118.744 166.2 120.984 161.84 120.984M161.84 112.514C159.6 112.514 158.03 113.624 158.03 115.224C158.03 116.824 159.6 117.964 161.84 117.964C164.08 117.964 165.65 116.864 165.65 115.284C165.65 113.704 164.08 112.524 161.84 112.524M161.84 104.454C160 104.454 158.62 105.514 158.62 106.924C158.62 108.514 159.97 109.634 161.84 109.634C163.71 109.634 165.06 108.524 165.06 107.004C165.06 105.484 163.71 104.454 161.84 104.454Z" fill="white"/>
<path d="M180.3 121.035C178.09 121.035 176.35 120.385 174.98 119.045C173.36 117.385 172.66 115.214 172.66 111.764C172.66 105.434 175.87 101.375 180.83 101.375C183.06 101.375 184.8 102.005 186.65 103.495L186.75 103.575L184.83 106.335L184.72 106.255C183.44 105.265 182.33 104.645 180.73 104.645C178.28 104.645 176.63 106.745 176.38 110.145C177.33 109.275 178.6 108.454 180.7 108.454C184.71 108.454 187.4 110.874 187.4 114.484C187.4 118.094 184.35 121.045 180.3 121.045M180.14 111.475C178.01 111.475 176.46 112.805 176.46 114.645C176.46 116.615 178.01 117.945 180.22 117.945C182.43 117.945 183.84 116.624 183.84 114.674C183.84 112.724 182.32 111.484 180.14 111.484" fill="white"/>
<path d="M7.71012 121.014C5.42012 121.014 2.89012 120.194 0.870117 118.604L2.52012 116.104C4.26012 117.414 6.15012 118.094 7.80012 118.094C9.45012 118.094 10.3001 117.424 10.3001 116.354V116.294C10.3001 115.044 8.59012 114.614 6.70012 114.034C4.32012 113.364 1.66012 112.384 1.66012 109.304V109.244C1.66012 106.194 4.19012 104.324 7.40012 104.324C9.41012 104.324 11.6101 105.024 13.3201 106.154L11.8501 108.774C10.2901 107.824 8.64012 107.244 7.30012 107.244C5.86012 107.244 5.04012 107.914 5.04012 108.864V108.924C5.04012 110.084 6.78012 110.574 8.67012 111.184C11.0201 111.914 13.6801 112.984 13.6801 115.884V115.944C13.6801 119.334 11.0601 121.014 7.70012 121.014" fill="white"/>
<path d="M16.8398 98.6045H20.8098V102.114H16.8398V98.6045ZM16.9898 104.584H20.6798V120.704H16.9898V104.584Z" fill="white"/>
<path d="M29.15 120.704H25.46V104.584H29.15V107.084C30.19 105.554 31.68 104.244 34.19 104.244C37.82 104.244 39.93 106.684 39.93 110.444V120.704H36.24V111.544C36.24 109.044 34.99 107.604 32.79 107.604C30.59 107.604 29.16 109.104 29.16 111.604V120.704H29.15Z" fill="white"/>
<path d="M51.29 121.074C46.5 121.074 42.96 117.314 42.96 112.714C42.96 108.114 46.5 104.254 51.32 104.254C54.37 104.254 56.26 105.384 57.76 107.034L55.47 109.504C54.34 108.314 53.15 107.494 51.29 107.494C48.6 107.494 46.65 109.814 46.65 112.654C46.65 115.494 48.63 117.874 51.47 117.874C53.21 117.874 54.49 117.054 55.65 115.854L57.88 118.054C56.29 119.824 54.43 121.074 51.29 121.074Z" fill="white"/>
<path d="M68.2699 118.054C70.0699 118.054 71.3499 117.384 72.6299 116.134L74.7999 118.054C73.2699 119.884 71.1699 121.074 68.2099 121.074C63.5399 121.074 59.9399 117.684 59.9399 112.684C59.9399 108.044 63.2099 104.254 67.8199 104.254C72.9499 104.254 75.5399 108.284 75.5399 112.954C75.5399 113.294 75.5099 113.594 75.4799 113.964H63.6399C64.0699 116.584 65.8999 118.054 68.2799 118.054M71.8799 111.524C71.6399 109.144 70.2299 107.284 67.7899 107.284C65.5299 107.284 63.9399 109.024 63.6099 111.524H71.8799Z" fill="white"/>
</svg>
