<svg width="158" height="94" viewBox="0 0 158 94" fill="none" xmlns="http://www.w3.org/2000/svg">
<g clip-path="url(#clip0_101_19783)">
<path d="M111.88 63.6801C112.67 64.1301 115.31 64.5101 117.72 64.5101C120.13 64.5101 122.77 64.1201 123.56 63.6801C124.89 62.9301 124.5 59.9901 124.14 58.8401C123.88 58.0301 123.31 56.6501 123.31 53.7701C123.31 50.6901 124.32 44.7201 124.36 44.3501C124.44 43.7301 124.59 43.1201 124.25 42.9801C124.66 42.6701 124.33 35.0601 123.61 34.7801C123.97 34.7801 123.85 33.9301 123.77 33.3401C123.63 32.2601 122.68 29.7201 121.86 26.9701C121.49 25.7401 120.92 23.8901 120.74 22.5201C120.57 21.2401 120.6 19.6101 120.6 18.9001C120.84 18.6601 120.94 18.5501 120.93 18.1701C120.92 17.7701 120.41 16.8001 120.41 16.6601C120.41 16.5201 120.41 16.3601 120.6 16.1901C120.8 16.0101 120.79 15.6901 120.7 15.4301C120.59 15.1201 120.21 15.0301 119.98 14.9701C119.78 14.9201 118.76 14.8201 117.71 14.8201C116.66 14.8201 115.64 14.9201 115.44 14.9701C115.21 15.0301 114.83 15.1201 114.73 15.4301C114.64 15.6901 114.63 16.0101 114.84 16.1901C115.02 16.3501 115.02 16.5201 115.02 16.6601C115.02 16.8001 114.51 17.7701 114.5 18.1701C114.49 18.5501 114.58 18.6601 114.83 18.9001C114.83 19.6101 114.87 21.2401 114.69 22.5201C114.5 23.8901 113.93 25.7401 113.57 26.9701C112.75 29.7201 111.8 32.2601 111.66 33.3401C111.59 33.9301 111.46 34.7801 111.82 34.7801C111.1 35.0701 110.77 42.6701 111.18 42.9801C110.84 43.1201 110.99 43.7401 111.07 44.3501C111.11 44.7201 112.13 50.6901 112.13 53.7701C112.13 56.6401 111.56 58.0301 111.3 58.8401C110.94 59.9901 110.55 62.9201 111.88 63.6801Z" fill="white"/>
<path d="M79.35 0H0V79.35H157.4V0H79.35ZM78.05 40.14V78.04H1.31V50.02C19.46 55.45 31.99 55.27 45.49 48.83C57.37 42.68 67.25 38.28 78.04 40.12L78.05 40.14ZM78.05 34.08C67.77 34.45 61.35 41.59 50.66 44.98C35.63 49.74 14.69 47.05 1.31 39.43V1.3H78.05V34.08ZM156.09 78.05H79.35V1.3H156.09V78.05Z" fill="white"/>
<path d="M7.38006 91.92C6.99006 92.08 6.58006 92.16 6.14006 92.16C5.63006 92.16 5.16006 92.05 4.73006 91.83C4.30006 91.61 3.95006 91.3 3.70006 90.9C3.45006 90.5 3.32006 90.03 3.32006 89.5C3.32006 88.97 3.45006 88.5 3.71006 88.09C3.97006 87.68 4.31006 87.37 4.73006 87.15C5.16006 86.93 5.62006 86.82 6.11006 86.82C6.94006 86.82 7.68006 87.14 8.33006 87.77L9.49006 86.33C9.10006 85.94 8.62006 85.62 8.05006 85.39C7.48006 85.16 6.84006 85.04 6.12006 85.04C5.19006 85.04 4.36006 85.24 3.63006 85.63C2.90006 86.02 2.33006 86.56 1.92006 87.24C1.51006 87.92 1.31006 88.68 1.31006 89.52C1.31006 90.36 1.51006 91.1 1.91006 91.78C2.31006 92.46 2.87006 92.99 3.61006 93.38C4.34006 93.77 5.19006 93.96 6.15006 93.96C6.90006 93.96 7.56006 93.85 8.13006 93.62C8.71006 93.39 9.18006 93.08 9.55006 92.69L8.38006 91.26C8.10006 91.54 7.77006 91.76 7.38006 91.92Z" fill="white"/>
<path d="M17.34 85.64C16.63 85.25 15.82 85.05 14.91 85.05C14 85.05 13.19 85.25 12.48 85.64C11.77 86.03 11.22 86.57 10.83 87.25C10.44 87.93 10.25 88.68 10.25 89.51C10.25 90.34 10.44 91.09 10.83 91.77C11.22 92.45 11.77 92.98 12.48 93.38C13.19 93.77 14 93.97 14.91 93.97C15.82 93.97 16.63 93.77 17.34 93.38C18.05 92.99 18.6 92.45 18.99 91.77C19.38 91.09 19.57 90.34 19.57 89.51C19.57 88.68 19.38 87.93 18.99 87.25C18.6 86.57 18.05 86.03 17.34 85.64ZM17.22 90.88C16.99 91.28 16.67 91.6 16.26 91.83C15.86 92.06 15.41 92.17 14.91 92.17C14.41 92.17 13.98 92.06 13.57 91.83C13.17 91.6 12.85 91.29 12.61 90.88C12.37 90.48 12.25 90.02 12.25 89.51C12.25 89 12.37 88.55 12.61 88.14C12.85 87.74 13.17 87.42 13.57 87.19C13.98 86.96 14.42 86.85 14.91 86.85C15.4 86.85 15.86 86.96 16.26 87.19C16.66 87.42 16.98 87.73 17.22 88.14C17.46 88.55 17.57 89 17.57 89.51C17.57 90.02 17.45 90.47 17.22 90.88Z" fill="white"/>
<path d="M29.97 85.2501H27.55L23.26 89.3201V82.0801H21.29V93.7701H23.26V91.5901L25.06 89.8901L27.92 93.7701H30.25L26.43 88.6001L29.97 85.2501Z" fill="white"/>
<path d="M37.22 85.65C36.54 85.25 35.75 85.04 34.83 85.04C33.91 85.04 33.12 85.24 32.44 85.64C31.76 86.04 31.23 86.58 30.85 87.26C30.48 87.94 30.29 88.69 30.29 89.51C30.29 90.33 30.48 91.11 30.87 91.79C31.26 92.47 31.82 93 32.56 93.39C33.3 93.78 34.17 93.97 35.16 93.97C35.97 93.97 36.68 93.85 37.29 93.6C37.9 93.36 38.39 93.04 38.75 92.66L37.65 91.31C37.3 91.62 36.93 91.85 36.54 92.01C36.15 92.16 35.7 92.24 35.18 92.24C34.41 92.24 33.78 92.06 33.28 91.71C32.78 91.36 32.45 90.86 32.31 90.23H39.26C39.3 90.03 39.32 89.81 39.32 89.55C39.32 88.72 39.14 87.97 38.78 87.28C38.42 86.6 37.9 86.05 37.22 85.65ZM32.32 88.74C32.47 88.13 32.76 87.65 33.21 87.3C33.66 86.95 34.2 86.78 34.84 86.78C35.48 86.78 36.06 86.96 36.5 87.32C36.94 87.68 37.22 88.15 37.34 88.74H32.32Z" fill="white"/>
<path d="M41.8298 91.3701C41.4598 91.3701 41.1498 91.4901 40.9198 91.7201C40.6898 91.9501 40.5698 92.2601 40.5698 92.6301C40.5698 93.0001 40.6898 93.3101 40.9198 93.5401C41.1498 93.7701 41.4598 93.8901 41.8298 93.8901C42.1998 93.8901 42.5098 93.7701 42.7398 93.5401C42.9698 93.3101 43.0898 93.0001 43.0898 92.6301C43.0898 92.2601 42.9698 91.9501 42.7398 91.7201C42.5098 91.4901 42.1998 91.3701 41.8298 91.3701Z" fill="white"/>
<path d="M50.32 91.92C49.93 92.08 49.52 92.16 49.08 92.16C48.57 92.16 48.1 92.05 47.67 91.83C47.24 91.61 46.89 91.3 46.64 90.9C46.39 90.5 46.26 90.03 46.26 89.5C46.26 88.97 46.39 88.5 46.65 88.09C46.91 87.68 47.25 87.37 47.67 87.15C48.1 86.93 48.56 86.82 49.05 86.82C49.88 86.82 50.62 87.14 51.27 87.77L52.43 86.33C52.04 85.94 51.56 85.62 50.99 85.39C50.42 85.16 49.78 85.04 49.06 85.04C48.13 85.04 47.3 85.24 46.57 85.63C45.84 86.02 45.27 86.56 44.86 87.24C44.45 87.92 44.25 88.68 44.25 89.52C44.25 90.36 44.45 91.1 44.85 91.78C45.25 92.46 45.81 92.99 46.55 93.38C47.28 93.77 48.13 93.96 49.09 93.96C49.84 93.96 50.5 93.85 51.07 93.62C51.65 93.39 52.12 93.08 52.49 92.69L51.32 91.26C51.04 91.54 50.71 91.76 50.32 91.92Z" fill="white"/>
<path d="M60.2902 85.64C59.5802 85.25 58.7702 85.05 57.8602 85.05C56.9502 85.05 56.1402 85.25 55.4302 85.64C54.7202 86.03 54.1702 86.57 53.7802 87.25C53.3902 87.93 53.2002 88.68 53.2002 89.51C53.2002 90.34 53.3902 91.09 53.7802 91.77C54.1702 92.45 54.7202 92.98 55.4302 93.38C56.1402 93.77 56.9502 93.97 57.8602 93.97C58.7702 93.97 59.5802 93.77 60.2902 93.38C61.0002 92.99 61.5502 92.45 61.9402 91.77C62.3302 91.09 62.5202 90.34 62.5202 89.51C62.5202 88.68 62.3302 87.93 61.9402 87.25C61.5502 86.57 61.0002 86.03 60.2902 85.64ZM60.1702 90.88C59.9402 91.28 59.6202 91.6 59.2102 91.83C58.8102 92.06 58.3602 92.17 57.8602 92.17C57.3602 92.17 56.9302 92.06 56.5202 91.83C56.1202 91.6 55.8002 91.29 55.5602 90.88C55.3202 90.48 55.2002 90.02 55.2002 89.51C55.2002 89 55.3202 88.55 55.5602 88.14C55.8002 87.74 56.1202 87.42 56.5202 87.19C56.9302 86.96 57.3702 86.85 57.8602 86.85C58.3502 86.85 58.8102 86.96 59.2102 87.19C59.6102 87.42 59.9302 87.73 60.1702 88.14C60.4102 88.55 60.5202 89 60.5202 89.51C60.5202 90.02 60.4002 90.47 60.1702 90.88Z" fill="white"/>
<path d="M76.3 85.45C75.79 85.18 75.2 85.05 74.55 85.05C73.99 85.05 73.44 85.16 72.9 85.38C72.36 85.6 71.9 85.95 71.52 86.43C71.22 86 70.83 85.66 70.36 85.41C69.88 85.17 69.35 85.05 68.77 85.05C68.28 85.05 67.8 85.14 67.33 85.32C66.86 85.5 66.45 85.8 66.11 86.21V85.25H64.23V93.77H66.2V88.81C66.2 88.24 66.4 87.78 66.81 87.42C67.21 87.06 67.72 86.88 68.32 86.88C68.87 86.88 69.3 87.05 69.62 87.38C69.94 87.71 70.1 88.17 70.1 88.75V93.77H72.07V88.81C72.07 88.24 72.27 87.78 72.68 87.42C73.09 87.06 73.58 86.88 74.17 86.88C74.72 86.88 75.15 87.05 75.48 87.38C75.8 87.71 75.96 88.17 75.96 88.75V93.77H77.95V88.35C77.95 87.7 77.8 87.12 77.51 86.62C77.22 86.12 76.81 85.73 76.3 85.46" fill="white"/>
</g>
<defs>
<clipPath id="clip0_101_19783">
<rect width="157.4" height="93.97" fill="white"/>
</clipPath>
</defs>
</svg>
