<svg width="223" height="132" viewBox="0 0 223 132" fill="none" xmlns="http://www.w3.org/2000/svg">
<path d="M54.6897 106.485H51.5385L49.7617 109.371H52.9129L54.6897 106.485Z" fill="#7F7F7F"/>
<path d="M45.4983 131.147C42.9891 129.38 39.9283 128.597 37.1479 128.71C34.3358 128.823 33.0744 130.925 33.0744 130.925C31.804 128.71 29.2993 127.351 25.4248 127.383C19.1722 127.455 12.9602 130.35 8.04582 130.35C3.13143 130.35 -0.110162 127.383 0.00286423 122.106C0.201791 112.862 7.99611 104.528 13.8283 100.778C17.1784 98.622 19.9814 97.9834 21.817 98.1872C23.1552 98.3367 24.7693 99.8857 23.752 102.168C22.2601 105.516 20.203 105.235 20.2753 103.636C20.3205 102.599 21.0077 101.947 21.5276 101.589C21.8577 101.358 22.4409 101.294 22.7438 101.29C23.0377 101.041 23.2637 99.2109 20.8631 99.8132C18.4624 100.416 15.5779 102.78 12.8201 105.824C10.0667 108.867 5.78078 114.642 4.72285 120.693C4.23006 123.501 4.5601 128.619 11.2015 128.561C16.8303 128.511 25.14 124.797 32.767 124.865C35.7283 124.892 38.3053 125.689 40.3172 126.935C42.2974 128.162 44.6664 129.938 45.5028 131.151M47.3067 114.388H48.4596C48.4596 114.388 42.6772 122.763 39.4084 122.383C37.5819 122.17 38.1245 119.914 38.1245 119.914C38.1245 119.914 35.5565 122.922 33.2146 122.319C31.0807 121.771 32.4551 118.216 32.4551 118.216C32.2109 118.315 27.5949 123.533 24.3533 122.283C20.958 120.974 22.7167 116.603 23.3632 115.294C23.9102 114.185 24.5116 113.107 24.5116 113.107C24.5116 113.107 23.9916 113.256 23.6661 113.329C23.3451 113.406 22.8523 113.501 22.8523 113.501C22.8523 113.501 21.2473 116.119 20.2663 117.423C19.2852 118.728 15.1122 123.216 12.6573 122.324C10.1979 121.427 10.8037 117.985 12.1871 115.249C14.4251 110.81 19.7373 105.353 22.9382 106.172C26.1708 106.997 23.4988 112.255 23.4988 112.255C23.4988 112.255 24.1408 112.337 25.6825 111.286C27.9023 109.769 30.8275 105.688 34.0013 106.163C35.4932 106.385 36.8766 107.921 34.9823 110.828C34.372 111.762 33.3547 112.599 32.5726 111.775C32.0888 111.263 32.5093 110.326 33.0202 109.687C33.739 108.781 34.7337 108.904 34.7337 108.904C34.7337 108.904 35.2536 107.699 33.9244 107.721C32.8439 107.739 30.1131 110.262 28.5715 112.808C27.1564 115.145 25.0179 119.131 27.1699 119.996C29.1456 120.793 32.8936 116.327 34.6297 113.99C36.3658 111.653 40.3217 106.349 43.6402 106.132C44.784 106.059 45.4667 107.101 45.4667 107.101L45.8509 106.489H49.1649C49.1649 106.489 42.9123 116.952 42.424 117.745C42.0397 118.365 41.5288 119.76 42.9439 118.977C44.359 118.193 47.3022 114.402 47.3022 114.402M21.5593 113.342C21.5005 113.32 20.6641 113.08 19.8503 112.559C19.0365 112.038 18.6568 111.259 18.6296 111.209C18.598 111.155 18.5663 111.195 18.5347 111.241C18.503 111.286 18.3267 111.512 17.1422 113.252C15.9577 114.991 14.2035 118.555 15.8492 119.167C16.9026 119.556 18.6658 117.704 19.6243 116.481C20.5104 115.344 21.5683 113.596 21.6135 113.492C21.6587 113.388 21.6135 113.365 21.5593 113.342M22.8704 107.78C22.0024 107.119 19.787 108.663 19.7735 110.24C19.7644 111.857 21.7763 112.314 22.034 112.328C22.034 112.328 22.26 112.391 22.3505 112.196C22.4047 112.079 22.6805 111.571 22.988 110.77C23.2954 109.968 23.6797 108.396 22.8704 107.78ZM39.7792 116.49C41.1174 114.651 44.8156 108.201 44.8156 108.201C44.8156 108.201 44.7523 107.749 44.3228 107.73C43.812 107.708 42.962 107.88 41.2621 110.004C39.5622 112.133 38.2556 113.827 37.2971 115.584C36.2482 117.505 35.7871 118.859 36.3929 119.226C36.5647 119.33 36.8179 119.344 37.0258 119.289C37.4237 119.19 37.9346 118.795 38.6399 117.98C38.9699 117.6 39.3451 117.088 39.7837 116.49M101.207 101.317C98.8785 102.816 95.6505 104.179 92.549 103.876C91.7669 104.691 90.9259 105.629 90.0805 106.657C95.4606 107.721 100.167 104.383 102.667 101.539C104.231 99.7634 105 98.1827 105 98.1827C105 98.1827 103.508 99.8314 101.202 101.317M91.9839 125.798C91.5363 126.513 91.0344 127.881 92.5038 127.03C94.2986 125.988 96.853 122.106 96.853 122.106H98.0059C98.0059 122.106 96.4823 124.52 94.4976 126.726C92.6801 128.746 90.4603 130.581 88.9005 130.4C87.074 130.187 87.6482 127.786 87.6482 127.786C87.6482 127.786 85.0305 130.572 83.2311 130.372C80.7942 130.101 81.5357 127.08 81.5357 127.08C81.5357 127.08 78.7824 130.477 76.9016 130.372C73.9539 130.205 74.6908 126.599 75.5136 124.081C75.9522 122.731 76.3591 121.667 76.3591 121.667C76.3591 121.667 76.0652 121.744 75.4368 121.835C75.1113 121.884 74.51 121.916 74.51 121.916C74.51 121.916 73.2847 124.086 72.3037 125.395C71.3226 126.704 67.1497 131.192 64.6947 130.295C62.4252 129.466 63.1711 125.983 64.4958 123.216C66.4218 119.18 71.8471 113.383 74.9756 114.144C78.2172 114.932 75.0525 120.861 75.0525 120.861C75.0525 120.861 75.0525 120.883 75.0887 120.897C75.152 120.924 75.3192 120.938 75.7126 120.865C76.3365 120.748 76.8971 120.512 76.8971 120.512C76.8971 120.512 80.1568 113.673 83.7555 109.193C87.3543 104.718 94.5382 97.0096 97.3594 98.8712C98.0511 99.3286 97.7347 100.909 96.8078 102.825C96.3964 102.957 95.9714 103.07 95.5329 103.16C96.1523 102.028 96.5682 101.077 96.6858 100.416C97.1062 98.1012 91.7216 102.979 87.8742 108.224C84.0268 113.474 81.7165 118.225 81.7165 118.225C81.7165 118.225 82.4942 117.785 83.7013 116.807C84.9627 115.788 86.7033 114.185 88.5931 112.228C89.8635 110.915 91.3554 109.261 92.7525 107.413C93.1684 107.391 93.5798 107.35 93.9776 107.287C92.4179 109.393 90.7768 111.313 89.3888 112.726C87.8561 114.28 86.1924 115.96 84.7456 117.179C82.4489 119.117 80.6722 120.213 80.6722 120.213C80.6722 120.213 77.2995 127.012 79.135 127.451C80.211 127.709 82.3359 124.425 82.3359 124.425C82.3359 124.425 85.1073 120.181 86.7801 118.275C89.0633 115.67 91.0254 114.171 92.9875 114.139C94.1314 114.121 94.8095 115.34 94.8095 115.34L95.3475 114.506H98.6615C98.6615 114.506 92.4767 125.023 91.9839 125.816M73.3526 121.676C73.2938 121.653 72.5749 121.327 71.829 120.702C71.083 120.082 70.7078 119.366 70.6806 119.312C70.649 119.257 70.6173 119.298 70.5857 119.344C70.554 119.389 70.4184 119.507 69.2339 121.246C68.0494 122.985 66.241 126.577 67.8866 127.188C68.94 127.578 70.6897 125.734 71.6436 124.511C72.5297 123.375 73.3616 121.93 73.4068 121.826C73.452 121.721 73.4113 121.699 73.3526 121.676M75.0254 118.741C75.3328 117.939 75.7171 116.368 74.9078 115.752C74.0398 115.095 71.8245 116.635 71.8109 118.211C71.7973 119.828 73.3707 120.557 73.7504 120.657C73.9674 120.716 74.0398 120.707 74.1438 120.535C74.2116 120.421 74.7179 119.543 75.0208 118.741M94.05 116.522C94.1178 116.404 94.1494 116.3 94.1494 116.3C94.1494 116.3 94.0862 115.847 93.6567 115.829C93.1458 115.806 92.445 115.901 90.614 117.935C88.792 119.96 87.6843 121.717 86.7259 123.474C85.677 125.395 85.2565 126.826 85.8578 127.193C86.0296 127.297 86.2828 127.311 86.4908 127.256C86.9022 127.157 87.3588 126.776 88.0686 125.961C88.3987 125.58 88.7649 125.037 89.2034 124.434C90.4105 122.781 93.4487 117.573 94.0545 116.526M101.202 101.344C98.8739 102.843 95.6459 104.207 92.5445 103.903C91.7623 104.718 90.9214 105.656 90.076 106.684C95.456 107.749 100.162 104.41 102.663 101.566C104.227 99.7906 104.995 98.2099 104.995 98.2099C104.995 98.2099 103.504 99.8585 101.198 101.344M86.0839 105.253C83.5385 103.948 81.6804 102.354 79.7454 101.358C77.8962 100.407 76.7027 100.013 75.2152 100.212C74.9666 100.244 74.6004 100.366 74.6004 100.366C74.6004 100.366 75.3735 102.993 72.3173 107.413C69.2203 111.888 66.4127 111.866 65.6125 110.629C64.7761 109.329 65.8521 106.684 67.656 104.329C69.5458 101.865 72.8598 99.8178 72.8598 99.8178C72.8598 99.8178 71.8018 99.1701 69.2022 100.647C66.6704 102.082 62.2986 105.507 58.2613 111.277C54.224 117.047 53.4147 120.222 52.8315 122.722C52.2482 125.223 52.7817 127.895 55.5486 127.895C58.3155 127.895 61.53 123.664 62.4387 122.197C64.1251 119.461 65.2237 115.263 62.927 115.838C61.7922 116.123 60.879 117.382 60.3003 118.587C59.708 119.828 59.4684 121.015 59.4684 121.015C59.4684 121.015 58.5144 121.359 57.2259 122.319C55.942 123.284 55.101 124.203 55.101 124.203C55.101 124.203 55.1101 122.206 56.697 118.972C58.2884 115.738 61.2045 114.257 62.8547 114.121C64.3421 113.999 66.2816 115.267 64.6405 119.941C63.0038 124.616 58.1618 130.286 53.0711 130.363C48.3737 130.431 45.2949 124.425 51.8278 113.949C59.0525 102.359 67.543 98.8032 70.3008 98.4046C73.0587 98.0061 73.9493 99.2244 73.9493 99.2244C73.9493 99.2244 76.2596 98.1555 79.1893 98.3548C82.5529 98.5813 85.1571 100.968 88.5885 102.64C87.6934 103.509 86.8389 104.406 86.0703 105.244M73.5379 100.701C73.5379 100.701 71.5713 101.489 69.2836 104.016C66.9869 106.553 65.6622 109.388 66.6523 110.14C67.0321 110.43 67.9002 110.475 69.4916 109.044C70.7304 107.93 71.9917 106.471 72.8462 104.379C73.8725 101.874 73.5424 100.728 73.5424 100.696" fill="#7F7F7F"/>
<path d="M96.4525 128.094C96.6424 128.203 96.7871 128.348 96.8956 128.529C97.0041 128.715 97.0584 128.914 97.0584 129.131C97.0584 129.349 97.0041 129.553 96.8956 129.734C96.7871 129.915 96.6379 130.064 96.4525 130.168C96.2626 130.277 96.0547 130.327 95.8241 130.327C95.5935 130.327 95.3855 130.273 95.1957 130.168C95.0058 130.06 94.8611 129.915 94.7526 129.734C94.6441 129.553 94.5898 129.349 94.5898 129.131C94.5898 128.914 94.6441 128.715 94.7526 128.529C94.8611 128.343 95.0103 128.198 95.1957 128.094C95.3855 127.985 95.5935 127.936 95.8241 127.936C96.0547 127.936 96.2626 127.99 96.4525 128.094M96.3304 129.974C96.4796 129.892 96.5927 129.774 96.674 129.63C96.7554 129.485 96.7961 129.317 96.7961 129.131C96.7961 128.946 96.7554 128.787 96.674 128.638C96.5927 128.493 96.4751 128.375 96.3259 128.293C96.1767 128.212 96.0094 128.167 95.8196 128.167C95.6297 128.167 95.4624 128.207 95.3177 128.293C95.1685 128.375 95.0555 128.493 94.9696 128.638C94.8882 128.783 94.8475 128.95 94.8475 129.131C94.8475 129.312 94.8882 129.48 94.9696 129.63C95.051 129.774 95.164 129.892 95.3132 129.974C95.4624 130.055 95.6297 130.101 95.8196 130.101C96.0094 130.101 96.1767 130.06 96.3259 129.974M96.2852 129.113C96.2491 129.172 96.1993 129.213 96.136 129.245L96.4209 129.666H96.1044L95.8512 129.272H95.6432V129.666H95.3675V128.579H95.9959C96.0999 128.579 96.1858 128.61 96.2491 128.678C96.3124 128.746 96.344 128.823 96.344 128.923C96.344 128.991 96.3259 129.054 96.2897 129.113M95.6432 129.027H95.9416C95.9778 129.027 96.0049 129.018 96.0275 129C96.0501 128.982 96.0592 128.955 96.0592 128.923C96.0592 128.891 96.0501 128.864 96.0275 128.846C96.0049 128.828 95.9778 128.819 95.9416 128.819H95.6432V129.027V129.027Z" fill="#7F7F7F"/>
<path d="M77.7999 31.1577L95.2004 14.3322C97.3287 12.2691 99.5536 14.3322 99.5536 14.3322L104.378 19.0036L113 10.6764C110.013 7.7795 107.365 5.22467 105.999 3.90985C97.2924 -4.50286 88.6828 3.83502 88.6828 3.83502L66.9292 24.8615C58.1382 33.3597 66.8445 41.7617 66.8445 41.7617L87.5099 61.7406C87.5099 61.7406 88.5982 62.7882 89.9041 61.5375C90.3878 61.0671 90.811 60.6609 90.811 58.5657C90.811 57.1975 90.811 47.9296 90.811 47.9296L77.812 35.38C75.5871 33.2314 77.812 31.179 77.812 31.179" fill="#7F7F7F"/>
<path d="M123.923 22.1514L115.255 30.4461L116.228 31.3831C118.368 33.4381 116.228 35.5677 116.228 35.5677L103.001 48.2598C103.001 48.2598 103.013 56.81 103.001 58.1836C102.977 60.3451 103.451 61.0479 103.986 61.5483C105.299 62.8047 106.441 61.708 106.441 61.708C106.441 61.708 122.878 45.9705 127.169 41.8605C135.838 33.5658 127.084 25.186 127.084 25.186C127.084 25.186 125.832 23.9935 123.923 22.162" fill="#7F7F7F"/>
<path d="M159.39 40.9994C158.922 40.5444 158.513 40.1514 156.408 40.1514C155.039 40.1514 145.765 40.1514 145.765 40.1514L133.216 52.3034C131.075 54.3822 129.005 52.3034 129.005 52.3034L124.421 47.8667L116 56.0059L122.69 62.4802C131.192 70.6919 139.601 62.5629 139.601 62.5629L159.589 43.2333C159.589 43.2333 160.641 42.2198 159.378 40.9994" fill="#484848"/>
<path d="M111.633 36.6481L110.667 35.6985C108.54 33.6159 110.667 31.4577 110.667 31.4577L113.131 29.0513L121.747 20.6451L128.066 14.4727C130.192 12.39 132.416 14.4727 132.416 14.4727L145.586 27.3139C145.586 27.3139 154.455 27.2924 155.881 27.3139C158.128 27.3355 158.853 26.8715 159.373 26.3643C160.678 25.091 159.542 23.9795 159.542 23.9795C159.542 23.9795 143.206 8.03051 138.94 3.8652C130.325 -4.54096 121.626 3.95148 121.626 3.95148C121.626 3.95148 117.711 7.77147 113.144 12.2389C110.268 15.0446 107.126 18.1093 104.528 20.6451L99.8886 25.1774C91.1889 33.6698 99.804 42.076 99.804 42.076L102.958 45.1514L111.645 36.6589L111.633 36.6481Z" fill="#484848"/>
<path d="M38.9348 89.3248H45.2882V86.5208L39.4317 86.438C37.4796 86.438 36.7579 83.9889 36.6278 81.8238C36.4858 79.4694 37.1128 76.5353 39.2661 76.5353H45.2172V73.542H39.4791C38.3788 73.542 37.6926 73.6958 36.6987 74.1336C31.8006 76.3223 31.9663 87.3134 37.0182 88.9698C37.7162 89.2064 38.1776 89.3129 38.923 89.3129" fill="#7F7F7F"/>
<path d="M0 89.3128L5.14654 75.5295C5.14654 75.5295 5.90373 73.5537 7.65474 73.5537C9.40575 73.5537 10.1511 75.5059 10.1511 75.5059L15.6053 89.3247H12.0204L10.7309 85.7516H6.28234L7.25249 82.9713H9.70155L7.70208 77.4935L5.83275 82.9713L5.56064 83.7522L5.06373 85.1245L4.7916 85.9646L3.54935 89.3364H0.0118247L0 89.3128Z" fill="#7F7F7F"/>
<path d="M17.332 73.5068H27.637C27.637 73.5068 31.3165 73.6488 31.6004 78.2393C31.6004 78.2393 31.8607 82.037 28.0156 82.9125L32.0263 89.3251H27.9919L24.2888 83.2202H22.2065L23.1056 80.6883H25.2944C25.2944 80.6883 27.9919 80.6173 28.0037 78.3694C28.0037 76.1215 25.4245 76.1806 25.4245 76.1806H20.7631V89.3251H17.3557V73.5068" fill="#7F7F7F"/>
<path d="M47.0625 89.2777L52.209 75.4944C52.209 75.4944 52.9662 73.5186 54.7173 73.5186C56.4683 73.5186 57.2018 75.4707 57.2018 75.4707L62.656 89.2895H59.0711L57.7815 85.7165H53.333L54.3032 82.948H56.764L54.7646 77.4702L52.8953 82.948L52.6231 83.717L52.1262 85.0895L51.8541 85.9295L50.6118 89.3014H47.0743L47.0625 89.2777Z" fill="#7F7F7F"/>
<path d="M213.848 73.7432H210.145V83.7287C210.145 84.8171 210.239 85.4797 210.641 86.438C211.742 88.9699 214.179 89.5023 216.817 89.5023H221.999V86.9468H217.397C216.202 86.9468 215.22 86.7929 214.475 85.7873C214.001 85.1129 213.836 84.5214 213.836 83.6222V73.7432H213.848Z" fill="#484848"/>
<path d="M181.371 76.299H186.636V89.3251H189.972V76.299H195.332V73.6133H181.371V76.299Z" fill="#484848"/>
<path d="M164.465 89.2894H167.872L167.813 77.7895L174.794 89.3485H179.372V73.5303H175.87V85.3496L169.056 73.5303H164.441L164.465 89.2894Z" fill="#484848"/>
<path d="M155.498 89.194H162.491V86.461H156.196C155.214 86.461 154.564 85.9996 153.937 85.2188C153.333 84.4971 153.097 83.8227 153.097 82.8171H162.491V80.0367H153.049C153.002 78.9246 153.286 78.132 153.972 77.3511C154.67 76.5703 155.392 76.2744 156.409 76.2744H162.408V73.4941H155.912C154.516 73.4941 153.629 73.6716 152.375 74.3696C147.962 76.9015 147.903 85.9996 152.375 88.3777C153.499 88.9692 154.256 89.1823 155.498 89.1823" fill="#484848"/>
<path d="M132.344 89.2894H135.751L135.692 77.7895L142.673 89.3485H147.251V73.5303H143.749V85.3496L136.934 73.5303H132.32L132.344 89.2894Z" fill="#484848"/>
<path d="M130.31 73.4121H126.477V89.1712H130.31V73.4121Z" fill="#484848"/>
<path d="M110.75 76.299H116.003V89.3251H119.339V76.299H124.699V73.6133H110.75V76.299Z" fill="#484848"/>
<path d="M93.8088 89.2894H97.228L97.1689 77.7895L104.149 89.3485H108.716V73.5303H105.226V85.3496L98.4111 73.5303H93.7852L93.8088 89.2894Z" fill="#484848"/>
<path d="M68.548 89.3248H74.9013V86.5208L69.0449 86.438C67.081 86.438 66.3711 83.9889 66.2528 81.8238C66.1108 79.4694 66.7378 76.5353 68.8911 76.5353H74.8422V73.542H69.1041C68.0038 73.542 67.3294 73.6958 66.3238 74.1336C61.4257 76.3223 61.5913 87.3134 66.6432 88.9698C67.3412 89.2064 67.8026 89.3129 68.548 89.3129" fill="#484848"/>
<path d="M193.902 89.2777L199.049 75.4944C199.049 75.4944 199.806 73.5186 201.557 73.5186C203.308 73.5186 204.053 75.4707 204.053 75.4707L209.508 89.2895H205.923L204.633 85.7165H200.185L201.155 82.948H203.604L201.604 77.4702L199.735 82.948L199.463 83.717L198.966 85.0895L198.694 85.9295L197.452 89.3014H193.914L193.902 89.2777Z" fill="#484848"/>
<path d="M84.3898 86.8992C80.3317 86.9465 79.894 84.0597 79.8703 81.3031C79.8467 78.7475 80.9351 76.0382 84.0704 75.9436C87.1938 75.8726 88.4243 78.4162 88.4243 81.3031C88.4243 84.1899 87.7854 86.8755 84.3898 86.8992M92.0683 81.4096C91.9263 76.334 90.4474 73.1514 84.2124 73.1514C78.6162 73.1514 76.25 76.5588 76.25 81.2439C76.25 87.3843 79.1723 89.7387 84.2597 89.7268C88.4361 89.7268 92.2339 88.0232 92.0564 81.4214" fill="#484848"/>
<g clip-path="url(#clip0_1_18006)">
<path d="M173.232 102.493C174.146 102.219 174.545 102.732 174.82 103.721C175.412 105.872 176.143 107.986 176.823 110.11C176.87 110.26 176.963 110.39 177.031 110.535C177.098 110.395 177.186 110.26 177.228 110.11C177.773 108.265 178.281 106.411 178.857 104.576C179.168 103.592 179.495 102.478 180.798 102.457C182.09 102.436 182.406 103.556 182.738 104.499C183.356 106.276 183.89 108.079 184.466 109.872C184.534 110.079 184.637 110.276 184.726 110.478C184.954 110.348 184.933 110.1 184.995 109.892C185.629 107.732 186.287 105.576 186.874 103.4C187.061 102.706 187.336 102.442 188.093 102.473C189.759 102.54 189.764 102.493 189.261 104.074C188.342 106.949 187.429 109.825 186.495 112.696C186.215 113.55 185.795 114.364 184.746 114.385C183.698 114.4 183.268 113.597 182.967 112.742C182.302 110.872 181.654 108.996 180.995 107.126C180.948 106.991 180.876 106.758 180.813 106.758C180.595 106.753 180.626 106.991 180.58 107.131C179.978 108.981 179.392 110.83 178.79 112.68C178.509 113.54 178.089 114.348 177.057 114.385C176.003 114.421 175.562 113.618 175.261 112.768C174.156 109.649 173.087 106.519 171.961 103.411C171.707 102.701 171.733 102.369 172.584 102.499C172.745 102.525 172.916 102.499 173.238 102.499L173.232 102.493Z" fill="#484848"/>
<path d="M112.165 123.192C112.165 121.477 112.176 119.757 112.16 118.042C112.16 117.591 112.243 117.374 112.773 117.384C114.952 117.41 117.126 117.384 119.305 117.4C120.525 117.405 121.609 118.078 121.946 119.12C122.32 120.275 122.362 121.415 121.272 122.281C121.059 122.451 121.059 122.498 121.319 122.643C122.73 123.415 123.223 124.783 122.771 126.576C122.372 128.151 121.298 129.037 119.705 129.053C117.401 129.068 115.102 129.047 112.799 129.068C112.3 129.068 112.155 128.892 112.16 128.415C112.181 126.679 112.171 124.939 112.171 123.203L112.165 123.192ZM114.635 123.053C114.635 124.151 114.635 125.244 114.635 126.343C114.635 126.591 114.599 126.871 114.978 126.871C116.327 126.861 117.676 126.902 119.02 126.814C119.757 126.768 120.286 126.306 120.333 125.488C120.374 124.654 119.995 124.099 119.186 123.866C118.392 123.638 117.577 123.752 116.773 123.757C115.336 123.773 115.346 123.783 115.912 122.457C116.052 122.13 116.244 122.021 116.571 122.032C116.986 122.047 117.401 122.042 117.816 122.021C118.895 121.964 119.503 121.467 119.497 120.664C119.497 119.845 118.833 119.312 117.754 119.286C116.882 119.265 116.01 119.301 115.139 119.275C114.708 119.26 114.62 119.441 114.625 119.825C114.646 120.902 114.63 121.975 114.63 123.053H114.635Z" fill="#7F7F7F"/>
<path d="M129.366 114.436C126.289 114.467 124.421 113.441 123.638 111.234C123 109.431 122.958 107.581 123.534 105.752C124.125 103.887 125.48 102.825 127.348 102.389C128.78 102.058 130.233 102.094 131.665 102.4C133.543 102.799 134.747 103.928 135.199 105.809C135.546 107.25 135.645 108.716 135.396 110.177C134.955 112.762 133.18 114.265 130.425 114.436C130.072 114.457 129.719 114.436 129.371 114.436H129.366ZM132.583 108.436C132.583 108.436 132.563 108.436 132.547 108.436C132.547 108.125 132.568 107.814 132.547 107.509C132.397 105.607 131.239 104.4 129.527 104.348C127.633 104.291 126.367 105.363 126.128 107.312C126.04 108.042 126.045 108.804 126.144 109.534C126.414 111.519 127.524 112.369 129.641 112.307C131.369 112.255 132.386 111.203 132.542 109.301C132.568 109.011 132.573 108.721 132.583 108.436Z" fill="#484848"/>
<path d="M162.28 123.218C162.28 121.503 162.296 119.783 162.27 118.068C162.265 117.581 162.368 117.374 162.913 117.384C165.279 117.415 167.645 117.384 170.006 117.4C171.781 117.41 173.011 118.514 173.353 120.374C173.659 122.042 172.829 123.581 171.246 124.151C170.722 124.338 170.733 124.498 171.013 124.902C171.812 126.058 172.58 127.239 173.353 128.42C173.457 128.581 173.706 128.747 173.566 128.944C173.493 129.047 173.229 129.021 173.052 129.053C171.246 129.395 169.954 128.809 169.244 127.042C169.041 126.534 168.61 126.115 168.356 125.622C167.972 124.876 167.49 124.405 166.571 124.571C166.167 124.643 166.12 124.452 166.213 124.058C166.462 123.021 166.945 122.4 168.128 122.643C168.361 122.69 168.626 122.643 168.87 122.602C169.913 122.441 170.53 121.825 170.53 120.98C170.53 120.12 169.934 119.514 168.834 119.441C167.677 119.363 166.514 119.415 165.352 119.4C164.869 119.395 164.973 119.742 164.973 120.011C164.968 122.762 164.952 125.514 164.983 128.27C164.989 128.845 164.859 129.068 164.236 129.063C162.285 129.042 162.28 129.068 162.28 127.125C162.28 125.819 162.28 124.519 162.28 123.213V123.218Z" fill="#7F7F7F"/>
<path d="M198.058 125.612C198.058 126.545 198.037 127.472 198.068 128.405C198.084 128.871 197.907 129.011 197.456 129.006C195.941 128.985 194.431 129.001 192.916 129.001C189.833 129.001 187.945 127.312 187.613 124.239C187.493 123.12 187.561 122.011 187.924 120.928C188.697 118.602 190.363 117.395 192.822 117.395C194.337 117.395 195.853 117.415 197.363 117.384C197.866 117.374 197.99 117.55 197.99 118.022C197.99 119.488 198.006 119.483 196.563 119.488C195.422 119.488 194.28 119.509 193.144 119.509C192.303 119.509 191.686 119.913 191.214 120.576C190.363 121.773 190.56 125.079 191.546 126.161C192.122 126.799 194.633 127.286 195.349 126.897C195.64 126.742 195.531 126.457 195.531 126.229C195.557 124.338 195.552 124.27 193.684 124.358C192.62 124.41 192.838 123.788 192.817 123.193C192.796 122.581 192.734 122.073 193.663 122.136C194.924 122.224 196.19 122.172 197.456 122.151C197.902 122.146 198.084 122.286 198.068 122.757C198.037 123.705 198.058 124.659 198.058 125.612V125.612Z" fill="#7F7F7F"/>
<path d="M196.38 109.503C195.363 109.503 194.346 109.529 193.329 109.493C192.768 109.472 192.706 109.695 192.83 110.167C193.116 111.281 194.107 112.078 195.269 112.084C196.639 112.089 198.009 112.11 199.379 112.073C199.939 112.058 200.079 112.255 200.074 112.788C200.053 114.192 200.074 114.192 198.668 114.192C197.381 114.192 196.094 114.192 194.807 114.192C191.876 114.192 189.966 112.514 189.593 109.597C189.401 108.089 189.551 106.617 190.231 105.239C191.248 103.177 193.043 102.503 195.212 102.514C196.582 102.519 197.952 102.534 199.322 102.503C199.846 102.493 199.996 102.669 199.991 103.182C199.981 104.648 199.996 104.643 198.517 104.654C197.314 104.659 196.11 104.68 194.911 104.711C194.268 104.726 193.77 105.053 193.365 105.529C192.96 106.001 192.561 106.586 192.789 107.151C192.976 107.623 193.645 107.338 194.091 107.348C195.856 107.379 197.62 107.379 199.384 107.348C199.939 107.338 200.09 107.529 200.079 108.063C200.059 109.498 200.079 109.498 198.632 109.498C197.884 109.498 197.137 109.498 196.39 109.498L196.38 109.503Z" fill="#484848"/>
<path d="M156.252 124.333C155.214 124.333 154.177 124.349 153.139 124.328C152.667 124.317 152.578 124.494 152.687 124.929C152.983 126.1 153.99 126.929 155.204 126.934C156.574 126.934 157.944 126.95 159.308 126.929C159.76 126.924 159.967 127.053 159.926 127.525C159.9 127.83 159.905 128.147 159.926 128.457C159.947 128.846 159.801 129.012 159.391 129.007C157.606 128.991 155.821 129.038 154.042 128.986C151.442 128.908 149.735 126.965 149.424 123.825C149.107 120.597 150.856 117.825 153.663 117.494C155.588 117.266 157.555 117.421 159.506 117.406C159.791 117.406 159.827 117.571 159.848 117.805C159.955 118.934 159.438 119.499 158.297 119.499C157.155 119.499 156.013 119.488 154.877 119.535C153.772 119.582 152.791 120.52 152.63 121.597C152.563 122.033 152.661 122.24 153.165 122.235C155.199 122.214 157.228 122.24 159.262 122.214C159.781 122.209 159.947 122.374 159.936 122.887C159.889 124.613 160.144 124.312 158.494 124.338C157.746 124.349 156.999 124.338 156.252 124.338V124.333Z" fill="#7F7F7F"/>
<path d="M206.965 124.333C205.928 124.333 204.89 124.349 203.857 124.328C203.385 124.318 203.297 124.499 203.396 124.929C203.655 126.059 204.682 126.924 205.845 126.934C207.235 126.945 208.626 126.95 210.011 126.934C210.442 126.929 210.655 127.022 210.644 127.515C210.592 129.318 210.878 128.97 209.191 129.002C207.946 129.022 206.701 129.002 205.461 129.002C202.57 129.002 200.827 127.608 200.267 124.779C199.914 123.002 200.106 121.271 201.045 119.685C201.927 118.193 203.292 117.452 205.009 117.411C206.649 117.369 208.289 117.416 209.923 117.39C210.411 117.38 210.613 117.525 210.556 118.017C210.525 118.281 210.525 118.556 210.556 118.82C210.613 119.333 210.416 119.509 209.892 119.499C208.46 119.478 207.028 119.478 205.601 119.525C204.485 119.561 203.536 120.463 203.328 121.561C203.235 122.038 203.354 122.23 203.883 122.224C205.917 122.198 207.946 122.23 209.98 122.204C210.504 122.198 210.65 122.369 210.644 122.877C210.634 124.328 210.655 124.328 209.202 124.328C208.455 124.328 207.707 124.328 206.96 124.328L206.965 124.333Z" fill="#7F7F7F"/>
<path d="M131.6 124.332C130.583 124.332 129.566 124.353 128.549 124.327C128.035 124.312 127.957 124.519 128.066 124.965C128.346 126.084 129.384 126.928 130.547 126.933C131.916 126.939 133.286 126.954 134.651 126.928C135.128 126.918 135.3 127.058 135.3 127.555C135.3 128.996 135.32 128.996 133.857 128.996C132.612 128.996 131.366 128.996 130.121 128.996C127.096 128.996 125.223 127.363 124.844 124.348C124.694 123.125 124.771 121.913 125.197 120.737C125.97 118.581 127.641 117.395 129.919 117.395C131.475 117.395 133.032 117.415 134.584 117.384C135.087 117.374 135.211 117.55 135.211 118.027C135.211 119.488 135.227 119.488 133.784 119.493C132.601 119.493 131.418 119.483 130.24 119.529C129.104 119.576 128.134 120.529 127.968 121.643C127.9 122.084 128.051 122.229 128.497 122.224C130.531 122.208 132.565 122.234 134.594 122.208C135.139 122.203 135.357 122.363 135.289 122.913C135.258 123.156 135.258 123.41 135.289 123.659C135.362 124.229 135.097 124.363 134.573 124.348C133.577 124.317 132.581 124.338 131.584 124.338L131.6 124.332Z" fill="#7F7F7F"/>
<path d="M170.556 108.369C170.556 110.11 170.546 111.846 170.566 113.587C170.566 114.012 170.442 114.157 170.006 114.167C167.92 114.229 167.92 114.24 167.92 112.188C167.92 111.462 167.899 110.737 167.925 110.017C167.941 109.592 167.806 109.431 167.365 109.437C166.057 109.457 164.75 109.462 163.442 109.437C162.954 109.426 162.851 109.633 162.856 110.069C162.877 111.209 162.845 112.343 162.871 113.483C162.882 113.975 162.762 114.178 162.223 114.178C160.194 114.193 160.194 114.209 160.194 112.193C160.194 109.193 160.204 106.193 160.184 103.188C160.184 102.644 160.344 102.483 160.889 102.488C162.866 102.499 162.866 102.483 162.866 104.452C162.866 105.157 162.887 105.861 162.861 106.561C162.845 107.001 163.022 107.131 163.447 107.126C164.755 107.105 166.063 107.105 167.37 107.126C167.811 107.131 167.941 106.97 167.931 106.545C167.91 105.385 167.936 104.229 167.915 103.069C167.91 102.644 168.045 102.499 168.481 102.488C170.561 102.442 170.561 102.431 170.561 104.519C170.561 105.804 170.561 107.084 170.561 108.369H170.556Z" fill="#484848"/>
<path d="M205.473 114.198C204.394 114.198 203.315 114.178 202.236 114.209C201.769 114.224 201.639 114.069 201.639 113.613C201.639 112.048 201.623 112.048 203.185 112.048C204.534 112.048 205.883 112.053 207.232 112.048C208.115 112.043 208.68 111.488 208.659 110.68C208.633 109.867 208.042 109.395 207.149 109.426C206.34 109.452 205.531 109.468 204.721 109.431C202.76 109.349 201.478 107.846 201.546 105.742C201.608 103.81 202.962 102.488 204.877 102.488C206.641 102.488 208.405 102.509 210.169 102.478C210.719 102.468 210.927 102.597 210.917 103.193C210.88 104.628 210.917 104.628 209.464 104.628C208.322 104.628 207.181 104.628 206.039 104.628C205.157 104.628 204.602 105.022 204.555 105.934C204.514 106.753 205.074 107.24 206.008 107.25C206.838 107.255 207.668 107.24 208.499 107.25C210.387 107.276 211.674 108.737 211.659 110.81C211.643 112.779 210.315 114.198 208.467 114.203C207.471 114.203 206.475 114.203 205.479 114.203L205.473 114.198Z" fill="#484848"/>
<path d="M115.939 114.198C114.88 114.198 113.822 114.177 112.763 114.209C112.286 114.224 112.115 114.095 112.115 113.592C112.115 112.048 112.099 112.048 113.63 112.048C114.979 112.048 116.328 112.053 117.677 112.048C118.611 112.048 119.156 111.504 119.12 110.649C119.083 109.841 118.507 109.411 117.578 109.426C116.665 109.442 115.747 109.473 114.844 109.385C113.116 109.209 111.907 107.628 112.006 105.763C112.109 103.804 113.422 102.483 115.259 102.483C117.086 102.483 118.912 102.499 120.738 102.473C121.242 102.468 121.366 102.639 121.366 103.115C121.361 104.623 121.377 104.623 119.867 104.623C118.725 104.623 117.584 104.623 116.442 104.623C115.576 104.628 115.036 105.079 115.031 105.934C115.026 106.789 115.539 107.25 116.427 107.245C117.277 107.24 118.128 107.234 118.979 107.245C120.827 107.276 122.155 108.753 122.145 110.753C122.134 112.763 120.806 114.188 118.933 114.198C117.936 114.198 116.94 114.198 115.944 114.198H115.939Z" fill="#484848"/>
<path d="M216.702 129.079C215.685 129.079 214.668 129.053 213.651 129.089C213.137 129.105 212.971 128.949 212.981 128.426C212.997 126.934 212.981 126.934 214.486 126.934C215.814 126.934 217.143 126.939 218.471 126.934C219.421 126.929 219.991 126.405 219.981 125.582C219.971 124.758 219.395 124.271 218.435 124.276C217.605 124.276 216.774 124.291 215.944 124.276C214.159 124.24 212.867 122.784 212.867 120.83C212.867 118.872 214.149 117.411 215.939 117.379C217.807 117.354 219.675 117.39 221.538 117.359C222.083 117.348 222.197 117.561 222.197 118.048C222.197 119.514 222.212 119.514 220.775 119.514C219.592 119.514 218.409 119.509 217.226 119.514C216.344 119.519 215.846 119.996 215.866 120.856C215.882 121.685 216.38 122.131 217.236 122.126C218.066 122.126 218.897 122.115 219.727 122.126C221.61 122.141 222.954 123.566 222.975 125.556C222.996 127.535 221.673 129.017 219.81 129.069C218.772 129.1 217.734 129.069 216.697 129.074L216.702 129.079Z" fill="#7F7F7F"/>
<path d="M147.422 106.722C147.422 107.592 147.422 108.457 147.422 109.328C147.422 112.737 145.497 114.577 142.042 114.463C138.555 114.354 136.811 112.556 136.811 109.074C136.811 107.09 136.822 105.105 136.801 103.115C136.801 102.628 136.956 102.478 137.444 102.478C139.385 102.473 139.385 102.457 139.385 104.359C139.385 106.074 139.374 107.794 139.385 109.509C139.4 111.1 140.355 111.908 142.187 111.929C143.91 111.944 144.921 111.09 144.952 109.525C144.989 107.437 145.004 105.349 144.989 103.261C144.989 102.685 145.113 102.468 145.736 102.478C147.417 102.509 147.417 102.478 147.417 104.178C147.417 105.027 147.417 105.872 147.417 106.722H147.422Z" fill="#484848"/>
<path d="M185.09 128.996C184.115 129.322 183.565 128.732 183.378 127.69C183.175 126.556 182.537 126.141 181.432 126.359C181.271 126.39 181.1 126.374 180.934 126.359C180.451 126.312 179.554 126.483 179.554 126.26C179.548 125.638 179.813 124.97 180.13 124.405C180.368 123.98 180.934 124.234 181.344 124.234C181.873 124.234 182.06 124.162 181.811 123.592C181.437 122.742 181.136 121.856 180.799 120.991C180.732 120.825 180.633 120.669 180.55 120.509C180.462 120.664 180.353 120.815 180.29 120.98C179.393 123.405 178.485 125.83 177.618 128.265C177.421 128.82 177.146 129.017 176.544 129.006C174.469 128.97 174.469 128.996 175.221 127.089C176.274 124.416 177.328 121.737 178.376 119.058C178.76 118.079 179.31 117.265 180.493 117.255C181.65 117.245 182.21 118.037 182.605 118.98C183.866 121.996 185.085 125.032 186.387 128.032C186.756 128.877 186.59 129.12 185.713 128.996C185.573 128.975 185.422 128.996 185.095 128.996H185.09Z" fill="#7F7F7F"/>
<path d="M138.132 117.395C139.112 117.069 139.522 117.701 139.865 118.696C140.653 120.981 141.567 123.229 142.433 125.488C142.485 125.618 142.563 125.83 142.641 125.841C142.848 125.856 142.838 125.623 142.89 125.483C143.798 123.017 144.727 120.561 145.593 118.079C145.79 117.52 146.065 117.38 146.621 117.385C148.691 117.416 148.691 117.395 147.949 119.297C146.896 121.996 145.842 124.691 144.794 127.39C144.415 128.359 143.845 129.146 142.708 129.152C141.567 129.157 141.001 128.364 140.607 127.406C139.356 124.364 138.126 121.312 136.829 118.286C136.492 117.499 136.622 117.266 137.452 117.39C137.613 117.416 137.784 117.39 138.132 117.39V117.395Z" fill="#7F7F7F"/>
<path d="M217.547 102.52C219.145 102.52 220.738 102.54 222.337 102.509C222.861 102.499 223.006 102.67 223.001 103.183C222.98 104.659 223.001 104.649 221.543 104.659C220.676 104.665 219.524 104.38 219.021 104.82C218.455 105.312 218.855 106.494 218.845 107.369C218.819 109.416 218.824 111.463 218.845 113.509C218.85 114.027 218.725 114.235 218.154 114.229C216.136 114.219 216.136 114.24 216.136 112.24C216.136 109.944 216.12 107.649 216.146 105.354C216.151 104.825 216.017 104.613 215.456 104.639C214.548 104.68 213.63 104.628 212.722 104.659C212.244 104.675 212.073 104.53 212.078 104.033C212.078 102.509 212.063 102.509 213.567 102.509C214.896 102.509 216.219 102.509 217.547 102.509V102.52Z" fill="#484848"/>
<path d="M153.846 102.493C155.361 102.493 156.871 102.514 158.386 102.483C158.9 102.473 159.118 102.623 159.061 103.146C159.03 103.431 159.035 103.726 159.061 104.011C159.097 104.462 158.931 104.638 158.459 104.623C157.504 104.592 156.55 104.638 155.6 104.607C155.123 104.592 155.003 104.773 155.008 105.219C155.024 107.97 154.998 110.721 155.029 113.473C155.034 114.053 154.853 114.203 154.287 114.198C152.347 114.177 152.347 114.198 152.347 112.26C152.347 109.923 152.336 107.587 152.357 105.25C152.357 104.773 152.243 104.587 151.734 104.612C150.889 104.649 150.032 104.602 149.187 104.633C148.72 104.649 148.59 104.488 148.59 104.032C148.59 102.504 148.569 102.504 150.115 102.504C151.361 102.504 152.601 102.504 153.846 102.504V102.493Z" fill="#484848"/>
</g>
<defs>
<clipPath id="clip0_1_18006">
<rect width="111" height="27" fill="white" transform="translate(112 102.151)"/>
</clipPath>
</defs>
</svg>
