<svg width="563" height="91" viewBox="0 0 563 91" fill="none" xmlns="http://www.w3.org/2000/svg">
<path d="M77.7999 31.5815L95.2004 14.756C97.3287 12.6929 99.5536 14.756 99.5536 14.756L104.378 19.4274L113 11.1002C110.013 8.20333 107.365 5.6485 105.999 4.33368C97.2924 -4.07903 88.6828 4.25884 88.6828 4.25884L66.9292 25.2853C58.1382 33.7835 66.8445 42.1856 66.8445 42.1856L87.5099 62.1644C87.5099 62.1644 88.5982 63.212 89.9041 61.9613C90.3878 61.491 90.811 61.0847 90.811 58.9896C90.811 57.6213 90.811 48.3534 90.811 48.3534L77.812 35.8038C75.5871 33.6552 77.812 31.6028 77.812 31.6028" fill="white"/>
<path d="M123.923 22.5752L115.255 30.8699L116.228 31.8069C118.368 33.8619 116.228 35.9915 116.228 35.9915L103.001 48.6837C103.001 48.6837 103.013 57.2339 103.001 58.6074C102.977 60.769 103.451 61.4717 103.986 61.9721C105.299 63.2286 106.441 62.1319 106.441 62.1319C106.441 62.1319 122.878 46.3944 127.169 42.2843C135.838 33.9897 127.084 25.6099 127.084 25.6099C127.084 25.6099 125.832 24.4173 123.923 22.5859" fill="white"/>
<path d="M159.39 41.4233C158.922 40.9682 158.513 40.5752 156.408 40.5752C155.039 40.5752 145.765 40.5752 145.765 40.5752L133.216 52.7273C131.075 54.806 129.005 52.7273 129.005 52.7273L124.421 48.2905L116 56.4298L122.69 62.904C131.192 71.1157 139.601 62.9867 139.601 62.9867L159.589 43.6571C159.589 43.6571 160.641 42.6436 159.378 41.4233" fill="#BFBFBF"/>
<path d="M111.633 37.072L110.667 36.1224C108.54 34.0397 110.667 31.8815 110.667 31.8815L113.131 29.4751L121.747 21.069L128.066 14.8965C130.192 12.8138 132.416 14.8965 132.416 14.8965L145.586 27.7378C145.586 27.7378 154.455 27.7162 155.881 27.7378C158.128 27.7594 158.853 27.2953 159.373 26.7882C160.678 25.5148 159.542 24.4033 159.542 24.4033C159.542 24.4033 143.206 8.45434 138.94 4.28903C130.325 -4.11713 121.626 4.37531 121.626 4.37531C121.626 4.37531 117.711 8.1953 113.144 12.6628C110.268 15.4684 107.126 18.5331 104.528 21.069L99.8886 25.6012C91.1889 34.0937 99.804 42.4998 99.804 42.4998L102.958 45.5752L111.645 37.0827L111.633 37.072Z" fill="#BFBFBF"/>
<path d="M38.9348 89.7486H45.2882V86.9446L39.4317 86.8618C37.4796 86.8618 36.7579 84.4127 36.6278 82.2476C36.4858 79.8932 37.1128 76.9591 39.2661 76.9591H45.2172V73.9658H39.4791C38.3788 73.9658 37.6926 74.1196 36.6987 74.5574C31.8006 76.7461 31.9663 87.7373 37.0182 89.3936C37.7162 89.6302 38.1776 89.7368 38.923 89.7368" fill="white"/>
<path d="M0 89.7366L5.14654 75.9533C5.14654 75.9533 5.90373 73.9775 7.65474 73.9775C9.40575 73.9775 10.1511 75.9297 10.1511 75.9297L15.6053 89.7485H12.0204L10.7309 86.1755H6.28234L7.25249 83.3952H9.70155L7.70208 77.9173L5.83275 83.3952L5.56064 84.176L5.06373 85.5484L4.7916 86.3884L3.54935 89.7603H0.0118247L0 89.7366Z" fill="white"/>
<path d="M17.332 73.9307H27.637C27.637 73.9307 31.3165 74.0726 31.6004 78.6631C31.6004 78.6631 31.8607 82.4609 28.0156 83.3364L32.0263 89.7489H27.9919L24.2888 83.644H22.2065L23.1056 81.1121H25.2944C25.2944 81.1121 27.9919 81.0412 28.0037 78.7933C28.0037 76.5453 25.4245 76.6044 25.4245 76.6044H20.7631V89.7489H17.3557V73.9307" fill="white"/>
<path d="M47.0625 89.7015L52.209 75.9182C52.209 75.9182 52.9662 73.9424 54.7173 73.9424C56.4683 73.9424 57.2018 75.8946 57.2018 75.8946L62.656 89.7133H59.0711L57.7815 86.1403H53.333L54.3032 83.3719H56.764L54.7646 77.894L52.8953 83.3719L52.6231 84.1408L52.1262 85.5133L51.8541 86.3533L50.6118 89.7252H47.0743L47.0625 89.7015Z" fill="white"/>
<path d="M213.848 74.167H210.145V84.1525C210.145 85.241 210.239 85.9035 210.641 86.8619C211.742 89.3937 214.179 89.9261 216.817 89.9261H221.999V87.3706H217.397C216.202 87.3706 215.22 87.2167 214.475 86.2111C214.001 85.5367 213.836 84.9452 213.836 84.0461V74.167H213.848Z" fill="#BFBFBF"/>
<path d="M181.371 76.7228H186.636V89.7489H189.972V76.7228H195.332V74.0371H181.371V76.7228Z" fill="#BFBFBF"/>
<path d="M164.465 89.7132H167.872L167.813 78.2134L174.794 89.7724H179.372V73.9541H175.87V85.7734L169.056 73.9541H164.441L164.465 89.7132Z" fill="#BFBFBF"/>
<path d="M155.498 89.6179H162.491V86.8849H156.196C155.214 86.8849 154.564 86.4235 153.937 85.6426C153.333 84.9209 153.097 84.2466 153.097 83.2409H162.491V80.4606H153.049C153.002 79.3484 153.286 78.5558 153.972 77.7749C154.67 76.9941 155.392 76.6983 156.409 76.6983H162.408V73.918H155.912C154.516 73.918 153.629 74.0954 152.375 74.7935C147.962 77.3253 147.903 86.4234 152.375 88.8015C153.499 89.3931 154.256 89.6061 155.498 89.6061" fill="#BFBFBF"/>
<path d="M132.344 89.7132H135.751L135.692 78.2134L142.673 89.7724H147.251V73.9541H143.749V85.7734L136.934 73.9541H132.32L132.344 89.7132Z" fill="#BFBFBF"/>
<path d="M130.31 73.8359H126.477V89.595H130.31V73.8359Z" fill="#BFBFBF"/>
<path d="M110.75 76.7228H116.003V89.7489H119.339V76.7228H124.699V74.0371H110.75V76.7228Z" fill="#BFBFBF"/>
<path d="M93.8088 89.7132H97.228L97.1689 78.2134L104.149 89.7724H108.716V73.9541H105.226V85.7734L98.4111 73.9541H93.7852L93.8088 89.7132Z" fill="#BFBFBF"/>
<path d="M68.548 89.7486H74.9013V86.9446L69.0449 86.8618C67.081 86.8618 66.3711 84.4127 66.2528 82.2476C66.1108 79.8932 66.7378 76.9591 68.8911 76.9591H74.8422V73.9658H69.1041C68.0038 73.9658 67.3294 74.1196 66.3238 74.5574C61.4257 76.7461 61.5913 87.7373 66.6432 89.3936C67.3412 89.6302 67.8026 89.7368 68.548 89.7368" fill="#BFBFBF"/>
<path d="M193.902 89.7015L199.049 75.9182C199.049 75.9182 199.806 73.9424 201.557 73.9424C203.308 73.9424 204.053 75.8946 204.053 75.8946L209.508 89.7133H205.923L204.633 86.1403H200.185L201.155 83.3719H203.604L201.604 77.894L199.735 83.3719L199.463 84.1408L198.966 85.5133L198.694 86.3533L197.452 89.7252H193.914L193.902 89.7015Z" fill="#BFBFBF"/>
<path d="M84.3898 87.323C80.3317 87.3703 79.894 84.4835 79.8703 81.7269C79.8467 79.1713 80.9351 76.4621 84.0704 76.3674C87.1938 76.2964 88.4243 78.8401 88.4243 81.7269C88.4243 84.6137 87.7854 87.2993 84.3898 87.323M92.0683 81.8334C91.9263 76.7578 90.4474 73.5752 84.2124 73.5752C78.6162 73.5752 76.25 76.9826 76.25 81.6677C76.25 87.8081 79.1723 90.1625 84.2597 90.1507C88.4361 90.1507 92.2339 88.447 92.0564 81.8452" fill="#BFBFBF"/>
<path d="M317.547 33.4844H312.963L310.379 37.681H314.962L317.547 33.4844Z" fill="white"/>
<path d="M304.179 69.3567C300.53 66.7873 296.078 65.6476 292.033 65.8123C287.943 65.977 286.108 69.0339 286.108 69.0339C284.26 65.8123 280.617 63.8359 274.982 63.882C265.887 63.9874 256.851 68.1972 249.703 68.1972C242.555 68.1972 237.84 63.882 238.004 56.2069C238.294 42.7607 249.631 30.6387 258.114 25.1838C262.987 22.0479 267.064 21.119 269.734 21.4155C271.68 21.6329 274.028 23.886 272.548 27.2064C270.378 32.0749 267.386 31.6665 267.491 29.3409C267.557 27.8322 268.557 26.8835 269.313 26.3631C269.793 26.0271 270.641 25.9349 271.082 25.9283C271.509 25.5659 271.838 22.9043 268.346 23.7806C264.854 24.6568 260.659 28.0957 256.647 32.5229C252.643 36.9501 246.408 45.3498 244.87 54.1515C244.153 58.2361 244.633 65.6806 254.293 65.5949C262.48 65.5224 274.567 60.1202 285.661 60.2191C289.968 60.2586 293.717 61.4181 296.643 63.2298C299.523 65.0152 302.969 67.5977 304.186 69.3633M306.81 44.9809H308.487C308.487 44.9809 300.076 57.1622 295.321 56.6088C292.665 56.2992 293.454 53.0183 293.454 53.0183C293.454 53.0183 289.719 57.3928 286.312 56.5166C283.208 55.7194 285.207 50.5478 285.207 50.5478C284.852 50.6927 278.138 58.2822 273.423 56.4639C268.484 54.5599 271.042 48.2025 271.983 46.2985C272.779 44.6844 273.653 43.1165 273.653 43.1165C273.653 43.1165 272.897 43.3339 272.423 43.4393C271.957 43.5513 271.24 43.6896 271.24 43.6896C271.24 43.6896 268.905 47.4975 267.478 49.3949C266.051 51.2923 259.981 57.821 256.411 56.5232C252.833 55.2187 253.714 50.2118 255.727 46.2326C258.982 39.7764 266.709 31.8378 271.365 33.0302C276.067 34.2292 272.18 41.8779 272.18 41.8779C272.18 41.8779 273.114 41.9965 275.356 40.4681C278.585 38.2611 282.84 32.3253 287.456 33.017C289.626 33.3398 291.639 35.5732 288.883 39.8027C287.996 41.1598 286.516 42.3786 285.378 41.1796C284.675 40.4352 285.286 39.0714 286.029 38.1425C287.075 36.8249 288.522 37.0028 288.522 37.0028C288.522 37.0028 289.278 35.2504 287.345 35.2833C285.773 35.3096 281.801 38.9792 279.558 42.6817C277.5 46.0811 274.39 51.8786 277.52 53.1369C280.394 54.2964 285.845 47.8006 288.37 44.4012C290.896 41.0017 296.65 33.2871 301.477 32.9709C303.14 32.8655 304.133 34.3807 304.133 34.3807L304.692 33.4913H309.513C309.513 33.4913 300.418 48.7097 299.708 49.8626C299.149 50.7652 298.406 52.7943 300.464 51.6546C302.522 50.5149 306.803 45.0007 306.803 45.0007M269.359 43.4591C269.273 43.4261 268.057 43.077 266.873 42.3193C265.69 41.5617 265.137 40.4286 265.098 40.3561C265.052 40.277 265.006 40.3363 264.96 40.4022C264.914 40.4681 264.657 40.7975 262.934 43.3273C261.211 45.8571 258.66 51.0419 261.053 51.9313C262.586 52.4979 265.15 49.8034 266.544 48.0246C267.833 46.371 269.372 43.828 269.438 43.6765C269.504 43.525 269.438 43.492 269.359 43.4591M271.266 35.3689C270.003 34.4071 266.781 36.6536 266.761 38.9462C266.748 41.2982 269.675 41.9636 270.049 41.9833C270.049 41.9833 270.378 42.0756 270.51 41.7923C270.589 41.621 270.99 40.8831 271.437 39.7171C271.884 38.551 272.443 36.2649 271.266 35.3689ZM295.861 48.0378C297.807 45.363 303.186 35.9816 303.186 35.9816C303.186 35.9816 303.094 35.3228 302.47 35.2965C301.727 35.2635 300.49 35.5139 298.018 38.6037C295.545 41.7001 293.644 44.164 292.25 46.7202C290.725 49.5135 290.054 51.4833 290.935 52.017C291.185 52.1685 291.553 52.1882 291.856 52.1092C292.434 51.9642 293.178 51.3911 294.203 50.2052C294.684 49.6518 295.229 48.9074 295.867 48.0378M385.21 25.9678C381.823 28.1484 377.128 30.1314 372.617 29.69C371.479 30.8759 370.256 32.2396 369.026 33.7351C376.852 35.2833 383.697 30.4279 387.334 26.2906C389.609 23.7081 390.727 21.4089 390.727 21.4089C390.727 21.4089 388.557 23.8069 385.203 25.9678M371.795 61.5762C371.144 62.6171 370.414 64.6067 372.551 63.3681C375.162 61.8529 378.877 56.2069 378.877 56.2069H380.554C380.554 56.2069 378.338 59.7184 375.451 62.9268C372.807 65.865 369.579 68.5332 367.31 68.2697C364.653 67.96 365.488 64.4684 365.488 64.4684C365.488 64.4684 361.681 68.52 359.063 68.2301C355.519 67.8349 356.597 63.4406 356.597 63.4406C356.597 63.4406 352.593 68.3817 349.857 68.2301C345.569 67.9864 346.641 62.7423 347.838 59.0793C348.476 57.1161 349.068 55.5679 349.068 55.5679C349.068 55.5679 348.64 55.6799 347.726 55.8117C347.253 55.8841 346.378 55.9303 346.378 55.9303C346.378 55.9303 344.596 59.0859 343.169 60.9899C341.742 62.8938 335.672 69.4226 332.101 68.1182C328.8 66.9125 329.885 61.8463 331.812 57.821C334.614 51.9511 342.505 43.5184 347.055 44.6252C351.771 45.7715 347.167 54.3952 347.167 54.3952C347.167 54.3952 347.167 54.4282 347.22 54.4479C347.312 54.4875 347.555 54.5072 348.127 54.4018C349.035 54.2305 349.85 53.888 349.85 53.888C349.85 53.888 354.592 43.94 359.826 37.4244C365.061 30.9154 375.51 19.7026 379.614 22.4103C380.62 23.0756 380.16 25.3749 378.811 28.1616C378.213 28.3527 377.595 28.5174 376.957 28.6491C377.858 27.0021 378.463 25.6186 378.634 24.6568C379.245 21.2903 371.413 28.3856 365.817 36.0146C360.221 43.6501 356.86 50.561 356.86 50.561C356.86 50.561 357.992 49.9219 359.747 48.4989C361.582 47.0166 364.114 44.6844 366.863 41.8384C368.711 39.9279 370.881 37.5232 372.913 34.8353C373.518 34.8024 374.116 34.7431 374.695 34.6508C372.426 37.7143 370.039 40.5076 368.02 42.5631C365.791 44.8228 363.371 47.267 361.266 49.0391C357.926 51.8588 355.341 53.4531 355.341 53.4531C355.341 53.4531 350.436 63.3418 353.105 63.9808C354.671 64.3564 357.761 59.58 357.761 59.58C357.761 59.58 361.792 53.407 364.226 50.6335C367.547 46.8453 370.401 44.6647 373.255 44.6186C374.918 44.5922 375.905 46.3644 375.905 46.3644L376.687 45.1522H381.508C381.508 45.1522 372.512 60.4496 371.795 61.6026M344.695 55.5811C344.609 55.5481 343.564 55.0738 342.479 54.1646C341.393 53.2621 340.848 52.2212 340.808 52.1421C340.762 52.0631 340.716 52.1223 340.67 52.1882C340.624 52.2541 340.427 52.4254 338.704 54.9552C336.981 57.485 334.35 62.7094 336.744 63.5987C338.276 64.1653 340.821 61.484 342.209 59.7052C343.498 58.0516 344.708 55.95 344.774 55.7985C344.839 55.647 344.78 55.614 344.695 55.5811M347.128 51.312C347.575 50.1459 348.134 47.8599 346.957 46.9639C345.694 46.0086 342.472 48.2486 342.452 50.5412C342.432 52.8931 344.721 53.9538 345.273 54.0988C345.589 54.1844 345.694 54.1712 345.845 53.9209C345.944 53.7562 346.681 52.4781 347.121 51.312M374.8 48.0839C374.899 47.9126 374.945 47.7611 374.945 47.7611C374.945 47.7611 374.853 47.1023 374.228 47.0759C373.485 47.043 372.465 47.1813 369.802 50.1394C367.152 53.0842 365.541 55.6404 364.147 58.1965C362.621 60.9899 362.01 63.0717 362.884 63.6053C363.134 63.7569 363.502 63.7766 363.805 63.6976C364.403 63.5526 365.067 62.9992 366.1 61.8134C366.58 61.26 367.113 60.4694 367.75 59.5932C369.506 57.1886 373.925 49.6123 374.807 48.0905M385.203 26.0073C381.817 28.188 377.121 30.171 372.61 29.7296C371.472 30.9154 370.249 32.2792 369.02 33.7746C376.845 35.3228 383.691 30.4674 387.327 26.3301C389.603 23.7476 390.721 21.4484 390.721 21.4484C390.721 21.4484 388.551 23.8464 385.197 26.0073M363.213 31.6928C359.511 29.7955 356.808 27.4765 353.993 26.0271C351.304 24.6436 349.568 24.0704 347.404 24.3603C347.042 24.4064 346.51 24.5843 346.51 24.5843C346.51 24.5843 347.634 28.4054 343.189 34.8353C338.684 41.3443 334.6 41.3114 333.436 39.5128C332.22 37.6221 333.785 33.7746 336.409 30.3488C339.158 26.7649 343.978 23.7872 343.978 23.7872C343.978 23.7872 342.439 22.8451 338.658 24.9928C334.975 27.0812 328.616 32.0617 322.744 40.4549C316.871 48.8481 315.694 53.4663 314.846 57.1029C313.997 60.7395 314.773 64.6265 318.798 64.6265C322.823 64.6265 327.498 58.4732 328.82 56.3387C331.273 52.3595 332.871 46.2524 329.53 47.0891C327.88 47.5041 326.551 49.3356 325.709 51.088C324.848 52.8932 324.5 54.6192 324.5 54.6192C324.5 54.6192 323.112 55.1199 321.238 56.5166C319.37 57.9198 318.147 59.2572 318.147 59.2572C318.147 59.2572 318.16 56.3519 320.468 51.648C322.783 46.9442 327.025 44.7898 329.425 44.5922C331.589 44.4143 334.41 46.259 332.023 53.0579C329.642 59.8567 322.599 68.105 315.194 68.217C308.362 68.3158 303.883 59.58 313.386 44.3419C323.894 27.483 336.244 22.3114 340.256 21.7317C344.267 21.1519 345.563 22.9241 345.563 22.9241C345.563 22.9241 348.923 21.3693 353.184 21.6592C358.077 21.9886 361.865 25.4605 366.856 27.8915C365.554 29.1564 364.311 30.4608 363.193 31.6796M344.964 25.0718C344.964 25.0718 342.104 26.2181 338.776 29.8943C335.436 33.5836 333.509 37.7077 334.949 38.8013C335.501 39.223 336.764 39.2888 339.079 37.207C340.881 35.5863 342.715 33.465 343.958 30.4213C345.451 26.7781 344.971 25.1114 344.971 25.0652" fill="white"/>
<path d="M378.291 64.9161C378.568 65.0742 378.778 65.2851 378.936 65.5486C379.094 65.8187 379.173 66.1086 379.173 66.4248C379.173 66.741 379.094 67.0375 378.936 67.301C378.778 67.5645 378.561 67.7819 378.291 67.9335C378.015 68.0916 377.713 68.164 377.377 68.164C377.042 68.164 376.739 68.085 376.463 67.9335C376.187 67.7753 375.977 67.5645 375.819 67.301C375.661 67.0375 375.582 66.741 375.582 66.4248C375.582 66.1086 375.661 65.8187 375.819 65.5486C375.977 65.2785 376.194 65.0677 376.463 64.9161C376.739 64.758 377.042 64.6855 377.377 64.6855C377.713 64.6855 378.015 64.7646 378.291 64.9161M378.114 67.6502C378.331 67.5316 378.495 67.3603 378.614 67.1495C378.732 66.9387 378.791 66.6949 378.791 66.4248C378.791 66.1547 378.732 65.9241 378.614 65.7067C378.495 65.4959 378.324 65.3246 378.107 65.206C377.89 65.0874 377.647 65.0215 377.371 65.0215C377.095 65.0215 376.851 65.0808 376.641 65.206C376.424 65.3246 376.259 65.4959 376.134 65.7067C376.016 65.9175 375.957 66.1613 375.957 66.4248C375.957 66.6883 376.016 66.9321 376.134 67.1495C376.253 67.3603 376.417 67.5316 376.634 67.6502C376.851 67.7688 377.095 67.8346 377.371 67.8346C377.647 67.8346 377.89 67.7753 378.107 67.6502M378.048 66.3984C377.995 66.4841 377.923 66.5434 377.831 66.5895L378.245 67.2022H377.785L377.417 66.629H377.114V67.2022H376.713V65.6211H377.627C377.778 65.6211 377.903 65.6672 377.995 65.766C378.088 65.8648 378.134 65.9768 378.134 66.1217C378.134 66.2206 378.107 66.3128 378.055 66.3984M377.114 66.2733H377.548C377.601 66.2733 377.64 66.2601 377.673 66.2337C377.706 66.2074 377.719 66.1679 377.719 66.1217C377.719 66.0756 377.706 66.0361 377.673 66.0098C377.64 65.9834 377.601 65.9702 377.548 65.9702H377.114V66.2733V66.2733Z" fill="white"/>
<g clip-path="url(#clip0_5_18227)">
<path d="M489.976 27.6793C491.304 27.2798 491.885 28.0259 492.285 29.4654C493.146 32.5931 494.21 35.6679 495.199 38.7579C495.266 38.9765 495.402 39.1649 495.5 39.3759C495.599 39.1724 495.727 38.9765 495.787 38.7579C496.58 36.0749 497.319 33.3768 498.157 30.7089C498.61 29.277 499.085 27.6566 500.98 27.6265C502.859 27.5964 503.32 29.2242 503.803 30.5959C504.701 33.1809 505.478 35.8036 506.316 38.4112C506.414 38.7127 506.565 38.9991 506.693 39.293C507.025 39.1046 506.995 38.7428 507.086 38.4414C508.007 35.2987 508.965 32.1635 509.818 28.9981C510.09 27.9882 510.49 27.6039 511.592 27.6491C514.014 27.7471 514.022 27.6793 513.29 29.9779C511.954 34.1606 510.625 38.3434 509.267 42.5186C508.859 43.7622 508.248 44.9454 506.723 44.9755C505.199 44.9981 504.572 43.83 504.135 42.5865C503.169 39.8658 502.225 37.1376 501.267 34.4169C501.199 34.2209 501.093 33.8818 501.003 33.8818C500.686 33.8743 500.731 34.2209 500.663 34.4244C499.787 37.115 498.935 39.8055 498.059 42.496C497.651 43.7471 497.04 44.9228 495.538 44.9755C494.006 45.0283 493.365 43.8601 492.927 42.6241C491.319 38.0872 489.764 33.5351 488.127 29.0132C487.757 27.9807 487.795 27.4984 489.032 27.6868C489.266 27.7245 489.515 27.6868 489.983 27.6868L489.976 27.6793Z" fill="#BFBFBF"/>
<path d="M401.152 57.7878C401.152 55.2932 401.167 52.7911 401.145 50.2965C401.145 49.6408 401.265 49.3243 402.035 49.3394C405.205 49.3771 408.368 49.3394 411.538 49.362C413.311 49.3695 414.889 50.3493 415.379 51.8641C415.923 53.5448 415.983 55.2028 414.398 56.4614C414.089 56.7101 414.089 56.7779 414.466 56.9889C416.519 58.1119 417.236 60.1015 416.579 62.7091C415.998 65.0002 414.436 66.289 412.119 66.3116C408.768 66.3342 405.424 66.3041 402.073 66.3342C401.349 66.3342 401.137 66.078 401.145 65.3846C401.175 62.8599 401.16 60.3276 401.16 57.8029L401.152 57.7878ZM404.745 57.5843C404.745 59.1821 404.745 60.7723 404.745 62.37C404.745 62.7317 404.692 63.1387 405.243 63.1387C407.205 63.1236 409.168 63.1839 411.122 63.0558C412.194 62.988 412.964 62.3172 413.032 61.1265C413.092 59.9131 412.541 59.1067 411.364 58.7675C410.209 58.4359 409.024 58.6017 407.854 58.6093C405.764 58.6319 405.779 58.647 406.602 56.7176C406.805 56.2428 407.085 56.0846 407.56 56.0996C408.164 56.1222 408.768 56.1147 409.371 56.0846C410.941 56.0017 411.824 55.2781 411.817 54.11C411.817 52.9192 410.851 52.143 409.281 52.1053C408.013 52.0751 406.745 52.1279 405.477 52.0902C404.851 52.0676 404.722 52.3314 404.73 52.8891C404.76 54.4567 404.737 56.0167 404.737 57.5843H404.745Z" fill="white"/>
<path d="M426.17 45.0504C421.695 45.0956 418.977 43.6034 417.838 40.3929C416.909 37.7702 416.849 35.0796 417.687 32.4192C418.547 29.7061 420.517 28.1611 423.234 27.528C425.317 27.0457 427.431 27.0985 429.514 27.5431C432.246 28.1234 433.997 29.7664 434.653 32.5021C435.159 34.5973 435.303 36.7301 434.94 38.8554C434.299 42.6161 431.718 44.8017 427.71 45.0504C427.197 45.0806 426.683 45.0504 426.178 45.0504H426.17ZM430.85 36.3232C430.85 36.3232 430.819 36.3232 430.797 36.3232C430.797 35.871 430.827 35.4188 430.797 34.9741C430.578 32.2082 428.895 30.4522 426.404 30.3768C423.649 30.2939 421.808 31.854 421.461 34.6877C421.332 35.7504 421.34 36.8582 421.483 37.9209C421.876 40.8074 423.491 42.0434 426.57 41.9529C429.083 41.8776 430.563 40.3476 430.789 37.5817C430.827 37.1597 430.834 36.7377 430.85 36.3232Z" fill="#BFBFBF"/>
<path d="M474.047 57.8255C474.047 55.3309 474.069 52.8288 474.032 50.3342C474.024 49.6258 474.175 49.3243 474.967 49.3394C478.409 49.3846 481.851 49.3394 485.285 49.362C487.866 49.3771 489.655 50.9824 490.153 53.688C490.598 56.1147 489.391 58.3531 487.089 59.1821C486.326 59.4534 486.341 59.687 486.749 60.2749C487.911 61.9555 489.028 63.6738 490.153 65.3922C490.304 65.6258 490.666 65.867 490.462 66.1533C490.357 66.3041 489.972 66.2664 489.715 66.3116C487.089 66.809 485.209 65.9574 484.175 63.3875C483.881 62.6489 483.254 62.0384 482.885 61.3224C482.326 60.2372 481.624 59.5514 480.288 59.7925C479.7 59.898 479.632 59.6192 479.768 59.0464C480.13 57.5391 480.832 56.6347 482.553 56.989C482.892 57.0568 483.277 56.989 483.632 56.9287C485.149 56.695 486.047 55.7982 486.047 54.5697C486.047 53.3187 485.179 52.4369 483.579 52.3314C481.896 52.2183 480.205 52.2937 478.515 52.2711C477.813 52.2636 477.964 52.7685 477.964 53.1604C477.956 57.1623 477.934 61.1642 477.979 65.1736C477.986 66.0102 477.798 66.3342 476.892 66.3267C474.054 66.2965 474.047 66.3342 474.047 63.508C474.047 61.6088 474.047 59.7172 474.047 57.818V57.8255Z" fill="white"/>
<path d="M526.084 61.3065C526.084 62.6631 526.054 64.0121 526.099 65.3687C526.122 66.0469 525.865 66.2504 525.209 66.2429C523.005 66.2128 520.808 66.2354 518.605 66.2354C514.121 66.2354 511.374 63.7785 510.891 59.3093C510.718 57.6814 510.816 56.0686 511.344 54.4935C512.469 51.1096 514.891 49.3536 518.469 49.3536C520.673 49.3536 522.876 49.3837 525.073 49.3385C525.805 49.3234 525.986 49.5797 525.986 50.2655C525.986 52.3983 526.009 52.3908 523.91 52.3983C522.25 52.3983 520.59 52.4285 518.937 52.4285C517.714 52.4285 516.816 53.0163 516.129 53.981C514.891 55.7219 515.178 60.5302 516.612 62.1054C517.45 63.0323 521.103 63.7408 522.144 63.1755C522.567 62.9494 522.408 62.5349 522.408 62.2033C522.446 59.4525 522.439 59.3545 519.722 59.4827C518.174 59.558 518.491 58.6536 518.461 57.7869C518.431 56.8976 518.34 56.1591 519.691 56.2495C521.525 56.3776 523.367 56.3022 525.209 56.2721C525.858 56.2646 526.122 56.468 526.099 57.1539C526.054 58.5331 526.084 59.9198 526.084 61.3065V61.3065Z" fill="white"/>
<path d="M523.648 37.8758C522.169 37.8758 520.69 37.9135 519.21 37.8607C518.395 37.8306 518.305 38.1547 518.486 38.8405C518.901 40.4608 520.342 41.6214 522.033 41.629C524.025 41.6365 526.018 41.6667 528.011 41.6139C528.826 41.5913 529.029 41.8777 529.022 42.6539C528.992 44.6963 529.022 44.6963 526.977 44.6963C525.105 44.6963 523.233 44.6963 521.361 44.6963C517.097 44.6963 514.32 42.2545 513.776 38.0115C513.497 35.8183 513.716 33.678 514.704 31.6733C516.184 28.6737 518.795 27.694 521.95 27.7091C523.942 27.7166 525.935 27.7392 527.928 27.694C528.69 27.6789 528.909 27.9352 528.901 28.6813C528.886 30.8141 528.909 30.8066 526.758 30.8216C525.007 30.8292 523.256 30.8593 521.512 30.9045C520.576 30.9271 519.852 31.4019 519.263 32.0953C518.674 32.7811 518.093 33.6327 518.425 34.4542C518.697 35.1401 519.671 34.7255 520.32 34.7406C522.886 34.7858 525.452 34.7858 528.018 34.7406C528.826 34.7255 529.045 35.0044 529.029 35.7807C528.999 37.8683 529.029 37.8683 526.924 37.8683C525.837 37.8683 524.75 37.8683 523.663 37.8683L523.648 37.8758Z" fill="#BFBFBF"/>
<path d="M465.275 59.4452C463.766 59.4452 462.256 59.4678 460.747 59.4376C460.06 59.4226 459.931 59.6788 460.09 60.3119C460.52 62.0151 461.984 63.221 463.75 63.2285C465.743 63.2285 467.736 63.2511 469.721 63.221C470.377 63.2134 470.679 63.4018 470.619 64.0877C470.581 64.5323 470.588 64.992 470.619 65.4442C470.649 66.0095 470.438 66.2506 469.841 66.2431C467.245 66.2205 464.649 66.2883 462.06 66.213C458.279 66.0999 455.796 63.2737 455.343 58.7066C454.882 54.0114 457.426 49.9793 461.509 49.497C464.309 49.1654 467.169 49.3915 470.007 49.3689C470.422 49.3689 470.475 49.61 470.505 49.9492C470.661 51.5921 469.909 52.4136 468.249 52.4136C466.588 52.4136 464.928 52.3985 463.275 52.4664C461.667 52.5342 460.241 53.8983 460.007 55.4659C459.909 56.099 460.052 56.4004 460.784 56.3929C463.743 56.3627 466.694 56.4004 469.653 56.3627C470.407 56.3552 470.649 56.5964 470.634 57.3425C470.566 59.8521 470.936 59.415 468.536 59.4527C467.449 59.4678 466.362 59.4527 465.275 59.4527V59.4452Z" fill="white"/>
<path d="M539.042 59.4454C537.533 59.4454 536.023 59.468 534.522 59.4378C533.835 59.4228 533.706 59.6865 533.85 60.3121C534.227 61.955 535.722 63.2136 537.412 63.2287C539.435 63.2438 541.458 63.2513 543.473 63.2287C544.099 63.2212 544.409 63.3568 544.394 64.0728C544.318 66.6955 544.733 66.1905 542.28 66.2358C540.469 66.2659 538.657 66.2358 536.854 66.2358C532.65 66.2358 530.114 64.2084 529.299 60.0935C528.785 57.5085 529.065 54.9913 530.431 52.6851C531.714 50.5146 533.699 49.4369 536.197 49.3766C538.582 49.3163 540.967 49.3841 543.344 49.3464C544.054 49.3314 544.348 49.5424 544.265 50.2584C544.22 50.6427 544.22 51.0422 544.265 51.4265C544.348 52.1726 544.061 52.4289 543.299 52.4138C541.216 52.3837 539.133 52.3837 537.057 52.4515C535.435 52.5042 534.054 53.8156 533.752 55.4133C533.616 56.1067 533.789 56.3855 534.559 56.378C537.518 56.3403 540.469 56.3855 543.427 56.3479C544.19 56.3403 544.401 56.589 544.394 57.3276C544.378 59.4378 544.409 59.4378 542.295 59.4378C541.209 59.4378 540.122 59.4378 539.035 59.4378L539.042 59.4454Z" fill="white"/>
<path d="M429.418 59.445C427.938 59.445 426.459 59.4751 424.98 59.4374C424.233 59.4148 424.119 59.7163 424.278 60.3644C424.685 61.9923 426.195 63.2208 427.886 63.2283C429.878 63.2358 431.871 63.2584 433.856 63.2208C434.55 63.2057 434.799 63.4092 434.799 64.1327C434.799 66.2278 434.829 66.2278 432.701 66.2278C430.889 66.2278 429.078 66.2278 427.267 66.2278C422.867 66.2278 420.142 63.8538 419.591 59.4676C419.372 57.689 419.485 55.9254 420.104 54.2146C421.229 51.0794 423.659 49.3536 426.972 49.3536C429.237 49.3536 431.501 49.3837 433.757 49.3385C434.49 49.3234 434.671 49.5797 434.671 50.273C434.671 52.3983 434.693 52.3983 432.595 52.4059C430.874 52.4059 429.154 52.3908 427.44 52.4586C425.787 52.5265 424.376 53.9132 424.135 55.5335C424.036 56.1741 424.255 56.3851 424.904 56.3776C427.863 56.355 430.822 56.3927 433.773 56.355C434.565 56.3475 434.882 56.5811 434.784 57.38C434.739 57.7342 434.739 58.1035 434.784 58.4652C434.89 59.2942 434.505 59.4902 433.742 59.4676C432.293 59.4224 430.844 59.4525 429.395 59.4525L429.418 59.445Z" fill="white"/>
<path d="M486.083 36.2254C486.083 38.7577 486.068 41.2824 486.098 43.8147C486.098 44.4327 485.917 44.6437 485.283 44.6588C482.249 44.7492 482.249 44.7643 482.249 41.7798C482.249 40.7247 482.219 39.6696 482.257 38.622C482.279 38.0041 482.083 37.7704 481.442 37.778C479.54 37.8081 477.638 37.8156 475.736 37.778C475.026 37.7629 474.875 38.0643 474.883 38.6974C474.913 40.3554 474.868 42.0059 474.906 43.664C474.921 44.3799 474.747 44.6739 473.962 44.6739C471.011 44.6965 471.011 44.7191 471.011 41.7874C471.011 37.4237 471.026 33.0601 470.996 28.6889C470.996 27.8976 471.23 27.664 472.023 27.6715C474.898 27.6866 474.898 27.664 474.898 30.5278C474.898 31.5528 474.928 32.5778 474.891 33.5952C474.868 34.2358 475.125 34.4242 475.743 34.4167C477.645 34.3865 479.547 34.3865 481.449 34.4167C482.091 34.4242 482.279 34.1906 482.264 33.5726C482.234 31.8844 482.272 30.2038 482.242 28.5156C482.234 27.8976 482.43 27.6866 483.064 27.6715C486.091 27.6037 486.091 27.5886 486.091 30.6258C486.091 32.4949 486.091 34.3564 486.091 36.2254H486.083Z" fill="#BFBFBF"/>
<path d="M536.869 44.7037C535.3 44.7037 533.73 44.6735 532.16 44.7187C531.481 44.7413 531.292 44.5152 531.292 43.852C531.292 41.576 531.269 41.576 533.541 41.576C535.503 41.576 537.466 41.5835 539.428 41.576C540.711 41.5685 541.534 40.7621 541.504 39.5864C541.466 38.4031 540.605 37.7173 539.307 37.7625C538.13 37.8002 536.952 37.8228 535.775 37.7701C532.922 37.6495 531.058 35.4639 531.156 32.4041C531.247 29.593 533.216 27.6712 536.001 27.6712C538.568 27.6712 541.134 27.7013 543.7 27.6561C544.5 27.641 544.802 27.8294 544.787 28.6961C544.734 30.7837 544.787 30.7837 542.673 30.7837C541.013 30.7837 539.353 30.7837 537.692 30.7837C536.409 30.7837 535.601 31.3565 535.534 32.6829C535.473 33.8737 536.288 34.5821 537.647 34.5972C538.854 34.6047 540.062 34.5821 541.27 34.5972C544.017 34.6349 545.889 36.7602 545.866 39.7748C545.843 42.6387 543.911 44.7037 541.224 44.7112C539.775 44.7112 538.326 44.7112 536.877 44.7112L536.869 44.7037Z" fill="#BFBFBF"/>
<path d="M406.639 44.7037C405.1 44.7037 403.56 44.6736 402.02 44.7188C401.326 44.7414 401.077 44.553 401.077 43.8219C401.077 41.5761 401.054 41.5761 403.281 41.5761C405.243 41.5761 407.205 41.5836 409.168 41.5761C410.526 41.5761 411.319 40.7847 411.266 39.5412C411.213 38.3655 410.375 37.74 409.024 37.7626C407.696 37.7852 406.36 37.8304 405.047 37.7023C402.533 37.4461 400.775 35.1474 400.918 32.4343C401.069 29.5855 402.979 27.6637 405.651 27.6637C408.307 27.6637 410.964 27.6863 413.621 27.6486C414.353 27.6411 414.534 27.8898 414.534 28.5831C414.526 30.7763 414.549 30.7763 412.353 30.7763C410.692 30.7763 409.032 30.7763 407.371 30.7763C406.111 30.7838 405.326 31.4395 405.318 32.683C405.311 33.9265 406.058 34.5973 407.349 34.5897C408.587 34.5822 409.824 34.5747 411.062 34.5897C413.749 34.6349 415.681 36.7828 415.666 39.6919C415.651 42.6161 413.719 44.6886 410.994 44.7037C409.545 44.7037 408.096 44.7037 406.647 44.7037H406.639Z" fill="#BFBFBF"/>
<path d="M553.203 66.3489C551.723 66.3489 550.244 66.3112 548.765 66.364C548.017 66.3866 547.776 66.1605 547.791 65.3993C547.814 63.2288 547.791 63.2288 549.98 63.2288C551.912 63.2288 553.844 63.2363 555.776 63.2288C557.157 63.2212 557.988 62.46 557.973 61.2617C557.957 60.0634 557.12 59.355 555.723 59.3625C554.516 59.3625 553.308 59.3851 552.101 59.3625C549.504 59.3098 547.625 57.192 547.625 54.3508C547.625 51.502 549.489 49.3767 552.093 49.3315C554.81 49.2938 557.527 49.3465 560.237 49.3013C561.029 49.2862 561.195 49.5952 561.195 50.3037C561.195 52.4365 561.218 52.4365 559.127 52.4365C557.406 52.4365 555.686 52.429 553.965 52.4365C552.682 52.444 551.957 53.1374 551.987 54.3884C552.01 55.5943 552.735 56.2424 553.98 56.2349C555.188 56.2349 556.395 56.2198 557.603 56.2349C560.342 56.2575 562.297 58.33 562.327 61.2241C562.358 64.103 560.433 66.2584 557.723 66.3338C556.214 66.379 554.704 66.3338 553.195 66.3413L553.203 66.3489Z" fill="white"/>
<path d="M452.438 33.8286C452.438 35.0947 452.438 36.3533 452.438 37.6194C452.438 42.5785 449.638 45.2539 444.611 45.0881C439.539 44.9299 437.003 42.3147 437.003 37.2502C437.003 34.3637 437.018 31.4772 436.988 28.5832C436.988 27.8747 437.215 27.6562 437.924 27.6562C440.747 27.6487 440.747 27.626 440.747 30.3919C440.747 32.8865 440.732 35.3886 440.747 37.8832C440.77 40.1969 442.158 41.3726 444.823 41.4028C447.328 41.4254 448.8 40.1819 448.845 37.9058C448.898 34.8686 448.921 31.8314 448.898 28.7942C448.898 27.9577 449.079 27.6411 449.985 27.6562C452.43 27.7014 452.43 27.6562 452.43 30.1282C452.43 31.3642 452.43 32.5926 452.43 33.8286H452.438Z" fill="#BFBFBF"/>
<path d="M507.222 66.2283C505.804 66.7031 505.003 65.8439 504.732 64.3291C504.437 62.6786 503.509 62.0756 501.901 62.3922C501.668 62.4374 501.418 62.4148 501.177 62.3922C500.475 62.3243 499.169 62.5731 499.169 62.249C499.162 61.3446 499.547 60.3724 500.007 59.5509C500.354 58.9329 501.177 59.3022 501.773 59.3022C502.543 59.3022 502.815 59.1967 502.452 58.3677C501.909 57.1317 501.471 55.843 500.981 54.5844C500.883 54.3432 500.739 54.1171 500.618 53.8835C500.49 54.1096 500.332 54.3281 500.241 54.5693C498.935 58.0964 497.615 61.6235 496.354 65.1656C496.067 65.972 495.667 66.2584 494.792 66.2433C491.773 66.1906 491.773 66.2283 492.867 63.4548C494.399 59.566 495.931 55.6696 497.456 51.7732C498.015 50.3488 498.815 49.1656 500.535 49.1505C502.218 49.1355 503.034 50.2885 503.607 51.6602C505.441 56.0464 507.215 60.4628 509.109 64.8265C509.645 66.0549 509.404 66.4091 508.128 66.2283C507.924 66.1981 507.705 66.2283 507.23 66.2283H507.222Z" fill="white"/>
<path d="M438.919 49.3544C440.346 48.8796 440.942 49.7991 441.44 51.2461C442.587 54.5697 443.916 57.8405 445.176 61.1265C445.252 61.3149 445.365 61.6239 445.478 61.6389C445.78 61.6616 445.765 61.3224 445.84 61.1189C447.161 57.5315 448.512 53.9592 449.773 50.3493C450.059 49.5353 450.459 49.3318 451.267 49.3394C454.278 49.3846 454.278 49.3544 453.199 52.1203C451.667 56.0469 450.135 59.9658 448.61 63.8924C448.059 65.3017 447.229 66.4472 445.576 66.4548C443.916 66.4623 443.093 65.3092 442.52 63.915C440.701 59.491 438.912 55.052 437.025 50.6507C436.534 49.5052 436.723 49.166 437.931 49.3469C438.165 49.3846 438.414 49.3469 438.919 49.3469V49.3544Z" fill="white"/>
<path d="M554.432 27.7169C556.756 27.7169 559.073 27.747 561.398 27.7018C562.16 27.6867 562.372 27.9354 562.364 28.6816C562.334 30.8295 562.364 30.8144 560.243 30.8295C558.983 30.837 557.307 30.4225 556.575 31.0631C555.753 31.7791 556.334 33.4974 556.319 34.7711C556.281 37.748 556.288 40.7249 556.319 43.7018C556.326 44.4555 556.145 44.7569 555.315 44.7494C552.379 44.7343 552.379 44.7645 552.379 41.8554C552.379 38.5167 552.356 35.178 552.394 31.8394C552.401 31.0706 552.205 30.7616 551.39 30.7993C550.069 30.8596 548.733 30.7842 547.413 30.8295C546.718 30.8521 546.469 30.641 546.477 29.9175C546.477 27.7018 546.454 27.7018 548.643 27.7018C550.575 27.7018 552.5 27.7018 554.432 27.7018V27.7169Z" fill="#BFBFBF"/>
<path d="M461.778 27.6789C463.982 27.6789 466.179 27.709 468.382 27.6638C469.13 27.6487 469.447 27.8673 469.364 28.6285C469.318 29.043 469.326 29.4726 469.364 29.8871C469.416 30.5428 469.175 30.799 468.488 30.7764C467.099 30.7312 465.711 30.799 464.329 30.7538C463.635 30.7312 463.461 30.9949 463.469 31.6431C463.492 35.645 463.454 39.6468 463.499 43.6487C463.507 44.4928 463.243 44.7114 462.42 44.7038C459.597 44.6737 459.597 44.7038 459.597 41.8852C459.597 38.4862 459.582 35.0873 459.612 31.6883C459.612 30.9949 459.446 30.7236 458.707 30.7613C457.476 30.8141 456.231 30.7462 455.001 30.7915C454.322 30.8141 454.133 30.5804 454.133 29.9172C454.133 27.694 454.103 27.694 456.352 27.694C458.163 27.694 459.967 27.694 461.778 27.694V27.6789Z" fill="#BFBFBF"/>
</g>
<defs>
<clipPath id="clip0_5_18227">
<rect width="161.455" height="39.2727" fill="white" transform="translate(400.91 27.1816)"/>
</clipPath>
</defs>
</svg>
