<svg width="563" height="90" viewBox="0 0 563 90" fill="none" xmlns="http://www.w3.org/2000/svg">
<path d="M77.7999 31.0063L95.2004 14.1808C97.3287 12.1177 99.5536 14.1808 99.5536 14.1808L104.378 18.8522L113 10.525C110.013 7.62813 107.365 5.0733 105.999 3.75848C97.2924 -4.65423 88.6828 3.68365 88.6828 3.68365L66.9292 24.7101C58.1382 33.2084 66.8445 41.6104 66.8445 41.6104L87.5099 61.5892C87.5099 61.5892 88.5982 62.6368 89.9041 61.3861C90.3878 60.9158 90.811 60.5095 90.811 58.4144C90.811 57.0461 90.811 47.7782 90.811 47.7782L77.812 35.2287C75.5871 33.08 77.812 31.0276 77.812 31.0276" fill="#DF1E40"/>
<path d="M123.923 22L115.255 30.2947L116.228 31.2317C118.368 33.2867 116.228 35.4163 116.228 35.4163L103.001 48.1085C103.001 48.1085 103.013 56.6587 103.001 58.0322C102.977 60.1938 103.451 60.8965 103.986 61.3969C105.299 62.6534 106.441 61.5567 106.441 61.5567C106.441 61.5567 122.878 45.8192 127.169 41.7091C135.838 33.4145 127.084 25.0347 127.084 25.0347C127.084 25.0347 125.832 23.8421 123.923 22.0107" fill="#DF1E40"/>
<path d="M159.39 40.8481C158.922 40.393 158.513 40 156.408 40C155.039 40 145.765 40 145.765 40L133.216 52.1521C131.075 54.2308 129.005 52.1521 129.005 52.1521L124.421 47.7153L116 55.8546L122.69 62.3288C131.192 70.5405 139.601 62.4115 139.601 62.4115L159.589 43.0819C159.589 43.0819 160.641 42.0684 159.378 40.8481" fill="#71251E"/>
<path d="M111.633 36.4968L110.667 35.5472C108.54 33.4645 110.667 31.3063 110.667 31.3063L113.131 28.8999L121.747 20.4938L128.066 14.3213C130.192 12.2386 132.416 14.3213 132.416 14.3213L145.586 27.1626C145.586 27.1626 154.455 27.141 155.881 27.1626C158.128 27.1842 158.853 26.7201 159.373 26.213C160.678 24.9396 159.542 23.8281 159.542 23.8281C159.542 23.8281 143.206 7.87914 138.94 3.71383C130.325 -4.69233 121.626 3.80011 121.626 3.80011C121.626 3.80011 117.711 7.62011 113.144 12.0876C110.268 14.8932 107.126 17.9579 104.528 20.4938L99.8886 25.026C91.1889 33.5185 99.804 41.9246 99.804 41.9246L102.958 45L111.645 36.5075L111.633 36.4968Z" fill="#71251E"/>
<path d="M38.9348 89.1734H45.2882V86.3694L39.4317 86.2866C37.4796 86.2866 36.7579 83.8375 36.6278 81.6724C36.4858 79.318 37.1128 76.3839 39.2661 76.3839H45.2172V73.3906H39.4791C38.3788 73.3906 37.6926 73.5444 36.6987 73.9822C31.8006 76.1709 31.9663 87.1621 37.0182 88.8184C37.7162 89.0551 38.1776 89.1616 38.923 89.1616" fill="#DF1E40"/>
<path d="M0 89.1615L5.14654 75.3781C5.14654 75.3781 5.90373 73.4023 7.65474 73.4023C9.40575 73.4023 10.1511 75.3545 10.1511 75.3545L15.6053 89.1733H12.0204L10.7309 85.6003H6.28234L7.25249 82.82H9.70155L7.70208 77.3421L5.83275 82.82L5.56064 83.6008L5.06373 84.9732L4.7916 85.8132L3.54935 89.1851H0.0118247L0 89.1615Z" fill="#DF1E40"/>
<path d="M17.332 73.3555H27.637C27.637 73.3555 31.3165 73.4974 31.6004 78.0879C31.6004 78.0879 31.8607 81.8857 28.0156 82.7612L32.0263 89.1737H27.9919L24.2888 83.0688H22.2065L23.1056 80.5369H25.2944C25.2944 80.5369 27.9919 80.466 28.0037 78.2181C28.0037 75.9701 25.4245 76.0292 25.4245 76.0292H20.7631V89.1737H17.3557V73.3555" fill="#DF1E40"/>
<path d="M47.0625 89.1263L52.209 75.343C52.209 75.343 52.9662 73.3672 54.7173 73.3672C56.4683 73.3672 57.2018 75.3194 57.2018 75.3194L62.656 89.1381H59.0711L57.7815 85.5651H53.333L54.3032 82.7967H56.764L54.7646 77.3188L52.8953 82.7967L52.6231 83.5656L52.1262 84.9381L51.8541 85.7781L50.6118 89.15H47.0743L47.0625 89.1263Z" fill="#DF1E40"/>
<path d="M213.848 73.5918H210.145V83.5773C210.145 84.6658 210.239 85.3284 210.641 86.2867C211.742 88.8185 214.179 89.3509 216.817 89.3509H221.999V86.7954H217.397C216.202 86.7954 215.22 86.6416 214.475 85.6359C214.001 84.9615 213.836 84.37 213.836 83.4709V73.5918H213.848Z" fill="#71251E"/>
<path d="M181.371 76.1476H186.636V89.1737H189.972V76.1476H195.332V73.4619H181.371V76.1476Z" fill="#71251E"/>
<path d="M164.465 89.138H167.872L167.813 77.6382L174.794 89.1972H179.372V73.3789H175.87V85.1982L169.056 73.3789H164.441L164.465 89.138Z" fill="#71251E"/>
<path d="M155.498 89.0427H162.491V86.3097H156.196C155.214 86.3097 154.564 85.8483 153.937 85.0674C153.333 84.3457 153.097 83.6714 153.097 82.6657H162.491V79.8854H153.049C153.002 78.7732 153.286 77.9806 153.972 77.1997C154.67 76.4189 155.392 76.1231 156.409 76.1231H162.408V73.3428H155.912C154.516 73.3428 153.629 73.5202 152.375 74.2183C147.962 76.7501 147.903 85.8483 152.375 88.2263C153.499 88.8179 154.256 89.0309 155.498 89.0309" fill="#71251E"/>
<path d="M132.344 89.138H135.751L135.692 77.6382L142.673 89.1972H147.251V73.3789H143.749V85.1982L136.934 73.3789H132.32L132.344 89.138Z" fill="#71251E"/>
<path d="M130.31 73.2607H126.477V89.0199H130.31V73.2607Z" fill="#71251E"/>
<path d="M110.75 76.1476H116.003V89.1737H119.339V76.1476H124.699V73.4619H110.75V76.1476Z" fill="#71251E"/>
<path d="M93.8088 89.138H97.228L97.1689 77.6382L104.149 89.1972H108.716V73.3789H105.226V85.1982L98.4111 73.3789H93.7852L93.8088 89.138Z" fill="#71251E"/>
<path d="M68.548 89.1734H74.9013V86.3694L69.0449 86.2866C67.081 86.2866 66.3711 83.8375 66.2528 81.6724C66.1108 79.318 66.7378 76.3839 68.8911 76.3839H74.8422V73.3906H69.1041C68.0038 73.3906 67.3294 73.5444 66.3238 73.9822C61.4257 76.1709 61.5913 87.1621 66.6432 88.8184C67.3412 89.0551 67.8026 89.1616 68.548 89.1616" fill="#71251E"/>
<path d="M193.902 89.1263L199.049 75.343C199.049 75.343 199.806 73.3672 201.557 73.3672C203.308 73.3672 204.053 75.3194 204.053 75.3194L209.508 89.1381H205.923L204.633 85.5651H200.185L201.155 82.7967H203.604L201.604 77.3188L199.735 82.7967L199.463 83.5656L198.966 84.9381L198.694 85.7781L197.452 89.15H193.914L193.902 89.1263Z" fill="#71251E"/>
<path d="M84.3898 86.7478C80.3317 86.7951 79.894 83.9083 79.8703 81.1517C79.8467 78.5962 80.9351 75.8869 84.0704 75.7922C87.1938 75.7212 88.4243 78.2649 88.4243 81.1517C88.4243 84.0385 87.7854 86.7241 84.3898 86.7478M92.0683 81.2582C91.9263 76.1826 90.4474 73 84.2124 73C78.6162 73 76.25 76.4074 76.25 81.0925C76.25 87.2329 79.1723 89.5873 84.2597 89.5755C88.4361 89.5755 92.2339 87.8718 92.0564 81.27" fill="#71251E"/>
<path d="M317.547 32.9092H312.963L310.379 37.1058H314.962L317.547 32.9092Z" fill="#F40009"/>
<path d="M304.179 68.7815C300.53 66.2122 296.078 65.0724 292.033 65.2371C287.943 65.4018 286.108 68.4587 286.108 68.4587C284.26 65.2371 280.617 63.2607 274.982 63.3068C265.887 63.4122 256.851 67.622 249.703 67.622C242.555 67.622 237.84 63.3068 238.004 55.6317C238.294 42.1855 249.631 30.0635 258.114 24.6086C262.987 21.4727 267.064 20.5438 269.734 20.8403C271.68 21.0577 274.028 23.3108 272.548 26.6312C270.378 31.4997 267.386 31.0913 267.491 28.7657C267.557 27.257 268.557 26.3083 269.313 25.7879C269.793 25.4519 270.641 25.3597 271.082 25.3531C271.509 24.9907 271.838 22.3292 268.346 23.2054C264.854 24.0816 260.659 27.5205 256.647 31.9477C252.643 36.3749 246.408 44.7746 244.87 53.5763C244.153 57.6609 244.633 65.1054 254.293 65.0197C262.48 64.9473 274.567 59.545 285.661 59.6439C289.968 59.6834 293.717 60.8429 296.643 62.6546C299.523 64.44 302.969 67.0225 304.186 68.7881M306.81 44.4057H308.487C308.487 44.4057 300.076 56.587 295.321 56.0336C292.665 55.724 293.454 52.4431 293.454 52.4431C293.454 52.4431 289.719 56.8176 286.312 55.9414C283.208 55.1442 285.207 49.9726 285.207 49.9726C284.852 50.1176 278.138 57.707 273.423 55.8887C268.484 53.9847 271.042 47.6273 271.983 45.7233C272.779 44.1092 273.653 42.5413 273.653 42.5413C273.653 42.5413 272.897 42.7587 272.423 42.8641C271.957 42.9761 271.24 43.1145 271.24 43.1145C271.24 43.1145 268.905 46.9223 267.478 48.8197C266.051 50.7171 259.981 57.2458 256.411 55.948C252.833 54.6435 253.714 49.6366 255.727 45.6574C258.982 39.2012 266.709 31.2626 271.365 32.455C276.067 33.654 272.18 41.3027 272.18 41.3027C272.18 41.3027 273.114 41.4213 275.356 39.8929C278.585 37.6859 282.84 31.7501 287.456 32.4418C289.626 32.7646 291.639 34.998 288.883 39.2275C287.996 40.5846 286.516 41.8034 285.378 40.6044C284.675 39.86 285.286 38.4962 286.029 37.5673C287.075 36.2497 288.522 36.4276 288.522 36.4276C288.522 36.4276 289.278 34.6752 287.345 34.7081C285.773 34.7344 281.801 38.404 279.558 42.1065C277.5 45.5059 274.39 51.3034 277.52 52.5617C280.394 53.7212 285.845 47.2254 288.37 43.826C290.896 40.4265 296.65 32.7119 301.477 32.3957C303.14 32.2903 304.133 33.8055 304.133 33.8055L304.692 32.9161H309.513C309.513 32.9161 300.418 48.1345 299.708 49.2875C299.149 50.19 298.406 52.2191 300.464 51.0794C302.522 49.9397 306.803 44.4255 306.803 44.4255M269.359 42.8839C269.273 42.8509 268.057 42.5018 266.873 41.7441C265.69 40.9865 265.137 39.8534 265.098 39.7809C265.052 39.7018 265.006 39.7611 264.96 39.827C264.914 39.8929 264.657 40.2223 262.934 42.7521C261.211 45.2819 258.66 50.4667 261.053 51.3561C262.586 51.9227 265.15 49.2282 266.544 47.4494C267.833 45.7958 269.372 43.2528 269.438 43.1013C269.504 42.9498 269.438 42.9168 269.359 42.8839M271.266 34.7937C270.003 33.8319 266.781 36.0784 266.761 38.371C266.748 40.723 269.675 41.3884 270.049 41.4082C270.049 41.4082 270.378 41.5004 270.51 41.2171C270.589 41.0458 270.99 40.3079 271.437 39.1419C271.884 37.9758 272.443 35.6897 271.266 34.7937ZM295.861 47.4626C297.807 44.7878 303.186 35.4064 303.186 35.4064C303.186 35.4064 303.094 34.7476 302.47 34.7213C301.727 34.6883 300.49 34.9387 298.018 38.0285C295.545 41.1249 293.644 43.5888 292.25 46.145C290.725 48.9383 290.054 50.9081 290.935 51.4418C291.185 51.5933 291.553 51.613 291.856 51.534C292.434 51.389 293.178 50.8159 294.203 49.63C294.684 49.0766 295.229 48.3322 295.867 47.4626M385.21 25.3926C381.823 27.5732 377.128 29.5562 372.617 29.1148C371.479 30.3007 370.256 31.6644 369.026 33.1599C376.852 34.7081 383.697 29.8527 387.334 25.7154C389.609 23.1329 390.727 20.8337 390.727 20.8337C390.727 20.8337 388.557 23.2317 385.203 25.3926M371.795 61.001C371.144 62.0419 370.414 64.0315 372.551 62.793C375.162 61.2777 378.877 55.6317 378.877 55.6317H380.554C380.554 55.6317 378.338 59.1432 375.451 62.3516C372.807 65.2898 369.579 67.958 367.31 67.6945C364.653 67.3848 365.488 63.8932 365.488 63.8932C365.488 63.8932 361.681 67.9448 359.063 67.6549C355.519 67.2597 356.597 62.8654 356.597 62.8654C356.597 62.8654 352.593 67.8065 349.857 67.6549C345.569 67.4112 346.641 62.1671 347.838 58.5041C348.476 56.5409 349.068 54.9927 349.068 54.9927C349.068 54.9927 348.64 55.1047 347.726 55.2365C347.253 55.3089 346.378 55.3551 346.378 55.3551C346.378 55.3551 344.596 58.5107 343.169 60.4147C341.742 62.3186 335.672 68.8474 332.101 67.543C328.8 66.3373 329.885 61.2711 331.812 57.2458C334.614 51.3759 342.505 42.9432 347.055 44.05C351.771 45.1963 347.167 53.82 347.167 53.82C347.167 53.82 347.167 53.853 347.22 53.8727C347.312 53.9123 347.555 53.932 348.127 53.8266C349.035 53.6553 349.85 53.3128 349.85 53.3128C349.85 53.3128 354.592 43.3648 359.826 36.8492C365.061 30.3402 375.51 19.1274 379.614 21.8351C380.62 22.5005 380.16 24.7997 378.811 27.5864C378.213 27.7775 377.595 27.9422 376.957 28.0739C377.858 26.4269 378.463 25.0434 378.634 24.0816C379.245 20.7151 371.413 27.8104 365.817 35.4394C360.221 43.0749 356.86 49.9858 356.86 49.9858C356.86 49.9858 357.992 49.3467 359.747 47.9237C361.582 46.4414 364.114 44.1093 366.863 41.2632C368.711 39.3527 370.881 36.948 372.913 34.2601C373.518 34.2272 374.116 34.1679 374.695 34.0756C372.426 37.1391 370.039 39.9324 368.02 41.9879C365.791 44.2476 363.371 46.6918 361.266 48.4639C357.926 51.2836 355.341 52.8779 355.341 52.8779C355.341 52.8779 350.436 62.7666 353.105 63.4056C354.671 63.7812 357.761 59.0048 357.761 59.0048C357.761 59.0048 361.792 52.8318 364.226 50.0583C367.547 46.2701 370.401 44.0895 373.255 44.0434C374.918 44.017 375.905 45.7892 375.905 45.7892L376.687 44.577H381.508C381.508 44.577 372.512 59.8745 371.795 61.0274M344.695 55.0059C344.609 54.9729 343.564 54.4986 342.479 53.5894C341.393 52.6869 340.848 51.646 340.808 51.5669C340.762 51.4879 340.716 51.5472 340.67 51.613C340.624 51.6789 340.427 51.8502 338.704 54.38C336.981 56.9098 334.35 62.1342 336.744 63.0235C338.276 63.5901 340.821 60.9088 342.209 59.13C343.498 57.4764 344.708 55.3748 344.774 55.2233C344.839 55.0718 344.78 55.0388 344.695 55.0059M347.128 50.7368C347.575 49.5707 348.134 47.2847 346.957 46.3887C345.694 45.4334 342.472 47.6734 342.452 49.966C342.432 52.318 344.721 53.3786 345.273 53.5236C345.589 53.6092 345.694 53.596 345.845 53.3457C345.944 53.181 346.681 51.9029 347.121 50.7368M374.8 47.5087C374.899 47.3374 374.945 47.1859 374.945 47.1859C374.945 47.1859 374.853 46.5271 374.228 46.5007C373.485 46.4678 372.465 46.6061 369.802 49.5642C367.152 52.509 365.541 55.0652 364.147 57.6213C362.621 60.4147 362.01 62.4965 362.884 63.0301C363.134 63.1817 363.502 63.2014 363.805 63.1224C364.403 62.9774 365.067 62.424 366.1 61.2382C366.58 60.6848 367.113 59.8942 367.75 59.018C369.506 56.6134 373.925 49.0371 374.807 47.5153M385.203 25.4321C381.817 27.6128 377.121 29.5958 372.61 29.1544C371.472 30.3402 370.249 31.704 369.02 33.1994C376.845 34.7476 383.691 29.8922 387.327 25.7549C389.603 23.1724 390.721 20.8732 390.721 20.8732C390.721 20.8732 388.551 23.2712 385.197 25.4321M363.213 31.1176C359.511 29.2203 356.808 26.9013 353.993 25.4519C351.304 24.0684 349.568 23.4952 347.404 23.7851C347.042 23.8312 346.51 24.0091 346.51 24.0091C346.51 24.0091 347.634 27.8302 343.189 34.2601C338.684 40.7691 334.6 40.7362 333.436 38.9376C332.22 37.0469 333.785 33.1994 336.409 29.7737C339.158 26.1898 343.978 23.212 343.978 23.212C343.978 23.212 342.439 22.2699 338.658 24.4176C334.975 26.506 328.616 31.4865 322.744 39.8797C316.871 48.2729 315.694 52.8911 314.846 56.5277C313.997 60.1643 314.773 64.0513 318.798 64.0513C322.823 64.0513 327.498 57.898 328.82 55.7635C331.273 51.7843 332.871 45.6772 329.53 46.5139C327.88 46.9289 326.551 48.7604 325.709 50.5128C324.848 52.318 324.5 54.044 324.5 54.044C324.5 54.044 323.112 54.5447 321.238 55.9414C319.37 57.3446 318.147 58.682 318.147 58.682C318.147 58.682 318.16 55.7767 320.468 51.0728C322.783 46.369 327.025 44.2147 329.425 44.017C331.589 43.8391 334.41 45.6838 332.023 52.4827C329.642 59.2815 322.599 67.5298 315.194 67.6418C308.362 67.7406 303.883 59.0048 313.386 43.7667C323.894 26.9078 336.244 21.7362 340.256 21.1565C344.267 20.5767 345.563 22.3489 345.563 22.3489C345.563 22.3489 348.923 20.7941 353.184 21.084C358.077 21.4134 361.865 24.8853 366.856 27.3163C365.554 28.5812 364.311 29.8856 363.193 31.1044M344.964 24.4966C344.964 24.4966 342.104 25.6429 338.776 29.3191C335.436 33.0084 333.509 37.1325 334.949 38.2261C335.501 38.6478 336.764 38.7136 339.079 36.6318C340.881 35.0112 342.715 32.8898 343.958 29.8461C345.451 26.2029 344.971 24.5362 344.971 24.49" fill="#F40009"/>
<path d="M378.291 64.3409C378.568 64.4991 378.778 64.7099 378.936 64.9734C379.094 65.2435 379.173 65.5334 379.173 65.8496C379.173 66.1658 379.094 66.4623 378.936 66.7258C378.778 66.9893 378.561 67.2067 378.291 67.3583C378.015 67.5164 377.713 67.5888 377.377 67.5888C377.042 67.5888 376.739 67.5098 376.463 67.3583C376.187 67.2001 375.977 66.9893 375.819 66.7258C375.661 66.4623 375.582 66.1658 375.582 65.8496C375.582 65.5334 375.661 65.2435 375.819 64.9734C375.977 64.7033 376.194 64.4925 376.463 64.3409C376.739 64.1828 377.042 64.1104 377.377 64.1104C377.713 64.1104 378.015 64.1894 378.291 64.3409M378.114 67.075C378.331 66.9564 378.495 66.7851 378.614 66.5743C378.732 66.3635 378.791 66.1197 378.791 65.8496C378.791 65.5795 378.732 65.3489 378.614 65.1315C378.495 64.9207 378.324 64.7494 378.107 64.6308C377.89 64.5122 377.647 64.4463 377.371 64.4463C377.095 64.4463 376.851 64.5056 376.641 64.6308C376.424 64.7494 376.259 64.9207 376.134 65.1315C376.016 65.3423 375.957 65.5861 375.957 65.8496C375.957 66.1131 376.016 66.3569 376.134 66.5743C376.253 66.7851 376.417 66.9564 376.634 67.075C376.851 67.1936 377.095 67.2594 377.371 67.2594C377.647 67.2594 377.89 67.2001 378.107 67.075M378.048 65.8232C377.995 65.9089 377.923 65.9682 377.831 66.0143L378.245 66.627H377.785L377.417 66.0538H377.114V66.627H376.713V65.0459H377.627C377.778 65.0459 377.903 65.092 377.995 65.1908C378.088 65.2896 378.134 65.4016 378.134 65.5465C378.134 65.6454 378.107 65.7376 378.055 65.8232M377.114 65.6981H377.548C377.601 65.6981 377.64 65.6849 377.673 65.6585C377.706 65.6322 377.719 65.5927 377.719 65.5465C377.719 65.5004 377.706 65.4609 377.673 65.4346C377.64 65.4082 377.601 65.395 377.548 65.395H377.114V65.6981V65.6981Z" fill="#F40009"/>
<g clip-path="url(#clip0_5_18180)">
<path d="M489.976 27.1041C491.304 26.7046 491.885 27.4507 492.285 28.8902C493.146 32.0179 494.21 35.0928 495.199 38.1827C495.266 38.4013 495.402 38.5897 495.5 38.8007C495.599 38.5972 495.727 38.4013 495.787 38.1827C496.58 35.4997 497.319 32.8017 498.157 30.1337C498.61 28.7018 499.085 27.0814 500.98 27.0513C502.859 27.0212 503.32 28.649 503.803 30.0207C504.701 32.6057 505.478 35.2284 506.316 37.836C506.414 38.1375 506.565 38.4239 506.693 38.7178C507.025 38.5294 506.995 38.1676 507.086 37.8662C508.007 34.7235 508.965 31.5883 509.818 28.4229C510.09 27.4131 510.49 27.0287 511.592 27.0739C514.014 27.1719 514.022 27.1041 513.29 29.4027C511.954 33.5855 510.625 37.7682 509.267 41.9434C508.859 43.187 508.248 44.3702 506.723 44.4003C505.199 44.4229 504.572 43.2548 504.135 42.0113C503.169 39.2906 502.225 36.5624 501.267 33.8417C501.199 33.6457 501.093 33.3066 501.003 33.3066C500.686 33.2991 500.731 33.6457 500.663 33.8492C499.787 36.5398 498.935 39.2303 498.059 41.9208C497.651 43.1719 497.04 44.3476 495.538 44.4003C494.006 44.4531 493.365 43.2849 492.927 42.0489C491.319 37.512 489.764 32.9599 488.127 28.438C487.757 27.4055 487.795 26.9232 489.032 27.1116C489.266 27.1493 489.515 27.1116 489.983 27.1116L489.976 27.1041Z" fill="#71251E"/>
<path d="M401.152 57.2126C401.152 54.718 401.167 52.2159 401.145 49.7213C401.145 49.0656 401.265 48.7491 402.035 48.7642C405.205 48.8019 408.368 48.7642 411.538 48.7868C413.311 48.7943 414.889 49.7741 415.379 51.2889C415.923 52.9696 415.983 54.6276 414.398 55.8862C414.089 56.1349 414.089 56.2027 414.466 56.4137C416.519 57.5367 417.236 59.5263 416.579 62.1339C415.998 64.425 414.436 65.7138 412.119 65.7364C408.768 65.759 405.424 65.7289 402.073 65.759C401.349 65.759 401.137 65.5028 401.145 64.8094C401.175 62.2847 401.16 59.7524 401.16 57.2277L401.152 57.2126ZM404.745 57.0091C404.745 58.6069 404.745 60.1971 404.745 61.7948C404.745 62.1566 404.692 62.5635 405.243 62.5635C407.205 62.5485 409.168 62.6087 411.122 62.4806C412.194 62.4128 412.964 61.742 413.032 60.5513C413.092 59.3379 412.541 58.5315 411.364 58.1924C410.209 57.8607 409.024 58.0266 407.854 58.0341C405.764 58.0567 405.779 58.0718 406.602 56.1424C406.805 55.6676 407.085 55.5094 407.56 55.5244C408.164 55.547 408.768 55.5395 409.371 55.5094C410.941 55.4265 411.824 54.703 411.817 53.5348C411.817 52.344 410.851 51.5678 409.281 51.5301C408.013 51.4999 406.745 51.5527 405.477 51.515C404.851 51.4924 404.722 51.7562 404.73 52.3139C404.76 53.8815 404.737 55.4415 404.737 57.0091H404.745Z" fill="#DF1E40"/>
<path d="M426.17 44.4752C421.695 44.5204 418.977 43.0282 417.838 39.8177C416.909 37.195 416.849 34.5044 417.687 31.844C418.547 29.1309 420.517 27.5859 423.234 26.9529C425.317 26.4705 427.431 26.5233 429.514 26.9679C432.246 27.5482 433.997 29.1912 434.653 31.9269C435.159 34.0221 435.303 36.1549 434.94 38.2802C434.299 42.0409 431.718 44.2265 427.71 44.4752C427.197 44.5054 426.683 44.4752 426.178 44.4752H426.17ZM430.85 35.748C430.85 35.748 430.819 35.748 430.797 35.748C430.797 35.2958 430.827 34.8436 430.797 34.3989C430.578 31.633 428.895 29.877 426.404 29.8017C423.649 29.7188 421.808 31.2788 421.461 34.1125C421.332 35.1752 421.34 36.283 421.483 37.3457C421.876 40.2322 423.491 41.4682 426.57 41.3777C429.083 41.3024 430.563 39.7724 430.789 37.0066C430.827 36.5845 430.834 36.1625 430.85 35.748Z" fill="#71251E"/>
<path d="M474.047 57.2503C474.047 54.7557 474.069 52.2536 474.032 49.759C474.024 49.0506 474.175 48.7491 474.967 48.7642C478.409 48.8094 481.851 48.7642 485.285 48.7868C487.866 48.8019 489.655 50.4072 490.153 53.1128C490.598 55.5395 489.391 57.7779 487.089 58.6069C486.326 58.8782 486.341 59.1118 486.749 59.6997C487.911 61.3803 489.028 63.0986 490.153 64.817C490.304 65.0506 490.666 65.2918 490.462 65.5782C490.357 65.7289 489.972 65.6912 489.715 65.7364C487.089 66.2338 485.209 65.3822 484.175 62.8123C483.881 62.0737 483.254 61.4632 482.885 60.7473C482.326 59.662 481.624 58.9762 480.288 59.2173C479.7 59.3229 479.632 59.044 479.768 58.4712C480.13 56.9639 480.832 56.0595 482.553 56.4138C482.892 56.4816 483.277 56.4138 483.632 56.3535C485.149 56.1198 486.047 55.223 486.047 53.9945C486.047 52.7435 485.179 51.8617 483.579 51.7562C481.896 51.6432 480.205 51.7185 478.515 51.6959C477.813 51.6884 477.964 52.1933 477.964 52.5852C477.956 56.5871 477.934 60.589 477.979 64.5984C477.986 65.435 477.798 65.759 476.892 65.7515C474.054 65.7213 474.047 65.759 474.047 62.9328C474.047 61.0336 474.047 59.142 474.047 57.2428V57.2503Z" fill="#DF1E40"/>
<path d="M526.084 60.7313C526.084 62.0879 526.054 63.4369 526.099 64.7935C526.122 65.4718 525.865 65.6752 525.209 65.6677C523.005 65.6376 520.808 65.6602 518.605 65.6602C514.121 65.6602 511.374 63.2033 510.891 58.7341C510.718 57.1062 510.816 55.4934 511.344 53.9183C512.469 50.5344 514.891 48.7784 518.469 48.7784C520.673 48.7784 522.876 48.8085 525.073 48.7633C525.805 48.7482 525.986 49.0045 525.986 49.6903C525.986 51.8231 526.009 51.8156 523.91 51.8231C522.25 51.8231 520.59 51.8533 518.937 51.8533C517.714 51.8533 516.816 52.4411 516.129 53.4058C514.891 55.1467 515.178 59.955 516.612 61.5302C517.45 62.4572 521.103 63.1656 522.144 62.6003C522.567 62.3742 522.408 61.9597 522.408 61.6281C522.446 58.8773 522.439 58.7793 519.722 58.9075C518.174 58.9828 518.491 58.0784 518.461 57.2117C518.431 56.3224 518.34 55.5839 519.691 55.6743C521.525 55.8024 523.367 55.727 525.209 55.6969C525.858 55.6894 526.122 55.8929 526.099 56.5787C526.054 57.9579 526.084 59.3446 526.084 60.7313V60.7313Z" fill="#DF1E40"/>
<path d="M523.648 37.3006C522.169 37.3006 520.69 37.3383 519.21 37.2855C518.395 37.2554 518.305 37.5795 518.486 38.2653C518.901 39.8856 520.342 41.0462 522.033 41.0538C524.025 41.0613 526.018 41.0915 528.011 41.0387C528.826 41.0161 529.029 41.3025 529.022 42.0788C528.992 44.1211 529.022 44.1211 526.977 44.1211C525.105 44.1211 523.233 44.1211 521.361 44.1211C517.097 44.1211 514.32 41.6793 513.776 37.4363C513.497 35.2431 513.716 33.1028 514.704 31.0981C516.184 28.0985 518.795 27.1188 521.95 27.1339C523.942 27.1414 525.935 27.164 527.928 27.1188C528.69 27.1037 528.909 27.36 528.901 28.1061C528.886 30.2389 528.909 30.2314 526.758 30.2464C525.007 30.254 523.256 30.2841 521.512 30.3293C520.576 30.3519 519.852 30.8267 519.263 31.5201C518.674 32.2059 518.093 33.0576 518.425 33.879C518.697 34.5649 519.671 34.1503 520.32 34.1654C522.886 34.2106 525.452 34.2106 528.018 34.1654C528.826 34.1503 529.045 34.4292 529.029 35.2055C528.999 37.2931 529.029 37.2931 526.924 37.2931C525.837 37.2931 524.75 37.2931 523.663 37.2931L523.648 37.3006Z" fill="#71251E"/>
<path d="M465.275 58.87C463.766 58.87 462.256 58.8926 460.747 58.8624C460.06 58.8474 459.931 59.1036 460.09 59.7367C460.52 61.4399 461.984 62.6458 463.75 62.6533C465.743 62.6533 467.736 62.6759 469.721 62.6458C470.377 62.6382 470.679 62.8266 470.619 63.5125C470.581 63.9571 470.588 64.4168 470.619 64.869C470.649 65.4343 470.438 65.6754 469.841 65.6679C467.245 65.6453 464.649 65.7131 462.06 65.6378C458.279 65.5247 455.796 62.6985 455.343 58.1314C454.882 53.4362 457.426 49.4041 461.509 48.9218C464.309 48.5902 467.169 48.8163 470.007 48.7937C470.422 48.7937 470.475 49.0348 470.505 49.374C470.661 51.0169 469.909 51.8384 468.249 51.8384C466.588 51.8384 464.928 51.8233 463.275 51.8912C461.667 51.959 460.241 53.3231 460.007 54.8907C459.909 55.5238 460.052 55.8252 460.784 55.8177C463.743 55.7875 466.694 55.8252 469.653 55.7875C470.407 55.78 470.649 56.0212 470.634 56.7673C470.566 59.2769 470.936 58.8398 468.536 58.8775C467.449 58.8926 466.362 58.8775 465.275 58.8775V58.87Z" fill="#DF1E40"/>
<path d="M539.042 58.8702C537.533 58.8702 536.023 58.8928 534.522 58.8626C533.835 58.8476 533.706 59.1113 533.85 59.7369C534.227 61.3798 535.722 62.6384 537.412 62.6535C539.435 62.6686 541.458 62.6761 543.473 62.6535C544.099 62.646 544.409 62.7816 544.394 63.4976C544.318 66.1203 544.733 65.6153 542.28 65.6606C540.469 65.6907 538.657 65.6606 536.854 65.6606C532.65 65.6606 530.114 63.6332 529.299 59.5183C528.785 56.9333 529.065 54.4161 530.431 52.1099C531.714 49.9394 533.699 48.8617 536.197 48.8014C538.582 48.7411 540.967 48.8089 543.344 48.7713C544.054 48.7562 544.348 48.9672 544.265 49.6832C544.22 50.0675 544.22 50.467 544.265 50.8513C544.348 51.5974 544.061 51.8537 543.299 51.8386C541.216 51.8085 539.133 51.8085 537.057 51.8763C535.435 51.929 534.054 53.2404 533.752 54.8381C533.616 55.5315 533.789 55.8103 534.559 55.8028C537.518 55.7651 540.469 55.8103 543.427 55.7727C544.19 55.7651 544.401 56.0138 544.394 56.7524C544.378 58.8626 544.409 58.8626 542.295 58.8626C541.209 58.8626 540.122 58.8626 539.035 58.8626L539.042 58.8702Z" fill="#DF1E40"/>
<path d="M429.418 58.8698C427.938 58.8698 426.459 58.8999 424.98 58.8622C424.233 58.8396 424.119 59.1411 424.278 59.7892C424.685 61.4171 426.195 62.6456 427.886 62.6531C429.878 62.6606 431.871 62.6832 433.856 62.6456C434.55 62.6305 434.799 62.834 434.799 63.5575C434.799 65.6526 434.829 65.6526 432.701 65.6526C430.889 65.6526 429.078 65.6526 427.267 65.6526C422.867 65.6526 420.142 63.2786 419.591 58.8924C419.372 57.1138 419.485 55.3502 420.104 53.6394C421.229 50.5043 423.659 48.7784 426.972 48.7784C429.237 48.7784 431.501 48.8085 433.757 48.7633C434.49 48.7482 434.671 49.0045 434.671 49.6978C434.671 51.8231 434.693 51.8231 432.595 51.8307C430.874 51.8307 429.154 51.8156 427.44 51.8834C425.787 51.9513 424.376 53.338 424.135 54.9583C424.036 55.5989 424.255 55.81 424.904 55.8024C427.863 55.7798 430.822 55.8175 433.773 55.7798C434.565 55.7723 434.882 56.0059 434.784 56.8048C434.739 57.159 434.739 57.5283 434.784 57.89C434.89 58.719 434.505 58.915 433.742 58.8924C432.293 58.8472 430.844 58.8773 429.395 58.8773L429.418 58.8698Z" fill="#DF1E40"/>
<path d="M486.083 35.6502C486.083 38.1825 486.068 40.7072 486.098 43.2395C486.098 43.8575 485.917 44.0685 485.283 44.0836C482.249 44.174 482.249 44.1891 482.249 41.2046C482.249 40.1495 482.219 39.0944 482.257 38.0469C482.279 37.4289 482.083 37.1952 481.442 37.2028C479.54 37.2329 477.638 37.2404 475.736 37.2028C475.026 37.1877 474.875 37.4891 474.883 38.1222C474.913 39.7802 474.868 41.4307 474.906 43.0888C474.921 43.8047 474.747 44.0987 473.962 44.0987C471.011 44.1213 471.011 44.1439 471.011 41.2122C471.011 36.8485 471.026 32.4849 470.996 28.1137C470.996 27.3224 471.23 27.0888 472.023 27.0963C474.898 27.1114 474.898 27.0888 474.898 29.9526C474.898 30.9776 474.928 32.0026 474.891 33.02C474.868 33.6606 475.125 33.849 475.743 33.8415C477.645 33.8113 479.547 33.8113 481.449 33.8415C482.091 33.849 482.279 33.6154 482.264 32.9974C482.234 31.3092 482.272 29.6286 482.242 27.9404C482.234 27.3224 482.43 27.1114 483.064 27.0963C486.091 27.0285 486.091 27.0134 486.091 30.0506C486.091 31.9197 486.091 33.7812 486.091 35.6502H486.083Z" fill="#71251E"/>
<path d="M536.869 44.1285C535.3 44.1285 533.73 44.0983 532.16 44.1435C531.481 44.1661 531.292 43.9401 531.292 43.2768C531.292 41.0008 531.269 41.0008 533.541 41.0008C535.503 41.0008 537.466 41.0084 539.428 41.0008C540.711 40.9933 541.534 40.1869 541.504 39.0112C541.466 37.8279 540.605 37.1421 539.307 37.1873C538.13 37.225 536.952 37.2476 535.775 37.1949C532.922 37.0743 531.058 34.8887 531.156 31.8289C531.247 29.0178 533.216 27.096 536.001 27.096C538.568 27.096 541.134 27.1261 543.7 27.0809C544.5 27.0658 544.802 27.2542 544.787 28.1209C544.734 30.2085 544.787 30.2085 542.673 30.2085C541.013 30.2085 539.353 30.2085 537.692 30.2085C536.409 30.2085 535.601 30.7813 535.534 32.1077C535.473 33.2985 536.288 34.0069 537.647 34.022C538.854 34.0296 540.062 34.0069 541.27 34.022C544.017 34.0597 545.889 36.185 545.866 39.1996C545.843 42.0635 543.911 44.1285 541.224 44.136C539.775 44.136 538.326 44.136 536.877 44.136L536.869 44.1285Z" fill="#71251E"/>
<path d="M406.639 44.1285C405.1 44.1285 403.56 44.0984 402.02 44.1436C401.326 44.1662 401.077 43.9778 401.077 43.2467C401.077 41.0009 401.054 41.0009 403.281 41.0009C405.243 41.0009 407.205 41.0084 409.168 41.0009C410.526 41.0009 411.319 40.2095 411.266 38.966C411.213 37.7903 410.375 37.1648 409.024 37.1874C407.696 37.21 406.36 37.2552 405.047 37.1271C402.533 36.8709 400.775 34.5722 400.918 31.8591C401.069 29.0103 402.979 27.0885 405.651 27.0885C408.307 27.0885 410.964 27.1111 413.621 27.0734C414.353 27.0659 414.534 27.3146 414.534 28.0079C414.526 30.2011 414.549 30.2011 412.353 30.2011C410.692 30.2011 409.032 30.2011 407.371 30.2011C406.111 30.2086 405.326 30.8643 405.318 32.1078C405.311 33.3513 406.058 34.0221 407.349 34.0145C408.587 34.007 409.824 33.9995 411.062 34.0145C413.749 34.0597 415.681 36.2077 415.666 39.1167C415.651 42.0409 413.719 44.1134 410.994 44.1285C409.545 44.1285 408.096 44.1285 406.647 44.1285H406.639Z" fill="#71251E"/>
<path d="M553.203 65.7737C551.723 65.7737 550.244 65.736 548.765 65.7888C548.017 65.8114 547.776 65.5853 547.791 64.8241C547.814 62.6536 547.791 62.6536 549.98 62.6536C551.912 62.6536 553.844 62.6611 555.776 62.6536C557.157 62.646 557.988 61.8848 557.973 60.6865C557.957 59.4882 557.12 58.7798 555.723 58.7873C554.516 58.7873 553.308 58.81 552.101 58.7873C549.504 58.7346 547.625 56.6168 547.625 53.7756C547.625 50.9268 549.489 48.8015 552.093 48.7563C554.81 48.7186 557.527 48.7713 560.237 48.7261C561.029 48.711 561.195 49.02 561.195 49.7285C561.195 51.8613 561.218 51.8613 559.127 51.8613C557.406 51.8613 555.686 51.8538 553.965 51.8613C552.682 51.8688 551.957 52.5622 551.987 53.8133C552.01 55.0191 552.735 55.6672 553.98 55.6597C555.188 55.6597 556.395 55.6446 557.603 55.6597C560.342 55.6823 562.297 57.7548 562.327 60.6489C562.358 63.5278 560.433 65.6832 557.723 65.7586C556.214 65.8038 554.704 65.7586 553.195 65.7661L553.203 65.7737Z" fill="#DF1E40"/>
<path d="M452.438 33.2534C452.438 34.5195 452.438 35.7781 452.438 37.0443C452.438 42.0033 449.638 44.6787 444.611 44.5129C439.539 44.3547 437.003 41.7395 437.003 36.675C437.003 33.7885 437.018 30.902 436.988 28.008C436.988 27.2996 437.215 27.081 437.924 27.081C440.747 27.0735 440.747 27.0508 440.747 29.8167C440.747 32.3113 440.732 34.8134 440.747 37.308C440.77 39.6217 442.158 40.7974 444.823 40.8276C447.328 40.8502 448.8 39.6067 448.845 37.3306C448.898 34.2934 448.921 31.2562 448.898 28.219C448.898 27.3825 449.079 27.0659 449.985 27.081C452.43 27.1262 452.43 27.081 452.43 29.553C452.43 30.789 452.43 32.0174 452.43 33.2534H452.438Z" fill="#71251E"/>
<path d="M507.222 65.6531C505.804 66.1279 505.003 65.2687 504.732 63.7539C504.437 62.1034 503.509 61.5004 501.901 61.817C501.668 61.8622 501.418 61.8396 501.177 61.817C500.475 61.7492 499.169 61.9979 499.169 61.6738C499.162 60.7694 499.547 59.7972 500.007 58.9757C500.354 58.3577 501.177 58.727 501.773 58.727C502.543 58.727 502.815 58.6215 502.452 57.7925C501.909 56.5565 501.471 55.2678 500.981 54.0092C500.883 53.768 500.739 53.5419 500.618 53.3083C500.49 53.5344 500.332 53.7529 500.241 53.9941C498.935 57.5212 497.615 61.0483 496.354 64.5904C496.067 65.3968 495.667 65.6832 494.792 65.6681C491.773 65.6154 491.773 65.6531 492.867 62.8796C494.399 58.9908 495.931 55.0944 497.456 51.198C498.015 49.7736 498.815 48.5904 500.535 48.5753C502.218 48.5603 503.034 49.7134 503.607 51.085C505.441 55.4712 507.215 59.8876 509.109 64.2513C509.645 65.4797 509.404 65.8339 508.128 65.6531C507.924 65.6229 507.705 65.6531 507.23 65.6531H507.222Z" fill="#DF1E40"/>
<path d="M438.919 48.7792C440.346 48.3044 440.942 49.2239 441.44 50.6709C442.587 53.9945 443.916 57.2654 445.176 60.5513C445.252 60.7397 445.365 61.0487 445.478 61.0637C445.78 61.0864 445.765 60.7472 445.84 60.5437C447.161 56.9564 448.512 53.3841 449.773 49.7741C450.059 48.9601 450.459 48.7566 451.267 48.7642C454.278 48.8094 454.278 48.7792 453.199 51.5451C451.667 55.4717 450.135 59.3906 448.61 63.3172C448.059 64.7265 447.229 65.872 445.576 65.8796C443.916 65.8871 443.093 64.734 442.52 63.3398C440.701 58.9158 438.912 54.4768 437.025 50.0755C436.534 48.93 436.723 48.5908 437.931 48.7717C438.165 48.8094 438.414 48.7717 438.919 48.7717V48.7792Z" fill="#DF1E40"/>
<path d="M554.432 27.1417C556.756 27.1417 559.073 27.1718 561.398 27.1266C562.16 27.1115 562.372 27.3602 562.364 28.1064C562.334 30.2543 562.364 30.2392 560.243 30.2543C558.983 30.2618 557.307 29.8473 556.575 30.4879C555.753 31.2039 556.334 32.9222 556.319 34.1959C556.281 37.1728 556.288 40.1497 556.319 43.1266C556.326 43.8803 556.145 44.1817 555.315 44.1742C552.379 44.1591 552.379 44.1893 552.379 41.2802C552.379 37.9415 552.356 34.6028 552.394 31.2642C552.401 30.4954 552.205 30.1864 551.39 30.2241C550.069 30.2844 548.733 30.209 547.413 30.2543C546.718 30.2769 546.469 30.0659 546.477 29.3423C546.477 27.1266 546.454 27.1266 548.643 27.1266C550.575 27.1266 552.5 27.1266 554.432 27.1266V27.1417Z" fill="#71251E"/>
<path d="M461.778 27.1037C463.982 27.1037 466.179 27.1338 468.382 27.0886C469.13 27.0735 469.447 27.2921 469.364 28.0533C469.318 28.4678 469.326 28.8974 469.364 29.3119C469.416 29.9676 469.175 30.2238 468.488 30.2012C467.099 30.156 465.711 30.2238 464.329 30.1786C463.635 30.156 463.461 30.4197 463.469 31.0679C463.492 35.0698 463.454 39.0717 463.499 43.0735C463.507 43.9176 463.243 44.1362 462.42 44.1286C459.597 44.0985 459.597 44.1286 459.597 41.31C459.597 37.911 459.582 34.5121 459.612 31.1131C459.612 30.4197 459.446 30.1484 458.707 30.1861C457.476 30.2389 456.231 30.171 455.001 30.2163C454.322 30.2389 454.133 30.0052 454.133 29.342C454.133 27.1188 454.103 27.1188 456.352 27.1188C458.163 27.1188 459.967 27.1188 461.778 27.1188V27.1037Z" fill="#71251E"/>
</g>
<defs>
<clipPath id="clip0_5_18180">
<rect width="161.455" height="39.2727" fill="white" transform="translate(400.91 26.6064)"/>
</clipPath>
</defs>
</svg>
