<svg width="223" height="131" viewBox="0 0 223 131" fill="none" xmlns="http://www.w3.org/2000/svg">
<path d="M54.6897 106.334H51.5385L49.7617 109.219H52.9129L54.6897 106.334Z" fill="#7F7F7F"/>
<path d="M45.4983 130.995C42.9891 129.229 39.9283 128.445 37.1479 128.559C34.3358 128.672 33.0744 130.774 33.0744 130.774C31.804 128.559 29.2993 127.2 25.4248 127.232C19.1722 127.304 12.9602 130.198 8.04582 130.198C3.13143 130.198 -0.110162 127.232 0.00286423 121.955C0.201791 112.711 7.99611 104.377 13.8283 100.627C17.1784 98.4707 19.9814 97.832 21.817 98.0359C23.1552 98.1853 24.7693 99.7344 23.752 102.017C22.2601 105.364 20.203 105.083 20.2753 103.485C20.3205 102.447 21.0077 101.795 21.5276 101.437C21.8577 101.206 22.4409 101.143 22.7438 101.138C23.0377 100.889 23.2637 99.0595 20.8631 99.6619C18.4624 100.264 15.5779 102.629 12.8201 105.672C10.0667 108.716 5.78078 114.491 4.72285 120.542C4.23006 123.35 4.5601 128.468 11.2015 128.409C16.8303 128.359 25.14 124.645 32.767 124.713C35.7283 124.741 38.3053 125.538 40.3172 126.783C42.2974 128.011 44.6664 129.786 45.5028 131M47.3067 114.237H48.4596C48.4596 114.237 42.6772 122.612 39.4084 122.231C37.5819 122.018 38.1245 119.763 38.1245 119.763C38.1245 119.763 35.5565 122.77 33.2146 122.168C31.0807 121.62 32.4551 118.064 32.4551 118.064C32.2109 118.164 27.5949 123.382 24.3533 122.132C20.958 120.823 22.7167 116.452 23.3632 115.143C23.9102 114.033 24.5116 112.955 24.5116 112.955C24.5116 112.955 23.9916 113.105 23.6661 113.177C23.3451 113.254 22.8523 113.349 22.8523 113.349C22.8523 113.349 21.2473 115.967 20.2663 117.272C19.2852 118.576 15.1122 123.065 12.6573 122.172C10.1979 121.276 10.8037 117.833 12.1871 115.098C14.4251 110.659 19.7373 105.201 22.9382 106.021C26.1708 106.845 23.4988 112.104 23.4988 112.104C23.4988 112.104 24.1408 112.185 25.6825 111.135C27.9023 109.617 30.8275 105.536 34.0013 106.012C35.4932 106.234 36.8766 107.769 34.9823 110.677C34.372 111.61 33.3547 112.448 32.5726 111.624C32.0888 111.112 32.5093 110.174 33.0202 109.536C33.739 108.63 34.7337 108.752 34.7337 108.752C34.7337 108.752 35.2536 107.547 33.9244 107.57C32.8439 107.588 30.1131 110.111 28.5715 112.656C27.1564 114.994 25.0179 118.979 27.1699 119.844C29.1456 120.642 32.8936 116.176 34.6297 113.839C36.3658 111.501 40.3217 106.198 43.6402 105.98C44.784 105.908 45.4667 106.949 45.4667 106.949L45.8509 106.338H49.1649C49.1649 106.338 42.9123 116.801 42.424 117.593C42.0397 118.214 41.5288 119.609 42.9439 118.825C44.359 118.042 47.3022 114.251 47.3022 114.251M21.5593 113.191C21.5005 113.168 20.6641 112.928 19.8503 112.407C19.0365 111.886 18.6568 111.107 18.6296 111.058C18.598 111.003 18.5663 111.044 18.5347 111.089C18.503 111.135 18.3267 111.361 17.1422 113.1C15.9577 114.84 14.2035 118.404 15.8492 119.016C16.9026 119.405 18.6658 117.553 19.6243 116.33C20.5104 115.193 21.5683 113.444 21.6135 113.34C21.6587 113.236 21.6135 113.213 21.5593 113.191ZM22.8704 107.629C22.0024 106.968 19.787 108.512 19.7735 110.088C19.7644 111.705 21.7763 112.163 22.034 112.176C22.034 112.176 22.26 112.24 22.3505 112.045C22.4047 111.927 22.6805 111.42 22.988 110.618C23.2954 109.817 23.6797 108.245 22.8704 107.629ZM39.7792 116.339C41.1174 114.5 44.8156 108.05 44.8156 108.05C44.8156 108.05 44.7523 107.597 44.3228 107.579C43.812 107.556 42.962 107.729 41.2621 109.853C39.5622 111.982 38.2556 113.675 37.2971 115.433C36.2482 117.353 35.7871 118.708 36.3929 119.074C36.5647 119.179 36.8179 119.192 37.0258 119.138C37.4237 119.038 37.9346 118.644 38.6399 117.829C38.9699 117.448 39.3451 116.937 39.7837 116.339M101.207 101.166C98.8785 102.665 95.6505 104.028 92.549 103.725C91.7669 104.54 90.9259 105.477 90.0805 106.506C95.4606 107.57 100.167 104.232 102.667 101.388C104.231 99.6121 105 98.0313 105 98.0313C105 98.0313 103.508 99.68 101.202 101.166M91.9839 125.646C91.5363 126.362 91.0344 127.73 92.5038 126.878C94.2986 125.837 96.853 121.955 96.853 121.955H98.0059C98.0059 121.955 96.4823 124.369 94.4976 126.575C92.6801 128.595 90.4603 130.429 88.9005 130.248C87.074 130.035 87.6482 127.635 87.6482 127.635C87.6482 127.635 85.0305 130.42 83.2311 130.221C80.7943 129.949 81.5357 126.928 81.5357 126.928C81.5357 126.928 78.7824 130.325 76.9016 130.221C73.9539 130.053 74.6908 126.448 75.5136 123.93C75.9522 122.58 76.3591 121.516 76.3591 121.516C76.3591 121.516 76.0652 121.593 75.4368 121.683C75.1113 121.733 74.51 121.765 74.51 121.765C74.51 121.765 73.2847 123.934 72.3037 125.243C71.3226 126.552 67.1497 131.041 64.6947 130.144C62.4252 129.315 63.1712 125.832 64.4958 123.065C66.4218 119.029 71.8471 113.232 74.9756 113.993C78.2172 114.781 75.0525 120.709 75.0525 120.709C75.0525 120.709 75.0525 120.732 75.0887 120.746C75.152 120.773 75.3192 120.786 75.7126 120.714C76.3365 120.596 76.8971 120.361 76.8971 120.361C76.8971 120.361 80.1568 113.521 83.7555 109.042C87.3543 104.567 94.5382 96.8583 97.3594 98.7198C98.0511 99.1773 97.7346 100.758 96.8078 102.674C96.3964 102.805 95.9714 102.918 95.5329 103.009C96.1523 101.877 96.5682 100.926 96.6858 100.264C97.1062 97.9498 91.7216 102.828 87.8742 108.073C84.0268 113.322 81.7165 118.073 81.7165 118.073C81.7165 118.073 82.4942 117.634 83.7013 116.656C84.9627 115.637 86.7033 114.033 88.5931 112.077C89.8635 110.763 91.3554 109.11 92.7525 107.262C93.1684 107.239 93.5798 107.199 93.9776 107.135C92.4179 109.241 90.7767 111.162 89.3888 112.575C87.8561 114.128 86.1924 115.809 84.7456 117.027C82.4489 118.966 80.6722 120.062 80.6722 120.062C80.6722 120.062 77.2995 126.86 79.135 127.3C80.211 127.558 82.3359 124.274 82.3359 124.274C82.3359 124.274 85.1073 120.03 86.7801 118.123C89.0633 115.519 91.0254 114.02 92.9875 113.988C94.1314 113.97 94.8095 115.188 94.8095 115.188L95.3475 114.355H98.6615C98.6615 114.355 92.4767 124.872 91.9839 125.665M73.3526 121.525C73.2938 121.502 72.5749 121.176 71.829 120.551C71.083 119.93 70.7078 119.215 70.6806 119.16C70.649 119.106 70.6173 119.147 70.5857 119.192C70.554 119.237 70.4184 119.355 69.2339 121.094C68.0494 122.834 66.241 126.425 67.8866 127.037C68.94 127.426 70.6897 125.583 71.6436 124.36C72.5297 123.223 73.3616 121.778 73.4068 121.674C73.452 121.57 73.4113 121.547 73.3526 121.525ZM75.0254 118.59C75.3328 117.788 75.7171 116.216 74.9078 115.6C74.0398 114.944 71.8245 116.484 71.8109 118.06C71.7973 119.677 73.3707 120.406 73.7504 120.506C73.9674 120.565 74.0398 120.555 74.1438 120.383C74.2116 120.27 74.7179 119.391 75.0208 118.59M94.05 116.37C94.1178 116.253 94.1495 116.148 94.1495 116.148C94.1495 116.148 94.0862 115.696 93.6567 115.677C93.1458 115.655 92.445 115.75 90.614 117.784C88.792 119.808 87.6843 121.565 86.7259 123.323C85.677 125.243 85.2565 126.675 85.8578 127.041C86.0296 127.146 86.2828 127.159 86.4908 127.105C86.9022 127.005 87.3588 126.625 88.0686 125.809C88.3987 125.429 88.7649 124.885 89.2034 124.283C90.4105 122.63 93.4487 117.421 94.0545 116.375M101.202 101.193C98.8739 102.692 95.6459 104.055 92.5445 103.752C91.7623 104.567 90.9214 105.505 90.076 106.533C95.456 107.597 100.162 104.259 102.663 101.415C104.227 99.6392 104.995 98.0585 104.995 98.0585C104.995 98.0585 103.504 99.7072 101.198 101.193M86.0839 105.102C83.5385 103.797 81.6804 102.203 79.7454 101.206C77.8962 100.255 76.7027 99.8612 75.2152 100.06C74.9666 100.092 74.6004 100.214 74.6004 100.214C74.6004 100.214 75.3735 102.841 72.3173 107.262C69.2203 111.737 66.4127 111.714 65.6125 110.478C64.7761 109.178 65.8521 106.533 67.656 104.178C69.5458 101.714 72.8598 99.6664 72.8598 99.6664C72.8598 99.6664 71.8018 99.0187 69.2022 100.495C66.6704 101.931 62.2986 105.355 58.2613 111.125C54.2239 116.896 53.4147 120.071 52.8315 122.571C52.2482 125.071 52.7817 127.743 55.5486 127.743C58.3155 127.743 61.53 123.513 62.4387 122.046C64.1251 119.31 65.2237 115.111 62.927 115.686C61.7922 115.972 60.879 117.231 60.3003 118.436C59.708 119.677 59.4684 120.863 59.4684 120.863C59.4684 120.863 58.5144 121.208 57.2259 122.168C55.942 123.133 55.101 124.052 55.101 124.052C55.101 124.052 55.1101 122.055 56.697 118.821C58.2884 115.587 61.2045 114.106 62.8547 113.97C64.3421 113.848 66.2816 115.116 64.6405 119.79C63.0038 124.464 58.1618 130.135 53.0711 130.212C48.3737 130.28 45.2949 124.274 51.8278 113.798C59.0525 102.207 67.543 98.6519 70.3008 98.2533C73.0587 97.8547 73.9493 99.0731 73.9493 99.0731C73.9493 99.0731 76.2596 98.0042 79.1893 98.2034C82.5529 98.4299 85.1571 100.817 88.5885 102.488C87.6934 103.358 86.8389 104.255 86.0703 105.092M73.5379 100.55C73.5379 100.55 71.5713 101.338 69.2836 103.865C66.9869 106.401 65.6622 109.237 66.6524 109.989C67.0321 110.279 67.9002 110.324 69.4916 108.893C70.7304 107.778 71.9917 106.32 72.8462 104.227C73.8725 101.723 73.5424 100.577 73.5424 100.545" fill="#7F7F7F"/>
<path d="M96.4525 127.943C96.6424 128.051 96.7871 128.196 96.8956 128.378C97.0041 128.563 97.0584 128.763 97.0584 128.98C97.0584 129.197 97.0041 129.401 96.8956 129.582C96.7871 129.763 96.6379 129.913 96.4525 130.017C96.2626 130.126 96.0547 130.176 95.8241 130.176C95.5935 130.176 95.3855 130.121 95.1957 130.017C95.0058 129.908 94.8611 129.763 94.7526 129.582C94.6441 129.401 94.5898 129.197 94.5898 128.98C94.5898 128.763 94.6441 128.563 94.7526 128.378C94.8611 128.192 95.0103 128.047 95.1957 127.943C95.3855 127.834 95.5935 127.784 95.8241 127.784C96.0547 127.784 96.2626 127.839 96.4525 127.943ZM96.3304 129.822C96.4796 129.741 96.5927 129.623 96.674 129.478C96.7554 129.333 96.7961 129.166 96.7961 128.98C96.7961 128.794 96.7554 128.636 96.674 128.486C96.5927 128.341 96.4751 128.224 96.3259 128.142C96.1767 128.06 96.0094 128.015 95.8196 128.015C95.6297 128.015 95.4624 128.056 95.3177 128.142C95.1685 128.224 95.0555 128.341 94.9696 128.486C94.8882 128.631 94.8475 128.799 94.8475 128.98C94.8475 129.161 94.8882 129.329 94.9696 129.478C95.051 129.623 95.164 129.741 95.3132 129.822C95.4624 129.904 95.6297 129.949 95.8196 129.949C96.0094 129.949 96.1767 129.908 96.3259 129.822M96.2852 128.962C96.2491 129.021 96.1993 129.061 96.136 129.093L96.4209 129.514H96.1044L95.8512 129.12H95.6432V129.514H95.3675V128.427H95.9959C96.0999 128.427 96.1858 128.459 96.2491 128.527C96.3124 128.595 96.344 128.672 96.344 128.772C96.344 128.839 96.3259 128.903 96.2897 128.962M95.6432 128.876H95.9416C95.9778 128.876 96.0049 128.867 96.0275 128.849C96.0501 128.83 96.0592 128.803 96.0592 128.772C96.0592 128.74 96.0501 128.713 96.0275 128.695C96.0049 128.676 95.9778 128.667 95.9416 128.667H95.6432V128.876Z" fill="#7F7F7F"/>
<path d="M77.7999 31.0063L95.2004 14.1808C97.3287 12.1177 99.5536 14.1808 99.5536 14.1808L104.378 18.8522L113 10.525C110.013 7.62813 107.365 5.0733 105.999 3.75848C97.2924 -4.65423 88.6828 3.68365 88.6828 3.68365L66.9292 24.7101C58.1382 33.2084 66.8445 41.6104 66.8445 41.6104L87.5099 61.5892C87.5099 61.5892 88.5982 62.6368 89.9041 61.3861C90.3878 60.9158 90.811 60.5095 90.811 58.4144C90.811 57.0461 90.811 47.7782 90.811 47.7782L77.812 35.2286C75.5871 33.08 77.812 31.0276 77.812 31.0276" fill="#7F7F7F"/>
<path d="M123.923 22L115.255 30.2947L116.228 31.2317C118.368 33.2867 116.228 35.4163 116.228 35.4163L103.001 48.1085C103.001 48.1085 103.013 56.6587 103.001 58.0322C102.977 60.1938 103.451 60.8965 103.986 61.3969C105.299 62.6534 106.441 61.5567 106.441 61.5567C106.441 61.5567 122.878 45.8192 127.169 41.7091C135.838 33.4145 127.084 25.0347 127.084 25.0347C127.084 25.0347 125.832 23.8421 123.923 22.0107" fill="#7F7F7F"/>
<path d="M159.39 40.8481C158.922 40.393 158.513 40 156.408 40C155.039 40 145.765 40 145.765 40L133.216 52.1521C131.075 54.2308 129.005 52.1521 129.005 52.1521L124.421 47.7153L116 55.8546L122.69 62.3288C131.192 70.5405 139.601 62.4115 139.601 62.4115L159.589 43.0819C159.589 43.0819 160.641 42.0684 159.378 40.8481" fill="#484848"/>
<path d="M111.633 36.4968L110.667 35.5472C108.54 33.4645 110.667 31.3063 110.667 31.3063L113.131 28.8999L121.747 20.4938L128.066 14.3213C130.192 12.2386 132.416 14.3213 132.416 14.3213L145.586 27.1626C145.586 27.1626 154.455 27.141 155.881 27.1626C158.128 27.1842 158.853 26.7201 159.373 26.213C160.678 24.9396 159.542 23.8281 159.542 23.8281C159.542 23.8281 143.206 7.87914 138.94 3.71383C130.325 -4.69233 121.626 3.80011 121.626 3.80011C121.626 3.80011 117.711 7.62011 113.144 12.0876C110.268 14.8932 107.126 17.9579 104.528 20.4938L99.8886 25.026C91.1889 33.5185 99.804 41.9246 99.804 41.9246L102.958 45L111.645 36.5075L111.633 36.4968Z" fill="#484848"/>
<path d="M38.9348 89.1734H45.2882V86.3694L39.4317 86.2866C37.4796 86.2866 36.7579 83.8375 36.6278 81.6724C36.4858 79.318 37.1128 76.3839 39.2661 76.3839H45.2172V73.3906H39.4791C38.3788 73.3906 37.6926 73.5444 36.6987 73.9822C31.8006 76.1709 31.9663 87.1621 37.0182 88.8184C37.7162 89.0551 38.1776 89.1616 38.923 89.1616" fill="#7F7F7F"/>
<path d="M0 89.1615L5.14654 75.3781C5.14654 75.3781 5.90373 73.4023 7.65474 73.4023C9.40575 73.4023 10.1511 75.3545 10.1511 75.3545L15.6053 89.1733H12.0204L10.7309 85.6003H6.28234L7.25249 82.82H9.70155L7.70208 77.3421L5.83275 82.82L5.56064 83.6008L5.06373 84.9732L4.7916 85.8132L3.54935 89.1851H0.0118247L0 89.1615Z" fill="#7F7F7F"/>
<path d="M17.332 73.3555H27.637C27.637 73.3555 31.3165 73.4974 31.6004 78.0879C31.6004 78.0879 31.8607 81.8857 28.0156 82.7612L32.0263 89.1737H27.9919L24.2888 83.0688H22.2065L23.1056 80.5369H25.2944C25.2944 80.5369 27.9919 80.466 28.0037 78.2181C28.0037 75.9701 25.4245 76.0292 25.4245 76.0292H20.7631V89.1737H17.3557V73.3555" fill="#7F7F7F"/>
<path d="M47.0625 89.1263L52.209 75.343C52.209 75.343 52.9662 73.3672 54.7173 73.3672C56.4683 73.3672 57.2018 75.3194 57.2018 75.3194L62.656 89.1381H59.0711L57.7815 85.5651H53.333L54.3032 82.7967H56.764L54.7646 77.3188L52.8953 82.7967L52.6231 83.5656L52.1262 84.9381L51.8541 85.7781L50.6118 89.15H47.0743L47.0625 89.1263Z" fill="#7F7F7F"/>
<path d="M213.848 73.5918H210.145V83.5773C210.145 84.6658 210.239 85.3284 210.641 86.2867C211.742 88.8185 214.179 89.3509 216.817 89.3509H221.999V86.7954H217.397C216.202 86.7954 215.22 86.6416 214.475 85.6359C214.001 84.9615 213.836 84.37 213.836 83.4709V73.5918H213.848Z" fill="#484848"/>
<path d="M181.371 76.1476H186.636V89.1737H189.972V76.1476H195.332V73.4619H181.371V76.1476Z" fill="#484848"/>
<path d="M164.465 89.138H167.872L167.813 77.6382L174.794 89.1972H179.372V73.3789H175.87V85.1982L169.056 73.3789H164.441L164.465 89.138Z" fill="#484848"/>
<path d="M155.498 89.0427H162.491V86.3097H156.196C155.214 86.3097 154.564 85.8483 153.937 85.0674C153.333 84.3457 153.097 83.6714 153.097 82.6657H162.491V79.8854H153.049C153.002 78.7732 153.286 77.9806 153.972 77.1997C154.67 76.4189 155.392 76.1231 156.409 76.1231H162.408V73.3428H155.912C154.516 73.3428 153.629 73.5202 152.375 74.2183C147.962 76.7501 147.903 85.8483 152.375 88.2263C153.499 88.8179 154.256 89.0309 155.498 89.0309" fill="#484848"/>
<path d="M132.344 89.138H135.751L135.692 77.6382L142.673 89.1972H147.251V73.3789H143.749V85.1982L136.934 73.3789H132.32L132.344 89.138Z" fill="#484848"/>
<path d="M130.31 73.2607H126.477V89.0199H130.31V73.2607Z" fill="#484848"/>
<path d="M110.75 76.1476H116.003V89.1737H119.339V76.1476H124.699V73.4619H110.75V76.1476Z" fill="#484848"/>
<path d="M93.8088 89.138H97.228L97.1689 77.6382L104.149 89.1972H108.716V73.3789H105.226V85.1982L98.4111 73.3789H93.7852L93.8088 89.138Z" fill="#484848"/>
<path d="M68.548 89.1734H74.9013V86.3694L69.0449 86.2866C67.081 86.2866 66.3711 83.8375 66.2528 81.6724C66.1108 79.318 66.7378 76.3839 68.8911 76.3839H74.8422V73.3906H69.1041C68.0038 73.3906 67.3294 73.5444 66.3238 73.9822C61.4257 76.1709 61.5913 87.1621 66.6432 88.8184C67.3412 89.0551 67.8026 89.1616 68.548 89.1616" fill="#484848"/>
<path d="M193.902 89.1263L199.049 75.343C199.049 75.343 199.806 73.3672 201.557 73.3672C203.308 73.3672 204.053 75.3194 204.053 75.3194L209.508 89.1381H205.923L204.633 85.5651H200.185L201.155 82.7967H203.604L201.604 77.3188L199.735 82.7967L199.463 83.5656L198.966 84.9381L198.694 85.7781L197.452 89.15H193.914L193.902 89.1263Z" fill="#484848"/>
<path d="M84.3898 86.7478C80.3317 86.7951 79.894 83.9083 79.8703 81.1517C79.8467 78.5962 80.9351 75.8869 84.0704 75.7922C87.1938 75.7212 88.4243 78.2649 88.4243 81.1517C88.4243 84.0385 87.7854 86.7241 84.3898 86.7478ZM92.0683 81.2582C91.9263 76.1826 90.4474 73 84.2124 73C78.6162 73 76.25 76.4074 76.25 81.0925C76.25 87.2329 79.1723 89.5873 84.2597 89.5755C88.4361 89.5755 92.2339 87.8718 92.0564 81.27" fill="#484848"/>
<g clip-path="url(#clip0_1_18006)">
<path d="M173.232 102.342C174.146 102.067 174.545 102.58 174.82 103.57C175.412 105.72 176.143 107.834 176.823 109.959C176.87 110.109 176.963 110.238 177.031 110.384C177.098 110.244 177.186 110.109 177.228 109.959C177.773 108.114 178.281 106.259 178.857 104.425C179.168 103.441 179.495 102.327 180.798 102.306C182.09 102.285 182.406 103.404 182.738 104.347C183.356 106.124 183.89 107.928 184.466 109.72C184.534 109.928 184.637 110.124 184.726 110.327C184.954 110.197 184.933 109.948 184.995 109.741C185.629 107.58 186.287 105.425 186.874 103.249C187.061 102.555 187.336 102.29 188.093 102.321C189.759 102.389 189.764 102.342 189.261 103.922C188.342 106.798 187.429 109.674 186.495 112.544C186.215 113.399 185.795 114.213 184.746 114.233C183.698 114.249 183.268 113.446 182.967 112.591C182.302 110.72 181.654 108.845 180.995 106.974C180.948 106.84 180.876 106.606 180.813 106.606C180.595 106.601 180.626 106.84 180.58 106.979C179.978 108.829 179.392 110.679 178.79 112.529C178.509 113.389 178.089 114.197 177.057 114.233C176.003 114.27 175.562 113.466 175.261 112.617C174.156 109.498 173.087 106.368 171.961 103.259C171.707 102.549 171.733 102.218 172.584 102.347C172.745 102.373 172.916 102.347 173.238 102.347L173.232 102.342Z" fill="#484848"/>
<path d="M112.165 123.041C112.165 121.326 112.176 119.606 112.16 117.891C112.16 117.44 112.243 117.222 112.773 117.233C114.952 117.259 117.126 117.233 119.305 117.248C120.525 117.254 121.609 117.927 121.946 118.969C122.32 120.124 122.362 121.264 121.272 122.129C121.059 122.3 121.059 122.347 121.319 122.492C122.73 123.264 123.223 124.632 122.771 126.424C122.372 128 121.298 128.886 119.705 128.901C117.401 128.917 115.102 128.896 112.799 128.917C112.3 128.917 112.155 128.741 112.16 128.264C112.181 126.528 112.171 124.787 112.171 123.051L112.165 123.041ZM114.635 122.901C114.635 124 114.635 125.093 114.635 126.191C114.635 126.44 114.599 126.72 114.978 126.72C116.327 126.709 117.676 126.751 119.02 126.663C119.757 126.616 120.286 126.155 120.333 125.336C120.374 124.502 119.995 123.948 119.186 123.715C118.392 123.487 117.577 123.601 116.773 123.606C115.336 123.621 115.346 123.632 115.912 122.305C116.052 121.979 116.244 121.87 116.571 121.88C116.986 121.896 117.401 121.891 117.816 121.87C118.895 121.813 119.503 121.316 119.497 120.513C119.497 119.694 118.833 119.16 117.754 119.134C116.882 119.114 116.01 119.15 115.139 119.124C114.708 119.108 114.62 119.29 114.625 119.673C114.646 120.751 114.63 121.823 114.63 122.901H114.635Z" fill="#7F7F7F"/>
<path d="M129.366 114.285C126.289 114.316 124.421 113.29 123.638 111.083C123 109.279 122.958 107.43 123.534 105.601C124.125 103.735 125.48 102.673 127.348 102.238C128.78 101.906 130.233 101.943 131.665 102.248C133.543 102.647 134.747 103.777 135.199 105.658C135.546 107.098 135.645 108.564 135.396 110.026C134.955 112.611 133.18 114.114 130.425 114.285C130.072 114.305 129.719 114.285 129.371 114.285H129.366ZM132.583 108.285C132.583 108.285 132.563 108.285 132.547 108.285C132.547 107.974 132.568 107.663 132.547 107.357C132.397 105.456 131.239 104.248 129.527 104.197C127.633 104.14 126.367 105.212 126.128 107.16C126.04 107.891 126.045 108.653 126.144 109.383C126.414 111.368 127.524 112.217 129.641 112.155C131.369 112.103 132.386 111.052 132.542 109.15C132.568 108.86 132.573 108.57 132.583 108.285Z" fill="#484848"/>
<path d="M162.28 123.067C162.28 121.352 162.296 119.632 162.27 117.917C162.265 117.43 162.368 117.222 162.913 117.233C165.279 117.264 167.645 117.233 170.006 117.248C171.781 117.259 173.011 118.362 173.353 120.222C173.659 121.891 172.829 123.43 171.246 124C170.722 124.186 170.733 124.347 171.013 124.751C171.812 125.906 172.58 127.088 173.353 128.269C173.457 128.43 173.706 128.595 173.566 128.792C173.493 128.896 173.229 128.87 173.052 128.901C171.246 129.243 169.954 128.658 169.244 126.891C169.041 126.383 168.61 125.963 168.356 125.471C167.972 124.725 167.49 124.254 166.571 124.419C166.167 124.492 166.12 124.3 166.213 123.906C166.462 122.87 166.945 122.248 168.128 122.492C168.361 122.538 168.626 122.492 168.87 122.45C169.913 122.29 170.53 121.673 170.53 120.829C170.53 119.969 169.934 119.362 168.834 119.29C167.677 119.212 166.514 119.264 165.352 119.248C164.869 119.243 164.973 119.59 164.973 119.86C164.968 122.611 164.952 125.362 164.983 128.119C164.989 128.694 164.859 128.917 164.236 128.912C162.285 128.891 162.28 128.917 162.28 126.974C162.28 125.668 162.28 124.368 162.28 123.062V123.067Z" fill="#7F7F7F"/>
<path d="M198.058 125.461C198.058 126.393 198.037 127.321 198.068 128.254C198.084 128.72 197.907 128.86 197.456 128.855C195.941 128.834 194.431 128.849 192.916 128.849C189.833 128.849 187.945 127.16 187.613 124.088C187.493 122.969 187.561 121.86 187.924 120.777C188.697 118.45 190.363 117.243 192.822 117.243C194.337 117.243 195.853 117.264 197.363 117.233C197.866 117.222 197.99 117.399 197.99 117.87C197.99 119.336 198.006 119.331 196.563 119.336C195.422 119.336 194.28 119.357 193.144 119.357C192.303 119.357 191.686 119.761 191.214 120.425C190.363 121.621 190.56 124.927 191.546 126.01C192.122 126.647 194.633 127.134 195.349 126.746C195.64 126.59 195.531 126.305 195.531 126.077C195.557 124.186 195.552 124.119 193.684 124.207C192.62 124.259 192.838 123.637 192.817 123.041C192.796 122.43 192.734 121.922 193.663 121.984C194.924 122.072 196.19 122.02 197.456 122C197.902 121.995 198.084 122.134 198.068 122.606C198.037 123.554 198.058 124.507 198.058 125.461Z" fill="#7F7F7F"/>
<path d="M196.38 109.352C195.363 109.352 194.346 109.378 193.329 109.342C192.768 109.321 192.706 109.544 192.83 110.015C193.116 111.129 194.107 111.927 195.269 111.932C196.639 111.937 198.009 111.958 199.379 111.922C199.939 111.906 200.079 112.103 200.074 112.637C200.053 114.041 200.074 114.041 198.668 114.041C197.381 114.041 196.094 114.041 194.807 114.041C191.876 114.041 189.966 112.362 189.593 109.445C189.401 107.937 189.551 106.466 190.231 105.088C191.248 103.026 193.043 102.352 195.212 102.362C196.582 102.368 197.952 102.383 199.322 102.352C199.846 102.342 199.996 102.518 199.991 103.031C199.981 104.497 199.996 104.492 198.517 104.502C197.314 104.507 196.11 104.528 194.911 104.559C194.268 104.575 193.77 104.901 193.365 105.378C192.96 105.849 192.561 106.435 192.789 107C192.976 107.471 193.645 107.186 194.091 107.197C195.856 107.228 197.62 107.228 199.384 107.197C199.939 107.186 200.09 107.378 200.079 107.912C200.059 109.347 200.079 109.347 198.632 109.347C197.884 109.347 197.137 109.347 196.39 109.347L196.38 109.352Z" fill="#484848"/>
<path d="M156.252 124.182C155.214 124.182 154.177 124.197 153.139 124.176C152.667 124.166 152.578 124.342 152.687 124.778C152.983 125.949 153.99 126.778 155.204 126.783C156.574 126.783 157.944 126.798 159.308 126.778C159.76 126.772 159.967 126.902 159.926 127.373C159.9 127.679 159.905 127.995 159.926 128.306C159.947 128.695 159.801 128.86 159.391 128.855C157.606 128.84 155.821 128.886 154.042 128.835C151.442 128.757 149.735 126.814 149.424 123.674C149.107 120.446 150.856 117.674 153.663 117.342C155.588 117.114 157.555 117.27 159.506 117.254C159.791 117.254 159.827 117.42 159.848 117.653C159.955 118.783 159.438 119.347 158.297 119.347C157.155 119.347 156.013 119.337 154.877 119.384C153.772 119.43 152.791 120.368 152.63 121.446C152.563 121.881 152.661 122.088 153.165 122.083C155.199 122.062 157.228 122.088 159.262 122.062C159.781 122.057 159.947 122.223 159.936 122.736C159.889 124.461 160.144 124.161 158.494 124.187C157.746 124.197 156.999 124.187 156.252 124.187V124.182Z" fill="#7F7F7F"/>
<path d="M206.965 124.182C205.928 124.182 204.89 124.197 203.857 124.177C203.385 124.166 203.297 124.348 203.396 124.778C203.655 125.907 204.682 126.772 205.845 126.783C207.235 126.793 208.626 126.798 210.011 126.783C210.442 126.778 210.655 126.871 210.644 127.363C210.592 129.166 210.878 128.819 209.191 128.85C207.946 128.871 206.701 128.85 205.461 128.85C202.57 128.85 200.827 127.456 200.267 124.627C199.914 122.85 200.106 121.12 201.045 119.534C201.927 118.042 203.292 117.301 205.009 117.26C206.649 117.218 208.289 117.265 209.923 117.239C210.411 117.228 210.613 117.374 210.556 117.866C210.525 118.13 210.525 118.405 210.556 118.669C210.613 119.182 210.416 119.358 209.892 119.348C208.46 119.327 207.028 119.327 205.601 119.374C204.485 119.41 203.536 120.311 203.328 121.41C203.235 121.886 203.354 122.078 203.883 122.073C205.917 122.047 207.946 122.078 209.98 122.052C210.504 122.047 210.65 122.218 210.644 122.726C210.634 124.177 210.655 124.177 209.202 124.177C208.455 124.177 207.707 124.177 206.96 124.177L206.965 124.182Z" fill="#7F7F7F"/>
<path d="M131.6 124.181C130.583 124.181 129.566 124.202 128.549 124.176C128.035 124.16 127.957 124.368 128.066 124.813C128.346 125.932 129.384 126.777 130.547 126.782C131.916 126.787 133.286 126.803 134.651 126.777C135.128 126.767 135.3 126.906 135.3 127.404C135.3 128.844 135.32 128.844 133.857 128.844C132.612 128.844 131.366 128.844 130.121 128.844C127.096 128.844 125.223 127.212 124.844 124.197C124.694 122.974 124.771 121.761 125.197 120.585C125.97 118.43 127.641 117.243 129.919 117.243C131.475 117.243 133.032 117.264 134.584 117.233C135.087 117.222 135.211 117.399 135.211 117.875C135.211 119.336 135.227 119.336 133.784 119.342C132.601 119.342 131.418 119.331 130.24 119.378C129.104 119.425 128.134 120.378 127.968 121.492C127.9 121.932 128.051 122.077 128.497 122.072C130.531 122.057 132.565 122.083 134.594 122.057C135.139 122.052 135.357 122.212 135.289 122.761C135.258 123.005 135.258 123.259 135.289 123.507C135.362 124.077 135.097 124.212 134.573 124.197C133.577 124.165 132.581 124.186 131.584 124.186L131.6 124.181Z" fill="#7F7F7F"/>
<path d="M170.556 108.218C170.556 109.959 170.546 111.695 170.566 113.435C170.566 113.86 170.442 114.005 170.006 114.016C167.92 114.078 167.92 114.088 167.92 112.037C167.92 111.311 167.899 110.586 167.925 109.866C167.941 109.441 167.806 109.28 167.365 109.285C166.057 109.306 164.75 109.311 163.442 109.285C162.954 109.275 162.851 109.482 162.856 109.917C162.877 111.057 162.845 112.192 162.871 113.332C162.882 113.824 162.762 114.026 162.223 114.026C160.194 114.042 160.194 114.057 160.194 112.042C160.194 109.042 160.204 106.042 160.184 103.037C160.184 102.492 160.344 102.332 160.889 102.337C162.866 102.347 162.866 102.332 162.866 104.301C162.866 105.005 162.887 105.71 162.861 106.41C162.845 106.85 163.022 106.98 163.447 106.974C164.755 106.954 166.063 106.954 167.37 106.974C167.811 106.98 167.941 106.819 167.931 106.394C167.91 105.233 167.936 104.078 167.915 102.917C167.91 102.492 168.045 102.347 168.481 102.337C170.561 102.29 170.561 102.28 170.561 104.368C170.561 105.653 170.561 106.933 170.561 108.218H170.556Z" fill="#484848"/>
<path d="M205.473 114.047C204.394 114.047 203.315 114.026 202.236 114.057C201.769 114.073 201.639 113.917 201.639 113.461C201.639 111.897 201.623 111.897 203.185 111.897C204.534 111.897 205.883 111.902 207.232 111.897C208.115 111.891 208.68 111.337 208.659 110.529C208.633 109.715 208.042 109.244 207.149 109.275C206.34 109.301 205.531 109.316 204.721 109.28C202.76 109.197 201.478 107.695 201.546 105.591C201.608 103.658 202.962 102.337 204.877 102.337C206.641 102.337 208.405 102.358 210.169 102.327C210.719 102.316 210.927 102.446 210.917 103.042C210.88 104.477 210.917 104.477 209.464 104.477C208.322 104.477 207.181 104.477 206.039 104.477C205.157 104.477 204.602 104.871 204.555 105.783C204.514 106.601 205.074 107.088 206.008 107.099C206.838 107.104 207.668 107.088 208.499 107.099C210.387 107.125 211.674 108.586 211.659 110.658C211.643 112.627 210.315 114.047 208.467 114.052C207.471 114.052 206.475 114.052 205.479 114.052L205.473 114.047Z" fill="#484848"/>
<path d="M115.939 114.047C114.88 114.047 113.822 114.026 112.763 114.057C112.286 114.073 112.115 113.943 112.115 113.441C112.115 111.897 112.099 111.897 113.63 111.897C114.979 111.897 116.328 111.902 117.677 111.897C118.611 111.897 119.156 111.352 119.12 110.498C119.083 109.689 118.507 109.259 117.578 109.275C116.665 109.29 115.747 109.321 114.844 109.233C113.116 109.057 111.907 107.477 112.006 105.612C112.109 103.653 113.422 102.332 115.259 102.332C117.086 102.332 118.912 102.347 120.738 102.321C121.242 102.316 121.366 102.487 121.366 102.964C121.361 104.472 121.377 104.472 119.867 104.472C118.725 104.472 117.584 104.472 116.442 104.472C115.576 104.477 115.036 104.928 115.031 105.783C115.026 106.637 115.539 107.099 116.427 107.093C117.277 107.088 118.128 107.083 118.979 107.093C120.827 107.125 122.155 108.601 122.145 110.601C122.134 112.612 120.806 114.036 118.933 114.047C117.936 114.047 116.94 114.047 115.944 114.047H115.939Z" fill="#484848"/>
<path d="M216.702 128.928C215.685 128.928 214.668 128.902 213.651 128.938C213.137 128.954 212.971 128.798 212.981 128.275C212.997 126.783 212.981 126.783 214.486 126.783C215.814 126.783 217.143 126.788 218.471 126.783C219.421 126.777 219.991 126.254 219.981 125.43C219.971 124.606 219.395 124.119 218.435 124.124C217.605 124.124 216.774 124.14 215.944 124.124C214.159 124.088 212.867 122.632 212.867 120.679C212.867 118.72 214.149 117.259 215.939 117.228C217.807 117.202 219.675 117.238 221.538 117.207C222.083 117.197 222.197 117.409 222.197 117.897C222.197 119.363 222.212 119.363 220.775 119.363C219.592 119.363 218.409 119.358 217.226 119.363C216.344 119.368 215.846 119.845 215.866 120.705C215.882 121.534 216.38 121.979 217.236 121.974C218.066 121.974 218.897 121.964 219.727 121.974C221.61 121.99 222.954 123.415 222.975 125.404C222.996 127.384 221.673 128.865 219.81 128.917C218.772 128.948 217.734 128.917 216.697 128.922L216.702 128.928Z" fill="#7F7F7F"/>
<path d="M147.422 106.57C147.422 107.441 147.422 108.306 147.422 109.177C147.422 112.586 145.497 114.425 142.042 114.311C138.555 114.202 136.811 112.405 136.811 108.923C136.811 106.938 136.822 104.954 136.801 102.964C136.801 102.477 136.956 102.327 137.444 102.327C139.385 102.322 139.385 102.306 139.385 104.208C139.385 105.923 139.374 107.643 139.385 109.358C139.4 110.949 140.355 111.757 142.187 111.778C143.91 111.793 144.921 110.938 144.952 109.373C144.989 107.285 145.004 105.197 144.989 103.109C144.989 102.534 145.113 102.316 145.736 102.327C147.417 102.358 147.417 102.327 147.417 104.026C147.417 104.876 147.417 105.721 147.417 106.57H147.422Z" fill="#484848"/>
<path d="M185.09 128.845C184.115 129.171 183.565 128.58 183.378 127.539C183.175 126.404 182.537 125.99 181.432 126.207C181.271 126.238 181.1 126.223 180.934 126.207C180.451 126.161 179.554 126.332 179.554 126.109C179.548 125.487 179.813 124.819 180.13 124.254C180.368 123.829 180.934 124.083 181.344 124.083C181.873 124.083 182.06 124.01 181.811 123.44C181.437 122.591 181.136 121.705 180.799 120.839C180.732 120.674 180.633 120.518 180.55 120.358C180.462 120.513 180.353 120.663 180.29 120.829C179.393 123.254 178.485 125.679 177.618 128.114C177.421 128.668 177.146 128.865 176.544 128.855C174.469 128.819 174.469 128.845 175.221 126.938C176.274 124.264 177.328 121.585 178.376 118.907C178.76 117.927 179.31 117.114 180.493 117.104C181.65 117.093 182.21 117.886 182.605 118.829C183.866 121.845 185.085 124.881 186.387 127.881C186.756 128.725 186.59 128.969 185.713 128.845C185.573 128.824 185.422 128.845 185.095 128.845H185.09Z" fill="#7F7F7F"/>
<path d="M138.132 117.244C139.112 116.917 139.522 117.55 139.865 118.544C140.653 120.829 141.567 123.078 142.433 125.337C142.485 125.467 142.563 125.679 142.641 125.689C142.848 125.705 142.838 125.472 142.89 125.332C143.798 122.866 144.727 120.41 145.593 117.928C145.79 117.368 146.065 117.228 146.621 117.233C148.691 117.265 148.691 117.244 147.949 119.145C146.896 121.845 145.842 124.539 144.794 127.239C144.415 128.208 143.845 128.995 142.708 129C141.567 129.005 141.001 128.213 140.607 127.254C139.356 124.213 138.126 121.161 136.829 118.135C136.492 117.347 136.622 117.114 137.452 117.239C137.613 117.265 137.784 117.239 138.132 117.239V117.244Z" fill="#7F7F7F"/>
<path d="M217.547 102.368C219.145 102.368 220.738 102.389 222.337 102.358C222.861 102.347 223.006 102.518 223.001 103.031C222.98 104.508 223.001 104.498 221.543 104.508C220.676 104.513 219.524 104.228 219.021 104.669C218.455 105.161 218.855 106.342 218.845 107.218C218.819 109.265 218.824 111.311 218.845 113.358C218.85 113.876 218.725 114.083 218.154 114.078C216.136 114.068 216.136 114.088 216.136 112.088C216.136 109.793 216.12 107.498 216.146 105.202C216.151 104.674 216.017 104.461 215.456 104.487C214.548 104.529 213.63 104.477 212.722 104.508C212.244 104.524 212.073 104.379 212.078 103.881C212.078 102.358 212.063 102.358 213.567 102.358C214.896 102.358 216.219 102.358 217.547 102.358V102.368Z" fill="#484848"/>
<path d="M153.846 102.342C155.361 102.342 156.871 102.363 158.386 102.332C158.9 102.321 159.118 102.471 159.061 102.995C159.03 103.28 159.035 103.575 159.061 103.86C159.097 104.311 158.931 104.487 158.459 104.471C157.504 104.44 156.55 104.487 155.6 104.456C155.123 104.44 155.003 104.622 155.008 105.067C155.024 107.819 154.998 110.57 155.029 113.321C155.034 113.901 154.853 114.052 154.287 114.047C152.347 114.026 152.347 114.047 152.347 112.109C152.347 109.772 152.336 107.435 152.357 105.098C152.357 104.622 152.243 104.435 151.734 104.461C150.889 104.497 150.032 104.451 149.187 104.482C148.72 104.497 148.59 104.337 148.59 103.881C148.59 102.352 148.569 102.352 150.115 102.352C151.361 102.352 152.601 102.352 153.846 102.352V102.342Z" fill="#484848"/>
</g>
<defs>
<clipPath id="clip0_1_18006">
<rect width="111" height="27" fill="white" transform="translate(112 102)"/>
</clipPath>
</defs>
</svg>
